<?xml version="1.0" encoding="UTF-8" standalone="no"?>
<!DOCTYPE svg PUBLIC "-//W3C//DTD SVG 1.1//EN"
 "http://www.w3.org/Graphics/SVG/1.1/DTD/svg11.dtd">
<!-- Generated by graphviz version 8.1.0 (20230707.0739)
 -->
<!-- Title: CallTree Pages: 1 -->
<svg width="1153pt" height="952pt"
 viewBox="0.00 0.00 1153.14 951.69" xmlns="http://www.w3.org/2000/svg" xmlns:xlink="http://www.w3.org/1999/xlink">
<g id="graph0" class="graph" transform="scale(1 1) rotate(0) translate(4 947.69)">
<title>CallTree</title>
<polygon fill="white" stroke="none" points="-4,4 -4,-947.69 1149.14,-947.69 1149.14,4 -4,4"/>
<!-- 03498d0e&#45;d741&#45;11ee&#45;8d3f&#45;04cf4b795879 -->
<g id="node1" class="node">
<title>03498d0e&#45;d741&#45;11ee&#45;8d3f&#45;04cf4b795879</title>
<polygon fill="none" stroke="black" points="695,-943.69 583,-943.69 583,-886.19 695,-886.19 695,-943.69"/>
<text text-anchor="middle" x="639" y="-926.39" font-family="Times,serif" font-size="14.00">a9: close_project </text>
<text text-anchor="middle" x="639" y="-909.89" font-family="Times,serif" font-size="14.00"> Type: Core </text>
<text text-anchor="middle" x="639" y="-893.39" font-family="Times,serif" font-size="14.00"> Direction: Core</text>
</g>
<!-- 0349a0fa&#45;d741&#45;11ee&#45;8d3f&#45;04cf4b795879 -->
<g id="node2" class="node">
<title>0349a0fa&#45;d741&#45;11ee&#45;8d3f&#45;04cf4b795879</title>
<ellipse fill="none" stroke="black" cx="432" cy="-832.19" rx="50.84" ry="18"/>
<text text-anchor="middle" x="432" y="-827.14" font-family="Times,serif" font-size="14.00">r_2: level2</text>
</g>
<!-- 03498d0e&#45;d741&#45;11ee&#45;8d3f&#45;04cf4b795879&#45;&gt;0349a0fa&#45;d741&#45;11ee&#45;8d3f&#45;04cf4b795879 -->
<g id="edge1" class="edge">
<title>03498d0e&#45;d741&#45;11ee&#45;8d3f&#45;04cf4b795879&#45;&gt;0349a0fa&#45;d741&#45;11ee&#45;8d3f&#45;04cf4b795879</title>
<path fill="none" stroke="black" d="M582.71,-891.98C548.93,-878.81 506.62,-862.3 475.44,-850.14"/>
<polygon fill="black" stroke="black" points="476.9,-846.56 466.32,-846.19 474.36,-853.08 476.9,-846.56"/>
</g>
<!-- 0349dbce&#45;d741&#45;11ee&#45;8d3f&#45;04cf4b795879 -->
<g id="node17" class="node">
<title>0349dbce&#45;d741&#45;11ee&#45;8d3f&#45;04cf4b795879</title>
<ellipse fill="none" stroke="black" cx="579" cy="-832.19" rx="50.84" ry="18"/>
<text text-anchor="middle" x="579" y="-827.14" font-family="Times,serif" font-size="14.00">r_4: level2</text>
</g>
<!-- 03498d0e&#45;d741&#45;11ee&#45;8d3f&#45;04cf4b795879&#45;&gt;0349dbce&#45;d741&#45;11ee&#45;8d3f&#45;04cf4b795879 -->
<g id="edge16" class="edge">
<title>03498d0e&#45;d741&#45;11ee&#45;8d3f&#45;04cf4b795879&#45;&gt;0349dbce&#45;d741&#45;11ee&#45;8d3f&#45;04cf4b795879</title>
<path fill="none" stroke="black" d="M618.01,-885.7C611.39,-876.79 604.12,-867.01 597.68,-858.33"/>
<polygon fill="black" stroke="black" points="600.09,-856.7 591.31,-850.76 594.47,-860.88 600.09,-856.7"/>
</g>
<!-- 0349e286&#45;d741&#45;11ee&#45;8d3f&#45;04cf4b795879 -->
<g id="node19" class="node">
<title>0349e286&#45;d741&#45;11ee&#45;8d3f&#45;04cf4b795879</title>
<ellipse fill="none" stroke="black" cx="726" cy="-832.19" rx="50.84" ry="18"/>
<text text-anchor="middle" x="726" y="-827.14" font-family="Times,serif" font-size="14.00">r_3: level3</text>
</g>
<!-- 03498d0e&#45;d741&#45;11ee&#45;8d3f&#45;04cf4b795879&#45;&gt;0349e286&#45;d741&#45;11ee&#45;8d3f&#45;04cf4b795879 -->
<g id="edge18" class="edge">
<title>03498d0e&#45;d741&#45;11ee&#45;8d3f&#45;04cf4b795879&#45;&gt;0349e286&#45;d741&#45;11ee&#45;8d3f&#45;04cf4b795879</title>
<path fill="none" stroke="black" d="M669.43,-885.7C679.61,-876.25 690.85,-865.82 700.6,-856.76"/>
<polygon fill="black" stroke="black" points="702.45,-859.9 707.4,-850.53 697.69,-854.77 702.45,-859.9"/>
</g>
<!-- 0349e9e8&#45;d741&#45;11ee&#45;8d3f&#45;04cf4b795879 -->
<g id="node21" class="node">
<title>0349e9e8&#45;d741&#45;11ee&#45;8d3f&#45;04cf4b795879</title>
<ellipse fill="none" stroke="black" cx="886" cy="-832.19" rx="50.84" ry="18"/>
<text text-anchor="middle" x="886" y="-827.14" font-family="Times,serif" font-size="14.00">r_5: level3</text>
</g>
<!-- 03498d0e&#45;d741&#45;11ee&#45;8d3f&#45;04cf4b795879&#45;&gt;0349e9e8&#45;d741&#45;11ee&#45;8d3f&#45;04cf4b795879 -->
<g id="edge20" class="edge">
<title>03498d0e&#45;d741&#45;11ee&#45;8d3f&#45;04cf4b795879&#45;&gt;0349e9e8&#45;d741&#45;11ee&#45;8d3f&#45;04cf4b795879</title>
<path fill="none" stroke="black" d="M695.36,-895.52C738.84,-881.3 798.28,-861.87 839.17,-848.5"/>
<polygon fill="black" stroke="black" points="839.99,-851.59 848.4,-845.15 837.81,-844.94 839.99,-851.59"/>
</g>
<!-- 0349a546&#45;d741&#45;11ee&#45;8d3f&#45;04cf4b795879 -->
<g id="node3" class="node">
<title>0349a546&#45;d741&#45;11ee&#45;8d3f&#45;04cf4b795879</title>
<polygon fill="none" stroke="black" points="469.97,-731.24 430.99,-778.19 353.01,-778.19 314.02,-731.24 353.01,-684.29 430.99,-684.29 469.97,-731.24"/>
<text text-anchor="middle" x="392" y="-742.69" font-family="Times,serif" font-size="14.00">rp_12: level2 </text>
<text text-anchor="middle" x="392" y="-726.19" font-family="Times,serif" font-size="14.00"> close_project </text>
<text text-anchor="middle" x="392" y="-709.69" font-family="Times,serif" font-size="14.00"> cost : 64</text>
</g>
<!-- 0349a0fa&#45;d741&#45;11ee&#45;8d3f&#45;04cf4b795879&#45;&gt;0349a546&#45;d741&#45;11ee&#45;8d3f&#45;04cf4b795879 -->
<g id="edge2" class="edge">
<title>0349a0fa&#45;d741&#45;11ee&#45;8d3f&#45;04cf4b795879&#45;&gt;0349a546&#45;d741&#45;11ee&#45;8d3f&#45;04cf4b795879</title>
<path fill="none" stroke="black" d="M425.03,-813.96C422.1,-806.72 418.52,-797.85 414.8,-788.65"/>
<polygon fill="black" stroke="black" points="417.74,-787.57 410.74,-779.61 411.25,-790.19 417.74,-787.57"/>
</g>
<!-- 0349a8c0&#45;d741&#45;11ee&#45;8d3f&#45;04cf4b795879 -->
<g id="node4" class="node">
<title>0349a8c0&#45;d741&#45;11ee&#45;8d3f&#45;04cf4b795879</title>
<polygon fill="none" stroke="black" points="257.25,-648.29 110.75,-648.29 110.75,-590.79 257.25,-590.79 257.25,-648.29"/>
<text text-anchor="middle" x="184" y="-630.99" font-family="Times,serif" font-size="14.00">r0: four_eyes_principle </text>
<text text-anchor="middle" x="184" y="-614.49" font-family="Times,serif" font-size="14.00"> Type: insert </text>
<text text-anchor="middle" x="184" y="-597.99" font-family="Times,serif" font-size="14.00"> Direction: after</text>
</g>
<!-- 0349a546&#45;d741&#45;11ee&#45;8d3f&#45;04cf4b795879&#45;&gt;0349a8c0&#45;d741&#45;11ee&#45;8d3f&#45;04cf4b795879 -->
<g id="edge3" class="edge">
<title>0349a546&#45;d741&#45;11ee&#45;8d3f&#45;04cf4b795879&#45;&gt;0349a8c0&#45;d741&#45;11ee&#45;8d3f&#45;04cf4b795879</title>
<path fill="none" stroke="black" d="M338.16,-701.85C310.26,-687.13 276.03,-669.08 246.91,-653.72"/>
<polygon fill="black" stroke="black" points="248.73,-650.2 238.25,-648.63 245.46,-656.39 248.73,-650.2"/>
</g>
<!-- 0349acf8&#45;d741&#45;11ee&#45;8d3f&#45;04cf4b795879 -->
<g id="node5" class="node">
<title>0349acf8&#45;d741&#45;11ee&#45;8d3f&#45;04cf4b795879</title>
<polygon fill="none" stroke="black" points="376.75,-648.29 275.25,-648.29 275.25,-590.79 376.75,-590.79 376.75,-648.29"/>
<text text-anchor="middle" x="326" y="-630.99" font-family="Times,serif" font-size="14.00">r0: new_tender </text>
<text text-anchor="middle" x="326" y="-614.49" font-family="Times,serif" font-size="14.00"> Type: delete </text>
<text text-anchor="middle" x="326" y="-597.99" font-family="Times,serif" font-size="14.00"> Direction: any</text>
</g>
<!-- 0349a546&#45;d741&#45;11ee&#45;8d3f&#45;04cf4b795879&#45;&gt;0349acf8&#45;d741&#45;11ee&#45;8d3f&#45;04cf4b795879 -->
<g id="edge4" class="edge">
<title>0349a546&#45;d741&#45;11ee&#45;8d3f&#45;04cf4b795879&#45;&gt;0349acf8&#45;d741&#45;11ee&#45;8d3f&#45;04cf4b795879</title>
<path fill="none" stroke="black" d="M364.2,-684.04C358.93,-675.27 353.47,-666.21 348.39,-657.77"/>
<polygon fill="black" stroke="black" points="351,-656.31 342.85,-649.55 345,-659.92 351,-656.31"/>
</g>
<!-- 0349b0e0&#45;d741&#45;11ee&#45;8d3f&#45;04cf4b795879 -->
<g id="node6" class="node">
<title>0349b0e0&#45;d741&#45;11ee&#45;8d3f&#45;04cf4b795879</title>
<polygon fill="none" stroke="black" points="519,-648.29 395,-648.29 395,-590.79 519,-590.79 519,-648.29"/>
<text text-anchor="middle" x="457" y="-630.99" font-family="Times,serif" font-size="14.00">r0: create_proposal </text>
<text text-anchor="middle" x="457" y="-614.49" font-family="Times,serif" font-size="14.00"> Type: replace </text>
<text text-anchor="middle" x="457" y="-597.99" font-family="Times,serif" font-size="14.00"> Direction: Core</text>
</g>
<!-- 0349a546&#45;d741&#45;11ee&#45;8d3f&#45;04cf4b795879&#45;&gt;0349b0e0&#45;d741&#45;11ee&#45;8d3f&#45;04cf4b795879 -->
<g id="edge5" class="edge">
<title>0349a546&#45;d741&#45;11ee&#45;8d3f&#45;04cf4b795879&#45;&gt;0349b0e0&#45;d741&#45;11ee&#45;8d3f&#45;04cf4b795879</title>
<path fill="none" stroke="black" d="M419.38,-684.04C424.57,-675.27 429.94,-666.21 434.94,-657.77"/>
<polygon fill="black" stroke="black" points="438.32,-659.94 440.4,-649.55 432.3,-656.37 438.32,-659.94"/>
</g>
<!-- 0349d782&#45;d741&#45;11ee&#45;8d3f&#45;04cf4b795879 -->
<g id="node16" class="node">
<title>0349d782&#45;d741&#45;11ee&#45;8d3f&#45;04cf4b795879</title>
<polygon fill="none" stroke="black" points="670.5,-648.29 537.5,-648.29 537.5,-590.79 670.5,-590.79 670.5,-648.29"/>
<text text-anchor="middle" x="604" y="-630.99" font-family="Times,serif" font-size="14.00">r0: contact_suppliers </text>
<text text-anchor="middle" x="604" y="-614.49" font-family="Times,serif" font-size="14.00"> Type: delete </text>
<text text-anchor="middle" x="604" y="-597.99" font-family="Times,serif" font-size="14.00"> Direction: any</text>
</g>
<!-- 0349a546&#45;d741&#45;11ee&#45;8d3f&#45;04cf4b795879&#45;&gt;0349d782&#45;d741&#45;11ee&#45;8d3f&#45;04cf4b795879 -->
<g id="edge15" class="edge">
<title>0349a546&#45;d741&#45;11ee&#45;8d3f&#45;04cf4b795879&#45;&gt;0349d782&#45;d741&#45;11ee&#45;8d3f&#45;04cf4b795879</title>
<path fill="none" stroke="black" d="M445.77,-701.69C456.75,-695.9 468.23,-689.88 479,-684.29 498.33,-674.26 519.4,-663.46 538.64,-653.65"/>
<polygon fill="black" stroke="black" points="539.9,-656.43 547.22,-648.78 536.72,-650.2 539.9,-656.43"/>
</g>
<!-- 0349b734&#45;d741&#45;11ee&#45;8d3f&#45;04cf4b795879 -->
<g id="node7" class="node">
<title>0349b734&#45;d741&#45;11ee&#45;8d3f&#45;04cf4b795879</title>
<ellipse fill="none" stroke="black" cx="155" cy="-536.79" rx="50.84" ry="18"/>
<text text-anchor="middle" x="155" y="-531.74" font-family="Times,serif" font-size="14.00">r_2: level2</text>
</g>
<!-- 0349b0e0&#45;d741&#45;11ee&#45;8d3f&#45;04cf4b795879&#45;&gt;0349b734&#45;d741&#45;11ee&#45;8d3f&#45;04cf4b795879 -->
<g id="edge6" class="edge">
<title>0349b0e0&#45;d741&#45;11ee&#45;8d3f&#45;04cf4b795879&#45;&gt;0349b734&#45;d741&#45;11ee&#45;8d3f&#45;04cf4b795879</title>
<path fill="none" stroke="black" d="M394.84,-593.65C391.87,-592.65 388.91,-591.69 386,-590.79 326.72,-572.52 257.15,-557.39 209.97,-548.04"/>
<polygon fill="black" stroke="black" points="210.85,-544.45 200.36,-545.96 209.5,-551.32 210.85,-544.45"/>
</g>
<!-- 0349c22e&#45;d741&#45;11ee&#45;8d3f&#45;04cf4b795879 -->
<g id="node10" class="node">
<title>0349c22e&#45;d741&#45;11ee&#45;8d3f&#45;04cf4b795879</title>
<ellipse fill="none" stroke="black" cx="313" cy="-536.79" rx="50.84" ry="18"/>
<text text-anchor="middle" x="313" y="-531.74" font-family="Times,serif" font-size="14.00">r_4: level2</text>
</g>
<!-- 0349b0e0&#45;d741&#45;11ee&#45;8d3f&#45;04cf4b795879&#45;&gt;0349c22e&#45;d741&#45;11ee&#45;8d3f&#45;04cf4b795879 -->
<g id="edge9" class="edge">
<title>0349b0e0&#45;d741&#45;11ee&#45;8d3f&#45;04cf4b795879&#45;&gt;0349c22e&#45;d741&#45;11ee&#45;8d3f&#45;04cf4b795879</title>
<path fill="none" stroke="black" d="M406.63,-590.3C387.47,-579.56 366.06,-567.55 348.55,-557.73"/>
<polygon fill="black" stroke="black" points="350.7,-554.36 340.26,-552.52 347.27,-560.47 350.7,-554.36"/>
</g>
<!-- 0349c8fa&#45;d741&#45;11ee&#45;8d3f&#45;04cf4b795879 -->
<g id="node12" class="node">
<title>0349c8fa&#45;d741&#45;11ee&#45;8d3f&#45;04cf4b795879</title>
<ellipse fill="none" stroke="black" cx="462" cy="-536.79" rx="50.84" ry="18"/>
<text text-anchor="middle" x="462" y="-531.74" font-family="Times,serif" font-size="14.00">r_3: level3</text>
</g>
<!-- 0349b0e0&#45;d741&#45;11ee&#45;8d3f&#45;04cf4b795879&#45;&gt;0349c8fa&#45;d741&#45;11ee&#45;8d3f&#45;04cf4b795879 -->
<g id="edge11" class="edge">
<title>0349b0e0&#45;d741&#45;11ee&#45;8d3f&#45;04cf4b795879&#45;&gt;0349c8fa&#45;d741&#45;11ee&#45;8d3f&#45;04cf4b795879</title>
<path fill="none" stroke="black" d="M458.75,-590.3C459.24,-582.36 459.77,-573.72 460.26,-565.79"/>
<polygon fill="black" stroke="black" points="463.82,-566.04 460.94,-555.84 456.83,-565.6 463.82,-566.04"/>
</g>
<!-- 0349d066&#45;d741&#45;11ee&#45;8d3f&#45;04cf4b795879 -->
<g id="node14" class="node">
<title>0349d066&#45;d741&#45;11ee&#45;8d3f&#45;04cf4b795879</title>
<ellipse fill="none" stroke="black" cx="639" cy="-536.79" rx="50.84" ry="18"/>
<text text-anchor="middle" x="639" y="-531.74" font-family="Times,serif" font-size="14.00">r_5: level3</text>
</g>
<!-- 0349b0e0&#45;d741&#45;11ee&#45;8d3f&#45;04cf4b795879&#45;&gt;0349d066&#45;d741&#45;11ee&#45;8d3f&#45;04cf4b795879 -->
<g id="edge13" class="edge">
<title>0349b0e0&#45;d741&#45;11ee&#45;8d3f&#45;04cf4b795879&#45;&gt;0349d066&#45;d741&#45;11ee&#45;8d3f&#45;04cf4b795879</title>
<path fill="none" stroke="black" d="M519.38,-590.87C545.55,-579.25 575.24,-566.08 598.5,-555.76"/>
<polygon fill="black" stroke="black" points="599.64,-558.64 607.36,-551.39 596.8,-552.24 599.64,-558.64"/>
</g>
<!-- 0349bb62&#45;d741&#45;11ee&#45;8d3f&#45;04cf4b795879 -->
<g id="node8" class="node">
<title>0349bb62&#45;d741&#45;11ee&#45;8d3f&#45;04cf4b795879</title>
<polygon fill="none" stroke="black" points="178,-435.85 133.5,-482.79 44.5,-482.79 0,-435.85 44.5,-388.9 133.5,-388.9 178,-435.85"/>
<text text-anchor="middle" x="89" y="-447.3" font-family="Times,serif" font-size="14.00">rp_15: level3 </text>
<text text-anchor="middle" x="89" y="-430.8" font-family="Times,serif" font-size="14.00"> create_proposal </text>
<text text-anchor="middle" x="89" y="-414.3" font-family="Times,serif" font-size="14.00"> cost : 100</text>
</g>
<!-- 0349b734&#45;d741&#45;11ee&#45;8d3f&#45;04cf4b795879&#45;&gt;0349bb62&#45;d741&#45;11ee&#45;8d3f&#45;04cf4b795879 -->
<g id="edge7" class="edge">
<title>0349b734&#45;d741&#45;11ee&#45;8d3f&#45;04cf4b795879&#45;&gt;0349bb62&#45;d741&#45;11ee&#45;8d3f&#45;04cf4b795879</title>
<path fill="none" stroke="black" d="M143.8,-519.01C138.73,-511.41 132.42,-501.95 125.91,-492.18"/>
<polygon fill="black" stroke="black" points="128.35,-490.54 119.89,-484.16 122.53,-494.43 128.35,-490.54"/>
</g>
<!-- 0349be82&#45;d741&#45;11ee&#45;8d3f&#45;04cf4b795879 -->
<g id="node9" class="node">
<title>0349be82&#45;d741&#45;11ee&#45;8d3f&#45;04cf4b795879</title>
<polygon fill="none" stroke="black" points="162.62,-352.9 15.37,-352.9 15.37,-295.4 162.62,-295.4 162.62,-352.9"/>
<text text-anchor="middle" x="89" y="-335.6" font-family="Times,serif" font-size="14.00">r0: decide_on_proposal </text>
<text text-anchor="middle" x="89" y="-319.1" font-family="Times,serif" font-size="14.00"> Type: delete </text>
<text text-anchor="middle" x="89" y="-302.6" font-family="Times,serif" font-size="14.00"> Direction: any</text>
</g>
<!-- 0349bb62&#45;d741&#45;11ee&#45;8d3f&#45;04cf4b795879&#45;&gt;0349be82&#45;d741&#45;11ee&#45;8d3f&#45;04cf4b795879 -->
<g id="edge8" class="edge">
<title>0349bb62&#45;d741&#45;11ee&#45;8d3f&#45;04cf4b795879&#45;&gt;0349be82&#45;d741&#45;11ee&#45;8d3f&#45;04cf4b795879</title>
<path fill="none" stroke="black" d="M89,-388.64C89,-380.44 89,-371.98 89,-364.01"/>
<polygon fill="black" stroke="black" points="92.5,-364.15 89,-354.15 85.5,-364.15 92.5,-364.15"/>
</g>
<!-- 0349c5ee&#45;d741&#45;11ee&#45;8d3f&#45;04cf4b795879 -->
<g id="node11" class="node">
<title>0349c5ee&#45;d741&#45;11ee&#45;8d3f&#45;04cf4b795879</title>
<polygon fill="none" stroke="black" points="374,-435.85 329.5,-482.79 240.5,-482.79 196,-435.85 240.5,-388.9 329.5,-388.9 374,-435.85"/>
<text text-anchor="middle" x="285" y="-447.3" font-family="Times,serif" font-size="14.00">rp_15: level2 </text>
<text text-anchor="middle" x="285" y="-430.8" font-family="Times,serif" font-size="14.00"> create_proposal </text>
<text text-anchor="middle" x="285" y="-414.3" font-family="Times,serif" font-size="14.00"> cost : 15</text>
</g>
<!-- 0349c22e&#45;d741&#45;11ee&#45;8d3f&#45;04cf4b795879&#45;&gt;0349c5ee&#45;d741&#45;11ee&#45;8d3f&#45;04cf4b795879 -->
<g id="edge10" class="edge">
<title>0349c22e&#45;d741&#45;11ee&#45;8d3f&#45;04cf4b795879&#45;&gt;0349c5ee&#45;d741&#45;11ee&#45;8d3f&#45;04cf4b795879</title>
<path fill="none" stroke="black" d="M308.12,-518.56C306.09,-511.4 303.62,-502.64 301.04,-493.55"/>
<polygon fill="black" stroke="black" points="304.21,-492.88 298.12,-484.21 297.47,-494.79 304.21,-492.88"/>
</g>
<!-- 0349cd00&#45;d741&#45;11ee&#45;8d3f&#45;04cf4b795879 -->
<g id="node13" class="node">
<title>0349cd00&#45;d741&#45;11ee&#45;8d3f&#45;04cf4b795879</title>
<polygon fill="none" stroke="black" points="570,-435.85 525.5,-482.79 436.5,-482.79 392,-435.85 436.5,-388.9 525.5,-388.9 570,-435.85"/>
<text text-anchor="middle" x="481" y="-447.3" font-family="Times,serif" font-size="14.00">rp_15: level3 </text>
<text text-anchor="middle" x="481" y="-430.8" font-family="Times,serif" font-size="14.00"> create_proposal </text>
<text text-anchor="middle" x="481" y="-414.3" font-family="Times,serif" font-size="14.00"> cost : 26</text>
</g>
<!-- 0349c8fa&#45;d741&#45;11ee&#45;8d3f&#45;04cf4b795879&#45;&gt;0349cd00&#45;d741&#45;11ee&#45;8d3f&#45;04cf4b795879 -->
<g id="edge12" class="edge">
<title>0349c8fa&#45;d741&#45;11ee&#45;8d3f&#45;04cf4b795879&#45;&gt;0349cd00&#45;d741&#45;11ee&#45;8d3f&#45;04cf4b795879</title>
<path fill="none" stroke="black" d="M465.31,-518.56C466.67,-511.47 468.33,-502.83 470.05,-493.84"/>
<polygon fill="black" stroke="black" points="473.65,-494.7 472.09,-484.21 466.77,-493.38 473.65,-494.7"/>
</g>
<!-- 0349d462&#45;d741&#45;11ee&#45;8d3f&#45;04cf4b795879 -->
<g id="node15" class="node">
<title>0349d462&#45;d741&#45;11ee&#45;8d3f&#45;04cf4b795879</title>
<polygon fill="none" stroke="black" points="766,-435.85 721.5,-482.79 632.5,-482.79 588,-435.85 632.5,-388.9 721.5,-388.9 766,-435.85"/>
<text text-anchor="middle" x="677" y="-447.3" font-family="Times,serif" font-size="14.00">rp_15: level3 </text>
<text text-anchor="middle" x="677" y="-430.8" font-family="Times,serif" font-size="14.00"> create_proposal </text>
<text text-anchor="middle" x="677" y="-414.3" font-family="Times,serif" font-size="14.00"> cost : 98</text>
</g>
<!-- 0349d066&#45;d741&#45;11ee&#45;8d3f&#45;04cf4b795879&#45;&gt;0349d462&#45;d741&#45;11ee&#45;8d3f&#45;04cf4b795879 -->
<g id="edge14" class="edge">
<title>0349d066&#45;d741&#45;11ee&#45;8d3f&#45;04cf4b795879&#45;&gt;0349d462&#45;d741&#45;11ee&#45;8d3f&#45;04cf4b795879</title>
<path fill="none" stroke="black" d="M645.62,-518.56C648.4,-511.32 651.8,-502.45 655.33,-493.26"/>
<polygon fill="black" stroke="black" points="658.87,-494.8 659.19,-484.21 652.34,-492.29 658.87,-494.8"/>
</g>
<!-- 0349df84&#45;d741&#45;11ee&#45;8d3f&#45;04cf4b795879 -->
<g id="node18" class="node">
<title>0349df84&#45;d741&#45;11ee&#45;8d3f&#45;04cf4b795879</title>
<polygon fill="none" stroke="black" points="643.97,-731.24 604.99,-778.19 527.01,-778.19 488.02,-731.24 527.01,-684.29 604.99,-684.29 643.97,-731.24"/>
<text text-anchor="middle" x="566" y="-742.69" font-family="Times,serif" font-size="14.00">rp_12: level2 </text>
<text text-anchor="middle" x="566" y="-726.19" font-family="Times,serif" font-size="14.00"> close_project </text>
<text text-anchor="middle" x="566" y="-709.69" font-family="Times,serif" font-size="14.00"> cost : 67</text>
</g>
<!-- 0349dbce&#45;d741&#45;11ee&#45;8d3f&#45;04cf4b795879&#45;&gt;0349df84&#45;d741&#45;11ee&#45;8d3f&#45;04cf4b795879 -->
<g id="edge17" class="edge">
<title>0349dbce&#45;d741&#45;11ee&#45;8d3f&#45;04cf4b795879&#45;&gt;0349df84&#45;d741&#45;11ee&#45;8d3f&#45;04cf4b795879</title>
<path fill="none" stroke="black" d="M576.73,-813.96C575.8,-806.87 574.67,-798.23 573.49,-789.24"/>
<polygon fill="black" stroke="black" points="576.86,-789.07 572.09,-779.61 569.92,-789.98 576.86,-789.07"/>
</g>
<!-- 0349e682&#45;d741&#45;11ee&#45;8d3f&#45;04cf4b795879 -->
<g id="node20" class="node">
<title>0349e682&#45;d741&#45;11ee&#45;8d3f&#45;04cf4b795879</title>
<polygon fill="none" stroke="black" points="817.97,-731.24 778.99,-778.19 701.01,-778.19 662.02,-731.24 701.01,-684.29 778.99,-684.29 817.97,-731.24"/>
<text text-anchor="middle" x="740" y="-742.69" font-family="Times,serif" font-size="14.00">rp_19: level3 </text>
<text text-anchor="middle" x="740" y="-726.19" font-family="Times,serif" font-size="14.00"> close_project </text>
<text text-anchor="middle" x="740" y="-709.69" font-family="Times,serif" font-size="14.00"> cost : 56</text>
</g>
<!-- 0349e286&#45;d741&#45;11ee&#45;8d3f&#45;04cf4b795879&#45;&gt;0349e682&#45;d741&#45;11ee&#45;8d3f&#45;04cf4b795879 -->
<g id="edge19" class="edge">
<title>0349e286&#45;d741&#45;11ee&#45;8d3f&#45;04cf4b795879&#45;&gt;0349e682&#45;d741&#45;11ee&#45;8d3f&#45;04cf4b795879</title>
<path fill="none" stroke="black" d="M728.44,-813.96C729.44,-806.87 730.66,-798.23 731.93,-789.24"/>
<polygon fill="black" stroke="black" points="735.5,-790 733.44,-779.61 728.57,-789.02 735.5,-790"/>
</g>
<!-- 0349edda&#45;d741&#45;11ee&#45;8d3f&#45;04cf4b795879 -->
<g id="node22" class="node">
<title>0349edda&#45;d741&#45;11ee&#45;8d3f&#45;04cf4b795879</title>
<polygon fill="none" stroke="black" points="991.97,-731.24 952.99,-778.19 875.01,-778.19 836.02,-731.24 875.01,-684.29 952.99,-684.29 991.97,-731.24"/>
<text text-anchor="middle" x="914" y="-742.69" font-family="Times,serif" font-size="14.00">rp_19: level3 </text>
<text text-anchor="middle" x="914" y="-726.19" font-family="Times,serif" font-size="14.00"> close_project </text>
<text text-anchor="middle" x="914" y="-709.69" font-family="Times,serif" font-size="14.00"> cost : 62</text>
</g>
<!-- 0349e9e8&#45;d741&#45;11ee&#45;8d3f&#45;04cf4b795879&#45;&gt;0349edda&#45;d741&#45;11ee&#45;8d3f&#45;04cf4b795879 -->
<g id="edge21" class="edge">
<title>0349e9e8&#45;d741&#45;11ee&#45;8d3f&#45;04cf4b795879&#45;&gt;0349edda&#45;d741&#45;11ee&#45;8d3f&#45;04cf4b795879</title>
<path fill="none" stroke="black" d="M890.88,-813.96C892.9,-806.79 895.38,-798.04 897.95,-788.95"/>
<polygon fill="black" stroke="black" points="901.52,-790.19 900.88,-779.61 894.79,-788.28 901.52,-790.19"/>
</g>
<!-- 0349f12c&#45;d741&#45;11ee&#45;8d3f&#45;04cf4b795879 -->
<g id="node23" class="node">
<title>0349f12c&#45;d741&#45;11ee&#45;8d3f&#45;04cf4b795879</title>
<polygon fill="none" stroke="black" points="970.37,-648.29 857.62,-648.29 857.62,-590.79 970.37,-590.79 970.37,-648.29"/>
<text text-anchor="middle" x="914" y="-630.99" font-family="Times,serif" font-size="14.00">r0: data_support </text>
<text text-anchor="middle" x="914" y="-614.49" font-family="Times,serif" font-size="14.00"> Type: insert </text>
<text text-anchor="middle" x="914" y="-597.99" font-family="Times,serif" font-size="14.00"> Direction: before</text>
</g>
<!-- 0349edda&#45;d741&#45;11ee&#45;8d3f&#45;04cf4b795879&#45;&gt;0349f12c&#45;d741&#45;11ee&#45;8d3f&#45;04cf4b795879 -->
<g id="edge22" class="edge">
<title>0349edda&#45;d741&#45;11ee&#45;8d3f&#45;04cf4b795879&#45;&gt;0349f12c&#45;d741&#45;11ee&#45;8d3f&#45;04cf4b795879</title>
<path fill="none" stroke="black" d="M914,-684.04C914,-675.84 914,-667.38 914,-659.41"/>
<polygon fill="black" stroke="black" points="917.5,-659.55 914,-649.55 910.5,-659.55 917.5,-659.55"/>
</g>
<!-- 0349f94c&#45;d741&#45;11ee&#45;8d3f&#45;04cf4b795879 -->
<g id="node24" class="node">
<title>0349f94c&#45;d741&#45;11ee&#45;8d3f&#45;04cf4b795879</title>
<ellipse fill="none" stroke="black" cx="904" cy="-536.79" rx="50.84" ry="18"/>
<text text-anchor="middle" x="904" y="-531.74" font-family="Times,serif" font-size="14.00">r_2: level2</text>
</g>
<!-- 0349f12c&#45;d741&#45;11ee&#45;8d3f&#45;04cf4b795879&#45;&gt;0349f94c&#45;d741&#45;11ee&#45;8d3f&#45;04cf4b795879 -->
<g id="edge23" class="edge">
<title>0349f12c&#45;d741&#45;11ee&#45;8d3f&#45;04cf4b795879&#45;&gt;0349f94c&#45;d741&#45;11ee&#45;8d3f&#45;04cf4b795879</title>
<path fill="none" stroke="black" d="M910.5,-590.3C909.51,-582.26 908.42,-573.52 907.43,-565.51"/>
<polygon fill="black" stroke="black" points="910.81,-565.33 906.11,-555.84 903.86,-566.19 910.81,-565.33"/>
</g>
<!-- 034a212e&#45;d741&#45;11ee&#45;8d3f&#45;04cf4b795879 -->
<g id="node34" class="node">
<title>034a212e&#45;d741&#45;11ee&#45;8d3f&#45;04cf4b795879</title>
<ellipse fill="none" stroke="black" cx="1049" cy="-536.79" rx="50.84" ry="18"/>
<text text-anchor="middle" x="1049" y="-531.74" font-family="Times,serif" font-size="14.00">r_4: level2</text>
</g>
<!-- 0349f12c&#45;d741&#45;11ee&#45;8d3f&#45;04cf4b795879&#45;&gt;034a212e&#45;d741&#45;11ee&#45;8d3f&#45;04cf4b795879 -->
<g id="edge33" class="edge">
<title>0349f12c&#45;d741&#45;11ee&#45;8d3f&#45;04cf4b795879&#45;&gt;034a212e&#45;d741&#45;11ee&#45;8d3f&#45;04cf4b795879</title>
<path fill="none" stroke="black" d="M961.21,-590.3C978.88,-579.73 998.6,-567.94 1014.86,-558.21"/>
<polygon fill="black" stroke="black" points="1016.21,-560.89 1023,-552.75 1012.62,-554.88 1016.21,-560.89"/>
</g>
<!-- 0349fd48&#45;d741&#45;11ee&#45;8d3f&#45;04cf4b795879 -->
<g id="node25" class="node">
<title>0349fd48&#45;d741&#45;11ee&#45;8d3f&#45;04cf4b795879</title>
<polygon fill="none" stroke="black" points="975.14,-435.85 937.07,-482.79 860.93,-482.79 822.86,-435.85 860.93,-388.9 937.07,-388.9 975.14,-435.85"/>
<text text-anchor="middle" x="899" y="-447.3" font-family="Times,serif" font-size="14.00">rp_20: level2 </text>
<text text-anchor="middle" x="899" y="-430.8" font-family="Times,serif" font-size="14.00"> data_support </text>
<text text-anchor="middle" x="899" y="-414.3" font-family="Times,serif" font-size="14.00"> cost : 1</text>
</g>
<!-- 0349f94c&#45;d741&#45;11ee&#45;8d3f&#45;04cf4b795879&#45;&gt;0349fd48&#45;d741&#45;11ee&#45;8d3f&#45;04cf4b795879 -->
<g id="edge24" class="edge">
<title>0349f94c&#45;d741&#45;11ee&#45;8d3f&#45;04cf4b795879&#45;&gt;0349fd48&#45;d741&#45;11ee&#45;8d3f&#45;04cf4b795879</title>
<path fill="none" stroke="black" d="M903.13,-518.56C902.77,-511.55 902.34,-503.02 901.89,-494.14"/>
<polygon fill="black" stroke="black" points="905.34,-494.03 901.34,-484.21 898.35,-494.38 905.34,-494.03"/>
</g>
<!-- 034a00fe&#45;d741&#45;11ee&#45;8d3f&#45;04cf4b795879 -->
<g id="node26" class="node">
<title>034a00fe&#45;d741&#45;11ee&#45;8d3f&#45;04cf4b795879</title>
<polygon fill="none" stroke="black" points="891.37,-352.9 778.62,-352.9 778.62,-295.4 891.37,-295.4 891.37,-352.9"/>
<text text-anchor="middle" x="835" y="-335.6" font-family="Times,serif" font-size="14.00">r0: inform_head </text>
<text text-anchor="middle" x="835" y="-319.1" font-family="Times,serif" font-size="14.00"> Type: insert </text>
<text text-anchor="middle" x="835" y="-302.6" font-family="Times,serif" font-size="14.00"> Direction: before</text>
</g>
<!-- 0349fd48&#45;d741&#45;11ee&#45;8d3f&#45;04cf4b795879&#45;&gt;034a00fe&#45;d741&#45;11ee&#45;8d3f&#45;04cf4b795879 -->
<g id="edge25" class="edge">
<title>0349fd48&#45;d741&#45;11ee&#45;8d3f&#45;04cf4b795879&#45;&gt;034a00fe&#45;d741&#45;11ee&#45;8d3f&#45;04cf4b795879</title>
<path fill="none" stroke="black" d="M872.04,-388.64C866.98,-379.97 861.75,-371.01 856.87,-362.64"/>
<polygon fill="black" stroke="black" points="859.4,-361.03 851.34,-354.15 853.35,-364.55 859.4,-361.03"/>
</g>
<!-- 034a1d96&#45;d741&#45;11ee&#45;8d3f&#45;04cf4b795879 -->
<g id="node33" class="node">
<title>034a1d96&#45;d741&#45;11ee&#45;8d3f&#45;04cf4b795879</title>
<polygon fill="none" stroke="black" points="1016.37,-352.9 909.62,-352.9 909.62,-295.4 1016.37,-295.4 1016.37,-352.9"/>
<text text-anchor="middle" x="963" y="-335.6" font-family="Times,serif" font-size="14.00">r0: design_offer </text>
<text text-anchor="middle" x="963" y="-319.1" font-family="Times,serif" font-size="14.00"> Type: delete </text>
<text text-anchor="middle" x="963" y="-302.6" font-family="Times,serif" font-size="14.00"> Direction: any</text>
</g>
<!-- 0349fd48&#45;d741&#45;11ee&#45;8d3f&#45;04cf4b795879&#45;&gt;034a1d96&#45;d741&#45;11ee&#45;8d3f&#45;04cf4b795879 -->
<g id="edge32" class="edge">
<title>0349fd48&#45;d741&#45;11ee&#45;8d3f&#45;04cf4b795879&#45;&gt;034a1d96&#45;d741&#45;11ee&#45;8d3f&#45;04cf4b795879</title>
<path fill="none" stroke="black" d="M925.95,-388.64C931.01,-379.97 936.24,-371.01 941.12,-362.64"/>
<polygon fill="black" stroke="black" points="944.64,-364.55 946.66,-354.15 938.6,-361.03 944.64,-364.55"/>
</g>
<!-- 034a084c&#45;d741&#45;11ee&#45;8d3f&#45;04cf4b795879 -->
<g id="node27" class="node">
<title>034a084c&#45;d741&#45;11ee&#45;8d3f&#45;04cf4b795879</title>
<ellipse fill="none" stroke="black" cx="769" cy="-241.4" rx="50.84" ry="18"/>
<text text-anchor="middle" x="769" y="-236.35" font-family="Times,serif" font-size="14.00">r_2: level2</text>
</g>
<!-- 034a00fe&#45;d741&#45;11ee&#45;8d3f&#45;04cf4b795879&#45;&gt;034a084c&#45;d741&#45;11ee&#45;8d3f&#45;04cf4b795879 -->
<g id="edge26" class="edge">
<title>034a00fe&#45;d741&#45;11ee&#45;8d3f&#45;04cf4b795879&#45;&gt;034a084c&#45;d741&#45;11ee&#45;8d3f&#45;04cf4b795879</title>
<path fill="none" stroke="black" d="M811.91,-294.9C804.55,-285.9 796.47,-276.01 789.32,-267.26"/>
<polygon fill="black" stroke="black" points="791.58,-265.5 782.54,-259.97 786.16,-269.93 791.58,-265.5"/>
</g>
<!-- 034a0f4a&#45;d741&#45;11ee&#45;8d3f&#45;04cf4b795879 -->
<g id="node29" class="node">
<title>034a0f4a&#45;d741&#45;11ee&#45;8d3f&#45;04cf4b795879</title>
<ellipse fill="none" stroke="black" cx="901" cy="-241.4" rx="50.84" ry="18"/>
<text text-anchor="middle" x="901" y="-236.35" font-family="Times,serif" font-size="14.00">r_4: level2</text>
</g>
<!-- 034a00fe&#45;d741&#45;11ee&#45;8d3f&#45;04cf4b795879&#45;&gt;034a0f4a&#45;d741&#45;11ee&#45;8d3f&#45;04cf4b795879 -->
<g id="edge28" class="edge">
<title>034a00fe&#45;d741&#45;11ee&#45;8d3f&#45;04cf4b795879&#45;&gt;034a0f4a&#45;d741&#45;11ee&#45;8d3f&#45;04cf4b795879</title>
<path fill="none" stroke="black" d="M858.08,-294.9C865.44,-285.9 873.53,-276.01 880.68,-267.26"/>
<polygon fill="black" stroke="black" points="883.83,-269.93 887.45,-259.97 878.41,-265.5 883.83,-269.93"/>
</g>
<!-- 034a0c34&#45;d741&#45;11ee&#45;8d3f&#45;04cf4b795879 -->
<g id="node28" class="node">
<title>034a0c34&#45;d741&#45;11ee&#45;8d3f&#45;04cf4b795879</title>
<polygon fill="none" stroke="black" points="820.14,-140.45 782.07,-187.4 705.93,-187.4 667.86,-140.45 705.93,-93.5 782.07,-93.5 820.14,-140.45"/>
<text text-anchor="middle" x="744" y="-151.9" font-family="Times,serif" font-size="14.00">rp_22: level2 </text>
<text text-anchor="middle" x="744" y="-135.4" font-family="Times,serif" font-size="14.00"> inform_head </text>
<text text-anchor="middle" x="744" y="-118.9" font-family="Times,serif" font-size="14.00"> cost : 11</text>
</g>
<!-- 034a084c&#45;d741&#45;11ee&#45;8d3f&#45;04cf4b795879&#45;&gt;034a0c34&#45;d741&#45;11ee&#45;8d3f&#45;04cf4b795879 -->
<g id="edge27" class="edge">
<title>034a084c&#45;d741&#45;11ee&#45;8d3f&#45;04cf4b795879&#45;&gt;034a0c34&#45;d741&#45;11ee&#45;8d3f&#45;04cf4b795879</title>
<path fill="none" stroke="black" d="M764.64,-223.16C762.85,-216.08 760.67,-207.43 758.4,-198.45"/>
<polygon fill="black" stroke="black" points="761.56,-197.66 755.71,-188.82 754.77,-199.37 761.56,-197.66"/>
</g>
<!-- 034a1314&#45;d741&#45;11ee&#45;8d3f&#45;04cf4b795879 -->
<g id="node30" class="node">
<title>034a1314&#45;d741&#45;11ee&#45;8d3f&#45;04cf4b795879</title>
<polygon fill="none" stroke="black" points="990.14,-140.45 952.07,-187.4 875.93,-187.4 837.86,-140.45 875.93,-93.5 952.07,-93.5 990.14,-140.45"/>
<text text-anchor="middle" x="914" y="-151.9" font-family="Times,serif" font-size="14.00">rp_22: level2 </text>
<text text-anchor="middle" x="914" y="-135.4" font-family="Times,serif" font-size="14.00"> inform_head </text>
<text text-anchor="middle" x="914" y="-118.9" font-family="Times,serif" font-size="14.00"> cost : 92</text>
</g>
<!-- 034a0f4a&#45;d741&#45;11ee&#45;8d3f&#45;04cf4b795879&#45;&gt;034a1314&#45;d741&#45;11ee&#45;8d3f&#45;04cf4b795879 -->
<g id="edge29" class="edge">
<title>034a0f4a&#45;d741&#45;11ee&#45;8d3f&#45;04cf4b795879&#45;&gt;034a1314&#45;d741&#45;11ee&#45;8d3f&#45;04cf4b795879</title>
<path fill="none" stroke="black" d="M903.26,-223.16C904.19,-216.08 905.33,-207.43 906.51,-198.45"/>
<polygon fill="black" stroke="black" points="910.07,-199.19 907.91,-188.82 903.13,-198.28 910.07,-199.19"/>
</g>
<!-- 034a1620&#45;d741&#45;11ee&#45;8d3f&#45;04cf4b795879 -->
<g id="node31" class="node">
<title>034a1620&#45;d741&#45;11ee&#45;8d3f&#45;04cf4b795879</title>
<polygon fill="none" stroke="black" points="906.25,-57.5 759.75,-57.5 759.75,0 906.25,0 906.25,-57.5"/>
<text text-anchor="middle" x="833" y="-40.2" font-family="Times,serif" font-size="14.00">r0: four_eyes_principle </text>
<text text-anchor="middle" x="833" y="-23.7" font-family="Times,serif" font-size="14.00"> Type: insert </text>
<text text-anchor="middle" x="833" y="-7.2" font-family="Times,serif" font-size="14.00"> Direction: parallel</text>
</g>
<!-- 034a1314&#45;d741&#45;11ee&#45;8d3f&#45;04cf4b795879&#45;&gt;034a1620&#45;d741&#45;11ee&#45;8d3f&#45;04cf4b795879 -->
<g id="edge30" class="edge">
<title>034a1314&#45;d741&#45;11ee&#45;8d3f&#45;04cf4b795879&#45;&gt;034a1620&#45;d741&#45;11ee&#45;8d3f&#45;04cf4b795879</title>
<path fill="none" stroke="black" d="M879.88,-93.24C873.27,-84.29 866.43,-75.02 860.08,-66.43"/>
<polygon fill="black" stroke="black" points="862.43,-64.72 853.68,-58.75 856.8,-68.88 862.43,-64.72"/>
</g>
<!-- 034a19d6&#45;d741&#45;11ee&#45;8d3f&#45;04cf4b795879 -->
<g id="node32" class="node">
<title>034a19d6&#45;d741&#45;11ee&#45;8d3f&#45;04cf4b795879</title>
<polygon fill="none" stroke="black" points="1065.62,-57.5 924.37,-57.5 924.37,0 1065.62,0 1065.62,-57.5"/>
<text text-anchor="middle" x="995" y="-40.2" font-family="Times,serif" font-size="14.00">r0: head_confirmation </text>
<text text-anchor="middle" x="995" y="-23.7" font-family="Times,serif" font-size="14.00"> Type: replace </text>
<text text-anchor="middle" x="995" y="-7.2" font-family="Times,serif" font-size="14.00"> Direction: Core</text>
</g>
<!-- 034a1314&#45;d741&#45;11ee&#45;8d3f&#45;04cf4b795879&#45;&gt;034a19d6&#45;d741&#45;11ee&#45;8d3f&#45;04cf4b795879 -->
<g id="edge31" class="edge">
<title>034a1314&#45;d741&#45;11ee&#45;8d3f&#45;04cf4b795879&#45;&gt;034a19d6&#45;d741&#45;11ee&#45;8d3f&#45;04cf4b795879</title>
<path fill="none" stroke="black" d="M948.11,-93.24C954.73,-84.29 961.57,-75.02 967.92,-66.43"/>
<polygon fill="black" stroke="black" points="971.2,-68.88 974.32,-58.75 965.56,-64.72 971.2,-68.88"/>
</g>
<!-- 034a24ee&#45;d741&#45;11ee&#45;8d3f&#45;04cf4b795879 -->
<g id="node35" class="node">
<title>034a24ee&#45;d741&#45;11ee&#45;8d3f&#45;04cf4b795879</title>
<polygon fill="none" stroke="black" points="1145.14,-435.85 1107.07,-482.79 1030.93,-482.79 992.86,-435.85 1030.93,-388.9 1107.07,-388.9 1145.14,-435.85"/>
<text text-anchor="middle" x="1069" y="-447.3" font-family="Times,serif" font-size="14.00">rp_20: level2 </text>
<text text-anchor="middle" x="1069" y="-430.8" font-family="Times,serif" font-size="14.00"> data_support </text>
<text text-anchor="middle" x="1069" y="-414.3" font-family="Times,serif" font-size="14.00"> cost : 24</text>
</g>
<!-- 034a212e&#45;d741&#45;11ee&#45;8d3f&#45;04cf4b795879&#45;&gt;034a24ee&#45;d741&#45;11ee&#45;8d3f&#45;04cf4b795879 -->
<g id="edge34" class="edge">
<title>034a212e&#45;d741&#45;11ee&#45;8d3f&#45;04cf4b795879&#45;&gt;034a24ee&#45;d741&#45;11ee&#45;8d3f&#45;04cf4b795879</title>
<path fill="none" stroke="black" d="M1052.48,-518.56C1053.91,-511.47 1055.66,-502.83 1057.48,-493.84"/>
<polygon fill="black" stroke="black" points="1061.08,-494.71 1059.63,-484.21 1054.21,-493.32 1061.08,-494.71"/>
</g>
</g>
</svg>
