<?xml version="1.0" encoding="UTF-8" standalone="no"?>
<!DOCTYPE svg PUBLIC "-//W3C//DTD SVG 1.1//EN"
 "http://www.w3.org/Graphics/SVG/1.1/DTD/svg11.dtd">
<!-- Generated by graphviz version 7.1.0 (0)
 -->
<!-- Title: CallTree Pages: 1 -->
<svg width="1117pt" height="539pt"
 viewBox="0.00 0.00 1116.59 539.10" xmlns="http://www.w3.org/2000/svg" xmlns:xlink="http://www.w3.org/1999/xlink">
<g id="graph0" class="graph" transform="scale(1 1) rotate(0) translate(4 535.1)">
<title>CallTree</title>
<polygon fill="white" stroke="none" points="-4,4 -4,-535.1 1112.59,-535.1 1112.59,4 -4,4"/>
<!-- 65cee4f6&#45;d7dc&#45;11ee&#45;9025&#45;ac1a3ddd05c7 -->
<g id="node1" class="node">
<title>65cee4f6&#45;d7dc&#45;11ee&#45;9025&#45;ac1a3ddd05c7</title>
<polygon fill="none" stroke="black" points="763.78,-531.1 637.78,-531.1 637.78,-478.1 763.78,-478.1 763.78,-531.1"/>
<text text-anchor="middle" x="700.78" y="-515.9" font-family="Times,serif" font-size="14.00">a4: create_proposal </text>
<text text-anchor="middle" x="700.78" y="-500.9" font-family="Times,serif" font-size="14.00"> Type: Core </text>
<text text-anchor="middle" x="700.78" y="-485.9" font-family="Times,serif" font-size="14.00"> Direction: Core</text>
</g>
<!-- 65ceede8&#45;d7dc&#45;11ee&#45;9025&#45;ac1a3ddd05c7 -->
<g id="node2" class="node">
<title>65ceede8&#45;d7dc&#45;11ee&#45;9025&#45;ac1a3ddd05c7</title>
<ellipse fill="none" stroke="black" cx="487.78" cy="-424.1" rx="48.99" ry="18"/>
<text text-anchor="middle" x="487.78" y="-420.4" font-family="Times,serif" font-size="14.00">r_2: level2</text>
</g>
<!-- 65cee4f6&#45;d7dc&#45;11ee&#45;9025&#45;ac1a3ddd05c7&#45;&gt;65ceede8&#45;d7dc&#45;11ee&#45;9025&#45;ac1a3ddd05c7 -->
<g id="edge1" class="edge">
<title>65cee4f6&#45;d7dc&#45;11ee&#45;9025&#45;ac1a3ddd05c7&#45;&gt;65ceede8&#45;d7dc&#45;11ee&#45;9025&#45;ac1a3ddd05c7</title>
<path fill="none" stroke="black" d="M637.45,-480.26C603.59,-467.78 562.73,-452.72 532.26,-441.49"/>
<polygon fill="black" stroke="black" points="533.55,-438.24 522.95,-438.06 531.13,-444.8 533.55,-438.24"/>
</g>
<!-- 65ceffae&#45;d7dc&#45;11ee&#45;9025&#45;ac1a3ddd05c7 -->
<g id="node12" class="node">
<title>65ceffae&#45;d7dc&#45;11ee&#45;9025&#45;ac1a3ddd05c7</title>
<ellipse fill="none" stroke="black" cx="643.78" cy="-424.1" rx="48.99" ry="18"/>
<text text-anchor="middle" x="643.78" y="-420.4" font-family="Times,serif" font-size="14.00">r_4: level2</text>
</g>
<!-- 65cee4f6&#45;d7dc&#45;11ee&#45;9025&#45;ac1a3ddd05c7&#45;&gt;65ceffae&#45;d7dc&#45;11ee&#45;9025&#45;ac1a3ddd05c7 -->
<g id="edge11" class="edge">
<title>65cee4f6&#45;d7dc&#45;11ee&#45;9025&#45;ac1a3ddd05c7&#45;&gt;65ceffae&#45;d7dc&#45;11ee&#45;9025&#45;ac1a3ddd05c7</title>
<path fill="none" stroke="black" d="M682.11,-477.89C675.89,-469.32 668.94,-459.76 662.7,-451.15"/>
<polygon fill="black" stroke="black" points="665.61,-449.21 656.9,-443.17 659.95,-453.32 665.61,-449.21"/>
</g>
<!-- 65cf0346&#45;d7dc&#45;11ee&#45;9025&#45;ac1a3ddd05c7 -->
<g id="node14" class="node">
<title>65cf0346&#45;d7dc&#45;11ee&#45;9025&#45;ac1a3ddd05c7</title>
<ellipse fill="none" stroke="black" cx="799.78" cy="-424.1" rx="48.99" ry="18"/>
<text text-anchor="middle" x="799.78" y="-420.4" font-family="Times,serif" font-size="14.00">r_3: level3</text>
</g>
<!-- 65cee4f6&#45;d7dc&#45;11ee&#45;9025&#45;ac1a3ddd05c7&#45;&gt;65cf0346&#45;d7dc&#45;11ee&#45;9025&#45;ac1a3ddd05c7 -->
<g id="edge13" class="edge">
<title>65cee4f6&#45;d7dc&#45;11ee&#45;9025&#45;ac1a3ddd05c7&#45;&gt;65cf0346&#45;d7dc&#45;11ee&#45;9025&#45;ac1a3ddd05c7</title>
<path fill="none" stroke="black" d="M733.47,-477.68C745.56,-468.09 759.16,-457.3 770.89,-448"/>
<polygon fill="black" stroke="black" points="772.98,-450.81 778.64,-441.86 768.63,-445.33 772.98,-450.81"/>
</g>
<!-- 65cf06a2&#45;d7dc&#45;11ee&#45;9025&#45;ac1a3ddd05c7 -->
<g id="node16" class="node">
<title>65cf06a2&#45;d7dc&#45;11ee&#45;9025&#45;ac1a3ddd05c7</title>
<ellipse fill="none" stroke="black" cx="976.78" cy="-424.1" rx="48.99" ry="18"/>
<text text-anchor="middle" x="976.78" y="-420.4" font-family="Times,serif" font-size="14.00">r_5: level3</text>
</g>
<!-- 65cee4f6&#45;d7dc&#45;11ee&#45;9025&#45;ac1a3ddd05c7&#45;&gt;65cf06a2&#45;d7dc&#45;11ee&#45;9025&#45;ac1a3ddd05c7 -->
<g id="edge15" class="edge">
<title>65cee4f6&#45;d7dc&#45;11ee&#45;9025&#45;ac1a3ddd05c7&#45;&gt;65cf06a2&#45;d7dc&#45;11ee&#45;9025&#45;ac1a3ddd05c7</title>
<path fill="none" stroke="black" d="M764.1,-485.59C813.94,-471.41 882.38,-451.95 928.02,-438.96"/>
<polygon fill="black" stroke="black" points="928.7,-442.41 937.36,-436.31 926.79,-435.68 928.7,-442.41"/>
</g>
<!-- 65cef02c&#45;d7dc&#45;11ee&#45;9025&#45;ac1a3ddd05c7 -->
<g id="node3" class="node">
<title>65cef02c&#45;d7dc&#45;11ee&#45;9025&#45;ac1a3ddd05c7</title>
<polygon fill="none" stroke="black" points="514.41,-326.82 469.59,-369.87 379.96,-369.87 335.15,-326.82 379.96,-283.77 469.59,-283.77 514.41,-326.82"/>
<text text-anchor="middle" x="424.78" y="-338.12" font-family="Times,serif" font-size="14.00">rp_15: level3 </text>
<text text-anchor="middle" x="424.78" y="-323.12" font-family="Times,serif" font-size="14.00"> create_proposal </text>
<text text-anchor="middle" x="424.78" y="-308.12" font-family="Times,serif" font-size="14.00"> cost : 100</text>
</g>
<!-- 65ceede8&#45;d7dc&#45;11ee&#45;9025&#45;ac1a3ddd05c7&#45;&gt;65cef02c&#45;d7dc&#45;11ee&#45;9025&#45;ac1a3ddd05c7 -->
<g id="edge2" class="edge">
<title>65ceede8&#45;d7dc&#45;11ee&#45;9025&#45;ac1a3ddd05c7&#45;&gt;65cef02c&#45;d7dc&#45;11ee&#45;9025&#45;ac1a3ddd05c7</title>
<path fill="none" stroke="black" d="M476.8,-406.5C471.73,-398.83 465.39,-389.24 458.91,-379.44"/>
<polygon fill="black" stroke="black" points="461.95,-377.69 453.51,-371.28 456.11,-381.55 461.95,-377.69"/>
</g>
<!-- 65cef1e4&#45;d7dc&#45;11ee&#45;9025&#45;ac1a3ddd05c7 -->
<g id="node4" class="node">
<title>65cef1e4&#45;d7dc&#45;11ee&#45;9025&#45;ac1a3ddd05c7</title>
<polygon fill="none" stroke="black" points="415.28,-247.55 268.28,-247.55 268.28,-194.55 415.28,-194.55 415.28,-247.55"/>
<text text-anchor="middle" x="341.78" y="-232.35" font-family="Times,serif" font-size="14.00">r0: four_eyes_principle </text>
<text text-anchor="middle" x="341.78" y="-217.35" font-family="Times,serif" font-size="14.00"> Type: insert </text>
<text text-anchor="middle" x="341.78" y="-202.35" font-family="Times,serif" font-size="14.00"> Direction: before</text>
</g>
<!-- 65cef02c&#45;d7dc&#45;11ee&#45;9025&#45;ac1a3ddd05c7&#45;&gt;65cef1e4&#45;d7dc&#45;11ee&#45;9025&#45;ac1a3ddd05c7 -->
<g id="edge3" class="edge">
<title>65cef02c&#45;d7dc&#45;11ee&#45;9025&#45;ac1a3ddd05c7&#45;&gt;65cef1e4&#45;d7dc&#45;11ee&#45;9025&#45;ac1a3ddd05c7</title>
<path fill="none" stroke="black" d="M390.78,-283.31C383.74,-274.52 376.41,-265.35 369.62,-256.87"/>
<polygon fill="black" stroke="black" points="372.44,-254.78 363.46,-249.16 366.98,-259.16 372.44,-254.78"/>
</g>
<!-- 65cefdb0&#45;d7dc&#45;11ee&#45;9025&#45;ac1a3ddd05c7 -->
<g id="node11" class="node">
<title>65cefdb0&#45;d7dc&#45;11ee&#45;9025&#45;ac1a3ddd05c7</title>
<polygon fill="none" stroke="black" points="581.78,-247.55 433.78,-247.55 433.78,-194.55 581.78,-194.55 581.78,-247.55"/>
<text text-anchor="middle" x="507.78" y="-232.35" font-family="Times,serif" font-size="14.00">r0: decide_on_proposal </text>
<text text-anchor="middle" x="507.78" y="-217.35" font-family="Times,serif" font-size="14.00"> Type: delete </text>
<text text-anchor="middle" x="507.78" y="-202.35" font-family="Times,serif" font-size="14.00"> Direction: any</text>
</g>
<!-- 65cef02c&#45;d7dc&#45;11ee&#45;9025&#45;ac1a3ddd05c7&#45;&gt;65cefdb0&#45;d7dc&#45;11ee&#45;9025&#45;ac1a3ddd05c7 -->
<g id="edge10" class="edge">
<title>65cef02c&#45;d7dc&#45;11ee&#45;9025&#45;ac1a3ddd05c7&#45;&gt;65cefdb0&#45;d7dc&#45;11ee&#45;9025&#45;ac1a3ddd05c7</title>
<path fill="none" stroke="black" d="M458.78,-283.31C465.81,-274.52 473.15,-265.35 479.93,-256.87"/>
<polygon fill="black" stroke="black" points="482.58,-259.16 486.09,-249.16 477.11,-254.78 482.58,-259.16"/>
</g>
<!-- 65cef4a0&#45;d7dc&#45;11ee&#45;9025&#45;ac1a3ddd05c7 -->
<g id="node5" class="node">
<title>65cef4a0&#45;d7dc&#45;11ee&#45;9025&#45;ac1a3ddd05c7</title>
<ellipse fill="none" stroke="black" cx="167.78" cy="-140.55" rx="48.99" ry="18"/>
<text text-anchor="middle" x="167.78" y="-136.85" font-family="Times,serif" font-size="14.00">r_4: level2</text>
</g>
<!-- 65cef1e4&#45;d7dc&#45;11ee&#45;9025&#45;ac1a3ddd05c7&#45;&gt;65cef4a0&#45;d7dc&#45;11ee&#45;9025&#45;ac1a3ddd05c7 -->
<g id="edge4" class="edge">
<title>65cef1e4&#45;d7dc&#45;11ee&#45;9025&#45;ac1a3ddd05c7&#45;&gt;65cef4a0&#45;d7dc&#45;11ee&#45;9025&#45;ac1a3ddd05c7</title>
<path fill="none" stroke="black" d="M284.32,-194.13C259.37,-182.87 230.74,-169.95 208.1,-159.74"/>
<polygon fill="black" stroke="black" points="209.76,-156.65 199.21,-155.73 206.88,-163.03 209.76,-156.65"/>
</g>
<!-- 65cef7ca&#45;d7dc&#45;11ee&#45;9025&#45;ac1a3ddd05c7 -->
<g id="node7" class="node">
<title>65cef7ca&#45;d7dc&#45;11ee&#45;9025&#45;ac1a3ddd05c7</title>
<ellipse fill="none" stroke="black" cx="341.78" cy="-140.55" rx="48.99" ry="18"/>
<text text-anchor="middle" x="341.78" y="-136.85" font-family="Times,serif" font-size="14.00">r_3: level3</text>
</g>
<!-- 65cef1e4&#45;d7dc&#45;11ee&#45;9025&#45;ac1a3ddd05c7&#45;&gt;65cef7ca&#45;d7dc&#45;11ee&#45;9025&#45;ac1a3ddd05c7 -->
<g id="edge6" class="edge">
<title>65cef1e4&#45;d7dc&#45;11ee&#45;9025&#45;ac1a3ddd05c7&#45;&gt;65cef7ca&#45;d7dc&#45;11ee&#45;9025&#45;ac1a3ddd05c7</title>
<path fill="none" stroke="black" d="M341.78,-194.34C341.78,-186.62 341.78,-178.11 341.78,-170.21"/>
<polygon fill="black" stroke="black" points="345.28,-170.39 341.78,-160.39 338.28,-170.39 345.28,-170.39"/>
</g>
<!-- 65cefacc&#45;d7dc&#45;11ee&#45;9025&#45;ac1a3ddd05c7 -->
<g id="node9" class="node">
<title>65cefacc&#45;d7dc&#45;11ee&#45;9025&#45;ac1a3ddd05c7</title>
<ellipse fill="none" stroke="black" cx="515.78" cy="-140.55" rx="48.99" ry="18"/>
<text text-anchor="middle" x="515.78" y="-136.85" font-family="Times,serif" font-size="14.00">r_5: level3</text>
</g>
<!-- 65cef1e4&#45;d7dc&#45;11ee&#45;9025&#45;ac1a3ddd05c7&#45;&gt;65cefacc&#45;d7dc&#45;11ee&#45;9025&#45;ac1a3ddd05c7 -->
<g id="edge8" class="edge">
<title>65cef1e4&#45;d7dc&#45;11ee&#45;9025&#45;ac1a3ddd05c7&#45;&gt;65cefacc&#45;d7dc&#45;11ee&#45;9025&#45;ac1a3ddd05c7</title>
<path fill="none" stroke="black" d="M399.23,-194.13C424.19,-182.87 452.82,-169.95 475.46,-159.74"/>
<polygon fill="black" stroke="black" points="476.67,-163.03 484.35,-155.73 473.79,-156.65 476.67,-163.03"/>
</g>
<!-- 65cef64e&#45;d7dc&#45;11ee&#45;9025&#45;ac1a3ddd05c7 -->
<g id="node6" class="node">
<title>65cef64e&#45;d7dc&#45;11ee&#45;9025&#45;ac1a3ddd05c7</title>
<polygon fill="none" stroke="black" points="215.33,-43.27 161.56,-86.32 54,-86.32 0.22,-43.27 54,-0.22 161.56,-0.22 215.33,-43.27"/>
<text text-anchor="middle" x="107.78" y="-54.57" font-family="Times,serif" font-size="14.00">rp_24: level3 </text>
<text text-anchor="middle" x="107.78" y="-39.57" font-family="Times,serif" font-size="14.00"> four_eyes_principle </text>
<text text-anchor="middle" x="107.78" y="-24.57" font-family="Times,serif" font-size="14.00"> cost : 63</text>
</g>
<!-- 65cef4a0&#45;d7dc&#45;11ee&#45;9025&#45;ac1a3ddd05c7&#45;&gt;65cef64e&#45;d7dc&#45;11ee&#45;9025&#45;ac1a3ddd05c7 -->
<g id="edge5" class="edge">
<title>65cef4a0&#45;d7dc&#45;11ee&#45;9025&#45;ac1a3ddd05c7&#45;&gt;65cef64e&#45;d7dc&#45;11ee&#45;9025&#45;ac1a3ddd05c7</title>
<path fill="none" stroke="black" d="M157.05,-122.52C152.3,-114.97 146.43,-105.64 140.41,-96.09"/>
<polygon fill="black" stroke="black" points="143.48,-94.4 135.19,-87.81 137.56,-98.13 143.48,-94.4"/>
</g>
<!-- 65cef95a&#45;d7dc&#45;11ee&#45;9025&#45;ac1a3ddd05c7 -->
<g id="node8" class="node">
<title>65cef95a&#45;d7dc&#45;11ee&#45;9025&#45;ac1a3ddd05c7</title>
<polygon fill="none" stroke="black" points="449.33,-43.27 395.56,-86.32 288,-86.32 234.22,-43.27 288,-0.22 395.56,-0.22 449.33,-43.27"/>
<text text-anchor="middle" x="341.78" y="-54.57" font-family="Times,serif" font-size="14.00">rp_24: level3 </text>
<text text-anchor="middle" x="341.78" y="-39.57" font-family="Times,serif" font-size="14.00"> four_eyes_principle </text>
<text text-anchor="middle" x="341.78" y="-24.57" font-family="Times,serif" font-size="14.00"> cost : 53</text>
</g>
<!-- 65cef7ca&#45;d7dc&#45;11ee&#45;9025&#45;ac1a3ddd05c7&#45;&gt;65cef95a&#45;d7dc&#45;11ee&#45;9025&#45;ac1a3ddd05c7 -->
<g id="edge7" class="edge">
<title>65cef7ca&#45;d7dc&#45;11ee&#45;9025&#45;ac1a3ddd05c7&#45;&gt;65cef95a&#45;d7dc&#45;11ee&#45;9025&#45;ac1a3ddd05c7</title>
<path fill="none" stroke="black" d="M341.78,-122.07C341.78,-115.13 341.78,-106.72 341.78,-98.05"/>
<polygon fill="black" stroke="black" points="345.28,-98.09 341.78,-88.09 338.28,-98.09 345.28,-98.09"/>
</g>
<!-- 65cefc48&#45;d7dc&#45;11ee&#45;9025&#45;ac1a3ddd05c7 -->
<g id="node10" class="node">
<title>65cefc48&#45;d7dc&#45;11ee&#45;9025&#45;ac1a3ddd05c7</title>
<polygon fill="none" stroke="black" points="683.33,-43.27 629.56,-86.32 522,-86.32 468.22,-43.27 522,-0.22 629.56,-0.22 683.33,-43.27"/>
<text text-anchor="middle" x="575.78" y="-54.57" font-family="Times,serif" font-size="14.00">rp_24: level3 </text>
<text text-anchor="middle" x="575.78" y="-39.57" font-family="Times,serif" font-size="14.00"> four_eyes_principle </text>
<text text-anchor="middle" x="575.78" y="-24.57" font-family="Times,serif" font-size="14.00"> cost : 19</text>
</g>
<!-- 65cefacc&#45;d7dc&#45;11ee&#45;9025&#45;ac1a3ddd05c7&#45;&gt;65cefc48&#45;d7dc&#45;11ee&#45;9025&#45;ac1a3ddd05c7 -->
<g id="edge9" class="edge">
<title>65cefacc&#45;d7dc&#45;11ee&#45;9025&#45;ac1a3ddd05c7&#45;&gt;65cefc48&#45;d7dc&#45;11ee&#45;9025&#45;ac1a3ddd05c7</title>
<path fill="none" stroke="black" d="M526.5,-122.52C531.26,-114.97 537.13,-105.64 543.14,-96.09"/>
<polygon fill="black" stroke="black" points="545.99,-98.13 548.36,-87.81 540.07,-94.4 545.99,-98.13"/>
</g>
<!-- 65cf015c&#45;d7dc&#45;11ee&#45;9025&#45;ac1a3ddd05c7 -->
<g id="node13" class="node">
<title>65cf015c&#45;d7dc&#45;11ee&#45;9025&#45;ac1a3ddd05c7</title>
<polygon fill="none" stroke="black" points="712.41,-326.82 667.59,-369.87 577.96,-369.87 533.15,-326.82 577.96,-283.77 667.59,-283.77 712.41,-326.82"/>
<text text-anchor="middle" x="622.78" y="-338.12" font-family="Times,serif" font-size="14.00">rp_15: level2 </text>
<text text-anchor="middle" x="622.78" y="-323.12" font-family="Times,serif" font-size="14.00"> create_proposal </text>
<text text-anchor="middle" x="622.78" y="-308.12" font-family="Times,serif" font-size="14.00"> cost : 15</text>
</g>
<!-- 65ceffae&#45;d7dc&#45;11ee&#45;9025&#45;ac1a3ddd05c7&#45;&gt;65cf015c&#45;d7dc&#45;11ee&#45;9025&#45;ac1a3ddd05c7 -->
<g id="edge12" class="edge">
<title>65ceffae&#45;d7dc&#45;11ee&#45;9025&#45;ac1a3ddd05c7&#45;&gt;65cf015c&#45;d7dc&#45;11ee&#45;9025&#45;ac1a3ddd05c7</title>
<path fill="none" stroke="black" d="M640.02,-406.06C638.45,-398.91 636.52,-390.16 634.53,-381.13"/>
<polygon fill="black" stroke="black" points="637.99,-380.57 632.42,-371.55 631.15,-382.07 637.99,-380.57"/>
</g>
<!-- 65cf0526&#45;d7dc&#45;11ee&#45;9025&#45;ac1a3ddd05c7 -->
<g id="node15" class="node">
<title>65cf0526&#45;d7dc&#45;11ee&#45;9025&#45;ac1a3ddd05c7</title>
<polygon fill="none" stroke="black" points="910.41,-326.82 865.59,-369.87 775.96,-369.87 731.15,-326.82 775.96,-283.77 865.59,-283.77 910.41,-326.82"/>
<text text-anchor="middle" x="820.78" y="-338.12" font-family="Times,serif" font-size="14.00">rp_15: level3 </text>
<text text-anchor="middle" x="820.78" y="-323.12" font-family="Times,serif" font-size="14.00"> create_proposal </text>
<text text-anchor="middle" x="820.78" y="-308.12" font-family="Times,serif" font-size="14.00"> cost : 26</text>
</g>
<!-- 65cf0346&#45;d7dc&#45;11ee&#45;9025&#45;ac1a3ddd05c7&#45;&gt;65cf0526&#45;d7dc&#45;11ee&#45;9025&#45;ac1a3ddd05c7 -->
<g id="edge14" class="edge">
<title>65cf0346&#45;d7dc&#45;11ee&#45;9025&#45;ac1a3ddd05c7&#45;&gt;65cf0526&#45;d7dc&#45;11ee&#45;9025&#45;ac1a3ddd05c7</title>
<path fill="none" stroke="black" d="M803.53,-406.06C805.11,-398.91 807.04,-390.16 809.03,-381.13"/>
<polygon fill="black" stroke="black" points="812.4,-382.07 811.14,-371.55 805.57,-380.57 812.4,-382.07"/>
</g>
<!-- 65cf081e&#45;d7dc&#45;11ee&#45;9025&#45;ac1a3ddd05c7 -->
<g id="node17" class="node">
<title>65cf081e&#45;d7dc&#45;11ee&#45;9025&#45;ac1a3ddd05c7</title>
<polygon fill="none" stroke="black" points="1108.41,-326.82 1063.59,-369.87 973.96,-369.87 929.15,-326.82 973.96,-283.77 1063.59,-283.77 1108.41,-326.82"/>
<text text-anchor="middle" x="1018.78" y="-338.12" font-family="Times,serif" font-size="14.00">rp_15: level3 </text>
<text text-anchor="middle" x="1018.78" y="-323.12" font-family="Times,serif" font-size="14.00"> create_proposal </text>
<text text-anchor="middle" x="1018.78" y="-308.12" font-family="Times,serif" font-size="14.00"> cost : 98</text>
</g>
<!-- 65cf06a2&#45;d7dc&#45;11ee&#45;9025&#45;ac1a3ddd05c7&#45;&gt;65cf081e&#45;d7dc&#45;11ee&#45;9025&#45;ac1a3ddd05c7 -->
<g id="edge16" class="edge">
<title>65cf06a2&#45;d7dc&#45;11ee&#45;9025&#45;ac1a3ddd05c7&#45;&gt;65cf081e&#45;d7dc&#45;11ee&#45;9025&#45;ac1a3ddd05c7</title>
<path fill="none" stroke="black" d="M984.29,-406.06C987.51,-398.75 991.47,-389.77 995.54,-380.54"/>
<polygon fill="black" stroke="black" points="998.71,-382.02 999.54,-371.46 992.3,-379.2 998.71,-382.02"/>
</g>
</g>
</svg>
