<?xml version="1.0" encoding="UTF-8" standalone="no"?>
<!DOCTYPE svg PUBLIC "-//W3C//DTD SVG 1.1//EN"
 "http://www.w3.org/Graphics/SVG/1.1/DTD/svg11.dtd">
<!-- Generated by graphviz version 8.1.0 (20230707.0739)
 -->
<!-- Title: CallTree Pages: 1 -->
<svg width="412pt" height="267pt"
 viewBox="0.00 0.00 411.69 267.40" xmlns="http://www.w3.org/2000/svg" xmlns:xlink="http://www.w3.org/1999/xlink">
<g id="graph0" class="graph" transform="scale(1 1) rotate(0) translate(4 263.4)">
<title>CallTree</title>
<polygon fill="white" stroke="none" points="-4,4 -4,-263.4 407.69,-263.4 407.69,4 -4,4"/>
<!-- 67abffac&#45;d615&#45;11ee&#45;9dd8&#45;04cf4b795879 -->
<g id="node1" class="node">
<title>67abffac&#45;d615&#45;11ee&#45;9dd8&#45;04cf4b795879</title>
<polygon fill="none" stroke="black" points="268.6,-259.4 134.1,-259.4 134.1,-201.9 268.6,-201.9 268.6,-259.4"/>
<text text-anchor="middle" x="201.35" y="-242.1" font-family="Times,serif" font-size="14.00">a8: contact_suppliers </text>
<text text-anchor="middle" x="201.35" y="-225.6" font-family="Times,serif" font-size="14.00"> Type: Core </text>
<text text-anchor="middle" x="201.35" y="-209.1" font-family="Times,serif" font-size="14.00"> Direction: Core</text>
</g>
<!-- 67ac093e&#45;d615&#45;11ee&#45;9dd8&#45;04cf4b795879 -->
<g id="node2" class="node">
<title>67ac093e&#45;d615&#45;11ee&#45;9dd8&#45;04cf4b795879</title>
<ellipse fill="none" stroke="black" cx="141.35" cy="-147.9" rx="50.84" ry="18"/>
<text text-anchor="middle" x="141.35" y="-142.85" font-family="Times,serif" font-size="14.00">r_3: level3</text>
</g>
<!-- 67abffac&#45;d615&#45;11ee&#45;9dd8&#45;04cf4b795879&#45;&gt;67ac093e&#45;d615&#45;11ee&#45;9dd8&#45;04cf4b795879 -->
<g id="edge1" class="edge">
<title>67abffac&#45;d615&#45;11ee&#45;9dd8&#45;04cf4b795879&#45;&gt;67ac093e&#45;d615&#45;11ee&#45;9dd8&#45;04cf4b795879</title>
<path fill="none" stroke="black" d="M180.36,-201.4C173.74,-192.49 166.47,-182.71 160.02,-174.03"/>
<polygon fill="black" stroke="black" points="162.43,-172.41 153.66,-166.47 156.82,-176.58 162.43,-172.41"/>
</g>
<!-- 67ac1096&#45;d615&#45;11ee&#45;9dd8&#45;04cf4b795879 -->
<g id="node4" class="node">
<title>67ac1096&#45;d615&#45;11ee&#45;9dd8&#45;04cf4b795879</title>
<ellipse fill="none" stroke="black" cx="284.35" cy="-147.9" rx="50.84" ry="18"/>
<text text-anchor="middle" x="284.35" y="-142.85" font-family="Times,serif" font-size="14.00">r_5: level3</text>
</g>
<!-- 67abffac&#45;d615&#45;11ee&#45;9dd8&#45;04cf4b795879&#45;&gt;67ac1096&#45;d615&#45;11ee&#45;9dd8&#45;04cf4b795879 -->
<g id="edge3" class="edge">
<title>67abffac&#45;d615&#45;11ee&#45;9dd8&#45;04cf4b795879&#45;&gt;67ac1096&#45;d615&#45;11ee&#45;9dd8&#45;04cf4b795879</title>
<path fill="none" stroke="black" d="M230.38,-201.4C240.07,-191.98 250.76,-181.58 260.05,-172.54"/>
<polygon fill="black" stroke="black" points="262.07,-175.48 266.79,-166 257.19,-170.47 262.07,-175.48"/>
</g>
<!-- 67ac0d4e&#45;d615&#45;11ee&#45;9dd8&#45;04cf4b795879 -->
<g id="node3" class="node">
<title>67ac0d4e&#45;d615&#45;11ee&#45;9dd8&#45;04cf4b795879</title>
<polygon fill="none" stroke="black" points="192.69,-46.95 144.52,-93.9 48.17,-93.9 0,-46.95 48.17,0 144.52,0 192.69,-46.95"/>
<text text-anchor="middle" x="96.35" y="-58.4" font-family="Times,serif" font-size="14.00">rp_16: level3 </text>
<text text-anchor="middle" x="96.35" y="-41.9" font-family="Times,serif" font-size="14.00"> contact_suppliers </text>
<text text-anchor="middle" x="96.35" y="-25.4" font-family="Times,serif" font-size="14.00"> cost : 89</text>
</g>
<!-- 67ac093e&#45;d615&#45;11ee&#45;9dd8&#45;04cf4b795879&#45;&gt;67ac0d4e&#45;d615&#45;11ee&#45;9dd8&#45;04cf4b795879 -->
<g id="edge2" class="edge">
<title>67ac093e&#45;d615&#45;11ee&#45;9dd8&#45;04cf4b795879&#45;&gt;67ac0d4e&#45;d615&#45;11ee&#45;9dd8&#45;04cf4b795879</title>
<path fill="none" stroke="black" d="M133.51,-129.66C130.18,-122.35 126.1,-113.37 121.87,-104.07"/>
<polygon fill="black" stroke="black" points="124.76,-102.97 117.43,-95.32 118.39,-105.87 124.76,-102.97"/>
</g>
<!-- 67ac1460&#45;d615&#45;11ee&#45;9dd8&#45;04cf4b795879 -->
<g id="node5" class="node">
<title>67ac1460&#45;d615&#45;11ee&#45;9dd8&#45;04cf4b795879</title>
<polygon fill="none" stroke="black" points="403.69,-46.95 355.52,-93.9 259.17,-93.9 211,-46.95 259.17,0 355.52,0 403.69,-46.95"/>
<text text-anchor="middle" x="307.35" y="-58.4" font-family="Times,serif" font-size="14.00">rp_16: level3 </text>
<text text-anchor="middle" x="307.35" y="-41.9" font-family="Times,serif" font-size="14.00"> contact_suppliers </text>
<text text-anchor="middle" x="307.35" y="-25.4" font-family="Times,serif" font-size="14.00"> cost : 148</text>
</g>
<!-- 67ac1096&#45;d615&#45;11ee&#45;9dd8&#45;04cf4b795879&#45;&gt;67ac1460&#45;d615&#45;11ee&#45;9dd8&#45;04cf4b795879 -->
<g id="edge4" class="edge">
<title>67ac1096&#45;d615&#45;11ee&#45;9dd8&#45;04cf4b795879&#45;&gt;67ac1460&#45;d615&#45;11ee&#45;9dd8&#45;04cf4b795879</title>
<path fill="none" stroke="black" d="M288.35,-129.66C290,-122.58 292.01,-113.93 294.1,-104.95"/>
<polygon fill="black" stroke="black" points="297.71,-105.85 296.57,-95.32 290.9,-104.27 297.71,-105.85"/>
</g>
</g>
</svg>
