<?xml version="1.0" encoding="UTF-8" standalone="no"?>
<!DOCTYPE svg PUBLIC "-//W3C//DTD SVG 1.1//EN"
 "http://www.w3.org/Graphics/SVG/1.1/DTD/svg11.dtd">
<!-- Generated by graphviz version 7.1.0 (0)
 -->
<!-- Title: CallTree Pages: 1 -->
<svg width="1164pt" height="912pt"
 viewBox="0.00 0.00 1163.57 911.65" xmlns="http://www.w3.org/2000/svg" xmlns:xlink="http://www.w3.org/1999/xlink">
<g id="graph0" class="graph" transform="scale(1 1) rotate(0) translate(4 907.65)">
<title>CallTree</title>
<polygon fill="white" stroke="none" points="-4,4 -4,-907.65 1159.57,-907.65 1159.57,4 -4,4"/>
<!-- d42ccdf2&#45;d7cb&#45;11ee&#45;9e69&#45;ac1a3ddd05c7 -->
<g id="node1" class="node">
<title>d42ccdf2&#45;d7cb&#45;11ee&#45;9e69&#45;ac1a3ddd05c7</title>
<polygon fill="none" stroke="black" points="699.31,-903.65 586.31,-903.65 586.31,-850.65 699.31,-850.65 699.31,-903.65"/>
<text text-anchor="middle" x="642.81" y="-888.45" font-family="Times,serif" font-size="14.00">a9: close_project </text>
<text text-anchor="middle" x="642.81" y="-873.45" font-family="Times,serif" font-size="14.00"> Type: Core </text>
<text text-anchor="middle" x="642.81" y="-858.45" font-family="Times,serif" font-size="14.00"> Direction: Core</text>
</g>
<!-- d42cda40&#45;d7cb&#45;11ee&#45;9e69&#45;ac1a3ddd05c7 -->
<g id="node2" class="node">
<title>d42cda40&#45;d7cb&#45;11ee&#45;9e69&#45;ac1a3ddd05c7</title>
<ellipse fill="none" stroke="black" cx="440.81" cy="-796.65" rx="48.99" ry="18"/>
<text text-anchor="middle" x="440.81" y="-792.95" font-family="Times,serif" font-size="14.00">r_2: level2</text>
</g>
<!-- d42ccdf2&#45;d7cb&#45;11ee&#45;9e69&#45;ac1a3ddd05c7&#45;&gt;d42cda40&#45;d7cb&#45;11ee&#45;9e69&#45;ac1a3ddd05c7 -->
<g id="edge1" class="edge">
<title>d42ccdf2&#45;d7cb&#45;11ee&#45;9e69&#45;ac1a3ddd05c7&#45;&gt;d42cda40&#45;d7cb&#45;11ee&#45;9e69&#45;ac1a3ddd05c7</title>
<path fill="none" stroke="black" d="M586.01,-854.07C553.69,-841.51 513.84,-826.03 484.08,-814.46"/>
<polygon fill="black" stroke="black" points="485.6,-811.29 475.01,-810.93 483.06,-817.82 485.6,-811.29"/>
</g>
<!-- d42cf656&#45;d7cb&#45;11ee&#45;9e69&#45;ac1a3ddd05c7 -->
<g id="node17" class="node">
<title>d42cf656&#45;d7cb&#45;11ee&#45;9e69&#45;ac1a3ddd05c7</title>
<ellipse fill="none" stroke="black" cx="585.81" cy="-796.65" rx="48.99" ry="18"/>
<text text-anchor="middle" x="585.81" y="-792.95" font-family="Times,serif" font-size="14.00">r_4: level2</text>
</g>
<!-- d42ccdf2&#45;d7cb&#45;11ee&#45;9e69&#45;ac1a3ddd05c7&#45;&gt;d42cf656&#45;d7cb&#45;11ee&#45;9e69&#45;ac1a3ddd05c7 -->
<g id="edge16" class="edge">
<title>d42ccdf2&#45;d7cb&#45;11ee&#45;9e69&#45;ac1a3ddd05c7&#45;&gt;d42cf656&#45;d7cb&#45;11ee&#45;9e69&#45;ac1a3ddd05c7</title>
<path fill="none" stroke="black" d="M624.15,-850.44C617.92,-841.87 610.98,-832.3 604.73,-823.7"/>
<polygon fill="black" stroke="black" points="607.65,-821.76 598.94,-815.72 601.98,-825.87 607.65,-821.76"/>
</g>
<!-- d42cf94e&#45;d7cb&#45;11ee&#45;9e69&#45;ac1a3ddd05c7 -->
<g id="node19" class="node">
<title>d42cf94e&#45;d7cb&#45;11ee&#45;9e69&#45;ac1a3ddd05c7</title>
<ellipse fill="none" stroke="black" cx="730.81" cy="-796.65" rx="48.99" ry="18"/>
<text text-anchor="middle" x="730.81" y="-792.95" font-family="Times,serif" font-size="14.00">r_3: level3</text>
</g>
<!-- d42ccdf2&#45;d7cb&#45;11ee&#45;9e69&#45;ac1a3ddd05c7&#45;&gt;d42cf94e&#45;d7cb&#45;11ee&#45;9e69&#45;ac1a3ddd05c7 -->
<g id="edge18" class="edge">
<title>d42ccdf2&#45;d7cb&#45;11ee&#45;9e69&#45;ac1a3ddd05c7&#45;&gt;d42cf94e&#45;d7cb&#45;11ee&#45;9e69&#45;ac1a3ddd05c7</title>
<path fill="none" stroke="black" d="M671.63,-850.44C682.1,-841.1 693.87,-830.6 704.15,-821.44"/>
<polygon fill="black" stroke="black" points="706.46,-824.07 711.59,-814.8 701.8,-818.84 706.46,-824.07"/>
</g>
<!-- d42cfc1e&#45;d7cb&#45;11ee&#45;9e69&#45;ac1a3ddd05c7 -->
<g id="node21" class="node">
<title>d42cfc1e&#45;d7cb&#45;11ee&#45;9e69&#45;ac1a3ddd05c7</title>
<ellipse fill="none" stroke="black" cx="890.81" cy="-796.65" rx="48.99" ry="18"/>
<text text-anchor="middle" x="890.81" y="-792.95" font-family="Times,serif" font-size="14.00">r_5: level3</text>
</g>
<!-- d42ccdf2&#45;d7cb&#45;11ee&#45;9e69&#45;ac1a3ddd05c7&#45;&gt;d42cfc1e&#45;d7cb&#45;11ee&#45;9e69&#45;ac1a3ddd05c7 -->
<g id="edge20" class="edge">
<title>d42ccdf2&#45;d7cb&#45;11ee&#45;9e69&#45;ac1a3ddd05c7&#45;&gt;d42cfc1e&#45;d7cb&#45;11ee&#45;9e69&#45;ac1a3ddd05c7</title>
<path fill="none" stroke="black" d="M699.71,-858.14C743.33,-844.33 802.81,-825.5 843.76,-812.54"/>
<polygon fill="black" stroke="black" points="844.61,-815.94 853.09,-809.59 842.5,-809.27 844.61,-815.94"/>
</g>
<!-- d42cdc3e&#45;d7cb&#45;11ee&#45;9e69&#45;ac1a3ddd05c7 -->
<g id="node3" class="node">
<title>d42cdc3e&#45;d7cb&#45;11ee&#45;9e69&#45;ac1a3ddd05c7</title>
<polygon fill="none" stroke="black" points="474.08,-699.37 434.95,-742.42 356.68,-742.42 317.55,-699.37 356.68,-656.32 434.95,-656.32 474.08,-699.37"/>
<text text-anchor="middle" x="395.81" y="-710.67" font-family="Times,serif" font-size="14.00">rp_12: level2 </text>
<text text-anchor="middle" x="395.81" y="-695.67" font-family="Times,serif" font-size="14.00"> close_project </text>
<text text-anchor="middle" x="395.81" y="-680.67" font-family="Times,serif" font-size="14.00"> cost : 64</text>
</g>
<!-- d42cda40&#45;d7cb&#45;11ee&#45;9e69&#45;ac1a3ddd05c7&#45;&gt;d42cdc3e&#45;d7cb&#45;11ee&#45;9e69&#45;ac1a3ddd05c7 -->
<g id="edge2" class="edge">
<title>d42cda40&#45;d7cb&#45;11ee&#45;9e69&#45;ac1a3ddd05c7&#45;&gt;d42cdc3e&#45;d7cb&#45;11ee&#45;9e69&#45;ac1a3ddd05c7</title>
<path fill="none" stroke="black" d="M432.77,-778.61C429.28,-771.22 424.98,-762.13 420.57,-752.79"/>
<polygon fill="black" stroke="black" points="423.85,-751.54 416.42,-743.99 417.52,-754.53 423.85,-751.54"/>
</g>
<!-- d42cddec&#45;d7cb&#45;11ee&#45;9e69&#45;ac1a3ddd05c7 -->
<g id="node4" class="node">
<title>d42cddec&#45;d7cb&#45;11ee&#45;9e69&#45;ac1a3ddd05c7</title>
<polygon fill="none" stroke="black" points="260.31,-620.1 113.31,-620.1 113.31,-567.1 260.31,-567.1 260.31,-620.1"/>
<text text-anchor="middle" x="186.81" y="-604.9" font-family="Times,serif" font-size="14.00">r0: four_eyes_principle </text>
<text text-anchor="middle" x="186.81" y="-589.9" font-family="Times,serif" font-size="14.00"> Type: insert </text>
<text text-anchor="middle" x="186.81" y="-574.9" font-family="Times,serif" font-size="14.00"> Direction: after</text>
</g>
<!-- d42cdc3e&#45;d7cb&#45;11ee&#45;9e69&#45;ac1a3ddd05c7&#45;&gt;d42cddec&#45;d7cb&#45;11ee&#45;9e69&#45;ac1a3ddd05c7 -->
<g id="edge3" class="edge">
<title>d42cdc3e&#45;d7cb&#45;11ee&#45;9e69&#45;ac1a3ddd05c7&#45;&gt;d42cddec&#45;d7cb&#45;11ee&#45;9e69&#45;ac1a3ddd05c7</title>
<path fill="none" stroke="black" d="M342.26,-671.78C313.92,-657.71 278.95,-640.35 249.36,-625.65"/>
<polygon fill="black" stroke="black" points="251.01,-622.56 240.5,-621.25 247.9,-628.83 251.01,-622.56"/>
</g>
<!-- d42ce03a&#45;d7cb&#45;11ee&#45;9e69&#45;ac1a3ddd05c7 -->
<g id="node5" class="node">
<title>d42ce03a&#45;d7cb&#45;11ee&#45;9e69&#45;ac1a3ddd05c7</title>
<polygon fill="none" stroke="black" points="380.81,-620.1 278.81,-620.1 278.81,-567.1 380.81,-567.1 380.81,-620.1"/>
<text text-anchor="middle" x="329.81" y="-604.9" font-family="Times,serif" font-size="14.00">r0: new_tender </text>
<text text-anchor="middle" x="329.81" y="-589.9" font-family="Times,serif" font-size="14.00"> Type: delete </text>
<text text-anchor="middle" x="329.81" y="-574.9" font-family="Times,serif" font-size="14.00"> Direction: any</text>
</g>
<!-- d42cdc3e&#45;d7cb&#45;11ee&#45;9e69&#45;ac1a3ddd05c7&#45;&gt;d42ce03a&#45;d7cb&#45;11ee&#45;9e69&#45;ac1a3ddd05c7 -->
<g id="edge4" class="edge">
<title>d42cdc3e&#45;d7cb&#45;11ee&#45;9e69&#45;ac1a3ddd05c7&#45;&gt;d42ce03a&#45;d7cb&#45;11ee&#45;9e69&#45;ac1a3ddd05c7</title>
<path fill="none" stroke="black" d="M368.78,-655.86C363.36,-647.35 357.73,-638.48 352.48,-630.23"/>
<polygon fill="black" stroke="black" points="355.44,-628.36 347.12,-621.8 349.53,-632.12 355.44,-628.36"/>
</g>
<!-- d42ce22e&#45;d7cb&#45;11ee&#45;9e69&#45;ac1a3ddd05c7 -->
<g id="node6" class="node">
<title>d42ce22e&#45;d7cb&#45;11ee&#45;9e69&#45;ac1a3ddd05c7</title>
<polygon fill="none" stroke="black" points="524.31,-620.1 399.31,-620.1 399.31,-567.1 524.31,-567.1 524.31,-620.1"/>
<text text-anchor="middle" x="461.81" y="-604.9" font-family="Times,serif" font-size="14.00">r0: create_proposal </text>
<text text-anchor="middle" x="461.81" y="-589.9" font-family="Times,serif" font-size="14.00"> Type: replace </text>
<text text-anchor="middle" x="461.81" y="-574.9" font-family="Times,serif" font-size="14.00"> Direction: Core</text>
</g>
<!-- d42cdc3e&#45;d7cb&#45;11ee&#45;9e69&#45;ac1a3ddd05c7&#45;&gt;d42ce22e&#45;d7cb&#45;11ee&#45;9e69&#45;ac1a3ddd05c7 -->
<g id="edge5" class="edge">
<title>d42cdc3e&#45;d7cb&#45;11ee&#45;9e69&#45;ac1a3ddd05c7&#45;&gt;d42ce22e&#45;d7cb&#45;11ee&#45;9e69&#45;ac1a3ddd05c7</title>
<path fill="none" stroke="black" d="M422.85,-655.86C428.27,-647.35 433.9,-638.48 439.15,-630.23"/>
<polygon fill="black" stroke="black" points="442.1,-632.12 444.51,-621.8 436.19,-628.36 442.1,-632.12"/>
</g>
<!-- d42cf476&#45;d7cb&#45;11ee&#45;9e69&#45;ac1a3ddd05c7 -->
<g id="node16" class="node">
<title>d42cf476&#45;d7cb&#45;11ee&#45;9e69&#45;ac1a3ddd05c7</title>
<polygon fill="none" stroke="black" points="676.81,-620.1 542.81,-620.1 542.81,-567.1 676.81,-567.1 676.81,-620.1"/>
<text text-anchor="middle" x="609.81" y="-604.9" font-family="Times,serif" font-size="14.00">r0: contact_suppliers </text>
<text text-anchor="middle" x="609.81" y="-589.9" font-family="Times,serif" font-size="14.00"> Type: delete </text>
<text text-anchor="middle" x="609.81" y="-574.9" font-family="Times,serif" font-size="14.00"> Direction: any</text>
</g>
<!-- d42cdc3e&#45;d7cb&#45;11ee&#45;9e69&#45;ac1a3ddd05c7&#45;&gt;d42cf476&#45;d7cb&#45;11ee&#45;9e69&#45;ac1a3ddd05c7 -->
<g id="edge15" class="edge">
<title>d42cdc3e&#45;d7cb&#45;11ee&#45;9e69&#45;ac1a3ddd05c7&#45;&gt;d42cf476&#45;d7cb&#45;11ee&#45;9e69&#45;ac1a3ddd05c7</title>
<path fill="none" stroke="black" d="M449.82,-672.18C479.07,-658 515.4,-640.38 546.05,-625.52"/>
<polygon fill="black" stroke="black" points="547.37,-628.77 554.84,-621.26 544.31,-622.47 547.37,-628.77"/>
</g>
<!-- d42ce5e4&#45;d7cb&#45;11ee&#45;9e69&#45;ac1a3ddd05c7 -->
<g id="node7" class="node">
<title>d42ce5e4&#45;d7cb&#45;11ee&#45;9e69&#45;ac1a3ddd05c7</title>
<ellipse fill="none" stroke="black" cx="163.81" cy="-513.1" rx="48.99" ry="18"/>
<text text-anchor="middle" x="163.81" y="-509.4" font-family="Times,serif" font-size="14.00">r_2: level2</text>
</g>
<!-- d42ce22e&#45;d7cb&#45;11ee&#45;9e69&#45;ac1a3ddd05c7&#45;&gt;d42ce5e4&#45;d7cb&#45;11ee&#45;9e69&#45;ac1a3ddd05c7 -->
<g id="edge6" class="edge">
<title>d42ce22e&#45;d7cb&#45;11ee&#45;9e69&#45;ac1a3ddd05c7&#45;&gt;d42ce5e4&#45;d7cb&#45;11ee&#45;9e69&#45;ac1a3ddd05c7</title>
<path fill="none" stroke="black" d="M399.12,-569.94C395.98,-568.95 392.87,-567.99 389.81,-567.1 331.53,-550 263.53,-534.66 217.47,-524.94"/>
<polygon fill="black" stroke="black" points="218.23,-521.52 207.73,-522.9 216.8,-528.37 218.23,-521.52"/>
</g>
<!-- d42ceb98&#45;d7cb&#45;11ee&#45;9e69&#45;ac1a3ddd05c7 -->
<g id="node10" class="node">
<title>d42ceb98&#45;d7cb&#45;11ee&#45;9e69&#45;ac1a3ddd05c7</title>
<ellipse fill="none" stroke="black" cx="319.81" cy="-513.1" rx="48.99" ry="18"/>
<text text-anchor="middle" x="319.81" y="-509.4" font-family="Times,serif" font-size="14.00">r_4: level2</text>
</g>
<!-- d42ce22e&#45;d7cb&#45;11ee&#45;9e69&#45;ac1a3ddd05c7&#45;&gt;d42ceb98&#45;d7cb&#45;11ee&#45;9e69&#45;ac1a3ddd05c7 -->
<g id="edge9" class="edge">
<title>d42ce22e&#45;d7cb&#45;11ee&#45;9e69&#45;ac1a3ddd05c7&#45;&gt;d42ceb98&#45;d7cb&#45;11ee&#45;9e69&#45;ac1a3ddd05c7</title>
<path fill="none" stroke="black" d="M414.92,-566.68C395.75,-556.07 373.9,-544 355.99,-534.1"/>
<polygon fill="black" stroke="black" points="357.72,-531.05 347.27,-529.28 354.33,-537.18 357.72,-531.05"/>
</g>
<!-- d42ceeae&#45;d7cb&#45;11ee&#45;9e69&#45;ac1a3ddd05c7 -->
<g id="node12" class="node">
<title>d42ceeae&#45;d7cb&#45;11ee&#45;9e69&#45;ac1a3ddd05c7</title>
<ellipse fill="none" stroke="black" cx="466.81" cy="-513.1" rx="48.99" ry="18"/>
<text text-anchor="middle" x="466.81" y="-509.4" font-family="Times,serif" font-size="14.00">r_3: level3</text>
</g>
<!-- d42ce22e&#45;d7cb&#45;11ee&#45;9e69&#45;ac1a3ddd05c7&#45;&gt;d42ceeae&#45;d7cb&#45;11ee&#45;9e69&#45;ac1a3ddd05c7 -->
<g id="edge11" class="edge">
<title>d42ce22e&#45;d7cb&#45;11ee&#45;9e69&#45;ac1a3ddd05c7&#45;&gt;d42ceeae&#45;d7cb&#45;11ee&#45;9e69&#45;ac1a3ddd05c7</title>
<path fill="none" stroke="black" d="M463.45,-566.89C463.94,-559.17 464.49,-550.66 464.99,-542.76"/>
<polygon fill="black" stroke="black" points="468.47,-543.14 465.61,-532.94 461.49,-542.7 468.47,-543.14"/>
</g>
<!-- d42cf192&#45;d7cb&#45;11ee&#45;9e69&#45;ac1a3ddd05c7 -->
<g id="node14" class="node">
<title>d42cf192&#45;d7cb&#45;11ee&#45;9e69&#45;ac1a3ddd05c7</title>
<ellipse fill="none" stroke="black" cx="642.81" cy="-513.1" rx="48.99" ry="18"/>
<text text-anchor="middle" x="642.81" y="-509.4" font-family="Times,serif" font-size="14.00">r_5: level3</text>
</g>
<!-- d42ce22e&#45;d7cb&#45;11ee&#45;9e69&#45;ac1a3ddd05c7&#45;&gt;d42cf192&#45;d7cb&#45;11ee&#45;9e69&#45;ac1a3ddd05c7 -->
<g id="edge13" class="edge">
<title>d42ce22e&#45;d7cb&#45;11ee&#45;9e69&#45;ac1a3ddd05c7&#45;&gt;d42cf192&#45;d7cb&#45;11ee&#45;9e69&#45;ac1a3ddd05c7</title>
<path fill="none" stroke="black" d="M521.58,-566.68C547.84,-555.29 578,-542.21 601.68,-531.94"/>
<polygon fill="black" stroke="black" points="602.89,-535.23 610.67,-528.04 600.11,-528.81 602.89,-535.23"/>
</g>
<!-- d42ce7ba&#45;d7cb&#45;11ee&#45;9e69&#45;ac1a3ddd05c7 -->
<g id="node8" class="node">
<title>d42ce7ba&#45;d7cb&#45;11ee&#45;9e69&#45;ac1a3ddd05c7</title>
<polygon fill="none" stroke="black" points="179.44,-415.82 134.63,-458.87 45,-458.87 0.18,-415.82 45,-372.77 134.63,-372.77 179.44,-415.82"/>
<text text-anchor="middle" x="89.81" y="-427.12" font-family="Times,serif" font-size="14.00">rp_15: level3 </text>
<text text-anchor="middle" x="89.81" y="-412.12" font-family="Times,serif" font-size="14.00"> create_proposal </text>
<text text-anchor="middle" x="89.81" y="-397.12" font-family="Times,serif" font-size="14.00"> cost : 100</text>
</g>
<!-- d42ce5e4&#45;d7cb&#45;11ee&#45;9e69&#45;ac1a3ddd05c7&#45;&gt;d42ce7ba&#45;d7cb&#45;11ee&#45;9e69&#45;ac1a3ddd05c7 -->
<g id="edge7" class="edge">
<title>d42ce5e4&#45;d7cb&#45;11ee&#45;9e69&#45;ac1a3ddd05c7&#45;&gt;d42ce7ba&#45;d7cb&#45;11ee&#45;9e69&#45;ac1a3ddd05c7</title>
<path fill="none" stroke="black" d="M150.92,-495.5C144.84,-487.67 137.21,-477.85 129.43,-467.83"/>
<polygon fill="black" stroke="black" points="132.42,-465.97 123.52,-460.21 126.89,-470.26 132.42,-465.97"/>
</g>
<!-- d42ce936&#45;d7cb&#45;11ee&#45;9e69&#45;ac1a3ddd05c7 -->
<g id="node9" class="node">
<title>d42ce936&#45;d7cb&#45;11ee&#45;9e69&#45;ac1a3ddd05c7</title>
<polygon fill="none" stroke="black" points="163.81,-336.55 15.81,-336.55 15.81,-283.55 163.81,-283.55 163.81,-336.55"/>
<text text-anchor="middle" x="89.81" y="-321.35" font-family="Times,serif" font-size="14.00">r0: decide_on_proposal </text>
<text text-anchor="middle" x="89.81" y="-306.35" font-family="Times,serif" font-size="14.00"> Type: delete </text>
<text text-anchor="middle" x="89.81" y="-291.35" font-family="Times,serif" font-size="14.00"> Direction: any</text>
</g>
<!-- d42ce7ba&#45;d7cb&#45;11ee&#45;9e69&#45;ac1a3ddd05c7&#45;&gt;d42ce936&#45;d7cb&#45;11ee&#45;9e69&#45;ac1a3ddd05c7 -->
<g id="edge8" class="edge">
<title>d42ce7ba&#45;d7cb&#45;11ee&#45;9e69&#45;ac1a3ddd05c7&#45;&gt;d42ce936&#45;d7cb&#45;11ee&#45;9e69&#45;ac1a3ddd05c7</title>
<path fill="none" stroke="black" d="M89.81,-372.31C89.81,-364.36 89.81,-356.1 89.81,-348.32"/>
<polygon fill="black" stroke="black" points="93.31,-348.49 89.81,-338.49 86.31,-348.49 93.31,-348.49"/>
</g>
<!-- d42ced46&#45;d7cb&#45;11ee&#45;9e69&#45;ac1a3ddd05c7 -->
<g id="node11" class="node">
<title>d42ced46&#45;d7cb&#45;11ee&#45;9e69&#45;ac1a3ddd05c7</title>
<polygon fill="none" stroke="black" points="377.44,-415.82 332.63,-458.87 243,-458.87 198.18,-415.82 243,-372.77 332.63,-372.77 377.44,-415.82"/>
<text text-anchor="middle" x="287.81" y="-427.12" font-family="Times,serif" font-size="14.00">rp_15: level2 </text>
<text text-anchor="middle" x="287.81" y="-412.12" font-family="Times,serif" font-size="14.00"> create_proposal </text>
<text text-anchor="middle" x="287.81" y="-397.12" font-family="Times,serif" font-size="14.00"> cost : 15</text>
</g>
<!-- d42ceb98&#45;d7cb&#45;11ee&#45;9e69&#45;ac1a3ddd05c7&#45;&gt;d42ced46&#45;d7cb&#45;11ee&#45;9e69&#45;ac1a3ddd05c7 -->
<g id="edge10" class="edge">
<title>d42ceb98&#45;d7cb&#45;11ee&#45;9e69&#45;ac1a3ddd05c7&#45;&gt;d42ced46&#45;d7cb&#45;11ee&#45;9e69&#45;ac1a3ddd05c7</title>
<path fill="none" stroke="black" d="M314.09,-495.06C311.66,-487.83 308.69,-478.97 305.62,-469.84"/>
<polygon fill="black" stroke="black" points="308.99,-468.88 302.49,-460.51 302.35,-471.1 308.99,-468.88"/>
</g>
<!-- d42cf034&#45;d7cb&#45;11ee&#45;9e69&#45;ac1a3ddd05c7 -->
<g id="node13" class="node">
<title>d42cf034&#45;d7cb&#45;11ee&#45;9e69&#45;ac1a3ddd05c7</title>
<polygon fill="none" stroke="black" points="575.44,-415.82 530.63,-458.87 441,-458.87 396.18,-415.82 441,-372.77 530.63,-372.77 575.44,-415.82"/>
<text text-anchor="middle" x="485.81" y="-427.12" font-family="Times,serif" font-size="14.00">rp_15: level3 </text>
<text text-anchor="middle" x="485.81" y="-412.12" font-family="Times,serif" font-size="14.00"> create_proposal </text>
<text text-anchor="middle" x="485.81" y="-397.12" font-family="Times,serif" font-size="14.00"> cost : 26</text>
</g>
<!-- d42ceeae&#45;d7cb&#45;11ee&#45;9e69&#45;ac1a3ddd05c7&#45;&gt;d42cf034&#45;d7cb&#45;11ee&#45;9e69&#45;ac1a3ddd05c7 -->
<g id="edge12" class="edge">
<title>d42ceeae&#45;d7cb&#45;11ee&#45;9e69&#45;ac1a3ddd05c7&#45;&gt;d42cf034&#45;d7cb&#45;11ee&#45;9e69&#45;ac1a3ddd05c7</title>
<path fill="none" stroke="black" d="M470.21,-495.06C471.64,-487.91 473.38,-479.16 475.18,-470.13"/>
<polygon fill="black" stroke="black" points="478.57,-471.05 477.09,-460.56 471.7,-469.68 478.57,-471.05"/>
</g>
<!-- d42cf304&#45;d7cb&#45;11ee&#45;9e69&#45;ac1a3ddd05c7 -->
<g id="node15" class="node">
<title>d42cf304&#45;d7cb&#45;11ee&#45;9e69&#45;ac1a3ddd05c7</title>
<polygon fill="none" stroke="black" points="773.44,-415.82 728.63,-458.87 639,-458.87 594.18,-415.82 639,-372.77 728.63,-372.77 773.44,-415.82"/>
<text text-anchor="middle" x="683.81" y="-427.12" font-family="Times,serif" font-size="14.00">rp_15: level3 </text>
<text text-anchor="middle" x="683.81" y="-412.12" font-family="Times,serif" font-size="14.00"> create_proposal </text>
<text text-anchor="middle" x="683.81" y="-397.12" font-family="Times,serif" font-size="14.00"> cost : 98</text>
</g>
<!-- d42cf192&#45;d7cb&#45;11ee&#45;9e69&#45;ac1a3ddd05c7&#45;&gt;d42cf304&#45;d7cb&#45;11ee&#45;9e69&#45;ac1a3ddd05c7 -->
<g id="edge14" class="edge">
<title>d42cf192&#45;d7cb&#45;11ee&#45;9e69&#45;ac1a3ddd05c7&#45;&gt;d42cf304&#45;d7cb&#45;11ee&#45;9e69&#45;ac1a3ddd05c7</title>
<path fill="none" stroke="black" d="M650.14,-495.06C653.29,-487.75 657.15,-478.77 661.13,-469.54"/>
<polygon fill="black" stroke="black" points="664.3,-471.03 665.03,-460.47 657.87,-468.27 664.3,-471.03"/>
</g>
<!-- d42cf7f0&#45;d7cb&#45;11ee&#45;9e69&#45;ac1a3ddd05c7 -->
<g id="node18" class="node">
<title>d42cf7f0&#45;d7cb&#45;11ee&#45;9e69&#45;ac1a3ddd05c7</title>
<polygon fill="none" stroke="black" points="649.08,-699.37 609.95,-742.42 531.68,-742.42 492.55,-699.37 531.68,-656.32 609.95,-656.32 649.08,-699.37"/>
<text text-anchor="middle" x="570.81" y="-710.67" font-family="Times,serif" font-size="14.00">rp_12: level2 </text>
<text text-anchor="middle" x="570.81" y="-695.67" font-family="Times,serif" font-size="14.00"> close_project </text>
<text text-anchor="middle" x="570.81" y="-680.67" font-family="Times,serif" font-size="14.00"> cost : 67</text>
</g>
<!-- d42cf656&#45;d7cb&#45;11ee&#45;9e69&#45;ac1a3ddd05c7&#45;&gt;d42cf7f0&#45;d7cb&#45;11ee&#45;9e69&#45;ac1a3ddd05c7 -->
<g id="edge17" class="edge">
<title>d42cf656&#45;d7cb&#45;11ee&#45;9e69&#45;ac1a3ddd05c7&#45;&gt;d42cf7f0&#45;d7cb&#45;11ee&#45;9e69&#45;ac1a3ddd05c7</title>
<path fill="none" stroke="black" d="M583.13,-778.61C582.02,-771.54 580.66,-762.9 579.25,-753.98"/>
<polygon fill="black" stroke="black" points="582.71,-753.45 577.7,-744.12 575.8,-754.54 582.71,-753.45"/>
</g>
<!-- d42cfaca&#45;d7cb&#45;11ee&#45;9e69&#45;ac1a3ddd05c7 -->
<g id="node20" class="node">
<title>d42cfaca&#45;d7cb&#45;11ee&#45;9e69&#45;ac1a3ddd05c7</title>
<polygon fill="none" stroke="black" points="824.08,-699.37 784.95,-742.42 706.68,-742.42 667.55,-699.37 706.68,-656.32 784.95,-656.32 824.08,-699.37"/>
<text text-anchor="middle" x="745.81" y="-710.67" font-family="Times,serif" font-size="14.00">rp_19: level3 </text>
<text text-anchor="middle" x="745.81" y="-695.67" font-family="Times,serif" font-size="14.00"> close_project </text>
<text text-anchor="middle" x="745.81" y="-680.67" font-family="Times,serif" font-size="14.00"> cost : 56</text>
</g>
<!-- d42cf94e&#45;d7cb&#45;11ee&#45;9e69&#45;ac1a3ddd05c7&#45;&gt;d42cfaca&#45;d7cb&#45;11ee&#45;9e69&#45;ac1a3ddd05c7 -->
<g id="edge19" class="edge">
<title>d42cf94e&#45;d7cb&#45;11ee&#45;9e69&#45;ac1a3ddd05c7&#45;&gt;d42cfaca&#45;d7cb&#45;11ee&#45;9e69&#45;ac1a3ddd05c7</title>
<path fill="none" stroke="black" d="M733.5,-778.61C734.61,-771.54 735.97,-762.9 737.37,-753.98"/>
<polygon fill="black" stroke="black" points="740.83,-754.54 738.93,-744.12 733.91,-753.45 740.83,-754.54"/>
</g>
<!-- d42cfd9a&#45;d7cb&#45;11ee&#45;9e69&#45;ac1a3ddd05c7 -->
<g id="node22" class="node">
<title>d42cfd9a&#45;d7cb&#45;11ee&#45;9e69&#45;ac1a3ddd05c7</title>
<polygon fill="none" stroke="black" points="999.08,-699.37 959.95,-742.42 881.68,-742.42 842.55,-699.37 881.68,-656.32 959.95,-656.32 999.08,-699.37"/>
<text text-anchor="middle" x="920.81" y="-710.67" font-family="Times,serif" font-size="14.00">rp_19: level3 </text>
<text text-anchor="middle" x="920.81" y="-695.67" font-family="Times,serif" font-size="14.00"> close_project </text>
<text text-anchor="middle" x="920.81" y="-680.67" font-family="Times,serif" font-size="14.00"> cost : 62</text>
</g>
<!-- d42cfc1e&#45;d7cb&#45;11ee&#45;9e69&#45;ac1a3ddd05c7&#45;&gt;d42cfd9a&#45;d7cb&#45;11ee&#45;9e69&#45;ac1a3ddd05c7 -->
<g id="edge21" class="edge">
<title>d42cfc1e&#45;d7cb&#45;11ee&#45;9e69&#45;ac1a3ddd05c7&#45;&gt;d42cfd9a&#45;d7cb&#45;11ee&#45;9e69&#45;ac1a3ddd05c7</title>
<path fill="none" stroke="black" d="M896.18,-778.61C898.46,-771.38 901.25,-762.52 904.12,-753.38"/>
<polygon fill="black" stroke="black" points="907.39,-754.66 907.06,-744.07 900.71,-752.55 907.39,-754.66"/>
</g>
<!-- d42cfef8&#45;d7cb&#45;11ee&#45;9e69&#45;ac1a3ddd05c7 -->
<g id="node23" class="node">
<title>d42cfef8&#45;d7cb&#45;11ee&#45;9e69&#45;ac1a3ddd05c7</title>
<polygon fill="none" stroke="black" points="977.31,-620.1 864.31,-620.1 864.31,-567.1 977.31,-567.1 977.31,-620.1"/>
<text text-anchor="middle" x="920.81" y="-604.9" font-family="Times,serif" font-size="14.00">r0: data_support </text>
<text text-anchor="middle" x="920.81" y="-589.9" font-family="Times,serif" font-size="14.00"> Type: insert </text>
<text text-anchor="middle" x="920.81" y="-574.9" font-family="Times,serif" font-size="14.00"> Direction: before</text>
</g>
<!-- d42cfd9a&#45;d7cb&#45;11ee&#45;9e69&#45;ac1a3ddd05c7&#45;&gt;d42cfef8&#45;d7cb&#45;11ee&#45;9e69&#45;ac1a3ddd05c7 -->
<g id="edge22" class="edge">
<title>d42cfd9a&#45;d7cb&#45;11ee&#45;9e69&#45;ac1a3ddd05c7&#45;&gt;d42cfef8&#45;d7cb&#45;11ee&#45;9e69&#45;ac1a3ddd05c7</title>
<path fill="none" stroke="black" d="M920.81,-655.86C920.81,-647.91 920.81,-639.65 920.81,-631.87"/>
<polygon fill="black" stroke="black" points="924.31,-632.04 920.81,-622.04 917.31,-632.04 924.31,-632.04"/>
</g>
<!-- d42d02e0&#45;d7cb&#45;11ee&#45;9e69&#45;ac1a3ddd05c7 -->
<g id="node24" class="node">
<title>d42d02e0&#45;d7cb&#45;11ee&#45;9e69&#45;ac1a3ddd05c7</title>
<ellipse fill="none" stroke="black" cx="911.81" cy="-513.1" rx="48.99" ry="18"/>
<text text-anchor="middle" x="911.81" y="-509.4" font-family="Times,serif" font-size="14.00">r_2: level2</text>
</g>
<!-- d42cfef8&#45;d7cb&#45;11ee&#45;9e69&#45;ac1a3ddd05c7&#45;&gt;d42d02e0&#45;d7cb&#45;11ee&#45;9e69&#45;ac1a3ddd05c7 -->
<g id="edge23" class="edge">
<title>d42cfef8&#45;d7cb&#45;11ee&#45;9e69&#45;ac1a3ddd05c7&#45;&gt;d42d02e0&#45;d7cb&#45;11ee&#45;9e69&#45;ac1a3ddd05c7</title>
<path fill="none" stroke="black" d="M917.87,-566.89C916.98,-559.17 916.01,-550.66 915.1,-542.76"/>
<polygon fill="black" stroke="black" points="918.59,-542.47 913.97,-532.93 911.64,-543.26 918.59,-542.47"/>
</g>
<!-- d42d1456&#45;d7cb&#45;11ee&#45;9e69&#45;ac1a3ddd05c7 -->
<g id="node34" class="node">
<title>d42d1456&#45;d7cb&#45;11ee&#45;9e69&#45;ac1a3ddd05c7</title>
<ellipse fill="none" stroke="black" cx="1054.81" cy="-513.1" rx="48.99" ry="18"/>
<text text-anchor="middle" x="1054.81" y="-509.4" font-family="Times,serif" font-size="14.00">r_4: level2</text>
</g>
<!-- d42cfef8&#45;d7cb&#45;11ee&#45;9e69&#45;ac1a3ddd05c7&#45;&gt;d42d1456&#45;d7cb&#45;11ee&#45;9e69&#45;ac1a3ddd05c7 -->
<g id="edge33" class="edge">
<title>d42cfef8&#45;d7cb&#45;11ee&#45;9e69&#45;ac1a3ddd05c7&#45;&gt;d42d1456&#45;d7cb&#45;11ee&#45;9e69&#45;ac1a3ddd05c7</title>
<path fill="none" stroke="black" d="M965.06,-566.68C982.87,-556.25 1003.1,-544.39 1019.84,-534.58"/>
<polygon fill="black" stroke="black" points="1021.6,-537.61 1028.46,-529.54 1018.06,-531.57 1021.6,-537.61"/>
</g>
<!-- d42d0470&#45;d7cb&#45;11ee&#45;9e69&#45;ac1a3ddd05c7 -->
<g id="node25" class="node">
<title>d42d0470&#45;d7cb&#45;11ee&#45;9e69&#45;ac1a3ddd05c7</title>
<polygon fill="none" stroke="black" points="983.32,-415.82 945.07,-458.87 868.56,-458.87 830.31,-415.82 868.56,-372.77 945.07,-372.77 983.32,-415.82"/>
<text text-anchor="middle" x="906.81" y="-427.12" font-family="Times,serif" font-size="14.00">rp_20: level2 </text>
<text text-anchor="middle" x="906.81" y="-412.12" font-family="Times,serif" font-size="14.00"> data_support </text>
<text text-anchor="middle" x="906.81" y="-397.12" font-family="Times,serif" font-size="14.00"> cost : 1</text>
</g>
<!-- d42d02e0&#45;d7cb&#45;11ee&#45;9e69&#45;ac1a3ddd05c7&#45;&gt;d42d0470&#45;d7cb&#45;11ee&#45;9e69&#45;ac1a3ddd05c7 -->
<g id="edge24" class="edge">
<title>d42d02e0&#45;d7cb&#45;11ee&#45;9e69&#45;ac1a3ddd05c7&#45;&gt;d42d0470&#45;d7cb&#45;11ee&#45;9e69&#45;ac1a3ddd05c7</title>
<path fill="none" stroke="black" d="M910.9,-494.62C910.53,-487.67 910.09,-479.27 909.64,-470.6"/>
<polygon fill="black" stroke="black" points="913.13,-470.44 909.11,-460.64 906.14,-470.81 913.13,-470.44"/>
</g>
<!-- d42d05c4&#45;d7cb&#45;11ee&#45;9e69&#45;ac1a3ddd05c7 -->
<g id="node26" class="node">
<title>d42d05c4&#45;d7cb&#45;11ee&#45;9e69&#45;ac1a3ddd05c7</title>
<polygon fill="none" stroke="black" points="899.31,-336.55 786.31,-336.55 786.31,-283.55 899.31,-283.55 899.31,-336.55"/>
<text text-anchor="middle" x="842.81" y="-321.35" font-family="Times,serif" font-size="14.00">r0: inform_head </text>
<text text-anchor="middle" x="842.81" y="-306.35" font-family="Times,serif" font-size="14.00"> Type: insert </text>
<text text-anchor="middle" x="842.81" y="-291.35" font-family="Times,serif" font-size="14.00"> Direction: before</text>
</g>
<!-- d42d0470&#45;d7cb&#45;11ee&#45;9e69&#45;ac1a3ddd05c7&#45;&gt;d42d05c4&#45;d7cb&#45;11ee&#45;9e69&#45;ac1a3ddd05c7 -->
<g id="edge25" class="edge">
<title>d42d0470&#45;d7cb&#45;11ee&#45;9e69&#45;ac1a3ddd05c7&#45;&gt;d42d05c4&#45;d7cb&#45;11ee&#45;9e69&#45;ac1a3ddd05c7</title>
<path fill="none" stroke="black" d="M880.6,-372.31C875.35,-363.8 869.88,-354.93 864.79,-346.68"/>
<polygon fill="black" stroke="black" points="867.83,-344.94 859.6,-338.27 861.87,-348.62 867.83,-344.94"/>
</g>
<!-- d42d1294&#45;d7cb&#45;11ee&#45;9e69&#45;ac1a3ddd05c7 -->
<g id="node33" class="node">
<title>d42d1294&#45;d7cb&#45;11ee&#45;9e69&#45;ac1a3ddd05c7</title>
<polygon fill="none" stroke="black" points="1024.31,-336.55 917.31,-336.55 917.31,-283.55 1024.31,-283.55 1024.31,-336.55"/>
<text text-anchor="middle" x="970.81" y="-321.35" font-family="Times,serif" font-size="14.00">r0: design_offer </text>
<text text-anchor="middle" x="970.81" y="-306.35" font-family="Times,serif" font-size="14.00"> Type: delete </text>
<text text-anchor="middle" x="970.81" y="-291.35" font-family="Times,serif" font-size="14.00"> Direction: any</text>
</g>
<!-- d42d0470&#45;d7cb&#45;11ee&#45;9e69&#45;ac1a3ddd05c7&#45;&gt;d42d1294&#45;d7cb&#45;11ee&#45;9e69&#45;ac1a3ddd05c7 -->
<g id="edge32" class="edge">
<title>d42d0470&#45;d7cb&#45;11ee&#45;9e69&#45;ac1a3ddd05c7&#45;&gt;d42d1294&#45;d7cb&#45;11ee&#45;9e69&#45;ac1a3ddd05c7</title>
<path fill="none" stroke="black" d="M933.03,-372.31C938.28,-363.8 943.75,-354.93 948.84,-346.68"/>
<polygon fill="black" stroke="black" points="951.76,-348.62 954.03,-338.27 945.8,-344.94 951.76,-348.62"/>
</g>
<!-- d42d08a8&#45;d7cb&#45;11ee&#45;9e69&#45;ac1a3ddd05c7 -->
<g id="node27" class="node">
<title>d42d08a8&#45;d7cb&#45;11ee&#45;9e69&#45;ac1a3ddd05c7</title>
<ellipse fill="none" stroke="black" cx="778.81" cy="-229.55" rx="48.99" ry="18"/>
<text text-anchor="middle" x="778.81" y="-225.85" font-family="Times,serif" font-size="14.00">r_2: level2</text>
</g>
<!-- d42d05c4&#45;d7cb&#45;11ee&#45;9e69&#45;ac1a3ddd05c7&#45;&gt;d42d08a8&#45;d7cb&#45;11ee&#45;9e69&#45;ac1a3ddd05c7 -->
<g id="edge26" class="edge">
<title>d42d05c4&#45;d7cb&#45;11ee&#45;9e69&#45;ac1a3ddd05c7&#45;&gt;d42d08a8&#45;d7cb&#45;11ee&#45;9e69&#45;ac1a3ddd05c7</title>
<path fill="none" stroke="black" d="M821.86,-283.34C814.61,-274.45 806.49,-264.5 799.28,-255.65"/>
<polygon fill="black" stroke="black" points="802.16,-253.64 793.12,-248.1 796.73,-258.06 802.16,-253.64"/>
</g>
<!-- d42d0baa&#45;d7cb&#45;11ee&#45;9e69&#45;ac1a3ddd05c7 -->
<g id="node29" class="node">
<title>d42d0baa&#45;d7cb&#45;11ee&#45;9e69&#45;ac1a3ddd05c7</title>
<ellipse fill="none" stroke="black" cx="907.81" cy="-229.55" rx="48.99" ry="18"/>
<text text-anchor="middle" x="907.81" y="-225.85" font-family="Times,serif" font-size="14.00">r_4: level2</text>
</g>
<!-- d42d05c4&#45;d7cb&#45;11ee&#45;9e69&#45;ac1a3ddd05c7&#45;&gt;d42d0baa&#45;d7cb&#45;11ee&#45;9e69&#45;ac1a3ddd05c7 -->
<g id="edge28" class="edge">
<title>d42d05c4&#45;d7cb&#45;11ee&#45;9e69&#45;ac1a3ddd05c7&#45;&gt;d42d0baa&#45;d7cb&#45;11ee&#45;9e69&#45;ac1a3ddd05c7</title>
<path fill="none" stroke="black" d="M864.1,-283.34C871.46,-274.45 879.7,-264.5 887.03,-255.65"/>
<polygon fill="black" stroke="black" points="889.61,-258.03 893.29,-248.09 884.21,-253.56 889.61,-258.03"/>
</g>
<!-- d42d0a42&#45;d7cb&#45;11ee&#45;9e69&#45;ac1a3ddd05c7 -->
<g id="node28" class="node">
<title>d42d0a42&#45;d7cb&#45;11ee&#45;9e69&#45;ac1a3ddd05c7</title>
<polygon fill="none" stroke="black" points="827.32,-132.27 789.07,-175.32 712.56,-175.32 674.31,-132.27 712.56,-89.22 789.07,-89.22 827.32,-132.27"/>
<text text-anchor="middle" x="750.81" y="-143.57" font-family="Times,serif" font-size="14.00">rp_22: level2 </text>
<text text-anchor="middle" x="750.81" y="-128.57" font-family="Times,serif" font-size="14.00"> inform_head </text>
<text text-anchor="middle" x="750.81" y="-113.57" font-family="Times,serif" font-size="14.00"> cost : 11</text>
</g>
<!-- d42d08a8&#45;d7cb&#45;11ee&#45;9e69&#45;ac1a3ddd05c7&#45;&gt;d42d0a42&#45;d7cb&#45;11ee&#45;9e69&#45;ac1a3ddd05c7 -->
<g id="edge27" class="edge">
<title>d42d08a8&#45;d7cb&#45;11ee&#45;9e69&#45;ac1a3ddd05c7&#45;&gt;d42d0a42&#45;d7cb&#45;11ee&#45;9e69&#45;ac1a3ddd05c7</title>
<path fill="none" stroke="black" d="M773.81,-211.52C771.68,-204.28 769.08,-195.42 766.39,-186.29"/>
<polygon fill="black" stroke="black" points="769.84,-185.59 763.66,-176.98 763.12,-187.56 769.84,-185.59"/>
</g>
<!-- d42d0d58&#45;d7cb&#45;11ee&#45;9e69&#45;ac1a3ddd05c7 -->
<g id="node30" class="node">
<title>d42d0d58&#45;d7cb&#45;11ee&#45;9e69&#45;ac1a3ddd05c7</title>
<polygon fill="none" stroke="black" points="999.32,-132.27 961.07,-175.32 884.56,-175.32 846.31,-132.27 884.56,-89.22 961.07,-89.22 999.32,-132.27"/>
<text text-anchor="middle" x="922.81" y="-143.57" font-family="Times,serif" font-size="14.00">rp_22: level2 </text>
<text text-anchor="middle" x="922.81" y="-128.57" font-family="Times,serif" font-size="14.00"> inform_head </text>
<text text-anchor="middle" x="922.81" y="-113.57" font-family="Times,serif" font-size="14.00"> cost : 92</text>
</g>
<!-- d42d0baa&#45;d7cb&#45;11ee&#45;9e69&#45;ac1a3ddd05c7&#45;&gt;d42d0d58&#45;d7cb&#45;11ee&#45;9e69&#45;ac1a3ddd05c7 -->
<g id="edge29" class="edge">
<title>d42d0baa&#45;d7cb&#45;11ee&#45;9e69&#45;ac1a3ddd05c7&#45;&gt;d42d0d58&#45;d7cb&#45;11ee&#45;9e69&#45;ac1a3ddd05c7</title>
<path fill="none" stroke="black" d="M910.5,-211.52C911.61,-204.44 912.97,-195.8 914.37,-186.88"/>
<polygon fill="black" stroke="black" points="917.83,-187.44 915.93,-177.02 910.91,-186.36 917.83,-187.44"/>
</g>
<!-- d42d0ea2&#45;d7cb&#45;11ee&#45;9e69&#45;ac1a3ddd05c7 -->
<g id="node31" class="node">
<title>d42d0ea2&#45;d7cb&#45;11ee&#45;9e69&#45;ac1a3ddd05c7</title>
<polygon fill="none" stroke="black" points="915.31,-53 768.31,-53 768.31,0 915.31,0 915.31,-53"/>
<text text-anchor="middle" x="841.81" y="-37.8" font-family="Times,serif" font-size="14.00">r0: four_eyes_principle </text>
<text text-anchor="middle" x="841.81" y="-22.8" font-family="Times,serif" font-size="14.00"> Type: insert </text>
<text text-anchor="middle" x="841.81" y="-7.8" font-family="Times,serif" font-size="14.00"> Direction: parallel</text>
</g>
<!-- d42d0d58&#45;d7cb&#45;11ee&#45;9e69&#45;ac1a3ddd05c7&#45;&gt;d42d0ea2&#45;d7cb&#45;11ee&#45;9e69&#45;ac1a3ddd05c7 -->
<g id="edge30" class="edge">
<title>d42d0d58&#45;d7cb&#45;11ee&#45;9e69&#45;ac1a3ddd05c7&#45;&gt;d42d0ea2&#45;d7cb&#45;11ee&#45;9e69&#45;ac1a3ddd05c7</title>
<path fill="none" stroke="black" d="M889.64,-88.77C882.77,-79.97 875.61,-70.8 868.99,-62.32"/>
<polygon fill="black" stroke="black" points="871.9,-60.35 862.99,-54.62 866.38,-64.66 871.9,-60.35"/>
</g>
<!-- d42d1064&#45;d7cb&#45;11ee&#45;9e69&#45;ac1a3ddd05c7 -->
<g id="node32" class="node">
<title>d42d1064&#45;d7cb&#45;11ee&#45;9e69&#45;ac1a3ddd05c7</title>
<polygon fill="none" stroke="black" points="1075.81,-53 933.81,-53 933.81,0 1075.81,0 1075.81,-53"/>
<text text-anchor="middle" x="1004.81" y="-37.8" font-family="Times,serif" font-size="14.00">r0: head_confirmation </text>
<text text-anchor="middle" x="1004.81" y="-22.8" font-family="Times,serif" font-size="14.00"> Type: replace </text>
<text text-anchor="middle" x="1004.81" y="-7.8" font-family="Times,serif" font-size="14.00"> Direction: Core</text>
</g>
<!-- d42d0d58&#45;d7cb&#45;11ee&#45;9e69&#45;ac1a3ddd05c7&#45;&gt;d42d1064&#45;d7cb&#45;11ee&#45;9e69&#45;ac1a3ddd05c7 -->
<g id="edge31" class="edge">
<title>d42d0d58&#45;d7cb&#45;11ee&#45;9e69&#45;ac1a3ddd05c7&#45;&gt;d42d1064&#45;d7cb&#45;11ee&#45;9e69&#45;ac1a3ddd05c7</title>
<path fill="none" stroke="black" d="M956.4,-88.77C963.35,-79.97 970.6,-70.8 977.3,-62.32"/>
<polygon fill="black" stroke="black" points="979.93,-64.63 983.39,-54.62 974.44,-60.29 979.93,-64.63"/>
</g>
<!-- d42d15dc&#45;d7cb&#45;11ee&#45;9e69&#45;ac1a3ddd05c7 -->
<g id="node35" class="node">
<title>d42d15dc&#45;d7cb&#45;11ee&#45;9e69&#45;ac1a3ddd05c7</title>
<polygon fill="none" stroke="black" points="1155.32,-415.82 1117.07,-458.87 1040.56,-458.87 1002.31,-415.82 1040.56,-372.77 1117.07,-372.77 1155.32,-415.82"/>
<text text-anchor="middle" x="1078.81" y="-427.12" font-family="Times,serif" font-size="14.00">rp_20: level2 </text>
<text text-anchor="middle" x="1078.81" y="-412.12" font-family="Times,serif" font-size="14.00"> data_support </text>
<text text-anchor="middle" x="1078.81" y="-397.12" font-family="Times,serif" font-size="14.00"> cost : 24</text>
</g>
<!-- d42d1456&#45;d7cb&#45;11ee&#45;9e69&#45;ac1a3ddd05c7&#45;&gt;d42d15dc&#45;d7cb&#45;11ee&#45;9e69&#45;ac1a3ddd05c7 -->
<g id="edge34" class="edge">
<title>d42d1456&#45;d7cb&#45;11ee&#45;9e69&#45;ac1a3ddd05c7&#45;&gt;d42d15dc&#45;d7cb&#45;11ee&#45;9e69&#45;ac1a3ddd05c7</title>
<path fill="none" stroke="black" d="M1059.11,-495.06C1060.91,-487.91 1063.11,-479.16 1065.39,-470.13"/>
<polygon fill="black" stroke="black" points="1068.75,-471.1 1067.8,-460.54 1061.96,-469.39 1068.75,-471.1"/>
</g>
</g>
</svg>
