<?xml version="1.0" encoding="UTF-8" standalone="no"?>
<!DOCTYPE svg PUBLIC "-//W3C//DTD SVG 1.1//EN"
 "http://www.w3.org/Graphics/SVG/1.1/DTD/svg11.dtd">
<!-- Generated by graphviz version 7.1.0 (0)
 -->
<!-- Title: CallTree Pages: 1 -->
<svg width="1087pt" height="539pt"
 viewBox="0.00 0.00 1087.00 539.10" xmlns="http://www.w3.org/2000/svg" xmlns:xlink="http://www.w3.org/1999/xlink">
<g id="graph0" class="graph" transform="scale(1 1) rotate(0) translate(4 535.1)">
<title>CallTree</title>
<polygon fill="white" stroke="none" points="-4,4 -4,-535.1 1083,-535.1 1083,4 -4,4"/>
<!-- d426d9d8&#45;d7cb&#45;11ee&#45;9e69&#45;ac1a3ddd05c7 -->
<g id="node1" class="node">
<title>d426d9d8&#45;d7cb&#45;11ee&#45;9e69&#45;ac1a3ddd05c7</title>
<polygon fill="none" stroke="black" points="453.72,-531.1 348.72,-531.1 348.72,-478.1 453.72,-478.1 453.72,-531.1"/>
<text text-anchor="middle" x="401.22" y="-515.9" font-family="Times,serif" font-size="14.00">a5: send_offer </text>
<text text-anchor="middle" x="401.22" y="-500.9" font-family="Times,serif" font-size="14.00"> Type: Core </text>
<text text-anchor="middle" x="401.22" y="-485.9" font-family="Times,serif" font-size="14.00"> Direction: Core</text>
</g>
<!-- d426e270&#45;d7cb&#45;11ee&#45;9e69&#45;ac1a3ddd05c7 -->
<g id="node2" class="node">
<title>d426e270&#45;d7cb&#45;11ee&#45;9e69&#45;ac1a3ddd05c7</title>
<ellipse fill="none" stroke="black" cx="120.22" cy="-424.1" rx="48.99" ry="18"/>
<text text-anchor="middle" x="120.22" y="-420.4" font-family="Times,serif" font-size="14.00">r_1: level1</text>
</g>
<!-- d426d9d8&#45;d7cb&#45;11ee&#45;9e69&#45;ac1a3ddd05c7&#45;&gt;d426e270&#45;d7cb&#45;11ee&#45;9e69&#45;ac1a3ddd05c7 -->
<g id="edge1" class="edge">
<title>d426d9d8&#45;d7cb&#45;11ee&#45;9e69&#45;ac1a3ddd05c7&#45;&gt;d426e270&#45;d7cb&#45;11ee&#45;9e69&#45;ac1a3ddd05c7</title>
<path fill="none" stroke="black" d="M348.36,-488.83C296.93,-474.46 219.4,-452.8 169.29,-438.81"/>
<polygon fill="black" stroke="black" points="170.45,-435.5 159.87,-436.18 168.56,-442.24 170.45,-435.5"/>
</g>
<!-- d426e644&#45;d7cb&#45;11ee&#45;9e69&#45;ac1a3ddd05c7 -->
<g id="node4" class="node">
<title>d426e644&#45;d7cb&#45;11ee&#45;9e69&#45;ac1a3ddd05c7</title>
<ellipse fill="none" stroke="black" cx="259.22" cy="-424.1" rx="48.99" ry="18"/>
<text text-anchor="middle" x="259.22" y="-420.4" font-family="Times,serif" font-size="14.00">r_2: level2</text>
</g>
<!-- d426d9d8&#45;d7cb&#45;11ee&#45;9e69&#45;ac1a3ddd05c7&#45;&gt;d426e644&#45;d7cb&#45;11ee&#45;9e69&#45;ac1a3ddd05c7 -->
<g id="edge3" class="edge">
<title>d426d9d8&#45;d7cb&#45;11ee&#45;9e69&#45;ac1a3ddd05c7&#45;&gt;d426e644&#45;d7cb&#45;11ee&#45;9e69&#45;ac1a3ddd05c7</title>
<path fill="none" stroke="black" d="M354.33,-477.68C335.15,-467.07 313.31,-455 295.4,-445.1"/>
<polygon fill="black" stroke="black" points="297.12,-442.05 286.68,-440.28 293.74,-448.18 297.12,-442.05"/>
</g>
<!-- d426e95a&#45;d7cb&#45;11ee&#45;9e69&#45;ac1a3ddd05c7 -->
<g id="node6" class="node">
<title>d426e95a&#45;d7cb&#45;11ee&#45;9e69&#45;ac1a3ddd05c7</title>
<ellipse fill="none" stroke="black" cx="401.22" cy="-424.1" rx="48.99" ry="18"/>
<text text-anchor="middle" x="401.22" y="-420.4" font-family="Times,serif" font-size="14.00">r_4: level2</text>
</g>
<!-- d426d9d8&#45;d7cb&#45;11ee&#45;9e69&#45;ac1a3ddd05c7&#45;&gt;d426e95a&#45;d7cb&#45;11ee&#45;9e69&#45;ac1a3ddd05c7 -->
<g id="edge5" class="edge">
<title>d426d9d8&#45;d7cb&#45;11ee&#45;9e69&#45;ac1a3ddd05c7&#45;&gt;d426e95a&#45;d7cb&#45;11ee&#45;9e69&#45;ac1a3ddd05c7</title>
<path fill="none" stroke="black" d="M401.22,-477.89C401.22,-470.17 401.22,-461.66 401.22,-453.76"/>
<polygon fill="black" stroke="black" points="404.72,-453.94 401.22,-443.94 397.72,-453.94 404.72,-453.94"/>
</g>
<!-- d426ec48&#45;d7cb&#45;11ee&#45;9e69&#45;ac1a3ddd05c7 -->
<g id="node8" class="node">
<title>d426ec48&#45;d7cb&#45;11ee&#45;9e69&#45;ac1a3ddd05c7</title>
<ellipse fill="none" stroke="black" cx="542.22" cy="-424.1" rx="48.99" ry="18"/>
<text text-anchor="middle" x="542.22" y="-420.4" font-family="Times,serif" font-size="14.00">r_3: level3</text>
</g>
<!-- d426d9d8&#45;d7cb&#45;11ee&#45;9e69&#45;ac1a3ddd05c7&#45;&gt;d426ec48&#45;d7cb&#45;11ee&#45;9e69&#45;ac1a3ddd05c7 -->
<g id="edge7" class="edge">
<title>d426d9d8&#45;d7cb&#45;11ee&#45;9e69&#45;ac1a3ddd05c7&#45;&gt;d426ec48&#45;d7cb&#45;11ee&#45;9e69&#45;ac1a3ddd05c7</title>
<path fill="none" stroke="black" d="M447.78,-477.68C466.82,-467.07 488.51,-455 506.3,-445.1"/>
<polygon fill="black" stroke="black" points="507.91,-448.2 514.94,-440.28 504.51,-442.09 507.91,-448.2"/>
</g>
<!-- d426f166&#45;d7cb&#45;11ee&#45;9e69&#45;ac1a3ddd05c7 -->
<g id="node11" class="node">
<title>d426f166&#45;d7cb&#45;11ee&#45;9e69&#45;ac1a3ddd05c7</title>
<ellipse fill="none" stroke="black" cx="697.22" cy="-424.1" rx="48.99" ry="18"/>
<text text-anchor="middle" x="697.22" y="-420.4" font-family="Times,serif" font-size="14.00">r_5: level3</text>
</g>
<!-- d426d9d8&#45;d7cb&#45;11ee&#45;9e69&#45;ac1a3ddd05c7&#45;&gt;d426f166&#45;d7cb&#45;11ee&#45;9e69&#45;ac1a3ddd05c7 -->
<g id="edge10" class="edge">
<title>d426d9d8&#45;d7cb&#45;11ee&#45;9e69&#45;ac1a3ddd05c7&#45;&gt;d426f166&#45;d7cb&#45;11ee&#45;9e69&#45;ac1a3ddd05c7</title>
<path fill="none" stroke="black" d="M454.14,-489.56C508.94,-475.03 593.9,-452.5 647.5,-438.28"/>
<polygon fill="black" stroke="black" points="648.2,-441.72 656.97,-435.77 646.41,-434.95 648.2,-441.72"/>
</g>
<!-- d426e482&#45;d7cb&#45;11ee&#45;9e69&#45;ac1a3ddd05c7 -->
<g id="node3" class="node">
<title>d426e482&#45;d7cb&#45;11ee&#45;9e69&#45;ac1a3ddd05c7</title>
<polygon fill="none" stroke="black" points="140.66,-326.82 105.44,-369.87 35,-369.87 -0.22,-326.82 35,-283.77 105.44,-283.77 140.66,-326.82"/>
<text text-anchor="middle" x="70.22" y="-338.12" font-family="Times,serif" font-size="14.00">rp_5: level1 </text>
<text text-anchor="middle" x="70.22" y="-323.12" font-family="Times,serif" font-size="14.00"> send_offer </text>
<text text-anchor="middle" x="70.22" y="-308.12" font-family="Times,serif" font-size="14.00"> cost : 50</text>
</g>
<!-- d426e270&#45;d7cb&#45;11ee&#45;9e69&#45;ac1a3ddd05c7&#45;&gt;d426e482&#45;d7cb&#45;11ee&#45;9e69&#45;ac1a3ddd05c7 -->
<g id="edge2" class="edge">
<title>d426e270&#45;d7cb&#45;11ee&#45;9e69&#45;ac1a3ddd05c7&#45;&gt;d426e482&#45;d7cb&#45;11ee&#45;9e69&#45;ac1a3ddd05c7</title>
<path fill="none" stroke="black" d="M111.28,-406.06C107.4,-398.67 102.63,-389.58 97.73,-380.24"/>
<polygon fill="black" stroke="black" points="100.84,-378.64 93.1,-371.42 94.64,-381.9 100.84,-378.64"/>
</g>
<!-- d426e7e8&#45;d7cb&#45;11ee&#45;9e69&#45;ac1a3ddd05c7 -->
<g id="node5" class="node">
<title>d426e7e8&#45;d7cb&#45;11ee&#45;9e69&#45;ac1a3ddd05c7</title>
<polygon fill="none" stroke="black" points="308.45,-326.82 270.84,-369.87 195.6,-369.87 157.98,-326.82 195.6,-283.77 270.84,-283.77 308.45,-326.82"/>
<text text-anchor="middle" x="233.22" y="-338.12" font-family="Times,serif" font-size="14.00">rp_10: level2 </text>
<text text-anchor="middle" x="233.22" y="-323.12" font-family="Times,serif" font-size="14.00"> send_offer </text>
<text text-anchor="middle" x="233.22" y="-308.12" font-family="Times,serif" font-size="14.00"> cost : 59</text>
</g>
<!-- d426e644&#45;d7cb&#45;11ee&#45;9e69&#45;ac1a3ddd05c7&#45;&gt;d426e7e8&#45;d7cb&#45;11ee&#45;9e69&#45;ac1a3ddd05c7 -->
<g id="edge4" class="edge">
<title>d426e644&#45;d7cb&#45;11ee&#45;9e69&#45;ac1a3ddd05c7&#45;&gt;d426e7e8&#45;d7cb&#45;11ee&#45;9e69&#45;ac1a3ddd05c7</title>
<path fill="none" stroke="black" d="M254.57,-406.06C252.62,-398.91 250.23,-390.16 247.77,-381.13"/>
<polygon fill="black" stroke="black" points="251.16,-380.26 245.15,-371.54 244.4,-382.1 251.16,-380.26"/>
</g>
<!-- d426eae0&#45;d7cb&#45;11ee&#45;9e69&#45;ac1a3ddd05c7 -->
<g id="node7" class="node">
<title>d426eae0&#45;d7cb&#45;11ee&#45;9e69&#45;ac1a3ddd05c7</title>
<polygon fill="none" stroke="black" points="476.45,-326.82 438.84,-369.87 363.6,-369.87 325.98,-326.82 363.6,-283.77 438.84,-283.77 476.45,-326.82"/>
<text text-anchor="middle" x="401.22" y="-338.12" font-family="Times,serif" font-size="14.00">rp_10: level2 </text>
<text text-anchor="middle" x="401.22" y="-323.12" font-family="Times,serif" font-size="14.00"> send_offer </text>
<text text-anchor="middle" x="401.22" y="-308.12" font-family="Times,serif" font-size="14.00"> cost : 70</text>
</g>
<!-- d426e95a&#45;d7cb&#45;11ee&#45;9e69&#45;ac1a3ddd05c7&#45;&gt;d426eae0&#45;d7cb&#45;11ee&#45;9e69&#45;ac1a3ddd05c7 -->
<g id="edge6" class="edge">
<title>d426e95a&#45;d7cb&#45;11ee&#45;9e69&#45;ac1a3ddd05c7&#45;&gt;d426eae0&#45;d7cb&#45;11ee&#45;9e69&#45;ac1a3ddd05c7</title>
<path fill="none" stroke="black" d="M401.22,-405.62C401.22,-398.67 401.22,-390.27 401.22,-381.6"/>
<polygon fill="black" stroke="black" points="404.72,-381.64 401.22,-371.64 397.72,-381.64 404.72,-381.64"/>
</g>
<!-- d426edd8&#45;d7cb&#45;11ee&#45;9e69&#45;ac1a3ddd05c7 -->
<g id="node9" class="node">
<title>d426edd8&#45;d7cb&#45;11ee&#45;9e69&#45;ac1a3ddd05c7</title>
<polygon fill="none" stroke="black" points="644.45,-326.82 606.84,-369.87 531.6,-369.87 493.98,-326.82 531.6,-283.77 606.84,-283.77 644.45,-326.82"/>
<text text-anchor="middle" x="569.22" y="-338.12" font-family="Times,serif" font-size="14.00">rp_17: level3 </text>
<text text-anchor="middle" x="569.22" y="-323.12" font-family="Times,serif" font-size="14.00"> send_offer </text>
<text text-anchor="middle" x="569.22" y="-308.12" font-family="Times,serif" font-size="14.00"> cost : 47</text>
</g>
<!-- d426ec48&#45;d7cb&#45;11ee&#45;9e69&#45;ac1a3ddd05c7&#45;&gt;d426edd8&#45;d7cb&#45;11ee&#45;9e69&#45;ac1a3ddd05c7 -->
<g id="edge8" class="edge">
<title>d426ec48&#45;d7cb&#45;11ee&#45;9e69&#45;ac1a3ddd05c7&#45;&gt;d426edd8&#45;d7cb&#45;11ee&#45;9e69&#45;ac1a3ddd05c7</title>
<path fill="none" stroke="black" d="M547.05,-406.06C549.07,-398.91 551.55,-390.16 554.11,-381.13"/>
<polygon fill="black" stroke="black" points="557.47,-382.11 556.83,-371.53 550.74,-380.2 557.47,-382.11"/>
</g>
<!-- d426ef36&#45;d7cb&#45;11ee&#45;9e69&#45;ac1a3ddd05c7 -->
<g id="node10" class="node">
<title>d426ef36&#45;d7cb&#45;11ee&#45;9e69&#45;ac1a3ddd05c7</title>
<polygon fill="none" stroke="black" points="640.22,-247.55 498.22,-247.55 498.22,-194.55 640.22,-194.55 640.22,-247.55"/>
<text text-anchor="middle" x="569.22" y="-232.35" font-family="Times,serif" font-size="14.00">r0: head_confirmation </text>
<text text-anchor="middle" x="569.22" y="-217.35" font-family="Times,serif" font-size="14.00"> Type: insert </text>
<text text-anchor="middle" x="569.22" y="-202.35" font-family="Times,serif" font-size="14.00"> Direction: after</text>
</g>
<!-- d426edd8&#45;d7cb&#45;11ee&#45;9e69&#45;ac1a3ddd05c7&#45;&gt;d426ef36&#45;d7cb&#45;11ee&#45;9e69&#45;ac1a3ddd05c7 -->
<g id="edge9" class="edge">
<title>d426edd8&#45;d7cb&#45;11ee&#45;9e69&#45;ac1a3ddd05c7&#45;&gt;d426ef36&#45;d7cb&#45;11ee&#45;9e69&#45;ac1a3ddd05c7</title>
<path fill="none" stroke="black" d="M569.22,-283.31C569.22,-275.36 569.22,-267.1 569.22,-259.32"/>
<polygon fill="black" stroke="black" points="572.72,-259.49 569.22,-249.49 565.72,-259.49 572.72,-259.49"/>
</g>
<!-- d426f35a&#45;d7cb&#45;11ee&#45;9e69&#45;ac1a3ddd05c7 -->
<g id="node12" class="node">
<title>d426f35a&#45;d7cb&#45;11ee&#45;9e69&#45;ac1a3ddd05c7</title>
<polygon fill="none" stroke="black" points="812.45,-326.82 774.84,-369.87 699.6,-369.87 661.98,-326.82 699.6,-283.77 774.84,-283.77 812.45,-326.82"/>
<text text-anchor="middle" x="737.22" y="-338.12" font-family="Times,serif" font-size="14.00">rp_17: level3 </text>
<text text-anchor="middle" x="737.22" y="-323.12" font-family="Times,serif" font-size="14.00"> send_offer </text>
<text text-anchor="middle" x="737.22" y="-308.12" font-family="Times,serif" font-size="14.00"> cost : 56</text>
</g>
<!-- d426f166&#45;d7cb&#45;11ee&#45;9e69&#45;ac1a3ddd05c7&#45;&gt;d426f35a&#45;d7cb&#45;11ee&#45;9e69&#45;ac1a3ddd05c7 -->
<g id="edge11" class="edge">
<title>d426f166&#45;d7cb&#45;11ee&#45;9e69&#45;ac1a3ddd05c7&#45;&gt;d426f35a&#45;d7cb&#45;11ee&#45;9e69&#45;ac1a3ddd05c7</title>
<path fill="none" stroke="black" d="M704.37,-406.06C707.44,-398.75 711.21,-389.77 715.09,-380.54"/>
<polygon fill="black" stroke="black" points="718.25,-382.05 718.89,-371.47 711.8,-379.34 718.25,-382.05"/>
</g>
<!-- d426f4c2&#45;d7cb&#45;11ee&#45;9e69&#45;ac1a3ddd05c7 -->
<g id="node13" class="node">
<title>d426f4c2&#45;d7cb&#45;11ee&#45;9e69&#45;ac1a3ddd05c7</title>
<polygon fill="none" stroke="black" points="810.72,-247.55 663.72,-247.55 663.72,-194.55 810.72,-194.55 810.72,-247.55"/>
<text text-anchor="middle" x="737.22" y="-232.35" font-family="Times,serif" font-size="14.00">r0: four_eyes_principle </text>
<text text-anchor="middle" x="737.22" y="-217.35" font-family="Times,serif" font-size="14.00"> Type: insert </text>
<text text-anchor="middle" x="737.22" y="-202.35" font-family="Times,serif" font-size="14.00"> Direction: after</text>
</g>
<!-- d426f35a&#45;d7cb&#45;11ee&#45;9e69&#45;ac1a3ddd05c7&#45;&gt;d426f4c2&#45;d7cb&#45;11ee&#45;9e69&#45;ac1a3ddd05c7 -->
<g id="edge12" class="edge">
<title>d426f35a&#45;d7cb&#45;11ee&#45;9e69&#45;ac1a3ddd05c7&#45;&gt;d426f4c2&#45;d7cb&#45;11ee&#45;9e69&#45;ac1a3ddd05c7</title>
<path fill="none" stroke="black" d="M737.22,-283.31C737.22,-275.36 737.22,-267.1 737.22,-259.32"/>
<polygon fill="black" stroke="black" points="740.72,-259.49 737.22,-249.49 733.72,-259.49 740.72,-259.49"/>
</g>
<!-- d426f74c&#45;d7cb&#45;11ee&#45;9e69&#45;ac1a3ddd05c7 -->
<g id="node14" class="node">
<title>d426f74c&#45;d7cb&#45;11ee&#45;9e69&#45;ac1a3ddd05c7</title>
<ellipse fill="none" stroke="black" cx="563.22" cy="-140.55" rx="48.99" ry="18"/>
<text text-anchor="middle" x="563.22" y="-136.85" font-family="Times,serif" font-size="14.00">r_4: level2</text>
</g>
<!-- d426f4c2&#45;d7cb&#45;11ee&#45;9e69&#45;ac1a3ddd05c7&#45;&gt;d426f74c&#45;d7cb&#45;11ee&#45;9e69&#45;ac1a3ddd05c7 -->
<g id="edge13" class="edge">
<title>d426f4c2&#45;d7cb&#45;11ee&#45;9e69&#45;ac1a3ddd05c7&#45;&gt;d426f74c&#45;d7cb&#45;11ee&#45;9e69&#45;ac1a3ddd05c7</title>
<path fill="none" stroke="black" d="M679.76,-194.13C654.81,-182.87 626.18,-169.95 603.54,-159.74"/>
<polygon fill="black" stroke="black" points="605.2,-156.65 594.65,-155.73 602.33,-163.03 605.2,-156.65"/>
</g>
<!-- d426fab2&#45;d7cb&#45;11ee&#45;9e69&#45;ac1a3ddd05c7 -->
<g id="node16" class="node">
<title>d426fab2&#45;d7cb&#45;11ee&#45;9e69&#45;ac1a3ddd05c7</title>
<ellipse fill="none" stroke="black" cx="737.22" cy="-140.55" rx="48.99" ry="18"/>
<text text-anchor="middle" x="737.22" y="-136.85" font-family="Times,serif" font-size="14.00">r_3: level3</text>
</g>
<!-- d426f4c2&#45;d7cb&#45;11ee&#45;9e69&#45;ac1a3ddd05c7&#45;&gt;d426fab2&#45;d7cb&#45;11ee&#45;9e69&#45;ac1a3ddd05c7 -->
<g id="edge15" class="edge">
<title>d426f4c2&#45;d7cb&#45;11ee&#45;9e69&#45;ac1a3ddd05c7&#45;&gt;d426fab2&#45;d7cb&#45;11ee&#45;9e69&#45;ac1a3ddd05c7</title>
<path fill="none" stroke="black" d="M737.22,-194.34C737.22,-186.62 737.22,-178.11 737.22,-170.21"/>
<polygon fill="black" stroke="black" points="740.72,-170.39 737.22,-160.39 733.72,-170.39 740.72,-170.39"/>
</g>
<!-- d426ff62&#45;d7cb&#45;11ee&#45;9e69&#45;ac1a3ddd05c7 -->
<g id="node18" class="node">
<title>d426ff62&#45;d7cb&#45;11ee&#45;9e69&#45;ac1a3ddd05c7</title>
<ellipse fill="none" stroke="black" cx="911.22" cy="-140.55" rx="48.99" ry="18"/>
<text text-anchor="middle" x="911.22" y="-136.85" font-family="Times,serif" font-size="14.00">r_5: level3</text>
</g>
<!-- d426f4c2&#45;d7cb&#45;11ee&#45;9e69&#45;ac1a3ddd05c7&#45;&gt;d426ff62&#45;d7cb&#45;11ee&#45;9e69&#45;ac1a3ddd05c7 -->
<g id="edge17" class="edge">
<title>d426f4c2&#45;d7cb&#45;11ee&#45;9e69&#45;ac1a3ddd05c7&#45;&gt;d426ff62&#45;d7cb&#45;11ee&#45;9e69&#45;ac1a3ddd05c7</title>
<path fill="none" stroke="black" d="M794.68,-194.13C819.63,-182.87 848.26,-169.95 870.9,-159.74"/>
<polygon fill="black" stroke="black" points="872.11,-163.03 879.79,-155.73 869.23,-156.65 872.11,-163.03"/>
</g>
<!-- d426f8e6&#45;d7cb&#45;11ee&#45;9e69&#45;ac1a3ddd05c7 -->
<g id="node15" class="node">
<title>d426f8e6&#45;d7cb&#45;11ee&#45;9e69&#45;ac1a3ddd05c7</title>
<polygon fill="none" stroke="black" points="610.77,-43.27 557,-86.32 449.44,-86.32 395.66,-43.27 449.44,-0.22 557,-0.22 610.77,-43.27"/>
<text text-anchor="middle" x="503.22" y="-54.57" font-family="Times,serif" font-size="14.00">rp_24: level3 </text>
<text text-anchor="middle" x="503.22" y="-39.57" font-family="Times,serif" font-size="14.00"> four_eyes_principle </text>
<text text-anchor="middle" x="503.22" y="-24.57" font-family="Times,serif" font-size="14.00"> cost : 63</text>
</g>
<!-- d426f74c&#45;d7cb&#45;11ee&#45;9e69&#45;ac1a3ddd05c7&#45;&gt;d426f8e6&#45;d7cb&#45;11ee&#45;9e69&#45;ac1a3ddd05c7 -->
<g id="edge14" class="edge">
<title>d426f74c&#45;d7cb&#45;11ee&#45;9e69&#45;ac1a3ddd05c7&#45;&gt;d426f8e6&#45;d7cb&#45;11ee&#45;9e69&#45;ac1a3ddd05c7</title>
<path fill="none" stroke="black" d="M552.49,-122.52C547.74,-114.97 541.87,-105.64 535.85,-96.09"/>
<polygon fill="black" stroke="black" points="538.92,-94.4 530.63,-87.81 533,-98.13 538.92,-94.4"/>
</g>
<!-- d426fcec&#45;d7cb&#45;11ee&#45;9e69&#45;ac1a3ddd05c7 -->
<g id="node17" class="node">
<title>d426fcec&#45;d7cb&#45;11ee&#45;9e69&#45;ac1a3ddd05c7</title>
<polygon fill="none" stroke="black" points="844.77,-43.27 791,-86.32 683.44,-86.32 629.66,-43.27 683.44,-0.22 791,-0.22 844.77,-43.27"/>
<text text-anchor="middle" x="737.22" y="-54.57" font-family="Times,serif" font-size="14.00">rp_24: level3 </text>
<text text-anchor="middle" x="737.22" y="-39.57" font-family="Times,serif" font-size="14.00"> four_eyes_principle </text>
<text text-anchor="middle" x="737.22" y="-24.57" font-family="Times,serif" font-size="14.00"> cost : 53</text>
</g>
<!-- d426fab2&#45;d7cb&#45;11ee&#45;9e69&#45;ac1a3ddd05c7&#45;&gt;d426fcec&#45;d7cb&#45;11ee&#45;9e69&#45;ac1a3ddd05c7 -->
<g id="edge16" class="edge">
<title>d426fab2&#45;d7cb&#45;11ee&#45;9e69&#45;ac1a3ddd05c7&#45;&gt;d426fcec&#45;d7cb&#45;11ee&#45;9e69&#45;ac1a3ddd05c7</title>
<path fill="none" stroke="black" d="M737.22,-122.07C737.22,-115.13 737.22,-106.72 737.22,-98.05"/>
<polygon fill="black" stroke="black" points="740.72,-98.09 737.22,-88.09 733.72,-98.09 740.72,-98.09"/>
</g>
<!-- d42701d8&#45;d7cb&#45;11ee&#45;9e69&#45;ac1a3ddd05c7 -->
<g id="node19" class="node">
<title>d42701d8&#45;d7cb&#45;11ee&#45;9e69&#45;ac1a3ddd05c7</title>
<polygon fill="none" stroke="black" points="1078.77,-43.27 1025,-86.32 917.44,-86.32 863.66,-43.27 917.44,-0.22 1025,-0.22 1078.77,-43.27"/>
<text text-anchor="middle" x="971.22" y="-54.57" font-family="Times,serif" font-size="14.00">rp_24: level3 </text>
<text text-anchor="middle" x="971.22" y="-39.57" font-family="Times,serif" font-size="14.00"> four_eyes_principle </text>
<text text-anchor="middle" x="971.22" y="-24.57" font-family="Times,serif" font-size="14.00"> cost : 19</text>
</g>
<!-- d426ff62&#45;d7cb&#45;11ee&#45;9e69&#45;ac1a3ddd05c7&#45;&gt;d42701d8&#45;d7cb&#45;11ee&#45;9e69&#45;ac1a3ddd05c7 -->
<g id="edge18" class="edge">
<title>d426ff62&#45;d7cb&#45;11ee&#45;9e69&#45;ac1a3ddd05c7&#45;&gt;d42701d8&#45;d7cb&#45;11ee&#45;9e69&#45;ac1a3ddd05c7</title>
<path fill="none" stroke="black" d="M921.95,-122.52C926.7,-114.97 932.57,-105.64 938.58,-96.09"/>
<polygon fill="black" stroke="black" points="941.44,-98.13 943.8,-87.81 935.51,-94.4 941.44,-98.13"/>
</g>
</g>
</svg>
