<?xml version="1.0" encoding="UTF-8" standalone="no"?>
<!DOCTYPE svg PUBLIC "-//W3C//DTD SVG 1.1//EN"
 "http://www.w3.org/Graphics/SVG/1.1/DTD/svg11.dtd">
<!-- Generated by graphviz version 8.1.0 (20230707.0739)
 -->
<!-- Title: CallTree Pages: 1 -->
<svg width="1107pt" height="858pt"
 viewBox="0.00 0.00 1107.37 858.19" xmlns="http://www.w3.org/2000/svg" xmlns:xlink="http://www.w3.org/1999/xlink">
<g id="graph0" class="graph" transform="scale(1 1) rotate(0) translate(4 854.19)">
<title>CallTree</title>
<polygon fill="white" stroke="none" points="-4,4 -4,-854.19 1103.37,-854.19 1103.37,4 -4,4"/>
<!-- 03417100&#45;d741&#45;11ee&#45;8d3f&#45;04cf4b795879 -->
<g id="node1" class="node">
<title>03417100&#45;d741&#45;11ee&#45;8d3f&#45;04cf4b795879</title>
<polygon fill="none" stroke="black" points="658.62,-850.19 524.12,-850.19 524.12,-792.69 658.62,-792.69 658.62,-850.19"/>
<text text-anchor="middle" x="591.37" y="-832.89" font-family="Times,serif" font-size="14.00">a8: contact_suppliers </text>
<text text-anchor="middle" x="591.37" y="-816.39" font-family="Times,serif" font-size="14.00"> Type: Core </text>
<text text-anchor="middle" x="591.37" y="-799.89" font-family="Times,serif" font-size="14.00"> Direction: Core</text>
</g>
<!-- 034178b2&#45;d741&#45;11ee&#45;8d3f&#45;04cf4b795879 -->
<g id="node2" class="node">
<title>034178b2&#45;d741&#45;11ee&#45;8d3f&#45;04cf4b795879</title>
<ellipse fill="none" stroke="black" cx="531.37" cy="-738.69" rx="50.84" ry="18"/>
<text text-anchor="middle" x="531.37" y="-733.64" font-family="Times,serif" font-size="14.00">r_3: level3</text>
</g>
<!-- 03417100&#45;d741&#45;11ee&#45;8d3f&#45;04cf4b795879&#45;&gt;034178b2&#45;d741&#45;11ee&#45;8d3f&#45;04cf4b795879 -->
<g id="edge1" class="edge">
<title>03417100&#45;d741&#45;11ee&#45;8d3f&#45;04cf4b795879&#45;&gt;034178b2&#45;d741&#45;11ee&#45;8d3f&#45;04cf4b795879</title>
<path fill="none" stroke="black" d="M570.38,-792.2C563.76,-783.29 556.5,-773.51 550.05,-764.83"/>
<polygon fill="black" stroke="black" points="552.46,-763.2 543.68,-757.26 546.84,-767.38 552.46,-763.2"/>
</g>
<!-- 03417be6&#45;d741&#45;11ee&#45;8d3f&#45;04cf4b795879 -->
<g id="node4" class="node">
<title>03417be6&#45;d741&#45;11ee&#45;8d3f&#45;04cf4b795879</title>
<ellipse fill="none" stroke="black" cx="674.37" cy="-738.69" rx="50.84" ry="18"/>
<text text-anchor="middle" x="674.37" y="-733.64" font-family="Times,serif" font-size="14.00">r_5: level3</text>
</g>
<!-- 03417100&#45;d741&#45;11ee&#45;8d3f&#45;04cf4b795879&#45;&gt;03417be6&#45;d741&#45;11ee&#45;8d3f&#45;04cf4b795879 -->
<g id="edge3" class="edge">
<title>03417100&#45;d741&#45;11ee&#45;8d3f&#45;04cf4b795879&#45;&gt;03417be6&#45;d741&#45;11ee&#45;8d3f&#45;04cf4b795879</title>
<path fill="none" stroke="black" d="M620.4,-792.2C630.09,-782.77 640.78,-772.37 650.07,-763.33"/>
<polygon fill="black" stroke="black" points="652.09,-766.28 656.82,-756.8 647.21,-761.26 652.09,-766.28"/>
</g>
<!-- 03417a7e&#45;d741&#45;11ee&#45;8d3f&#45;04cf4b795879 -->
<g id="node3" class="node">
<title>03417a7e&#45;d741&#45;11ee&#45;8d3f&#45;04cf4b795879</title>
<polygon fill="none" stroke="black" points="582.72,-637.74 534.54,-684.69 438.2,-684.69 390.02,-637.74 438.2,-590.79 534.54,-590.79 582.72,-637.74"/>
<text text-anchor="middle" x="486.37" y="-649.19" font-family="Times,serif" font-size="14.00">rp_16: level3 </text>
<text text-anchor="middle" x="486.37" y="-632.69" font-family="Times,serif" font-size="14.00"> contact_suppliers </text>
<text text-anchor="middle" x="486.37" y="-616.19" font-family="Times,serif" font-size="14.00"> cost : 85</text>
</g>
<!-- 034178b2&#45;d741&#45;11ee&#45;8d3f&#45;04cf4b795879&#45;&gt;03417a7e&#45;d741&#45;11ee&#45;8d3f&#45;04cf4b795879 -->
<g id="edge2" class="edge">
<title>034178b2&#45;d741&#45;11ee&#45;8d3f&#45;04cf4b795879&#45;&gt;03417a7e&#45;d741&#45;11ee&#45;8d3f&#45;04cf4b795879</title>
<path fill="none" stroke="black" d="M523.53,-720.46C520.2,-713.14 516.12,-704.16 511.89,-694.86"/>
<polygon fill="black" stroke="black" points="514.78,-693.77 507.46,-686.11 508.41,-696.66 514.78,-693.77"/>
</g>
<!-- 03417d6c&#45;d741&#45;11ee&#45;8d3f&#45;04cf4b795879 -->
<g id="node5" class="node">
<title>03417d6c&#45;d741&#45;11ee&#45;8d3f&#45;04cf4b795879</title>
<polygon fill="none" stroke="black" points="793.72,-637.74 745.54,-684.69 649.2,-684.69 601.02,-637.74 649.2,-590.79 745.54,-590.79 793.72,-637.74"/>
<text text-anchor="middle" x="697.37" y="-649.19" font-family="Times,serif" font-size="14.00">rp_16: level3 </text>
<text text-anchor="middle" x="697.37" y="-632.69" font-family="Times,serif" font-size="14.00"> contact_suppliers </text>
<text text-anchor="middle" x="697.37" y="-616.19" font-family="Times,serif" font-size="14.00"> cost : 16</text>
</g>
<!-- 03417be6&#45;d741&#45;11ee&#45;8d3f&#45;04cf4b795879&#45;&gt;03417d6c&#45;d741&#45;11ee&#45;8d3f&#45;04cf4b795879 -->
<g id="edge4" class="edge">
<title>03417be6&#45;d741&#45;11ee&#45;8d3f&#45;04cf4b795879&#45;&gt;03417d6c&#45;d741&#45;11ee&#45;8d3f&#45;04cf4b795879</title>
<path fill="none" stroke="black" d="M678.38,-720.46C680.02,-713.37 682.03,-704.73 684.12,-695.74"/>
<polygon fill="black" stroke="black" points="687.74,-696.64 686.59,-686.11 680.92,-695.06 687.74,-696.64"/>
</g>
<!-- 03417ea2&#45;d741&#45;11ee&#45;8d3f&#45;04cf4b795879 -->
<g id="node6" class="node">
<title>03417ea2&#45;d741&#45;11ee&#45;8d3f&#45;04cf4b795879</title>
<polygon fill="none" stroke="black" points="759.37,-554.79 635.37,-554.79 635.37,-497.29 759.37,-497.29 759.37,-554.79"/>
<text text-anchor="middle" x="697.37" y="-537.49" font-family="Times,serif" font-size="14.00">r0: create_proposal </text>
<text text-anchor="middle" x="697.37" y="-520.99" font-family="Times,serif" font-size="14.00"> Type: insert </text>
<text text-anchor="middle" x="697.37" y="-504.49" font-family="Times,serif" font-size="14.00"> Direction: after</text>
</g>
<!-- 03417d6c&#45;d741&#45;11ee&#45;8d3f&#45;04cf4b795879&#45;&gt;03417ea2&#45;d741&#45;11ee&#45;8d3f&#45;04cf4b795879 -->
<g id="edge5" class="edge">
<title>03417d6c&#45;d741&#45;11ee&#45;8d3f&#45;04cf4b795879&#45;&gt;03417ea2&#45;d741&#45;11ee&#45;8d3f&#45;04cf4b795879</title>
<path fill="none" stroke="black" d="M697.37,-590.54C697.37,-582.34 697.37,-573.88 697.37,-565.91"/>
<polygon fill="black" stroke="black" points="700.87,-566.05 697.37,-556.05 693.87,-566.05 700.87,-566.05"/>
</g>
<!-- 03418208&#45;d741&#45;11ee&#45;8d3f&#45;04cf4b795879 -->
<g id="node7" class="node">
<title>03418208&#45;d741&#45;11ee&#45;8d3f&#45;04cf4b795879</title>
<ellipse fill="none" stroke="black" cx="479.37" cy="-443.29" rx="50.84" ry="18"/>
<text text-anchor="middle" x="479.37" y="-438.24" font-family="Times,serif" font-size="14.00">r_2: level2</text>
</g>
<!-- 03417ea2&#45;d741&#45;11ee&#45;8d3f&#45;04cf4b795879&#45;&gt;03418208&#45;d741&#45;11ee&#45;8d3f&#45;04cf4b795879 -->
<g id="edge6" class="edge">
<title>03417ea2&#45;d741&#45;11ee&#45;8d3f&#45;04cf4b795879&#45;&gt;03418208&#45;d741&#45;11ee&#45;8d3f&#45;04cf4b795879</title>
<path fill="none" stroke="black" d="M634.9,-501.9C599.36,-488.74 555.71,-472.57 523.7,-460.72"/>
<polygon fill="black" stroke="black" points="525.34,-457.22 514.74,-457.03 522.91,-463.78 525.34,-457.22"/>
</g>
<!-- 03419072&#45;d741&#45;11ee&#45;8d3f&#45;04cf4b795879 -->
<g id="node17" class="node">
<title>03419072&#45;d741&#45;11ee&#45;8d3f&#45;04cf4b795879</title>
<ellipse fill="none" stroke="black" cx="637.37" cy="-443.29" rx="50.84" ry="18"/>
<text text-anchor="middle" x="637.37" y="-438.24" font-family="Times,serif" font-size="14.00">r_4: level2</text>
</g>
<!-- 03417ea2&#45;d741&#45;11ee&#45;8d3f&#45;04cf4b795879&#45;&gt;03419072&#45;d741&#45;11ee&#45;8d3f&#45;04cf4b795879 -->
<g id="edge16" class="edge">
<title>03417ea2&#45;d741&#45;11ee&#45;8d3f&#45;04cf4b795879&#45;&gt;03419072&#45;d741&#45;11ee&#45;8d3f&#45;04cf4b795879</title>
<path fill="none" stroke="black" d="M676.38,-496.8C669.76,-487.89 662.5,-478.11 656.05,-469.43"/>
<polygon fill="black" stroke="black" points="658.46,-467.81 649.68,-461.87 652.84,-471.98 658.46,-467.81"/>
</g>
<!-- 03419324&#45;d741&#45;11ee&#45;8d3f&#45;04cf4b795879 -->
<g id="node19" class="node">
<title>03419324&#45;d741&#45;11ee&#45;8d3f&#45;04cf4b795879</title>
<ellipse fill="none" stroke="black" cx="795.37" cy="-443.29" rx="50.84" ry="18"/>
<text text-anchor="middle" x="795.37" y="-438.24" font-family="Times,serif" font-size="14.00">r_3: level3</text>
</g>
<!-- 03417ea2&#45;d741&#45;11ee&#45;8d3f&#45;04cf4b795879&#45;&gt;03419324&#45;d741&#45;11ee&#45;8d3f&#45;04cf4b795879 -->
<g id="edge18" class="edge">
<title>03417ea2&#45;d741&#45;11ee&#45;8d3f&#45;04cf4b795879&#45;&gt;03419324&#45;d741&#45;11ee&#45;8d3f&#45;04cf4b795879</title>
<path fill="none" stroke="black" d="M731.64,-496.8C743.32,-487.18 756.22,-476.55 767.34,-467.39"/>
<polygon fill="black" stroke="black" points="769.33,-469.46 774.82,-460.4 764.88,-464.06 769.33,-469.46"/>
</g>
<!-- 034195d6&#45;d741&#45;11ee&#45;8d3f&#45;04cf4b795879 -->
<g id="node21" class="node">
<title>034195d6&#45;d741&#45;11ee&#45;8d3f&#45;04cf4b795879</title>
<ellipse fill="none" stroke="black" cx="972.37" cy="-443.29" rx="50.84" ry="18"/>
<text text-anchor="middle" x="972.37" y="-438.24" font-family="Times,serif" font-size="14.00">r_5: level3</text>
</g>
<!-- 03417ea2&#45;d741&#45;11ee&#45;8d3f&#45;04cf4b795879&#45;&gt;034195d6&#45;d741&#45;11ee&#45;8d3f&#45;04cf4b795879 -->
<g id="edge20" class="edge">
<title>03417ea2&#45;d741&#45;11ee&#45;8d3f&#45;04cf4b795879&#45;&gt;034195d6&#45;d741&#45;11ee&#45;8d3f&#45;04cf4b795879</title>
<path fill="none" stroke="black" d="M759.77,-506.72C809.51,-492.12 878.15,-471.96 923.83,-458.55"/>
<polygon fill="black" stroke="black" points="924.75,-461.63 933.36,-455.46 922.77,-454.92 924.75,-461.63"/>
</g>
<!-- 03418398&#45;d741&#45;11ee&#45;8d3f&#45;04cf4b795879 -->
<g id="node8" class="node">
<title>03418398&#45;d741&#45;11ee&#45;8d3f&#45;04cf4b795879</title>
<polygon fill="none" stroke="black" points="511.37,-342.35 466.87,-389.29 377.87,-389.29 333.37,-342.35 377.87,-295.4 466.87,-295.4 511.37,-342.35"/>
<text text-anchor="middle" x="422.37" y="-353.8" font-family="Times,serif" font-size="14.00">rp_15: level3 </text>
<text text-anchor="middle" x="422.37" y="-337.3" font-family="Times,serif" font-size="14.00"> create_proposal </text>
<text text-anchor="middle" x="422.37" y="-320.8" font-family="Times,serif" font-size="14.00"> cost : 100</text>
</g>
<!-- 03418208&#45;d741&#45;11ee&#45;8d3f&#45;04cf4b795879&#45;&gt;03418398&#45;d741&#45;11ee&#45;8d3f&#45;04cf4b795879 -->
<g id="edge7" class="edge">
<title>03418208&#45;d741&#45;11ee&#45;8d3f&#45;04cf4b795879&#45;&gt;03418398&#45;d741&#45;11ee&#45;8d3f&#45;04cf4b795879</title>
<path fill="none" stroke="black" d="M469.7,-425.51C465.37,-417.99 459.98,-408.64 454.42,-398.98"/>
<polygon fill="black" stroke="black" points="457.08,-397.58 449.05,-390.66 451.01,-401.08 457.08,-397.58"/>
</g>
<!-- 034184d8&#45;d741&#45;11ee&#45;8d3f&#45;04cf4b795879 -->
<g id="node9" class="node">
<title>034184d8&#45;d741&#45;11ee&#45;8d3f&#45;04cf4b795879</title>
<polygon fill="none" stroke="black" points="413.62,-259.4 267.12,-259.4 267.12,-201.9 413.62,-201.9 413.62,-259.4"/>
<text text-anchor="middle" x="340.37" y="-242.1" font-family="Times,serif" font-size="14.00">r0: four_eyes_principle </text>
<text text-anchor="middle" x="340.37" y="-225.6" font-family="Times,serif" font-size="14.00"> Type: insert </text>
<text text-anchor="middle" x="340.37" y="-209.1" font-family="Times,serif" font-size="14.00"> Direction: before</text>
</g>
<!-- 03418398&#45;d741&#45;11ee&#45;8d3f&#45;04cf4b795879&#45;&gt;034184d8&#45;d741&#45;11ee&#45;8d3f&#45;04cf4b795879 -->
<g id="edge8" class="edge">
<title>03418398&#45;d741&#45;11ee&#45;8d3f&#45;04cf4b795879&#45;&gt;034184d8&#45;d741&#45;11ee&#45;8d3f&#45;04cf4b795879</title>
<path fill="none" stroke="black" d="M387.83,-295.14C381.14,-286.19 374.21,-276.92 367.79,-268.33"/>
<polygon fill="black" stroke="black" points="370.09,-266.57 361.3,-260.65 364.49,-270.76 370.09,-266.57"/>
</g>
<!-- 03418ef6&#45;d741&#45;11ee&#45;8d3f&#45;04cf4b795879 -->
<g id="node16" class="node">
<title>03418ef6&#45;d741&#45;11ee&#45;8d3f&#45;04cf4b795879</title>
<polygon fill="none" stroke="black" points="578.99,-259.4 431.74,-259.4 431.74,-201.9 578.99,-201.9 578.99,-259.4"/>
<text text-anchor="middle" x="505.37" y="-242.1" font-family="Times,serif" font-size="14.00">r0: decide_on_proposal </text>
<text text-anchor="middle" x="505.37" y="-225.6" font-family="Times,serif" font-size="14.00"> Type: delete </text>
<text text-anchor="middle" x="505.37" y="-209.1" font-family="Times,serif" font-size="14.00"> Direction: any</text>
</g>
<!-- 03418398&#45;d741&#45;11ee&#45;8d3f&#45;04cf4b795879&#45;&gt;03418ef6&#45;d741&#45;11ee&#45;8d3f&#45;04cf4b795879 -->
<g id="edge15" class="edge">
<title>03418398&#45;d741&#45;11ee&#45;8d3f&#45;04cf4b795879&#45;&gt;03418ef6&#45;d741&#45;11ee&#45;8d3f&#45;04cf4b795879</title>
<path fill="none" stroke="black" d="M457.33,-295.14C464.1,-286.19 471.11,-276.92 477.62,-268.33"/>
<polygon fill="black" stroke="black" points="480.94,-270.74 484.18,-260.65 475.36,-266.51 480.94,-270.74"/>
</g>
<!-- 034186ea&#45;d741&#45;11ee&#45;8d3f&#45;04cf4b795879 -->
<g id="node10" class="node">
<title>034186ea&#45;d741&#45;11ee&#45;8d3f&#45;04cf4b795879</title>
<ellipse fill="none" stroke="black" cx="164.37" cy="-147.9" rx="50.84" ry="18"/>
<text text-anchor="middle" x="164.37" y="-142.85" font-family="Times,serif" font-size="14.00">r_4: level2</text>
</g>
<!-- 034184d8&#45;d741&#45;11ee&#45;8d3f&#45;04cf4b795879&#45;&gt;034186ea&#45;d741&#45;11ee&#45;8d3f&#45;04cf4b795879 -->
<g id="edge9" class="edge">
<title>034184d8&#45;d741&#45;11ee&#45;8d3f&#45;04cf4b795879&#45;&gt;034186ea&#45;d741&#45;11ee&#45;8d3f&#45;04cf4b795879</title>
<path fill="none" stroke="black" d="M278.81,-201.4C254.17,-190.1 226.47,-177.39 204.5,-167.31"/>
<polygon fill="black" stroke="black" points="206.07,-163.72 195.52,-162.73 203.15,-170.08 206.07,-163.72"/>
</g>
<!-- 034189b0&#45;d741&#45;11ee&#45;8d3f&#45;04cf4b795879 -->
<g id="node12" class="node">
<title>034189b0&#45;d741&#45;11ee&#45;8d3f&#45;04cf4b795879</title>
<ellipse fill="none" stroke="black" cx="340.37" cy="-147.9" rx="50.84" ry="18"/>
<text text-anchor="middle" x="340.37" y="-142.85" font-family="Times,serif" font-size="14.00">r_3: level3</text>
</g>
<!-- 034184d8&#45;d741&#45;11ee&#45;8d3f&#45;04cf4b795879&#45;&gt;034189b0&#45;d741&#45;11ee&#45;8d3f&#45;04cf4b795879 -->
<g id="edge11" class="edge">
<title>034184d8&#45;d741&#45;11ee&#45;8d3f&#45;04cf4b795879&#45;&gt;034189b0&#45;d741&#45;11ee&#45;8d3f&#45;04cf4b795879</title>
<path fill="none" stroke="black" d="M340.37,-201.4C340.37,-193.46 340.37,-184.82 340.37,-176.89"/>
<polygon fill="black" stroke="black" points="343.87,-176.94 340.37,-166.94 336.87,-176.94 343.87,-176.94"/>
</g>
<!-- 03418c58&#45;d741&#45;11ee&#45;8d3f&#45;04cf4b795879 -->
<g id="node14" class="node">
<title>03418c58&#45;d741&#45;11ee&#45;8d3f&#45;04cf4b795879</title>
<ellipse fill="none" stroke="black" cx="516.37" cy="-147.9" rx="50.84" ry="18"/>
<text text-anchor="middle" x="516.37" y="-142.85" font-family="Times,serif" font-size="14.00">r_5: level3</text>
</g>
<!-- 034184d8&#45;d741&#45;11ee&#45;8d3f&#45;04cf4b795879&#45;&gt;03418c58&#45;d741&#45;11ee&#45;8d3f&#45;04cf4b795879 -->
<g id="edge13" class="edge">
<title>034184d8&#45;d741&#45;11ee&#45;8d3f&#45;04cf4b795879&#45;&gt;03418c58&#45;d741&#45;11ee&#45;8d3f&#45;04cf4b795879</title>
<path fill="none" stroke="black" d="M401.93,-201.4C426.57,-190.1 454.27,-177.39 476.24,-167.31"/>
<polygon fill="black" stroke="black" points="477.58,-170.08 485.21,-162.73 474.67,-163.72 477.58,-170.08"/>
</g>
<!-- 0341887a&#45;d741&#45;11ee&#45;8d3f&#45;04cf4b795879 -->
<g id="node11" class="node">
<title>0341887a&#45;d741&#45;11ee&#45;8d3f&#45;04cf4b795879</title>
<polygon fill="none" stroke="black" points="214.74,-46.95 161.05,-93.9 53.68,-93.9 0,-46.95 53.68,0 161.05,0 214.74,-46.95"/>
<text text-anchor="middle" x="107.37" y="-58.4" font-family="Times,serif" font-size="14.00">rp_24: level3 </text>
<text text-anchor="middle" x="107.37" y="-41.9" font-family="Times,serif" font-size="14.00"> four_eyes_principle </text>
<text text-anchor="middle" x="107.37" y="-25.4" font-family="Times,serif" font-size="14.00"> cost : 63</text>
</g>
<!-- 034186ea&#45;d741&#45;11ee&#45;8d3f&#45;04cf4b795879&#45;&gt;0341887a&#45;d741&#45;11ee&#45;8d3f&#45;04cf4b795879 -->
<g id="edge10" class="edge">
<title>034186ea&#45;d741&#45;11ee&#45;8d3f&#45;04cf4b795879&#45;&gt;0341887a&#45;d741&#45;11ee&#45;8d3f&#45;04cf4b795879</title>
<path fill="none" stroke="black" d="M154.7,-130.11C150.37,-122.59 144.98,-113.25 139.42,-103.58"/>
<polygon fill="black" stroke="black" points="142.08,-102.19 134.05,-95.27 136.01,-105.68 142.08,-102.19"/>
</g>
<!-- 03418b22&#45;d741&#45;11ee&#45;8d3f&#45;04cf4b795879 -->
<g id="node13" class="node">
<title>03418b22&#45;d741&#45;11ee&#45;8d3f&#45;04cf4b795879</title>
<polygon fill="none" stroke="black" points="447.74,-46.95 394.05,-93.9 286.68,-93.9 233,-46.95 286.68,0 394.05,0 447.74,-46.95"/>
<text text-anchor="middle" x="340.37" y="-58.4" font-family="Times,serif" font-size="14.00">rp_24: level3 </text>
<text text-anchor="middle" x="340.37" y="-41.9" font-family="Times,serif" font-size="14.00"> four_eyes_principle </text>
<text text-anchor="middle" x="340.37" y="-25.4" font-family="Times,serif" font-size="14.00"> cost : 53</text>
</g>
<!-- 034189b0&#45;d741&#45;11ee&#45;8d3f&#45;04cf4b795879&#45;&gt;03418b22&#45;d741&#45;11ee&#45;8d3f&#45;04cf4b795879 -->
<g id="edge12" class="edge">
<title>034189b0&#45;d741&#45;11ee&#45;8d3f&#45;04cf4b795879&#45;&gt;03418b22&#45;d741&#45;11ee&#45;8d3f&#45;04cf4b795879</title>
<path fill="none" stroke="black" d="M340.37,-129.66C340.37,-122.65 340.37,-114.12 340.37,-105.24"/>
<polygon fill="black" stroke="black" points="343.87,-105.32 340.37,-95.32 336.87,-105.32 343.87,-105.32"/>
</g>
<!-- 03418dca&#45;d741&#45;11ee&#45;8d3f&#45;04cf4b795879 -->
<g id="node15" class="node">
<title>03418dca&#45;d741&#45;11ee&#45;8d3f&#45;04cf4b795879</title>
<polygon fill="none" stroke="black" points="680.74,-46.95 627.05,-93.9 519.68,-93.9 466,-46.95 519.68,0 627.05,0 680.74,-46.95"/>
<text text-anchor="middle" x="573.37" y="-58.4" font-family="Times,serif" font-size="14.00">rp_24: level3 </text>
<text text-anchor="middle" x="573.37" y="-41.9" font-family="Times,serif" font-size="14.00"> four_eyes_principle </text>
<text text-anchor="middle" x="573.37" y="-25.4" font-family="Times,serif" font-size="14.00"> cost : 19</text>
</g>
<!-- 03418c58&#45;d741&#45;11ee&#45;8d3f&#45;04cf4b795879&#45;&gt;03418dca&#45;d741&#45;11ee&#45;8d3f&#45;04cf4b795879 -->
<g id="edge14" class="edge">
<title>03418c58&#45;d741&#45;11ee&#45;8d3f&#45;04cf4b795879&#45;&gt;03418dca&#45;d741&#45;11ee&#45;8d3f&#45;04cf4b795879</title>
<path fill="none" stroke="black" d="M526.04,-130.11C530.37,-122.59 535.75,-113.25 541.32,-103.58"/>
<polygon fill="black" stroke="black" points="544.73,-105.68 546.69,-95.27 538.66,-102.19 544.73,-105.68"/>
</g>
<!-- 034191f8&#45;d741&#45;11ee&#45;8d3f&#45;04cf4b795879 -->
<g id="node18" class="node">
<title>034191f8&#45;d741&#45;11ee&#45;8d3f&#45;04cf4b795879</title>
<polygon fill="none" stroke="black" points="707.37,-342.35 662.87,-389.29 573.87,-389.29 529.37,-342.35 573.87,-295.4 662.87,-295.4 707.37,-342.35"/>
<text text-anchor="middle" x="618.37" y="-353.8" font-family="Times,serif" font-size="14.00">rp_15: level2 </text>
<text text-anchor="middle" x="618.37" y="-337.3" font-family="Times,serif" font-size="14.00"> create_proposal </text>
<text text-anchor="middle" x="618.37" y="-320.8" font-family="Times,serif" font-size="14.00"> cost : 15</text>
</g>
<!-- 03419072&#45;d741&#45;11ee&#45;8d3f&#45;04cf4b795879&#45;&gt;034191f8&#45;d741&#45;11ee&#45;8d3f&#45;04cf4b795879 -->
<g id="edge17" class="edge">
<title>03419072&#45;d741&#45;11ee&#45;8d3f&#45;04cf4b795879&#45;&gt;034191f8&#45;d741&#45;11ee&#45;8d3f&#45;04cf4b795879</title>
<path fill="none" stroke="black" d="M634.06,-425.06C632.7,-417.97 631.04,-409.33 629.31,-400.34"/>
<polygon fill="black" stroke="black" points="632.6,-399.88 627.27,-390.71 625.72,-401.2 632.6,-399.88"/>
</g>
<!-- 034194aa&#45;d741&#45;11ee&#45;8d3f&#45;04cf4b795879 -->
<g id="node20" class="node">
<title>034194aa&#45;d741&#45;11ee&#45;8d3f&#45;04cf4b795879</title>
<polygon fill="none" stroke="black" points="903.37,-342.35 858.87,-389.29 769.87,-389.29 725.37,-342.35 769.87,-295.4 858.87,-295.4 903.37,-342.35"/>
<text text-anchor="middle" x="814.37" y="-353.8" font-family="Times,serif" font-size="14.00">rp_15: level3 </text>
<text text-anchor="middle" x="814.37" y="-337.3" font-family="Times,serif" font-size="14.00"> create_proposal </text>
<text text-anchor="middle" x="814.37" y="-320.8" font-family="Times,serif" font-size="14.00"> cost : 26</text>
</g>
<!-- 03419324&#45;d741&#45;11ee&#45;8d3f&#45;04cf4b795879&#45;&gt;034194aa&#45;d741&#45;11ee&#45;8d3f&#45;04cf4b795879 -->
<g id="edge19" class="edge">
<title>03419324&#45;d741&#45;11ee&#45;8d3f&#45;04cf4b795879&#45;&gt;034194aa&#45;d741&#45;11ee&#45;8d3f&#45;04cf4b795879</title>
<path fill="none" stroke="black" d="M798.68,-425.06C800.04,-417.97 801.7,-409.33 803.42,-400.34"/>
<polygon fill="black" stroke="black" points="807.02,-401.2 805.47,-390.71 800.14,-399.88 807.02,-401.2"/>
</g>
<!-- 03419748&#45;d741&#45;11ee&#45;8d3f&#45;04cf4b795879 -->
<g id="node22" class="node">
<title>03419748&#45;d741&#45;11ee&#45;8d3f&#45;04cf4b795879</title>
<polygon fill="none" stroke="black" points="1099.37,-342.35 1054.87,-389.29 965.87,-389.29 921.37,-342.35 965.87,-295.4 1054.87,-295.4 1099.37,-342.35"/>
<text text-anchor="middle" x="1010.37" y="-353.8" font-family="Times,serif" font-size="14.00">rp_15: level3 </text>
<text text-anchor="middle" x="1010.37" y="-337.3" font-family="Times,serif" font-size="14.00"> create_proposal </text>
<text text-anchor="middle" x="1010.37" y="-320.8" font-family="Times,serif" font-size="14.00"> cost : 98</text>
</g>
<!-- 034195d6&#45;d741&#45;11ee&#45;8d3f&#45;04cf4b795879&#45;&gt;03419748&#45;d741&#45;11ee&#45;8d3f&#45;04cf4b795879 -->
<g id="edge21" class="edge">
<title>034195d6&#45;d741&#45;11ee&#45;8d3f&#45;04cf4b795879&#45;&gt;03419748&#45;d741&#45;11ee&#45;8d3f&#45;04cf4b795879</title>
<path fill="none" stroke="black" d="M978.99,-425.06C981.77,-417.82 985.17,-408.95 988.7,-399.76"/>
<polygon fill="black" stroke="black" points="992.24,-401.3 992.56,-390.71 985.71,-398.79 992.24,-401.3"/>
</g>
</g>
</svg>
