<?xml version="1.0" encoding="UTF-8" standalone="no"?>
<!DOCTYPE svg PUBLIC "-//W3C//DTD SVG 1.1//EN"
 "http://www.w3.org/Graphics/SVG/1.1/DTD/svg11.dtd">
<!-- Generated by graphviz version 7.1.0 (0)
 -->
<!-- Title: CallTree Pages: 1 -->
<svg width="1117pt" height="823pt"
 viewBox="0.00 0.00 1116.59 822.65" xmlns="http://www.w3.org/2000/svg" xmlns:xlink="http://www.w3.org/1999/xlink">
<g id="graph0" class="graph" transform="scale(1 1) rotate(0) translate(4 818.65)">
<title>CallTree</title>
<polygon fill="white" stroke="none" points="-4,4 -4,-818.65 1112.59,-818.65 1112.59,4 -4,4"/>
<!-- d423c25c&#45;d7cb&#45;11ee&#45;9e69&#45;ac1a3ddd05c7 -->
<g id="node1" class="node">
<title>d423c25c&#45;d7cb&#45;11ee&#45;9e69&#45;ac1a3ddd05c7</title>
<polygon fill="none" stroke="black" points="661.28,-814.65 526.28,-814.65 526.28,-761.65 661.28,-761.65 661.28,-814.65"/>
<text text-anchor="middle" x="593.78" y="-799.45" font-family="Times,serif" font-size="14.00">a8: contact_suppliers </text>
<text text-anchor="middle" x="593.78" y="-784.45" font-family="Times,serif" font-size="14.00"> Type: Core </text>
<text text-anchor="middle" x="593.78" y="-769.45" font-family="Times,serif" font-size="14.00"> Direction: Core</text>
</g>
<!-- d423cb9e&#45;d7cb&#45;11ee&#45;9e69&#45;ac1a3ddd05c7 -->
<g id="node2" class="node">
<title>d423cb9e&#45;d7cb&#45;11ee&#45;9e69&#45;ac1a3ddd05c7</title>
<ellipse fill="none" stroke="black" cx="536.78" cy="-707.65" rx="48.99" ry="18"/>
<text text-anchor="middle" x="536.78" y="-703.95" font-family="Times,serif" font-size="14.00">r_3: level3</text>
</g>
<!-- d423c25c&#45;d7cb&#45;11ee&#45;9e69&#45;ac1a3ddd05c7&#45;&gt;d423cb9e&#45;d7cb&#45;11ee&#45;9e69&#45;ac1a3ddd05c7 -->
<g id="edge1" class="edge">
<title>d423c25c&#45;d7cb&#45;11ee&#45;9e69&#45;ac1a3ddd05c7&#45;&gt;d423cb9e&#45;d7cb&#45;11ee&#45;9e69&#45;ac1a3ddd05c7</title>
<path fill="none" stroke="black" d="M575.11,-761.44C568.89,-752.87 561.94,-743.3 555.7,-734.7"/>
<polygon fill="black" stroke="black" points="558.61,-732.76 549.9,-726.72 552.95,-736.87 558.61,-732.76"/>
</g>
<!-- d423cf4a&#45;d7cb&#45;11ee&#45;9e69&#45;ac1a3ddd05c7 -->
<g id="node4" class="node">
<title>d423cf4a&#45;d7cb&#45;11ee&#45;9e69&#45;ac1a3ddd05c7</title>
<ellipse fill="none" stroke="black" cx="675.78" cy="-707.65" rx="48.99" ry="18"/>
<text text-anchor="middle" x="675.78" y="-703.95" font-family="Times,serif" font-size="14.00">r_5: level3</text>
</g>
<!-- d423c25c&#45;d7cb&#45;11ee&#45;9e69&#45;ac1a3ddd05c7&#45;&gt;d423cf4a&#45;d7cb&#45;11ee&#45;9e69&#45;ac1a3ddd05c7 -->
<g id="edge3" class="edge">
<title>d423c25c&#45;d7cb&#45;11ee&#45;9e69&#45;ac1a3ddd05c7&#45;&gt;d423cf4a&#45;d7cb&#45;11ee&#45;9e69&#45;ac1a3ddd05c7</title>
<path fill="none" stroke="black" d="M620.63,-761.44C630.35,-752.13 641.29,-741.66 650.85,-732.51"/>
<polygon fill="black" stroke="black" points="653.26,-735.05 658.07,-725.6 648.42,-729.99 653.26,-735.05"/>
</g>
<!-- d423cd9c&#45;d7cb&#45;11ee&#45;9e69&#45;ac1a3ddd05c7 -->
<g id="node3" class="node">
<title>d423cd9c&#45;d7cb&#45;11ee&#45;9e69&#45;ac1a3ddd05c7</title>
<polygon fill="none" stroke="black" points="586.1,-610.37 537.44,-653.42 440.11,-653.42 391.45,-610.37 440.11,-567.32 537.44,-567.32 586.1,-610.37"/>
<text text-anchor="middle" x="488.78" y="-621.67" font-family="Times,serif" font-size="14.00">rp_16: level3 </text>
<text text-anchor="middle" x="488.78" y="-606.67" font-family="Times,serif" font-size="14.00"> contact_suppliers </text>
<text text-anchor="middle" x="488.78" y="-591.67" font-family="Times,serif" font-size="14.00"> cost : 85</text>
</g>
<!-- d423cb9e&#45;d7cb&#45;11ee&#45;9e69&#45;ac1a3ddd05c7&#45;&gt;d423cd9c&#45;d7cb&#45;11ee&#45;9e69&#45;ac1a3ddd05c7 -->
<g id="edge2" class="edge">
<title>d423cb9e&#45;d7cb&#45;11ee&#45;9e69&#45;ac1a3ddd05c7&#45;&gt;d423cd9c&#45;d7cb&#45;11ee&#45;9e69&#45;ac1a3ddd05c7</title>
<path fill="none" stroke="black" d="M528.2,-689.61C524.47,-682.22 519.89,-673.13 515.19,-663.79"/>
<polygon fill="black" stroke="black" points="518.37,-662.33 510.75,-654.98 512.12,-665.48 518.37,-662.33"/>
</g>
<!-- d423d0ee&#45;d7cb&#45;11ee&#45;9e69&#45;ac1a3ddd05c7 -->
<g id="node5" class="node">
<title>d423d0ee&#45;d7cb&#45;11ee&#45;9e69&#45;ac1a3ddd05c7</title>
<polygon fill="none" stroke="black" points="798.1,-610.37 749.44,-653.42 652.11,-653.42 603.45,-610.37 652.11,-567.32 749.44,-567.32 798.1,-610.37"/>
<text text-anchor="middle" x="700.78" y="-621.67" font-family="Times,serif" font-size="14.00">rp_16: level3 </text>
<text text-anchor="middle" x="700.78" y="-606.67" font-family="Times,serif" font-size="14.00"> contact_suppliers </text>
<text text-anchor="middle" x="700.78" y="-591.67" font-family="Times,serif" font-size="14.00"> cost : 16</text>
</g>
<!-- d423cf4a&#45;d7cb&#45;11ee&#45;9e69&#45;ac1a3ddd05c7&#45;&gt;d423d0ee&#45;d7cb&#45;11ee&#45;9e69&#45;ac1a3ddd05c7 -->
<g id="edge4" class="edge">
<title>d423cf4a&#45;d7cb&#45;11ee&#45;9e69&#45;ac1a3ddd05c7&#45;&gt;d423d0ee&#45;d7cb&#45;11ee&#45;9e69&#45;ac1a3ddd05c7</title>
<path fill="none" stroke="black" d="M680.25,-689.61C682.12,-682.46 684.42,-673.71 686.79,-664.68"/>
<polygon fill="black" stroke="black" points="690.15,-665.65 689.31,-655.09 683.38,-663.87 690.15,-665.65"/>
</g>
<!-- d423d256&#45;d7cb&#45;11ee&#45;9e69&#45;ac1a3ddd05c7 -->
<g id="node6" class="node">
<title>d423d256&#45;d7cb&#45;11ee&#45;9e69&#45;ac1a3ddd05c7</title>
<polygon fill="none" stroke="black" points="763.28,-531.1 638.28,-531.1 638.28,-478.1 763.28,-478.1 763.28,-531.1"/>
<text text-anchor="middle" x="700.78" y="-515.9" font-family="Times,serif" font-size="14.00">r0: create_proposal </text>
<text text-anchor="middle" x="700.78" y="-500.9" font-family="Times,serif" font-size="14.00"> Type: insert </text>
<text text-anchor="middle" x="700.78" y="-485.9" font-family="Times,serif" font-size="14.00"> Direction: after</text>
</g>
<!-- d423d0ee&#45;d7cb&#45;11ee&#45;9e69&#45;ac1a3ddd05c7&#45;&gt;d423d256&#45;d7cb&#45;11ee&#45;9e69&#45;ac1a3ddd05c7 -->
<g id="edge5" class="edge">
<title>d423d0ee&#45;d7cb&#45;11ee&#45;9e69&#45;ac1a3ddd05c7&#45;&gt;d423d256&#45;d7cb&#45;11ee&#45;9e69&#45;ac1a3ddd05c7</title>
<path fill="none" stroke="black" d="M700.78,-566.86C700.78,-558.91 700.78,-550.65 700.78,-542.87"/>
<polygon fill="black" stroke="black" points="704.28,-543.04 700.78,-533.04 697.28,-543.04 704.28,-543.04"/>
</g>
<!-- d423d60c&#45;d7cb&#45;11ee&#45;9e69&#45;ac1a3ddd05c7 -->
<g id="node7" class="node">
<title>d423d60c&#45;d7cb&#45;11ee&#45;9e69&#45;ac1a3ddd05c7</title>
<ellipse fill="none" stroke="black" cx="487.78" cy="-424.1" rx="48.99" ry="18"/>
<text text-anchor="middle" x="487.78" y="-420.4" font-family="Times,serif" font-size="14.00">r_2: level2</text>
</g>
<!-- d423d256&#45;d7cb&#45;11ee&#45;9e69&#45;ac1a3ddd05c7&#45;&gt;d423d60c&#45;d7cb&#45;11ee&#45;9e69&#45;ac1a3ddd05c7 -->
<g id="edge6" class="edge">
<title>d423d256&#45;d7cb&#45;11ee&#45;9e69&#45;ac1a3ddd05c7&#45;&gt;d423d60c&#45;d7cb&#45;11ee&#45;9e69&#45;ac1a3ddd05c7</title>
<path fill="none" stroke="black" d="M638.02,-480.47C604.03,-467.94 562.85,-452.76 532.2,-441.47"/>
<polygon fill="black" stroke="black" points="533.43,-438.19 522.84,-438.02 531.01,-444.76 533.43,-438.19"/>
</g>
<!-- d423e6c4&#45;d7cb&#45;11ee&#45;9e69&#45;ac1a3ddd05c7 -->
<g id="node17" class="node">
<title>d423e6c4&#45;d7cb&#45;11ee&#45;9e69&#45;ac1a3ddd05c7</title>
<ellipse fill="none" stroke="black" cx="643.78" cy="-424.1" rx="48.99" ry="18"/>
<text text-anchor="middle" x="643.78" y="-420.4" font-family="Times,serif" font-size="14.00">r_4: level2</text>
</g>
<!-- d423d256&#45;d7cb&#45;11ee&#45;9e69&#45;ac1a3ddd05c7&#45;&gt;d423e6c4&#45;d7cb&#45;11ee&#45;9e69&#45;ac1a3ddd05c7 -->
<g id="edge16" class="edge">
<title>d423d256&#45;d7cb&#45;11ee&#45;9e69&#45;ac1a3ddd05c7&#45;&gt;d423e6c4&#45;d7cb&#45;11ee&#45;9e69&#45;ac1a3ddd05c7</title>
<path fill="none" stroke="black" d="M682.11,-477.89C675.89,-469.32 668.94,-459.76 662.7,-451.15"/>
<polygon fill="black" stroke="black" points="665.61,-449.21 656.9,-443.17 659.95,-453.32 665.61,-449.21"/>
</g>
<!-- d423e9bc&#45;d7cb&#45;11ee&#45;9e69&#45;ac1a3ddd05c7 -->
<g id="node19" class="node">
<title>d423e9bc&#45;d7cb&#45;11ee&#45;9e69&#45;ac1a3ddd05c7</title>
<ellipse fill="none" stroke="black" cx="799.78" cy="-424.1" rx="48.99" ry="18"/>
<text text-anchor="middle" x="799.78" y="-420.4" font-family="Times,serif" font-size="14.00">r_3: level3</text>
</g>
<!-- d423d256&#45;d7cb&#45;11ee&#45;9e69&#45;ac1a3ddd05c7&#45;&gt;d423e9bc&#45;d7cb&#45;11ee&#45;9e69&#45;ac1a3ddd05c7 -->
<g id="edge18" class="edge">
<title>d423d256&#45;d7cb&#45;11ee&#45;9e69&#45;ac1a3ddd05c7&#45;&gt;d423e9bc&#45;d7cb&#45;11ee&#45;9e69&#45;ac1a3ddd05c7</title>
<path fill="none" stroke="black" d="M733.47,-477.68C745.56,-468.09 759.16,-457.3 770.89,-448"/>
<polygon fill="black" stroke="black" points="772.98,-450.81 778.64,-441.86 768.63,-445.33 772.98,-450.81"/>
</g>
<!-- d423ec8c&#45;d7cb&#45;11ee&#45;9e69&#45;ac1a3ddd05c7 -->
<g id="node21" class="node">
<title>d423ec8c&#45;d7cb&#45;11ee&#45;9e69&#45;ac1a3ddd05c7</title>
<ellipse fill="none" stroke="black" cx="976.78" cy="-424.1" rx="48.99" ry="18"/>
<text text-anchor="middle" x="976.78" y="-420.4" font-family="Times,serif" font-size="14.00">r_5: level3</text>
</g>
<!-- d423d256&#45;d7cb&#45;11ee&#45;9e69&#45;ac1a3ddd05c7&#45;&gt;d423ec8c&#45;d7cb&#45;11ee&#45;9e69&#45;ac1a3ddd05c7 -->
<g id="edge20" class="edge">
<title>d423d256&#45;d7cb&#45;11ee&#45;9e69&#45;ac1a3ddd05c7&#45;&gt;d423ec8c&#45;d7cb&#45;11ee&#45;9e69&#45;ac1a3ddd05c7</title>
<path fill="none" stroke="black" d="M763.75,-485.69C813.58,-471.51 882.15,-452.01 927.9,-439"/>
<polygon fill="black" stroke="black" points="928.61,-442.44 937.27,-436.33 926.69,-435.7 928.61,-442.44"/>
</g>
<!-- d423d7c4&#45;d7cb&#45;11ee&#45;9e69&#45;ac1a3ddd05c7 -->
<g id="node8" class="node">
<title>d423d7c4&#45;d7cb&#45;11ee&#45;9e69&#45;ac1a3ddd05c7</title>
<polygon fill="none" stroke="black" points="514.41,-326.82 469.59,-369.87 379.96,-369.87 335.15,-326.82 379.96,-283.77 469.59,-283.77 514.41,-326.82"/>
<text text-anchor="middle" x="424.78" y="-338.12" font-family="Times,serif" font-size="14.00">rp_15: level3 </text>
<text text-anchor="middle" x="424.78" y="-323.12" font-family="Times,serif" font-size="14.00"> create_proposal </text>
<text text-anchor="middle" x="424.78" y="-308.12" font-family="Times,serif" font-size="14.00"> cost : 100</text>
</g>
<!-- d423d60c&#45;d7cb&#45;11ee&#45;9e69&#45;ac1a3ddd05c7&#45;&gt;d423d7c4&#45;d7cb&#45;11ee&#45;9e69&#45;ac1a3ddd05c7 -->
<g id="edge7" class="edge">
<title>d423d60c&#45;d7cb&#45;11ee&#45;9e69&#45;ac1a3ddd05c7&#45;&gt;d423d7c4&#45;d7cb&#45;11ee&#45;9e69&#45;ac1a3ddd05c7</title>
<path fill="none" stroke="black" d="M476.8,-406.5C471.73,-398.83 465.39,-389.24 458.91,-379.44"/>
<polygon fill="black" stroke="black" points="461.95,-377.69 453.51,-371.28 456.11,-381.55 461.95,-377.69"/>
</g>
<!-- d423d940&#45;d7cb&#45;11ee&#45;9e69&#45;ac1a3ddd05c7 -->
<g id="node9" class="node">
<title>d423d940&#45;d7cb&#45;11ee&#45;9e69&#45;ac1a3ddd05c7</title>
<polygon fill="none" stroke="black" points="415.28,-247.55 268.28,-247.55 268.28,-194.55 415.28,-194.55 415.28,-247.55"/>
<text text-anchor="middle" x="341.78" y="-232.35" font-family="Times,serif" font-size="14.00">r0: four_eyes_principle </text>
<text text-anchor="middle" x="341.78" y="-217.35" font-family="Times,serif" font-size="14.00"> Type: insert </text>
<text text-anchor="middle" x="341.78" y="-202.35" font-family="Times,serif" font-size="14.00"> Direction: before</text>
</g>
<!-- d423d7c4&#45;d7cb&#45;11ee&#45;9e69&#45;ac1a3ddd05c7&#45;&gt;d423d940&#45;d7cb&#45;11ee&#45;9e69&#45;ac1a3ddd05c7 -->
<g id="edge8" class="edge">
<title>d423d7c4&#45;d7cb&#45;11ee&#45;9e69&#45;ac1a3ddd05c7&#45;&gt;d423d940&#45;d7cb&#45;11ee&#45;9e69&#45;ac1a3ddd05c7</title>
<path fill="none" stroke="black" d="M390.78,-283.31C383.74,-274.52 376.41,-265.35 369.62,-256.87"/>
<polygon fill="black" stroke="black" points="372.44,-254.78 363.46,-249.16 366.98,-259.16 372.44,-254.78"/>
</g>
<!-- d423e4da&#45;d7cb&#45;11ee&#45;9e69&#45;ac1a3ddd05c7 -->
<g id="node16" class="node">
<title>d423e4da&#45;d7cb&#45;11ee&#45;9e69&#45;ac1a3ddd05c7</title>
<polygon fill="none" stroke="black" points="581.78,-247.55 433.78,-247.55 433.78,-194.55 581.78,-194.55 581.78,-247.55"/>
<text text-anchor="middle" x="507.78" y="-232.35" font-family="Times,serif" font-size="14.00">r0: decide_on_proposal </text>
<text text-anchor="middle" x="507.78" y="-217.35" font-family="Times,serif" font-size="14.00"> Type: delete </text>
<text text-anchor="middle" x="507.78" y="-202.35" font-family="Times,serif" font-size="14.00"> Direction: any</text>
</g>
<!-- d423d7c4&#45;d7cb&#45;11ee&#45;9e69&#45;ac1a3ddd05c7&#45;&gt;d423e4da&#45;d7cb&#45;11ee&#45;9e69&#45;ac1a3ddd05c7 -->
<g id="edge15" class="edge">
<title>d423d7c4&#45;d7cb&#45;11ee&#45;9e69&#45;ac1a3ddd05c7&#45;&gt;d423e4da&#45;d7cb&#45;11ee&#45;9e69&#45;ac1a3ddd05c7</title>
<path fill="none" stroke="black" d="M458.78,-283.31C465.81,-274.52 473.15,-265.35 479.93,-256.87"/>
<polygon fill="black" stroke="black" points="482.58,-259.16 486.09,-249.16 477.11,-254.78 482.58,-259.16"/>
</g>
<!-- d423dbc0&#45;d7cb&#45;11ee&#45;9e69&#45;ac1a3ddd05c7 -->
<g id="node10" class="node">
<title>d423dbc0&#45;d7cb&#45;11ee&#45;9e69&#45;ac1a3ddd05c7</title>
<ellipse fill="none" stroke="black" cx="167.78" cy="-140.55" rx="48.99" ry="18"/>
<text text-anchor="middle" x="167.78" y="-136.85" font-family="Times,serif" font-size="14.00">r_4: level2</text>
</g>
<!-- d423d940&#45;d7cb&#45;11ee&#45;9e69&#45;ac1a3ddd05c7&#45;&gt;d423dbc0&#45;d7cb&#45;11ee&#45;9e69&#45;ac1a3ddd05c7 -->
<g id="edge9" class="edge">
<title>d423d940&#45;d7cb&#45;11ee&#45;9e69&#45;ac1a3ddd05c7&#45;&gt;d423dbc0&#45;d7cb&#45;11ee&#45;9e69&#45;ac1a3ddd05c7</title>
<path fill="none" stroke="black" d="M284.32,-194.13C259.37,-182.87 230.74,-169.95 208.1,-159.74"/>
<polygon fill="black" stroke="black" points="209.76,-156.65 199.21,-155.73 206.88,-163.03 209.76,-156.65"/>
</g>
<!-- d423ded6&#45;d7cb&#45;11ee&#45;9e69&#45;ac1a3ddd05c7 -->
<g id="node12" class="node">
<title>d423ded6&#45;d7cb&#45;11ee&#45;9e69&#45;ac1a3ddd05c7</title>
<ellipse fill="none" stroke="black" cx="341.78" cy="-140.55" rx="48.99" ry="18"/>
<text text-anchor="middle" x="341.78" y="-136.85" font-family="Times,serif" font-size="14.00">r_3: level3</text>
</g>
<!-- d423d940&#45;d7cb&#45;11ee&#45;9e69&#45;ac1a3ddd05c7&#45;&gt;d423ded6&#45;d7cb&#45;11ee&#45;9e69&#45;ac1a3ddd05c7 -->
<g id="edge11" class="edge">
<title>d423d940&#45;d7cb&#45;11ee&#45;9e69&#45;ac1a3ddd05c7&#45;&gt;d423ded6&#45;d7cb&#45;11ee&#45;9e69&#45;ac1a3ddd05c7</title>
<path fill="none" stroke="black" d="M341.78,-194.34C341.78,-186.62 341.78,-178.11 341.78,-170.21"/>
<polygon fill="black" stroke="black" points="345.28,-170.39 341.78,-160.39 338.28,-170.39 345.28,-170.39"/>
</g>
<!-- d423e1ba&#45;d7cb&#45;11ee&#45;9e69&#45;ac1a3ddd05c7 -->
<g id="node14" class="node">
<title>d423e1ba&#45;d7cb&#45;11ee&#45;9e69&#45;ac1a3ddd05c7</title>
<ellipse fill="none" stroke="black" cx="515.78" cy="-140.55" rx="48.99" ry="18"/>
<text text-anchor="middle" x="515.78" y="-136.85" font-family="Times,serif" font-size="14.00">r_5: level3</text>
</g>
<!-- d423d940&#45;d7cb&#45;11ee&#45;9e69&#45;ac1a3ddd05c7&#45;&gt;d423e1ba&#45;d7cb&#45;11ee&#45;9e69&#45;ac1a3ddd05c7 -->
<g id="edge13" class="edge">
<title>d423d940&#45;d7cb&#45;11ee&#45;9e69&#45;ac1a3ddd05c7&#45;&gt;d423e1ba&#45;d7cb&#45;11ee&#45;9e69&#45;ac1a3ddd05c7</title>
<path fill="none" stroke="black" d="M399.23,-194.13C424.19,-182.87 452.82,-169.95 475.46,-159.74"/>
<polygon fill="black" stroke="black" points="476.67,-163.03 484.35,-155.73 473.79,-156.65 476.67,-163.03"/>
</g>
<!-- d423dd6e&#45;d7cb&#45;11ee&#45;9e69&#45;ac1a3ddd05c7 -->
<g id="node11" class="node">
<title>d423dd6e&#45;d7cb&#45;11ee&#45;9e69&#45;ac1a3ddd05c7</title>
<polygon fill="none" stroke="black" points="215.33,-43.27 161.56,-86.32 54,-86.32 0.22,-43.27 54,-0.22 161.56,-0.22 215.33,-43.27"/>
<text text-anchor="middle" x="107.78" y="-54.57" font-family="Times,serif" font-size="14.00">rp_24: level3 </text>
<text text-anchor="middle" x="107.78" y="-39.57" font-family="Times,serif" font-size="14.00"> four_eyes_principle </text>
<text text-anchor="middle" x="107.78" y="-24.57" font-family="Times,serif" font-size="14.00"> cost : 63</text>
</g>
<!-- d423dbc0&#45;d7cb&#45;11ee&#45;9e69&#45;ac1a3ddd05c7&#45;&gt;d423dd6e&#45;d7cb&#45;11ee&#45;9e69&#45;ac1a3ddd05c7 -->
<g id="edge10" class="edge">
<title>d423dbc0&#45;d7cb&#45;11ee&#45;9e69&#45;ac1a3ddd05c7&#45;&gt;d423dd6e&#45;d7cb&#45;11ee&#45;9e69&#45;ac1a3ddd05c7</title>
<path fill="none" stroke="black" d="M157.05,-122.52C152.3,-114.97 146.43,-105.64 140.41,-96.09"/>
<polygon fill="black" stroke="black" points="143.48,-94.4 135.19,-87.81 137.56,-98.13 143.48,-94.4"/>
</g>
<!-- d423e05c&#45;d7cb&#45;11ee&#45;9e69&#45;ac1a3ddd05c7 -->
<g id="node13" class="node">
<title>d423e05c&#45;d7cb&#45;11ee&#45;9e69&#45;ac1a3ddd05c7</title>
<polygon fill="none" stroke="black" points="449.33,-43.27 395.56,-86.32 288,-86.32 234.22,-43.27 288,-0.22 395.56,-0.22 449.33,-43.27"/>
<text text-anchor="middle" x="341.78" y="-54.57" font-family="Times,serif" font-size="14.00">rp_24: level3 </text>
<text text-anchor="middle" x="341.78" y="-39.57" font-family="Times,serif" font-size="14.00"> four_eyes_principle </text>
<text text-anchor="middle" x="341.78" y="-24.57" font-family="Times,serif" font-size="14.00"> cost : 53</text>
</g>
<!-- d423ded6&#45;d7cb&#45;11ee&#45;9e69&#45;ac1a3ddd05c7&#45;&gt;d423e05c&#45;d7cb&#45;11ee&#45;9e69&#45;ac1a3ddd05c7 -->
<g id="edge12" class="edge">
<title>d423ded6&#45;d7cb&#45;11ee&#45;9e69&#45;ac1a3ddd05c7&#45;&gt;d423e05c&#45;d7cb&#45;11ee&#45;9e69&#45;ac1a3ddd05c7</title>
<path fill="none" stroke="black" d="M341.78,-122.07C341.78,-115.13 341.78,-106.72 341.78,-98.05"/>
<polygon fill="black" stroke="black" points="345.28,-98.09 341.78,-88.09 338.28,-98.09 345.28,-98.09"/>
</g>
<!-- d423e32c&#45;d7cb&#45;11ee&#45;9e69&#45;ac1a3ddd05c7 -->
<g id="node15" class="node">
<title>d423e32c&#45;d7cb&#45;11ee&#45;9e69&#45;ac1a3ddd05c7</title>
<polygon fill="none" stroke="black" points="683.33,-43.27 629.56,-86.32 522,-86.32 468.22,-43.27 522,-0.22 629.56,-0.22 683.33,-43.27"/>
<text text-anchor="middle" x="575.78" y="-54.57" font-family="Times,serif" font-size="14.00">rp_24: level3 </text>
<text text-anchor="middle" x="575.78" y="-39.57" font-family="Times,serif" font-size="14.00"> four_eyes_principle </text>
<text text-anchor="middle" x="575.78" y="-24.57" font-family="Times,serif" font-size="14.00"> cost : 19</text>
</g>
<!-- d423e1ba&#45;d7cb&#45;11ee&#45;9e69&#45;ac1a3ddd05c7&#45;&gt;d423e32c&#45;d7cb&#45;11ee&#45;9e69&#45;ac1a3ddd05c7 -->
<g id="edge14" class="edge">
<title>d423e1ba&#45;d7cb&#45;11ee&#45;9e69&#45;ac1a3ddd05c7&#45;&gt;d423e32c&#45;d7cb&#45;11ee&#45;9e69&#45;ac1a3ddd05c7</title>
<path fill="none" stroke="black" d="M526.5,-122.52C531.26,-114.97 537.13,-105.64 543.14,-96.09"/>
<polygon fill="black" stroke="black" points="545.99,-98.13 548.36,-87.81 540.07,-94.4 545.99,-98.13"/>
</g>
<!-- d423e854&#45;d7cb&#45;11ee&#45;9e69&#45;ac1a3ddd05c7 -->
<g id="node18" class="node">
<title>d423e854&#45;d7cb&#45;11ee&#45;9e69&#45;ac1a3ddd05c7</title>
<polygon fill="none" stroke="black" points="712.41,-326.82 667.59,-369.87 577.96,-369.87 533.15,-326.82 577.96,-283.77 667.59,-283.77 712.41,-326.82"/>
<text text-anchor="middle" x="622.78" y="-338.12" font-family="Times,serif" font-size="14.00">rp_15: level2 </text>
<text text-anchor="middle" x="622.78" y="-323.12" font-family="Times,serif" font-size="14.00"> create_proposal </text>
<text text-anchor="middle" x="622.78" y="-308.12" font-family="Times,serif" font-size="14.00"> cost : 15</text>
</g>
<!-- d423e6c4&#45;d7cb&#45;11ee&#45;9e69&#45;ac1a3ddd05c7&#45;&gt;d423e854&#45;d7cb&#45;11ee&#45;9e69&#45;ac1a3ddd05c7 -->
<g id="edge17" class="edge">
<title>d423e6c4&#45;d7cb&#45;11ee&#45;9e69&#45;ac1a3ddd05c7&#45;&gt;d423e854&#45;d7cb&#45;11ee&#45;9e69&#45;ac1a3ddd05c7</title>
<path fill="none" stroke="black" d="M640.02,-406.06C638.45,-398.91 636.52,-390.16 634.53,-381.13"/>
<polygon fill="black" stroke="black" points="637.99,-380.57 632.42,-371.55 631.15,-382.07 637.99,-380.57"/>
</g>
<!-- d423eb38&#45;d7cb&#45;11ee&#45;9e69&#45;ac1a3ddd05c7 -->
<g id="node20" class="node">
<title>d423eb38&#45;d7cb&#45;11ee&#45;9e69&#45;ac1a3ddd05c7</title>
<polygon fill="none" stroke="black" points="910.41,-326.82 865.59,-369.87 775.96,-369.87 731.15,-326.82 775.96,-283.77 865.59,-283.77 910.41,-326.82"/>
<text text-anchor="middle" x="820.78" y="-338.12" font-family="Times,serif" font-size="14.00">rp_15: level3 </text>
<text text-anchor="middle" x="820.78" y="-323.12" font-family="Times,serif" font-size="14.00"> create_proposal </text>
<text text-anchor="middle" x="820.78" y="-308.12" font-family="Times,serif" font-size="14.00"> cost : 26</text>
</g>
<!-- d423e9bc&#45;d7cb&#45;11ee&#45;9e69&#45;ac1a3ddd05c7&#45;&gt;d423eb38&#45;d7cb&#45;11ee&#45;9e69&#45;ac1a3ddd05c7 -->
<g id="edge19" class="edge">
<title>d423e9bc&#45;d7cb&#45;11ee&#45;9e69&#45;ac1a3ddd05c7&#45;&gt;d423eb38&#45;d7cb&#45;11ee&#45;9e69&#45;ac1a3ddd05c7</title>
<path fill="none" stroke="black" d="M803.53,-406.06C805.11,-398.91 807.04,-390.16 809.03,-381.13"/>
<polygon fill="black" stroke="black" points="812.4,-382.07 811.14,-371.55 805.57,-380.57 812.4,-382.07"/>
</g>
<!-- d423ee12&#45;d7cb&#45;11ee&#45;9e69&#45;ac1a3ddd05c7 -->
<g id="node22" class="node">
<title>d423ee12&#45;d7cb&#45;11ee&#45;9e69&#45;ac1a3ddd05c7</title>
<polygon fill="none" stroke="black" points="1108.41,-326.82 1063.59,-369.87 973.96,-369.87 929.15,-326.82 973.96,-283.77 1063.59,-283.77 1108.41,-326.82"/>
<text text-anchor="middle" x="1018.78" y="-338.12" font-family="Times,serif" font-size="14.00">rp_15: level3 </text>
<text text-anchor="middle" x="1018.78" y="-323.12" font-family="Times,serif" font-size="14.00"> create_proposal </text>
<text text-anchor="middle" x="1018.78" y="-308.12" font-family="Times,serif" font-size="14.00"> cost : 98</text>
</g>
<!-- d423ec8c&#45;d7cb&#45;11ee&#45;9e69&#45;ac1a3ddd05c7&#45;&gt;d423ee12&#45;d7cb&#45;11ee&#45;9e69&#45;ac1a3ddd05c7 -->
<g id="edge21" class="edge">
<title>d423ec8c&#45;d7cb&#45;11ee&#45;9e69&#45;ac1a3ddd05c7&#45;&gt;d423ee12&#45;d7cb&#45;11ee&#45;9e69&#45;ac1a3ddd05c7</title>
<path fill="none" stroke="black" d="M984.29,-406.06C987.51,-398.75 991.47,-389.77 995.54,-380.54"/>
<polygon fill="black" stroke="black" points="998.71,-382.02 999.54,-371.46 992.3,-379.2 998.71,-382.02"/>
</g>
</g>
</svg>
