<?xml version="1.0" encoding="UTF-8" standalone="no"?>
<!DOCTYPE svg PUBLIC "-//W3C//DTD SVG 1.1//EN"
 "http://www.w3.org/Graphics/SVG/1.1/DTD/svg11.dtd">
<!-- Generated by graphviz version 7.1.0 (0)
 -->
<!-- Title: CallTree Pages: 1 -->
<svg width="460pt" height="256pt"
 viewBox="0.00 0.00 460.19 255.55" xmlns="http://www.w3.org/2000/svg" xmlns:xlink="http://www.w3.org/1999/xlink">
<g id="graph0" class="graph" transform="scale(1 1) rotate(0) translate(4 251.55)">
<title>CallTree</title>
<polygon fill="white" stroke="none" points="-4,4 -4,-251.55 456.19,-251.55 456.19,4 -4,4"/>
<!-- 2b4c9782&#45;d643&#45;11ee&#45;b71c&#45;ac1a3ddd05c7 -->
<g id="node1" class="node">
<title>2b4c9782&#45;d643&#45;11ee&#45;b71c&#45;ac1a3ddd05c7</title>
<polygon fill="none" stroke="black" points="303.59,-247.55 147.59,-247.55 147.59,-194.55 303.59,-194.55 303.59,-247.55"/>
<text text-anchor="middle" x="225.59" y="-232.35" font-family="Times,serif" font-size="14.00">a10: decide_on_proposal </text>
<text text-anchor="middle" x="225.59" y="-217.35" font-family="Times,serif" font-size="14.00"> Type: Core </text>
<text text-anchor="middle" x="225.59" y="-202.35" font-family="Times,serif" font-size="14.00"> Direction: Core</text>
</g>
<!-- 2b4c9b10&#45;d643&#45;11ee&#45;b71c&#45;ac1a3ddd05c7 -->
<g id="node2" class="node">
<title>2b4c9b10&#45;d643&#45;11ee&#45;b71c&#45;ac1a3ddd05c7</title>
<ellipse fill="none" stroke="black" cx="138.59" cy="-140.55" rx="48.99" ry="18"/>
<text text-anchor="middle" x="138.59" y="-136.85" font-family="Times,serif" font-size="14.00">r_3: level3</text>
</g>
<!-- 2b4c9782&#45;d643&#45;11ee&#45;b71c&#45;ac1a3ddd05c7&#45;&gt;2b4c9b10&#45;d643&#45;11ee&#45;b71c&#45;ac1a3ddd05c7 -->
<g id="edge1" class="edge">
<title>2b4c9782&#45;d643&#45;11ee&#45;b71c&#45;ac1a3ddd05c7&#45;&gt;2b4c9b10&#45;d643&#45;11ee&#45;b71c&#45;ac1a3ddd05c7</title>
<path fill="none" stroke="black" d="M197.11,-194.34C186.76,-185.01 175.12,-174.5 164.96,-165.34"/>
<polygon fill="black" stroke="black" points="167.38,-162.81 157.61,-158.71 162.69,-168 167.38,-162.81"/>
</g>
<!-- 2b4c9d86&#45;d643&#45;11ee&#45;b71c&#45;ac1a3ddd05c7 -->
<g id="node4" class="node">
<title>2b4c9d86&#45;d643&#45;11ee&#45;b71c&#45;ac1a3ddd05c7</title>
<ellipse fill="none" stroke="black" cx="313.59" cy="-140.55" rx="48.99" ry="18"/>
<text text-anchor="middle" x="313.59" y="-136.85" font-family="Times,serif" font-size="14.00">r_5: level3</text>
</g>
<!-- 2b4c9782&#45;d643&#45;11ee&#45;b71c&#45;ac1a3ddd05c7&#45;&gt;2b4c9d86&#45;d643&#45;11ee&#45;b71c&#45;ac1a3ddd05c7 -->
<g id="edge3" class="edge">
<title>2b4c9782&#45;d643&#45;11ee&#45;b71c&#45;ac1a3ddd05c7&#45;&gt;2b4c9d86&#45;d643&#45;11ee&#45;b71c&#45;ac1a3ddd05c7</title>
<path fill="none" stroke="black" d="M254.41,-194.34C264.88,-185.01 276.65,-174.5 286.93,-165.34"/>
<polygon fill="black" stroke="black" points="289.24,-167.97 294.37,-158.7 284.58,-162.74 289.24,-167.97"/>
</g>
<!-- 2b4c9c6e&#45;d643&#45;11ee&#45;b71c&#45;ac1a3ddd05c7 -->
<g id="node3" class="node">
<title>2b4c9c6e&#45;d643&#45;11ee&#45;b71c&#45;ac1a3ddd05c7</title>
<polygon fill="none" stroke="black" points="217.28,-43.27 162.94,-86.32 54.25,-86.32 -0.09,-43.27 54.25,-0.22 162.94,-0.22 217.28,-43.27"/>
<text text-anchor="middle" x="108.59" y="-54.57" font-family="Times,serif" font-size="14.00">rp_25: level3 </text>
<text text-anchor="middle" x="108.59" y="-39.57" font-family="Times,serif" font-size="14.00"> decide_on_proposal </text>
<text text-anchor="middle" x="108.59" y="-24.57" font-family="Times,serif" font-size="14.00"> cost : 96</text>
</g>
<!-- 2b4c9b10&#45;d643&#45;11ee&#45;b71c&#45;ac1a3ddd05c7&#45;&gt;2b4c9c6e&#45;d643&#45;11ee&#45;b71c&#45;ac1a3ddd05c7 -->
<g id="edge2" class="edge">
<title>2b4c9b10&#45;d643&#45;11ee&#45;b71c&#45;ac1a3ddd05c7&#45;&gt;2b4c9c6e&#45;d643&#45;11ee&#45;b71c&#45;ac1a3ddd05c7</title>
<path fill="none" stroke="black" d="M133.23,-122.52C130.95,-115.28 128.16,-106.42 125.29,-97.29"/>
<polygon fill="black" stroke="black" points="128.7,-96.46 122.35,-87.97 122.02,-98.56 128.7,-96.46"/>
</g>
<!-- 2b4c9e9e&#45;d643&#45;11ee&#45;b71c&#45;ac1a3ddd05c7 -->
<g id="node5" class="node">
<title>2b4c9e9e&#45;d643&#45;11ee&#45;b71c&#45;ac1a3ddd05c7</title>
<polygon fill="none" stroke="black" points="452.28,-43.27 397.94,-86.32 289.25,-86.32 234.91,-43.27 289.25,-0.22 397.94,-0.22 452.28,-43.27"/>
<text text-anchor="middle" x="343.59" y="-54.57" font-family="Times,serif" font-size="14.00">rp_25: level3 </text>
<text text-anchor="middle" x="343.59" y="-39.57" font-family="Times,serif" font-size="14.00"> decide_on_proposal </text>
<text text-anchor="middle" x="343.59" y="-24.57" font-family="Times,serif" font-size="14.00"> cost : 59</text>
</g>
<!-- 2b4c9d86&#45;d643&#45;11ee&#45;b71c&#45;ac1a3ddd05c7&#45;&gt;2b4c9e9e&#45;d643&#45;11ee&#45;b71c&#45;ac1a3ddd05c7 -->
<g id="edge4" class="edge">
<title>2b4c9d86&#45;d643&#45;11ee&#45;b71c&#45;ac1a3ddd05c7&#45;&gt;2b4c9e9e&#45;d643&#45;11ee&#45;b71c&#45;ac1a3ddd05c7</title>
<path fill="none" stroke="black" d="M318.96,-122.52C321.23,-115.28 324.03,-106.42 326.9,-97.29"/>
<polygon fill="black" stroke="black" points="330.17,-98.56 329.83,-87.97 323.49,-96.46 330.17,-98.56"/>
</g>
</g>
</svg>
