<?xml version="1.0" encoding="UTF-8" standalone="no"?>
<!DOCTYPE svg PUBLIC "-//W3C//DTD SVG 1.1//EN"
 "http://www.w3.org/Graphics/SVG/1.1/DTD/svg11.dtd">
<!-- Generated by graphviz version 8.1.0 (20230707.0739)
 -->
<!-- Title: CallTree Pages: 1 -->
<svg width="628pt" height="563pt"
 viewBox="0.00 0.00 627.85 562.79" xmlns="http://www.w3.org/2000/svg" xmlns:xlink="http://www.w3.org/1999/xlink">
<g id="graph0" class="graph" transform="scale(1 1) rotate(0) translate(4 558.79)">
<title>CallTree</title>
<polygon fill="white" stroke="none" points="-4,4 -4,-558.79 623.85,-558.79 623.85,4 -4,4"/>
<!-- 679bd780&#45;d615&#45;11ee&#45;9dd8&#45;04cf4b795879 -->
<g id="node1" class="node">
<title>679bd780&#45;d615&#45;11ee&#45;9dd8&#45;04cf4b795879</title>
<polygon fill="none" stroke="black" points="408.26,-554.79 288.01,-554.79 288.01,-497.29 408.26,-497.29 408.26,-554.79"/>
<text text-anchor="middle" x="348.14" y="-537.49" font-family="Times,serif" font-size="14.00">a2: data_gathering </text>
<text text-anchor="middle" x="348.14" y="-520.99" font-family="Times,serif" font-size="14.00"> Type: Core </text>
<text text-anchor="middle" x="348.14" y="-504.49" font-family="Times,serif" font-size="14.00"> Direction: Core</text>
</g>
<!-- 679bdcf8&#45;d615&#45;11ee&#45;9dd8&#45;04cf4b795879 -->
<g id="node2" class="node">
<title>679bdcf8&#45;d615&#45;11ee&#45;9dd8&#45;04cf4b795879</title>
<ellipse fill="none" stroke="black" cx="195.14" cy="-443.29" rx="50.84" ry="18"/>
<text text-anchor="middle" x="195.14" y="-438.24" font-family="Times,serif" font-size="14.00">r_1: level1</text>
</g>
<!-- 679bd780&#45;d615&#45;11ee&#45;9dd8&#45;04cf4b795879&#45;&gt;679bdcf8&#45;d615&#45;11ee&#45;9dd8&#45;04cf4b795879 -->
<g id="edge1" class="edge">
<title>679bd780&#45;d615&#45;11ee&#45;9dd8&#45;04cf4b795879&#45;&gt;679bdcf8&#45;d615&#45;11ee&#45;9dd8&#45;04cf4b795879</title>
<path fill="none" stroke="black" d="M294.63,-496.8C274.03,-485.93 250.98,-473.76 232.25,-463.88"/>
<polygon fill="black" stroke="black" points="234.1,-460.37 223.62,-458.8 230.83,-466.56 234.1,-460.37"/>
</g>
<!-- 679be856&#45;d615&#45;11ee&#45;9dd8&#45;04cf4b795879 -->
<g id="node9" class="node">
<title>679be856&#45;d615&#45;11ee&#45;9dd8&#45;04cf4b795879</title>
<ellipse fill="none" stroke="black" cx="348.14" cy="-443.29" rx="50.84" ry="18"/>
<text text-anchor="middle" x="348.14" y="-438.24" font-family="Times,serif" font-size="14.00">r_2: level2</text>
</g>
<!-- 679bd780&#45;d615&#45;11ee&#45;9dd8&#45;04cf4b795879&#45;&gt;679be856&#45;d615&#45;11ee&#45;9dd8&#45;04cf4b795879 -->
<g id="edge8" class="edge">
<title>679bd780&#45;d615&#45;11ee&#45;9dd8&#45;04cf4b795879&#45;&gt;679be856&#45;d615&#45;11ee&#45;9dd8&#45;04cf4b795879</title>
<path fill="none" stroke="black" d="M348.14,-496.8C348.14,-488.86 348.14,-480.22 348.14,-472.29"/>
<polygon fill="black" stroke="black" points="351.64,-472.34 348.14,-462.34 344.64,-472.34 351.64,-472.34"/>
</g>
<!-- 679beb3a&#45;d615&#45;11ee&#45;9dd8&#45;04cf4b795879 -->
<g id="node11" class="node">
<title>679beb3a&#45;d615&#45;11ee&#45;9dd8&#45;04cf4b795879</title>
<ellipse fill="none" stroke="black" cx="501.14" cy="-443.29" rx="50.84" ry="18"/>
<text text-anchor="middle" x="501.14" y="-438.24" font-family="Times,serif" font-size="14.00">r_4: level2</text>
</g>
<!-- 679bd780&#45;d615&#45;11ee&#45;9dd8&#45;04cf4b795879&#45;&gt;679beb3a&#45;d615&#45;11ee&#45;9dd8&#45;04cf4b795879 -->
<g id="edge10" class="edge">
<title>679bd780&#45;d615&#45;11ee&#45;9dd8&#45;04cf4b795879&#45;&gt;679beb3a&#45;d615&#45;11ee&#45;9dd8&#45;04cf4b795879</title>
<path fill="none" stroke="black" d="M401.65,-496.8C422.25,-485.93 445.3,-473.76 464.02,-463.88"/>
<polygon fill="black" stroke="black" points="465.45,-466.56 472.66,-458.8 462.18,-460.37 465.45,-466.56"/>
</g>
<!-- 679bded8&#45;d615&#45;11ee&#45;9dd8&#45;04cf4b795879 -->
<g id="node3" class="node">
<title>679bded8&#45;d615&#45;11ee&#45;9dd8&#45;04cf4b795879</title>
<polygon fill="none" stroke="black" points="245.85,-342.35 203.49,-389.29 118.78,-389.29 76.43,-342.35 118.78,-295.4 203.49,-295.4 245.85,-342.35"/>
<text text-anchor="middle" x="161.14" y="-353.8" font-family="Times,serif" font-size="14.00">rp_2: level1 </text>
<text text-anchor="middle" x="161.14" y="-337.3" font-family="Times,serif" font-size="14.00"> data_gathering </text>
<text text-anchor="middle" x="161.14" y="-320.8" font-family="Times,serif" font-size="14.00"> cost : 61</text>
</g>
<!-- 679bdcf8&#45;d615&#45;11ee&#45;9dd8&#45;04cf4b795879&#45;&gt;679bded8&#45;d615&#45;11ee&#45;9dd8&#45;04cf4b795879 -->
<g id="edge2" class="edge">
<title>679bdcf8&#45;d615&#45;11ee&#45;9dd8&#45;04cf4b795879&#45;&gt;679bded8&#45;d615&#45;11ee&#45;9dd8&#45;04cf4b795879</title>
<path fill="none" stroke="black" d="M189.22,-425.06C186.76,-417.9 183.75,-409.14 180.62,-400.05"/>
<polygon fill="black" stroke="black" points="183.63,-399.03 177.07,-390.71 177.01,-401.31 183.63,-399.03"/>
</g>
<!-- 679be04a&#45;d615&#45;11ee&#45;9dd8&#45;04cf4b795879 -->
<g id="node4" class="node">
<title>679be04a&#45;d615&#45;11ee&#45;9dd8&#45;04cf4b795879</title>
<polygon fill="none" stroke="black" points="217.51,-259.4 104.76,-259.4 104.76,-201.9 217.51,-201.9 217.51,-259.4"/>
<text text-anchor="middle" x="161.14" y="-242.1" font-family="Times,serif" font-size="14.00">r1: data_support </text>
<text text-anchor="middle" x="161.14" y="-225.6" font-family="Times,serif" font-size="14.00"> Type: insert </text>
<text text-anchor="middle" x="161.14" y="-209.1" font-family="Times,serif" font-size="14.00"> Direction: before</text>
</g>
<!-- 679bded8&#45;d615&#45;11ee&#45;9dd8&#45;04cf4b795879&#45;&gt;679be04a&#45;d615&#45;11ee&#45;9dd8&#45;04cf4b795879 -->
<g id="edge3" class="edge">
<title>679bded8&#45;d615&#45;11ee&#45;9dd8&#45;04cf4b795879&#45;&gt;679be04a&#45;d615&#45;11ee&#45;9dd8&#45;04cf4b795879</title>
<path fill="none" stroke="black" d="M161.14,-295.14C161.14,-286.94 161.14,-278.48 161.14,-270.51"/>
<polygon fill="black" stroke="black" points="164.64,-270.65 161.14,-260.65 157.64,-270.65 164.64,-270.65"/>
</g>
<!-- 679be27a&#45;d615&#45;11ee&#45;9dd8&#45;04cf4b795879 -->
<g id="node5" class="node">
<title>679be27a&#45;d615&#45;11ee&#45;9dd8&#45;04cf4b795879</title>
<ellipse fill="none" stroke="black" cx="101.14" cy="-147.9" rx="50.84" ry="18"/>
<text text-anchor="middle" x="101.14" y="-142.85" font-family="Times,serif" font-size="14.00">r_2: level2</text>
</g>
<!-- 679be04a&#45;d615&#45;11ee&#45;9dd8&#45;04cf4b795879&#45;&gt;679be27a&#45;d615&#45;11ee&#45;9dd8&#45;04cf4b795879 -->
<g id="edge4" class="edge">
<title>679be04a&#45;d615&#45;11ee&#45;9dd8&#45;04cf4b795879&#45;&gt;679be27a&#45;d615&#45;11ee&#45;9dd8&#45;04cf4b795879</title>
<path fill="none" stroke="black" d="M140.15,-201.4C133.53,-192.49 126.26,-182.71 119.82,-174.03"/>
<polygon fill="black" stroke="black" points="122.23,-172.41 113.45,-166.47 116.61,-176.58 122.23,-172.41"/>
</g>
<!-- 679be572&#45;d615&#45;11ee&#45;9dd8&#45;04cf4b795879 -->
<g id="node7" class="node">
<title>679be572&#45;d615&#45;11ee&#45;9dd8&#45;04cf4b795879</title>
<ellipse fill="none" stroke="black" cx="233.14" cy="-147.9" rx="50.84" ry="18"/>
<text text-anchor="middle" x="233.14" y="-142.85" font-family="Times,serif" font-size="14.00">r_4: level2</text>
</g>
<!-- 679be04a&#45;d615&#45;11ee&#45;9dd8&#45;04cf4b795879&#45;&gt;679be572&#45;d615&#45;11ee&#45;9dd8&#45;04cf4b795879 -->
<g id="edge6" class="edge">
<title>679be04a&#45;d615&#45;11ee&#45;9dd8&#45;04cf4b795879&#45;&gt;679be572&#45;d615&#45;11ee&#45;9dd8&#45;04cf4b795879</title>
<path fill="none" stroke="black" d="M186.32,-201.4C194.43,-192.31 203.35,-182.3 211.21,-173.49"/>
<polygon fill="black" stroke="black" points="213.32,-176.26 217.36,-166.47 208.09,-171.6 213.32,-176.26"/>
</g>
<!-- 679be41e&#45;d615&#45;11ee&#45;9dd8&#45;04cf4b795879 -->
<g id="node6" class="node">
<title>679be41e&#45;d615&#45;11ee&#45;9dd8&#45;04cf4b795879</title>
<polygon fill="none" stroke="black" points="152.28,-46.95 114.21,-93.9 38.07,-93.9 0,-46.95 38.07,0 114.21,0 152.28,-46.95"/>
<text text-anchor="middle" x="76.14" y="-58.4" font-family="Times,serif" font-size="14.00">rp_20: level2 </text>
<text text-anchor="middle" x="76.14" y="-41.9" font-family="Times,serif" font-size="14.00"> data_support </text>
<text text-anchor="middle" x="76.14" y="-25.4" font-family="Times,serif" font-size="14.00"> cost : 42</text>
</g>
<!-- 679be27a&#45;d615&#45;11ee&#45;9dd8&#45;04cf4b795879&#45;&gt;679be41e&#45;d615&#45;11ee&#45;9dd8&#45;04cf4b795879 -->
<g id="edge5" class="edge">
<title>679be27a&#45;d615&#45;11ee&#45;9dd8&#45;04cf4b795879&#45;&gt;679be41e&#45;d615&#45;11ee&#45;9dd8&#45;04cf4b795879</title>
<path fill="none" stroke="black" d="M96.78,-129.66C94.99,-122.58 92.81,-113.93 90.54,-104.95"/>
<polygon fill="black" stroke="black" points="93.7,-104.16 87.85,-95.32 86.91,-105.87 93.7,-104.16"/>
</g>
<!-- 679be702&#45;d615&#45;11ee&#45;9dd8&#45;04cf4b795879 -->
<g id="node8" class="node">
<title>679be702&#45;d615&#45;11ee&#45;9dd8&#45;04cf4b795879</title>
<polygon fill="none" stroke="black" points="322.28,-46.95 284.21,-93.9 208.07,-93.9 170,-46.95 208.07,0 284.21,0 322.28,-46.95"/>
<text text-anchor="middle" x="246.14" y="-58.4" font-family="Times,serif" font-size="14.00">rp_20: level2 </text>
<text text-anchor="middle" x="246.14" y="-41.9" font-family="Times,serif" font-size="14.00"> data_support </text>
<text text-anchor="middle" x="246.14" y="-25.4" font-family="Times,serif" font-size="14.00"> cost : 57</text>
</g>
<!-- 679be572&#45;d615&#45;11ee&#45;9dd8&#45;04cf4b795879&#45;&gt;679be702&#45;d615&#45;11ee&#45;9dd8&#45;04cf4b795879 -->
<g id="edge7" class="edge">
<title>679be572&#45;d615&#45;11ee&#45;9dd8&#45;04cf4b795879&#45;&gt;679be702&#45;d615&#45;11ee&#45;9dd8&#45;04cf4b795879</title>
<path fill="none" stroke="black" d="M235.4,-129.66C236.33,-122.58 237.47,-113.93 238.65,-104.95"/>
<polygon fill="black" stroke="black" points="242.21,-105.69 240.05,-95.32 235.27,-104.78 242.21,-105.69"/>
</g>
<!-- 679be9f0&#45;d615&#45;11ee&#45;9dd8&#45;04cf4b795879 -->
<g id="node10" class="node">
<title>679be9f0&#45;d615&#45;11ee&#45;9dd8&#45;04cf4b795879</title>
<polygon fill="none" stroke="black" points="432.85,-342.35 390.49,-389.29 305.78,-389.29 263.43,-342.35 305.78,-295.4 390.49,-295.4 432.85,-342.35"/>
<text text-anchor="middle" x="348.14" y="-353.8" font-family="Times,serif" font-size="14.00">rp_7: level2 </text>
<text text-anchor="middle" x="348.14" y="-337.3" font-family="Times,serif" font-size="14.00"> data_gathering </text>
<text text-anchor="middle" x="348.14" y="-320.8" font-family="Times,serif" font-size="14.00"> cost : 100</text>
</g>
<!-- 679be856&#45;d615&#45;11ee&#45;9dd8&#45;04cf4b795879&#45;&gt;679be9f0&#45;d615&#45;11ee&#45;9dd8&#45;04cf4b795879 -->
<g id="edge9" class="edge">
<title>679be856&#45;d615&#45;11ee&#45;9dd8&#45;04cf4b795879&#45;&gt;679be9f0&#45;d615&#45;11ee&#45;9dd8&#45;04cf4b795879</title>
<path fill="none" stroke="black" d="M348.14,-425.06C348.14,-418.05 348.14,-409.52 348.14,-400.64"/>
<polygon fill="black" stroke="black" points="351.64,-400.71 348.14,-390.71 344.64,-400.71 351.64,-400.71"/>
</g>
<!-- 679becc0&#45;d615&#45;11ee&#45;9dd8&#45;04cf4b795879 -->
<g id="node12" class="node">
<title>679becc0&#45;d615&#45;11ee&#45;9dd8&#45;04cf4b795879</title>
<polygon fill="none" stroke="black" points="619.85,-342.35 577.49,-389.29 492.78,-389.29 450.43,-342.35 492.78,-295.4 577.49,-295.4 619.85,-342.35"/>
<text text-anchor="middle" x="535.14" y="-353.8" font-family="Times,serif" font-size="14.00">rp_7: level2 </text>
<text text-anchor="middle" x="535.14" y="-337.3" font-family="Times,serif" font-size="14.00"> data_gathering </text>
<text text-anchor="middle" x="535.14" y="-320.8" font-family="Times,serif" font-size="14.00"> cost : 39</text>
</g>
<!-- 679beb3a&#45;d615&#45;11ee&#45;9dd8&#45;04cf4b795879&#45;&gt;679becc0&#45;d615&#45;11ee&#45;9dd8&#45;04cf4b795879 -->
<g id="edge11" class="edge">
<title>679beb3a&#45;d615&#45;11ee&#45;9dd8&#45;04cf4b795879&#45;&gt;679becc0&#45;d615&#45;11ee&#45;9dd8&#45;04cf4b795879</title>
<path fill="none" stroke="black" d="M507.06,-425.06C509.52,-417.9 512.53,-409.14 515.65,-400.05"/>
<polygon fill="black" stroke="black" points="519.27,-401.31 519.21,-390.71 512.65,-399.03 519.27,-401.31"/>
</g>
</g>
</svg>
