<?xml version="1.0" encoding="UTF-8" standalone="no"?>
<!DOCTYPE svg PUBLIC "-//W3C//DTD SVG 1.1//EN"
 "http://www.w3.org/Graphics/SVG/1.1/DTD/svg11.dtd">
<!-- Generated by graphviz version 8.1.0 (20230707.0739)
 -->
<!-- Title: CallTree Pages: 1 -->
<svg width="804pt" height="267pt"
 viewBox="0.00 0.00 803.54 267.40" xmlns="http://www.w3.org/2000/svg" xmlns:xlink="http://www.w3.org/1999/xlink">
<g id="graph0" class="graph" transform="scale(1 1) rotate(0) translate(4 263.4)">
<title>CallTree</title>
<polygon fill="white" stroke="none" points="-4,4 -4,-263.4 799.54,-263.4 799.54,4 -4,4"/>
<!-- 6798b866&#45;d615&#45;11ee&#45;9dd8&#45;04cf4b795879 -->
<g id="node1" class="node">
<title>6798b866&#45;d615&#45;11ee&#45;9dd8&#45;04cf4b795879</title>
<polygon fill="none" stroke="black" points="440.88,-259.4 336.38,-259.4 336.38,-201.9 440.88,-201.9 440.88,-259.4"/>
<text text-anchor="middle" x="388.63" y="-242.1" font-family="Times,serif" font-size="14.00">a1: new_tender </text>
<text text-anchor="middle" x="388.63" y="-225.6" font-family="Times,serif" font-size="14.00"> Type: Core </text>
<text text-anchor="middle" x="388.63" y="-209.1" font-family="Times,serif" font-size="14.00"> Direction: Core</text>
</g>
<!-- 6798beec&#45;d615&#45;11ee&#45;9dd8&#45;04cf4b795879 -->
<g id="node2" class="node">
<title>6798beec&#45;d615&#45;11ee&#45;9dd8&#45;04cf4b795879</title>
<ellipse fill="none" stroke="black" cx="109.63" cy="-147.9" rx="50.84" ry="18"/>
<text text-anchor="middle" x="109.63" y="-142.85" font-family="Times,serif" font-size="14.00">r_1: level1</text>
</g>
<!-- 6798b866&#45;d615&#45;11ee&#45;9dd8&#45;04cf4b795879&#45;&gt;6798beec&#45;d615&#45;11ee&#45;9dd8&#45;04cf4b795879 -->
<g id="edge1" class="edge">
<title>6798b866&#45;d615&#45;11ee&#45;9dd8&#45;04cf4b795879&#45;&gt;6798beec&#45;d615&#45;11ee&#45;9dd8&#45;04cf4b795879</title>
<path fill="none" stroke="black" d="M336.15,-214.46C285.12,-199.69 208.22,-177.43 158.47,-163.03"/>
<polygon fill="black" stroke="black" points="159.55,-159.41 148.97,-160 157.61,-166.14 159.55,-159.41"/>
</g>
<!-- 6798c23e&#45;d615&#45;11ee&#45;9dd8&#45;04cf4b795879 -->
<g id="node4" class="node">
<title>6798c23e&#45;d615&#45;11ee&#45;9dd8&#45;04cf4b795879</title>
<ellipse fill="none" stroke="black" cx="248.63" cy="-147.9" rx="50.84" ry="18"/>
<text text-anchor="middle" x="248.63" y="-142.85" font-family="Times,serif" font-size="14.00">r_2: level2</text>
</g>
<!-- 6798b866&#45;d615&#45;11ee&#45;9dd8&#45;04cf4b795879&#45;&gt;6798c23e&#45;d615&#45;11ee&#45;9dd8&#45;04cf4b795879 -->
<g id="edge3" class="edge">
<title>6798b866&#45;d615&#45;11ee&#45;9dd8&#45;04cf4b795879&#45;&gt;6798c23e&#45;d615&#45;11ee&#45;9dd8&#45;04cf4b795879</title>
<path fill="none" stroke="black" d="M339.66,-201.4C321.34,-190.84 300.89,-179.04 284.03,-169.32"/>
<polygon fill="black" stroke="black" points="285.97,-165.82 275.56,-163.85 282.47,-171.88 285.97,-165.82"/>
</g>
<!-- 6798c52c&#45;d615&#45;11ee&#45;9dd8&#45;04cf4b795879 -->
<g id="node6" class="node">
<title>6798c52c&#45;d615&#45;11ee&#45;9dd8&#45;04cf4b795879</title>
<ellipse fill="none" stroke="black" cx="388.63" cy="-147.9" rx="50.84" ry="18"/>
<text text-anchor="middle" x="388.63" y="-142.85" font-family="Times,serif" font-size="14.00">r_4: level2</text>
</g>
<!-- 6798b866&#45;d615&#45;11ee&#45;9dd8&#45;04cf4b795879&#45;&gt;6798c52c&#45;d615&#45;11ee&#45;9dd8&#45;04cf4b795879 -->
<g id="edge5" class="edge">
<title>6798b866&#45;d615&#45;11ee&#45;9dd8&#45;04cf4b795879&#45;&gt;6798c52c&#45;d615&#45;11ee&#45;9dd8&#45;04cf4b795879</title>
<path fill="none" stroke="black" d="M388.63,-201.4C388.63,-193.46 388.63,-184.82 388.63,-176.89"/>
<polygon fill="black" stroke="black" points="392.13,-176.94 388.63,-166.94 385.13,-176.94 392.13,-176.94"/>
</g>
<!-- 6798c7e8&#45;d615&#45;11ee&#45;9dd8&#45;04cf4b795879 -->
<g id="node8" class="node">
<title>6798c7e8&#45;d615&#45;11ee&#45;9dd8&#45;04cf4b795879</title>
<ellipse fill="none" stroke="black" cx="530.63" cy="-147.9" rx="50.84" ry="18"/>
<text text-anchor="middle" x="530.63" y="-142.85" font-family="Times,serif" font-size="14.00">r_3: level3</text>
</g>
<!-- 6798b866&#45;d615&#45;11ee&#45;9dd8&#45;04cf4b795879&#45;&gt;6798c7e8&#45;d615&#45;11ee&#45;9dd8&#45;04cf4b795879 -->
<g id="edge7" class="edge">
<title>6798b866&#45;d615&#45;11ee&#45;9dd8&#45;04cf4b795879&#45;&gt;6798c7e8&#45;d615&#45;11ee&#45;9dd8&#45;04cf4b795879</title>
<path fill="none" stroke="black" d="M438.29,-201.4C457.19,-190.66 478.3,-178.65 495.57,-168.83"/>
<polygon fill="black" stroke="black" points="496.76,-171.61 503.73,-163.63 493.3,-165.53 496.76,-171.61"/>
</g>
<!-- 6798ca7c&#45;d615&#45;11ee&#45;9dd8&#45;04cf4b795879 -->
<g id="node10" class="node">
<title>6798ca7c&#45;d615&#45;11ee&#45;9dd8&#45;04cf4b795879</title>
<ellipse fill="none" stroke="black" cx="685.63" cy="-147.9" rx="50.84" ry="18"/>
<text text-anchor="middle" x="685.63" y="-142.85" font-family="Times,serif" font-size="14.00">r_5: level3</text>
</g>
<!-- 6798b866&#45;d615&#45;11ee&#45;9dd8&#45;04cf4b795879&#45;&gt;6798ca7c&#45;d615&#45;11ee&#45;9dd8&#45;04cf4b795879 -->
<g id="edge9" class="edge">
<title>6798b866&#45;d615&#45;11ee&#45;9dd8&#45;04cf4b795879&#45;&gt;6798ca7c&#45;d615&#45;11ee&#45;9dd8&#45;04cf4b795879</title>
<path fill="none" stroke="black" d="M441.04,-215.4C496,-200.46 581.72,-177.15 635.71,-162.47"/>
<polygon fill="black" stroke="black" points="636.34,-165.65 645.07,-159.65 634.5,-158.9 636.34,-165.65"/>
</g>
<!-- 6798c0c2&#45;d615&#45;11ee&#45;9dd8&#45;04cf4b795879 -->
<g id="node3" class="node">
<title>6798c0c2&#45;d615&#45;11ee&#45;9dd8&#45;04cf4b795879</title>
<polygon fill="none" stroke="black" points="141.25,-46.95 105.94,-93.9 35.31,-93.9 0,-46.95 35.31,0 105.94,0 141.25,-46.95"/>
<text text-anchor="middle" x="70.63" y="-58.4" font-family="Times,serif" font-size="14.00">rp_1: level1 </text>
<text text-anchor="middle" x="70.63" y="-41.9" font-family="Times,serif" font-size="14.00"> new_tender </text>
<text text-anchor="middle" x="70.63" y="-25.4" font-family="Times,serif" font-size="14.00"> cost : 47</text>
</g>
<!-- 6798beec&#45;d615&#45;11ee&#45;9dd8&#45;04cf4b795879&#45;&gt;6798c0c2&#45;d615&#45;11ee&#45;9dd8&#45;04cf4b795879 -->
<g id="edge2" class="edge">
<title>6798beec&#45;d615&#45;11ee&#45;9dd8&#45;04cf4b795879&#45;&gt;6798c0c2&#45;d615&#45;11ee&#45;9dd8&#45;04cf4b795879</title>
<path fill="none" stroke="black" d="M102.83,-129.66C99.98,-122.42 96.49,-113.56 92.86,-104.36"/>
<polygon fill="black" stroke="black" points="95.83,-103.34 88.9,-95.32 89.31,-105.9 95.83,-103.34"/>
</g>
<!-- 6798c3e2&#45;d615&#45;11ee&#45;9dd8&#45;04cf4b795879 -->
<g id="node5" class="node">
<title>6798c3e2&#45;d615&#45;11ee&#45;9dd8&#45;04cf4b795879</title>
<polygon fill="none" stroke="black" points="300.25,-46.95 264.94,-93.9 194.31,-93.9 159,-46.95 194.31,0 264.94,0 300.25,-46.95"/>
<text text-anchor="middle" x="229.63" y="-58.4" font-family="Times,serif" font-size="14.00">rp_6: level2 </text>
<text text-anchor="middle" x="229.63" y="-41.9" font-family="Times,serif" font-size="14.00"> new_tender </text>
<text text-anchor="middle" x="229.63" y="-25.4" font-family="Times,serif" font-size="14.00"> cost : 105</text>
</g>
<!-- 6798c23e&#45;d615&#45;11ee&#45;9dd8&#45;04cf4b795879&#45;&gt;6798c3e2&#45;d615&#45;11ee&#45;9dd8&#45;04cf4b795879 -->
<g id="edge4" class="edge">
<title>6798c23e&#45;d615&#45;11ee&#45;9dd8&#45;04cf4b795879&#45;&gt;6798c3e2&#45;d615&#45;11ee&#45;9dd8&#45;04cf4b795879</title>
<path fill="none" stroke="black" d="M245.32,-129.66C243.96,-122.58 242.3,-113.93 240.57,-104.95"/>
<polygon fill="black" stroke="black" points="243.85,-104.48 238.53,-95.32 236.98,-105.8 243.85,-104.48"/>
</g>
<!-- 6798c6b2&#45;d615&#45;11ee&#45;9dd8&#45;04cf4b795879 -->
<g id="node7" class="node">
<title>6798c6b2&#45;d615&#45;11ee&#45;9dd8&#45;04cf4b795879</title>
<polygon fill="none" stroke="black" points="459.25,-46.95 423.94,-93.9 353.31,-93.9 318,-46.95 353.31,0 423.94,0 459.25,-46.95"/>
<text text-anchor="middle" x="388.63" y="-58.4" font-family="Times,serif" font-size="14.00">rp_6: level2 </text>
<text text-anchor="middle" x="388.63" y="-41.9" font-family="Times,serif" font-size="14.00"> new_tender </text>
<text text-anchor="middle" x="388.63" y="-25.4" font-family="Times,serif" font-size="14.00"> cost : 121</text>
</g>
<!-- 6798c52c&#45;d615&#45;11ee&#45;9dd8&#45;04cf4b795879&#45;&gt;6798c6b2&#45;d615&#45;11ee&#45;9dd8&#45;04cf4b795879 -->
<g id="edge6" class="edge">
<title>6798c52c&#45;d615&#45;11ee&#45;9dd8&#45;04cf4b795879&#45;&gt;6798c6b2&#45;d615&#45;11ee&#45;9dd8&#45;04cf4b795879</title>
<path fill="none" stroke="black" d="M388.63,-129.66C388.63,-122.65 388.63,-114.12 388.63,-105.24"/>
<polygon fill="black" stroke="black" points="392.13,-105.32 388.63,-95.32 385.13,-105.32 392.13,-105.32"/>
</g>
<!-- 6798c950&#45;d615&#45;11ee&#45;9dd8&#45;04cf4b795879 -->
<g id="node9" class="node">
<title>6798c950&#45;d615&#45;11ee&#45;9dd8&#45;04cf4b795879</title>
<polygon fill="none" stroke="black" points="627.54,-46.95 590.08,-93.9 515.17,-93.9 477.71,-46.95 515.17,0 590.08,0 627.54,-46.95"/>
<text text-anchor="middle" x="552.63" y="-58.4" font-family="Times,serif" font-size="14.00">rp_13: level3 </text>
<text text-anchor="middle" x="552.63" y="-41.9" font-family="Times,serif" font-size="14.00"> new_tender </text>
<text text-anchor="middle" x="552.63" y="-25.4" font-family="Times,serif" font-size="14.00"> cost : 52</text>
</g>
<!-- 6798c7e8&#45;d615&#45;11ee&#45;9dd8&#45;04cf4b795879&#45;&gt;6798c950&#45;d615&#45;11ee&#45;9dd8&#45;04cf4b795879 -->
<g id="edge8" class="edge">
<title>6798c7e8&#45;d615&#45;11ee&#45;9dd8&#45;04cf4b795879&#45;&gt;6798c950&#45;d615&#45;11ee&#45;9dd8&#45;04cf4b795879</title>
<path fill="none" stroke="black" d="M534.46,-129.66C536.03,-122.58 537.96,-113.93 539.95,-104.95"/>
<polygon fill="black" stroke="black" points="543.56,-105.84 542.32,-95.32 536.73,-104.32 543.56,-105.84"/>
</g>
<!-- 6798cbe4&#45;d615&#45;11ee&#45;9dd8&#45;04cf4b795879 -->
<g id="node11" class="node">
<title>6798cbe4&#45;d615&#45;11ee&#45;9dd8&#45;04cf4b795879</title>
<polygon fill="none" stroke="black" points="795.54,-46.95 758.08,-93.9 683.17,-93.9 645.71,-46.95 683.17,0 758.08,0 795.54,-46.95"/>
<text text-anchor="middle" x="720.63" y="-58.4" font-family="Times,serif" font-size="14.00">rp_13: level3 </text>
<text text-anchor="middle" x="720.63" y="-41.9" font-family="Times,serif" font-size="14.00"> new_tender </text>
<text text-anchor="middle" x="720.63" y="-25.4" font-family="Times,serif" font-size="14.00"> cost : 120</text>
</g>
<!-- 6798ca7c&#45;d615&#45;11ee&#45;9dd8&#45;04cf4b795879&#45;&gt;6798cbe4&#45;d615&#45;11ee&#45;9dd8&#45;04cf4b795879 -->
<g id="edge10" class="edge">
<title>6798ca7c&#45;d615&#45;11ee&#45;9dd8&#45;04cf4b795879&#45;&gt;6798cbe4&#45;d615&#45;11ee&#45;9dd8&#45;04cf4b795879</title>
<path fill="none" stroke="black" d="M691.72,-129.66C694.26,-122.5 697.35,-113.74 700.57,-104.65"/>
<polygon fill="black" stroke="black" points="704.19,-105.91 704.23,-95.32 697.59,-103.58 704.19,-105.91"/>
</g>
</g>
</svg>
