<?xml version="1.0" encoding="UTF-8" standalone="no"?>
<!DOCTYPE svg PUBLIC "-//W3C//DTD SVG 1.1//EN"
 "http://www.w3.org/Graphics/SVG/1.1/DTD/svg11.dtd">
<!-- Generated by graphviz version 7.1.0 (0)
 -->
<!-- Title: CallTree Pages: 1 -->
<svg width="1097pt" height="539pt"
 viewBox="0.00 0.00 1096.90 539.10" xmlns="http://www.w3.org/2000/svg" xmlns:xlink="http://www.w3.org/1999/xlink">
<g id="graph0" class="graph" transform="scale(1 1) rotate(0) translate(4 535.1)">
<title>CallTree</title>
<polygon fill="white" stroke="none" points="-4,4 -4,-535.1 1092.9,-535.1 1092.9,4 -4,4"/>
<!-- f844d4bc&#45;d642&#45;11ee&#45;b104&#45;ac1a3ddd05c7 -->
<g id="node1" class="node">
<title>f844d4bc&#45;d642&#45;11ee&#45;b104&#45;ac1a3ddd05c7</title>
<polygon fill="none" stroke="black" points="732.28,-531.1 623.28,-531.1 623.28,-478.1 732.28,-478.1 732.28,-531.1"/>
<text text-anchor="middle" x="677.78" y="-515.9" font-family="Times,serif" font-size="14.00">a7: design_offer </text>
<text text-anchor="middle" x="677.78" y="-500.9" font-family="Times,serif" font-size="14.00"> Type: Core </text>
<text text-anchor="middle" x="677.78" y="-485.9" font-family="Times,serif" font-size="14.00"> Direction: Core</text>
</g>
<!-- f844dbc4&#45;d642&#45;11ee&#45;b104&#45;ac1a3ddd05c7 -->
<g id="node2" class="node">
<title>f844dbc4&#45;d642&#45;11ee&#45;b104&#45;ac1a3ddd05c7</title>
<ellipse fill="none" stroke="black" cx="394.78" cy="-424.1" rx="48.99" ry="18"/>
<text text-anchor="middle" x="394.78" y="-420.4" font-family="Times,serif" font-size="14.00">r_1: level1</text>
</g>
<!-- f844d4bc&#45;d642&#45;11ee&#45;b104&#45;ac1a3ddd05c7&#45;&gt;f844dbc4&#45;d642&#45;11ee&#45;b104&#45;ac1a3ddd05c7 -->
<g id="edge1" class="edge">
<title>f844d4bc&#45;d642&#45;11ee&#45;b104&#45;ac1a3ddd05c7&#45;&gt;f844dbc4&#45;d642&#45;11ee&#45;b104&#45;ac1a3ddd05c7</title>
<path fill="none" stroke="black" d="M622.88,-488.37C571.02,-473.98 493.96,-452.61 444.04,-438.76"/>
<polygon fill="black" stroke="black" points="445.23,-435.46 434.66,-436.16 443.36,-442.21 445.23,-435.46"/>
</g>
<!-- f844e678&#45;d642&#45;11ee&#45;b104&#45;ac1a3ddd05c7 -->
<g id="node11" class="node">
<title>f844e678&#45;d642&#45;11ee&#45;b104&#45;ac1a3ddd05c7</title>
<ellipse fill="none" stroke="black" cx="535.78" cy="-424.1" rx="48.99" ry="18"/>
<text text-anchor="middle" x="535.78" y="-420.4" font-family="Times,serif" font-size="14.00">r_2: level2</text>
</g>
<!-- f844d4bc&#45;d642&#45;11ee&#45;b104&#45;ac1a3ddd05c7&#45;&gt;f844e678&#45;d642&#45;11ee&#45;b104&#45;ac1a3ddd05c7 -->
<g id="edge10" class="edge">
<title>f844d4bc&#45;d642&#45;11ee&#45;b104&#45;ac1a3ddd05c7&#45;&gt;f844e678&#45;d642&#45;11ee&#45;b104&#45;ac1a3ddd05c7</title>
<path fill="none" stroke="black" d="M630.89,-477.68C611.71,-467.07 589.87,-455 571.96,-445.1"/>
<polygon fill="black" stroke="black" points="573.68,-442.05 563.24,-440.28 570.3,-448.18 573.68,-442.05"/>
</g>
<!-- f844e876&#45;d642&#45;11ee&#45;b104&#45;ac1a3ddd05c7 -->
<g id="node13" class="node">
<title>f844e876&#45;d642&#45;11ee&#45;b104&#45;ac1a3ddd05c7</title>
<ellipse fill="none" stroke="black" cx="677.78" cy="-424.1" rx="48.99" ry="18"/>
<text text-anchor="middle" x="677.78" y="-420.4" font-family="Times,serif" font-size="14.00">r_4: level2</text>
</g>
<!-- f844d4bc&#45;d642&#45;11ee&#45;b104&#45;ac1a3ddd05c7&#45;&gt;f844e876&#45;d642&#45;11ee&#45;b104&#45;ac1a3ddd05c7 -->
<g id="edge12" class="edge">
<title>f844d4bc&#45;d642&#45;11ee&#45;b104&#45;ac1a3ddd05c7&#45;&gt;f844e876&#45;d642&#45;11ee&#45;b104&#45;ac1a3ddd05c7</title>
<path fill="none" stroke="black" d="M677.78,-477.89C677.78,-470.17 677.78,-461.66 677.78,-453.76"/>
<polygon fill="black" stroke="black" points="681.28,-453.94 677.78,-443.94 674.28,-453.94 681.28,-453.94"/>
</g>
<!-- f844ea56&#45;d642&#45;11ee&#45;b104&#45;ac1a3ddd05c7 -->
<g id="node15" class="node">
<title>f844ea56&#45;d642&#45;11ee&#45;b104&#45;ac1a3ddd05c7</title>
<ellipse fill="none" stroke="black" cx="818.78" cy="-424.1" rx="48.99" ry="18"/>
<text text-anchor="middle" x="818.78" y="-420.4" font-family="Times,serif" font-size="14.00">r_3: level3</text>
</g>
<!-- f844d4bc&#45;d642&#45;11ee&#45;b104&#45;ac1a3ddd05c7&#45;&gt;f844ea56&#45;d642&#45;11ee&#45;b104&#45;ac1a3ddd05c7 -->
<g id="edge14" class="edge">
<title>f844d4bc&#45;d642&#45;11ee&#45;b104&#45;ac1a3ddd05c7&#45;&gt;f844ea56&#45;d642&#45;11ee&#45;b104&#45;ac1a3ddd05c7</title>
<path fill="none" stroke="black" d="M724.34,-477.68C743.38,-467.07 765.07,-455 782.85,-445.1"/>
<polygon fill="black" stroke="black" points="784.47,-448.2 791.5,-440.28 781.06,-442.09 784.47,-448.2"/>
</g>
<!-- f844ed80&#45;d642&#45;11ee&#45;b104&#45;ac1a3ddd05c7 -->
<g id="node18" class="node">
<title>f844ed80&#45;d642&#45;11ee&#45;b104&#45;ac1a3ddd05c7</title>
<ellipse fill="none" stroke="black" cx="973.78" cy="-424.1" rx="48.99" ry="18"/>
<text text-anchor="middle" x="973.78" y="-420.4" font-family="Times,serif" font-size="14.00">r_5: level3</text>
</g>
<!-- f844d4bc&#45;d642&#45;11ee&#45;b104&#45;ac1a3ddd05c7&#45;&gt;f844ed80&#45;d642&#45;11ee&#45;b104&#45;ac1a3ddd05c7 -->
<g id="edge17" class="edge">
<title>f844d4bc&#45;d642&#45;11ee&#45;b104&#45;ac1a3ddd05c7&#45;&gt;f844ed80&#45;d642&#45;11ee&#45;b104&#45;ac1a3ddd05c7</title>
<path fill="none" stroke="black" d="M732.76,-489.02C787.7,-474.45 871.41,-452.25 924.32,-438.21"/>
<polygon fill="black" stroke="black" points="924.89,-441.68 933.66,-435.74 923.09,-434.92 924.89,-441.68"/>
</g>
<!-- f844dd22&#45;d642&#45;11ee&#45;b104&#45;ac1a3ddd05c7 -->
<g id="node3" class="node">
<title>f844dd22&#45;d642&#45;11ee&#45;b104&#45;ac1a3ddd05c7</title>
<polygon fill="none" stroke="black" points="417.01,-326.82 379.4,-369.87 304.16,-369.87 266.54,-326.82 304.16,-283.77 379.4,-283.77 417.01,-326.82"/>
<text text-anchor="middle" x="341.78" y="-338.12" font-family="Times,serif" font-size="14.00">rp_4: level1 </text>
<text text-anchor="middle" x="341.78" y="-323.12" font-family="Times,serif" font-size="14.00"> design_offer </text>
<text text-anchor="middle" x="341.78" y="-308.12" font-family="Times,serif" font-size="14.00"> cost : 110</text>
</g>
<!-- f844dbc4&#45;d642&#45;11ee&#45;b104&#45;ac1a3ddd05c7&#45;&gt;f844dd22&#45;d642&#45;11ee&#45;b104&#45;ac1a3ddd05c7 -->
<g id="edge2" class="edge">
<title>f844dbc4&#45;d642&#45;11ee&#45;b104&#45;ac1a3ddd05c7&#45;&gt;f844dd22&#45;d642&#45;11ee&#45;b104&#45;ac1a3ddd05c7</title>
<path fill="none" stroke="black" d="M385.3,-406.06C381.15,-398.6 376.03,-389.39 370.77,-379.94"/>
<polygon fill="black" stroke="black" points="373.94,-378.44 366.02,-371.4 367.82,-381.84 373.94,-378.44"/>
</g>
<!-- f844de30&#45;d642&#45;11ee&#45;b104&#45;ac1a3ddd05c7 -->
<g id="node4" class="node">
<title>f844de30&#45;d642&#45;11ee&#45;b104&#45;ac1a3ddd05c7</title>
<polygon fill="none" stroke="black" points="418.78,-247.55 264.78,-247.55 264.78,-194.55 418.78,-194.55 418.78,-247.55"/>
<text text-anchor="middle" x="341.78" y="-232.35" font-family="Times,serif" font-size="14.00">r10: four_eyes_principle </text>
<text text-anchor="middle" x="341.78" y="-217.35" font-family="Times,serif" font-size="14.00"> Type: insert </text>
<text text-anchor="middle" x="341.78" y="-202.35" font-family="Times,serif" font-size="14.00"> Direction: parallel</text>
</g>
<!-- f844dd22&#45;d642&#45;11ee&#45;b104&#45;ac1a3ddd05c7&#45;&gt;f844de30&#45;d642&#45;11ee&#45;b104&#45;ac1a3ddd05c7 -->
<g id="edge3" class="edge">
<title>f844dd22&#45;d642&#45;11ee&#45;b104&#45;ac1a3ddd05c7&#45;&gt;f844de30&#45;d642&#45;11ee&#45;b104&#45;ac1a3ddd05c7</title>
<path fill="none" stroke="black" d="M341.78,-283.31C341.78,-275.36 341.78,-267.1 341.78,-259.32"/>
<polygon fill="black" stroke="black" points="345.28,-259.49 341.78,-249.49 338.28,-259.49 345.28,-259.49"/>
</g>
<!-- f844e01a&#45;d642&#45;11ee&#45;b104&#45;ac1a3ddd05c7 -->
<g id="node5" class="node">
<title>f844e01a&#45;d642&#45;11ee&#45;b104&#45;ac1a3ddd05c7</title>
<ellipse fill="none" stroke="black" cx="167.78" cy="-140.55" rx="48.99" ry="18"/>
<text text-anchor="middle" x="167.78" y="-136.85" font-family="Times,serif" font-size="14.00">r_4: level2</text>
</g>
<!-- f844de30&#45;d642&#45;11ee&#45;b104&#45;ac1a3ddd05c7&#45;&gt;f844e01a&#45;d642&#45;11ee&#45;b104&#45;ac1a3ddd05c7 -->
<g id="edge4" class="edge">
<title>f844de30&#45;d642&#45;11ee&#45;b104&#45;ac1a3ddd05c7&#45;&gt;f844e01a&#45;d642&#45;11ee&#45;b104&#45;ac1a3ddd05c7</title>
<path fill="none" stroke="black" d="M284.32,-194.13C259.37,-182.87 230.74,-169.95 208.1,-159.74"/>
<polygon fill="black" stroke="black" points="209.76,-156.65 199.21,-155.73 206.88,-163.03 209.76,-156.65"/>
</g>
<!-- f844e24a&#45;d642&#45;11ee&#45;b104&#45;ac1a3ddd05c7 -->
<g id="node7" class="node">
<title>f844e24a&#45;d642&#45;11ee&#45;b104&#45;ac1a3ddd05c7</title>
<ellipse fill="none" stroke="black" cx="341.78" cy="-140.55" rx="48.99" ry="18"/>
<text text-anchor="middle" x="341.78" y="-136.85" font-family="Times,serif" font-size="14.00">r_3: level3</text>
</g>
<!-- f844de30&#45;d642&#45;11ee&#45;b104&#45;ac1a3ddd05c7&#45;&gt;f844e24a&#45;d642&#45;11ee&#45;b104&#45;ac1a3ddd05c7 -->
<g id="edge6" class="edge">
<title>f844de30&#45;d642&#45;11ee&#45;b104&#45;ac1a3ddd05c7&#45;&gt;f844e24a&#45;d642&#45;11ee&#45;b104&#45;ac1a3ddd05c7</title>
<path fill="none" stroke="black" d="M341.78,-194.34C341.78,-186.62 341.78,-178.11 341.78,-170.21"/>
<polygon fill="black" stroke="black" points="345.28,-170.39 341.78,-160.39 338.28,-170.39 345.28,-170.39"/>
</g>
<!-- f844e470&#45;d642&#45;11ee&#45;b104&#45;ac1a3ddd05c7 -->
<g id="node9" class="node">
<title>f844e470&#45;d642&#45;11ee&#45;b104&#45;ac1a3ddd05c7</title>
<ellipse fill="none" stroke="black" cx="515.78" cy="-140.55" rx="48.99" ry="18"/>
<text text-anchor="middle" x="515.78" y="-136.85" font-family="Times,serif" font-size="14.00">r_5: level3</text>
</g>
<!-- f844de30&#45;d642&#45;11ee&#45;b104&#45;ac1a3ddd05c7&#45;&gt;f844e470&#45;d642&#45;11ee&#45;b104&#45;ac1a3ddd05c7 -->
<g id="edge8" class="edge">
<title>f844de30&#45;d642&#45;11ee&#45;b104&#45;ac1a3ddd05c7&#45;&gt;f844e470&#45;d642&#45;11ee&#45;b104&#45;ac1a3ddd05c7</title>
<path fill="none" stroke="black" d="M399.23,-194.13C424.19,-182.87 452.82,-169.95 475.46,-159.74"/>
<polygon fill="black" stroke="black" points="476.67,-163.03 484.35,-155.73 473.79,-156.65 476.67,-163.03"/>
</g>
<!-- f844e150&#45;d642&#45;11ee&#45;b104&#45;ac1a3ddd05c7 -->
<g id="node6" class="node">
<title>f844e150&#45;d642&#45;11ee&#45;b104&#45;ac1a3ddd05c7</title>
<polygon fill="none" stroke="black" points="215.33,-43.27 161.56,-86.32 54,-86.32 0.22,-43.27 54,-0.22 161.56,-0.22 215.33,-43.27"/>
<text text-anchor="middle" x="107.78" y="-54.57" font-family="Times,serif" font-size="14.00">rp_24: level3 </text>
<text text-anchor="middle" x="107.78" y="-39.57" font-family="Times,serif" font-size="14.00"> four_eyes_principle </text>
<text text-anchor="middle" x="107.78" y="-24.57" font-family="Times,serif" font-size="14.00"> cost : 123</text>
</g>
<!-- f844e01a&#45;d642&#45;11ee&#45;b104&#45;ac1a3ddd05c7&#45;&gt;f844e150&#45;d642&#45;11ee&#45;b104&#45;ac1a3ddd05c7 -->
<g id="edge5" class="edge">
<title>f844e01a&#45;d642&#45;11ee&#45;b104&#45;ac1a3ddd05c7&#45;&gt;f844e150&#45;d642&#45;11ee&#45;b104&#45;ac1a3ddd05c7</title>
<path fill="none" stroke="black" d="M157.05,-122.52C152.3,-114.97 146.43,-105.64 140.41,-96.09"/>
<polygon fill="black" stroke="black" points="143.48,-94.4 135.19,-87.81 137.56,-98.13 143.48,-94.4"/>
</g>
<!-- f844e36c&#45;d642&#45;11ee&#45;b104&#45;ac1a3ddd05c7 -->
<g id="node8" class="node">
<title>f844e36c&#45;d642&#45;11ee&#45;b104&#45;ac1a3ddd05c7</title>
<polygon fill="none" stroke="black" points="449.33,-43.27 395.56,-86.32 288,-86.32 234.22,-43.27 288,-0.22 395.56,-0.22 449.33,-43.27"/>
<text text-anchor="middle" x="341.78" y="-54.57" font-family="Times,serif" font-size="14.00">rp_24: level3 </text>
<text text-anchor="middle" x="341.78" y="-39.57" font-family="Times,serif" font-size="14.00"> four_eyes_principle </text>
<text text-anchor="middle" x="341.78" y="-24.57" font-family="Times,serif" font-size="14.00"> cost : 84</text>
</g>
<!-- f844e24a&#45;d642&#45;11ee&#45;b104&#45;ac1a3ddd05c7&#45;&gt;f844e36c&#45;d642&#45;11ee&#45;b104&#45;ac1a3ddd05c7 -->
<g id="edge7" class="edge">
<title>f844e24a&#45;d642&#45;11ee&#45;b104&#45;ac1a3ddd05c7&#45;&gt;f844e36c&#45;d642&#45;11ee&#45;b104&#45;ac1a3ddd05c7</title>
<path fill="none" stroke="black" d="M341.78,-122.07C341.78,-115.13 341.78,-106.72 341.78,-98.05"/>
<polygon fill="black" stroke="black" points="345.28,-98.09 341.78,-88.09 338.28,-98.09 345.28,-98.09"/>
</g>
<!-- f844e592&#45;d642&#45;11ee&#45;b104&#45;ac1a3ddd05c7 -->
<g id="node10" class="node">
<title>f844e592&#45;d642&#45;11ee&#45;b104&#45;ac1a3ddd05c7</title>
<polygon fill="none" stroke="black" points="683.33,-43.27 629.56,-86.32 522,-86.32 468.22,-43.27 522,-0.22 629.56,-0.22 683.33,-43.27"/>
<text text-anchor="middle" x="575.78" y="-54.57" font-family="Times,serif" font-size="14.00">rp_24: level3 </text>
<text text-anchor="middle" x="575.78" y="-39.57" font-family="Times,serif" font-size="14.00"> four_eyes_principle </text>
<text text-anchor="middle" x="575.78" y="-24.57" font-family="Times,serif" font-size="14.00"> cost : 29</text>
</g>
<!-- f844e470&#45;d642&#45;11ee&#45;b104&#45;ac1a3ddd05c7&#45;&gt;f844e592&#45;d642&#45;11ee&#45;b104&#45;ac1a3ddd05c7 -->
<g id="edge9" class="edge">
<title>f844e470&#45;d642&#45;11ee&#45;b104&#45;ac1a3ddd05c7&#45;&gt;f844e592&#45;d642&#45;11ee&#45;b104&#45;ac1a3ddd05c7</title>
<path fill="none" stroke="black" d="M526.5,-122.52C531.26,-114.97 537.13,-105.64 543.14,-96.09"/>
<polygon fill="black" stroke="black" points="545.99,-98.13 548.36,-87.81 540.07,-94.4 545.99,-98.13"/>
</g>
<!-- f844e790&#45;d642&#45;11ee&#45;b104&#45;ac1a3ddd05c7 -->
<g id="node12" class="node">
<title>f844e790&#45;d642&#45;11ee&#45;b104&#45;ac1a3ddd05c7</title>
<polygon fill="none" stroke="black" points="585.01,-326.82 547.4,-369.87 472.16,-369.87 434.54,-326.82 472.16,-283.77 547.4,-283.77 585.01,-326.82"/>
<text text-anchor="middle" x="509.78" y="-338.12" font-family="Times,serif" font-size="14.00">rp_89: level2 </text>
<text text-anchor="middle" x="509.78" y="-323.12" font-family="Times,serif" font-size="14.00"> design_offer </text>
<text text-anchor="middle" x="509.78" y="-308.12" font-family="Times,serif" font-size="14.00"> cost : 43</text>
</g>
<!-- f844e678&#45;d642&#45;11ee&#45;b104&#45;ac1a3ddd05c7&#45;&gt;f844e790&#45;d642&#45;11ee&#45;b104&#45;ac1a3ddd05c7 -->
<g id="edge11" class="edge">
<title>f844e678&#45;d642&#45;11ee&#45;b104&#45;ac1a3ddd05c7&#45;&gt;f844e790&#45;d642&#45;11ee&#45;b104&#45;ac1a3ddd05c7</title>
<path fill="none" stroke="black" d="M531.13,-406.06C529.18,-398.91 526.79,-390.16 524.33,-381.13"/>
<polygon fill="black" stroke="black" points="527.72,-380.26 521.71,-371.54 520.96,-382.1 527.72,-380.26"/>
</g>
<!-- f844e984&#45;d642&#45;11ee&#45;b104&#45;ac1a3ddd05c7 -->
<g id="node14" class="node">
<title>f844e984&#45;d642&#45;11ee&#45;b104&#45;ac1a3ddd05c7</title>
<polygon fill="none" stroke="black" points="753.01,-326.82 715.4,-369.87 640.16,-369.87 602.54,-326.82 640.16,-283.77 715.4,-283.77 753.01,-326.82"/>
<text text-anchor="middle" x="677.78" y="-338.12" font-family="Times,serif" font-size="14.00">rp_99: level2 </text>
<text text-anchor="middle" x="677.78" y="-323.12" font-family="Times,serif" font-size="14.00"> design_offer </text>
<text text-anchor="middle" x="677.78" y="-308.12" font-family="Times,serif" font-size="14.00"> cost : 55</text>
</g>
<!-- f844e876&#45;d642&#45;11ee&#45;b104&#45;ac1a3ddd05c7&#45;&gt;f844e984&#45;d642&#45;11ee&#45;b104&#45;ac1a3ddd05c7 -->
<g id="edge13" class="edge">
<title>f844e876&#45;d642&#45;11ee&#45;b104&#45;ac1a3ddd05c7&#45;&gt;f844e984&#45;d642&#45;11ee&#45;b104&#45;ac1a3ddd05c7</title>
<path fill="none" stroke="black" d="M677.78,-405.62C677.78,-398.67 677.78,-390.27 677.78,-381.6"/>
<polygon fill="black" stroke="black" points="681.28,-381.64 677.78,-371.64 674.28,-381.64 681.28,-381.64"/>
</g>
<!-- f844eb64&#45;d642&#45;11ee&#45;b104&#45;ac1a3ddd05c7 -->
<g id="node16" class="node">
<title>f844eb64&#45;d642&#45;11ee&#45;b104&#45;ac1a3ddd05c7</title>
<polygon fill="none" stroke="black" points="921.01,-326.82 883.4,-369.87 808.16,-369.87 770.54,-326.82 808.16,-283.77 883.4,-283.77 921.01,-326.82"/>
<text text-anchor="middle" x="845.78" y="-338.12" font-family="Times,serif" font-size="14.00">rp_9: level3 </text>
<text text-anchor="middle" x="845.78" y="-323.12" font-family="Times,serif" font-size="14.00"> design_offer </text>
<text text-anchor="middle" x="845.78" y="-308.12" font-family="Times,serif" font-size="14.00"> cost : 80</text>
</g>
<!-- f844ea56&#45;d642&#45;11ee&#45;b104&#45;ac1a3ddd05c7&#45;&gt;f844eb64&#45;d642&#45;11ee&#45;b104&#45;ac1a3ddd05c7 -->
<g id="edge15" class="edge">
<title>f844ea56&#45;d642&#45;11ee&#45;b104&#45;ac1a3ddd05c7&#45;&gt;f844eb64&#45;d642&#45;11ee&#45;b104&#45;ac1a3ddd05c7</title>
<path fill="none" stroke="black" d="M823.6,-406.06C825.63,-398.91 828.11,-390.16 830.67,-381.13"/>
<polygon fill="black" stroke="black" points="834.03,-382.11 833.39,-371.53 827.3,-380.2 834.03,-382.11"/>
</g>
<!-- f844ec40&#45;d642&#45;11ee&#45;b104&#45;ac1a3ddd05c7 -->
<g id="node17" class="node">
<title>f844ec40&#45;d642&#45;11ee&#45;b104&#45;ac1a3ddd05c7</title>
<polygon fill="none" stroke="black" points="894.78,-247.55 796.78,-247.55 796.78,-194.55 894.78,-194.55 894.78,-247.55"/>
<text text-anchor="middle" x="845.78" y="-232.35" font-family="Times,serif" font-size="14.00">a8: send_offer </text>
<text text-anchor="middle" x="845.78" y="-217.35" font-family="Times,serif" font-size="14.00"> Type: delete </text>
<text text-anchor="middle" x="845.78" y="-202.35" font-family="Times,serif" font-size="14.00"> Direction: any</text>
</g>
<!-- f844eb64&#45;d642&#45;11ee&#45;b104&#45;ac1a3ddd05c7&#45;&gt;f844ec40&#45;d642&#45;11ee&#45;b104&#45;ac1a3ddd05c7 -->
<g id="edge16" class="edge">
<title>f844eb64&#45;d642&#45;11ee&#45;b104&#45;ac1a3ddd05c7&#45;&gt;f844ec40&#45;d642&#45;11ee&#45;b104&#45;ac1a3ddd05c7</title>
<path fill="none" stroke="black" d="M845.78,-283.31C845.78,-275.36 845.78,-267.1 845.78,-259.32"/>
<polygon fill="black" stroke="black" points="849.28,-259.49 845.78,-249.49 842.28,-259.49 849.28,-259.49"/>
</g>
<!-- f844eeac&#45;d642&#45;11ee&#45;b104&#45;ac1a3ddd05c7 -->
<g id="node19" class="node">
<title>f844eeac&#45;d642&#45;11ee&#45;b104&#45;ac1a3ddd05c7</title>
<polygon fill="none" stroke="black" points="1089.01,-326.82 1051.4,-369.87 976.16,-369.87 938.54,-326.82 976.16,-283.77 1051.4,-283.77 1089.01,-326.82"/>
<text text-anchor="middle" x="1013.78" y="-338.12" font-family="Times,serif" font-size="14.00">rp_9: level3 </text>
<text text-anchor="middle" x="1013.78" y="-323.12" font-family="Times,serif" font-size="14.00"> design_offer </text>
<text text-anchor="middle" x="1013.78" y="-308.12" font-family="Times,serif" font-size="14.00"> cost : 107</text>
</g>
<!-- f844ed80&#45;d642&#45;11ee&#45;b104&#45;ac1a3ddd05c7&#45;&gt;f844eeac&#45;d642&#45;11ee&#45;b104&#45;ac1a3ddd05c7 -->
<g id="edge18" class="edge">
<title>f844ed80&#45;d642&#45;11ee&#45;b104&#45;ac1a3ddd05c7&#45;&gt;f844eeac&#45;d642&#45;11ee&#45;b104&#45;ac1a3ddd05c7</title>
<path fill="none" stroke="black" d="M980.93,-406.06C984,-398.75 987.77,-389.77 991.65,-380.54"/>
<polygon fill="black" stroke="black" points="994.81,-382.05 995.45,-371.47 988.35,-379.34 994.81,-382.05"/>
</g>
<!-- f844ef92&#45;d642&#45;11ee&#45;b104&#45;ac1a3ddd05c7 -->
<g id="node20" class="node">
<title>f844ef92&#45;d642&#45;11ee&#45;b104&#45;ac1a3ddd05c7</title>
<polygon fill="none" stroke="black" points="1062.78,-247.55 964.78,-247.55 964.78,-194.55 1062.78,-194.55 1062.78,-247.55"/>
<text text-anchor="middle" x="1013.78" y="-232.35" font-family="Times,serif" font-size="14.00">a8: send_offer </text>
<text text-anchor="middle" x="1013.78" y="-217.35" font-family="Times,serif" font-size="14.00"> Type: delete </text>
<text text-anchor="middle" x="1013.78" y="-202.35" font-family="Times,serif" font-size="14.00"> Direction: any</text>
</g>
<!-- f844eeac&#45;d642&#45;11ee&#45;b104&#45;ac1a3ddd05c7&#45;&gt;f844ef92&#45;d642&#45;11ee&#45;b104&#45;ac1a3ddd05c7 -->
<g id="edge19" class="edge">
<title>f844eeac&#45;d642&#45;11ee&#45;b104&#45;ac1a3ddd05c7&#45;&gt;f844ef92&#45;d642&#45;11ee&#45;b104&#45;ac1a3ddd05c7</title>
<path fill="none" stroke="black" d="M1013.78,-283.31C1013.78,-275.36 1013.78,-267.1 1013.78,-259.32"/>
<polygon fill="black" stroke="black" points="1017.28,-259.49 1013.78,-249.49 1010.28,-259.49 1017.28,-259.49"/>
</g>
</g>
</svg>
