<?xml version="1.0" encoding="UTF-8" standalone="no"?>
<!DOCTYPE svg PUBLIC "-//W3C//DTD SVG 1.1//EN"
 "http://www.w3.org/Graphics/SVG/1.1/DTD/svg11.dtd">
<!-- Generated by graphviz version 8.1.0 (20230707.0739)
 -->
<!-- Title: CallTree Pages: 1 -->
<svg width="272pt" height="267pt"
 viewBox="0.00 0.00 271.73 267.40" xmlns="http://www.w3.org/2000/svg" xmlns:xlink="http://www.w3.org/1999/xlink">
<g id="graph0" class="graph" transform="scale(1 1) rotate(0) translate(4 263.4)">
<title>CallTree</title>
<polygon fill="white" stroke="none" points="-4,4 -4,-263.4 267.73,-263.4 267.73,4 -4,4"/>
<!-- 67b150ce&#45;d615&#45;11ee&#45;9dd8&#45;04cf4b795879 -->
<g id="node1" class="node">
<title>67b150ce&#45;d615&#45;11ee&#45;9dd8&#45;04cf4b795879</title>
<polygon fill="none" stroke="black" points="220.86,-259.4 42.86,-259.4 42.86,-201.9 220.86,-201.9 220.86,-259.4"/>
<text text-anchor="middle" x="131.86" y="-242.1" font-family="Times,serif" font-size="14.00">a6: handover_to_engineering </text>
<text text-anchor="middle" x="131.86" y="-225.6" font-family="Times,serif" font-size="14.00"> Type: Core </text>
<text text-anchor="middle" x="131.86" y="-209.1" font-family="Times,serif" font-size="14.00"> Direction: Core</text>
</g>
<!-- 67b159ca&#45;d615&#45;11ee&#45;9dd8&#45;04cf4b795879 -->
<g id="node2" class="node">
<title>67b159ca&#45;d615&#45;11ee&#45;9dd8&#45;04cf4b795879</title>
<ellipse fill="none" stroke="black" cx="131.86" cy="-147.9" rx="50.84" ry="18"/>
<text text-anchor="middle" x="131.86" y="-142.85" font-family="Times,serif" font-size="14.00">r_1: level1</text>
</g>
<!-- 67b150ce&#45;d615&#45;11ee&#45;9dd8&#45;04cf4b795879&#45;&gt;67b159ca&#45;d615&#45;11ee&#45;9dd8&#45;04cf4b795879 -->
<g id="edge1" class="edge">
<title>67b150ce&#45;d615&#45;11ee&#45;9dd8&#45;04cf4b795879&#45;&gt;67b159ca&#45;d615&#45;11ee&#45;9dd8&#45;04cf4b795879</title>
<path fill="none" stroke="black" d="M131.86,-201.4C131.86,-193.46 131.86,-184.82 131.86,-176.89"/>
<polygon fill="black" stroke="black" points="135.36,-176.94 131.86,-166.94 128.36,-176.94 135.36,-176.94"/>
</g>
<!-- 67b15dd0&#45;d615&#45;11ee&#45;9dd8&#45;04cf4b795879 -->
<g id="node3" class="node">
<title>67b15dd0&#45;d615&#45;11ee&#45;9dd8&#45;04cf4b795879</title>
<polygon fill="none" stroke="black" points="263.73,-46.95 197.8,-93.9 65.93,-93.9 0,-46.95 65.93,0 197.8,0 263.73,-46.95"/>
<text text-anchor="middle" x="131.86" y="-58.4" font-family="Times,serif" font-size="14.00">rp_16: level3 </text>
<text text-anchor="middle" x="131.86" y="-41.9" font-family="Times,serif" font-size="14.00"> handover_to_engineering </text>
<text text-anchor="middle" x="131.86" y="-25.4" font-family="Times,serif" font-size="14.00"> cost : 73</text>
</g>
<!-- 67b159ca&#45;d615&#45;11ee&#45;9dd8&#45;04cf4b795879&#45;&gt;67b15dd0&#45;d615&#45;11ee&#45;9dd8&#45;04cf4b795879 -->
<g id="edge2" class="edge">
<title>67b159ca&#45;d615&#45;11ee&#45;9dd8&#45;04cf4b795879&#45;&gt;67b15dd0&#45;d615&#45;11ee&#45;9dd8&#45;04cf4b795879</title>
<path fill="none" stroke="black" d="M131.86,-129.66C131.86,-122.65 131.86,-114.12 131.86,-105.24"/>
<polygon fill="black" stroke="black" points="135.36,-105.32 131.86,-95.32 128.36,-105.32 135.36,-105.32"/>
</g>
</g>
</svg>
