<?xml version="1.0" encoding="UTF-8" standalone="no"?>
<!DOCTYPE svg PUBLIC "-//W3C//DTD SVG 1.1//EN"
 "http://www.w3.org/Graphics/SVG/1.1/DTD/svg11.dtd">
<!-- Generated by graphviz version 8.1.0 (20230707.0739)
 -->
<!-- Title: CallTree Pages: 1 -->
<svg width="1095pt" height="563pt"
 viewBox="0.00 0.00 1095.28 562.79" xmlns="http://www.w3.org/2000/svg" xmlns:xlink="http://www.w3.org/1999/xlink">
<g id="graph0" class="graph" transform="scale(1 1) rotate(0) translate(4 558.79)">
<title>CallTree</title>
<polygon fill="white" stroke="none" points="-4,4 -4,-558.79 1091.28,-558.79 1091.28,4 -4,4"/>
<!-- 67a88f34&#45;d615&#45;11ee&#45;9dd8&#45;04cf4b795879 -->
<g id="node1" class="node">
<title>67a88f34&#45;d615&#45;11ee&#45;9dd8&#45;04cf4b795879</title>
<polygon fill="none" stroke="black" points="730.49,-554.79 622.24,-554.79 622.24,-497.29 730.49,-497.29 730.49,-554.79"/>
<text text-anchor="middle" x="676.37" y="-537.49" font-family="Times,serif" font-size="14.00">a7: design_offer </text>
<text text-anchor="middle" x="676.37" y="-520.99" font-family="Times,serif" font-size="14.00"> Type: Core </text>
<text text-anchor="middle" x="676.37" y="-504.49" font-family="Times,serif" font-size="14.00"> Direction: Core</text>
</g>
<!-- 67a89fa6&#45;d615&#45;11ee&#45;9dd8&#45;04cf4b795879 -->
<g id="node2" class="node">
<title>67a89fa6&#45;d615&#45;11ee&#45;9dd8&#45;04cf4b795879</title>
<ellipse fill="none" stroke="black" cx="388.37" cy="-443.29" rx="50.84" ry="18"/>
<text text-anchor="middle" x="388.37" y="-438.24" font-family="Times,serif" font-size="14.00">r_1: level1</text>
</g>
<!-- 67a88f34&#45;d615&#45;11ee&#45;9dd8&#45;04cf4b795879&#45;&gt;67a89fa6&#45;d615&#45;11ee&#45;9dd8&#45;04cf4b795879 -->
<g id="edge1" class="edge">
<title>67a88f34&#45;d615&#45;11ee&#45;9dd8&#45;04cf4b795879&#45;&gt;67a89fa6&#45;d615&#45;11ee&#45;9dd8&#45;04cf4b795879</title>
<path fill="none" stroke="black" d="M621.86,-509.76C568.88,-494.91 489.12,-472.54 437.9,-458.18"/>
<polygon fill="black" stroke="black" points="439,-454.57 428.42,-455.24 437.11,-461.31 439,-454.57"/>
</g>
<!-- 67a8c31e&#45;d615&#45;11ee&#45;9dd8&#45;04cf4b795879 -->
<g id="node11" class="node">
<title>67a8c31e&#45;d615&#45;11ee&#45;9dd8&#45;04cf4b795879</title>
<ellipse fill="none" stroke="black" cx="532.37" cy="-443.29" rx="50.84" ry="18"/>
<text text-anchor="middle" x="532.37" y="-438.24" font-family="Times,serif" font-size="14.00">r_2: level2</text>
</g>
<!-- 67a88f34&#45;d615&#45;11ee&#45;9dd8&#45;04cf4b795879&#45;&gt;67a8c31e&#45;d615&#45;11ee&#45;9dd8&#45;04cf4b795879 -->
<g id="edge10" class="edge">
<title>67a88f34&#45;d615&#45;11ee&#45;9dd8&#45;04cf4b795879&#45;&gt;67a8c31e&#45;d615&#45;11ee&#45;9dd8&#45;04cf4b795879</title>
<path fill="none" stroke="black" d="M626.01,-496.8C606.84,-486.06 585.43,-474.05 567.92,-464.23"/>
<polygon fill="black" stroke="black" points="570.07,-460.86 559.63,-459.02 566.64,-466.97 570.07,-460.86"/>
</g>
<!-- 67a8ca58&#45;d615&#45;11ee&#45;9dd8&#45;04cf4b795879 -->
<g id="node13" class="node">
<title>67a8ca58&#45;d615&#45;11ee&#45;9dd8&#45;04cf4b795879</title>
<ellipse fill="none" stroke="black" cx="676.37" cy="-443.29" rx="50.84" ry="18"/>
<text text-anchor="middle" x="676.37" y="-438.24" font-family="Times,serif" font-size="14.00">r_4: level2</text>
</g>
<!-- 67a88f34&#45;d615&#45;11ee&#45;9dd8&#45;04cf4b795879&#45;&gt;67a8ca58&#45;d615&#45;11ee&#45;9dd8&#45;04cf4b795879 -->
<g id="edge12" class="edge">
<title>67a88f34&#45;d615&#45;11ee&#45;9dd8&#45;04cf4b795879&#45;&gt;67a8ca58&#45;d615&#45;11ee&#45;9dd8&#45;04cf4b795879</title>
<path fill="none" stroke="black" d="M676.37,-496.8C676.37,-488.86 676.37,-480.22 676.37,-472.29"/>
<polygon fill="black" stroke="black" points="679.87,-472.34 676.37,-462.34 672.87,-472.34 679.87,-472.34"/>
</g>
<!-- 67a8d16a&#45;d615&#45;11ee&#45;9dd8&#45;04cf4b795879 -->
<g id="node15" class="node">
<title>67a8d16a&#45;d615&#45;11ee&#45;9dd8&#45;04cf4b795879</title>
<ellipse fill="none" stroke="black" cx="820.37" cy="-443.29" rx="50.84" ry="18"/>
<text text-anchor="middle" x="820.37" y="-438.24" font-family="Times,serif" font-size="14.00">r_3: level3</text>
</g>
<!-- 67a88f34&#45;d615&#45;11ee&#45;9dd8&#45;04cf4b795879&#45;&gt;67a8d16a&#45;d615&#45;11ee&#45;9dd8&#45;04cf4b795879 -->
<g id="edge14" class="edge">
<title>67a88f34&#45;d615&#45;11ee&#45;9dd8&#45;04cf4b795879&#45;&gt;67a8d16a&#45;d615&#45;11ee&#45;9dd8&#45;04cf4b795879</title>
<path fill="none" stroke="black" d="M726.73,-496.8C745.89,-486.06 767.31,-474.05 784.82,-464.23"/>
<polygon fill="black" stroke="black" points="786.09,-466.97 793.1,-459.02 782.67,-460.86 786.09,-466.97"/>
</g>
<!-- 67a8dc3c&#45;d615&#45;11ee&#45;9dd8&#45;04cf4b795879 -->
<g id="node18" class="node">
<title>67a8dc3c&#45;d615&#45;11ee&#45;9dd8&#45;04cf4b795879</title>
<ellipse fill="none" stroke="black" cx="976.37" cy="-443.29" rx="50.84" ry="18"/>
<text text-anchor="middle" x="976.37" y="-438.24" font-family="Times,serif" font-size="14.00">r_5: level3</text>
</g>
<!-- 67a88f34&#45;d615&#45;11ee&#45;9dd8&#45;04cf4b795879&#45;&gt;67a8dc3c&#45;d615&#45;11ee&#45;9dd8&#45;04cf4b795879 -->
<g id="edge17" class="edge">
<title>67a88f34&#45;d615&#45;11ee&#45;9dd8&#45;04cf4b795879&#45;&gt;67a8dc3c&#45;d615&#45;11ee&#45;9dd8&#45;04cf4b795879</title>
<path fill="none" stroke="black" d="M730.7,-510.42C786.42,-495.42 872.37,-472.29 926.43,-457.74"/>
<polygon fill="black" stroke="black" points="927.06,-460.92 935.8,-454.94 925.24,-454.16 927.06,-460.92"/>
</g>
<!-- 67a8a3fc&#45;d615&#45;11ee&#45;9dd8&#45;04cf4b795879 -->
<g id="node3" class="node">
<title>67a8a3fc&#45;d615&#45;11ee&#45;9dd8&#45;04cf4b795879</title>
<polygon fill="none" stroke="black" points="415.28,-342.35 377.83,-389.29 302.91,-389.29 265.46,-342.35 302.91,-295.4 377.83,-295.4 415.28,-342.35"/>
<text text-anchor="middle" x="340.37" y="-353.8" font-family="Times,serif" font-size="14.00">rp_4: level1 </text>
<text text-anchor="middle" x="340.37" y="-337.3" font-family="Times,serif" font-size="14.00"> design_offer </text>
<text text-anchor="middle" x="340.37" y="-320.8" font-family="Times,serif" font-size="14.00"> cost : 110</text>
</g>
<!-- 67a89fa6&#45;d615&#45;11ee&#45;9dd8&#45;04cf4b795879&#45;&gt;67a8a3fc&#45;d615&#45;11ee&#45;9dd8&#45;04cf4b795879 -->
<g id="edge2" class="edge">
<title>67a89fa6&#45;d615&#45;11ee&#45;9dd8&#45;04cf4b795879&#45;&gt;67a8a3fc&#45;d615&#45;11ee&#45;9dd8&#45;04cf4b795879</title>
<path fill="none" stroke="black" d="M380.01,-425.06C376.46,-417.74 372.1,-408.76 367.59,-399.46"/>
<polygon fill="black" stroke="black" points="370.38,-398.18 362.86,-390.71 364.08,-401.24 370.38,-398.18"/>
</g>
<!-- 67a8a776&#45;d615&#45;11ee&#45;9dd8&#45;04cf4b795879 -->
<g id="node4" class="node">
<title>67a8a776&#45;d615&#45;11ee&#45;9dd8&#45;04cf4b795879</title>
<polygon fill="none" stroke="black" points="416.99,-259.4 263.74,-259.4 263.74,-201.9 416.99,-201.9 416.99,-259.4"/>
<text text-anchor="middle" x="340.37" y="-242.1" font-family="Times,serif" font-size="14.00">r10: four_eyes_principle </text>
<text text-anchor="middle" x="340.37" y="-225.6" font-family="Times,serif" font-size="14.00"> Type: insert </text>
<text text-anchor="middle" x="340.37" y="-209.1" font-family="Times,serif" font-size="14.00"> Direction: parallel</text>
</g>
<!-- 67a8a3fc&#45;d615&#45;11ee&#45;9dd8&#45;04cf4b795879&#45;&gt;67a8a776&#45;d615&#45;11ee&#45;9dd8&#45;04cf4b795879 -->
<g id="edge3" class="edge">
<title>67a8a3fc&#45;d615&#45;11ee&#45;9dd8&#45;04cf4b795879&#45;&gt;67a8a776&#45;d615&#45;11ee&#45;9dd8&#45;04cf4b795879</title>
<path fill="none" stroke="black" d="M340.37,-295.14C340.37,-286.94 340.37,-278.48 340.37,-270.51"/>
<polygon fill="black" stroke="black" points="343.87,-270.65 340.37,-260.65 336.87,-270.65 343.87,-270.65"/>
</g>
<!-- 67a8acc6&#45;d615&#45;11ee&#45;9dd8&#45;04cf4b795879 -->
<g id="node5" class="node">
<title>67a8acc6&#45;d615&#45;11ee&#45;9dd8&#45;04cf4b795879</title>
<ellipse fill="none" stroke="black" cx="164.37" cy="-147.9" rx="50.84" ry="18"/>
<text text-anchor="middle" x="164.37" y="-142.85" font-family="Times,serif" font-size="14.00">r_4: level2</text>
</g>
<!-- 67a8a776&#45;d615&#45;11ee&#45;9dd8&#45;04cf4b795879&#45;&gt;67a8acc6&#45;d615&#45;11ee&#45;9dd8&#45;04cf4b795879 -->
<g id="edge4" class="edge">
<title>67a8a776&#45;d615&#45;11ee&#45;9dd8&#45;04cf4b795879&#45;&gt;67a8acc6&#45;d615&#45;11ee&#45;9dd8&#45;04cf4b795879</title>
<path fill="none" stroke="black" d="M278.81,-201.4C254.17,-190.1 226.47,-177.39 204.5,-167.31"/>
<polygon fill="black" stroke="black" points="206.07,-163.72 195.52,-162.73 203.15,-170.08 206.07,-163.72"/>
</g>
<!-- 67a8b450&#45;d615&#45;11ee&#45;9dd8&#45;04cf4b795879 -->
<g id="node7" class="node">
<title>67a8b450&#45;d615&#45;11ee&#45;9dd8&#45;04cf4b795879</title>
<ellipse fill="none" stroke="black" cx="340.37" cy="-147.9" rx="50.84" ry="18"/>
<text text-anchor="middle" x="340.37" y="-142.85" font-family="Times,serif" font-size="14.00">r_3: level3</text>
</g>
<!-- 67a8a776&#45;d615&#45;11ee&#45;9dd8&#45;04cf4b795879&#45;&gt;67a8b450&#45;d615&#45;11ee&#45;9dd8&#45;04cf4b795879 -->
<g id="edge6" class="edge">
<title>67a8a776&#45;d615&#45;11ee&#45;9dd8&#45;04cf4b795879&#45;&gt;67a8b450&#45;d615&#45;11ee&#45;9dd8&#45;04cf4b795879</title>
<path fill="none" stroke="black" d="M340.37,-201.4C340.37,-193.46 340.37,-184.82 340.37,-176.89"/>
<polygon fill="black" stroke="black" points="343.87,-176.94 340.37,-166.94 336.87,-176.94 343.87,-176.94"/>
</g>
<!-- 67a8bb94&#45;d615&#45;11ee&#45;9dd8&#45;04cf4b795879 -->
<g id="node9" class="node">
<title>67a8bb94&#45;d615&#45;11ee&#45;9dd8&#45;04cf4b795879</title>
<ellipse fill="none" stroke="black" cx="516.37" cy="-147.9" rx="50.84" ry="18"/>
<text text-anchor="middle" x="516.37" y="-142.85" font-family="Times,serif" font-size="14.00">r_5: level3</text>
</g>
<!-- 67a8a776&#45;d615&#45;11ee&#45;9dd8&#45;04cf4b795879&#45;&gt;67a8bb94&#45;d615&#45;11ee&#45;9dd8&#45;04cf4b795879 -->
<g id="edge8" class="edge">
<title>67a8a776&#45;d615&#45;11ee&#45;9dd8&#45;04cf4b795879&#45;&gt;67a8bb94&#45;d615&#45;11ee&#45;9dd8&#45;04cf4b795879</title>
<path fill="none" stroke="black" d="M401.93,-201.4C426.57,-190.1 454.27,-177.39 476.24,-167.31"/>
<polygon fill="black" stroke="black" points="477.58,-170.08 485.21,-162.73 474.67,-163.72 477.58,-170.08"/>
</g>
<!-- 67a8b0f4&#45;d615&#45;11ee&#45;9dd8&#45;04cf4b795879 -->
<g id="node6" class="node">
<title>67a8b0f4&#45;d615&#45;11ee&#45;9dd8&#45;04cf4b795879</title>
<polygon fill="none" stroke="black" points="214.74,-46.95 161.05,-93.9 53.68,-93.9 0,-46.95 53.68,0 161.05,0 214.74,-46.95"/>
<text text-anchor="middle" x="107.37" y="-58.4" font-family="Times,serif" font-size="14.00">rp_24: level3 </text>
<text text-anchor="middle" x="107.37" y="-41.9" font-family="Times,serif" font-size="14.00"> four_eyes_principle </text>
<text text-anchor="middle" x="107.37" y="-25.4" font-family="Times,serif" font-size="14.00"> cost : 123</text>
</g>
<!-- 67a8acc6&#45;d615&#45;11ee&#45;9dd8&#45;04cf4b795879&#45;&gt;67a8b0f4&#45;d615&#45;11ee&#45;9dd8&#45;04cf4b795879 -->
<g id="edge5" class="edge">
<title>67a8acc6&#45;d615&#45;11ee&#45;9dd8&#45;04cf4b795879&#45;&gt;67a8b0f4&#45;d615&#45;11ee&#45;9dd8&#45;04cf4b795879</title>
<path fill="none" stroke="black" d="M154.7,-130.11C150.37,-122.59 144.98,-113.25 139.42,-103.58"/>
<polygon fill="black" stroke="black" points="142.08,-102.19 134.05,-95.27 136.01,-105.68 142.08,-102.19"/>
</g>
<!-- 67a8b856&#45;d615&#45;11ee&#45;9dd8&#45;04cf4b795879 -->
<g id="node8" class="node">
<title>67a8b856&#45;d615&#45;11ee&#45;9dd8&#45;04cf4b795879</title>
<polygon fill="none" stroke="black" points="447.74,-46.95 394.05,-93.9 286.68,-93.9 233,-46.95 286.68,0 394.05,0 447.74,-46.95"/>
<text text-anchor="middle" x="340.37" y="-58.4" font-family="Times,serif" font-size="14.00">rp_24: level3 </text>
<text text-anchor="middle" x="340.37" y="-41.9" font-family="Times,serif" font-size="14.00"> four_eyes_principle </text>
<text text-anchor="middle" x="340.37" y="-25.4" font-family="Times,serif" font-size="14.00"> cost : 84</text>
</g>
<!-- 67a8b450&#45;d615&#45;11ee&#45;9dd8&#45;04cf4b795879&#45;&gt;67a8b856&#45;d615&#45;11ee&#45;9dd8&#45;04cf4b795879 -->
<g id="edge7" class="edge">
<title>67a8b450&#45;d615&#45;11ee&#45;9dd8&#45;04cf4b795879&#45;&gt;67a8b856&#45;d615&#45;11ee&#45;9dd8&#45;04cf4b795879</title>
<path fill="none" stroke="black" d="M340.37,-129.66C340.37,-122.65 340.37,-114.12 340.37,-105.24"/>
<polygon fill="black" stroke="black" points="343.87,-105.32 340.37,-95.32 336.87,-105.32 343.87,-105.32"/>
</g>
<!-- 67a8bfb8&#45;d615&#45;11ee&#45;9dd8&#45;04cf4b795879 -->
<g id="node10" class="node">
<title>67a8bfb8&#45;d615&#45;11ee&#45;9dd8&#45;04cf4b795879</title>
<polygon fill="none" stroke="black" points="680.74,-46.95 627.05,-93.9 519.68,-93.9 466,-46.95 519.68,0 627.05,0 680.74,-46.95"/>
<text text-anchor="middle" x="573.37" y="-58.4" font-family="Times,serif" font-size="14.00">rp_24: level3 </text>
<text text-anchor="middle" x="573.37" y="-41.9" font-family="Times,serif" font-size="14.00"> four_eyes_principle </text>
<text text-anchor="middle" x="573.37" y="-25.4" font-family="Times,serif" font-size="14.00"> cost : 29</text>
</g>
<!-- 67a8bb94&#45;d615&#45;11ee&#45;9dd8&#45;04cf4b795879&#45;&gt;67a8bfb8&#45;d615&#45;11ee&#45;9dd8&#45;04cf4b795879 -->
<g id="edge9" class="edge">
<title>67a8bb94&#45;d615&#45;11ee&#45;9dd8&#45;04cf4b795879&#45;&gt;67a8bfb8&#45;d615&#45;11ee&#45;9dd8&#45;04cf4b795879</title>
<path fill="none" stroke="black" d="M526.04,-130.11C530.37,-122.59 535.75,-113.25 541.32,-103.58"/>
<polygon fill="black" stroke="black" points="544.73,-105.68 546.69,-95.27 538.66,-102.19 544.73,-105.68"/>
</g>
<!-- 67a8c71a&#45;d615&#45;11ee&#45;9dd8&#45;04cf4b795879 -->
<g id="node12" class="node">
<title>67a8c71a&#45;d615&#45;11ee&#45;9dd8&#45;04cf4b795879</title>
<polygon fill="none" stroke="black" points="583.28,-342.35 545.83,-389.29 470.91,-389.29 433.46,-342.35 470.91,-295.4 545.83,-295.4 583.28,-342.35"/>
<text text-anchor="middle" x="508.37" y="-353.8" font-family="Times,serif" font-size="14.00">rp_89: level2 </text>
<text text-anchor="middle" x="508.37" y="-337.3" font-family="Times,serif" font-size="14.00"> design_offer </text>
<text text-anchor="middle" x="508.37" y="-320.8" font-family="Times,serif" font-size="14.00"> cost : 43</text>
</g>
<!-- 67a8c31e&#45;d615&#45;11ee&#45;9dd8&#45;04cf4b795879&#45;&gt;67a8c71a&#45;d615&#45;11ee&#45;9dd8&#45;04cf4b795879 -->
<g id="edge11" class="edge">
<title>67a8c31e&#45;d615&#45;11ee&#45;9dd8&#45;04cf4b795879&#45;&gt;67a8c71a&#45;d615&#45;11ee&#45;9dd8&#45;04cf4b795879</title>
<path fill="none" stroke="black" d="M528.19,-425.06C526.47,-417.97 524.37,-409.33 522.19,-400.34"/>
<polygon fill="black" stroke="black" points="525.37,-399.61 519.62,-390.71 518.57,-401.26 525.37,-399.61"/>
</g>
<!-- 67a8ce4a&#45;d615&#45;11ee&#45;9dd8&#45;04cf4b795879 -->
<g id="node14" class="node">
<title>67a8ce4a&#45;d615&#45;11ee&#45;9dd8&#45;04cf4b795879</title>
<polygon fill="none" stroke="black" points="751.28,-342.35 713.83,-389.29 638.91,-389.29 601.46,-342.35 638.91,-295.4 713.83,-295.4 751.28,-342.35"/>
<text text-anchor="middle" x="676.37" y="-353.8" font-family="Times,serif" font-size="14.00">rp_99: level2 </text>
<text text-anchor="middle" x="676.37" y="-337.3" font-family="Times,serif" font-size="14.00"> design_offer </text>
<text text-anchor="middle" x="676.37" y="-320.8" font-family="Times,serif" font-size="14.00"> cost : 55</text>
</g>
<!-- 67a8ca58&#45;d615&#45;11ee&#45;9dd8&#45;04cf4b795879&#45;&gt;67a8ce4a&#45;d615&#45;11ee&#45;9dd8&#45;04cf4b795879 -->
<g id="edge13" class="edge">
<title>67a8ca58&#45;d615&#45;11ee&#45;9dd8&#45;04cf4b795879&#45;&gt;67a8ce4a&#45;d615&#45;11ee&#45;9dd8&#45;04cf4b795879</title>
<path fill="none" stroke="black" d="M676.37,-425.06C676.37,-418.05 676.37,-409.52 676.37,-400.64"/>
<polygon fill="black" stroke="black" points="679.87,-400.71 676.37,-390.71 672.87,-400.71 679.87,-400.71"/>
</g>
<!-- 67a8d534&#45;d615&#45;11ee&#45;9dd8&#45;04cf4b795879 -->
<g id="node16" class="node">
<title>67a8d534&#45;d615&#45;11ee&#45;9dd8&#45;04cf4b795879</title>
<polygon fill="none" stroke="black" points="919.28,-342.35 881.83,-389.29 806.91,-389.29 769.46,-342.35 806.91,-295.4 881.83,-295.4 919.28,-342.35"/>
<text text-anchor="middle" x="844.37" y="-353.8" font-family="Times,serif" font-size="14.00">rp_9: level3 </text>
<text text-anchor="middle" x="844.37" y="-337.3" font-family="Times,serif" font-size="14.00"> design_offer </text>
<text text-anchor="middle" x="844.37" y="-320.8" font-family="Times,serif" font-size="14.00"> cost : 80</text>
</g>
<!-- 67a8d16a&#45;d615&#45;11ee&#45;9dd8&#45;04cf4b795879&#45;&gt;67a8d534&#45;d615&#45;11ee&#45;9dd8&#45;04cf4b795879 -->
<g id="edge15" class="edge">
<title>67a8d16a&#45;d615&#45;11ee&#45;9dd8&#45;04cf4b795879&#45;&gt;67a8d534&#45;d615&#45;11ee&#45;9dd8&#45;04cf4b795879</title>
<path fill="none" stroke="black" d="M824.55,-425.06C826.27,-417.97 828.37,-409.33 830.54,-400.34"/>
<polygon fill="black" stroke="black" points="834.17,-401.26 833.12,-390.71 827.36,-399.61 834.17,-401.26"/>
</g>
<!-- 67a8d854&#45;d615&#45;11ee&#45;9dd8&#45;04cf4b795879 -->
<g id="node17" class="node">
<title>67a8d854&#45;d615&#45;11ee&#45;9dd8&#45;04cf4b795879</title>
<polygon fill="none" stroke="black" points="893.24,-259.4 795.49,-259.4 795.49,-201.9 893.24,-201.9 893.24,-259.4"/>
<text text-anchor="middle" x="844.37" y="-242.1" font-family="Times,serif" font-size="14.00">a8: send_offer </text>
<text text-anchor="middle" x="844.37" y="-225.6" font-family="Times,serif" font-size="14.00"> Type: delete </text>
<text text-anchor="middle" x="844.37" y="-209.1" font-family="Times,serif" font-size="14.00"> Direction: any</text>
</g>
<!-- 67a8d534&#45;d615&#45;11ee&#45;9dd8&#45;04cf4b795879&#45;&gt;67a8d854&#45;d615&#45;11ee&#45;9dd8&#45;04cf4b795879 -->
<g id="edge16" class="edge">
<title>67a8d534&#45;d615&#45;11ee&#45;9dd8&#45;04cf4b795879&#45;&gt;67a8d854&#45;d615&#45;11ee&#45;9dd8&#45;04cf4b795879</title>
<path fill="none" stroke="black" d="M844.37,-295.14C844.37,-286.94 844.37,-278.48 844.37,-270.51"/>
<polygon fill="black" stroke="black" points="847.87,-270.65 844.37,-260.65 840.87,-270.65 847.87,-270.65"/>
</g>
<!-- 67a8e024&#45;d615&#45;11ee&#45;9dd8&#45;04cf4b795879 -->
<g id="node19" class="node">
<title>67a8e024&#45;d615&#45;11ee&#45;9dd8&#45;04cf4b795879</title>
<polygon fill="none" stroke="black" points="1087.28,-342.35 1049.83,-389.29 974.91,-389.29 937.46,-342.35 974.91,-295.4 1049.83,-295.4 1087.28,-342.35"/>
<text text-anchor="middle" x="1012.37" y="-353.8" font-family="Times,serif" font-size="14.00">rp_9: level3 </text>
<text text-anchor="middle" x="1012.37" y="-337.3" font-family="Times,serif" font-size="14.00"> design_offer </text>
<text text-anchor="middle" x="1012.37" y="-320.8" font-family="Times,serif" font-size="14.00"> cost : 107</text>
</g>
<!-- 67a8dc3c&#45;d615&#45;11ee&#45;9dd8&#45;04cf4b795879&#45;&gt;67a8e024&#45;d615&#45;11ee&#45;9dd8&#45;04cf4b795879 -->
<g id="edge18" class="edge">
<title>67a8dc3c&#45;d615&#45;11ee&#45;9dd8&#45;04cf4b795879&#45;&gt;67a8e024&#45;d615&#45;11ee&#45;9dd8&#45;04cf4b795879</title>
<path fill="none" stroke="black" d="M982.64,-425.06C985.25,-417.9 988.43,-409.14 991.74,-400.05"/>
<polygon fill="black" stroke="black" points="995.37,-401.31 995.5,-390.71 988.79,-398.92 995.37,-401.31"/>
</g>
<!-- 67a8e33a&#45;d615&#45;11ee&#45;9dd8&#45;04cf4b795879 -->
<g id="node20" class="node">
<title>67a8e33a&#45;d615&#45;11ee&#45;9dd8&#45;04cf4b795879</title>
<polygon fill="none" stroke="black" points="1061.24,-259.4 963.49,-259.4 963.49,-201.9 1061.24,-201.9 1061.24,-259.4"/>
<text text-anchor="middle" x="1012.37" y="-242.1" font-family="Times,serif" font-size="14.00">a8: send_offer </text>
<text text-anchor="middle" x="1012.37" y="-225.6" font-family="Times,serif" font-size="14.00"> Type: delete </text>
<text text-anchor="middle" x="1012.37" y="-209.1" font-family="Times,serif" font-size="14.00"> Direction: any</text>
</g>
<!-- 67a8e024&#45;d615&#45;11ee&#45;9dd8&#45;04cf4b795879&#45;&gt;67a8e33a&#45;d615&#45;11ee&#45;9dd8&#45;04cf4b795879 -->
<g id="edge19" class="edge">
<title>67a8e024&#45;d615&#45;11ee&#45;9dd8&#45;04cf4b795879&#45;&gt;67a8e33a&#45;d615&#45;11ee&#45;9dd8&#45;04cf4b795879</title>
<path fill="none" stroke="black" d="M1012.37,-295.14C1012.37,-286.94 1012.37,-278.48 1012.37,-270.51"/>
<polygon fill="black" stroke="black" points="1015.87,-270.65 1012.37,-260.65 1008.87,-270.65 1015.87,-270.65"/>
</g>
</g>
</svg>
