<?xml version="1.0" encoding="UTF-8" standalone="no"?>
<!DOCTYPE svg PUBLIC "-//W3C//DTD SVG 1.1//EN"
 "http://www.w3.org/Graphics/SVG/1.1/DTD/svg11.dtd">
<!-- Generated by graphviz version 8.1.0 (20230707.0739)
 -->
<!-- Title: CallTree Pages: 1 -->
<svg width="1751pt" height="858pt"
 viewBox="0.00 0.00 1751.37 858.19" xmlns="http://www.w3.org/2000/svg" xmlns:xlink="http://www.w3.org/1999/xlink">
<g id="graph0" class="graph" transform="scale(1 1) rotate(0) translate(4 854.19)">
<title>CallTree</title>
<polygon fill="white" stroke="none" points="-4,4 -4,-854.19 1747.37,-854.19 1747.37,4 -4,4"/>
<!-- 033e2f4a&#45;d741&#45;11ee&#45;8d3f&#45;04cf4b795879 -->
<g id="node1" class="node">
<title>033e2f4a&#45;d741&#45;11ee&#45;8d3f&#45;04cf4b795879</title>
<polygon fill="none" stroke="black" points="1143.49,-850.19 1035.24,-850.19 1035.24,-792.69 1143.49,-792.69 1143.49,-850.19"/>
<text text-anchor="middle" x="1089.37" y="-832.89" font-family="Times,serif" font-size="14.00">a7: design_offer </text>
<text text-anchor="middle" x="1089.37" y="-816.39" font-family="Times,serif" font-size="14.00"> Type: Core </text>
<text text-anchor="middle" x="1089.37" y="-799.89" font-family="Times,serif" font-size="14.00"> Direction: Core</text>
</g>
<!-- 033e426e&#45;d741&#45;11ee&#45;8d3f&#45;04cf4b795879 -->
<g id="node2" class="node">
<title>033e426e&#45;d741&#45;11ee&#45;8d3f&#45;04cf4b795879</title>
<ellipse fill="none" stroke="black" cx="801.37" cy="-738.69" rx="50.84" ry="18"/>
<text text-anchor="middle" x="801.37" y="-733.64" font-family="Times,serif" font-size="14.00">r_1: level1</text>
</g>
<!-- 033e2f4a&#45;d741&#45;11ee&#45;8d3f&#45;04cf4b795879&#45;&gt;033e426e&#45;d741&#45;11ee&#45;8d3f&#45;04cf4b795879 -->
<g id="edge1" class="edge">
<title>033e2f4a&#45;d741&#45;11ee&#45;8d3f&#45;04cf4b795879&#45;&gt;033e426e&#45;d741&#45;11ee&#45;8d3f&#45;04cf4b795879</title>
<path fill="none" stroke="black" d="M1034.86,-805.16C981.88,-790.3 902.12,-767.94 850.9,-753.58"/>
<polygon fill="black" stroke="black" points="852,-749.97 841.42,-750.64 850.11,-756.71 852,-749.97"/>
</g>
<!-- 033e67c6&#45;d741&#45;11ee&#45;8d3f&#45;04cf4b795879 -->
<g id="node19" class="node">
<title>033e67c6&#45;d741&#45;11ee&#45;8d3f&#45;04cf4b795879</title>
<ellipse fill="none" stroke="black" cx="945.37" cy="-738.69" rx="50.84" ry="18"/>
<text text-anchor="middle" x="945.37" y="-733.64" font-family="Times,serif" font-size="14.00">r_2: level2</text>
</g>
<!-- 033e2f4a&#45;d741&#45;11ee&#45;8d3f&#45;04cf4b795879&#45;&gt;033e67c6&#45;d741&#45;11ee&#45;8d3f&#45;04cf4b795879 -->
<g id="edge18" class="edge">
<title>033e2f4a&#45;d741&#45;11ee&#45;8d3f&#45;04cf4b795879&#45;&gt;033e67c6&#45;d741&#45;11ee&#45;8d3f&#45;04cf4b795879</title>
<path fill="none" stroke="black" d="M1039.01,-792.2C1019.84,-781.45 998.43,-769.45 980.92,-759.63"/>
<polygon fill="black" stroke="black" points="983.07,-756.26 972.63,-754.42 979.64,-762.36 983.07,-756.26"/>
</g>
<!-- 033e6be0&#45;d741&#45;11ee&#45;8d3f&#45;04cf4b795879 -->
<g id="node22" class="node">
<title>033e6be0&#45;d741&#45;11ee&#45;8d3f&#45;04cf4b795879</title>
<ellipse fill="none" stroke="black" cx="1089.37" cy="-738.69" rx="50.84" ry="18"/>
<text text-anchor="middle" x="1089.37" y="-733.64" font-family="Times,serif" font-size="14.00">r_4: level2</text>
</g>
<!-- 033e2f4a&#45;d741&#45;11ee&#45;8d3f&#45;04cf4b795879&#45;&gt;033e6be0&#45;d741&#45;11ee&#45;8d3f&#45;04cf4b795879 -->
<g id="edge21" class="edge">
<title>033e2f4a&#45;d741&#45;11ee&#45;8d3f&#45;04cf4b795879&#45;&gt;033e6be0&#45;d741&#45;11ee&#45;8d3f&#45;04cf4b795879</title>
<path fill="none" stroke="black" d="M1089.37,-792.2C1089.37,-784.25 1089.37,-775.62 1089.37,-767.69"/>
<polygon fill="black" stroke="black" points="1092.87,-767.74 1089.37,-757.74 1085.87,-767.74 1092.87,-767.74"/>
</g>
<!-- 033e6e7e&#45;d741&#45;11ee&#45;8d3f&#45;04cf4b795879 -->
<g id="node24" class="node">
<title>033e6e7e&#45;d741&#45;11ee&#45;8d3f&#45;04cf4b795879</title>
<ellipse fill="none" stroke="black" cx="1233.37" cy="-738.69" rx="50.84" ry="18"/>
<text text-anchor="middle" x="1233.37" y="-733.64" font-family="Times,serif" font-size="14.00">r_3: level3</text>
</g>
<!-- 033e2f4a&#45;d741&#45;11ee&#45;8d3f&#45;04cf4b795879&#45;&gt;033e6e7e&#45;d741&#45;11ee&#45;8d3f&#45;04cf4b795879 -->
<g id="edge23" class="edge">
<title>033e2f4a&#45;d741&#45;11ee&#45;8d3f&#45;04cf4b795879&#45;&gt;033e6e7e&#45;d741&#45;11ee&#45;8d3f&#45;04cf4b795879</title>
<path fill="none" stroke="black" d="M1139.73,-792.2C1158.89,-781.45 1180.31,-769.45 1197.82,-759.63"/>
<polygon fill="black" stroke="black" points="1199.09,-762.36 1206.1,-754.42 1195.67,-756.26 1199.09,-762.36"/>
</g>
<!-- 033e89b8&#45;d741&#45;11ee&#45;8d3f&#45;04cf4b795879 -->
<g id="node43" class="node">
<title>033e89b8&#45;d741&#45;11ee&#45;8d3f&#45;04cf4b795879</title>
<ellipse fill="none" stroke="black" cx="1389.37" cy="-738.69" rx="50.84" ry="18"/>
<text text-anchor="middle" x="1389.37" y="-733.64" font-family="Times,serif" font-size="14.00">r_5: level3</text>
</g>
<!-- 033e2f4a&#45;d741&#45;11ee&#45;8d3f&#45;04cf4b795879&#45;&gt;033e89b8&#45;d741&#45;11ee&#45;8d3f&#45;04cf4b795879 -->
<g id="edge42" class="edge">
<title>033e2f4a&#45;d741&#45;11ee&#45;8d3f&#45;04cf4b795879&#45;&gt;033e89b8&#45;d741&#45;11ee&#45;8d3f&#45;04cf4b795879</title>
<path fill="none" stroke="black" d="M1143.7,-805.82C1199.42,-790.82 1285.37,-767.68 1339.43,-753.13"/>
<polygon fill="black" stroke="black" points="1340.06,-756.32 1348.8,-750.34 1338.24,-749.56 1340.06,-756.32"/>
</g>
<!-- 033e4be2&#45;d741&#45;11ee&#45;8d3f&#45;04cf4b795879 -->
<g id="node3" class="node">
<title>033e4be2&#45;d741&#45;11ee&#45;8d3f&#45;04cf4b795879</title>
<polygon fill="none" stroke="black" points="786.28,-637.74 748.83,-684.69 673.91,-684.69 636.46,-637.74 673.91,-590.79 748.83,-590.79 786.28,-637.74"/>
<text text-anchor="middle" x="711.37" y="-649.19" font-family="Times,serif" font-size="14.00">rp_4: level1 </text>
<text text-anchor="middle" x="711.37" y="-632.69" font-family="Times,serif" font-size="14.00"> design_offer </text>
<text text-anchor="middle" x="711.37" y="-616.19" font-family="Times,serif" font-size="14.00"> cost : 25</text>
</g>
<!-- 033e426e&#45;d741&#45;11ee&#45;8d3f&#45;04cf4b795879&#45;&gt;033e4be2&#45;d741&#45;11ee&#45;8d3f&#45;04cf4b795879 -->
<g id="edge2" class="edge">
<title>033e426e&#45;d741&#45;11ee&#45;8d3f&#45;04cf4b795879&#45;&gt;033e4be2&#45;d741&#45;11ee&#45;8d3f&#45;04cf4b795879</title>
<path fill="none" stroke="black" d="M786.51,-721.35C778.64,-712.7 768.49,-701.55 758.22,-690.25"/>
<polygon fill="black" stroke="black" points="761.43,-688.48 752.11,-683.44 756.25,-693.19 761.43,-688.48"/>
</g>
<!-- 033e4ea8&#45;d741&#45;11ee&#45;8d3f&#45;04cf4b795879 -->
<g id="node4" class="node">
<title>033e4ea8&#45;d741&#45;11ee&#45;8d3f&#45;04cf4b795879</title>
<polygon fill="none" stroke="black" points="767.37,-554.79 643.37,-554.79 643.37,-497.29 767.37,-497.29 767.37,-554.79"/>
<text text-anchor="middle" x="705.37" y="-537.49" font-family="Times,serif" font-size="14.00">r0: create_proposal </text>
<text text-anchor="middle" x="705.37" y="-520.99" font-family="Times,serif" font-size="14.00"> Type: insert </text>
<text text-anchor="middle" x="705.37" y="-504.49" font-family="Times,serif" font-size="14.00"> Direction: parallel</text>
</g>
<!-- 033e4be2&#45;d741&#45;11ee&#45;8d3f&#45;04cf4b795879&#45;&gt;033e4ea8&#45;d741&#45;11ee&#45;8d3f&#45;04cf4b795879 -->
<g id="edge3" class="edge">
<title>033e4be2&#45;d741&#45;11ee&#45;8d3f&#45;04cf4b795879&#45;&gt;033e4ea8&#45;d741&#45;11ee&#45;8d3f&#45;04cf4b795879</title>
<path fill="none" stroke="black" d="M708.84,-590.54C708.39,-582.34 707.93,-573.88 707.49,-565.91"/>
<polygon fill="black" stroke="black" points="710.94,-565.84 706.9,-556.05 703.95,-566.22 710.94,-565.84"/>
</g>
<!-- 033e536c&#45;d741&#45;11ee&#45;8d3f&#45;04cf4b795879 -->
<g id="node5" class="node">
<title>033e536c&#45;d741&#45;11ee&#45;8d3f&#45;04cf4b795879</title>
<ellipse fill="none" stroke="black" cx="526.37" cy="-443.29" rx="50.84" ry="18"/>
<text text-anchor="middle" x="526.37" y="-438.24" font-family="Times,serif" font-size="14.00">r_2: level2</text>
</g>
<!-- 033e4ea8&#45;d741&#45;11ee&#45;8d3f&#45;04cf4b795879&#45;&gt;033e536c&#45;d741&#45;11ee&#45;8d3f&#45;04cf4b795879 -->
<g id="edge4" class="edge">
<title>033e4ea8&#45;d741&#45;11ee&#45;8d3f&#45;04cf4b795879&#45;&gt;033e536c&#45;d741&#45;11ee&#45;8d3f&#45;04cf4b795879</title>
<path fill="none" stroke="black" d="M643.02,-496.92C617.64,-485.47 589.05,-472.57 566.53,-462.41"/>
<polygon fill="black" stroke="black" points="568.19,-458.87 557.64,-457.95 565.31,-465.25 568.19,-458.87"/>
</g>
<!-- 033e621c&#45;d741&#45;11ee&#45;8d3f&#45;04cf4b795879 -->
<g id="node15" class="node">
<title>033e621c&#45;d741&#45;11ee&#45;8d3f&#45;04cf4b795879</title>
<ellipse fill="none" stroke="black" cx="684.37" cy="-443.29" rx="50.84" ry="18"/>
<text text-anchor="middle" x="684.37" y="-438.24" font-family="Times,serif" font-size="14.00">r_3: level3</text>
</g>
<!-- 033e4ea8&#45;d741&#45;11ee&#45;8d3f&#45;04cf4b795879&#45;&gt;033e621c&#45;d741&#45;11ee&#45;8d3f&#45;04cf4b795879 -->
<g id="edge14" class="edge">
<title>033e4ea8&#45;d741&#45;11ee&#45;8d3f&#45;04cf4b795879&#45;&gt;033e621c&#45;d741&#45;11ee&#45;8d3f&#45;04cf4b795879</title>
<path fill="none" stroke="black" d="M698.02,-496.8C695.91,-488.67 693.61,-479.82 691.51,-471.74"/>
<polygon fill="black" stroke="black" points="694.71,-471.14 688.8,-462.34 687.93,-472.9 694.71,-471.14"/>
</g>
<!-- 033e64c4&#45;d741&#45;11ee&#45;8d3f&#45;04cf4b795879 -->
<g id="node17" class="node">
<title>033e64c4&#45;d741&#45;11ee&#45;8d3f&#45;04cf4b795879</title>
<ellipse fill="none" stroke="black" cx="832.37" cy="-443.29" rx="50.84" ry="18"/>
<text text-anchor="middle" x="832.37" y="-438.24" font-family="Times,serif" font-size="14.00">r_5: level3</text>
</g>
<!-- 033e4ea8&#45;d741&#45;11ee&#45;8d3f&#45;04cf4b795879&#45;&gt;033e64c4&#45;d741&#45;11ee&#45;8d3f&#45;04cf4b795879 -->
<g id="edge16" class="edge">
<title>033e4ea8&#45;d741&#45;11ee&#45;8d3f&#45;04cf4b795879&#45;&gt;033e64c4&#45;d741&#45;11ee&#45;8d3f&#45;04cf4b795879</title>
<path fill="none" stroke="black" d="M749.79,-496.8C766.14,-486.41 784.35,-474.83 799.5,-465.2"/>
<polygon fill="black" stroke="black" points="800.93,-467.8 807.49,-459.48 797.17,-461.89 800.93,-467.8"/>
</g>
<!-- 033e551a&#45;d741&#45;11ee&#45;8d3f&#45;04cf4b795879 -->
<g id="node6" class="node">
<title>033e551a&#45;d741&#45;11ee&#45;8d3f&#45;04cf4b795879</title>
<polygon fill="none" stroke="black" points="567.37,-342.35 522.87,-389.29 433.87,-389.29 389.37,-342.35 433.87,-295.4 522.87,-295.4 567.37,-342.35"/>
<text text-anchor="middle" x="478.37" y="-353.8" font-family="Times,serif" font-size="14.00">rp_15: level3 </text>
<text text-anchor="middle" x="478.37" y="-337.3" font-family="Times,serif" font-size="14.00"> create_proposal </text>
<text text-anchor="middle" x="478.37" y="-320.8" font-family="Times,serif" font-size="14.00"> cost : 100</text>
</g>
<!-- 033e536c&#45;d741&#45;11ee&#45;8d3f&#45;04cf4b795879&#45;&gt;033e551a&#45;d741&#45;11ee&#45;8d3f&#45;04cf4b795879 -->
<g id="edge5" class="edge">
<title>033e536c&#45;d741&#45;11ee&#45;8d3f&#45;04cf4b795879&#45;&gt;033e551a&#45;d741&#45;11ee&#45;8d3f&#45;04cf4b795879</title>
<path fill="none" stroke="black" d="M518.01,-425.06C514.46,-417.74 510.1,-408.76 505.59,-399.46"/>
<polygon fill="black" stroke="black" points="508.38,-398.18 500.86,-390.71 502.08,-401.24 508.38,-398.18"/>
</g>
<!-- 033e5664&#45;d741&#45;11ee&#45;8d3f&#45;04cf4b795879 -->
<g id="node7" class="node">
<title>033e5664&#45;d741&#45;11ee&#45;8d3f&#45;04cf4b795879</title>
<polygon fill="none" stroke="black" points="413.62,-259.4 267.12,-259.4 267.12,-201.9 413.62,-201.9 413.62,-259.4"/>
<text text-anchor="middle" x="340.37" y="-242.1" font-family="Times,serif" font-size="14.00">r0: four_eyes_principle </text>
<text text-anchor="middle" x="340.37" y="-225.6" font-family="Times,serif" font-size="14.00"> Type: insert </text>
<text text-anchor="middle" x="340.37" y="-209.1" font-family="Times,serif" font-size="14.00"> Direction: before</text>
</g>
<!-- 033e551a&#45;d741&#45;11ee&#45;8d3f&#45;04cf4b795879&#45;&gt;033e5664&#45;d741&#45;11ee&#45;8d3f&#45;04cf4b795879 -->
<g id="edge6" class="edge">
<title>033e551a&#45;d741&#45;11ee&#45;8d3f&#45;04cf4b795879&#45;&gt;033e5664&#45;d741&#45;11ee&#45;8d3f&#45;04cf4b795879</title>
<path fill="none" stroke="black" d="M427.77,-301.12C413.5,-289.78 398.1,-277.53 384.25,-266.53"/>
<polygon fill="black" stroke="black" points="386.87,-263.34 376.86,-259.86 382.51,-268.82 386.87,-263.34"/>
</g>
<!-- 033e60a0&#45;d741&#45;11ee&#45;8d3f&#45;04cf4b795879 -->
<g id="node14" class="node">
<title>033e60a0&#45;d741&#45;11ee&#45;8d3f&#45;04cf4b795879</title>
<polygon fill="none" stroke="black" points="578.99,-259.4 431.74,-259.4 431.74,-201.9 578.99,-201.9 578.99,-259.4"/>
<text text-anchor="middle" x="505.37" y="-242.1" font-family="Times,serif" font-size="14.00">r0: decide_on_proposal </text>
<text text-anchor="middle" x="505.37" y="-225.6" font-family="Times,serif" font-size="14.00"> Type: delete </text>
<text text-anchor="middle" x="505.37" y="-209.1" font-family="Times,serif" font-size="14.00"> Direction: any</text>
</g>
<!-- 033e551a&#45;d741&#45;11ee&#45;8d3f&#45;04cf4b795879&#45;&gt;033e60a0&#45;d741&#45;11ee&#45;8d3f&#45;04cf4b795879 -->
<g id="edge13" class="edge">
<title>033e551a&#45;d741&#45;11ee&#45;8d3f&#45;04cf4b795879&#45;&gt;033e60a0&#45;d741&#45;11ee&#45;8d3f&#45;04cf4b795879</title>
<path fill="none" stroke="black" d="M489.74,-295.14C491.78,-286.85 493.89,-278.29 495.87,-270.24"/>
<polygon fill="black" stroke="black" points="499.49,-271.2 498.48,-260.65 492.69,-269.53 499.49,-271.2"/>
</g>
<!-- 033e5880&#45;d741&#45;11ee&#45;8d3f&#45;04cf4b795879 -->
<g id="node8" class="node">
<title>033e5880&#45;d741&#45;11ee&#45;8d3f&#45;04cf4b795879</title>
<ellipse fill="none" stroke="black" cx="164.37" cy="-147.9" rx="50.84" ry="18"/>
<text text-anchor="middle" x="164.37" y="-142.85" font-family="Times,serif" font-size="14.00">r_4: level2</text>
</g>
<!-- 033e5664&#45;d741&#45;11ee&#45;8d3f&#45;04cf4b795879&#45;&gt;033e5880&#45;d741&#45;11ee&#45;8d3f&#45;04cf4b795879 -->
<g id="edge7" class="edge">
<title>033e5664&#45;d741&#45;11ee&#45;8d3f&#45;04cf4b795879&#45;&gt;033e5880&#45;d741&#45;11ee&#45;8d3f&#45;04cf4b795879</title>
<path fill="none" stroke="black" d="M278.81,-201.4C254.17,-190.1 226.47,-177.39 204.5,-167.31"/>
<polygon fill="black" stroke="black" points="206.07,-163.72 195.52,-162.73 203.15,-170.08 206.07,-163.72"/>
</g>
<!-- 033e5b50&#45;d741&#45;11ee&#45;8d3f&#45;04cf4b795879 -->
<g id="node10" class="node">
<title>033e5b50&#45;d741&#45;11ee&#45;8d3f&#45;04cf4b795879</title>
<ellipse fill="none" stroke="black" cx="340.37" cy="-147.9" rx="50.84" ry="18"/>
<text text-anchor="middle" x="340.37" y="-142.85" font-family="Times,serif" font-size="14.00">r_3: level3</text>
</g>
<!-- 033e5664&#45;d741&#45;11ee&#45;8d3f&#45;04cf4b795879&#45;&gt;033e5b50&#45;d741&#45;11ee&#45;8d3f&#45;04cf4b795879 -->
<g id="edge9" class="edge">
<title>033e5664&#45;d741&#45;11ee&#45;8d3f&#45;04cf4b795879&#45;&gt;033e5b50&#45;d741&#45;11ee&#45;8d3f&#45;04cf4b795879</title>
<path fill="none" stroke="black" d="M340.37,-201.4C340.37,-193.46 340.37,-184.82 340.37,-176.89"/>
<polygon fill="black" stroke="black" points="343.87,-176.94 340.37,-166.94 336.87,-176.94 343.87,-176.94"/>
</g>
<!-- 033e5e02&#45;d741&#45;11ee&#45;8d3f&#45;04cf4b795879 -->
<g id="node12" class="node">
<title>033e5e02&#45;d741&#45;11ee&#45;8d3f&#45;04cf4b795879</title>
<ellipse fill="none" stroke="black" cx="517.37" cy="-147.9" rx="50.84" ry="18"/>
<text text-anchor="middle" x="517.37" y="-142.85" font-family="Times,serif" font-size="14.00">r_5: level3</text>
</g>
<!-- 033e5664&#45;d741&#45;11ee&#45;8d3f&#45;04cf4b795879&#45;&gt;033e5e02&#45;d741&#45;11ee&#45;8d3f&#45;04cf4b795879 -->
<g id="edge11" class="edge">
<title>033e5664&#45;d741&#45;11ee&#45;8d3f&#45;04cf4b795879&#45;&gt;033e5e02&#45;d741&#45;11ee&#45;8d3f&#45;04cf4b795879</title>
<path fill="none" stroke="black" d="M402.28,-201.4C427.17,-190.05 455.17,-177.27 477.31,-167.17"/>
<polygon fill="black" stroke="black" points="478.4,-170.07 486.04,-162.73 475.49,-163.7 478.4,-170.07"/>
</g>
<!-- 033e5a06&#45;d741&#45;11ee&#45;8d3f&#45;04cf4b795879 -->
<g id="node9" class="node">
<title>033e5a06&#45;d741&#45;11ee&#45;8d3f&#45;04cf4b795879</title>
<polygon fill="none" stroke="black" points="214.74,-46.95 161.05,-93.9 53.68,-93.9 0,-46.95 53.68,0 161.05,0 214.74,-46.95"/>
<text text-anchor="middle" x="107.37" y="-58.4" font-family="Times,serif" font-size="14.00">rp_24: level3 </text>
<text text-anchor="middle" x="107.37" y="-41.9" font-family="Times,serif" font-size="14.00"> four_eyes_principle </text>
<text text-anchor="middle" x="107.37" y="-25.4" font-family="Times,serif" font-size="14.00"> cost : 63</text>
</g>
<!-- 033e5880&#45;d741&#45;11ee&#45;8d3f&#45;04cf4b795879&#45;&gt;033e5a06&#45;d741&#45;11ee&#45;8d3f&#45;04cf4b795879 -->
<g id="edge8" class="edge">
<title>033e5880&#45;d741&#45;11ee&#45;8d3f&#45;04cf4b795879&#45;&gt;033e5a06&#45;d741&#45;11ee&#45;8d3f&#45;04cf4b795879</title>
<path fill="none" stroke="black" d="M154.7,-130.11C150.37,-122.59 144.98,-113.25 139.42,-103.58"/>
<polygon fill="black" stroke="black" points="142.08,-102.19 134.05,-95.27 136.01,-105.68 142.08,-102.19"/>
</g>
<!-- 033e5ccc&#45;d741&#45;11ee&#45;8d3f&#45;04cf4b795879 -->
<g id="node11" class="node">
<title>033e5ccc&#45;d741&#45;11ee&#45;8d3f&#45;04cf4b795879</title>
<polygon fill="none" stroke="black" points="447.74,-46.95 394.05,-93.9 286.68,-93.9 233,-46.95 286.68,0 394.05,0 447.74,-46.95"/>
<text text-anchor="middle" x="340.37" y="-58.4" font-family="Times,serif" font-size="14.00">rp_24: level3 </text>
<text text-anchor="middle" x="340.37" y="-41.9" font-family="Times,serif" font-size="14.00"> four_eyes_principle </text>
<text text-anchor="middle" x="340.37" y="-25.4" font-family="Times,serif" font-size="14.00"> cost : 53</text>
</g>
<!-- 033e5b50&#45;d741&#45;11ee&#45;8d3f&#45;04cf4b795879&#45;&gt;033e5ccc&#45;d741&#45;11ee&#45;8d3f&#45;04cf4b795879 -->
<g id="edge10" class="edge">
<title>033e5b50&#45;d741&#45;11ee&#45;8d3f&#45;04cf4b795879&#45;&gt;033e5ccc&#45;d741&#45;11ee&#45;8d3f&#45;04cf4b795879</title>
<path fill="none" stroke="black" d="M340.37,-129.66C340.37,-122.65 340.37,-114.12 340.37,-105.24"/>
<polygon fill="black" stroke="black" points="343.87,-105.32 340.37,-95.32 336.87,-105.32 343.87,-105.32"/>
</g>
<!-- 033e5f74&#45;d741&#45;11ee&#45;8d3f&#45;04cf4b795879 -->
<g id="node13" class="node">
<title>033e5f74&#45;d741&#45;11ee&#45;8d3f&#45;04cf4b795879</title>
<polygon fill="none" stroke="black" points="680.74,-46.95 627.05,-93.9 519.68,-93.9 466,-46.95 519.68,0 627.05,0 680.74,-46.95"/>
<text text-anchor="middle" x="573.37" y="-58.4" font-family="Times,serif" font-size="14.00">rp_24: level3 </text>
<text text-anchor="middle" x="573.37" y="-41.9" font-family="Times,serif" font-size="14.00"> four_eyes_principle </text>
<text text-anchor="middle" x="573.37" y="-25.4" font-family="Times,serif" font-size="14.00"> cost : 19</text>
</g>
<!-- 033e5e02&#45;d741&#45;11ee&#45;8d3f&#45;04cf4b795879&#45;&gt;033e5f74&#45;d741&#45;11ee&#45;8d3f&#45;04cf4b795879 -->
<g id="edge12" class="edge">
<title>033e5e02&#45;d741&#45;11ee&#45;8d3f&#45;04cf4b795879&#45;&gt;033e5f74&#45;d741&#45;11ee&#45;8d3f&#45;04cf4b795879</title>
<path fill="none" stroke="black" d="M526.87,-130.11C531.13,-122.59 536.41,-113.25 541.88,-103.58"/>
<polygon fill="black" stroke="black" points="545.28,-105.69 547.15,-95.27 539.18,-102.25 545.28,-105.69"/>
</g>
<!-- 033e6398&#45;d741&#45;11ee&#45;8d3f&#45;04cf4b795879 -->
<g id="node16" class="node">
<title>033e6398&#45;d741&#45;11ee&#45;8d3f&#45;04cf4b795879</title>
<polygon fill="none" stroke="black" points="763.37,-342.35 718.87,-389.29 629.87,-389.29 585.37,-342.35 629.87,-295.4 718.87,-295.4 763.37,-342.35"/>
<text text-anchor="middle" x="674.37" y="-353.8" font-family="Times,serif" font-size="14.00">rp_15: level3 </text>
<text text-anchor="middle" x="674.37" y="-337.3" font-family="Times,serif" font-size="14.00"> create_proposal </text>
<text text-anchor="middle" x="674.37" y="-320.8" font-family="Times,serif" font-size="14.00"> cost : 26</text>
</g>
<!-- 033e621c&#45;d741&#45;11ee&#45;8d3f&#45;04cf4b795879&#45;&gt;033e6398&#45;d741&#45;11ee&#45;8d3f&#45;04cf4b795879 -->
<g id="edge15" class="edge">
<title>033e621c&#45;d741&#45;11ee&#45;8d3f&#45;04cf4b795879&#45;&gt;033e6398&#45;d741&#45;11ee&#45;8d3f&#45;04cf4b795879</title>
<path fill="none" stroke="black" d="M682.63,-425.06C681.92,-418.05 681.06,-409.52 680.16,-400.64"/>
<polygon fill="black" stroke="black" points="683.54,-400.31 679.06,-390.71 676.58,-401.02 683.54,-400.31"/>
</g>
<!-- 033e6636&#45;d741&#45;11ee&#45;8d3f&#45;04cf4b795879 -->
<g id="node18" class="node">
<title>033e6636&#45;d741&#45;11ee&#45;8d3f&#45;04cf4b795879</title>
<polygon fill="none" stroke="black" points="959.37,-342.35 914.87,-389.29 825.87,-389.29 781.37,-342.35 825.87,-295.4 914.87,-295.4 959.37,-342.35"/>
<text text-anchor="middle" x="870.37" y="-353.8" font-family="Times,serif" font-size="14.00">rp_15: level3 </text>
<text text-anchor="middle" x="870.37" y="-337.3" font-family="Times,serif" font-size="14.00"> create_proposal </text>
<text text-anchor="middle" x="870.37" y="-320.8" font-family="Times,serif" font-size="14.00"> cost : 98</text>
</g>
<!-- 033e64c4&#45;d741&#45;11ee&#45;8d3f&#45;04cf4b795879&#45;&gt;033e6636&#45;d741&#45;11ee&#45;8d3f&#45;04cf4b795879 -->
<g id="edge17" class="edge">
<title>033e64c4&#45;d741&#45;11ee&#45;8d3f&#45;04cf4b795879&#45;&gt;033e6636&#45;d741&#45;11ee&#45;8d3f&#45;04cf4b795879</title>
<path fill="none" stroke="black" d="M838.99,-425.06C841.77,-417.82 845.17,-408.95 848.7,-399.76"/>
<polygon fill="black" stroke="black" points="852.24,-401.3 852.56,-390.71 845.71,-398.79 852.24,-401.3"/>
</g>
<!-- 033e6942&#45;d741&#45;11ee&#45;8d3f&#45;04cf4b795879 -->
<g id="node20" class="node">
<title>033e6942&#45;d741&#45;11ee&#45;8d3f&#45;04cf4b795879</title>
<polygon fill="none" stroke="black" points="996.28,-637.74 958.83,-684.69 883.91,-684.69 846.46,-637.74 883.91,-590.79 958.83,-590.79 996.28,-637.74"/>
<text text-anchor="middle" x="921.37" y="-649.19" font-family="Times,serif" font-size="14.00">rp_89: level2 </text>
<text text-anchor="middle" x="921.37" y="-632.69" font-family="Times,serif" font-size="14.00"> design_offer </text>
<text text-anchor="middle" x="921.37" y="-616.19" font-family="Times,serif" font-size="14.00"> cost : 18</text>
</g>
<!-- 033e67c6&#45;d741&#45;11ee&#45;8d3f&#45;04cf4b795879&#45;&gt;033e6942&#45;d741&#45;11ee&#45;8d3f&#45;04cf4b795879 -->
<g id="edge19" class="edge">
<title>033e67c6&#45;d741&#45;11ee&#45;8d3f&#45;04cf4b795879&#45;&gt;033e6942&#45;d741&#45;11ee&#45;8d3f&#45;04cf4b795879</title>
<path fill="none" stroke="black" d="M941.19,-720.46C939.47,-713.37 937.37,-704.73 935.19,-695.74"/>
<polygon fill="black" stroke="black" points="938.37,-695 932.62,-686.11 931.57,-696.65 938.37,-695"/>
</g>
<!-- 033e6a64&#45;d741&#45;11ee&#45;8d3f&#45;04cf4b795879 -->
<g id="node21" class="node">
<title>033e6a64&#45;d741&#45;11ee&#45;8d3f&#45;04cf4b795879</title>
<polygon fill="none" stroke="black" points="991.99,-554.79 850.74,-554.79 850.74,-497.29 991.99,-497.29 991.99,-554.79"/>
<text text-anchor="middle" x="921.37" y="-537.49" font-family="Times,serif" font-size="14.00">r0: head_confirmation </text>
<text text-anchor="middle" x="921.37" y="-520.99" font-family="Times,serif" font-size="14.00"> Type: insert </text>
<text text-anchor="middle" x="921.37" y="-504.49" font-family="Times,serif" font-size="14.00"> Direction: before</text>
</g>
<!-- 033e6942&#45;d741&#45;11ee&#45;8d3f&#45;04cf4b795879&#45;&gt;033e6a64&#45;d741&#45;11ee&#45;8d3f&#45;04cf4b795879 -->
<g id="edge20" class="edge">
<title>033e6942&#45;d741&#45;11ee&#45;8d3f&#45;04cf4b795879&#45;&gt;033e6a64&#45;d741&#45;11ee&#45;8d3f&#45;04cf4b795879</title>
<path fill="none" stroke="black" d="M921.37,-590.54C921.37,-582.34 921.37,-573.88 921.37,-565.91"/>
<polygon fill="black" stroke="black" points="924.87,-566.05 921.37,-556.05 917.87,-566.05 924.87,-566.05"/>
</g>
<!-- 033e6d5c&#45;d741&#45;11ee&#45;8d3f&#45;04cf4b795879 -->
<g id="node23" class="node">
<title>033e6d5c&#45;d741&#45;11ee&#45;8d3f&#45;04cf4b795879</title>
<polygon fill="none" stroke="black" points="1164.28,-637.74 1126.83,-684.69 1051.91,-684.69 1014.46,-637.74 1051.91,-590.79 1126.83,-590.79 1164.28,-637.74"/>
<text text-anchor="middle" x="1089.37" y="-649.19" font-family="Times,serif" font-size="14.00">rp_99: level2 </text>
<text text-anchor="middle" x="1089.37" y="-632.69" font-family="Times,serif" font-size="14.00"> design_offer </text>
<text text-anchor="middle" x="1089.37" y="-616.19" font-family="Times,serif" font-size="14.00"> cost : 63</text>
</g>
<!-- 033e6be0&#45;d741&#45;11ee&#45;8d3f&#45;04cf4b795879&#45;&gt;033e6d5c&#45;d741&#45;11ee&#45;8d3f&#45;04cf4b795879 -->
<g id="edge22" class="edge">
<title>033e6be0&#45;d741&#45;11ee&#45;8d3f&#45;04cf4b795879&#45;&gt;033e6d5c&#45;d741&#45;11ee&#45;8d3f&#45;04cf4b795879</title>
<path fill="none" stroke="black" d="M1089.37,-720.46C1089.37,-713.45 1089.37,-704.91 1089.37,-696.03"/>
<polygon fill="black" stroke="black" points="1092.87,-696.11 1089.37,-686.11 1085.87,-696.11 1092.87,-696.11"/>
</g>
<!-- 033e6fe6&#45;d741&#45;11ee&#45;8d3f&#45;04cf4b795879 -->
<g id="node25" class="node">
<title>033e6fe6&#45;d741&#45;11ee&#45;8d3f&#45;04cf4b795879</title>
<polygon fill="none" stroke="black" points="1332.28,-637.74 1294.83,-684.69 1219.91,-684.69 1182.46,-637.74 1219.91,-590.79 1294.83,-590.79 1332.28,-637.74"/>
<text text-anchor="middle" x="1257.37" y="-649.19" font-family="Times,serif" font-size="14.00">rp_9: level3 </text>
<text text-anchor="middle" x="1257.37" y="-632.69" font-family="Times,serif" font-size="14.00"> design_offer </text>
<text text-anchor="middle" x="1257.37" y="-616.19" font-family="Times,serif" font-size="14.00"> cost : 20</text>
</g>
<!-- 033e6e7e&#45;d741&#45;11ee&#45;8d3f&#45;04cf4b795879&#45;&gt;033e6fe6&#45;d741&#45;11ee&#45;8d3f&#45;04cf4b795879 -->
<g id="edge24" class="edge">
<title>033e6e7e&#45;d741&#45;11ee&#45;8d3f&#45;04cf4b795879&#45;&gt;033e6fe6&#45;d741&#45;11ee&#45;8d3f&#45;04cf4b795879</title>
<path fill="none" stroke="black" d="M1237.55,-720.46C1239.27,-713.37 1241.37,-704.73 1243.54,-695.74"/>
<polygon fill="black" stroke="black" points="1247.17,-696.65 1246.12,-686.11 1240.36,-695 1247.17,-696.65"/>
</g>
<!-- 033e7108&#45;d741&#45;11ee&#45;8d3f&#45;04cf4b795879 -->
<g id="node26" class="node">
<title>033e7108&#45;d741&#45;11ee&#45;8d3f&#45;04cf4b795879</title>
<polygon fill="none" stroke="black" points="1324.37,-554.79 1200.37,-554.79 1200.37,-497.29 1324.37,-497.29 1324.37,-554.79"/>
<text text-anchor="middle" x="1262.37" y="-537.49" font-family="Times,serif" font-size="14.00">r0: create_proposal </text>
<text text-anchor="middle" x="1262.37" y="-520.99" font-family="Times,serif" font-size="14.00"> Type: replace </text>
<text text-anchor="middle" x="1262.37" y="-504.49" font-family="Times,serif" font-size="14.00"> Direction: Core</text>
</g>
<!-- 033e6fe6&#45;d741&#45;11ee&#45;8d3f&#45;04cf4b795879&#45;&gt;033e7108&#45;d741&#45;11ee&#45;8d3f&#45;04cf4b795879 -->
<g id="edge25" class="edge">
<title>033e6fe6&#45;d741&#45;11ee&#45;8d3f&#45;04cf4b795879&#45;&gt;033e7108&#45;d741&#45;11ee&#45;8d3f&#45;04cf4b795879</title>
<path fill="none" stroke="black" d="M1259.48,-590.54C1259.85,-582.34 1260.23,-573.88 1260.6,-565.91"/>
<polygon fill="black" stroke="black" points="1264.13,-566.2 1261.09,-556.05 1257.14,-565.88 1264.13,-566.2"/>
</g>
<!-- 033e7446&#45;d741&#45;11ee&#45;8d3f&#45;04cf4b795879 -->
<g id="node27" class="node">
<title>033e7446&#45;d741&#45;11ee&#45;8d3f&#45;04cf4b795879</title>
<ellipse fill="none" stroke="black" cx="1104.37" cy="-443.29" rx="50.84" ry="18"/>
<text text-anchor="middle" x="1104.37" y="-438.24" font-family="Times,serif" font-size="14.00">r_2: level2</text>
</g>
<!-- 033e7108&#45;d741&#45;11ee&#45;8d3f&#45;04cf4b795879&#45;&gt;033e7446&#45;d741&#45;11ee&#45;8d3f&#45;04cf4b795879 -->
<g id="edge26" class="edge">
<title>033e7108&#45;d741&#45;11ee&#45;8d3f&#45;04cf4b795879&#45;&gt;033e7446&#45;d741&#45;11ee&#45;8d3f&#45;04cf4b795879</title>
<path fill="none" stroke="black" d="M1207.11,-496.8C1185.59,-485.8 1161.47,-473.48 1142.02,-463.54"/>
<polygon fill="black" stroke="black" points="1143.81,-460.01 1133.31,-458.57 1140.62,-466.24 1143.81,-460.01"/>
</g>
<!-- 033e8206&#45;d741&#45;11ee&#45;8d3f&#45;04cf4b795879 -->
<g id="node37" class="node">
<title>033e8206&#45;d741&#45;11ee&#45;8d3f&#45;04cf4b795879</title>
<ellipse fill="none" stroke="black" cx="1262.37" cy="-443.29" rx="50.84" ry="18"/>
<text text-anchor="middle" x="1262.37" y="-438.24" font-family="Times,serif" font-size="14.00">r_4: level2</text>
</g>
<!-- 033e7108&#45;d741&#45;11ee&#45;8d3f&#45;04cf4b795879&#45;&gt;033e8206&#45;d741&#45;11ee&#45;8d3f&#45;04cf4b795879 -->
<g id="edge36" class="edge">
<title>033e7108&#45;d741&#45;11ee&#45;8d3f&#45;04cf4b795879&#45;&gt;033e8206&#45;d741&#45;11ee&#45;8d3f&#45;04cf4b795879</title>
<path fill="none" stroke="black" d="M1262.37,-496.8C1262.37,-488.86 1262.37,-480.22 1262.37,-472.29"/>
<polygon fill="black" stroke="black" points="1265.87,-472.34 1262.37,-462.34 1258.87,-472.34 1265.87,-472.34"/>
</g>
<!-- 033e849a&#45;d741&#45;11ee&#45;8d3f&#45;04cf4b795879 -->
<g id="node39" class="node">
<title>033e849a&#45;d741&#45;11ee&#45;8d3f&#45;04cf4b795879</title>
<ellipse fill="none" stroke="black" cx="1420.37" cy="-443.29" rx="50.84" ry="18"/>
<text text-anchor="middle" x="1420.37" y="-438.24" font-family="Times,serif" font-size="14.00">r_3: level3</text>
</g>
<!-- 033e7108&#45;d741&#45;11ee&#45;8d3f&#45;04cf4b795879&#45;&gt;033e849a&#45;d741&#45;11ee&#45;8d3f&#45;04cf4b795879 -->
<g id="edge38" class="edge">
<title>033e7108&#45;d741&#45;11ee&#45;8d3f&#45;04cf4b795879&#45;&gt;033e849a&#45;d741&#45;11ee&#45;8d3f&#45;04cf4b795879</title>
<path fill="none" stroke="black" d="M1317.63,-496.8C1339.15,-485.8 1363.26,-473.48 1382.72,-463.54"/>
<polygon fill="black" stroke="black" points="1384.12,-466.24 1391.43,-458.57 1380.93,-460.01 1384.12,-466.24"/>
</g>
<!-- 033e871a&#45;d741&#45;11ee&#45;8d3f&#45;04cf4b795879 -->
<g id="node41" class="node">
<title>033e871a&#45;d741&#45;11ee&#45;8d3f&#45;04cf4b795879</title>
<ellipse fill="none" stroke="black" cx="1597.37" cy="-443.29" rx="50.84" ry="18"/>
<text text-anchor="middle" x="1597.37" y="-438.24" font-family="Times,serif" font-size="14.00">r_5: level3</text>
</g>
<!-- 033e7108&#45;d741&#45;11ee&#45;8d3f&#45;04cf4b795879&#45;&gt;033e871a&#45;d741&#45;11ee&#45;8d3f&#45;04cf4b795879 -->
<g id="edge40" class="edge">
<title>033e7108&#45;d741&#45;11ee&#45;8d3f&#45;04cf4b795879&#45;&gt;033e871a&#45;d741&#45;11ee&#45;8d3f&#45;04cf4b795879</title>
<path fill="none" stroke="black" d="M1324.6,-510.05C1388.19,-494.72 1485.83,-471.18 1545.41,-456.82"/>
<polygon fill="black" stroke="black" points="1546.18,-459.99 1555.08,-454.25 1544.54,-453.19 1546.18,-459.99"/>
</g>
<!-- 033e75b8&#45;d741&#45;11ee&#45;8d3f&#45;04cf4b795879 -->
<g id="node28" class="node">
<title>033e75b8&#45;d741&#45;11ee&#45;8d3f&#45;04cf4b795879</title>
<polygon fill="none" stroke="black" points="1155.37,-342.35 1110.87,-389.29 1021.87,-389.29 977.37,-342.35 1021.87,-295.4 1110.87,-295.4 1155.37,-342.35"/>
<text text-anchor="middle" x="1066.37" y="-353.8" font-family="Times,serif" font-size="14.00">rp_15: level3 </text>
<text text-anchor="middle" x="1066.37" y="-337.3" font-family="Times,serif" font-size="14.00"> create_proposal </text>
<text text-anchor="middle" x="1066.37" y="-320.8" font-family="Times,serif" font-size="14.00"> cost : 100</text>
</g>
<!-- 033e7446&#45;d741&#45;11ee&#45;8d3f&#45;04cf4b795879&#45;&gt;033e75b8&#45;d741&#45;11ee&#45;8d3f&#45;04cf4b795879 -->
<g id="edge27" class="edge">
<title>033e7446&#45;d741&#45;11ee&#45;8d3f&#45;04cf4b795879&#45;&gt;033e75b8&#45;d741&#45;11ee&#45;8d3f&#45;04cf4b795879</title>
<path fill="none" stroke="black" d="M1097.75,-425.06C1094.97,-417.82 1091.56,-408.95 1088.03,-399.76"/>
<polygon fill="black" stroke="black" points="1091.03,-398.79 1084.18,-390.71 1084.49,-401.3 1091.03,-398.79"/>
</g>
<!-- 033e76e4&#45;d741&#45;11ee&#45;8d3f&#45;04cf4b795879 -->
<g id="node29" class="node">
<title>033e76e4&#45;d741&#45;11ee&#45;8d3f&#45;04cf4b795879</title>
<polygon fill="none" stroke="black" points="1125.62,-259.4 979.12,-259.4 979.12,-201.9 1125.62,-201.9 1125.62,-259.4"/>
<text text-anchor="middle" x="1052.37" y="-242.1" font-family="Times,serif" font-size="14.00">r0: four_eyes_principle </text>
<text text-anchor="middle" x="1052.37" y="-225.6" font-family="Times,serif" font-size="14.00"> Type: insert </text>
<text text-anchor="middle" x="1052.37" y="-209.1" font-family="Times,serif" font-size="14.00"> Direction: before</text>
</g>
<!-- 033e75b8&#45;d741&#45;11ee&#45;8d3f&#45;04cf4b795879&#45;&gt;033e76e4&#45;d741&#45;11ee&#45;8d3f&#45;04cf4b795879 -->
<g id="edge28" class="edge">
<title>033e75b8&#45;d741&#45;11ee&#45;8d3f&#45;04cf4b795879&#45;&gt;033e76e4&#45;d741&#45;11ee&#45;8d3f&#45;04cf4b795879</title>
<path fill="none" stroke="black" d="M1060.47,-295.14C1059.43,-286.94 1058.35,-278.48 1057.33,-270.51"/>
<polygon fill="black" stroke="black" points="1060.68,-270.13 1055.94,-260.65 1053.74,-271.01 1060.68,-270.13"/>
</g>
<!-- 033e80a8&#45;d741&#45;11ee&#45;8d3f&#45;04cf4b795879 -->
<g id="node36" class="node">
<title>033e80a8&#45;d741&#45;11ee&#45;8d3f&#45;04cf4b795879</title>
<polygon fill="none" stroke="black" points="1290.99,-259.4 1143.74,-259.4 1143.74,-201.9 1290.99,-201.9 1290.99,-259.4"/>
<text text-anchor="middle" x="1217.37" y="-242.1" font-family="Times,serif" font-size="14.00">r0: decide_on_proposal </text>
<text text-anchor="middle" x="1217.37" y="-225.6" font-family="Times,serif" font-size="14.00"> Type: delete </text>
<text text-anchor="middle" x="1217.37" y="-209.1" font-family="Times,serif" font-size="14.00"> Direction: any</text>
</g>
<!-- 033e75b8&#45;d741&#45;11ee&#45;8d3f&#45;04cf4b795879&#45;&gt;033e80a8&#45;d741&#45;11ee&#45;8d3f&#45;04cf4b795879 -->
<g id="edge35" class="edge">
<title>033e75b8&#45;d741&#45;11ee&#45;8d3f&#45;04cf4b795879&#45;&gt;033e80a8&#45;d741&#45;11ee&#45;8d3f&#45;04cf4b795879</title>
<path fill="none" stroke="black" d="M1118.76,-303.29C1135.43,-291.17 1153.77,-277.85 1170.06,-266.01"/>
<polygon fill="black" stroke="black" points="1171.85,-268.32 1177.88,-259.61 1167.73,-262.65 1171.85,-268.32"/>
</g>
<!-- 033e78ce&#45;d741&#45;11ee&#45;8d3f&#45;04cf4b795879 -->
<g id="node30" class="node">
<title>033e78ce&#45;d741&#45;11ee&#45;8d3f&#45;04cf4b795879</title>
<ellipse fill="none" stroke="black" cx="875.37" cy="-147.9" rx="50.84" ry="18"/>
<text text-anchor="middle" x="875.37" y="-142.85" font-family="Times,serif" font-size="14.00">r_4: level2</text>
</g>
<!-- 033e76e4&#45;d741&#45;11ee&#45;8d3f&#45;04cf4b795879&#45;&gt;033e78ce&#45;d741&#45;11ee&#45;8d3f&#45;04cf4b795879 -->
<g id="edge29" class="edge">
<title>033e76e4&#45;d741&#45;11ee&#45;8d3f&#45;04cf4b795879&#45;&gt;033e78ce&#45;d741&#45;11ee&#45;8d3f&#45;04cf4b795879</title>
<path fill="none" stroke="black" d="M990.46,-201.4C965.57,-190.05 937.57,-177.27 915.43,-167.17"/>
<polygon fill="black" stroke="black" points="917.25,-163.7 906.7,-162.73 914.34,-170.07 917.25,-163.7"/>
</g>
<!-- 033e7b76&#45;d741&#45;11ee&#45;8d3f&#45;04cf4b795879 -->
<g id="node32" class="node">
<title>033e7b76&#45;d741&#45;11ee&#45;8d3f&#45;04cf4b795879</title>
<ellipse fill="none" stroke="black" cx="1052.37" cy="-147.9" rx="50.84" ry="18"/>
<text text-anchor="middle" x="1052.37" y="-142.85" font-family="Times,serif" font-size="14.00">r_3: level3</text>
</g>
<!-- 033e76e4&#45;d741&#45;11ee&#45;8d3f&#45;04cf4b795879&#45;&gt;033e7b76&#45;d741&#45;11ee&#45;8d3f&#45;04cf4b795879 -->
<g id="edge31" class="edge">
<title>033e76e4&#45;d741&#45;11ee&#45;8d3f&#45;04cf4b795879&#45;&gt;033e7b76&#45;d741&#45;11ee&#45;8d3f&#45;04cf4b795879</title>
<path fill="none" stroke="black" d="M1052.37,-201.4C1052.37,-193.46 1052.37,-184.82 1052.37,-176.89"/>
<polygon fill="black" stroke="black" points="1055.87,-176.94 1052.37,-166.94 1048.87,-176.94 1055.87,-176.94"/>
</g>
<!-- 033e7e14&#45;d741&#45;11ee&#45;8d3f&#45;04cf4b795879 -->
<g id="node34" class="node">
<title>033e7e14&#45;d741&#45;11ee&#45;8d3f&#45;04cf4b795879</title>
<ellipse fill="none" stroke="black" cx="1228.37" cy="-147.9" rx="50.84" ry="18"/>
<text text-anchor="middle" x="1228.37" y="-142.85" font-family="Times,serif" font-size="14.00">r_5: level3</text>
</g>
<!-- 033e76e4&#45;d741&#45;11ee&#45;8d3f&#45;04cf4b795879&#45;&gt;033e7e14&#45;d741&#45;11ee&#45;8d3f&#45;04cf4b795879 -->
<g id="edge33" class="edge">
<title>033e76e4&#45;d741&#45;11ee&#45;8d3f&#45;04cf4b795879&#45;&gt;033e7e14&#45;d741&#45;11ee&#45;8d3f&#45;04cf4b795879</title>
<path fill="none" stroke="black" d="M1113.93,-201.4C1138.57,-190.1 1166.27,-177.39 1188.24,-167.31"/>
<polygon fill="black" stroke="black" points="1189.58,-170.08 1197.21,-162.73 1186.67,-163.72 1189.58,-170.08"/>
</g>
<!-- 033e7a40&#45;d741&#45;11ee&#45;8d3f&#45;04cf4b795879 -->
<g id="node31" class="node">
<title>033e7a40&#45;d741&#45;11ee&#45;8d3f&#45;04cf4b795879</title>
<polygon fill="none" stroke="black" points="926.74,-46.95 873.05,-93.9 765.68,-93.9 712,-46.95 765.68,0 873.05,0 926.74,-46.95"/>
<text text-anchor="middle" x="819.37" y="-58.4" font-family="Times,serif" font-size="14.00">rp_24: level3 </text>
<text text-anchor="middle" x="819.37" y="-41.9" font-family="Times,serif" font-size="14.00"> four_eyes_principle </text>
<text text-anchor="middle" x="819.37" y="-25.4" font-family="Times,serif" font-size="14.00"> cost : 63</text>
</g>
<!-- 033e78ce&#45;d741&#45;11ee&#45;8d3f&#45;04cf4b795879&#45;&gt;033e7a40&#45;d741&#45;11ee&#45;8d3f&#45;04cf4b795879 -->
<g id="edge30" class="edge">
<title>033e78ce&#45;d741&#45;11ee&#45;8d3f&#45;04cf4b795879&#45;&gt;033e7a40&#45;d741&#45;11ee&#45;8d3f&#45;04cf4b795879</title>
<path fill="none" stroke="black" d="M865.87,-130.11C861.61,-122.59 856.32,-113.25 850.85,-103.58"/>
<polygon fill="black" stroke="black" points="853.56,-102.25 845.58,-95.27 847.46,-105.69 853.56,-102.25"/>
</g>
<!-- 033e7cf2&#45;d741&#45;11ee&#45;8d3f&#45;04cf4b795879 -->
<g id="node33" class="node">
<title>033e7cf2&#45;d741&#45;11ee&#45;8d3f&#45;04cf4b795879</title>
<polygon fill="none" stroke="black" points="1159.74,-46.95 1106.05,-93.9 998.68,-93.9 945,-46.95 998.68,0 1106.05,0 1159.74,-46.95"/>
<text text-anchor="middle" x="1052.37" y="-58.4" font-family="Times,serif" font-size="14.00">rp_24: level3 </text>
<text text-anchor="middle" x="1052.37" y="-41.9" font-family="Times,serif" font-size="14.00"> four_eyes_principle </text>
<text text-anchor="middle" x="1052.37" y="-25.4" font-family="Times,serif" font-size="14.00"> cost : 53</text>
</g>
<!-- 033e7b76&#45;d741&#45;11ee&#45;8d3f&#45;04cf4b795879&#45;&gt;033e7cf2&#45;d741&#45;11ee&#45;8d3f&#45;04cf4b795879 -->
<g id="edge32" class="edge">
<title>033e7b76&#45;d741&#45;11ee&#45;8d3f&#45;04cf4b795879&#45;&gt;033e7cf2&#45;d741&#45;11ee&#45;8d3f&#45;04cf4b795879</title>
<path fill="none" stroke="black" d="M1052.37,-129.66C1052.37,-122.65 1052.37,-114.12 1052.37,-105.24"/>
<polygon fill="black" stroke="black" points="1055.87,-105.32 1052.37,-95.32 1048.87,-105.32 1055.87,-105.32"/>
</g>
<!-- 033e7f7c&#45;d741&#45;11ee&#45;8d3f&#45;04cf4b795879 -->
<g id="node35" class="node">
<title>033e7f7c&#45;d741&#45;11ee&#45;8d3f&#45;04cf4b795879</title>
<polygon fill="none" stroke="black" points="1392.74,-46.95 1339.05,-93.9 1231.68,-93.9 1178,-46.95 1231.68,0 1339.05,0 1392.74,-46.95"/>
<text text-anchor="middle" x="1285.37" y="-58.4" font-family="Times,serif" font-size="14.00">rp_24: level3 </text>
<text text-anchor="middle" x="1285.37" y="-41.9" font-family="Times,serif" font-size="14.00"> four_eyes_principle </text>
<text text-anchor="middle" x="1285.37" y="-25.4" font-family="Times,serif" font-size="14.00"> cost : 19</text>
</g>
<!-- 033e7e14&#45;d741&#45;11ee&#45;8d3f&#45;04cf4b795879&#45;&gt;033e7f7c&#45;d741&#45;11ee&#45;8d3f&#45;04cf4b795879 -->
<g id="edge34" class="edge">
<title>033e7e14&#45;d741&#45;11ee&#45;8d3f&#45;04cf4b795879&#45;&gt;033e7f7c&#45;d741&#45;11ee&#45;8d3f&#45;04cf4b795879</title>
<path fill="none" stroke="black" d="M1238.04,-130.11C1242.37,-122.59 1247.75,-113.25 1253.32,-103.58"/>
<polygon fill="black" stroke="black" points="1256.73,-105.68 1258.69,-95.27 1250.66,-102.19 1256.73,-105.68"/>
</g>
<!-- 033e8378&#45;d741&#45;11ee&#45;8d3f&#45;04cf4b795879 -->
<g id="node38" class="node">
<title>033e8378&#45;d741&#45;11ee&#45;8d3f&#45;04cf4b795879</title>
<polygon fill="none" stroke="black" points="1351.37,-342.35 1306.87,-389.29 1217.87,-389.29 1173.37,-342.35 1217.87,-295.4 1306.87,-295.4 1351.37,-342.35"/>
<text text-anchor="middle" x="1262.37" y="-353.8" font-family="Times,serif" font-size="14.00">rp_15: level2 </text>
<text text-anchor="middle" x="1262.37" y="-337.3" font-family="Times,serif" font-size="14.00"> create_proposal </text>
<text text-anchor="middle" x="1262.37" y="-320.8" font-family="Times,serif" font-size="14.00"> cost : 15</text>
</g>
<!-- 033e8206&#45;d741&#45;11ee&#45;8d3f&#45;04cf4b795879&#45;&gt;033e8378&#45;d741&#45;11ee&#45;8d3f&#45;04cf4b795879 -->
<g id="edge37" class="edge">
<title>033e8206&#45;d741&#45;11ee&#45;8d3f&#45;04cf4b795879&#45;&gt;033e8378&#45;d741&#45;11ee&#45;8d3f&#45;04cf4b795879</title>
<path fill="none" stroke="black" d="M1262.37,-425.06C1262.37,-418.05 1262.37,-409.52 1262.37,-400.64"/>
<polygon fill="black" stroke="black" points="1265.87,-400.71 1262.37,-390.71 1258.87,-400.71 1265.87,-400.71"/>
</g>
<!-- 033e8602&#45;d741&#45;11ee&#45;8d3f&#45;04cf4b795879 -->
<g id="node40" class="node">
<title>033e8602&#45;d741&#45;11ee&#45;8d3f&#45;04cf4b795879</title>
<polygon fill="none" stroke="black" points="1547.37,-342.35 1502.87,-389.29 1413.87,-389.29 1369.37,-342.35 1413.87,-295.4 1502.87,-295.4 1547.37,-342.35"/>
<text text-anchor="middle" x="1458.37" y="-353.8" font-family="Times,serif" font-size="14.00">rp_15: level3 </text>
<text text-anchor="middle" x="1458.37" y="-337.3" font-family="Times,serif" font-size="14.00"> create_proposal </text>
<text text-anchor="middle" x="1458.37" y="-320.8" font-family="Times,serif" font-size="14.00"> cost : 26</text>
</g>
<!-- 033e849a&#45;d741&#45;11ee&#45;8d3f&#45;04cf4b795879&#45;&gt;033e8602&#45;d741&#45;11ee&#45;8d3f&#45;04cf4b795879 -->
<g id="edge39" class="edge">
<title>033e849a&#45;d741&#45;11ee&#45;8d3f&#45;04cf4b795879&#45;&gt;033e8602&#45;d741&#45;11ee&#45;8d3f&#45;04cf4b795879</title>
<path fill="none" stroke="black" d="M1426.99,-425.06C1429.77,-417.82 1433.17,-408.95 1436.7,-399.76"/>
<polygon fill="black" stroke="black" points="1440.24,-401.3 1440.56,-390.71 1433.71,-398.79 1440.24,-401.3"/>
</g>
<!-- 033e888c&#45;d741&#45;11ee&#45;8d3f&#45;04cf4b795879 -->
<g id="node42" class="node">
<title>033e888c&#45;d741&#45;11ee&#45;8d3f&#45;04cf4b795879</title>
<polygon fill="none" stroke="black" points="1743.37,-342.35 1698.87,-389.29 1609.87,-389.29 1565.37,-342.35 1609.87,-295.4 1698.87,-295.4 1743.37,-342.35"/>
<text text-anchor="middle" x="1654.37" y="-353.8" font-family="Times,serif" font-size="14.00">rp_15: level3 </text>
<text text-anchor="middle" x="1654.37" y="-337.3" font-family="Times,serif" font-size="14.00"> create_proposal </text>
<text text-anchor="middle" x="1654.37" y="-320.8" font-family="Times,serif" font-size="14.00"> cost : 98</text>
</g>
<!-- 033e871a&#45;d741&#45;11ee&#45;8d3f&#45;04cf4b795879&#45;&gt;033e888c&#45;d741&#45;11ee&#45;8d3f&#45;04cf4b795879 -->
<g id="edge41" class="edge">
<title>033e871a&#45;d741&#45;11ee&#45;8d3f&#45;04cf4b795879&#45;&gt;033e888c&#45;d741&#45;11ee&#45;8d3f&#45;04cf4b795879</title>
<path fill="none" stroke="black" d="M1607.04,-425.51C1611.37,-417.99 1616.75,-408.64 1622.32,-398.98"/>
<polygon fill="black" stroke="black" points="1625.73,-401.08 1627.69,-390.66 1619.66,-397.58 1625.73,-401.08"/>
</g>
<!-- 033e8b20&#45;d741&#45;11ee&#45;8d3f&#45;04cf4b795879 -->
<g id="node44" class="node">
<title>033e8b20&#45;d741&#45;11ee&#45;8d3f&#45;04cf4b795879</title>
<polygon fill="none" stroke="black" points="1500.28,-637.74 1462.83,-684.69 1387.91,-684.69 1350.46,-637.74 1387.91,-590.79 1462.83,-590.79 1500.28,-637.74"/>
<text text-anchor="middle" x="1425.37" y="-649.19" font-family="Times,serif" font-size="14.00">rp_9: level3 </text>
<text text-anchor="middle" x="1425.37" y="-632.69" font-family="Times,serif" font-size="14.00"> design_offer </text>
<text text-anchor="middle" x="1425.37" y="-616.19" font-family="Times,serif" font-size="14.00"> cost : 38</text>
</g>
<!-- 033e89b8&#45;d741&#45;11ee&#45;8d3f&#45;04cf4b795879&#45;&gt;033e8b20&#45;d741&#45;11ee&#45;8d3f&#45;04cf4b795879 -->
<g id="edge43" class="edge">
<title>033e89b8&#45;d741&#45;11ee&#45;8d3f&#45;04cf4b795879&#45;&gt;033e8b20&#45;d741&#45;11ee&#45;8d3f&#45;04cf4b795879</title>
<path fill="none" stroke="black" d="M1395.64,-720.46C1398.25,-713.29 1401.43,-704.54 1404.74,-695.45"/>
<polygon fill="black" stroke="black" points="1408.37,-696.71 1408.5,-686.11 1401.79,-694.31 1408.37,-696.71"/>
</g>
</g>
</svg>
