<?xml version="1.0" encoding="UTF-8" standalone="no"?>
<!DOCTYPE svg PUBLIC "-//W3C//DTD SVG 1.1//EN"
 "http://www.w3.org/Graphics/SVG/1.1/DTD/svg11.dtd">
<!-- Generated by graphviz version 8.1.0 (20230707.0739)
 -->
<!-- Title: CallTree Pages: 1 -->
<svg width="851pt" height="563pt"
 viewBox="0.00 0.00 851.11 562.79" xmlns="http://www.w3.org/2000/svg" xmlns:xlink="http://www.w3.org/1999/xlink">
<g id="graph0" class="graph" transform="scale(1 1) rotate(0) translate(4 558.79)">
<title>CallTree</title>
<polygon fill="white" stroke="none" points="-4,4 -4,-558.79 847.11,-558.79 847.11,4 -4,4"/>
<!-- 67b41278&#45;d615&#45;11ee&#45;9dd8&#45;04cf4b795879 -->
<g id="node1" class="node">
<title>67b41278&#45;d615&#45;11ee&#45;9dd8&#45;04cf4b795879</title>
<polygon fill="none" stroke="black" points="546.14,-554.79 434.14,-554.79 434.14,-497.29 546.14,-497.29 546.14,-554.79"/>
<text text-anchor="middle" x="490.14" y="-537.49" font-family="Times,serif" font-size="14.00">a9: close_project </text>
<text text-anchor="middle" x="490.14" y="-520.99" font-family="Times,serif" font-size="14.00"> Type: Core </text>
<text text-anchor="middle" x="490.14" y="-504.49" font-family="Times,serif" font-size="14.00"> Direction: Core</text>
</g>
<!-- 67b42074&#45;d615&#45;11ee&#45;9dd8&#45;04cf4b795879 -->
<g id="node2" class="node">
<title>67b42074&#45;d615&#45;11ee&#45;9dd8&#45;04cf4b795879</title>
<ellipse fill="none" stroke="black" cx="283.14" cy="-443.29" rx="50.84" ry="18"/>
<text text-anchor="middle" x="283.14" y="-438.24" font-family="Times,serif" font-size="14.00">r_2: level2</text>
</g>
<!-- 67b41278&#45;d615&#45;11ee&#45;9dd8&#45;04cf4b795879&#45;&gt;67b42074&#45;d615&#45;11ee&#45;9dd8&#45;04cf4b795879 -->
<g id="edge1" class="edge">
<title>67b41278&#45;d615&#45;11ee&#45;9dd8&#45;04cf4b795879&#45;&gt;67b42074&#45;d615&#45;11ee&#45;9dd8&#45;04cf4b795879</title>
<path fill="none" stroke="black" d="M433.85,-503.09C400.07,-489.91 357.76,-473.41 326.58,-461.24"/>
<polygon fill="black" stroke="black" points="328.04,-457.67 317.46,-457.29 325.5,-464.19 328.04,-457.67"/>
</g>
<!-- 67b43abe&#45;d615&#45;11ee&#45;9dd8&#45;04cf4b795879 -->
<g id="node9" class="node">
<title>67b43abe&#45;d615&#45;11ee&#45;9dd8&#45;04cf4b795879</title>
<ellipse fill="none" stroke="black" cx="430.14" cy="-443.29" rx="50.84" ry="18"/>
<text text-anchor="middle" x="430.14" y="-438.24" font-family="Times,serif" font-size="14.00">r_4: level2</text>
</g>
<!-- 67b41278&#45;d615&#45;11ee&#45;9dd8&#45;04cf4b795879&#45;&gt;67b43abe&#45;d615&#45;11ee&#45;9dd8&#45;04cf4b795879 -->
<g id="edge8" class="edge">
<title>67b41278&#45;d615&#45;11ee&#45;9dd8&#45;04cf4b795879&#45;&gt;67b43abe&#45;d615&#45;11ee&#45;9dd8&#45;04cf4b795879</title>
<path fill="none" stroke="black" d="M469.15,-496.8C462.53,-487.89 455.26,-478.11 448.82,-469.43"/>
<polygon fill="black" stroke="black" points="451.23,-467.81 442.45,-461.87 445.61,-471.98 451.23,-467.81"/>
</g>
<!-- 67b4538c&#45;d615&#45;11ee&#45;9dd8&#45;04cf4b795879 -->
<g id="node16" class="node">
<title>67b4538c&#45;d615&#45;11ee&#45;9dd8&#45;04cf4b795879</title>
<ellipse fill="none" stroke="black" cx="577.14" cy="-443.29" rx="50.84" ry="18"/>
<text text-anchor="middle" x="577.14" y="-438.24" font-family="Times,serif" font-size="14.00">r_3: level3</text>
</g>
<!-- 67b41278&#45;d615&#45;11ee&#45;9dd8&#45;04cf4b795879&#45;&gt;67b4538c&#45;d615&#45;11ee&#45;9dd8&#45;04cf4b795879 -->
<g id="edge15" class="edge">
<title>67b41278&#45;d615&#45;11ee&#45;9dd8&#45;04cf4b795879&#45;&gt;67b4538c&#45;d615&#45;11ee&#45;9dd8&#45;04cf4b795879</title>
<path fill="none" stroke="black" d="M520.57,-496.8C530.75,-487.35 541.99,-476.92 551.74,-467.86"/>
<polygon fill="black" stroke="black" points="553.59,-471 558.54,-461.63 548.83,-465.87 553.59,-471"/>
</g>
<!-- 67b45ada&#45;d615&#45;11ee&#45;9dd8&#45;04cf4b795879 -->
<g id="node18" class="node">
<title>67b45ada&#45;d615&#45;11ee&#45;9dd8&#45;04cf4b795879</title>
<ellipse fill="none" stroke="black" cx="737.14" cy="-443.29" rx="50.84" ry="18"/>
<text text-anchor="middle" x="737.14" y="-438.24" font-family="Times,serif" font-size="14.00">r_5: level3</text>
</g>
<!-- 67b41278&#45;d615&#45;11ee&#45;9dd8&#45;04cf4b795879&#45;&gt;67b45ada&#45;d615&#45;11ee&#45;9dd8&#45;04cf4b795879 -->
<g id="edge17" class="edge">
<title>67b41278&#45;d615&#45;11ee&#45;9dd8&#45;04cf4b795879&#45;&gt;67b45ada&#45;d615&#45;11ee&#45;9dd8&#45;04cf4b795879</title>
<path fill="none" stroke="black" d="M546.5,-506.62C589.98,-492.4 649.42,-472.97 690.31,-459.6"/>
<polygon fill="black" stroke="black" points="691.13,-462.69 699.55,-456.26 688.95,-456.04 691.13,-462.69"/>
</g>
<!-- 67b42484&#45;d615&#45;11ee&#45;9dd8&#45;04cf4b795879 -->
<g id="node3" class="node">
<title>67b42484&#45;d615&#45;11ee&#45;9dd8&#45;04cf4b795879</title>
<polygon fill="none" stroke="black" points="321.11,-342.35 282.13,-389.29 204.15,-389.29 165.16,-342.35 204.15,-295.4 282.13,-295.4 321.11,-342.35"/>
<text text-anchor="middle" x="243.14" y="-353.8" font-family="Times,serif" font-size="14.00">rp_12: level2 </text>
<text text-anchor="middle" x="243.14" y="-337.3" font-family="Times,serif" font-size="14.00"> close_project </text>
<text text-anchor="middle" x="243.14" y="-320.8" font-family="Times,serif" font-size="14.00"> cost : 40</text>
</g>
<!-- 67b42074&#45;d615&#45;11ee&#45;9dd8&#45;04cf4b795879&#45;&gt;67b42484&#45;d615&#45;11ee&#45;9dd8&#45;04cf4b795879 -->
<g id="edge2" class="edge">
<title>67b42074&#45;d615&#45;11ee&#45;9dd8&#45;04cf4b795879&#45;&gt;67b42484&#45;d615&#45;11ee&#45;9dd8&#45;04cf4b795879</title>
<path fill="none" stroke="black" d="M276.17,-425.06C273.24,-417.82 269.66,-408.95 265.94,-399.76"/>
<polygon fill="black" stroke="black" points="268.88,-398.67 261.88,-390.71 262.39,-401.3 268.88,-398.67"/>
</g>
<!-- 67b427cc&#45;d615&#45;11ee&#45;9dd8&#45;04cf4b795879 -->
<g id="node4" class="node">
<title>67b427cc&#45;d615&#45;11ee&#45;9dd8&#45;04cf4b795879</title>
<polygon fill="none" stroke="black" points="297.26,-259.4 189.01,-259.4 189.01,-201.9 297.26,-201.9 297.26,-259.4"/>
<text text-anchor="middle" x="243.14" y="-242.1" font-family="Times,serif" font-size="14.00">r4: inform_head </text>
<text text-anchor="middle" x="243.14" y="-225.6" font-family="Times,serif" font-size="14.00"> Type: insert </text>
<text text-anchor="middle" x="243.14" y="-209.1" font-family="Times,serif" font-size="14.00"> Direction: after</text>
</g>
<!-- 67b42484&#45;d615&#45;11ee&#45;9dd8&#45;04cf4b795879&#45;&gt;67b427cc&#45;d615&#45;11ee&#45;9dd8&#45;04cf4b795879 -->
<g id="edge3" class="edge">
<title>67b42484&#45;d615&#45;11ee&#45;9dd8&#45;04cf4b795879&#45;&gt;67b427cc&#45;d615&#45;11ee&#45;9dd8&#45;04cf4b795879</title>
<path fill="none" stroke="black" d="M243.14,-295.14C243.14,-286.94 243.14,-278.48 243.14,-270.51"/>
<polygon fill="black" stroke="black" points="246.64,-270.65 243.14,-260.65 239.64,-270.65 246.64,-270.65"/>
</g>
<!-- 67b42c4a&#45;d615&#45;11ee&#45;9dd8&#45;04cf4b795879 -->
<g id="node5" class="node">
<title>67b42c4a&#45;d615&#45;11ee&#45;9dd8&#45;04cf4b795879</title>
<ellipse fill="none" stroke="black" cx="100.14" cy="-147.9" rx="50.84" ry="18"/>
<text text-anchor="middle" x="100.14" y="-142.85" font-family="Times,serif" font-size="14.00">r_2: level2</text>
</g>
<!-- 67b427cc&#45;d615&#45;11ee&#45;9dd8&#45;04cf4b795879&#45;&gt;67b42c4a&#45;d615&#45;11ee&#45;9dd8&#45;04cf4b795879 -->
<g id="edge4" class="edge">
<title>67b427cc&#45;d615&#45;11ee&#45;9dd8&#45;04cf4b795879&#45;&gt;67b42c4a&#45;d615&#45;11ee&#45;9dd8&#45;04cf4b795879</title>
<path fill="none" stroke="black" d="M193.12,-201.4C174.1,-190.66 152.83,-178.65 135.44,-168.83"/>
<polygon fill="black" stroke="black" points="137.65,-165.5 127.22,-163.63 134.21,-171.59 137.65,-165.5"/>
</g>
<!-- 67b433e8&#45;d615&#45;11ee&#45;9dd8&#45;04cf4b795879 -->
<g id="node7" class="node">
<title>67b433e8&#45;d615&#45;11ee&#45;9dd8&#45;04cf4b795879</title>
<ellipse fill="none" stroke="black" cx="244.14" cy="-147.9" rx="50.84" ry="18"/>
<text text-anchor="middle" x="244.14" y="-142.85" font-family="Times,serif" font-size="14.00">r_4: level2</text>
</g>
<!-- 67b427cc&#45;d615&#45;11ee&#45;9dd8&#45;04cf4b795879&#45;&gt;67b433e8&#45;d615&#45;11ee&#45;9dd8&#45;04cf4b795879 -->
<g id="edge6" class="edge">
<title>67b427cc&#45;d615&#45;11ee&#45;9dd8&#45;04cf4b795879&#45;&gt;67b433e8&#45;d615&#45;11ee&#45;9dd8&#45;04cf4b795879</title>
<path fill="none" stroke="black" d="M243.49,-201.4C243.59,-193.46 243.69,-184.82 243.79,-176.89"/>
<polygon fill="black" stroke="black" points="247.3,-176.98 243.93,-166.94 240.3,-176.9 247.3,-176.98"/>
</g>
<!-- 67b43032&#45;d615&#45;11ee&#45;9dd8&#45;04cf4b795879 -->
<g id="node6" class="node">
<title>67b43032&#45;d615&#45;11ee&#45;9dd8&#45;04cf4b795879</title>
<polygon fill="none" stroke="black" points="152.28,-46.95 114.21,-93.9 38.07,-93.9 0,-46.95 38.07,0 114.21,0 152.28,-46.95"/>
<text text-anchor="middle" x="76.14" y="-58.4" font-family="Times,serif" font-size="14.00">rp_22: level2 </text>
<text text-anchor="middle" x="76.14" y="-41.9" font-family="Times,serif" font-size="14.00"> inform_head </text>
<text text-anchor="middle" x="76.14" y="-25.4" font-family="Times,serif" font-size="14.00"> cost : 125</text>
</g>
<!-- 67b42c4a&#45;d615&#45;11ee&#45;9dd8&#45;04cf4b795879&#45;&gt;67b43032&#45;d615&#45;11ee&#45;9dd8&#45;04cf4b795879 -->
<g id="edge5" class="edge">
<title>67b42c4a&#45;d615&#45;11ee&#45;9dd8&#45;04cf4b795879&#45;&gt;67b43032&#45;d615&#45;11ee&#45;9dd8&#45;04cf4b795879</title>
<path fill="none" stroke="black" d="M95.96,-129.66C94.24,-122.58 92.14,-113.93 89.96,-104.95"/>
<polygon fill="black" stroke="black" points="93.14,-104.21 87.39,-95.32 86.34,-105.86 93.14,-104.21"/>
</g>
<!-- 67b437b2&#45;d615&#45;11ee&#45;9dd8&#45;04cf4b795879 -->
<g id="node8" class="node">
<title>67b437b2&#45;d615&#45;11ee&#45;9dd8&#45;04cf4b795879</title>
<polygon fill="none" stroke="black" points="322.28,-46.95 284.21,-93.9 208.07,-93.9 170,-46.95 208.07,0 284.21,0 322.28,-46.95"/>
<text text-anchor="middle" x="246.14" y="-58.4" font-family="Times,serif" font-size="14.00">rp_22: level2 </text>
<text text-anchor="middle" x="246.14" y="-41.9" font-family="Times,serif" font-size="14.00"> inform_head </text>
<text text-anchor="middle" x="246.14" y="-25.4" font-family="Times,serif" font-size="14.00"> cost : 31</text>
</g>
<!-- 67b433e8&#45;d615&#45;11ee&#45;9dd8&#45;04cf4b795879&#45;&gt;67b437b2&#45;d615&#45;11ee&#45;9dd8&#45;04cf4b795879 -->
<g id="edge7" class="edge">
<title>67b433e8&#45;d615&#45;11ee&#45;9dd8&#45;04cf4b795879&#45;&gt;67b437b2&#45;d615&#45;11ee&#45;9dd8&#45;04cf4b795879</title>
<path fill="none" stroke="black" d="M244.49,-129.66C244.63,-122.65 244.8,-114.12 244.98,-105.24"/>
<polygon fill="black" stroke="black" points="248.5,-105.39 245.2,-95.32 241.5,-105.24 248.5,-105.39"/>
</g>
<!-- 67b43e7e&#45;d615&#45;11ee&#45;9dd8&#45;04cf4b795879 -->
<g id="node10" class="node">
<title>67b43e7e&#45;d615&#45;11ee&#45;9dd8&#45;04cf4b795879</title>
<polygon fill="none" stroke="black" points="495.11,-342.35 456.13,-389.29 378.15,-389.29 339.16,-342.35 378.15,-295.4 456.13,-295.4 495.11,-342.35"/>
<text text-anchor="middle" x="417.14" y="-353.8" font-family="Times,serif" font-size="14.00">rp_12: level2 </text>
<text text-anchor="middle" x="417.14" y="-337.3" font-family="Times,serif" font-size="14.00"> close_project </text>
<text text-anchor="middle" x="417.14" y="-320.8" font-family="Times,serif" font-size="14.00"> cost : 77</text>
</g>
<!-- 67b43abe&#45;d615&#45;11ee&#45;9dd8&#45;04cf4b795879&#45;&gt;67b43e7e&#45;d615&#45;11ee&#45;9dd8&#45;04cf4b795879 -->
<g id="edge9" class="edge">
<title>67b43abe&#45;d615&#45;11ee&#45;9dd8&#45;04cf4b795879&#45;&gt;67b43e7e&#45;d615&#45;11ee&#45;9dd8&#45;04cf4b795879</title>
<path fill="none" stroke="black" d="M427.87,-425.06C426.94,-417.97 425.81,-409.33 424.63,-400.34"/>
<polygon fill="black" stroke="black" points="428,-400.17 423.23,-390.71 421.06,-401.09 428,-400.17"/>
</g>
<!-- 67b44194&#45;d615&#45;11ee&#45;9dd8&#45;04cf4b795879 -->
<g id="node11" class="node">
<title>67b44194&#45;d615&#45;11ee&#45;9dd8&#45;04cf4b795879</title>
<polygon fill="none" stroke="black" points="471.26,-259.4 363.01,-259.4 363.01,-201.9 471.26,-201.9 471.26,-259.4"/>
<text text-anchor="middle" x="417.14" y="-242.1" font-family="Times,serif" font-size="14.00">r7: inform_head </text>
<text text-anchor="middle" x="417.14" y="-225.6" font-family="Times,serif" font-size="14.00"> Type: insert </text>
<text text-anchor="middle" x="417.14" y="-209.1" font-family="Times,serif" font-size="14.00"> Direction: after</text>
</g>
<!-- 67b43e7e&#45;d615&#45;11ee&#45;9dd8&#45;04cf4b795879&#45;&gt;67b44194&#45;d615&#45;11ee&#45;9dd8&#45;04cf4b795879 -->
<g id="edge10" class="edge">
<title>67b43e7e&#45;d615&#45;11ee&#45;9dd8&#45;04cf4b795879&#45;&gt;67b44194&#45;d615&#45;11ee&#45;9dd8&#45;04cf4b795879</title>
<path fill="none" stroke="black" d="M417.14,-295.14C417.14,-286.94 417.14,-278.48 417.14,-270.51"/>
<polygon fill="black" stroke="black" points="420.64,-270.65 417.14,-260.65 413.64,-270.65 420.64,-270.65"/>
</g>
<!-- 67b445fe&#45;d615&#45;11ee&#45;9dd8&#45;04cf4b795879 -->
<g id="node12" class="node">
<title>67b445fe&#45;d615&#45;11ee&#45;9dd8&#45;04cf4b795879</title>
<ellipse fill="none" stroke="black" cx="417.14" cy="-147.9" rx="50.84" ry="18"/>
<text text-anchor="middle" x="417.14" y="-142.85" font-family="Times,serif" font-size="14.00">r_2: level2</text>
</g>
<!-- 67b44194&#45;d615&#45;11ee&#45;9dd8&#45;04cf4b795879&#45;&gt;67b445fe&#45;d615&#45;11ee&#45;9dd8&#45;04cf4b795879 -->
<g id="edge11" class="edge">
<title>67b44194&#45;d615&#45;11ee&#45;9dd8&#45;04cf4b795879&#45;&gt;67b445fe&#45;d615&#45;11ee&#45;9dd8&#45;04cf4b795879</title>
<path fill="none" stroke="black" d="M417.14,-201.4C417.14,-193.46 417.14,-184.82 417.14,-176.89"/>
<polygon fill="black" stroke="black" points="420.64,-176.94 417.14,-166.94 413.64,-176.94 420.64,-176.94"/>
</g>
<!-- 67b44cca&#45;d615&#45;11ee&#45;9dd8&#45;04cf4b795879 -->
<g id="node14" class="node">
<title>67b44cca&#45;d615&#45;11ee&#45;9dd8&#45;04cf4b795879</title>
<ellipse fill="none" stroke="black" cx="562.14" cy="-147.9" rx="50.84" ry="18"/>
<text text-anchor="middle" x="562.14" y="-142.85" font-family="Times,serif" font-size="14.00">r_4: level2</text>
</g>
<!-- 67b44194&#45;d615&#45;11ee&#45;9dd8&#45;04cf4b795879&#45;&gt;67b44cca&#45;d615&#45;11ee&#45;9dd8&#45;04cf4b795879 -->
<g id="edge13" class="edge">
<title>67b44194&#45;d615&#45;11ee&#45;9dd8&#45;04cf4b795879&#45;&gt;67b44cca&#45;d615&#45;11ee&#45;9dd8&#45;04cf4b795879</title>
<path fill="none" stroke="black" d="M467.85,-201.4C487.15,-190.66 508.71,-178.65 526.34,-168.83"/>
<polygon fill="black" stroke="black" points="527.66,-171.55 534.69,-163.63 524.25,-165.43 527.66,-171.55"/>
</g>
<!-- 67b449c8&#45;d615&#45;11ee&#45;9dd8&#45;04cf4b795879 -->
<g id="node13" class="node">
<title>67b449c8&#45;d615&#45;11ee&#45;9dd8&#45;04cf4b795879</title>
<polygon fill="none" stroke="black" points="493.28,-46.95 455.21,-93.9 379.07,-93.9 341,-46.95 379.07,0 455.21,0 493.28,-46.95"/>
<text text-anchor="middle" x="417.14" y="-58.4" font-family="Times,serif" font-size="14.00">rp_22: level2 </text>
<text text-anchor="middle" x="417.14" y="-41.9" font-family="Times,serif" font-size="14.00"> inform_head </text>
<text text-anchor="middle" x="417.14" y="-25.4" font-family="Times,serif" font-size="14.00"> cost : 125</text>
</g>
<!-- 67b445fe&#45;d615&#45;11ee&#45;9dd8&#45;04cf4b795879&#45;&gt;67b449c8&#45;d615&#45;11ee&#45;9dd8&#45;04cf4b795879 -->
<g id="edge12" class="edge">
<title>67b445fe&#45;d615&#45;11ee&#45;9dd8&#45;04cf4b795879&#45;&gt;67b449c8&#45;d615&#45;11ee&#45;9dd8&#45;04cf4b795879</title>
<path fill="none" stroke="black" d="M417.14,-129.66C417.14,-122.65 417.14,-114.12 417.14,-105.24"/>
<polygon fill="black" stroke="black" points="420.64,-105.32 417.14,-95.32 413.64,-105.32 420.64,-105.32"/>
</g>
<!-- 67b45080&#45;d615&#45;11ee&#45;9dd8&#45;04cf4b795879 -->
<g id="node15" class="node">
<title>67b45080&#45;d615&#45;11ee&#45;9dd8&#45;04cf4b795879</title>
<polygon fill="none" stroke="black" points="663.28,-46.95 625.21,-93.9 549.07,-93.9 511,-46.95 549.07,0 625.21,0 663.28,-46.95"/>
<text text-anchor="middle" x="587.14" y="-58.4" font-family="Times,serif" font-size="14.00">rp_22: level2 </text>
<text text-anchor="middle" x="587.14" y="-41.9" font-family="Times,serif" font-size="14.00"> inform_head </text>
<text text-anchor="middle" x="587.14" y="-25.4" font-family="Times,serif" font-size="14.00"> cost : 31</text>
</g>
<!-- 67b44cca&#45;d615&#45;11ee&#45;9dd8&#45;04cf4b795879&#45;&gt;67b45080&#45;d615&#45;11ee&#45;9dd8&#45;04cf4b795879 -->
<g id="edge14" class="edge">
<title>67b44cca&#45;d615&#45;11ee&#45;9dd8&#45;04cf4b795879&#45;&gt;67b45080&#45;d615&#45;11ee&#45;9dd8&#45;04cf4b795879</title>
<path fill="none" stroke="black" d="M566.49,-129.66C568.28,-122.58 570.47,-113.93 572.74,-104.95"/>
<polygon fill="black" stroke="black" points="576.37,-105.87 575.42,-95.32 569.58,-104.16 576.37,-105.87"/>
</g>
<!-- 67b45742&#45;d615&#45;11ee&#45;9dd8&#45;04cf4b795879 -->
<g id="node17" class="node">
<title>67b45742&#45;d615&#45;11ee&#45;9dd8&#45;04cf4b795879</title>
<polygon fill="none" stroke="black" points="669.11,-342.35 630.13,-389.29 552.15,-389.29 513.16,-342.35 552.15,-295.4 630.13,-295.4 669.11,-342.35"/>
<text text-anchor="middle" x="591.14" y="-353.8" font-family="Times,serif" font-size="14.00">rp_19: level3 </text>
<text text-anchor="middle" x="591.14" y="-337.3" font-family="Times,serif" font-size="14.00"> close_project </text>
<text text-anchor="middle" x="591.14" y="-320.8" font-family="Times,serif" font-size="14.00"> cost : 122</text>
</g>
<!-- 67b4538c&#45;d615&#45;11ee&#45;9dd8&#45;04cf4b795879&#45;&gt;67b45742&#45;d615&#45;11ee&#45;9dd8&#45;04cf4b795879 -->
<g id="edge16" class="edge">
<title>67b4538c&#45;d615&#45;11ee&#45;9dd8&#45;04cf4b795879&#45;&gt;67b45742&#45;d615&#45;11ee&#45;9dd8&#45;04cf4b795879</title>
<path fill="none" stroke="black" d="M579.58,-425.06C580.58,-417.97 581.8,-409.33 583.07,-400.34"/>
<polygon fill="black" stroke="black" points="586.64,-401.11 584.58,-390.71 579.71,-400.13 586.64,-401.11"/>
</g>
<!-- 67b45ea4&#45;d615&#45;11ee&#45;9dd8&#45;04cf4b795879 -->
<g id="node19" class="node">
<title>67b45ea4&#45;d615&#45;11ee&#45;9dd8&#45;04cf4b795879</title>
<polygon fill="none" stroke="black" points="843.11,-342.35 804.13,-389.29 726.15,-389.29 687.16,-342.35 726.15,-295.4 804.13,-295.4 843.11,-342.35"/>
<text text-anchor="middle" x="765.14" y="-353.8" font-family="Times,serif" font-size="14.00">rp_19: level3 </text>
<text text-anchor="middle" x="765.14" y="-337.3" font-family="Times,serif" font-size="14.00"> close_project </text>
<text text-anchor="middle" x="765.14" y="-320.8" font-family="Times,serif" font-size="14.00"> cost : 2</text>
</g>
<!-- 67b45ada&#45;d615&#45;11ee&#45;9dd8&#45;04cf4b795879&#45;&gt;67b45ea4&#45;d615&#45;11ee&#45;9dd8&#45;04cf4b795879 -->
<g id="edge18" class="edge">
<title>67b45ada&#45;d615&#45;11ee&#45;9dd8&#45;04cf4b795879&#45;&gt;67b45ea4&#45;d615&#45;11ee&#45;9dd8&#45;04cf4b795879</title>
<path fill="none" stroke="black" d="M742.02,-425.06C744.04,-417.9 746.52,-409.14 749.09,-400.05"/>
<polygon fill="black" stroke="black" points="752.66,-401.29 752.02,-390.71 745.93,-399.38 752.66,-401.29"/>
</g>
</g>
</svg>
