<?xml version="1.0" encoding="UTF-8" standalone="no"?>
<!DOCTYPE svg PUBLIC "-//W3C//DTD SVG 1.1//EN"
 "http://www.w3.org/Graphics/SVG/1.1/DTD/svg11.dtd">
<!-- Generated by graphviz version 7.1.0 (0)
 -->
<!-- Title: CallTree Pages: 1 -->
<svg width="273pt" height="256pt"
 viewBox="0.00 0.00 272.54 255.55" xmlns="http://www.w3.org/2000/svg" xmlns:xlink="http://www.w3.org/1999/xlink">
<g id="graph0" class="graph" transform="scale(1 1) rotate(0) translate(4 251.55)">
<title>CallTree</title>
<polygon fill="white" stroke="none" points="-4,4 -4,-251.55 268.54,-251.55 268.54,4 -4,4"/>
<!-- f84d30d0&#45;d642&#45;11ee&#45;b104&#45;ac1a3ddd05c7 -->
<g id="node1" class="node">
<title>f84d30d0&#45;d642&#45;11ee&#45;b104&#45;ac1a3ddd05c7</title>
<polygon fill="none" stroke="black" points="221.77,-247.55 42.77,-247.55 42.77,-194.55 221.77,-194.55 221.77,-247.55"/>
<text text-anchor="middle" x="132.27" y="-232.35" font-family="Times,serif" font-size="14.00">a6: handover_to_engineering </text>
<text text-anchor="middle" x="132.27" y="-217.35" font-family="Times,serif" font-size="14.00"> Type: Core </text>
<text text-anchor="middle" x="132.27" y="-202.35" font-family="Times,serif" font-size="14.00"> Direction: Core</text>
</g>
<!-- f84d354e&#45;d642&#45;11ee&#45;b104&#45;ac1a3ddd05c7 -->
<g id="node2" class="node">
<title>f84d354e&#45;d642&#45;11ee&#45;b104&#45;ac1a3ddd05c7</title>
<ellipse fill="none" stroke="black" cx="132.27" cy="-140.55" rx="48.99" ry="18"/>
<text text-anchor="middle" x="132.27" y="-136.85" font-family="Times,serif" font-size="14.00">r_1: level1</text>
</g>
<!-- f84d30d0&#45;d642&#45;11ee&#45;b104&#45;ac1a3ddd05c7&#45;&gt;f84d354e&#45;d642&#45;11ee&#45;b104&#45;ac1a3ddd05c7 -->
<g id="edge1" class="edge">
<title>f84d30d0&#45;d642&#45;11ee&#45;b104&#45;ac1a3ddd05c7&#45;&gt;f84d354e&#45;d642&#45;11ee&#45;b104&#45;ac1a3ddd05c7</title>
<path fill="none" stroke="black" d="M132.27,-194.34C132.27,-186.62 132.27,-178.11 132.27,-170.21"/>
<polygon fill="black" stroke="black" points="135.77,-170.39 132.27,-160.39 128.77,-170.39 135.77,-170.39"/>
</g>
<!-- f84d36ac&#45;d642&#45;11ee&#45;b104&#45;ac1a3ddd05c7 -->
<g id="node3" class="node">
<title>f84d36ac&#45;d642&#45;11ee&#45;b104&#45;ac1a3ddd05c7</title>
<polygon fill="none" stroke="black" points="264.32,-43.27 198.3,-86.32 66.25,-86.32 0.23,-43.27 66.25,-0.22 198.3,-0.22 264.32,-43.27"/>
<text text-anchor="middle" x="132.27" y="-54.57" font-family="Times,serif" font-size="14.00">rp_16: level3 </text>
<text text-anchor="middle" x="132.27" y="-39.57" font-family="Times,serif" font-size="14.00"> handover_to_engineering </text>
<text text-anchor="middle" x="132.27" y="-24.57" font-family="Times,serif" font-size="14.00"> cost : 73</text>
</g>
<!-- f84d354e&#45;d642&#45;11ee&#45;b104&#45;ac1a3ddd05c7&#45;&gt;f84d36ac&#45;d642&#45;11ee&#45;b104&#45;ac1a3ddd05c7 -->
<g id="edge2" class="edge">
<title>f84d354e&#45;d642&#45;11ee&#45;b104&#45;ac1a3ddd05c7&#45;&gt;f84d36ac&#45;d642&#45;11ee&#45;b104&#45;ac1a3ddd05c7</title>
<path fill="none" stroke="black" d="M132.27,-122.07C132.27,-115.13 132.27,-106.72 132.27,-98.05"/>
<polygon fill="black" stroke="black" points="135.77,-98.09 132.27,-88.09 128.77,-98.09 135.77,-98.09"/>
</g>
</g>
</svg>
