<?xml version="1.0" encoding="UTF-8" standalone="no"?>
<!DOCTYPE svg PUBLIC "-//W3C//DTD SVG 1.1//EN"
 "http://www.w3.org/Graphics/SVG/1.1/DTD/svg11.dtd">
<!-- Generated by graphviz version 8.1.0 (20230707.0739)
 -->
<!-- Title: CallTree Pages: 1 -->
<svg width="1512pt" height="563pt"
 viewBox="0.00 0.00 1512.25 562.79" xmlns="http://www.w3.org/2000/svg" xmlns:xlink="http://www.w3.org/1999/xlink">
<g id="graph0" class="graph" transform="scale(1 1) rotate(0) translate(4 558.79)">
<title>CallTree</title>
<polygon fill="white" stroke="none" points="-4,4 -4,-558.79 1508.25,-558.79 1508.25,4 -4,4"/>
<!-- 1c3a05b6&#45;d811&#45;11ee&#45;a1e3&#45;04cf4b795879 -->
<g id="node1" class="node">
<title>1c3a05b6&#45;d811&#45;11ee&#45;a1e3&#45;04cf4b795879</title>
<polygon fill="none" stroke="black" points="809.49,-554.79 701.24,-554.79 701.24,-497.29 809.49,-497.29 809.49,-554.79"/>
<text text-anchor="middle" x="755.37" y="-537.49" font-family="Times,serif" font-size="14.00">a7: design_offer </text>
<text text-anchor="middle" x="755.37" y="-520.99" font-family="Times,serif" font-size="14.00"> Type: Core </text>
<text text-anchor="middle" x="755.37" y="-504.49" font-family="Times,serif" font-size="14.00"> Direction: Core</text>
</g>
<!-- 1c3a1812&#45;d811&#45;11ee&#45;a1e3&#45;04cf4b795879 -->
<g id="node2" class="node">
<title>1c3a1812&#45;d811&#45;11ee&#45;a1e3&#45;04cf4b795879</title>
<ellipse fill="none" stroke="black" cx="467.37" cy="-443.29" rx="50.84" ry="18"/>
<text text-anchor="middle" x="467.37" y="-438.24" font-family="Times,serif" font-size="14.00">r_1: level1</text>
</g>
<!-- 1c3a05b6&#45;d811&#45;11ee&#45;a1e3&#45;04cf4b795879&#45;&gt;1c3a1812&#45;d811&#45;11ee&#45;a1e3&#45;04cf4b795879 -->
<g id="edge1" class="edge">
<title>1c3a05b6&#45;d811&#45;11ee&#45;a1e3&#45;04cf4b795879&#45;&gt;1c3a1812&#45;d811&#45;11ee&#45;a1e3&#45;04cf4b795879</title>
<path fill="none" stroke="black" d="M700.86,-509.76C647.88,-494.91 568.12,-472.54 516.9,-458.18"/>
<polygon fill="black" stroke="black" points="518,-454.57 507.42,-455.24 516.11,-461.31 518,-454.57"/>
</g>
<!-- 1c3a3748&#45;d811&#45;11ee&#45;a1e3&#45;04cf4b795879 -->
<g id="node11" class="node">
<title>1c3a3748&#45;d811&#45;11ee&#45;a1e3&#45;04cf4b795879</title>
<ellipse fill="none" stroke="black" cx="611.37" cy="-443.29" rx="50.84" ry="18"/>
<text text-anchor="middle" x="611.37" y="-438.24" font-family="Times,serif" font-size="14.00">r_2: level2</text>
</g>
<!-- 1c3a05b6&#45;d811&#45;11ee&#45;a1e3&#45;04cf4b795879&#45;&gt;1c3a3748&#45;d811&#45;11ee&#45;a1e3&#45;04cf4b795879 -->
<g id="edge10" class="edge">
<title>1c3a05b6&#45;d811&#45;11ee&#45;a1e3&#45;04cf4b795879&#45;&gt;1c3a3748&#45;d811&#45;11ee&#45;a1e3&#45;04cf4b795879</title>
<path fill="none" stroke="black" d="M705.01,-496.8C685.84,-486.06 664.43,-474.05 646.92,-464.23"/>
<polygon fill="black" stroke="black" points="649.07,-460.86 638.63,-459.02 645.64,-466.97 649.07,-460.86"/>
</g>
<!-- 1c3a3d4c&#45;d811&#45;11ee&#45;a1e3&#45;04cf4b795879 -->
<g id="node13" class="node">
<title>1c3a3d4c&#45;d811&#45;11ee&#45;a1e3&#45;04cf4b795879</title>
<ellipse fill="none" stroke="black" cx="755.37" cy="-443.29" rx="50.84" ry="18"/>
<text text-anchor="middle" x="755.37" y="-438.24" font-family="Times,serif" font-size="14.00">r_4: level2</text>
</g>
<!-- 1c3a05b6&#45;d811&#45;11ee&#45;a1e3&#45;04cf4b795879&#45;&gt;1c3a3d4c&#45;d811&#45;11ee&#45;a1e3&#45;04cf4b795879 -->
<g id="edge12" class="edge">
<title>1c3a05b6&#45;d811&#45;11ee&#45;a1e3&#45;04cf4b795879&#45;&gt;1c3a3d4c&#45;d811&#45;11ee&#45;a1e3&#45;04cf4b795879</title>
<path fill="none" stroke="black" d="M755.37,-496.8C755.37,-488.86 755.37,-480.22 755.37,-472.29"/>
<polygon fill="black" stroke="black" points="758.87,-472.34 755.37,-462.34 751.87,-472.34 758.87,-472.34"/>
</g>
<!-- 1c3a435a&#45;d811&#45;11ee&#45;a1e3&#45;04cf4b795879 -->
<g id="node15" class="node">
<title>1c3a435a&#45;d811&#45;11ee&#45;a1e3&#45;04cf4b795879</title>
<ellipse fill="none" stroke="black" cx="899.37" cy="-443.29" rx="50.84" ry="18"/>
<text text-anchor="middle" x="899.37" y="-438.24" font-family="Times,serif" font-size="14.00">r_3: level3</text>
</g>
<!-- 1c3a05b6&#45;d811&#45;11ee&#45;a1e3&#45;04cf4b795879&#45;&gt;1c3a435a&#45;d811&#45;11ee&#45;a1e3&#45;04cf4b795879 -->
<g id="edge14" class="edge">
<title>1c3a05b6&#45;d811&#45;11ee&#45;a1e3&#45;04cf4b795879&#45;&gt;1c3a435a&#45;d811&#45;11ee&#45;a1e3&#45;04cf4b795879</title>
<path fill="none" stroke="black" d="M805.73,-496.8C824.89,-486.06 846.31,-474.05 863.82,-464.23"/>
<polygon fill="black" stroke="black" points="865.09,-466.97 872.1,-459.02 861.67,-460.86 865.09,-466.97"/>
</g>
<!-- 1c3a5aca&#45;d811&#45;11ee&#45;a1e3&#45;04cf4b795879 -->
<g id="node22" class="node">
<title>1c3a5aca&#45;d811&#45;11ee&#45;a1e3&#45;04cf4b795879</title>
<ellipse fill="none" stroke="black" cx="1074.37" cy="-443.29" rx="50.84" ry="18"/>
<text text-anchor="middle" x="1074.37" y="-438.24" font-family="Times,serif" font-size="14.00">r_5: level3</text>
</g>
<!-- 1c3a05b6&#45;d811&#45;11ee&#45;a1e3&#45;04cf4b795879&#45;&gt;1c3a5aca&#45;d811&#45;11ee&#45;a1e3&#45;04cf4b795879 -->
<g id="edge21" class="edge">
<title>1c3a05b6&#45;d811&#45;11ee&#45;a1e3&#45;04cf4b795879&#45;&gt;1c3a5aca&#45;d811&#45;11ee&#45;a1e3&#45;04cf4b795879</title>
<path fill="none" stroke="black" d="M809.84,-511.25C869.65,-496.12 964.92,-472 1023.33,-457.22"/>
<polygon fill="black" stroke="black" points="1023.95,-460.41 1032.78,-454.57 1022.23,-453.63 1023.95,-460.41"/>
</g>
<!-- 1c3a1bfa&#45;d811&#45;11ee&#45;a1e3&#45;04cf4b795879 -->
<g id="node3" class="node">
<title>1c3a1bfa&#45;d811&#45;11ee&#45;a1e3&#45;04cf4b795879</title>
<polygon fill="none" stroke="black" points="446.28,-342.35 408.83,-389.29 333.91,-389.29 296.46,-342.35 333.91,-295.4 408.83,-295.4 446.28,-342.35"/>
<text text-anchor="middle" x="371.37" y="-353.8" font-family="Times,serif" font-size="14.00">rp_4: level1 </text>
<text text-anchor="middle" x="371.37" y="-337.3" font-family="Times,serif" font-size="14.00"> design_offer </text>
<text text-anchor="middle" x="371.37" y="-320.8" font-family="Times,serif" font-size="14.00"> cost : 110</text>
</g>
<!-- 1c3a1812&#45;d811&#45;11ee&#45;a1e3&#45;04cf4b795879&#45;&gt;1c3a1bfa&#45;d811&#45;11ee&#45;a1e3&#45;04cf4b795879 -->
<g id="edge2" class="edge">
<title>1c3a1812&#45;d811&#45;11ee&#45;a1e3&#45;04cf4b795879&#45;&gt;1c3a1bfa&#45;d811&#45;11ee&#45;a1e3&#45;04cf4b795879</title>
<path fill="none" stroke="black" d="M451.52,-425.95C442.69,-416.86 431.18,-405 419.66,-393.11"/>
<polygon fill="black" stroke="black" points="422.58,-391.07 413.1,-386.33 417.56,-395.95 422.58,-391.07"/>
</g>
<!-- 1c3a1f4c&#45;d811&#45;11ee&#45;a1e3&#45;04cf4b795879 -->
<g id="node4" class="node">
<title>1c3a1f4c&#45;d811&#45;11ee&#45;a1e3&#45;04cf4b795879</title>
<polygon fill="none" stroke="black" points="443.99,-259.4 290.74,-259.4 290.74,-201.9 443.99,-201.9 443.99,-259.4"/>
<text text-anchor="middle" x="367.37" y="-242.1" font-family="Times,serif" font-size="14.00">r10: four_eyes_principle </text>
<text text-anchor="middle" x="367.37" y="-225.6" font-family="Times,serif" font-size="14.00"> Type: insert </text>
<text text-anchor="middle" x="367.37" y="-209.1" font-family="Times,serif" font-size="14.00"> Direction: parallel</text>
</g>
<!-- 1c3a1bfa&#45;d811&#45;11ee&#45;a1e3&#45;04cf4b795879&#45;&gt;1c3a1f4c&#45;d811&#45;11ee&#45;a1e3&#45;04cf4b795879 -->
<g id="edge3" class="edge">
<title>1c3a1bfa&#45;d811&#45;11ee&#45;a1e3&#45;04cf4b795879&#45;&gt;1c3a1f4c&#45;d811&#45;11ee&#45;a1e3&#45;04cf4b795879</title>
<path fill="none" stroke="black" d="M369.68,-295.14C369.39,-286.94 369.08,-278.48 368.79,-270.51"/>
<polygon fill="black" stroke="black" points="372.25,-270.52 368.39,-260.65 365.26,-270.77 372.25,-270.52"/>
</g>
<!-- 1c3a241a&#45;d811&#45;11ee&#45;a1e3&#45;04cf4b795879 -->
<g id="node5" class="node">
<title>1c3a241a&#45;d811&#45;11ee&#45;a1e3&#45;04cf4b795879</title>
<ellipse fill="none" stroke="black" cx="167.37" cy="-147.9" rx="50.84" ry="18"/>
<text text-anchor="middle" x="167.37" y="-142.85" font-family="Times,serif" font-size="14.00">r_4: level2</text>
</g>
<!-- 1c3a1f4c&#45;d811&#45;11ee&#45;a1e3&#45;04cf4b795879&#45;&gt;1c3a241a&#45;d811&#45;11ee&#45;a1e3&#45;04cf4b795879 -->
<g id="edge4" class="edge">
<title>1c3a1f4c&#45;d811&#45;11ee&#45;a1e3&#45;04cf4b795879&#45;&gt;1c3a241a&#45;d811&#45;11ee&#45;a1e3&#45;04cf4b795879</title>
<path fill="none" stroke="black" d="M297.42,-201.4C268.31,-189.65 235.46,-176.39 210.06,-166.13"/>
<polygon fill="black" stroke="black" points="211.59,-162.57 201.01,-162.08 208.97,-169.07 211.59,-162.57"/>
</g>
<!-- 1c3a2b04&#45;d811&#45;11ee&#45;a1e3&#45;04cf4b795879 -->
<g id="node7" class="node">
<title>1c3a2b04&#45;d811&#45;11ee&#45;a1e3&#45;04cf4b795879</title>
<ellipse fill="none" stroke="black" cx="343.37" cy="-147.9" rx="50.84" ry="18"/>
<text text-anchor="middle" x="343.37" y="-142.85" font-family="Times,serif" font-size="14.00">r_3: level3</text>
</g>
<!-- 1c3a1f4c&#45;d811&#45;11ee&#45;a1e3&#45;04cf4b795879&#45;&gt;1c3a2b04&#45;d811&#45;11ee&#45;a1e3&#45;04cf4b795879 -->
<g id="edge6" class="edge">
<title>1c3a1f4c&#45;d811&#45;11ee&#45;a1e3&#45;04cf4b795879&#45;&gt;1c3a2b04&#45;d811&#45;11ee&#45;a1e3&#45;04cf4b795879</title>
<path fill="none" stroke="black" d="M358.98,-201.4C356.56,-193.28 353.93,-184.42 351.53,-176.34"/>
<polygon fill="black" stroke="black" points="354.64,-175.53 348.44,-166.94 347.93,-177.52 354.64,-175.53"/>
</g>
<!-- 1c3a311c&#45;d811&#45;11ee&#45;a1e3&#45;04cf4b795879 -->
<g id="node9" class="node">
<title>1c3a311c&#45;d811&#45;11ee&#45;a1e3&#45;04cf4b795879</title>
<ellipse fill="none" stroke="black" cx="517.37" cy="-147.9" rx="50.84" ry="18"/>
<text text-anchor="middle" x="517.37" y="-142.85" font-family="Times,serif" font-size="14.00">r_5: level3</text>
</g>
<!-- 1c3a1f4c&#45;d811&#45;11ee&#45;a1e3&#45;04cf4b795879&#45;&gt;1c3a311c&#45;d811&#45;11ee&#45;a1e3&#45;04cf4b795879 -->
<g id="edge8" class="edge">
<title>1c3a1f4c&#45;d811&#45;11ee&#45;a1e3&#45;04cf4b795879&#45;&gt;1c3a311c&#45;d811&#45;11ee&#45;a1e3&#45;04cf4b795879</title>
<path fill="none" stroke="black" d="M419.83,-201.4C440.03,-190.53 462.63,-178.37 480.98,-168.49"/>
<polygon fill="black" stroke="black" points="482.28,-171.22 489.43,-163.4 478.96,-165.06 482.28,-171.22"/>
</g>
<!-- 1c3a27da&#45;d811&#45;11ee&#45;a1e3&#45;04cf4b795879 -->
<g id="node6" class="node">
<title>1c3a27da&#45;d811&#45;11ee&#45;a1e3&#45;04cf4b795879</title>
<polygon fill="none" stroke="black" points="214.74,-46.95 161.05,-93.9 53.68,-93.9 0,-46.95 53.68,0 161.05,0 214.74,-46.95"/>
<text text-anchor="middle" x="107.37" y="-58.4" font-family="Times,serif" font-size="14.00">rp_24: level3 </text>
<text text-anchor="middle" x="107.37" y="-41.9" font-family="Times,serif" font-size="14.00"> four_eyes_principle </text>
<text text-anchor="middle" x="107.37" y="-25.4" font-family="Times,serif" font-size="14.00"> cost : 123</text>
</g>
<!-- 1c3a241a&#45;d811&#45;11ee&#45;a1e3&#45;04cf4b795879&#45;&gt;1c3a27da&#45;d811&#45;11ee&#45;a1e3&#45;04cf4b795879 -->
<g id="edge5" class="edge">
<title>1c3a241a&#45;d811&#45;11ee&#45;a1e3&#45;04cf4b795879&#45;&gt;1c3a27da&#45;d811&#45;11ee&#45;a1e3&#45;04cf4b795879</title>
<path fill="none" stroke="black" d="M157.19,-130.11C152.63,-122.59 146.96,-113.25 141.1,-103.58"/>
<polygon fill="black" stroke="black" points="143.63,-102 135.46,-95.27 137.65,-105.63 143.63,-102"/>
</g>
<!-- 1c3a2e24&#45;d811&#45;11ee&#45;a1e3&#45;04cf4b795879 -->
<g id="node8" class="node">
<title>1c3a2e24&#45;d811&#45;11ee&#45;a1e3&#45;04cf4b795879</title>
<polygon fill="none" stroke="black" points="447.74,-46.95 394.05,-93.9 286.68,-93.9 233,-46.95 286.68,0 394.05,0 447.74,-46.95"/>
<text text-anchor="middle" x="340.37" y="-58.4" font-family="Times,serif" font-size="14.00">rp_24: level3 </text>
<text text-anchor="middle" x="340.37" y="-41.9" font-family="Times,serif" font-size="14.00"> four_eyes_principle </text>
<text text-anchor="middle" x="340.37" y="-25.4" font-family="Times,serif" font-size="14.00"> cost : 84</text>
</g>
<!-- 1c3a2b04&#45;d811&#45;11ee&#45;a1e3&#45;04cf4b795879&#45;&gt;1c3a2e24&#45;d811&#45;11ee&#45;a1e3&#45;04cf4b795879 -->
<g id="edge7" class="edge">
<title>1c3a2b04&#45;d811&#45;11ee&#45;a1e3&#45;04cf4b795879&#45;&gt;1c3a2e24&#45;d811&#45;11ee&#45;a1e3&#45;04cf4b795879</title>
<path fill="none" stroke="black" d="M342.85,-129.66C342.63,-122.65 342.38,-114.12 342.11,-105.24"/>
<polygon fill="black" stroke="black" points="345.58,-105.21 341.78,-95.32 338.58,-105.42 345.58,-105.21"/>
</g>
<!-- 1c3a3432&#45;d811&#45;11ee&#45;a1e3&#45;04cf4b795879 -->
<g id="node10" class="node">
<title>1c3a3432&#45;d811&#45;11ee&#45;a1e3&#45;04cf4b795879</title>
<polygon fill="none" stroke="black" points="680.74,-46.95 627.05,-93.9 519.68,-93.9 466,-46.95 519.68,0 627.05,0 680.74,-46.95"/>
<text text-anchor="middle" x="573.37" y="-58.4" font-family="Times,serif" font-size="14.00">rp_24: level3 </text>
<text text-anchor="middle" x="573.37" y="-41.9" font-family="Times,serif" font-size="14.00"> four_eyes_principle </text>
<text text-anchor="middle" x="573.37" y="-25.4" font-family="Times,serif" font-size="14.00"> cost : 29</text>
</g>
<!-- 1c3a311c&#45;d811&#45;11ee&#45;a1e3&#45;04cf4b795879&#45;&gt;1c3a3432&#45;d811&#45;11ee&#45;a1e3&#45;04cf4b795879 -->
<g id="edge9" class="edge">
<title>1c3a311c&#45;d811&#45;11ee&#45;a1e3&#45;04cf4b795879&#45;&gt;1c3a3432&#45;d811&#45;11ee&#45;a1e3&#45;04cf4b795879</title>
<path fill="none" stroke="black" d="M526.87,-130.11C531.13,-122.59 536.41,-113.25 541.88,-103.58"/>
<polygon fill="black" stroke="black" points="545.28,-105.69 547.15,-95.27 539.18,-102.25 545.28,-105.69"/>
</g>
<!-- 1c3a3a68&#45;d811&#45;11ee&#45;a1e3&#45;04cf4b795879 -->
<g id="node12" class="node">
<title>1c3a3a68&#45;d811&#45;11ee&#45;a1e3&#45;04cf4b795879</title>
<polygon fill="none" stroke="black" points="662.28,-342.35 624.83,-389.29 549.91,-389.29 512.46,-342.35 549.91,-295.4 624.83,-295.4 662.28,-342.35"/>
<text text-anchor="middle" x="587.37" y="-353.8" font-family="Times,serif" font-size="14.00">rp_89: level2 </text>
<text text-anchor="middle" x="587.37" y="-337.3" font-family="Times,serif" font-size="14.00"> design_offer </text>
<text text-anchor="middle" x="587.37" y="-320.8" font-family="Times,serif" font-size="14.00"> cost : 43</text>
</g>
<!-- 1c3a3748&#45;d811&#45;11ee&#45;a1e3&#45;04cf4b795879&#45;&gt;1c3a3a68&#45;d811&#45;11ee&#45;a1e3&#45;04cf4b795879 -->
<g id="edge11" class="edge">
<title>1c3a3748&#45;d811&#45;11ee&#45;a1e3&#45;04cf4b795879&#45;&gt;1c3a3a68&#45;d811&#45;11ee&#45;a1e3&#45;04cf4b795879</title>
<path fill="none" stroke="black" d="M607.19,-425.06C605.47,-417.97 603.37,-409.33 601.19,-400.34"/>
<polygon fill="black" stroke="black" points="604.37,-399.61 598.62,-390.71 597.57,-401.26 604.37,-399.61"/>
</g>
<!-- 1c3a406c&#45;d811&#45;11ee&#45;a1e3&#45;04cf4b795879 -->
<g id="node14" class="node">
<title>1c3a406c&#45;d811&#45;11ee&#45;a1e3&#45;04cf4b795879</title>
<polygon fill="none" stroke="black" points="830.28,-342.35 792.83,-389.29 717.91,-389.29 680.46,-342.35 717.91,-295.4 792.83,-295.4 830.28,-342.35"/>
<text text-anchor="middle" x="755.37" y="-353.8" font-family="Times,serif" font-size="14.00">rp_99: level2 </text>
<text text-anchor="middle" x="755.37" y="-337.3" font-family="Times,serif" font-size="14.00"> design_offer </text>
<text text-anchor="middle" x="755.37" y="-320.8" font-family="Times,serif" font-size="14.00"> cost : 55</text>
</g>
<!-- 1c3a3d4c&#45;d811&#45;11ee&#45;a1e3&#45;04cf4b795879&#45;&gt;1c3a406c&#45;d811&#45;11ee&#45;a1e3&#45;04cf4b795879 -->
<g id="edge13" class="edge">
<title>1c3a3d4c&#45;d811&#45;11ee&#45;a1e3&#45;04cf4b795879&#45;&gt;1c3a406c&#45;d811&#45;11ee&#45;a1e3&#45;04cf4b795879</title>
<path fill="none" stroke="black" d="M755.37,-425.06C755.37,-418.05 755.37,-409.52 755.37,-400.64"/>
<polygon fill="black" stroke="black" points="758.87,-400.71 755.37,-390.71 751.87,-400.71 758.87,-400.71"/>
</g>
<!-- 1c3a4666&#45;d811&#45;11ee&#45;a1e3&#45;04cf4b795879 -->
<g id="node16" class="node">
<title>1c3a4666&#45;d811&#45;11ee&#45;a1e3&#45;04cf4b795879</title>
<polygon fill="none" stroke="black" points="998.28,-342.35 960.83,-389.29 885.91,-389.29 848.46,-342.35 885.91,-295.4 960.83,-295.4 998.28,-342.35"/>
<text text-anchor="middle" x="923.37" y="-353.8" font-family="Times,serif" font-size="14.00">rp_9: level3 </text>
<text text-anchor="middle" x="923.37" y="-337.3" font-family="Times,serif" font-size="14.00"> design_offer </text>
<text text-anchor="middle" x="923.37" y="-320.8" font-family="Times,serif" font-size="14.00"> cost : 80</text>
</g>
<!-- 1c3a435a&#45;d811&#45;11ee&#45;a1e3&#45;04cf4b795879&#45;&gt;1c3a4666&#45;d811&#45;11ee&#45;a1e3&#45;04cf4b795879 -->
<g id="edge15" class="edge">
<title>1c3a435a&#45;d811&#45;11ee&#45;a1e3&#45;04cf4b795879&#45;&gt;1c3a4666&#45;d811&#45;11ee&#45;a1e3&#45;04cf4b795879</title>
<path fill="none" stroke="black" d="M903.55,-425.06C905.27,-417.97 907.37,-409.33 909.54,-400.34"/>
<polygon fill="black" stroke="black" points="913.17,-401.26 912.12,-390.71 906.36,-399.61 913.17,-401.26"/>
</g>
<!-- 1c3a492c&#45;d811&#45;11ee&#45;a1e3&#45;04cf4b795879 -->
<g id="node17" class="node">
<title>1c3a492c&#45;d811&#45;11ee&#45;a1e3&#45;04cf4b795879</title>
<polygon fill="none" stroke="black" points="975.62,-259.4 871.12,-259.4 871.12,-201.9 975.62,-201.9 975.62,-259.4"/>
<text text-anchor="middle" x="923.37" y="-242.1" font-family="Times,serif" font-size="14.00">a8: send_offer </text>
<text text-anchor="middle" x="923.37" y="-225.6" font-family="Times,serif" font-size="14.00"> Type: replace </text>
<text text-anchor="middle" x="923.37" y="-209.1" font-family="Times,serif" font-size="14.00"> Direction: Core</text>
</g>
<!-- 1c3a4666&#45;d811&#45;11ee&#45;a1e3&#45;04cf4b795879&#45;&gt;1c3a492c&#45;d811&#45;11ee&#45;a1e3&#45;04cf4b795879 -->
<g id="edge16" class="edge">
<title>1c3a4666&#45;d811&#45;11ee&#45;a1e3&#45;04cf4b795879&#45;&gt;1c3a492c&#45;d811&#45;11ee&#45;a1e3&#45;04cf4b795879</title>
<path fill="none" stroke="black" d="M923.37,-295.14C923.37,-286.94 923.37,-278.48 923.37,-270.51"/>
<polygon fill="black" stroke="black" points="926.87,-270.65 923.37,-260.65 919.87,-270.65 926.87,-270.65"/>
</g>
<!-- 1c3a4e86&#45;d811&#45;11ee&#45;a1e3&#45;04cf4b795879 -->
<g id="node18" class="node">
<title>1c3a4e86&#45;d811&#45;11ee&#45;a1e3&#45;04cf4b795879</title>
<ellipse fill="none" stroke="black" cx="791.37" cy="-147.9" rx="50.84" ry="18"/>
<text text-anchor="middle" x="791.37" y="-142.85" font-family="Times,serif" font-size="14.00">r_2: level2</text>
</g>
<!-- 1c3a492c&#45;d811&#45;11ee&#45;a1e3&#45;04cf4b795879&#45;&gt;1c3a4e86&#45;d811&#45;11ee&#45;a1e3&#45;04cf4b795879 -->
<g id="edge17" class="edge">
<title>1c3a492c&#45;d811&#45;11ee&#45;a1e3&#45;04cf4b795879&#45;&gt;1c3a4e86&#45;d811&#45;11ee&#45;a1e3&#45;04cf4b795879</title>
<path fill="none" stroke="black" d="M877.2,-201.4C860.21,-191.01 841.28,-179.43 825.54,-169.8"/>
<polygon fill="black" stroke="black" points="827.54,-166.31 817.19,-164.08 823.89,-172.28 827.54,-166.31"/>
</g>
<!-- 1c3a54bc&#45;d811&#45;11ee&#45;a1e3&#45;04cf4b795879 -->
<g id="node20" class="node">
<title>1c3a54bc&#45;d811&#45;11ee&#45;a1e3&#45;04cf4b795879</title>
<ellipse fill="none" stroke="black" cx="929.37" cy="-147.9" rx="50.84" ry="18"/>
<text text-anchor="middle" x="929.37" y="-142.85" font-family="Times,serif" font-size="14.00">r_4: level2</text>
</g>
<!-- 1c3a492c&#45;d811&#45;11ee&#45;a1e3&#45;04cf4b795879&#45;&gt;1c3a54bc&#45;d811&#45;11ee&#45;a1e3&#45;04cf4b795879 -->
<g id="edge19" class="edge">
<title>1c3a492c&#45;d811&#45;11ee&#45;a1e3&#45;04cf4b795879&#45;&gt;1c3a54bc&#45;d811&#45;11ee&#45;a1e3&#45;04cf4b795879</title>
<path fill="none" stroke="black" d="M925.47,-201.4C926.06,-193.46 926.7,-184.82 927.29,-176.89"/>
<polygon fill="black" stroke="black" points="930.85,-177.17 928.1,-166.94 923.87,-176.66 930.85,-177.17"/>
</g>
<!-- 1c3a51d8&#45;d811&#45;11ee&#45;a1e3&#45;04cf4b795879 -->
<g id="node19" class="node">
<title>1c3a51d8&#45;d811&#45;11ee&#45;a1e3&#45;04cf4b795879</title>
<polygon fill="none" stroke="black" points="848.28,-46.95 810.83,-93.9 735.91,-93.9 698.46,-46.95 735.91,0 810.83,0 848.28,-46.95"/>
<text text-anchor="middle" x="773.37" y="-58.4" font-family="Times,serif" font-size="14.00">rp_10: level2 </text>
<text text-anchor="middle" x="773.37" y="-41.9" font-family="Times,serif" font-size="14.00"> send_offer </text>
<text text-anchor="middle" x="773.37" y="-25.4" font-family="Times,serif" font-size="14.00"> cost : 84</text>
</g>
<!-- 1c3a4e86&#45;d811&#45;11ee&#45;a1e3&#45;04cf4b795879&#45;&gt;1c3a51d8&#45;d811&#45;11ee&#45;a1e3&#45;04cf4b795879 -->
<g id="edge18" class="edge">
<title>1c3a4e86&#45;d811&#45;11ee&#45;a1e3&#45;04cf4b795879&#45;&gt;1c3a51d8&#45;d811&#45;11ee&#45;a1e3&#45;04cf4b795879</title>
<path fill="none" stroke="black" d="M788.23,-129.66C786.95,-122.58 785.37,-113.93 783.74,-104.95"/>
<polygon fill="black" stroke="black" points="787.04,-104.53 781.8,-95.32 780.15,-105.78 787.04,-104.53"/>
</g>
<!-- 1c3a57c8&#45;d811&#45;11ee&#45;a1e3&#45;04cf4b795879 -->
<g id="node21" class="node">
<title>1c3a57c8&#45;d811&#45;11ee&#45;a1e3&#45;04cf4b795879</title>
<polygon fill="none" stroke="black" points="1016.28,-46.95 978.83,-93.9 903.91,-93.9 866.46,-46.95 903.91,0 978.83,0 1016.28,-46.95"/>
<text text-anchor="middle" x="941.37" y="-58.4" font-family="Times,serif" font-size="14.00">rp_10: level2 </text>
<text text-anchor="middle" x="941.37" y="-41.9" font-family="Times,serif" font-size="14.00"> send_offer </text>
<text text-anchor="middle" x="941.37" y="-25.4" font-family="Times,serif" font-size="14.00"> cost : 119</text>
</g>
<!-- 1c3a54bc&#45;d811&#45;11ee&#45;a1e3&#45;04cf4b795879&#45;&gt;1c3a57c8&#45;d811&#45;11ee&#45;a1e3&#45;04cf4b795879 -->
<g id="edge20" class="edge">
<title>1c3a54bc&#45;d811&#45;11ee&#45;a1e3&#45;04cf4b795879&#45;&gt;1c3a57c8&#45;d811&#45;11ee&#45;a1e3&#45;04cf4b795879</title>
<path fill="none" stroke="black" d="M931.46,-129.66C932.32,-122.58 933.37,-113.93 934.46,-104.95"/>
<polygon fill="black" stroke="black" points="938.02,-105.67 935.75,-95.32 931.07,-104.82 938.02,-105.67"/>
</g>
<!-- 1c3a5dcc&#45;d811&#45;11ee&#45;a1e3&#45;04cf4b795879 -->
<g id="node23" class="node">
<title>1c3a5dcc&#45;d811&#45;11ee&#45;a1e3&#45;04cf4b795879</title>
<polygon fill="none" stroke="black" points="1194.28,-342.35 1156.83,-389.29 1081.91,-389.29 1044.46,-342.35 1081.91,-295.4 1156.83,-295.4 1194.28,-342.35"/>
<text text-anchor="middle" x="1119.37" y="-353.8" font-family="Times,serif" font-size="14.00">rp_9: level3 </text>
<text text-anchor="middle" x="1119.37" y="-337.3" font-family="Times,serif" font-size="14.00"> design_offer </text>
<text text-anchor="middle" x="1119.37" y="-320.8" font-family="Times,serif" font-size="14.00"> cost : 107</text>
</g>
<!-- 1c3a5aca&#45;d811&#45;11ee&#45;a1e3&#45;04cf4b795879&#45;&gt;1c3a5dcc&#45;d811&#45;11ee&#45;a1e3&#45;04cf4b795879 -->
<g id="edge22" class="edge">
<title>1c3a5aca&#45;d811&#45;11ee&#45;a1e3&#45;04cf4b795879&#45;&gt;1c3a5dcc&#45;d811&#45;11ee&#45;a1e3&#45;04cf4b795879</title>
<path fill="none" stroke="black" d="M1082.21,-425.06C1085.53,-417.74 1089.62,-408.76 1093.85,-399.46"/>
<polygon fill="black" stroke="black" points="1097.33,-401.27 1098.28,-390.71 1090.96,-398.37 1097.33,-401.27"/>
</g>
<!-- 1c3a6088&#45;d811&#45;11ee&#45;a1e3&#45;04cf4b795879 -->
<g id="node24" class="node">
<title>1c3a6088&#45;d811&#45;11ee&#45;a1e3&#45;04cf4b795879</title>
<polygon fill="none" stroke="black" points="1224.74,-259.4 1069.99,-259.4 1069.99,-201.9 1224.74,-201.9 1224.74,-259.4"/>
<text text-anchor="middle" x="1147.37" y="-242.1" font-family="Times,serif" font-size="14.00">a8: initiate_next_process </text>
<text text-anchor="middle" x="1147.37" y="-225.6" font-family="Times,serif" font-size="14.00"> Type: insert </text>
<text text-anchor="middle" x="1147.37" y="-209.1" font-family="Times,serif" font-size="14.00"> Direction: after</text>
</g>
<!-- 1c3a5dcc&#45;d811&#45;11ee&#45;a1e3&#45;04cf4b795879&#45;&gt;1c3a6088&#45;d811&#45;11ee&#45;a1e3&#45;04cf4b795879 -->
<g id="edge23" class="edge">
<title>1c3a5dcc&#45;d811&#45;11ee&#45;a1e3&#45;04cf4b795879&#45;&gt;1c3a6088&#45;d811&#45;11ee&#45;a1e3&#45;04cf4b795879</title>
<path fill="none" stroke="black" d="M1131.16,-295.14C1133.28,-286.85 1135.47,-278.29 1137.52,-270.24"/>
<polygon fill="black" stroke="black" points="1141.14,-271.21 1140.22,-260.65 1134.36,-269.48 1141.14,-271.21"/>
</g>
<!-- 1c3a6484&#45;d811&#45;11ee&#45;a1e3&#45;04cf4b795879 -->
<g id="node25" class="node">
<title>1c3a6484&#45;d811&#45;11ee&#45;a1e3&#45;04cf4b795879</title>
<ellipse fill="none" stroke="black" cx="1147.37" cy="-147.9" rx="50.84" ry="18"/>
<text text-anchor="middle" x="1147.37" y="-142.85" font-family="Times,serif" font-size="14.00">r_2: level2</text>
</g>
<!-- 1c3a6088&#45;d811&#45;11ee&#45;a1e3&#45;04cf4b795879&#45;&gt;1c3a6484&#45;d811&#45;11ee&#45;a1e3&#45;04cf4b795879 -->
<g id="edge24" class="edge">
<title>1c3a6088&#45;d811&#45;11ee&#45;a1e3&#45;04cf4b795879&#45;&gt;1c3a6484&#45;d811&#45;11ee&#45;a1e3&#45;04cf4b795879</title>
<path fill="none" stroke="black" d="M1147.37,-201.4C1147.37,-193.46 1147.37,-184.82 1147.37,-176.89"/>
<polygon fill="black" stroke="black" points="1150.87,-176.94 1147.37,-166.94 1143.87,-176.94 1150.87,-176.94"/>
</g>
<!-- 1c3a6a4c&#45;d811&#45;11ee&#45;a1e3&#45;04cf4b795879 -->
<g id="node27" class="node">
<title>1c3a6a4c&#45;d811&#45;11ee&#45;a1e3&#45;04cf4b795879</title>
<ellipse fill="none" stroke="black" cx="1329.37" cy="-147.9" rx="50.84" ry="18"/>
<text text-anchor="middle" x="1329.37" y="-142.85" font-family="Times,serif" font-size="14.00">r_4: level2</text>
</g>
<!-- 1c3a6088&#45;d811&#45;11ee&#45;a1e3&#45;04cf4b795879&#45;&gt;1c3a6a4c&#45;d811&#45;11ee&#45;a1e3&#45;04cf4b795879 -->
<g id="edge26" class="edge">
<title>1c3a6088&#45;d811&#45;11ee&#45;a1e3&#45;04cf4b795879&#45;&gt;1c3a6a4c&#45;d811&#45;11ee&#45;a1e3&#45;04cf4b795879</title>
<path fill="none" stroke="black" d="M1211.02,-201.4C1236.8,-189.97 1265.81,-177.1 1288.65,-166.96"/>
<polygon fill="black" stroke="black" points="1289.96,-169.77 1297.68,-162.51 1287.12,-163.37 1289.96,-169.77"/>
</g>
<!-- 1c3a6786&#45;d811&#45;11ee&#45;a1e3&#45;04cf4b795879 -->
<g id="node26" class="node">
<title>1c3a6786&#45;d811&#45;11ee&#45;a1e3&#45;04cf4b795879</title>
<polygon fill="none" stroke="black" points="1260.25,-46.95 1203.81,-93.9 1090.93,-93.9 1034.49,-46.95 1090.93,0 1203.81,0 1260.25,-46.95"/>
<text text-anchor="middle" x="1147.37" y="-58.4" font-family="Times,serif" font-size="14.00">rp_11: level2 </text>
<text text-anchor="middle" x="1147.37" y="-41.9" font-family="Times,serif" font-size="14.00"> initiate_next_process </text>
<text text-anchor="middle" x="1147.37" y="-25.4" font-family="Times,serif" font-size="14.00"> cost : 118</text>
</g>
<!-- 1c3a6484&#45;d811&#45;11ee&#45;a1e3&#45;04cf4b795879&#45;&gt;1c3a6786&#45;d811&#45;11ee&#45;a1e3&#45;04cf4b795879 -->
<g id="edge25" class="edge">
<title>1c3a6484&#45;d811&#45;11ee&#45;a1e3&#45;04cf4b795879&#45;&gt;1c3a6786&#45;d811&#45;11ee&#45;a1e3&#45;04cf4b795879</title>
<path fill="none" stroke="black" d="M1147.37,-129.66C1147.37,-122.65 1147.37,-114.12 1147.37,-105.24"/>
<polygon fill="black" stroke="black" points="1150.87,-105.32 1147.37,-95.32 1143.87,-105.32 1150.87,-105.32"/>
</g>
<!-- 1c3a6d44&#45;d811&#45;11ee&#45;a1e3&#45;04cf4b795879 -->
<g id="node28" class="node">
<title>1c3a6d44&#45;d811&#45;11ee&#45;a1e3&#45;04cf4b795879</title>
<polygon fill="none" stroke="black" points="1504.25,-46.95 1447.81,-93.9 1334.93,-93.9 1278.49,-46.95 1334.93,0 1447.81,0 1504.25,-46.95"/>
<text text-anchor="middle" x="1391.37" y="-58.4" font-family="Times,serif" font-size="14.00">rp_11: level2 </text>
<text text-anchor="middle" x="1391.37" y="-41.9" font-family="Times,serif" font-size="14.00"> initiate_next_process </text>
<text text-anchor="middle" x="1391.37" y="-25.4" font-family="Times,serif" font-size="14.00"> cost : 65</text>
</g>
<!-- 1c3a6a4c&#45;d811&#45;11ee&#45;a1e3&#45;04cf4b795879&#45;&gt;1c3a6d44&#45;d811&#45;11ee&#45;a1e3&#45;04cf4b795879 -->
<g id="edge27" class="edge">
<title>1c3a6a4c&#45;d811&#45;11ee&#45;a1e3&#45;04cf4b795879&#45;&gt;1c3a6d44&#45;d811&#45;11ee&#45;a1e3&#45;04cf4b795879</title>
<path fill="none" stroke="black" d="M1339.89,-130.11C1344.6,-122.59 1350.46,-113.25 1356.51,-103.58"/>
<polygon fill="black" stroke="black" points="1360,-105.6 1362.35,-95.27 1354.07,-101.88 1360,-105.6"/>
</g>
</g>
</svg>
