<?xml version="1.0" encoding="UTF-8" standalone="no"?>
<!DOCTYPE svg PUBLIC "-//W3C//DTD SVG 1.1//EN"
 "http://www.w3.org/Graphics/SVG/1.1/DTD/svg11.dtd">
<!-- Generated by graphviz version 8.1.0 (20230707.0739)
 -->
<!-- Title: CallTree Pages: 1 -->
<svg width="1107pt" height="563pt"
 viewBox="0.00 0.00 1107.37 562.79" xmlns="http://www.w3.org/2000/svg" xmlns:xlink="http://www.w3.org/1999/xlink">
<g id="graph0" class="graph" transform="scale(1 1) rotate(0) translate(4 558.79)">
<title>CallTree</title>
<polygon fill="white" stroke="none" points="-4,4 -4,-558.79 1103.37,-558.79 1103.37,4 -4,4"/>
<!-- 0338e12a&#45;d741&#45;11ee&#45;8d3f&#45;04cf4b795879 -->
<g id="node1" class="node">
<title>0338e12a&#45;d741&#45;11ee&#45;8d3f&#45;04cf4b795879</title>
<polygon fill="none" stroke="black" points="760.12,-554.79 634.62,-554.79 634.62,-497.29 760.12,-497.29 760.12,-554.79"/>
<text text-anchor="middle" x="697.37" y="-537.49" font-family="Times,serif" font-size="14.00">a4: create_proposal </text>
<text text-anchor="middle" x="697.37" y="-520.99" font-family="Times,serif" font-size="14.00"> Type: Core </text>
<text text-anchor="middle" x="697.37" y="-504.49" font-family="Times,serif" font-size="14.00"> Direction: Core</text>
</g>
<!-- 0338ed28&#45;d741&#45;11ee&#45;8d3f&#45;04cf4b795879 -->
<g id="node2" class="node">
<title>0338ed28&#45;d741&#45;11ee&#45;8d3f&#45;04cf4b795879</title>
<ellipse fill="none" stroke="black" cx="479.37" cy="-443.29" rx="50.84" ry="18"/>
<text text-anchor="middle" x="479.37" y="-438.24" font-family="Times,serif" font-size="14.00">r_2: level2</text>
</g>
<!-- 0338e12a&#45;d741&#45;11ee&#45;8d3f&#45;04cf4b795879&#45;&gt;0338ed28&#45;d741&#45;11ee&#45;8d3f&#45;04cf4b795879 -->
<g id="edge1" class="edge">
<title>0338e12a&#45;d741&#45;11ee&#45;8d3f&#45;04cf4b795879&#45;&gt;0338ed28&#45;d741&#45;11ee&#45;8d3f&#45;04cf4b795879</title>
<path fill="none" stroke="black" d="M634.31,-501.69C598.8,-488.53 555.32,-472.43 523.47,-460.63"/>
<polygon fill="black" stroke="black" points="525.15,-457.15 514.56,-456.96 522.72,-463.71 525.15,-457.15"/>
</g>
<!-- 033913de&#45;d741&#45;11ee&#45;8d3f&#45;04cf4b795879 -->
<g id="node12" class="node">
<title>033913de&#45;d741&#45;11ee&#45;8d3f&#45;04cf4b795879</title>
<ellipse fill="none" stroke="black" cx="637.37" cy="-443.29" rx="50.84" ry="18"/>
<text text-anchor="middle" x="637.37" y="-438.24" font-family="Times,serif" font-size="14.00">r_4: level2</text>
</g>
<!-- 0338e12a&#45;d741&#45;11ee&#45;8d3f&#45;04cf4b795879&#45;&gt;033913de&#45;d741&#45;11ee&#45;8d3f&#45;04cf4b795879 -->
<g id="edge11" class="edge">
<title>0338e12a&#45;d741&#45;11ee&#45;8d3f&#45;04cf4b795879&#45;&gt;033913de&#45;d741&#45;11ee&#45;8d3f&#45;04cf4b795879</title>
<path fill="none" stroke="black" d="M676.38,-496.8C669.76,-487.89 662.5,-478.11 656.05,-469.43"/>
<polygon fill="black" stroke="black" points="658.46,-467.81 649.68,-461.87 652.84,-471.98 658.46,-467.81"/>
</g>
<!-- 03391b18&#45;d741&#45;11ee&#45;8d3f&#45;04cf4b795879 -->
<g id="node14" class="node">
<title>03391b18&#45;d741&#45;11ee&#45;8d3f&#45;04cf4b795879</title>
<ellipse fill="none" stroke="black" cx="795.37" cy="-443.29" rx="50.84" ry="18"/>
<text text-anchor="middle" x="795.37" y="-438.24" font-family="Times,serif" font-size="14.00">r_3: level3</text>
</g>
<!-- 0338e12a&#45;d741&#45;11ee&#45;8d3f&#45;04cf4b795879&#45;&gt;03391b18&#45;d741&#45;11ee&#45;8d3f&#45;04cf4b795879 -->
<g id="edge13" class="edge">
<title>0338e12a&#45;d741&#45;11ee&#45;8d3f&#45;04cf4b795879&#45;&gt;03391b18&#45;d741&#45;11ee&#45;8d3f&#45;04cf4b795879</title>
<path fill="none" stroke="black" d="M731.64,-496.8C743.32,-487.18 756.22,-476.55 767.34,-467.39"/>
<polygon fill="black" stroke="black" points="769.33,-469.46 774.82,-460.4 764.88,-464.06 769.33,-469.46"/>
</g>
<!-- 0339220c&#45;d741&#45;11ee&#45;8d3f&#45;04cf4b795879 -->
<g id="node16" class="node">
<title>0339220c&#45;d741&#45;11ee&#45;8d3f&#45;04cf4b795879</title>
<ellipse fill="none" stroke="black" cx="972.37" cy="-443.29" rx="50.84" ry="18"/>
<text text-anchor="middle" x="972.37" y="-438.24" font-family="Times,serif" font-size="14.00">r_5: level3</text>
</g>
<!-- 0338e12a&#45;d741&#45;11ee&#45;8d3f&#45;04cf4b795879&#45;&gt;0339220c&#45;d741&#45;11ee&#45;8d3f&#45;04cf4b795879 -->
<g id="edge15" class="edge">
<title>0338e12a&#45;d741&#45;11ee&#45;8d3f&#45;04cf4b795879&#45;&gt;0339220c&#45;d741&#45;11ee&#45;8d3f&#45;04cf4b795879</title>
<path fill="none" stroke="black" d="M760.46,-506.52C810.08,-491.95 878.2,-471.95 923.67,-458.59"/>
<polygon fill="black" stroke="black" points="924.54,-461.69 933.15,-455.52 922.57,-454.98 924.54,-461.69"/>
</g>
<!-- 0338f160&#45;d741&#45;11ee&#45;8d3f&#45;04cf4b795879 -->
<g id="node3" class="node">
<title>0338f160&#45;d741&#45;11ee&#45;8d3f&#45;04cf4b795879</title>
<polygon fill="none" stroke="black" points="511.37,-342.35 466.87,-389.29 377.87,-389.29 333.37,-342.35 377.87,-295.4 466.87,-295.4 511.37,-342.35"/>
<text text-anchor="middle" x="422.37" y="-353.8" font-family="Times,serif" font-size="14.00">rp_15: level3 </text>
<text text-anchor="middle" x="422.37" y="-337.3" font-family="Times,serif" font-size="14.00"> create_proposal </text>
<text text-anchor="middle" x="422.37" y="-320.8" font-family="Times,serif" font-size="14.00"> cost : 100</text>
</g>
<!-- 0338ed28&#45;d741&#45;11ee&#45;8d3f&#45;04cf4b795879&#45;&gt;0338f160&#45;d741&#45;11ee&#45;8d3f&#45;04cf4b795879 -->
<g id="edge2" class="edge">
<title>0338ed28&#45;d741&#45;11ee&#45;8d3f&#45;04cf4b795879&#45;&gt;0338f160&#45;d741&#45;11ee&#45;8d3f&#45;04cf4b795879</title>
<path fill="none" stroke="black" d="M469.7,-425.51C465.37,-417.99 459.98,-408.64 454.42,-398.98"/>
<polygon fill="black" stroke="black" points="457.08,-397.58 449.05,-390.66 451.01,-401.08 457.08,-397.58"/>
</g>
<!-- 0338f4bc&#45;d741&#45;11ee&#45;8d3f&#45;04cf4b795879 -->
<g id="node4" class="node">
<title>0338f4bc&#45;d741&#45;11ee&#45;8d3f&#45;04cf4b795879</title>
<polygon fill="none" stroke="black" points="413.62,-259.4 267.12,-259.4 267.12,-201.9 413.62,-201.9 413.62,-259.4"/>
<text text-anchor="middle" x="340.37" y="-242.1" font-family="Times,serif" font-size="14.00">r0: four_eyes_principle </text>
<text text-anchor="middle" x="340.37" y="-225.6" font-family="Times,serif" font-size="14.00"> Type: insert </text>
<text text-anchor="middle" x="340.37" y="-209.1" font-family="Times,serif" font-size="14.00"> Direction: before</text>
</g>
<!-- 0338f160&#45;d741&#45;11ee&#45;8d3f&#45;04cf4b795879&#45;&gt;0338f4bc&#45;d741&#45;11ee&#45;8d3f&#45;04cf4b795879 -->
<g id="edge3" class="edge">
<title>0338f160&#45;d741&#45;11ee&#45;8d3f&#45;04cf4b795879&#45;&gt;0338f4bc&#45;d741&#45;11ee&#45;8d3f&#45;04cf4b795879</title>
<path fill="none" stroke="black" d="M387.83,-295.14C381.14,-286.19 374.21,-276.92 367.79,-268.33"/>
<polygon fill="black" stroke="black" points="370.09,-266.57 361.3,-260.65 364.49,-270.76 370.09,-266.57"/>
</g>
<!-- 03390eca&#45;d741&#45;11ee&#45;8d3f&#45;04cf4b795879 -->
<g id="node11" class="node">
<title>03390eca&#45;d741&#45;11ee&#45;8d3f&#45;04cf4b795879</title>
<polygon fill="none" stroke="black" points="578.99,-259.4 431.74,-259.4 431.74,-201.9 578.99,-201.9 578.99,-259.4"/>
<text text-anchor="middle" x="505.37" y="-242.1" font-family="Times,serif" font-size="14.00">r0: decide_on_proposal </text>
<text text-anchor="middle" x="505.37" y="-225.6" font-family="Times,serif" font-size="14.00"> Type: delete </text>
<text text-anchor="middle" x="505.37" y="-209.1" font-family="Times,serif" font-size="14.00"> Direction: any</text>
</g>
<!-- 0338f160&#45;d741&#45;11ee&#45;8d3f&#45;04cf4b795879&#45;&gt;03390eca&#45;d741&#45;11ee&#45;8d3f&#45;04cf4b795879 -->
<g id="edge10" class="edge">
<title>0338f160&#45;d741&#45;11ee&#45;8d3f&#45;04cf4b795879&#45;&gt;03390eca&#45;d741&#45;11ee&#45;8d3f&#45;04cf4b795879</title>
<path fill="none" stroke="black" d="M457.33,-295.14C464.1,-286.19 471.11,-276.92 477.62,-268.33"/>
<polygon fill="black" stroke="black" points="480.94,-270.74 484.18,-260.65 475.36,-266.51 480.94,-270.74"/>
</g>
<!-- 0338f9a8&#45;d741&#45;11ee&#45;8d3f&#45;04cf4b795879 -->
<g id="node5" class="node">
<title>0338f9a8&#45;d741&#45;11ee&#45;8d3f&#45;04cf4b795879</title>
<ellipse fill="none" stroke="black" cx="164.37" cy="-147.9" rx="50.84" ry="18"/>
<text text-anchor="middle" x="164.37" y="-142.85" font-family="Times,serif" font-size="14.00">r_4: level2</text>
</g>
<!-- 0338f4bc&#45;d741&#45;11ee&#45;8d3f&#45;04cf4b795879&#45;&gt;0338f9a8&#45;d741&#45;11ee&#45;8d3f&#45;04cf4b795879 -->
<g id="edge4" class="edge">
<title>0338f4bc&#45;d741&#45;11ee&#45;8d3f&#45;04cf4b795879&#45;&gt;0338f9a8&#45;d741&#45;11ee&#45;8d3f&#45;04cf4b795879</title>
<path fill="none" stroke="black" d="M278.81,-201.4C254.17,-190.1 226.47,-177.39 204.5,-167.31"/>
<polygon fill="black" stroke="black" points="206.07,-163.72 195.52,-162.73 203.15,-170.08 206.07,-163.72"/>
</g>
<!-- 03390100&#45;d741&#45;11ee&#45;8d3f&#45;04cf4b795879 -->
<g id="node7" class="node">
<title>03390100&#45;d741&#45;11ee&#45;8d3f&#45;04cf4b795879</title>
<ellipse fill="none" stroke="black" cx="340.37" cy="-147.9" rx="50.84" ry="18"/>
<text text-anchor="middle" x="340.37" y="-142.85" font-family="Times,serif" font-size="14.00">r_3: level3</text>
</g>
<!-- 0338f4bc&#45;d741&#45;11ee&#45;8d3f&#45;04cf4b795879&#45;&gt;03390100&#45;d741&#45;11ee&#45;8d3f&#45;04cf4b795879 -->
<g id="edge6" class="edge">
<title>0338f4bc&#45;d741&#45;11ee&#45;8d3f&#45;04cf4b795879&#45;&gt;03390100&#45;d741&#45;11ee&#45;8d3f&#45;04cf4b795879</title>
<path fill="none" stroke="black" d="M340.37,-201.4C340.37,-193.46 340.37,-184.82 340.37,-176.89"/>
<polygon fill="black" stroke="black" points="343.87,-176.94 340.37,-166.94 336.87,-176.94 343.87,-176.94"/>
</g>
<!-- 03390808&#45;d741&#45;11ee&#45;8d3f&#45;04cf4b795879 -->
<g id="node9" class="node">
<title>03390808&#45;d741&#45;11ee&#45;8d3f&#45;04cf4b795879</title>
<ellipse fill="none" stroke="black" cx="516.37" cy="-147.9" rx="50.84" ry="18"/>
<text text-anchor="middle" x="516.37" y="-142.85" font-family="Times,serif" font-size="14.00">r_5: level3</text>
</g>
<!-- 0338f4bc&#45;d741&#45;11ee&#45;8d3f&#45;04cf4b795879&#45;&gt;03390808&#45;d741&#45;11ee&#45;8d3f&#45;04cf4b795879 -->
<g id="edge8" class="edge">
<title>0338f4bc&#45;d741&#45;11ee&#45;8d3f&#45;04cf4b795879&#45;&gt;03390808&#45;d741&#45;11ee&#45;8d3f&#45;04cf4b795879</title>
<path fill="none" stroke="black" d="M401.93,-201.4C426.57,-190.1 454.27,-177.39 476.24,-167.31"/>
<polygon fill="black" stroke="black" points="477.58,-170.08 485.21,-162.73 474.67,-163.72 477.58,-170.08"/>
</g>
<!-- 0338fd9a&#45;d741&#45;11ee&#45;8d3f&#45;04cf4b795879 -->
<g id="node6" class="node">
<title>0338fd9a&#45;d741&#45;11ee&#45;8d3f&#45;04cf4b795879</title>
<polygon fill="none" stroke="black" points="214.74,-46.95 161.05,-93.9 53.68,-93.9 0,-46.95 53.68,0 161.05,0 214.74,-46.95"/>
<text text-anchor="middle" x="107.37" y="-58.4" font-family="Times,serif" font-size="14.00">rp_24: level3 </text>
<text text-anchor="middle" x="107.37" y="-41.9" font-family="Times,serif" font-size="14.00"> four_eyes_principle </text>
<text text-anchor="middle" x="107.37" y="-25.4" font-family="Times,serif" font-size="14.00"> cost : 63</text>
</g>
<!-- 0338f9a8&#45;d741&#45;11ee&#45;8d3f&#45;04cf4b795879&#45;&gt;0338fd9a&#45;d741&#45;11ee&#45;8d3f&#45;04cf4b795879 -->
<g id="edge5" class="edge">
<title>0338f9a8&#45;d741&#45;11ee&#45;8d3f&#45;04cf4b795879&#45;&gt;0338fd9a&#45;d741&#45;11ee&#45;8d3f&#45;04cf4b795879</title>
<path fill="none" stroke="black" d="M154.7,-130.11C150.37,-122.59 144.98,-113.25 139.42,-103.58"/>
<polygon fill="black" stroke="black" points="142.08,-102.19 134.05,-95.27 136.01,-105.68 142.08,-102.19"/>
</g>
<!-- 033904e8&#45;d741&#45;11ee&#45;8d3f&#45;04cf4b795879 -->
<g id="node8" class="node">
<title>033904e8&#45;d741&#45;11ee&#45;8d3f&#45;04cf4b795879</title>
<polygon fill="none" stroke="black" points="447.74,-46.95 394.05,-93.9 286.68,-93.9 233,-46.95 286.68,0 394.05,0 447.74,-46.95"/>
<text text-anchor="middle" x="340.37" y="-58.4" font-family="Times,serif" font-size="14.00">rp_24: level3 </text>
<text text-anchor="middle" x="340.37" y="-41.9" font-family="Times,serif" font-size="14.00"> four_eyes_principle </text>
<text text-anchor="middle" x="340.37" y="-25.4" font-family="Times,serif" font-size="14.00"> cost : 53</text>
</g>
<!-- 03390100&#45;d741&#45;11ee&#45;8d3f&#45;04cf4b795879&#45;&gt;033904e8&#45;d741&#45;11ee&#45;8d3f&#45;04cf4b795879 -->
<g id="edge7" class="edge">
<title>03390100&#45;d741&#45;11ee&#45;8d3f&#45;04cf4b795879&#45;&gt;033904e8&#45;d741&#45;11ee&#45;8d3f&#45;04cf4b795879</title>
<path fill="none" stroke="black" d="M340.37,-129.66C340.37,-122.65 340.37,-114.12 340.37,-105.24"/>
<polygon fill="black" stroke="black" points="343.87,-105.32 340.37,-95.32 336.87,-105.32 343.87,-105.32"/>
</g>
<!-- 03390bc8&#45;d741&#45;11ee&#45;8d3f&#45;04cf4b795879 -->
<g id="node10" class="node">
<title>03390bc8&#45;d741&#45;11ee&#45;8d3f&#45;04cf4b795879</title>
<polygon fill="none" stroke="black" points="680.74,-46.95 627.05,-93.9 519.68,-93.9 466,-46.95 519.68,0 627.05,0 680.74,-46.95"/>
<text text-anchor="middle" x="573.37" y="-58.4" font-family="Times,serif" font-size="14.00">rp_24: level3 </text>
<text text-anchor="middle" x="573.37" y="-41.9" font-family="Times,serif" font-size="14.00"> four_eyes_principle </text>
<text text-anchor="middle" x="573.37" y="-25.4" font-family="Times,serif" font-size="14.00"> cost : 19</text>
</g>
<!-- 03390808&#45;d741&#45;11ee&#45;8d3f&#45;04cf4b795879&#45;&gt;03390bc8&#45;d741&#45;11ee&#45;8d3f&#45;04cf4b795879 -->
<g id="edge9" class="edge">
<title>03390808&#45;d741&#45;11ee&#45;8d3f&#45;04cf4b795879&#45;&gt;03390bc8&#45;d741&#45;11ee&#45;8d3f&#45;04cf4b795879</title>
<path fill="none" stroke="black" d="M526.04,-130.11C530.37,-122.59 535.75,-113.25 541.32,-103.58"/>
<polygon fill="black" stroke="black" points="544.73,-105.68 546.69,-95.27 538.66,-102.19 544.73,-105.68"/>
</g>
<!-- 033917da&#45;d741&#45;11ee&#45;8d3f&#45;04cf4b795879 -->
<g id="node13" class="node">
<title>033917da&#45;d741&#45;11ee&#45;8d3f&#45;04cf4b795879</title>
<polygon fill="none" stroke="black" points="707.37,-342.35 662.87,-389.29 573.87,-389.29 529.37,-342.35 573.87,-295.4 662.87,-295.4 707.37,-342.35"/>
<text text-anchor="middle" x="618.37" y="-353.8" font-family="Times,serif" font-size="14.00">rp_15: level2 </text>
<text text-anchor="middle" x="618.37" y="-337.3" font-family="Times,serif" font-size="14.00"> create_proposal </text>
<text text-anchor="middle" x="618.37" y="-320.8" font-family="Times,serif" font-size="14.00"> cost : 15</text>
</g>
<!-- 033913de&#45;d741&#45;11ee&#45;8d3f&#45;04cf4b795879&#45;&gt;033917da&#45;d741&#45;11ee&#45;8d3f&#45;04cf4b795879 -->
<g id="edge12" class="edge">
<title>033913de&#45;d741&#45;11ee&#45;8d3f&#45;04cf4b795879&#45;&gt;033917da&#45;d741&#45;11ee&#45;8d3f&#45;04cf4b795879</title>
<path fill="none" stroke="black" d="M634.06,-425.06C632.7,-417.97 631.04,-409.33 629.31,-400.34"/>
<polygon fill="black" stroke="black" points="632.6,-399.88 627.27,-390.71 625.72,-401.2 632.6,-399.88"/>
</g>
<!-- 03391f00&#45;d741&#45;11ee&#45;8d3f&#45;04cf4b795879 -->
<g id="node15" class="node">
<title>03391f00&#45;d741&#45;11ee&#45;8d3f&#45;04cf4b795879</title>
<polygon fill="none" stroke="black" points="903.37,-342.35 858.87,-389.29 769.87,-389.29 725.37,-342.35 769.87,-295.4 858.87,-295.4 903.37,-342.35"/>
<text text-anchor="middle" x="814.37" y="-353.8" font-family="Times,serif" font-size="14.00">rp_15: level3 </text>
<text text-anchor="middle" x="814.37" y="-337.3" font-family="Times,serif" font-size="14.00"> create_proposal </text>
<text text-anchor="middle" x="814.37" y="-320.8" font-family="Times,serif" font-size="14.00"> cost : 26</text>
</g>
<!-- 03391b18&#45;d741&#45;11ee&#45;8d3f&#45;04cf4b795879&#45;&gt;03391f00&#45;d741&#45;11ee&#45;8d3f&#45;04cf4b795879 -->
<g id="edge14" class="edge">
<title>03391b18&#45;d741&#45;11ee&#45;8d3f&#45;04cf4b795879&#45;&gt;03391f00&#45;d741&#45;11ee&#45;8d3f&#45;04cf4b795879</title>
<path fill="none" stroke="black" d="M798.68,-425.06C800.04,-417.97 801.7,-409.33 803.42,-400.34"/>
<polygon fill="black" stroke="black" points="807.02,-401.2 805.47,-390.71 800.14,-399.88 807.02,-401.2"/>
</g>
<!-- 0339261c&#45;d741&#45;11ee&#45;8d3f&#45;04cf4b795879 -->
<g id="node17" class="node">
<title>0339261c&#45;d741&#45;11ee&#45;8d3f&#45;04cf4b795879</title>
<polygon fill="none" stroke="black" points="1099.37,-342.35 1054.87,-389.29 965.87,-389.29 921.37,-342.35 965.87,-295.4 1054.87,-295.4 1099.37,-342.35"/>
<text text-anchor="middle" x="1010.37" y="-353.8" font-family="Times,serif" font-size="14.00">rp_15: level3 </text>
<text text-anchor="middle" x="1010.37" y="-337.3" font-family="Times,serif" font-size="14.00"> create_proposal </text>
<text text-anchor="middle" x="1010.37" y="-320.8" font-family="Times,serif" font-size="14.00"> cost : 98</text>
</g>
<!-- 0339220c&#45;d741&#45;11ee&#45;8d3f&#45;04cf4b795879&#45;&gt;0339261c&#45;d741&#45;11ee&#45;8d3f&#45;04cf4b795879 -->
<g id="edge16" class="edge">
<title>0339220c&#45;d741&#45;11ee&#45;8d3f&#45;04cf4b795879&#45;&gt;0339261c&#45;d741&#45;11ee&#45;8d3f&#45;04cf4b795879</title>
<path fill="none" stroke="black" d="M978.99,-425.06C981.77,-417.82 985.17,-408.95 988.7,-399.76"/>
<polygon fill="black" stroke="black" points="992.24,-401.3 992.56,-390.71 985.71,-398.79 992.24,-401.3"/>
</g>
</g>
</svg>
