<?xml version="1.0" encoding="UTF-8" standalone="no"?>
<!DOCTYPE svg PUBLIC "-//W3C//DTD SVG 1.1//EN"
 "http://www.w3.org/Graphics/SVG/1.1/DTD/svg11.dtd">
<!-- Generated by graphviz version 7.1.0 (0)
 -->
<!-- Title: CallTree Pages: 1 -->
<svg width="1340pt" height="539pt"
 viewBox="0.00 0.00 1340.39 539.10" xmlns="http://www.w3.org/2000/svg" xmlns:xlink="http://www.w3.org/1999/xlink">
<g id="graph0" class="graph" transform="scale(1 1) rotate(0) translate(4 535.1)">
<title>CallTree</title>
<polygon fill="white" stroke="none" points="-4,4 -4,-535.1 1336.39,-535.1 1336.39,4 -4,4"/>
<!-- f83c2790&#45;d642&#45;11ee&#45;b104&#45;ac1a3ddd05c7 -->
<g id="node1" class="node">
<title>f83c2790&#45;d642&#45;11ee&#45;b104&#45;ac1a3ddd05c7</title>
<polygon fill="none" stroke="black" points="914.2,-531.1 801.2,-531.1 801.2,-478.1 914.2,-478.1 914.2,-531.1"/>
<text text-anchor="middle" x="857.7" y="-515.9" font-family="Times,serif" font-size="14.00">a3: evaluate_risk </text>
<text text-anchor="middle" x="857.7" y="-500.9" font-family="Times,serif" font-size="14.00"> Type: Core </text>
<text text-anchor="middle" x="857.7" y="-485.9" font-family="Times,serif" font-size="14.00"> Direction: Core</text>
</g>
<!-- f83c2eac&#45;d642&#45;11ee&#45;b104&#45;ac1a3ddd05c7 -->
<g id="node2" class="node">
<title>f83c2eac&#45;d642&#45;11ee&#45;b104&#45;ac1a3ddd05c7</title>
<ellipse fill="none" stroke="black" cx="567.7" cy="-424.1" rx="48.99" ry="18"/>
<text text-anchor="middle" x="567.7" y="-420.4" font-family="Times,serif" font-size="14.00">r_1: level1</text>
</g>
<!-- f83c2790&#45;d642&#45;11ee&#45;b104&#45;ac1a3ddd05c7&#45;&gt;f83c2eac&#45;d642&#45;11ee&#45;b104&#45;ac1a3ddd05c7 -->
<g id="edge1" class="edge">
<title>f83c2790&#45;d642&#45;11ee&#45;b104&#45;ac1a3ddd05c7&#45;&gt;f83c2eac&#45;d642&#45;11ee&#45;b104&#45;ac1a3ddd05c7</title>
<path fill="none" stroke="black" d="M800.75,-488.18C747.38,-473.74 668.4,-452.36 617.49,-438.58"/>
<polygon fill="black" stroke="black" points="618.47,-435.22 607.9,-435.98 616.64,-441.97 618.47,-435.22"/>
</g>
<!-- f83c3776&#45;d642&#45;11ee&#45;b104&#45;ac1a3ddd05c7 -->
<g id="node9" class="node">
<title>f83c3776&#45;d642&#45;11ee&#45;b104&#45;ac1a3ddd05c7</title>
<ellipse fill="none" stroke="black" cx="712.7" cy="-424.1" rx="48.99" ry="18"/>
<text text-anchor="middle" x="712.7" y="-420.4" font-family="Times,serif" font-size="14.00">r_2: level2</text>
</g>
<!-- f83c2790&#45;d642&#45;11ee&#45;b104&#45;ac1a3ddd05c7&#45;&gt;f83c3776&#45;d642&#45;11ee&#45;b104&#45;ac1a3ddd05c7 -->
<g id="edge8" class="edge">
<title>f83c2790&#45;d642&#45;11ee&#45;b104&#45;ac1a3ddd05c7&#45;&gt;f83c3776&#45;d642&#45;11ee&#45;b104&#45;ac1a3ddd05c7</title>
<path fill="none" stroke="black" d="M809.81,-477.68C790.14,-467.02 767.72,-454.89 749.38,-444.96"/>
<polygon fill="black" stroke="black" points="751.17,-441.95 740.71,-440.27 747.84,-448.1 751.17,-441.95"/>
</g>
<!-- f83c3f50&#45;d642&#45;11ee&#45;b104&#45;ac1a3ddd05c7 -->
<g id="node16" class="node">
<title>f83c3f50&#45;d642&#45;11ee&#45;b104&#45;ac1a3ddd05c7</title>
<ellipse fill="none" stroke="black" cx="857.7" cy="-424.1" rx="48.99" ry="18"/>
<text text-anchor="middle" x="857.7" y="-420.4" font-family="Times,serif" font-size="14.00">r_4: level2</text>
</g>
<!-- f83c2790&#45;d642&#45;11ee&#45;b104&#45;ac1a3ddd05c7&#45;&gt;f83c3f50&#45;d642&#45;11ee&#45;b104&#45;ac1a3ddd05c7 -->
<g id="edge15" class="edge">
<title>f83c2790&#45;d642&#45;11ee&#45;b104&#45;ac1a3ddd05c7&#45;&gt;f83c3f50&#45;d642&#45;11ee&#45;b104&#45;ac1a3ddd05c7</title>
<path fill="none" stroke="black" d="M857.7,-477.89C857.7,-470.17 857.7,-461.66 857.7,-453.76"/>
<polygon fill="black" stroke="black" points="861.2,-453.94 857.7,-443.94 854.2,-453.94 861.2,-453.94"/>
</g>
<!-- f83c4748&#45;d642&#45;11ee&#45;b104&#45;ac1a3ddd05c7 -->
<g id="node23" class="node">
<title>f83c4748&#45;d642&#45;11ee&#45;b104&#45;ac1a3ddd05c7</title>
<ellipse fill="none" stroke="black" cx="1002.7" cy="-424.1" rx="48.99" ry="18"/>
<text text-anchor="middle" x="1002.7" y="-420.4" font-family="Times,serif" font-size="14.00">r_3: level3</text>
</g>
<!-- f83c2790&#45;d642&#45;11ee&#45;b104&#45;ac1a3ddd05c7&#45;&gt;f83c4748&#45;d642&#45;11ee&#45;b104&#45;ac1a3ddd05c7 -->
<g id="edge22" class="edge">
<title>f83c2790&#45;d642&#45;11ee&#45;b104&#45;ac1a3ddd05c7&#45;&gt;f83c4748&#45;d642&#45;11ee&#45;b104&#45;ac1a3ddd05c7</title>
<path fill="none" stroke="black" d="M905.58,-477.68C925.25,-467.02 947.67,-454.89 966.01,-444.96"/>
<polygon fill="black" stroke="black" points="967.55,-448.1 974.68,-440.27 964.22,-441.95 967.55,-448.1"/>
</g>
<!-- f83c4950&#45;d642&#45;11ee&#45;b104&#45;ac1a3ddd05c7 -->
<g id="node25" class="node">
<title>f83c4950&#45;d642&#45;11ee&#45;b104&#45;ac1a3ddd05c7</title>
<ellipse fill="none" stroke="black" cx="1162.7" cy="-424.1" rx="48.99" ry="18"/>
<text text-anchor="middle" x="1162.7" y="-420.4" font-family="Times,serif" font-size="14.00">r_5: level3</text>
</g>
<!-- f83c2790&#45;d642&#45;11ee&#45;b104&#45;ac1a3ddd05c7&#45;&gt;f83c4950&#45;d642&#45;11ee&#45;b104&#45;ac1a3ddd05c7 -->
<g id="edge24" class="edge">
<title>f83c2790&#45;d642&#45;11ee&#45;b104&#45;ac1a3ddd05c7&#45;&gt;f83c4950&#45;d642&#45;11ee&#45;b104&#45;ac1a3ddd05c7</title>
<path fill="none" stroke="black" d="M914.35,-489.02C971.12,-474.4 1057.7,-452.12 1112.19,-438.09"/>
<polygon fill="black" stroke="black" points="1113.04,-441.49 1121.85,-435.61 1111.29,-434.71 1113.04,-441.49"/>
</g>
<!-- f83c3014&#45;d642&#45;11ee&#45;b104&#45;ac1a3ddd05c7 -->
<g id="node3" class="node">
<title>f83c3014&#45;d642&#45;11ee&#45;b104&#45;ac1a3ddd05c7</title>
<polygon fill="none" stroke="black" points="448.96,-326.82 409.83,-369.87 331.56,-369.87 292.43,-326.82 331.56,-283.77 409.83,-283.77 448.96,-326.82"/>
<text text-anchor="middle" x="370.7" y="-338.12" font-family="Times,serif" font-size="14.00">rp_3: level1 </text>
<text text-anchor="middle" x="370.7" y="-323.12" font-family="Times,serif" font-size="14.00"> evaluate_risk </text>
<text text-anchor="middle" x="370.7" y="-308.12" font-family="Times,serif" font-size="14.00"> cost : 11</text>
</g>
<!-- f83c2eac&#45;d642&#45;11ee&#45;b104&#45;ac1a3ddd05c7&#45;&gt;f83c3014&#45;d642&#45;11ee&#45;b104&#45;ac1a3ddd05c7 -->
<g id="edge2" class="edge">
<title>f83c2eac&#45;d642&#45;11ee&#45;b104&#45;ac1a3ddd05c7&#45;&gt;f83c3014&#45;d642&#45;11ee&#45;b104&#45;ac1a3ddd05c7</title>
<path fill="none" stroke="black" d="M539.05,-409.24C511.85,-396.09 470.02,-375.86 434.86,-358.86"/>
<polygon fill="black" stroke="black" points="436.55,-355.79 426.03,-354.58 433.51,-362.09 436.55,-355.79"/>
</g>
<!-- f83c312c&#45;d642&#45;11ee&#45;b104&#45;ac1a3ddd05c7 -->
<g id="node4" class="node">
<title>f83c312c&#45;d642&#45;11ee&#45;b104&#45;ac1a3ddd05c7</title>
<polygon fill="none" stroke="black" points="399.7,-247.55 257.7,-247.55 257.7,-194.55 399.7,-194.55 399.7,-247.55"/>
<text text-anchor="middle" x="328.7" y="-232.35" font-family="Times,serif" font-size="14.00">r2: head_confirmation </text>
<text text-anchor="middle" x="328.7" y="-217.35" font-family="Times,serif" font-size="14.00"> Type: insert </text>
<text text-anchor="middle" x="328.7" y="-202.35" font-family="Times,serif" font-size="14.00"> Direction: before</text>
</g>
<!-- f83c3014&#45;d642&#45;11ee&#45;b104&#45;ac1a3ddd05c7&#45;&gt;f83c312c&#45;d642&#45;11ee&#45;b104&#45;ac1a3ddd05c7 -->
<g id="edge3" class="edge">
<title>f83c3014&#45;d642&#45;11ee&#45;b104&#45;ac1a3ddd05c7&#45;&gt;f83c312c&#45;d642&#45;11ee&#45;b104&#45;ac1a3ddd05c7</title>
<path fill="none" stroke="black" d="M353.49,-283.31C350.16,-275.08 346.69,-266.52 343.45,-258.5"/>
<polygon fill="black" stroke="black" points="346.75,-257.34 339.76,-249.38 340.26,-259.96 346.75,-257.34"/>
</g>
<!-- f83c330c&#45;d642&#45;11ee&#45;b104&#45;ac1a3ddd05c7 -->
<g id="node5" class="node">
<title>f83c330c&#45;d642&#45;11ee&#45;b104&#45;ac1a3ddd05c7</title>
<ellipse fill="none" stroke="black" cx="158.7" cy="-140.55" rx="48.99" ry="18"/>
<text text-anchor="middle" x="158.7" y="-136.85" font-family="Times,serif" font-size="14.00">r_3: level3</text>
</g>
<!-- f83c312c&#45;d642&#45;11ee&#45;b104&#45;ac1a3ddd05c7&#45;&gt;f83c330c&#45;d642&#45;11ee&#45;b104&#45;ac1a3ddd05c7 -->
<g id="edge4" class="edge">
<title>f83c312c&#45;d642&#45;11ee&#45;b104&#45;ac1a3ddd05c7&#45;&gt;f83c330c&#45;d642&#45;11ee&#45;b104&#45;ac1a3ddd05c7</title>
<path fill="none" stroke="black" d="M272.56,-194.13C248.29,-182.92 220.46,-170.07 198.39,-159.88"/>
<polygon fill="black" stroke="black" points="199.98,-156.76 189.43,-155.74 197.04,-163.11 199.98,-156.76"/>
</g>
<!-- f83c3550&#45;d642&#45;11ee&#45;b104&#45;ac1a3ddd05c7 -->
<g id="node7" class="node">
<title>f83c3550&#45;d642&#45;11ee&#45;b104&#45;ac1a3ddd05c7</title>
<ellipse fill="none" stroke="black" cx="328.7" cy="-140.55" rx="48.99" ry="18"/>
<text text-anchor="middle" x="328.7" y="-136.85" font-family="Times,serif" font-size="14.00">r_5: level3</text>
</g>
<!-- f83c312c&#45;d642&#45;11ee&#45;b104&#45;ac1a3ddd05c7&#45;&gt;f83c3550&#45;d642&#45;11ee&#45;b104&#45;ac1a3ddd05c7 -->
<g id="edge6" class="edge">
<title>f83c312c&#45;d642&#45;11ee&#45;b104&#45;ac1a3ddd05c7&#45;&gt;f83c3550&#45;d642&#45;11ee&#45;b104&#45;ac1a3ddd05c7</title>
<path fill="none" stroke="black" d="M328.7,-194.34C328.7,-186.62 328.7,-178.11 328.7,-170.21"/>
<polygon fill="black" stroke="black" points="332.2,-170.39 328.7,-160.39 325.2,-170.39 332.2,-170.39"/>
</g>
<!-- f83c344c&#45;d642&#45;11ee&#45;b104&#45;ac1a3ddd05c7 -->
<g id="node6" class="node">
<title>f83c344c&#45;d642&#45;11ee&#45;b104&#45;ac1a3ddd05c7</title>
<polygon fill="none" stroke="black" points="207.59,-43.27 155.64,-86.32 51.75,-86.32 -0.2,-43.27 51.75,-0.22 155.64,-0.22 207.59,-43.27"/>
<text text-anchor="middle" x="103.7" y="-54.57" font-family="Times,serif" font-size="14.00">rp_23: level3 </text>
<text text-anchor="middle" x="103.7" y="-39.57" font-family="Times,serif" font-size="14.00"> head_confirmation </text>
<text text-anchor="middle" x="103.7" y="-24.57" font-family="Times,serif" font-size="14.00"> cost : 108</text>
</g>
<!-- f83c330c&#45;d642&#45;11ee&#45;b104&#45;ac1a3ddd05c7&#45;&gt;f83c344c&#45;d642&#45;11ee&#45;b104&#45;ac1a3ddd05c7 -->
<g id="edge5" class="edge">
<title>f83c330c&#45;d642&#45;11ee&#45;b104&#45;ac1a3ddd05c7&#45;&gt;f83c344c&#45;d642&#45;11ee&#45;b104&#45;ac1a3ddd05c7</title>
<path fill="none" stroke="black" d="M148.86,-122.52C144.55,-115.05 139.23,-105.84 133.78,-96.39"/>
<polygon fill="black" stroke="black" points="136.87,-94.75 128.84,-87.84 130.81,-98.25 136.87,-94.75"/>
</g>
<!-- f83c3686&#45;d642&#45;11ee&#45;b104&#45;ac1a3ddd05c7 -->
<g id="node8" class="node">
<title>f83c3686&#45;d642&#45;11ee&#45;b104&#45;ac1a3ddd05c7</title>
<polygon fill="none" stroke="black" points="432.59,-43.27 380.64,-86.32 276.75,-86.32 224.8,-43.27 276.75,-0.22 380.64,-0.22 432.59,-43.27"/>
<text text-anchor="middle" x="328.7" y="-54.57" font-family="Times,serif" font-size="14.00">rp_23: level3 </text>
<text text-anchor="middle" x="328.7" y="-39.57" font-family="Times,serif" font-size="14.00"> head_confirmation </text>
<text text-anchor="middle" x="328.7" y="-24.57" font-family="Times,serif" font-size="14.00"> cost : 76</text>
</g>
<!-- f83c3550&#45;d642&#45;11ee&#45;b104&#45;ac1a3ddd05c7&#45;&gt;f83c3686&#45;d642&#45;11ee&#45;b104&#45;ac1a3ddd05c7 -->
<g id="edge7" class="edge">
<title>f83c3550&#45;d642&#45;11ee&#45;b104&#45;ac1a3ddd05c7&#45;&gt;f83c3686&#45;d642&#45;11ee&#45;b104&#45;ac1a3ddd05c7</title>
<path fill="none" stroke="black" d="M328.7,-122.07C328.7,-115.13 328.7,-106.72 328.7,-98.05"/>
<polygon fill="black" stroke="black" points="332.2,-98.09 328.7,-88.09 325.2,-98.09 332.2,-98.09"/>
</g>
<!-- f83c3898&#45;d642&#45;11ee&#45;b104&#45;ac1a3ddd05c7 -->
<g id="node10" class="node">
<title>f83c3898&#45;d642&#45;11ee&#45;b104&#45;ac1a3ddd05c7</title>
<polygon fill="none" stroke="black" points="760.96,-326.82 721.83,-369.87 643.56,-369.87 604.43,-326.82 643.56,-283.77 721.83,-283.77 760.96,-326.82"/>
<text text-anchor="middle" x="682.7" y="-338.12" font-family="Times,serif" font-size="14.00">rp_8: level2 </text>
<text text-anchor="middle" x="682.7" y="-323.12" font-family="Times,serif" font-size="14.00"> evaluate_risk </text>
<text text-anchor="middle" x="682.7" y="-308.12" font-family="Times,serif" font-size="14.00"> cost : 36</text>
</g>
<!-- f83c3776&#45;d642&#45;11ee&#45;b104&#45;ac1a3ddd05c7&#45;&gt;f83c3898&#45;d642&#45;11ee&#45;b104&#45;ac1a3ddd05c7 -->
<g id="edge9" class="edge">
<title>f83c3776&#45;d642&#45;11ee&#45;b104&#45;ac1a3ddd05c7&#45;&gt;f83c3898&#45;d642&#45;11ee&#45;b104&#45;ac1a3ddd05c7</title>
<path fill="none" stroke="black" d="M707.33,-406.06C705.05,-398.83 702.26,-389.97 699.39,-380.84"/>
<polygon fill="black" stroke="black" points="702.8,-380.01 696.45,-371.52 696.12,-382.11 702.8,-380.01"/>
</g>
<!-- f83c3988&#45;d642&#45;11ee&#45;b104&#45;ac1a3ddd05c7 -->
<g id="node11" class="node">
<title>f83c3988&#45;d642&#45;11ee&#45;b104&#45;ac1a3ddd05c7</title>
<polygon fill="none" stroke="black" points="753.7,-247.55 611.7,-247.55 611.7,-194.55 753.7,-194.55 753.7,-247.55"/>
<text text-anchor="middle" x="682.7" y="-232.35" font-family="Times,serif" font-size="14.00">r3: head_confirmation </text>
<text text-anchor="middle" x="682.7" y="-217.35" font-family="Times,serif" font-size="14.00"> Type: insert </text>
<text text-anchor="middle" x="682.7" y="-202.35" font-family="Times,serif" font-size="14.00"> Direction: before</text>
</g>
<!-- f83c3898&#45;d642&#45;11ee&#45;b104&#45;ac1a3ddd05c7&#45;&gt;f83c3988&#45;d642&#45;11ee&#45;b104&#45;ac1a3ddd05c7 -->
<g id="edge10" class="edge">
<title>f83c3898&#45;d642&#45;11ee&#45;b104&#45;ac1a3ddd05c7&#45;&gt;f83c3988&#45;d642&#45;11ee&#45;b104&#45;ac1a3ddd05c7</title>
<path fill="none" stroke="black" d="M682.7,-283.31C682.7,-275.36 682.7,-267.1 682.7,-259.32"/>
<polygon fill="black" stroke="black" points="686.2,-259.49 682.7,-249.49 679.2,-259.49 686.2,-259.49"/>
</g>
<!-- f83c3b2c&#45;d642&#45;11ee&#45;b104&#45;ac1a3ddd05c7 -->
<g id="node12" class="node">
<title>f83c3b2c&#45;d642&#45;11ee&#45;b104&#45;ac1a3ddd05c7</title>
<ellipse fill="none" stroke="black" cx="580.7" cy="-140.55" rx="48.99" ry="18"/>
<text text-anchor="middle" x="580.7" y="-136.85" font-family="Times,serif" font-size="14.00">r_3: level3</text>
</g>
<!-- f83c3988&#45;d642&#45;11ee&#45;b104&#45;ac1a3ddd05c7&#45;&gt;f83c3b2c&#45;d642&#45;11ee&#45;b104&#45;ac1a3ddd05c7 -->
<g id="edge11" class="edge">
<title>f83c3988&#45;d642&#45;11ee&#45;b104&#45;ac1a3ddd05c7&#45;&gt;f83c3b2c&#45;d642&#45;11ee&#45;b104&#45;ac1a3ddd05c7</title>
<path fill="none" stroke="black" d="M649.01,-194.13C636.44,-184.45 622.26,-173.54 610.1,-164.18"/>
<polygon fill="black" stroke="black" points="612.51,-161.62 602.45,-158.29 608.24,-167.17 612.51,-161.62"/>
</g>
<!-- f83c3d3e&#45;d642&#45;11ee&#45;b104&#45;ac1a3ddd05c7 -->
<g id="node14" class="node">
<title>f83c3d3e&#45;d642&#45;11ee&#45;b104&#45;ac1a3ddd05c7</title>
<ellipse fill="none" stroke="black" cx="723.7" cy="-140.55" rx="48.99" ry="18"/>
<text text-anchor="middle" x="723.7" y="-136.85" font-family="Times,serif" font-size="14.00">r_5: level3</text>
</g>
<!-- f83c3988&#45;d642&#45;11ee&#45;b104&#45;ac1a3ddd05c7&#45;&gt;f83c3d3e&#45;d642&#45;11ee&#45;b104&#45;ac1a3ddd05c7 -->
<g id="edge13" class="edge">
<title>f83c3988&#45;d642&#45;11ee&#45;b104&#45;ac1a3ddd05c7&#45;&gt;f83c3d3e&#45;d642&#45;11ee&#45;b104&#45;ac1a3ddd05c7</title>
<path fill="none" stroke="black" d="M696.12,-194.34C700.46,-186.04 705.27,-176.82 709.65,-168.44"/>
<polygon fill="black" stroke="black" points="712.67,-170.23 714.19,-159.74 706.46,-166.99 712.67,-170.23"/>
</g>
<!-- f83c3c58&#45;d642&#45;11ee&#45;b104&#45;ac1a3ddd05c7 -->
<g id="node13" class="node">
<title>f83c3c58&#45;d642&#45;11ee&#45;b104&#45;ac1a3ddd05c7</title>
<polygon fill="none" stroke="black" points="657.59,-43.27 605.64,-86.32 501.75,-86.32 449.8,-43.27 501.75,-0.22 605.64,-0.22 657.59,-43.27"/>
<text text-anchor="middle" x="553.7" y="-54.57" font-family="Times,serif" font-size="14.00">rp_23: level3 </text>
<text text-anchor="middle" x="553.7" y="-39.57" font-family="Times,serif" font-size="14.00"> head_confirmation </text>
<text text-anchor="middle" x="553.7" y="-24.57" font-family="Times,serif" font-size="14.00"> cost : 108</text>
</g>
<!-- f83c3b2c&#45;d642&#45;11ee&#45;b104&#45;ac1a3ddd05c7&#45;&gt;f83c3c58&#45;d642&#45;11ee&#45;b104&#45;ac1a3ddd05c7 -->
<g id="edge12" class="edge">
<title>f83c3b2c&#45;d642&#45;11ee&#45;b104&#45;ac1a3ddd05c7&#45;&gt;f83c3c58&#45;d642&#45;11ee&#45;b104&#45;ac1a3ddd05c7</title>
<path fill="none" stroke="black" d="M575.87,-122.52C573.84,-115.36 571.36,-106.61 568.8,-97.58"/>
<polygon fill="black" stroke="black" points="572.18,-96.65 566.08,-87.98 565.44,-98.56 572.18,-96.65"/>
</g>
<!-- f83c3e6a&#45;d642&#45;11ee&#45;b104&#45;ac1a3ddd05c7 -->
<g id="node15" class="node">
<title>f83c3e6a&#45;d642&#45;11ee&#45;b104&#45;ac1a3ddd05c7</title>
<polygon fill="none" stroke="black" points="882.59,-43.27 830.64,-86.32 726.75,-86.32 674.8,-43.27 726.75,-0.22 830.64,-0.22 882.59,-43.27"/>
<text text-anchor="middle" x="778.7" y="-54.57" font-family="Times,serif" font-size="14.00">rp_23: level3 </text>
<text text-anchor="middle" x="778.7" y="-39.57" font-family="Times,serif" font-size="14.00"> head_confirmation </text>
<text text-anchor="middle" x="778.7" y="-24.57" font-family="Times,serif" font-size="14.00"> cost : 76</text>
</g>
<!-- f83c3d3e&#45;d642&#45;11ee&#45;b104&#45;ac1a3ddd05c7&#45;&gt;f83c3e6a&#45;d642&#45;11ee&#45;b104&#45;ac1a3ddd05c7 -->
<g id="edge14" class="edge">
<title>f83c3d3e&#45;d642&#45;11ee&#45;b104&#45;ac1a3ddd05c7&#45;&gt;f83c3e6a&#45;d642&#45;11ee&#45;b104&#45;ac1a3ddd05c7</title>
<path fill="none" stroke="black" d="M733.53,-122.52C737.84,-115.05 743.16,-105.84 748.61,-96.39"/>
<polygon fill="black" stroke="black" points="751.58,-98.25 753.55,-87.84 745.52,-94.75 751.58,-98.25"/>
</g>
<!-- f83c4072&#45;d642&#45;11ee&#45;b104&#45;ac1a3ddd05c7 -->
<g id="node17" class="node">
<title>f83c4072&#45;d642&#45;11ee&#45;b104&#45;ac1a3ddd05c7</title>
<polygon fill="none" stroke="black" points="935.96,-326.82 896.83,-369.87 818.56,-369.87 779.43,-326.82 818.56,-283.77 896.83,-283.77 935.96,-326.82"/>
<text text-anchor="middle" x="857.7" y="-338.12" font-family="Times,serif" font-size="14.00">rp_8: level2 </text>
<text text-anchor="middle" x="857.7" y="-323.12" font-family="Times,serif" font-size="14.00"> evaluate_risk </text>
<text text-anchor="middle" x="857.7" y="-308.12" font-family="Times,serif" font-size="14.00"> cost : 146</text>
</g>
<!-- f83c3f50&#45;d642&#45;11ee&#45;b104&#45;ac1a3ddd05c7&#45;&gt;f83c4072&#45;d642&#45;11ee&#45;b104&#45;ac1a3ddd05c7 -->
<g id="edge16" class="edge">
<title>f83c3f50&#45;d642&#45;11ee&#45;b104&#45;ac1a3ddd05c7&#45;&gt;f83c4072&#45;d642&#45;11ee&#45;b104&#45;ac1a3ddd05c7</title>
<path fill="none" stroke="black" d="M857.7,-405.62C857.7,-398.67 857.7,-390.27 857.7,-381.6"/>
<polygon fill="black" stroke="black" points="861.2,-381.64 857.7,-371.64 854.2,-381.64 861.2,-381.64"/>
</g>
<!-- f83c4158&#45;d642&#45;11ee&#45;b104&#45;ac1a3ddd05c7 -->
<g id="node18" class="node">
<title>f83c4158&#45;d642&#45;11ee&#45;b104&#45;ac1a3ddd05c7</title>
<polygon fill="none" stroke="black" points="1074.7,-247.55 932.7,-247.55 932.7,-194.55 1074.7,-194.55 1074.7,-247.55"/>
<text text-anchor="middle" x="1003.7" y="-232.35" font-family="Times,serif" font-size="14.00">r6: head_confirmation </text>
<text text-anchor="middle" x="1003.7" y="-217.35" font-family="Times,serif" font-size="14.00"> Type: insert </text>
<text text-anchor="middle" x="1003.7" y="-202.35" font-family="Times,serif" font-size="14.00"> Direction: after</text>
</g>
<!-- f83c4072&#45;d642&#45;11ee&#45;b104&#45;ac1a3ddd05c7&#45;&gt;f83c4158&#45;d642&#45;11ee&#45;b104&#45;ac1a3ddd05c7 -->
<g id="edge17" class="edge">
<title>f83c4072&#45;d642&#45;11ee&#45;b104&#45;ac1a3ddd05c7&#45;&gt;f83c4158&#45;d642&#45;11ee&#45;b104&#45;ac1a3ddd05c7</title>
<path fill="none" stroke="black" d="M905.1,-292.13C922.1,-280.05 941.22,-266.45 958.07,-254.48"/>
<polygon fill="black" stroke="black" points="959.81,-257.54 965.93,-248.89 955.75,-251.83 959.81,-257.54"/>
</g>
<!-- f83c42de&#45;d642&#45;11ee&#45;b104&#45;ac1a3ddd05c7 -->
<g id="node19" class="node">
<title>f83c42de&#45;d642&#45;11ee&#45;b104&#45;ac1a3ddd05c7</title>
<ellipse fill="none" stroke="black" cx="1003.7" cy="-140.55" rx="48.99" ry="18"/>
<text text-anchor="middle" x="1003.7" y="-136.85" font-family="Times,serif" font-size="14.00">r_3: level3</text>
</g>
<!-- f83c4158&#45;d642&#45;11ee&#45;b104&#45;ac1a3ddd05c7&#45;&gt;f83c42de&#45;d642&#45;11ee&#45;b104&#45;ac1a3ddd05c7 -->
<g id="edge18" class="edge">
<title>f83c4158&#45;d642&#45;11ee&#45;b104&#45;ac1a3ddd05c7&#45;&gt;f83c42de&#45;d642&#45;11ee&#45;b104&#45;ac1a3ddd05c7</title>
<path fill="none" stroke="black" d="M1003.7,-194.34C1003.7,-186.62 1003.7,-178.11 1003.7,-170.21"/>
<polygon fill="black" stroke="black" points="1007.2,-170.39 1003.7,-160.39 1000.2,-170.39 1007.2,-170.39"/>
</g>
<!-- f83c452c&#45;d642&#45;11ee&#45;b104&#45;ac1a3ddd05c7 -->
<g id="node21" class="node">
<title>f83c452c&#45;d642&#45;11ee&#45;b104&#45;ac1a3ddd05c7</title>
<ellipse fill="none" stroke="black" cx="1173.7" cy="-140.55" rx="48.99" ry="18"/>
<text text-anchor="middle" x="1173.7" y="-136.85" font-family="Times,serif" font-size="14.00">r_5: level3</text>
</g>
<!-- f83c4158&#45;d642&#45;11ee&#45;b104&#45;ac1a3ddd05c7&#45;&gt;f83c452c&#45;d642&#45;11ee&#45;b104&#45;ac1a3ddd05c7 -->
<g id="edge20" class="edge">
<title>f83c4158&#45;d642&#45;11ee&#45;b104&#45;ac1a3ddd05c7&#45;&gt;f83c452c&#45;d642&#45;11ee&#45;b104&#45;ac1a3ddd05c7</title>
<path fill="none" stroke="black" d="M1059.83,-194.13C1084.1,-182.92 1111.93,-170.07 1134,-159.88"/>
<polygon fill="black" stroke="black" points="1135.35,-163.11 1142.96,-155.74 1132.41,-156.76 1135.35,-163.11"/>
</g>
<!-- f83c43f6&#45;d642&#45;11ee&#45;b104&#45;ac1a3ddd05c7 -->
<g id="node20" class="node">
<title>f83c43f6&#45;d642&#45;11ee&#45;b104&#45;ac1a3ddd05c7</title>
<polygon fill="none" stroke="black" points="1107.59,-43.27 1055.64,-86.32 951.75,-86.32 899.8,-43.27 951.75,-0.22 1055.64,-0.22 1107.59,-43.27"/>
<text text-anchor="middle" x="1003.7" y="-54.57" font-family="Times,serif" font-size="14.00">rp_23: level3 </text>
<text text-anchor="middle" x="1003.7" y="-39.57" font-family="Times,serif" font-size="14.00"> head_confirmation </text>
<text text-anchor="middle" x="1003.7" y="-24.57" font-family="Times,serif" font-size="14.00"> cost : 108</text>
</g>
<!-- f83c42de&#45;d642&#45;11ee&#45;b104&#45;ac1a3ddd05c7&#45;&gt;f83c43f6&#45;d642&#45;11ee&#45;b104&#45;ac1a3ddd05c7 -->
<g id="edge19" class="edge">
<title>f83c42de&#45;d642&#45;11ee&#45;b104&#45;ac1a3ddd05c7&#45;&gt;f83c43f6&#45;d642&#45;11ee&#45;b104&#45;ac1a3ddd05c7</title>
<path fill="none" stroke="black" d="M1003.7,-122.07C1003.7,-115.13 1003.7,-106.72 1003.7,-98.05"/>
<polygon fill="black" stroke="black" points="1007.2,-98.09 1003.7,-88.09 1000.2,-98.09 1007.2,-98.09"/>
</g>
<!-- f83c4658&#45;d642&#45;11ee&#45;b104&#45;ac1a3ddd05c7 -->
<g id="node22" class="node">
<title>f83c4658&#45;d642&#45;11ee&#45;b104&#45;ac1a3ddd05c7</title>
<polygon fill="none" stroke="black" points="1332.59,-43.27 1280.64,-86.32 1176.75,-86.32 1124.8,-43.27 1176.75,-0.22 1280.64,-0.22 1332.59,-43.27"/>
<text text-anchor="middle" x="1228.7" y="-54.57" font-family="Times,serif" font-size="14.00">rp_23: level3 </text>
<text text-anchor="middle" x="1228.7" y="-39.57" font-family="Times,serif" font-size="14.00"> head_confirmation </text>
<text text-anchor="middle" x="1228.7" y="-24.57" font-family="Times,serif" font-size="14.00"> cost : 76</text>
</g>
<!-- f83c452c&#45;d642&#45;11ee&#45;b104&#45;ac1a3ddd05c7&#45;&gt;f83c4658&#45;d642&#45;11ee&#45;b104&#45;ac1a3ddd05c7 -->
<g id="edge21" class="edge">
<title>f83c452c&#45;d642&#45;11ee&#45;b104&#45;ac1a3ddd05c7&#45;&gt;f83c4658&#45;d642&#45;11ee&#45;b104&#45;ac1a3ddd05c7</title>
<path fill="none" stroke="black" d="M1183.53,-122.52C1187.84,-115.05 1193.16,-105.84 1198.61,-96.39"/>
<polygon fill="black" stroke="black" points="1201.58,-98.25 1203.55,-87.84 1195.52,-94.75 1201.58,-98.25"/>
</g>
<!-- f83c4860&#45;d642&#45;11ee&#45;b104&#45;ac1a3ddd05c7 -->
<g id="node24" class="node">
<title>f83c4860&#45;d642&#45;11ee&#45;b104&#45;ac1a3ddd05c7</title>
<polygon fill="none" stroke="black" points="1110.96,-326.82 1071.83,-369.87 993.56,-369.87 954.43,-326.82 993.56,-283.77 1071.83,-283.77 1110.96,-326.82"/>
<text text-anchor="middle" x="1032.7" y="-338.12" font-family="Times,serif" font-size="14.00">rp_14: level3 </text>
<text text-anchor="middle" x="1032.7" y="-323.12" font-family="Times,serif" font-size="14.00"> evaluate_risk </text>
<text text-anchor="middle" x="1032.7" y="-308.12" font-family="Times,serif" font-size="14.00"> cost : 100</text>
</g>
<!-- f83c4748&#45;d642&#45;11ee&#45;b104&#45;ac1a3ddd05c7&#45;&gt;f83c4860&#45;d642&#45;11ee&#45;b104&#45;ac1a3ddd05c7 -->
<g id="edge23" class="edge">
<title>f83c4748&#45;d642&#45;11ee&#45;b104&#45;ac1a3ddd05c7&#45;&gt;f83c4860&#45;d642&#45;11ee&#45;b104&#45;ac1a3ddd05c7</title>
<path fill="none" stroke="black" d="M1008.06,-406.06C1010.34,-398.83 1013.13,-389.97 1016,-380.84"/>
<polygon fill="black" stroke="black" points="1019.27,-382.11 1018.94,-371.52 1012.59,-380.01 1019.27,-382.11"/>
</g>
<!-- f83c4a5e&#45;d642&#45;11ee&#45;b104&#45;ac1a3ddd05c7 -->
<g id="node26" class="node">
<title>f83c4a5e&#45;d642&#45;11ee&#45;b104&#45;ac1a3ddd05c7</title>
<polygon fill="none" stroke="black" points="1285.96,-326.82 1246.83,-369.87 1168.56,-369.87 1129.43,-326.82 1168.56,-283.77 1246.83,-283.77 1285.96,-326.82"/>
<text text-anchor="middle" x="1207.7" y="-338.12" font-family="Times,serif" font-size="14.00">rp_14: level3 </text>
<text text-anchor="middle" x="1207.7" y="-323.12" font-family="Times,serif" font-size="14.00"> evaluate_risk </text>
<text text-anchor="middle" x="1207.7" y="-308.12" font-family="Times,serif" font-size="14.00"> cost : 100</text>
</g>
<!-- f83c4950&#45;d642&#45;11ee&#45;b104&#45;ac1a3ddd05c7&#45;&gt;f83c4a5e&#45;d642&#45;11ee&#45;b104&#45;ac1a3ddd05c7 -->
<g id="edge25" class="edge">
<title>f83c4950&#45;d642&#45;11ee&#45;b104&#45;ac1a3ddd05c7&#45;&gt;f83c4a5e&#45;d642&#45;11ee&#45;b104&#45;ac1a3ddd05c7</title>
<path fill="none" stroke="black" d="M1170.74,-406.06C1174.23,-398.67 1178.53,-389.58 1182.94,-380.24"/>
<polygon fill="black" stroke="black" points="1185.99,-381.98 1187.09,-371.44 1179.66,-378.99 1185.99,-381.98"/>
</g>
</g>
</svg>
