<?xml version="1.0" encoding="UTF-8" standalone="no"?>
<!DOCTYPE svg PUBLIC "-//W3C//DTD SVG 1.1//EN"
 "http://www.w3.org/Graphics/SVG/1.1/DTD/svg11.dtd">
<!-- Generated by graphviz version 7.1.0 (0)
 -->
<!-- Title: CallTree Pages: 1 -->
<svg width="590pt" height="345pt"
 viewBox="0.00 0.00 590.42 344.55" xmlns="http://www.w3.org/2000/svg" xmlns:xlink="http://www.w3.org/1999/xlink">
<g id="graph0" class="graph" transform="scale(1 1) rotate(0) translate(4 340.55)">
<title>CallTree</title>
<polygon fill="white" stroke="none" points="-4,4 -4,-340.55 586.42,-340.55 586.42,4 -4,4"/>
<!-- d414985e&#45;d7cb&#45;11ee&#45;9e69&#45;ac1a3ddd05c7 -->
<g id="node1" class="node">
<title>d414985e&#45;d7cb&#45;11ee&#45;9e69&#45;ac1a3ddd05c7</title>
<polygon fill="none" stroke="black" points="333.42,-336.55 212.42,-336.55 212.42,-283.55 333.42,-283.55 333.42,-336.55"/>
<text text-anchor="middle" x="272.92" y="-321.35" font-family="Times,serif" font-size="14.00">a2: data_gathering </text>
<text text-anchor="middle" x="272.92" y="-306.35" font-family="Times,serif" font-size="14.00"> Type: Core </text>
<text text-anchor="middle" x="272.92" y="-291.35" font-family="Times,serif" font-size="14.00"> Direction: Core</text>
</g>
<!-- d4149fde&#45;d7cb&#45;11ee&#45;9e69&#45;ac1a3ddd05c7 -->
<g id="node2" class="node">
<title>d4149fde&#45;d7cb&#45;11ee&#45;9e69&#45;ac1a3ddd05c7</title>
<ellipse fill="none" stroke="black" cx="121.92" cy="-229.55" rx="48.99" ry="18"/>
<text text-anchor="middle" x="121.92" y="-225.85" font-family="Times,serif" font-size="14.00">r_1: level1</text>
</g>
<!-- d414985e&#45;d7cb&#45;11ee&#45;9e69&#45;ac1a3ddd05c7&#45;&gt;d4149fde&#45;d7cb&#45;11ee&#45;9e69&#45;ac1a3ddd05c7 -->
<g id="edge1" class="edge">
<title>d414985e&#45;d7cb&#45;11ee&#45;9e69&#45;ac1a3ddd05c7&#45;&gt;d4149fde&#45;d7cb&#45;11ee&#45;9e69&#45;ac1a3ddd05c7</title>
<path fill="none" stroke="black" d="M223.05,-283.13C202.32,-272.35 178.67,-260.05 159.45,-250.06"/>
<polygon fill="black" stroke="black" points="161.11,-246.98 150.62,-245.47 157.88,-253.19 161.11,-246.98"/>
</g>
<!-- d414a54c&#45;d7cb&#45;11ee&#45;9e69&#45;ac1a3ddd05c7 -->
<g id="node4" class="node">
<title>d414a54c&#45;d7cb&#45;11ee&#45;9e69&#45;ac1a3ddd05c7</title>
<ellipse fill="none" stroke="black" cx="272.92" cy="-229.55" rx="48.99" ry="18"/>
<text text-anchor="middle" x="272.92" y="-225.85" font-family="Times,serif" font-size="14.00">r_2: level2</text>
</g>
<!-- d414985e&#45;d7cb&#45;11ee&#45;9e69&#45;ac1a3ddd05c7&#45;&gt;d414a54c&#45;d7cb&#45;11ee&#45;9e69&#45;ac1a3ddd05c7 -->
<g id="edge3" class="edge">
<title>d414985e&#45;d7cb&#45;11ee&#45;9e69&#45;ac1a3ddd05c7&#45;&gt;d414a54c&#45;d7cb&#45;11ee&#45;9e69&#45;ac1a3ddd05c7</title>
<path fill="none" stroke="black" d="M272.92,-283.34C272.92,-275.62 272.92,-267.11 272.92,-259.21"/>
<polygon fill="black" stroke="black" points="276.42,-259.39 272.92,-249.39 269.42,-259.39 276.42,-259.39"/>
</g>
<!-- d414a88a&#45;d7cb&#45;11ee&#45;9e69&#45;ac1a3ddd05c7 -->
<g id="node6" class="node">
<title>d414a88a&#45;d7cb&#45;11ee&#45;9e69&#45;ac1a3ddd05c7</title>
<ellipse fill="none" stroke="black" cx="423.92" cy="-229.55" rx="48.99" ry="18"/>
<text text-anchor="middle" x="423.92" y="-225.85" font-family="Times,serif" font-size="14.00">r_4: level2</text>
</g>
<!-- d414985e&#45;d7cb&#45;11ee&#45;9e69&#45;ac1a3ddd05c7&#45;&gt;d414a88a&#45;d7cb&#45;11ee&#45;9e69&#45;ac1a3ddd05c7 -->
<g id="edge5" class="edge">
<title>d414985e&#45;d7cb&#45;11ee&#45;9e69&#45;ac1a3ddd05c7&#45;&gt;d414a88a&#45;d7cb&#45;11ee&#45;9e69&#45;ac1a3ddd05c7</title>
<path fill="none" stroke="black" d="M322.78,-283.13C343.51,-272.35 367.16,-260.05 386.38,-250.06"/>
<polygon fill="black" stroke="black" points="387.95,-253.19 395.21,-245.47 384.73,-246.98 387.95,-253.19"/>
</g>
<!-- d414a2b8&#45;d7cb&#45;11ee&#45;9e69&#45;ac1a3ddd05c7 -->
<g id="node3" class="node">
<title>d414a2b8&#45;d7cb&#45;11ee&#45;9e69&#45;ac1a3ddd05c7</title>
<polygon fill="none" stroke="black" points="169.75,-132.27 127.33,-175.32 42.5,-175.32 0.08,-132.27 42.5,-89.22 127.33,-89.22 169.75,-132.27"/>
<text text-anchor="middle" x="84.92" y="-143.57" font-family="Times,serif" font-size="14.00">rp_2: level1 </text>
<text text-anchor="middle" x="84.92" y="-128.57" font-family="Times,serif" font-size="14.00"> data_gathering </text>
<text text-anchor="middle" x="84.92" y="-113.57" font-family="Times,serif" font-size="14.00"> cost : 83</text>
</g>
<!-- d4149fde&#45;d7cb&#45;11ee&#45;9e69&#45;ac1a3ddd05c7&#45;&gt;d414a2b8&#45;d7cb&#45;11ee&#45;9e69&#45;ac1a3ddd05c7 -->
<g id="edge2" class="edge">
<title>d4149fde&#45;d7cb&#45;11ee&#45;9e69&#45;ac1a3ddd05c7&#45;&gt;d414a2b8&#45;d7cb&#45;11ee&#45;9e69&#45;ac1a3ddd05c7</title>
<path fill="none" stroke="black" d="M115.3,-211.52C112.46,-204.2 108.97,-195.23 105.39,-185.99"/>
<polygon fill="black" stroke="black" points="108.76,-184.99 101.87,-176.94 102.23,-187.53 108.76,-184.99"/>
</g>
<!-- d414a704&#45;d7cb&#45;11ee&#45;9e69&#45;ac1a3ddd05c7 -->
<g id="node5" class="node">
<title>d414a704&#45;d7cb&#45;11ee&#45;9e69&#45;ac1a3ddd05c7</title>
<polygon fill="none" stroke="black" points="357.75,-132.27 315.33,-175.32 230.5,-175.32 188.08,-132.27 230.5,-89.22 315.33,-89.22 357.75,-132.27"/>
<text text-anchor="middle" x="272.92" y="-143.57" font-family="Times,serif" font-size="14.00">rp_7: level2 </text>
<text text-anchor="middle" x="272.92" y="-128.57" font-family="Times,serif" font-size="14.00"> data_gathering </text>
<text text-anchor="middle" x="272.92" y="-113.57" font-family="Times,serif" font-size="14.00"> cost : 24</text>
</g>
<!-- d414a54c&#45;d7cb&#45;11ee&#45;9e69&#45;ac1a3ddd05c7&#45;&gt;d414a704&#45;d7cb&#45;11ee&#45;9e69&#45;ac1a3ddd05c7 -->
<g id="edge4" class="edge">
<title>d414a54c&#45;d7cb&#45;11ee&#45;9e69&#45;ac1a3ddd05c7&#45;&gt;d414a704&#45;d7cb&#45;11ee&#45;9e69&#45;ac1a3ddd05c7</title>
<path fill="none" stroke="black" d="M272.92,-211.07C272.92,-204.13 272.92,-195.72 272.92,-187.05"/>
<polygon fill="black" stroke="black" points="276.42,-187.09 272.92,-177.09 269.42,-187.09 276.42,-187.09"/>
</g>
<!-- d414aa1a&#45;d7cb&#45;11ee&#45;9e69&#45;ac1a3ddd05c7 -->
<g id="node7" class="node">
<title>d414aa1a&#45;d7cb&#45;11ee&#45;9e69&#45;ac1a3ddd05c7</title>
<polygon fill="none" stroke="black" points="545.75,-132.27 503.33,-175.32 418.5,-175.32 376.08,-132.27 418.5,-89.22 503.33,-89.22 545.75,-132.27"/>
<text text-anchor="middle" x="460.92" y="-143.57" font-family="Times,serif" font-size="14.00">rp_7: level2 </text>
<text text-anchor="middle" x="460.92" y="-128.57" font-family="Times,serif" font-size="14.00"> data_gathering </text>
<text text-anchor="middle" x="460.92" y="-113.57" font-family="Times,serif" font-size="14.00"> cost : 65</text>
</g>
<!-- d414a88a&#45;d7cb&#45;11ee&#45;9e69&#45;ac1a3ddd05c7&#45;&gt;d414aa1a&#45;d7cb&#45;11ee&#45;9e69&#45;ac1a3ddd05c7 -->
<g id="edge6" class="edge">
<title>d414a88a&#45;d7cb&#45;11ee&#45;9e69&#45;ac1a3ddd05c7&#45;&gt;d414aa1a&#45;d7cb&#45;11ee&#45;9e69&#45;ac1a3ddd05c7</title>
<path fill="none" stroke="black" d="M430.53,-211.52C433.37,-204.2 436.86,-195.23 440.44,-185.99"/>
<polygon fill="black" stroke="black" points="443.6,-187.53 443.96,-176.94 437.08,-184.99 443.6,-187.53"/>
</g>
<!-- d414ab8c&#45;d7cb&#45;11ee&#45;9e69&#45;ac1a3ddd05c7 -->
<g id="node8" class="node">
<title>d414ab8c&#45;d7cb&#45;11ee&#45;9e69&#45;ac1a3ddd05c7</title>
<polygon fill="none" stroke="black" points="451.42,-53 338.42,-53 338.42,0 451.42,0 451.42,-53"/>
<text text-anchor="middle" x="394.92" y="-37.8" font-family="Times,serif" font-size="14.00">r0: inform_head </text>
<text text-anchor="middle" x="394.92" y="-22.8" font-family="Times,serif" font-size="14.00"> Type: insert </text>
<text text-anchor="middle" x="394.92" y="-7.8" font-family="Times,serif" font-size="14.00"> Direction: before</text>
</g>
<!-- d414aa1a&#45;d7cb&#45;11ee&#45;9e69&#45;ac1a3ddd05c7&#45;&gt;d414ab8c&#45;d7cb&#45;11ee&#45;9e69&#45;ac1a3ddd05c7 -->
<g id="edge7" class="edge">
<title>d414aa1a&#45;d7cb&#45;11ee&#45;9e69&#45;ac1a3ddd05c7&#45;&gt;d414ab8c&#45;d7cb&#45;11ee&#45;9e69&#45;ac1a3ddd05c7</title>
<path fill="none" stroke="black" d="M433.88,-88.77C428.46,-80.25 422.83,-71.39 417.58,-63.13"/>
<polygon fill="black" stroke="black" points="420.54,-61.27 412.22,-54.71 414.63,-65.02 420.54,-61.27"/>
</g>
<!-- d414ade4&#45;d7cb&#45;11ee&#45;9e69&#45;ac1a3ddd05c7 -->
<g id="node9" class="node">
<title>d414ade4&#45;d7cb&#45;11ee&#45;9e69&#45;ac1a3ddd05c7</title>
<polygon fill="none" stroke="black" points="582.42,-53 469.42,-53 469.42,0 582.42,0 582.42,-53"/>
<text text-anchor="middle" x="525.92" y="-37.8" font-family="Times,serif" font-size="14.00">r0: data_support </text>
<text text-anchor="middle" x="525.92" y="-22.8" font-family="Times,serif" font-size="14.00"> Type: insert </text>
<text text-anchor="middle" x="525.92" y="-7.8" font-family="Times,serif" font-size="14.00"> Direction: before</text>
</g>
<!-- d414aa1a&#45;d7cb&#45;11ee&#45;9e69&#45;ac1a3ddd05c7&#45;&gt;d414ade4&#45;d7cb&#45;11ee&#45;9e69&#45;ac1a3ddd05c7 -->
<g id="edge8" class="edge">
<title>d414aa1a&#45;d7cb&#45;11ee&#45;9e69&#45;ac1a3ddd05c7&#45;&gt;d414ade4&#45;d7cb&#45;11ee&#45;9e69&#45;ac1a3ddd05c7</title>
<path fill="none" stroke="black" d="M487.54,-88.77C492.88,-80.25 498.43,-71.39 503.6,-63.13"/>
<polygon fill="black" stroke="black" points="506.53,-65.05 508.87,-54.71 500.6,-61.33 506.53,-65.05"/>
</g>
</g>
</svg>
