<?xml version="1.0" encoding="UTF-8" standalone="no"?>
<!DOCTYPE svg PUBLIC "-//W3C//DTD SVG 1.1//EN"
 "http://www.w3.org/Graphics/SVG/1.1/DTD/svg11.dtd">
<!-- Generated by graphviz version 8.1.0 (20230707.0739)
 -->
<!-- Title: CallTree Pages: 1 -->
<svg width="860pt" height="952pt"
 viewBox="0.00 0.00 859.95 951.69" xmlns="http://www.w3.org/2000/svg" xmlns:xlink="http://www.w3.org/1999/xlink">
<g id="graph0" class="graph" transform="scale(1 1) rotate(0) translate(4 947.69)">
<title>CallTree</title>
<polygon fill="white" stroke="none" points="-4,4 -4,-947.69 855.95,-947.69 855.95,4 -4,4"/>
<!-- 0335d7c8&#45;d741&#45;11ee&#45;8d3f&#45;04cf4b795879 -->
<g id="node1" class="node">
<title>0335d7c8&#45;d741&#45;11ee&#45;8d3f&#45;04cf4b795879</title>
<polygon fill="none" stroke="black" points="481.98,-943.69 369.98,-943.69 369.98,-886.19 481.98,-886.19 481.98,-943.69"/>
<text text-anchor="middle" x="425.98" y="-926.39" font-family="Times,serif" font-size="14.00">a3: evaluate_risk </text>
<text text-anchor="middle" x="425.98" y="-909.89" font-family="Times,serif" font-size="14.00"> Type: Core </text>
<text text-anchor="middle" x="425.98" y="-893.39" font-family="Times,serif" font-size="14.00"> Direction: Core</text>
</g>
<!-- 0335e2a4&#45;d741&#45;11ee&#45;8d3f&#45;04cf4b795879 -->
<g id="node2" class="node">
<title>0335e2a4&#45;d741&#45;11ee&#45;8d3f&#45;04cf4b795879</title>
<ellipse fill="none" stroke="black" cx="131.98" cy="-832.19" rx="50.84" ry="18"/>
<text text-anchor="middle" x="131.98" y="-827.14" font-family="Times,serif" font-size="14.00">r_1: level1</text>
</g>
<!-- 0335d7c8&#45;d741&#45;11ee&#45;8d3f&#45;04cf4b795879&#45;&gt;0335e2a4&#45;d741&#45;11ee&#45;8d3f&#45;04cf4b795879 -->
<g id="edge1" class="edge">
<title>0335d7c8&#45;d741&#45;11ee&#45;8d3f&#45;04cf4b795879&#45;&gt;0335e2a4&#45;d741&#45;11ee&#45;8d3f&#45;04cf4b795879</title>
<path fill="none" stroke="black" d="M369.64,-898.47C315.2,-883.52 233.54,-861.09 181.52,-846.8"/>
<polygon fill="black" stroke="black" points="182.78,-843.24 172.21,-843.97 180.92,-849.99 182.78,-843.24"/>
</g>
<!-- 0335e6a0&#45;d741&#45;11ee&#45;8d3f&#45;04cf4b795879 -->
<g id="node4" class="node">
<title>0335e6a0&#45;d741&#45;11ee&#45;8d3f&#45;04cf4b795879</title>
<ellipse fill="none" stroke="black" cx="278.98" cy="-832.19" rx="50.84" ry="18"/>
<text text-anchor="middle" x="278.98" y="-827.14" font-family="Times,serif" font-size="14.00">r_2: level2</text>
</g>
<!-- 0335d7c8&#45;d741&#45;11ee&#45;8d3f&#45;04cf4b795879&#45;&gt;0335e6a0&#45;d741&#45;11ee&#45;8d3f&#45;04cf4b795879 -->
<g id="edge3" class="edge">
<title>0335d7c8&#45;d741&#45;11ee&#45;8d3f&#45;04cf4b795879&#45;&gt;0335e6a0&#45;d741&#45;11ee&#45;8d3f&#45;04cf4b795879</title>
<path fill="none" stroke="black" d="M374.56,-885.7C355,-874.95 333.14,-862.95 315.27,-853.13"/>
<polygon fill="black" stroke="black" points="317.24,-849.67 306.79,-847.92 313.87,-855.8 317.24,-849.67"/>
</g>
<!-- 0335ec4a&#45;d741&#45;11ee&#45;8d3f&#45;04cf4b795879 -->
<g id="node7" class="node">
<title>0335ec4a&#45;d741&#45;11ee&#45;8d3f&#45;04cf4b795879</title>
<ellipse fill="none" stroke="black" cx="425.98" cy="-832.19" rx="50.84" ry="18"/>
<text text-anchor="middle" x="425.98" y="-827.14" font-family="Times,serif" font-size="14.00">r_4: level2</text>
</g>
<!-- 0335d7c8&#45;d741&#45;11ee&#45;8d3f&#45;04cf4b795879&#45;&gt;0335ec4a&#45;d741&#45;11ee&#45;8d3f&#45;04cf4b795879 -->
<g id="edge6" class="edge">
<title>0335d7c8&#45;d741&#45;11ee&#45;8d3f&#45;04cf4b795879&#45;&gt;0335ec4a&#45;d741&#45;11ee&#45;8d3f&#45;04cf4b795879</title>
<path fill="none" stroke="black" d="M425.98,-885.7C425.98,-877.75 425.98,-869.12 425.98,-861.19"/>
<polygon fill="black" stroke="black" points="429.48,-861.24 425.98,-851.24 422.48,-861.24 429.48,-861.24"/>
</g>
<!-- 0335efe2&#45;d741&#45;11ee&#45;8d3f&#45;04cf4b795879 -->
<g id="node9" class="node">
<title>0335efe2&#45;d741&#45;11ee&#45;8d3f&#45;04cf4b795879</title>
<ellipse fill="none" stroke="black" cx="572.98" cy="-832.19" rx="50.84" ry="18"/>
<text text-anchor="middle" x="572.98" y="-827.14" font-family="Times,serif" font-size="14.00">r_3: level3</text>
</g>
<!-- 0335d7c8&#45;d741&#45;11ee&#45;8d3f&#45;04cf4b795879&#45;&gt;0335efe2&#45;d741&#45;11ee&#45;8d3f&#45;04cf4b795879 -->
<g id="edge8" class="edge">
<title>0335d7c8&#45;d741&#45;11ee&#45;8d3f&#45;04cf4b795879&#45;&gt;0335efe2&#45;d741&#45;11ee&#45;8d3f&#45;04cf4b795879</title>
<path fill="none" stroke="black" d="M477.39,-885.7C496.95,-874.95 518.81,-862.95 536.68,-853.13"/>
<polygon fill="black" stroke="black" points="538.08,-855.8 545.16,-847.92 534.71,-849.67 538.08,-855.8"/>
</g>
<!-- 03360c98&#45;d741&#45;11ee&#45;8d3f&#45;04cf4b795879 -->
<g id="node24" class="node">
<title>03360c98&#45;d741&#45;11ee&#45;8d3f&#45;04cf4b795879</title>
<ellipse fill="none" stroke="black" cx="732.98" cy="-832.19" rx="50.84" ry="18"/>
<text text-anchor="middle" x="732.98" y="-827.14" font-family="Times,serif" font-size="14.00">r_5: level3</text>
</g>
<!-- 0335d7c8&#45;d741&#45;11ee&#45;8d3f&#45;04cf4b795879&#45;&gt;03360c98&#45;d741&#45;11ee&#45;8d3f&#45;04cf4b795879 -->
<g id="edge23" class="edge">
<title>0335d7c8&#45;d741&#45;11ee&#45;8d3f&#45;04cf4b795879&#45;&gt;03360c98&#45;d741&#45;11ee&#45;8d3f&#45;04cf4b795879</title>
<path fill="none" stroke="black" d="M482.28,-899.13C539.57,-884.06 627.54,-860.93 682.59,-846.44"/>
<polygon fill="black" stroke="black" points="683.36,-849.6 692.14,-843.67 681.58,-842.83 683.36,-849.6"/>
</g>
<!-- 0335e4e8&#45;d741&#45;11ee&#45;8d3f&#45;04cf4b795879 -->
<g id="node3" class="node">
<title>0335e4e8&#45;d741&#45;11ee&#45;8d3f&#45;04cf4b795879</title>
<polygon fill="none" stroke="black" points="155.95,-731.24 116.96,-778.19 38.99,-778.19 0,-731.24 38.99,-684.29 116.96,-684.29 155.95,-731.24"/>
<text text-anchor="middle" x="77.98" y="-742.69" font-family="Times,serif" font-size="14.00">rp_3: level1 </text>
<text text-anchor="middle" x="77.98" y="-726.19" font-family="Times,serif" font-size="14.00"> evaluate_risk </text>
<text text-anchor="middle" x="77.98" y="-709.69" font-family="Times,serif" font-size="14.00"> cost : 50</text>
</g>
<!-- 0335e2a4&#45;d741&#45;11ee&#45;8d3f&#45;04cf4b795879&#45;&gt;0335e4e8&#45;d741&#45;11ee&#45;8d3f&#45;04cf4b795879 -->
<g id="edge2" class="edge">
<title>0335e2a4&#45;d741&#45;11ee&#45;8d3f&#45;04cf4b795879&#45;&gt;0335e4e8&#45;d741&#45;11ee&#45;8d3f&#45;04cf4b795879</title>
<path fill="none" stroke="black" d="M122.82,-814.41C118.75,-806.96 113.72,-797.73 108.5,-788.17"/>
<polygon fill="black" stroke="black" points="111.12,-786.66 103.25,-779.56 104.97,-790.02 111.12,-786.66"/>
</g>
<!-- 0335e88a&#45;d741&#45;11ee&#45;8d3f&#45;04cf4b795879 -->
<g id="node5" class="node">
<title>0335e88a&#45;d741&#45;11ee&#45;8d3f&#45;04cf4b795879</title>
<polygon fill="none" stroke="black" points="329.95,-731.24 290.96,-778.19 212.99,-778.19 174,-731.24 212.99,-684.29 290.96,-684.29 329.95,-731.24"/>
<text text-anchor="middle" x="251.98" y="-742.69" font-family="Times,serif" font-size="14.00">rp_8: level2 </text>
<text text-anchor="middle" x="251.98" y="-726.19" font-family="Times,serif" font-size="14.00"> evaluate_risk </text>
<text text-anchor="middle" x="251.98" y="-709.69" font-family="Times,serif" font-size="14.00"> cost : 10</text>
</g>
<!-- 0335e6a0&#45;d741&#45;11ee&#45;8d3f&#45;04cf4b795879&#45;&gt;0335e88a&#45;d741&#45;11ee&#45;8d3f&#45;04cf4b795879 -->
<g id="edge4" class="edge">
<title>0335e6a0&#45;d741&#45;11ee&#45;8d3f&#45;04cf4b795879&#45;&gt;0335e88a&#45;d741&#45;11ee&#45;8d3f&#45;04cf4b795879</title>
<path fill="none" stroke="black" d="M274.27,-813.96C272.32,-806.79 269.93,-798.04 267.45,-788.95"/>
<polygon fill="black" stroke="black" points="270.64,-788.34 264.63,-779.61 263.88,-790.18 270.64,-788.34"/>
</g>
<!-- 0335ea06&#45;d741&#45;11ee&#45;8d3f&#45;04cf4b795879 -->
<g id="node6" class="node">
<title>0335ea06&#45;d741&#45;11ee&#45;8d3f&#45;04cf4b795879</title>
<polygon fill="none" stroke="black" points="311.35,-648.29 192.6,-648.29 192.6,-590.79 311.35,-590.79 311.35,-648.29"/>
<text text-anchor="middle" x="251.98" y="-630.99" font-family="Times,serif" font-size="14.00">r0: inform_head </text>
<text text-anchor="middle" x="251.98" y="-614.49" font-family="Times,serif" font-size="14.00"> Type: insert </text>
<text text-anchor="middle" x="251.98" y="-597.99" font-family="Times,serif" font-size="14.00"> Direction: parallel</text>
</g>
<!-- 0335e88a&#45;d741&#45;11ee&#45;8d3f&#45;04cf4b795879&#45;&gt;0335ea06&#45;d741&#45;11ee&#45;8d3f&#45;04cf4b795879 -->
<g id="edge5" class="edge">
<title>0335e88a&#45;d741&#45;11ee&#45;8d3f&#45;04cf4b795879&#45;&gt;0335ea06&#45;d741&#45;11ee&#45;8d3f&#45;04cf4b795879</title>
<path fill="none" stroke="black" d="M251.98,-684.04C251.98,-675.84 251.98,-667.38 251.98,-659.41"/>
<polygon fill="black" stroke="black" points="255.48,-659.55 251.98,-649.55 248.48,-659.55 255.48,-659.55"/>
</g>
<!-- 0335ee52&#45;d741&#45;11ee&#45;8d3f&#45;04cf4b795879 -->
<g id="node8" class="node">
<title>0335ee52&#45;d741&#45;11ee&#45;8d3f&#45;04cf4b795879</title>
<polygon fill="none" stroke="black" points="503.95,-731.24 464.96,-778.19 386.99,-778.19 348,-731.24 386.99,-684.29 464.96,-684.29 503.95,-731.24"/>
<text text-anchor="middle" x="425.98" y="-742.69" font-family="Times,serif" font-size="14.00">rp_8: level2 </text>
<text text-anchor="middle" x="425.98" y="-726.19" font-family="Times,serif" font-size="14.00"> evaluate_risk </text>
<text text-anchor="middle" x="425.98" y="-709.69" font-family="Times,serif" font-size="14.00"> cost : 45</text>
</g>
<!-- 0335ec4a&#45;d741&#45;11ee&#45;8d3f&#45;04cf4b795879&#45;&gt;0335ee52&#45;d741&#45;11ee&#45;8d3f&#45;04cf4b795879 -->
<g id="edge7" class="edge">
<title>0335ec4a&#45;d741&#45;11ee&#45;8d3f&#45;04cf4b795879&#45;&gt;0335ee52&#45;d741&#45;11ee&#45;8d3f&#45;04cf4b795879</title>
<path fill="none" stroke="black" d="M425.98,-813.96C425.98,-806.95 425.98,-798.41 425.98,-789.53"/>
<polygon fill="black" stroke="black" points="429.48,-789.61 425.98,-779.61 422.48,-789.61 429.48,-789.61"/>
</g>
<!-- 0335f1a4&#45;d741&#45;11ee&#45;8d3f&#45;04cf4b795879 -->
<g id="node10" class="node">
<title>0335f1a4&#45;d741&#45;11ee&#45;8d3f&#45;04cf4b795879</title>
<polygon fill="none" stroke="black" points="677.95,-731.24 638.96,-778.19 560.99,-778.19 522,-731.24 560.99,-684.29 638.96,-684.29 677.95,-731.24"/>
<text text-anchor="middle" x="599.98" y="-742.69" font-family="Times,serif" font-size="14.00">rp_14: level3 </text>
<text text-anchor="middle" x="599.98" y="-726.19" font-family="Times,serif" font-size="14.00"> evaluate_risk </text>
<text text-anchor="middle" x="599.98" y="-709.69" font-family="Times,serif" font-size="14.00"> cost : 21</text>
</g>
<!-- 0335efe2&#45;d741&#45;11ee&#45;8d3f&#45;04cf4b795879&#45;&gt;0335f1a4&#45;d741&#45;11ee&#45;8d3f&#45;04cf4b795879 -->
<g id="edge9" class="edge">
<title>0335efe2&#45;d741&#45;11ee&#45;8d3f&#45;04cf4b795879&#45;&gt;0335f1a4&#45;d741&#45;11ee&#45;8d3f&#45;04cf4b795879</title>
<path fill="none" stroke="black" d="M577.68,-813.96C579.63,-806.79 582.02,-798.04 584.5,-788.95"/>
<polygon fill="black" stroke="black" points="588.07,-790.18 587.32,-779.61 581.31,-788.34 588.07,-790.18"/>
</g>
<!-- 0335f316&#45;d741&#45;11ee&#45;8d3f&#45;04cf4b795879 -->
<g id="node11" class="node">
<title>0335f316&#45;d741&#45;11ee&#45;8d3f&#45;04cf4b795879</title>
<polygon fill="none" stroke="black" points="654.1,-648.29 545.85,-648.29 545.85,-590.79 654.1,-590.79 654.1,-648.29"/>
<text text-anchor="middle" x="599.98" y="-630.99" font-family="Times,serif" font-size="14.00">r0: data_support </text>
<text text-anchor="middle" x="599.98" y="-614.49" font-family="Times,serif" font-size="14.00"> Type: insert </text>
<text text-anchor="middle" x="599.98" y="-597.99" font-family="Times,serif" font-size="14.00"> Direction: after</text>
</g>
<!-- 0335f1a4&#45;d741&#45;11ee&#45;8d3f&#45;04cf4b795879&#45;&gt;0335f316&#45;d741&#45;11ee&#45;8d3f&#45;04cf4b795879 -->
<g id="edge10" class="edge">
<title>0335f1a4&#45;d741&#45;11ee&#45;8d3f&#45;04cf4b795879&#45;&gt;0335f316&#45;d741&#45;11ee&#45;8d3f&#45;04cf4b795879</title>
<path fill="none" stroke="black" d="M599.98,-684.04C599.98,-675.84 599.98,-667.38 599.98,-659.41"/>
<polygon fill="black" stroke="black" points="603.48,-659.55 599.98,-649.55 596.48,-659.55 603.48,-659.55"/>
</g>
<!-- 0335f794&#45;d741&#45;11ee&#45;8d3f&#45;04cf4b795879 -->
<g id="node12" class="node">
<title>0335f794&#45;d741&#45;11ee&#45;8d3f&#45;04cf4b795879</title>
<ellipse fill="none" stroke="black" cx="533.98" cy="-536.79" rx="50.84" ry="18"/>
<text text-anchor="middle" x="533.98" y="-531.74" font-family="Times,serif" font-size="14.00">r_2: level2</text>
</g>
<!-- 0335f316&#45;d741&#45;11ee&#45;8d3f&#45;04cf4b795879&#45;&gt;0335f794&#45;d741&#45;11ee&#45;8d3f&#45;04cf4b795879 -->
<g id="edge11" class="edge">
<title>0335f316&#45;d741&#45;11ee&#45;8d3f&#45;04cf4b795879&#45;&gt;0335f794&#45;d741&#45;11ee&#45;8d3f&#45;04cf4b795879</title>
<path fill="none" stroke="black" d="M576.89,-590.3C569.53,-581.3 561.45,-571.4 554.3,-562.66"/>
<polygon fill="black" stroke="black" points="556.56,-560.89 547.52,-555.37 551.14,-565.32 556.56,-560.89"/>
</g>
<!-- 03360982&#45;d741&#45;11ee&#45;8d3f&#45;04cf4b795879 -->
<g id="node22" class="node">
<title>03360982&#45;d741&#45;11ee&#45;8d3f&#45;04cf4b795879</title>
<ellipse fill="none" stroke="black" cx="665.98" cy="-536.79" rx="50.84" ry="18"/>
<text text-anchor="middle" x="665.98" y="-531.74" font-family="Times,serif" font-size="14.00">r_4: level2</text>
</g>
<!-- 0335f316&#45;d741&#45;11ee&#45;8d3f&#45;04cf4b795879&#45;&gt;03360982&#45;d741&#45;11ee&#45;8d3f&#45;04cf4b795879 -->
<g id="edge21" class="edge">
<title>0335f316&#45;d741&#45;11ee&#45;8d3f&#45;04cf4b795879&#45;&gt;03360982&#45;d741&#45;11ee&#45;8d3f&#45;04cf4b795879</title>
<path fill="none" stroke="black" d="M623.06,-590.3C630.42,-581.3 638.5,-571.4 645.65,-562.66"/>
<polygon fill="black" stroke="black" points="648.81,-565.32 652.43,-555.37 643.39,-560.89 648.81,-565.32"/>
</g>
<!-- 0335f974&#45;d741&#45;11ee&#45;8d3f&#45;04cf4b795879 -->
<g id="node13" class="node">
<title>0335f974&#45;d741&#45;11ee&#45;8d3f&#45;04cf4b795879</title>
<polygon fill="none" stroke="black" points="585.11,-435.85 547.04,-482.79 470.91,-482.79 432.84,-435.85 470.91,-388.9 547.04,-388.9 585.11,-435.85"/>
<text text-anchor="middle" x="508.98" y="-447.3" font-family="Times,serif" font-size="14.00">rp_20: level2 </text>
<text text-anchor="middle" x="508.98" y="-430.8" font-family="Times,serif" font-size="14.00"> data_support </text>
<text text-anchor="middle" x="508.98" y="-414.3" font-family="Times,serif" font-size="14.00"> cost : 1</text>
</g>
<!-- 0335f794&#45;d741&#45;11ee&#45;8d3f&#45;04cf4b795879&#45;&gt;0335f974&#45;d741&#45;11ee&#45;8d3f&#45;04cf4b795879 -->
<g id="edge12" class="edge">
<title>0335f794&#45;d741&#45;11ee&#45;8d3f&#45;04cf4b795879&#45;&gt;0335f974&#45;d741&#45;11ee&#45;8d3f&#45;04cf4b795879</title>
<path fill="none" stroke="black" d="M529.62,-518.56C527.83,-511.47 525.65,-502.83 523.38,-493.84"/>
<polygon fill="black" stroke="black" points="526.53,-493.05 520.69,-484.21 519.75,-494.77 526.53,-493.05"/>
</g>
<!-- 0335fae6&#45;d741&#45;11ee&#45;8d3f&#45;04cf4b795879 -->
<g id="node14" class="node">
<title>0335fae6&#45;d741&#45;11ee&#45;8d3f&#45;04cf4b795879</title>
<polygon fill="none" stroke="black" points="501.35,-352.9 388.6,-352.9 388.6,-295.4 501.35,-295.4 501.35,-352.9"/>
<text text-anchor="middle" x="444.98" y="-335.6" font-family="Times,serif" font-size="14.00">r0: inform_head </text>
<text text-anchor="middle" x="444.98" y="-319.1" font-family="Times,serif" font-size="14.00"> Type: insert </text>
<text text-anchor="middle" x="444.98" y="-302.6" font-family="Times,serif" font-size="14.00"> Direction: before</text>
</g>
<!-- 0335f974&#45;d741&#45;11ee&#45;8d3f&#45;04cf4b795879&#45;&gt;0335fae6&#45;d741&#45;11ee&#45;8d3f&#45;04cf4b795879 -->
<g id="edge13" class="edge">
<title>0335f974&#45;d741&#45;11ee&#45;8d3f&#45;04cf4b795879&#45;&gt;0335fae6&#45;d741&#45;11ee&#45;8d3f&#45;04cf4b795879</title>
<path fill="none" stroke="black" d="M482.02,-388.64C476.96,-379.97 471.73,-371.01 466.85,-362.64"/>
<polygon fill="black" stroke="black" points="469.38,-361.03 461.31,-354.15 463.33,-364.55 469.38,-361.03"/>
</g>
<!-- 033607fc&#45;d741&#45;11ee&#45;8d3f&#45;04cf4b795879 -->
<g id="node21" class="node">
<title>033607fc&#45;d741&#45;11ee&#45;8d3f&#45;04cf4b795879</title>
<polygon fill="none" stroke="black" points="626.35,-352.9 519.6,-352.9 519.6,-295.4 626.35,-295.4 626.35,-352.9"/>
<text text-anchor="middle" x="572.98" y="-335.6" font-family="Times,serif" font-size="14.00">r0: design_offer </text>
<text text-anchor="middle" x="572.98" y="-319.1" font-family="Times,serif" font-size="14.00"> Type: delete </text>
<text text-anchor="middle" x="572.98" y="-302.6" font-family="Times,serif" font-size="14.00"> Direction: any</text>
</g>
<!-- 0335f974&#45;d741&#45;11ee&#45;8d3f&#45;04cf4b795879&#45;&gt;033607fc&#45;d741&#45;11ee&#45;8d3f&#45;04cf4b795879 -->
<g id="edge20" class="edge">
<title>0335f974&#45;d741&#45;11ee&#45;8d3f&#45;04cf4b795879&#45;&gt;033607fc&#45;d741&#45;11ee&#45;8d3f&#45;04cf4b795879</title>
<path fill="none" stroke="black" d="M535.93,-388.64C540.99,-379.97 546.22,-371.01 551.1,-362.64"/>
<polygon fill="black" stroke="black" points="554.62,-364.55 556.64,-354.15 548.57,-361.03 554.62,-364.55"/>
</g>
<!-- 0335fe10&#45;d741&#45;11ee&#45;8d3f&#45;04cf4b795879 -->
<g id="node15" class="node">
<title>0335fe10&#45;d741&#45;11ee&#45;8d3f&#45;04cf4b795879</title>
<ellipse fill="none" stroke="black" cx="384.98" cy="-241.4" rx="50.84" ry="18"/>
<text text-anchor="middle" x="384.98" y="-236.35" font-family="Times,serif" font-size="14.00">r_2: level2</text>
</g>
<!-- 0335fae6&#45;d741&#45;11ee&#45;8d3f&#45;04cf4b795879&#45;&gt;0335fe10&#45;d741&#45;11ee&#45;8d3f&#45;04cf4b795879 -->
<g id="edge14" class="edge">
<title>0335fae6&#45;d741&#45;11ee&#45;8d3f&#45;04cf4b795879&#45;&gt;0335fe10&#45;d741&#45;11ee&#45;8d3f&#45;04cf4b795879</title>
<path fill="none" stroke="black" d="M423.99,-294.9C417.37,-285.99 410.1,-276.21 403.65,-267.53"/>
<polygon fill="black" stroke="black" points="406.06,-265.91 397.29,-259.97 400.44,-270.08 406.06,-265.91"/>
</g>
<!-- 0336014e&#45;d741&#45;11ee&#45;8d3f&#45;04cf4b795879 -->
<g id="node17" class="node">
<title>0336014e&#45;d741&#45;11ee&#45;8d3f&#45;04cf4b795879</title>
<ellipse fill="none" stroke="black" cx="516.98" cy="-241.4" rx="50.84" ry="18"/>
<text text-anchor="middle" x="516.98" y="-236.35" font-family="Times,serif" font-size="14.00">r_4: level2</text>
</g>
<!-- 0335fae6&#45;d741&#45;11ee&#45;8d3f&#45;04cf4b795879&#45;&gt;0336014e&#45;d741&#45;11ee&#45;8d3f&#45;04cf4b795879 -->
<g id="edge16" class="edge">
<title>0335fae6&#45;d741&#45;11ee&#45;8d3f&#45;04cf4b795879&#45;&gt;0336014e&#45;d741&#45;11ee&#45;8d3f&#45;04cf4b795879</title>
<path fill="none" stroke="black" d="M470.16,-294.9C478.27,-285.81 487.19,-275.8 495.05,-266.99"/>
<polygon fill="black" stroke="black" points="497.16,-269.76 501.2,-259.97 491.93,-265.1 497.16,-269.76"/>
</g>
<!-- 0335ffd2&#45;d741&#45;11ee&#45;8d3f&#45;04cf4b795879 -->
<g id="node16" class="node">
<title>0335ffd2&#45;d741&#45;11ee&#45;8d3f&#45;04cf4b795879</title>
<polygon fill="none" stroke="black" points="436.11,-140.45 398.04,-187.4 321.91,-187.4 283.84,-140.45 321.91,-93.5 398.04,-93.5 436.11,-140.45"/>
<text text-anchor="middle" x="359.98" y="-151.9" font-family="Times,serif" font-size="14.00">rp_22: level2 </text>
<text text-anchor="middle" x="359.98" y="-135.4" font-family="Times,serif" font-size="14.00"> inform_head </text>
<text text-anchor="middle" x="359.98" y="-118.9" font-family="Times,serif" font-size="14.00"> cost : 11</text>
</g>
<!-- 0335fe10&#45;d741&#45;11ee&#45;8d3f&#45;04cf4b795879&#45;&gt;0335ffd2&#45;d741&#45;11ee&#45;8d3f&#45;04cf4b795879 -->
<g id="edge15" class="edge">
<title>0335fe10&#45;d741&#45;11ee&#45;8d3f&#45;04cf4b795879&#45;&gt;0335ffd2&#45;d741&#45;11ee&#45;8d3f&#45;04cf4b795879</title>
<path fill="none" stroke="black" d="M380.62,-223.16C378.83,-216.08 376.65,-207.43 374.38,-198.45"/>
<polygon fill="black" stroke="black" points="377.53,-197.66 371.69,-188.82 370.75,-199.37 377.53,-197.66"/>
</g>
<!-- 0336034c&#45;d741&#45;11ee&#45;8d3f&#45;04cf4b795879 -->
<g id="node18" class="node">
<title>0336034c&#45;d741&#45;11ee&#45;8d3f&#45;04cf4b795879</title>
<polygon fill="none" stroke="black" points="606.11,-140.45 568.04,-187.4 491.91,-187.4 453.84,-140.45 491.91,-93.5 568.04,-93.5 606.11,-140.45"/>
<text text-anchor="middle" x="529.98" y="-151.9" font-family="Times,serif" font-size="14.00">rp_22: level2 </text>
<text text-anchor="middle" x="529.98" y="-135.4" font-family="Times,serif" font-size="14.00"> inform_head </text>
<text text-anchor="middle" x="529.98" y="-118.9" font-family="Times,serif" font-size="14.00"> cost : 92</text>
</g>
<!-- 0336014e&#45;d741&#45;11ee&#45;8d3f&#45;04cf4b795879&#45;&gt;0336034c&#45;d741&#45;11ee&#45;8d3f&#45;04cf4b795879 -->
<g id="edge17" class="edge">
<title>0336014e&#45;d741&#45;11ee&#45;8d3f&#45;04cf4b795879&#45;&gt;0336034c&#45;d741&#45;11ee&#45;8d3f&#45;04cf4b795879</title>
<path fill="none" stroke="black" d="M519.24,-223.16C520.17,-216.08 521.31,-207.43 522.49,-198.45"/>
<polygon fill="black" stroke="black" points="526.05,-199.19 523.88,-188.82 519.11,-198.28 526.05,-199.19"/>
</g>
<!-- 033604b4&#45;d741&#45;11ee&#45;8d3f&#45;04cf4b795879 -->
<g id="node19" class="node">
<title>033604b4&#45;d741&#45;11ee&#45;8d3f&#45;04cf4b795879</title>
<polygon fill="none" stroke="black" points="522.23,-57.5 375.73,-57.5 375.73,0 522.23,0 522.23,-57.5"/>
<text text-anchor="middle" x="448.98" y="-40.2" font-family="Times,serif" font-size="14.00">r0: four_eyes_principle </text>
<text text-anchor="middle" x="448.98" y="-23.7" font-family="Times,serif" font-size="14.00"> Type: insert </text>
<text text-anchor="middle" x="448.98" y="-7.2" font-family="Times,serif" font-size="14.00"> Direction: parallel</text>
</g>
<!-- 0336034c&#45;d741&#45;11ee&#45;8d3f&#45;04cf4b795879&#45;&gt;033604b4&#45;d741&#45;11ee&#45;8d3f&#45;04cf4b795879 -->
<g id="edge18" class="edge">
<title>0336034c&#45;d741&#45;11ee&#45;8d3f&#45;04cf4b795879&#45;&gt;033604b4&#45;d741&#45;11ee&#45;8d3f&#45;04cf4b795879</title>
<path fill="none" stroke="black" d="M495.86,-93.24C489.25,-84.29 482.41,-75.02 476.06,-66.43"/>
<polygon fill="black" stroke="black" points="478.41,-64.72 469.65,-58.75 472.78,-68.88 478.41,-64.72"/>
</g>
<!-- 03360658&#45;d741&#45;11ee&#45;8d3f&#45;04cf4b795879 -->
<g id="node20" class="node">
<title>03360658&#45;d741&#45;11ee&#45;8d3f&#45;04cf4b795879</title>
<polygon fill="none" stroke="black" points="681.6,-57.5 540.35,-57.5 540.35,0 681.6,0 681.6,-57.5"/>
<text text-anchor="middle" x="610.98" y="-40.2" font-family="Times,serif" font-size="14.00">r0: head_confirmation </text>
<text text-anchor="middle" x="610.98" y="-23.7" font-family="Times,serif" font-size="14.00"> Type: replace </text>
<text text-anchor="middle" x="610.98" y="-7.2" font-family="Times,serif" font-size="14.00"> Direction: Core</text>
</g>
<!-- 0336034c&#45;d741&#45;11ee&#45;8d3f&#45;04cf4b795879&#45;&gt;03360658&#45;d741&#45;11ee&#45;8d3f&#45;04cf4b795879 -->
<g id="edge19" class="edge">
<title>0336034c&#45;d741&#45;11ee&#45;8d3f&#45;04cf4b795879&#45;&gt;03360658&#45;d741&#45;11ee&#45;8d3f&#45;04cf4b795879</title>
<path fill="none" stroke="black" d="M564.09,-93.24C570.7,-84.29 577.55,-75.02 583.89,-66.43"/>
<polygon fill="black" stroke="black" points="587.17,-68.88 590.3,-58.75 581.54,-64.72 587.17,-68.88"/>
</g>
<!-- 03360b30&#45;d741&#45;11ee&#45;8d3f&#45;04cf4b795879 -->
<g id="node23" class="node">
<title>03360b30&#45;d741&#45;11ee&#45;8d3f&#45;04cf4b795879</title>
<polygon fill="none" stroke="black" points="755.11,-435.85 717.04,-482.79 640.91,-482.79 602.84,-435.85 640.91,-388.9 717.04,-388.9 755.11,-435.85"/>
<text text-anchor="middle" x="678.98" y="-447.3" font-family="Times,serif" font-size="14.00">rp_20: level2 </text>
<text text-anchor="middle" x="678.98" y="-430.8" font-family="Times,serif" font-size="14.00"> data_support </text>
<text text-anchor="middle" x="678.98" y="-414.3" font-family="Times,serif" font-size="14.00"> cost : 24</text>
</g>
<!-- 03360982&#45;d741&#45;11ee&#45;8d3f&#45;04cf4b795879&#45;&gt;03360b30&#45;d741&#45;11ee&#45;8d3f&#45;04cf4b795879 -->
<g id="edge22" class="edge">
<title>03360982&#45;d741&#45;11ee&#45;8d3f&#45;04cf4b795879&#45;&gt;03360b30&#45;d741&#45;11ee&#45;8d3f&#45;04cf4b795879</title>
<path fill="none" stroke="black" d="M668.24,-518.56C669.17,-511.47 670.31,-502.83 671.49,-493.84"/>
<polygon fill="black" stroke="black" points="675.05,-494.59 672.88,-484.21 668.11,-493.67 675.05,-494.59"/>
</g>
<!-- 03360e46&#45;d741&#45;11ee&#45;8d3f&#45;04cf4b795879 -->
<g id="node25" class="node">
<title>03360e46&#45;d741&#45;11ee&#45;8d3f&#45;04cf4b795879</title>
<polygon fill="none" stroke="black" points="851.95,-731.24 812.96,-778.19 734.99,-778.19 696,-731.24 734.99,-684.29 812.96,-684.29 851.95,-731.24"/>
<text text-anchor="middle" x="773.98" y="-742.69" font-family="Times,serif" font-size="14.00">rp_14: level3 </text>
<text text-anchor="middle" x="773.98" y="-726.19" font-family="Times,serif" font-size="14.00"> evaluate_risk </text>
<text text-anchor="middle" x="773.98" y="-709.69" font-family="Times,serif" font-size="14.00"> cost : 16</text>
</g>
<!-- 03360c98&#45;d741&#45;11ee&#45;8d3f&#45;04cf4b795879&#45;&gt;03360e46&#45;d741&#45;11ee&#45;8d3f&#45;04cf4b795879 -->
<g id="edge24" class="edge">
<title>03360c98&#45;d741&#45;11ee&#45;8d3f&#45;04cf4b795879&#45;&gt;03360e46&#45;d741&#45;11ee&#45;8d3f&#45;04cf4b795879</title>
<path fill="none" stroke="black" d="M740.12,-813.96C743.12,-806.72 746.79,-797.85 750.6,-788.65"/>
<polygon fill="black" stroke="black" points="754.17,-790.19 754.76,-779.61 747.7,-787.51 754.17,-790.19"/>
</g>
</g>
</svg>
