<?xml version="1.0" encoding="UTF-8" standalone="no"?>
<!DOCTYPE svg PUBLIC "-//W3C//DTD SVG 1.1//EN"
 "http://www.w3.org/Graphics/SVG/1.1/DTD/svg11.dtd">
<!-- Generated by graphviz version 7.1.0 (0)
 -->
<!-- Title: CallTree Pages: 1 -->
<svg width="865pt" height="912pt"
 viewBox="0.00 0.00 864.77 911.65" xmlns="http://www.w3.org/2000/svg" xmlns:xlink="http://www.w3.org/1999/xlink">
<g id="graph0" class="graph" transform="scale(1 1) rotate(0) translate(4 907.65)">
<title>CallTree</title>
<polygon fill="white" stroke="none" points="-4,4 -4,-907.65 860.77,-907.65 860.77,4 -4,4"/>
<!-- 65caa3c8&#45;d7dc&#45;11ee&#45;9025&#45;ac1a3ddd05c7 -->
<g id="node1" class="node">
<title>65caa3c8&#45;d7dc&#45;11ee&#45;9025&#45;ac1a3ddd05c7</title>
<polygon fill="none" stroke="black" points="484.88,-903.65 371.88,-903.65 371.88,-850.65 484.88,-850.65 484.88,-903.65"/>
<text text-anchor="middle" x="428.38" y="-888.45" font-family="Times,serif" font-size="14.00">a3: evaluate_risk </text>
<text text-anchor="middle" x="428.38" y="-873.45" font-family="Times,serif" font-size="14.00"> Type: Core </text>
<text text-anchor="middle" x="428.38" y="-858.45" font-family="Times,serif" font-size="14.00"> Direction: Core</text>
</g>
<!-- 65cab3c2&#45;d7dc&#45;11ee&#45;9025&#45;ac1a3ddd05c7 -->
<g id="node2" class="node">
<title>65cab3c2&#45;d7dc&#45;11ee&#45;9025&#45;ac1a3ddd05c7</title>
<ellipse fill="none" stroke="black" cx="138.38" cy="-796.65" rx="48.99" ry="18"/>
<text text-anchor="middle" x="138.38" y="-792.95" font-family="Times,serif" font-size="14.00">r_1: level1</text>
</g>
<!-- 65caa3c8&#45;d7dc&#45;11ee&#45;9025&#45;ac1a3ddd05c7&#45;&gt;65cab3c2&#45;d7dc&#45;11ee&#45;9025&#45;ac1a3ddd05c7 -->
<g id="edge1" class="edge">
<title>65caa3c8&#45;d7dc&#45;11ee&#45;9025&#45;ac1a3ddd05c7&#45;&gt;65cab3c2&#45;d7dc&#45;11ee&#45;9025&#45;ac1a3ddd05c7</title>
<path fill="none" stroke="black" d="M371.44,-860.73C318.07,-846.28 239.09,-824.91 188.18,-811.12"/>
<polygon fill="black" stroke="black" points="189.16,-807.76 178.59,-808.53 187.33,-814.52 189.16,-807.76"/>
</g>
<!-- 65caba2a&#45;d7dc&#45;11ee&#45;9025&#45;ac1a3ddd05c7 -->
<g id="node4" class="node">
<title>65caba2a&#45;d7dc&#45;11ee&#45;9025&#45;ac1a3ddd05c7</title>
<ellipse fill="none" stroke="black" cx="283.38" cy="-796.65" rx="48.99" ry="18"/>
<text text-anchor="middle" x="283.38" y="-792.95" font-family="Times,serif" font-size="14.00">r_2: level2</text>
</g>
<!-- 65caa3c8&#45;d7dc&#45;11ee&#45;9025&#45;ac1a3ddd05c7&#45;&gt;65caba2a&#45;d7dc&#45;11ee&#45;9025&#45;ac1a3ddd05c7 -->
<g id="edge3" class="edge">
<title>65caa3c8&#45;d7dc&#45;11ee&#45;9025&#45;ac1a3ddd05c7&#45;&gt;65caba2a&#45;d7dc&#45;11ee&#45;9025&#45;ac1a3ddd05c7</title>
<path fill="none" stroke="black" d="M380.5,-850.22C360.83,-839.57 338.41,-827.43 320.07,-817.51"/>
<polygon fill="black" stroke="black" points="321.86,-814.5 311.4,-812.81 318.53,-820.65 321.86,-814.5"/>
</g>
<!-- 65cac2f4&#45;d7dc&#45;11ee&#45;9025&#45;ac1a3ddd05c7 -->
<g id="node7" class="node">
<title>65cac2f4&#45;d7dc&#45;11ee&#45;9025&#45;ac1a3ddd05c7</title>
<ellipse fill="none" stroke="black" cx="428.38" cy="-796.65" rx="48.99" ry="18"/>
<text text-anchor="middle" x="428.38" y="-792.95" font-family="Times,serif" font-size="14.00">r_4: level2</text>
</g>
<!-- 65caa3c8&#45;d7dc&#45;11ee&#45;9025&#45;ac1a3ddd05c7&#45;&gt;65cac2f4&#45;d7dc&#45;11ee&#45;9025&#45;ac1a3ddd05c7 -->
<g id="edge6" class="edge">
<title>65caa3c8&#45;d7dc&#45;11ee&#45;9025&#45;ac1a3ddd05c7&#45;&gt;65cac2f4&#45;d7dc&#45;11ee&#45;9025&#45;ac1a3ddd05c7</title>
<path fill="none" stroke="black" d="M428.38,-850.44C428.38,-842.72 428.38,-834.2 428.38,-826.31"/>
<polygon fill="black" stroke="black" points="431.88,-826.49 428.38,-816.49 424.88,-826.49 431.88,-826.49"/>
</g>
<!-- 65cac88a&#45;d7dc&#45;11ee&#45;9025&#45;ac1a3ddd05c7 -->
<g id="node9" class="node">
<title>65cac88a&#45;d7dc&#45;11ee&#45;9025&#45;ac1a3ddd05c7</title>
<ellipse fill="none" stroke="black" cx="573.38" cy="-796.65" rx="48.99" ry="18"/>
<text text-anchor="middle" x="573.38" y="-792.95" font-family="Times,serif" font-size="14.00">r_3: level3</text>
</g>
<!-- 65caa3c8&#45;d7dc&#45;11ee&#45;9025&#45;ac1a3ddd05c7&#45;&gt;65cac88a&#45;d7dc&#45;11ee&#45;9025&#45;ac1a3ddd05c7 -->
<g id="edge8" class="edge">
<title>65caa3c8&#45;d7dc&#45;11ee&#45;9025&#45;ac1a3ddd05c7&#45;&gt;65cac88a&#45;d7dc&#45;11ee&#45;9025&#45;ac1a3ddd05c7</title>
<path fill="none" stroke="black" d="M476.26,-850.22C495.94,-839.57 518.36,-827.43 536.7,-817.51"/>
<polygon fill="black" stroke="black" points="538.24,-820.65 545.37,-812.81 534.9,-814.5 538.24,-820.65"/>
</g>
<!-- 65caf742&#45;d7dc&#45;11ee&#45;9025&#45;ac1a3ddd05c7 -->
<g id="node24" class="node">
<title>65caf742&#45;d7dc&#45;11ee&#45;9025&#45;ac1a3ddd05c7</title>
<ellipse fill="none" stroke="black" cx="733.38" cy="-796.65" rx="48.99" ry="18"/>
<text text-anchor="middle" x="733.38" y="-792.95" font-family="Times,serif" font-size="14.00">r_5: level3</text>
</g>
<!-- 65caa3c8&#45;d7dc&#45;11ee&#45;9025&#45;ac1a3ddd05c7&#45;&gt;65caf742&#45;d7dc&#45;11ee&#45;9025&#45;ac1a3ddd05c7 -->
<g id="edge23" class="edge">
<title>65caa3c8&#45;d7dc&#45;11ee&#45;9025&#45;ac1a3ddd05c7&#45;&gt;65caf742&#45;d7dc&#45;11ee&#45;9025&#45;ac1a3ddd05c7</title>
<path fill="none" stroke="black" d="M485.04,-861.56C541.81,-846.95 628.39,-824.67 682.88,-810.64"/>
<polygon fill="black" stroke="black" points="683.72,-814.04 692.54,-808.16 681.98,-807.26 683.72,-814.04"/>
</g>
<!-- 65cab782&#45;d7dc&#45;11ee&#45;9025&#45;ac1a3ddd05c7 -->
<g id="node3" class="node">
<title>65cab782&#45;d7dc&#45;11ee&#45;9025&#45;ac1a3ddd05c7</title>
<polygon fill="none" stroke="black" points="156.65,-699.37 117.52,-742.42 39.25,-742.42 0.12,-699.37 39.25,-656.32 117.52,-656.32 156.65,-699.37"/>
<text text-anchor="middle" x="78.38" y="-710.67" font-family="Times,serif" font-size="14.00">rp_3: level1 </text>
<text text-anchor="middle" x="78.38" y="-695.67" font-family="Times,serif" font-size="14.00"> evaluate_risk </text>
<text text-anchor="middle" x="78.38" y="-680.67" font-family="Times,serif" font-size="14.00"> cost : 50</text>
</g>
<!-- 65cab3c2&#45;d7dc&#45;11ee&#45;9025&#45;ac1a3ddd05c7&#45;&gt;65cab782&#45;d7dc&#45;11ee&#45;9025&#45;ac1a3ddd05c7 -->
<g id="edge2" class="edge">
<title>65cab3c2&#45;d7dc&#45;11ee&#45;9025&#45;ac1a3ddd05c7&#45;&gt;65cab782&#45;d7dc&#45;11ee&#45;9025&#45;ac1a3ddd05c7</title>
<path fill="none" stroke="black" d="M127.66,-778.61C122.9,-771.07 117.03,-761.74 111.02,-752.19"/>
<polygon fill="black" stroke="black" points="114.09,-750.5 105.8,-743.9 108.17,-754.23 114.09,-750.5"/>
</g>
<!-- 65cabcc8&#45;d7dc&#45;11ee&#45;9025&#45;ac1a3ddd05c7 -->
<g id="node5" class="node">
<title>65cabcc8&#45;d7dc&#45;11ee&#45;9025&#45;ac1a3ddd05c7</title>
<polygon fill="none" stroke="black" points="331.65,-699.37 292.52,-742.42 214.25,-742.42 175.12,-699.37 214.25,-656.32 292.52,-656.32 331.65,-699.37"/>
<text text-anchor="middle" x="253.38" y="-710.67" font-family="Times,serif" font-size="14.00">rp_8: level2 </text>
<text text-anchor="middle" x="253.38" y="-695.67" font-family="Times,serif" font-size="14.00"> evaluate_risk </text>
<text text-anchor="middle" x="253.38" y="-680.67" font-family="Times,serif" font-size="14.00"> cost : 10</text>
</g>
<!-- 65caba2a&#45;d7dc&#45;11ee&#45;9025&#45;ac1a3ddd05c7&#45;&gt;65cabcc8&#45;d7dc&#45;11ee&#45;9025&#45;ac1a3ddd05c7 -->
<g id="edge4" class="edge">
<title>65caba2a&#45;d7dc&#45;11ee&#45;9025&#45;ac1a3ddd05c7&#45;&gt;65cabcc8&#45;d7dc&#45;11ee&#45;9025&#45;ac1a3ddd05c7</title>
<path fill="none" stroke="black" d="M278.02,-778.61C275.74,-771.38 272.95,-762.52 270.08,-753.38"/>
<polygon fill="black" stroke="black" points="273.48,-752.55 267.14,-744.07 266.81,-754.66 273.48,-752.55"/>
</g>
<!-- 65cabf20&#45;d7dc&#45;11ee&#45;9025&#45;ac1a3ddd05c7 -->
<g id="node6" class="node">
<title>65cabf20&#45;d7dc&#45;11ee&#45;9025&#45;ac1a3ddd05c7</title>
<polygon fill="none" stroke="black" points="312.88,-620.1 193.88,-620.1 193.88,-567.1 312.88,-567.1 312.88,-620.1"/>
<text text-anchor="middle" x="253.38" y="-604.9" font-family="Times,serif" font-size="14.00">r0: inform_head </text>
<text text-anchor="middle" x="253.38" y="-589.9" font-family="Times,serif" font-size="14.00"> Type: insert </text>
<text text-anchor="middle" x="253.38" y="-574.9" font-family="Times,serif" font-size="14.00"> Direction: parallel</text>
</g>
<!-- 65cabcc8&#45;d7dc&#45;11ee&#45;9025&#45;ac1a3ddd05c7&#45;&gt;65cabf20&#45;d7dc&#45;11ee&#45;9025&#45;ac1a3ddd05c7 -->
<g id="edge5" class="edge">
<title>65cabcc8&#45;d7dc&#45;11ee&#45;9025&#45;ac1a3ddd05c7&#45;&gt;65cabf20&#45;d7dc&#45;11ee&#45;9025&#45;ac1a3ddd05c7</title>
<path fill="none" stroke="black" d="M253.38,-655.86C253.38,-647.91 253.38,-639.65 253.38,-631.87"/>
<polygon fill="black" stroke="black" points="256.88,-632.04 253.38,-622.04 249.88,-632.04 256.88,-632.04"/>
</g>
<!-- 65cac5b0&#45;d7dc&#45;11ee&#45;9025&#45;ac1a3ddd05c7 -->
<g id="node8" class="node">
<title>65cac5b0&#45;d7dc&#45;11ee&#45;9025&#45;ac1a3ddd05c7</title>
<polygon fill="none" stroke="black" points="506.65,-699.37 467.52,-742.42 389.25,-742.42 350.12,-699.37 389.25,-656.32 467.52,-656.32 506.65,-699.37"/>
<text text-anchor="middle" x="428.38" y="-710.67" font-family="Times,serif" font-size="14.00">rp_8: level2 </text>
<text text-anchor="middle" x="428.38" y="-695.67" font-family="Times,serif" font-size="14.00"> evaluate_risk </text>
<text text-anchor="middle" x="428.38" y="-680.67" font-family="Times,serif" font-size="14.00"> cost : 45</text>
</g>
<!-- 65cac2f4&#45;d7dc&#45;11ee&#45;9025&#45;ac1a3ddd05c7&#45;&gt;65cac5b0&#45;d7dc&#45;11ee&#45;9025&#45;ac1a3ddd05c7 -->
<g id="edge7" class="edge">
<title>65cac2f4&#45;d7dc&#45;11ee&#45;9025&#45;ac1a3ddd05c7&#45;&gt;65cac5b0&#45;d7dc&#45;11ee&#45;9025&#45;ac1a3ddd05c7</title>
<path fill="none" stroke="black" d="M428.38,-778.17C428.38,-771.22 428.38,-762.82 428.38,-754.14"/>
<polygon fill="black" stroke="black" points="431.88,-754.19 428.38,-744.19 424.88,-754.19 431.88,-754.19"/>
</g>
<!-- 65cacb1e&#45;d7dc&#45;11ee&#45;9025&#45;ac1a3ddd05c7 -->
<g id="node10" class="node">
<title>65cacb1e&#45;d7dc&#45;11ee&#45;9025&#45;ac1a3ddd05c7</title>
<polygon fill="none" stroke="black" points="681.65,-699.37 642.52,-742.42 564.25,-742.42 525.12,-699.37 564.25,-656.32 642.52,-656.32 681.65,-699.37"/>
<text text-anchor="middle" x="603.38" y="-710.67" font-family="Times,serif" font-size="14.00">rp_14: level3 </text>
<text text-anchor="middle" x="603.38" y="-695.67" font-family="Times,serif" font-size="14.00"> evaluate_risk </text>
<text text-anchor="middle" x="603.38" y="-680.67" font-family="Times,serif" font-size="14.00"> cost : 21</text>
</g>
<!-- 65cac88a&#45;d7dc&#45;11ee&#45;9025&#45;ac1a3ddd05c7&#45;&gt;65cacb1e&#45;d7dc&#45;11ee&#45;9025&#45;ac1a3ddd05c7 -->
<g id="edge9" class="edge">
<title>65cac88a&#45;d7dc&#45;11ee&#45;9025&#45;ac1a3ddd05c7&#45;&gt;65cacb1e&#45;d7dc&#45;11ee&#45;9025&#45;ac1a3ddd05c7</title>
<path fill="none" stroke="black" d="M578.75,-778.61C581.02,-771.38 583.82,-762.52 586.69,-753.38"/>
<polygon fill="black" stroke="black" points="589.96,-754.66 589.62,-744.07 583.28,-752.55 589.96,-754.66"/>
</g>
<!-- 65cacd58&#45;d7dc&#45;11ee&#45;9025&#45;ac1a3ddd05c7 -->
<g id="node11" class="node">
<title>65cacd58&#45;d7dc&#45;11ee&#45;9025&#45;ac1a3ddd05c7</title>
<polygon fill="none" stroke="black" points="657.88,-620.1 548.88,-620.1 548.88,-567.1 657.88,-567.1 657.88,-620.1"/>
<text text-anchor="middle" x="603.38" y="-604.9" font-family="Times,serif" font-size="14.00">r0: data_support </text>
<text text-anchor="middle" x="603.38" y="-589.9" font-family="Times,serif" font-size="14.00"> Type: insert </text>
<text text-anchor="middle" x="603.38" y="-574.9" font-family="Times,serif" font-size="14.00"> Direction: after</text>
</g>
<!-- 65cacb1e&#45;d7dc&#45;11ee&#45;9025&#45;ac1a3ddd05c7&#45;&gt;65cacd58&#45;d7dc&#45;11ee&#45;9025&#45;ac1a3ddd05c7 -->
<g id="edge10" class="edge">
<title>65cacb1e&#45;d7dc&#45;11ee&#45;9025&#45;ac1a3ddd05c7&#45;&gt;65cacd58&#45;d7dc&#45;11ee&#45;9025&#45;ac1a3ddd05c7</title>
<path fill="none" stroke="black" d="M603.38,-655.86C603.38,-647.91 603.38,-639.65 603.38,-631.87"/>
<polygon fill="black" stroke="black" points="606.88,-632.04 603.38,-622.04 599.88,-632.04 606.88,-632.04"/>
</g>
<!-- 65cad406&#45;d7dc&#45;11ee&#45;9025&#45;ac1a3ddd05c7 -->
<g id="node12" class="node">
<title>65cad406&#45;d7dc&#45;11ee&#45;9025&#45;ac1a3ddd05c7</title>
<ellipse fill="none" stroke="black" cx="539.38" cy="-513.1" rx="48.99" ry="18"/>
<text text-anchor="middle" x="539.38" y="-509.4" font-family="Times,serif" font-size="14.00">r_2: level2</text>
</g>
<!-- 65cacd58&#45;d7dc&#45;11ee&#45;9025&#45;ac1a3ddd05c7&#45;&gt;65cad406&#45;d7dc&#45;11ee&#45;9025&#45;ac1a3ddd05c7 -->
<g id="edge11" class="edge">
<title>65cacd58&#45;d7dc&#45;11ee&#45;9025&#45;ac1a3ddd05c7&#45;&gt;65cad406&#45;d7dc&#45;11ee&#45;9025&#45;ac1a3ddd05c7</title>
<path fill="none" stroke="black" d="M582.43,-566.89C575.18,-558 567.06,-548.05 559.85,-539.2"/>
<polygon fill="black" stroke="black" points="562.72,-537.19 553.69,-531.65 557.3,-541.61 562.72,-537.19"/>
</g>
<!-- 65caf210&#45;d7dc&#45;11ee&#45;9025&#45;ac1a3ddd05c7 -->
<g id="node22" class="node">
<title>65caf210&#45;d7dc&#45;11ee&#45;9025&#45;ac1a3ddd05c7</title>
<ellipse fill="none" stroke="black" cx="668.38" cy="-513.1" rx="48.99" ry="18"/>
<text text-anchor="middle" x="668.38" y="-509.4" font-family="Times,serif" font-size="14.00">r_4: level2</text>
</g>
<!-- 65cacd58&#45;d7dc&#45;11ee&#45;9025&#45;ac1a3ddd05c7&#45;&gt;65caf210&#45;d7dc&#45;11ee&#45;9025&#45;ac1a3ddd05c7 -->
<g id="edge21" class="edge">
<title>65cacd58&#45;d7dc&#45;11ee&#45;9025&#45;ac1a3ddd05c7&#45;&gt;65caf210&#45;d7dc&#45;11ee&#45;9025&#45;ac1a3ddd05c7</title>
<path fill="none" stroke="black" d="M624.67,-566.89C632.03,-558 640.27,-548.05 647.6,-539.2"/>
<polygon fill="black" stroke="black" points="650.17,-541.58 653.86,-531.64 644.78,-537.11 650.17,-541.58"/>
</g>
<!-- 65cad6b8&#45;d7dc&#45;11ee&#45;9025&#45;ac1a3ddd05c7 -->
<g id="node13" class="node">
<title>65cad6b8&#45;d7dc&#45;11ee&#45;9025&#45;ac1a3ddd05c7</title>
<polygon fill="none" stroke="black" points="587.89,-415.82 549.63,-458.87 473.13,-458.87 434.88,-415.82 473.13,-372.77 549.63,-372.77 587.89,-415.82"/>
<text text-anchor="middle" x="511.38" y="-427.12" font-family="Times,serif" font-size="14.00">rp_20: level2 </text>
<text text-anchor="middle" x="511.38" y="-412.12" font-family="Times,serif" font-size="14.00"> data_support </text>
<text text-anchor="middle" x="511.38" y="-397.12" font-family="Times,serif" font-size="14.00"> cost : 1</text>
</g>
<!-- 65cad406&#45;d7dc&#45;11ee&#45;9025&#45;ac1a3ddd05c7&#45;&gt;65cad6b8&#45;d7dc&#45;11ee&#45;9025&#45;ac1a3ddd05c7 -->
<g id="edge12" class="edge">
<title>65cad406&#45;d7dc&#45;11ee&#45;9025&#45;ac1a3ddd05c7&#45;&gt;65cad6b8&#45;d7dc&#45;11ee&#45;9025&#45;ac1a3ddd05c7</title>
<path fill="none" stroke="black" d="M534.38,-495.06C532.25,-487.83 529.65,-478.97 526.96,-469.84"/>
<polygon fill="black" stroke="black" points="530.41,-469.13 524.23,-460.53 523.69,-471.11 530.41,-469.13"/>
</g>
<!-- 65cad906&#45;d7dc&#45;11ee&#45;9025&#45;ac1a3ddd05c7 -->
<g id="node14" class="node">
<title>65cad906&#45;d7dc&#45;11ee&#45;9025&#45;ac1a3ddd05c7</title>
<polygon fill="none" stroke="black" points="503.88,-336.55 390.88,-336.55 390.88,-283.55 503.88,-283.55 503.88,-336.55"/>
<text text-anchor="middle" x="447.38" y="-321.35" font-family="Times,serif" font-size="14.00">r0: inform_head </text>
<text text-anchor="middle" x="447.38" y="-306.35" font-family="Times,serif" font-size="14.00"> Type: insert </text>
<text text-anchor="middle" x="447.38" y="-291.35" font-family="Times,serif" font-size="14.00"> Direction: before</text>
</g>
<!-- 65cad6b8&#45;d7dc&#45;11ee&#45;9025&#45;ac1a3ddd05c7&#45;&gt;65cad906&#45;d7dc&#45;11ee&#45;9025&#45;ac1a3ddd05c7 -->
<g id="edge13" class="edge">
<title>65cad6b8&#45;d7dc&#45;11ee&#45;9025&#45;ac1a3ddd05c7&#45;&gt;65cad906&#45;d7dc&#45;11ee&#45;9025&#45;ac1a3ddd05c7</title>
<path fill="none" stroke="black" d="M485.17,-372.31C479.92,-363.8 474.45,-354.93 469.36,-346.68"/>
<polygon fill="black" stroke="black" points="472.4,-344.94 464.17,-338.27 466.44,-348.62 472.4,-344.94"/>
</g>
<!-- 65caeefa&#45;d7dc&#45;11ee&#45;9025&#45;ac1a3ddd05c7 -->
<g id="node21" class="node">
<title>65caeefa&#45;d7dc&#45;11ee&#45;9025&#45;ac1a3ddd05c7</title>
<polygon fill="none" stroke="black" points="628.88,-336.55 521.88,-336.55 521.88,-283.55 628.88,-283.55 628.88,-336.55"/>
<text text-anchor="middle" x="575.38" y="-321.35" font-family="Times,serif" font-size="14.00">r0: design_offer </text>
<text text-anchor="middle" x="575.38" y="-306.35" font-family="Times,serif" font-size="14.00"> Type: delete </text>
<text text-anchor="middle" x="575.38" y="-291.35" font-family="Times,serif" font-size="14.00"> Direction: any</text>
</g>
<!-- 65cad6b8&#45;d7dc&#45;11ee&#45;9025&#45;ac1a3ddd05c7&#45;&gt;65caeefa&#45;d7dc&#45;11ee&#45;9025&#45;ac1a3ddd05c7 -->
<g id="edge20" class="edge">
<title>65cad6b8&#45;d7dc&#45;11ee&#45;9025&#45;ac1a3ddd05c7&#45;&gt;65caeefa&#45;d7dc&#45;11ee&#45;9025&#45;ac1a3ddd05c7</title>
<path fill="none" stroke="black" d="M537.6,-372.31C542.85,-363.8 548.32,-354.93 553.41,-346.68"/>
<polygon fill="black" stroke="black" points="556.33,-348.62 558.6,-338.27 550.37,-344.94 556.33,-348.62"/>
</g>
<!-- 65cade06&#45;d7dc&#45;11ee&#45;9025&#45;ac1a3ddd05c7 -->
<g id="node15" class="node">
<title>65cade06&#45;d7dc&#45;11ee&#45;9025&#45;ac1a3ddd05c7</title>
<ellipse fill="none" stroke="black" cx="390.38" cy="-229.55" rx="48.99" ry="18"/>
<text text-anchor="middle" x="390.38" y="-225.85" font-family="Times,serif" font-size="14.00">r_2: level2</text>
</g>
<!-- 65cad906&#45;d7dc&#45;11ee&#45;9025&#45;ac1a3ddd05c7&#45;&gt;65cade06&#45;d7dc&#45;11ee&#45;9025&#45;ac1a3ddd05c7 -->
<g id="edge14" class="edge">
<title>65cad906&#45;d7dc&#45;11ee&#45;9025&#45;ac1a3ddd05c7&#45;&gt;65cade06&#45;d7dc&#45;11ee&#45;9025&#45;ac1a3ddd05c7</title>
<path fill="none" stroke="black" d="M428.72,-283.34C422.49,-274.77 415.55,-265.21 409.3,-256.6"/>
<polygon fill="black" stroke="black" points="412.22,-254.66 403.51,-248.63 406.55,-258.77 412.22,-254.66"/>
</g>
<!-- 65cae2de&#45;d7dc&#45;11ee&#45;9025&#45;ac1a3ddd05c7 -->
<g id="node17" class="node">
<title>65cae2de&#45;d7dc&#45;11ee&#45;9025&#45;ac1a3ddd05c7</title>
<ellipse fill="none" stroke="black" cx="519.38" cy="-229.55" rx="48.99" ry="18"/>
<text text-anchor="middle" x="519.38" y="-225.85" font-family="Times,serif" font-size="14.00">r_4: level2</text>
</g>
<!-- 65cad906&#45;d7dc&#45;11ee&#45;9025&#45;ac1a3ddd05c7&#45;&gt;65cae2de&#45;d7dc&#45;11ee&#45;9025&#45;ac1a3ddd05c7 -->
<g id="edge16" class="edge">
<title>65cad906&#45;d7dc&#45;11ee&#45;9025&#45;ac1a3ddd05c7&#45;&gt;65cae2de&#45;d7dc&#45;11ee&#45;9025&#45;ac1a3ddd05c7</title>
<path fill="none" stroke="black" d="M470.96,-283.34C479.2,-274.36 488.44,-264.29 496.61,-255.37"/>
<polygon fill="black" stroke="black" points="499.16,-257.78 503.34,-248.04 494,-253.05 499.16,-257.78"/>
</g>
<!-- 65cae09a&#45;d7dc&#45;11ee&#45;9025&#45;ac1a3ddd05c7 -->
<g id="node16" class="node">
<title>65cae09a&#45;d7dc&#45;11ee&#45;9025&#45;ac1a3ddd05c7</title>
<polygon fill="none" stroke="black" points="438.89,-132.27 400.63,-175.32 324.13,-175.32 285.88,-132.27 324.13,-89.22 400.63,-89.22 438.89,-132.27"/>
<text text-anchor="middle" x="362.38" y="-143.57" font-family="Times,serif" font-size="14.00">rp_22: level2 </text>
<text text-anchor="middle" x="362.38" y="-128.57" font-family="Times,serif" font-size="14.00"> inform_head </text>
<text text-anchor="middle" x="362.38" y="-113.57" font-family="Times,serif" font-size="14.00"> cost : 11</text>
</g>
<!-- 65cade06&#45;d7dc&#45;11ee&#45;9025&#45;ac1a3ddd05c7&#45;&gt;65cae09a&#45;d7dc&#45;11ee&#45;9025&#45;ac1a3ddd05c7 -->
<g id="edge15" class="edge">
<title>65cade06&#45;d7dc&#45;11ee&#45;9025&#45;ac1a3ddd05c7&#45;&gt;65cae09a&#45;d7dc&#45;11ee&#45;9025&#45;ac1a3ddd05c7</title>
<path fill="none" stroke="black" d="M385.38,-211.52C383.25,-204.28 380.65,-195.42 377.96,-186.29"/>
<polygon fill="black" stroke="black" points="381.41,-185.59 375.23,-176.98 374.69,-187.56 381.41,-185.59"/>
</g>
<!-- 65cae540&#45;d7dc&#45;11ee&#45;9025&#45;ac1a3ddd05c7 -->
<g id="node18" class="node">
<title>65cae540&#45;d7dc&#45;11ee&#45;9025&#45;ac1a3ddd05c7</title>
<polygon fill="none" stroke="black" points="610.89,-132.27 572.63,-175.32 496.13,-175.32 457.88,-132.27 496.13,-89.22 572.63,-89.22 610.89,-132.27"/>
<text text-anchor="middle" x="534.38" y="-143.57" font-family="Times,serif" font-size="14.00">rp_22: level2 </text>
<text text-anchor="middle" x="534.38" y="-128.57" font-family="Times,serif" font-size="14.00"> inform_head </text>
<text text-anchor="middle" x="534.38" y="-113.57" font-family="Times,serif" font-size="14.00"> cost : 92</text>
</g>
<!-- 65cae2de&#45;d7dc&#45;11ee&#45;9025&#45;ac1a3ddd05c7&#45;&gt;65cae540&#45;d7dc&#45;11ee&#45;9025&#45;ac1a3ddd05c7 -->
<g id="edge17" class="edge">
<title>65cae2de&#45;d7dc&#45;11ee&#45;9025&#45;ac1a3ddd05c7&#45;&gt;65cae540&#45;d7dc&#45;11ee&#45;9025&#45;ac1a3ddd05c7</title>
<path fill="none" stroke="black" d="M522.07,-211.52C523.18,-204.44 524.54,-195.8 525.94,-186.88"/>
<polygon fill="black" stroke="black" points="529.4,-187.44 527.5,-177.02 522.48,-186.36 529.4,-187.44"/>
</g>
<!-- 65cae752&#45;d7dc&#45;11ee&#45;9025&#45;ac1a3ddd05c7 -->
<g id="node19" class="node">
<title>65cae752&#45;d7dc&#45;11ee&#45;9025&#45;ac1a3ddd05c7</title>
<polygon fill="none" stroke="black" points="526.88,-53 379.88,-53 379.88,0 526.88,0 526.88,-53"/>
<text text-anchor="middle" x="453.38" y="-37.8" font-family="Times,serif" font-size="14.00">r0: four_eyes_principle </text>
<text text-anchor="middle" x="453.38" y="-22.8" font-family="Times,serif" font-size="14.00"> Type: insert </text>
<text text-anchor="middle" x="453.38" y="-7.8" font-family="Times,serif" font-size="14.00"> Direction: parallel</text>
</g>
<!-- 65cae540&#45;d7dc&#45;11ee&#45;9025&#45;ac1a3ddd05c7&#45;&gt;65cae752&#45;d7dc&#45;11ee&#45;9025&#45;ac1a3ddd05c7 -->
<g id="edge18" class="edge">
<title>65cae540&#45;d7dc&#45;11ee&#45;9025&#45;ac1a3ddd05c7&#45;&gt;65cae752&#45;d7dc&#45;11ee&#45;9025&#45;ac1a3ddd05c7</title>
<path fill="none" stroke="black" d="M501.2,-88.77C494.34,-79.97 487.18,-70.8 480.56,-62.32"/>
<polygon fill="black" stroke="black" points="483.47,-60.35 474.55,-54.62 477.95,-64.66 483.47,-60.35"/>
</g>
<!-- 65caea86&#45;d7dc&#45;11ee&#45;9025&#45;ac1a3ddd05c7 -->
<g id="node20" class="node">
<title>65caea86&#45;d7dc&#45;11ee&#45;9025&#45;ac1a3ddd05c7</title>
<polygon fill="none" stroke="black" points="687.38,-53 545.38,-53 545.38,0 687.38,0 687.38,-53"/>
<text text-anchor="middle" x="616.38" y="-37.8" font-family="Times,serif" font-size="14.00">r0: head_confirmation </text>
<text text-anchor="middle" x="616.38" y="-22.8" font-family="Times,serif" font-size="14.00"> Type: replace </text>
<text text-anchor="middle" x="616.38" y="-7.8" font-family="Times,serif" font-size="14.00"> Direction: Core</text>
</g>
<!-- 65cae540&#45;d7dc&#45;11ee&#45;9025&#45;ac1a3ddd05c7&#45;&gt;65caea86&#45;d7dc&#45;11ee&#45;9025&#45;ac1a3ddd05c7 -->
<g id="edge19" class="edge">
<title>65cae540&#45;d7dc&#45;11ee&#45;9025&#45;ac1a3ddd05c7&#45;&gt;65caea86&#45;d7dc&#45;11ee&#45;9025&#45;ac1a3ddd05c7</title>
<path fill="none" stroke="black" d="M567.97,-88.77C574.92,-79.97 582.17,-70.8 588.87,-62.32"/>
<polygon fill="black" stroke="black" points="591.5,-64.63 594.96,-54.62 586.01,-60.29 591.5,-64.63"/>
</g>
<!-- 65caf4cc&#45;d7dc&#45;11ee&#45;9025&#45;ac1a3ddd05c7 -->
<g id="node23" class="node">
<title>65caf4cc&#45;d7dc&#45;11ee&#45;9025&#45;ac1a3ddd05c7</title>
<polygon fill="none" stroke="black" points="759.89,-415.82 721.63,-458.87 645.13,-458.87 606.88,-415.82 645.13,-372.77 721.63,-372.77 759.89,-415.82"/>
<text text-anchor="middle" x="683.38" y="-427.12" font-family="Times,serif" font-size="14.00">rp_20: level2 </text>
<text text-anchor="middle" x="683.38" y="-412.12" font-family="Times,serif" font-size="14.00"> data_support </text>
<text text-anchor="middle" x="683.38" y="-397.12" font-family="Times,serif" font-size="14.00"> cost : 24</text>
</g>
<!-- 65caf210&#45;d7dc&#45;11ee&#45;9025&#45;ac1a3ddd05c7&#45;&gt;65caf4cc&#45;d7dc&#45;11ee&#45;9025&#45;ac1a3ddd05c7 -->
<g id="edge22" class="edge">
<title>65caf210&#45;d7dc&#45;11ee&#45;9025&#45;ac1a3ddd05c7&#45;&gt;65caf4cc&#45;d7dc&#45;11ee&#45;9025&#45;ac1a3ddd05c7</title>
<path fill="none" stroke="black" d="M671.07,-495.06C672.18,-487.99 673.54,-479.35 674.94,-470.43"/>
<polygon fill="black" stroke="black" points="678.4,-470.99 676.5,-460.57 671.48,-469.9 678.4,-470.99"/>
</g>
<!-- 65caf9d6&#45;d7dc&#45;11ee&#45;9025&#45;ac1a3ddd05c7 -->
<g id="node25" class="node">
<title>65caf9d6&#45;d7dc&#45;11ee&#45;9025&#45;ac1a3ddd05c7</title>
<polygon fill="none" stroke="black" points="856.65,-699.37 817.52,-742.42 739.25,-742.42 700.12,-699.37 739.25,-656.32 817.52,-656.32 856.65,-699.37"/>
<text text-anchor="middle" x="778.38" y="-710.67" font-family="Times,serif" font-size="14.00">rp_14: level3 </text>
<text text-anchor="middle" x="778.38" y="-695.67" font-family="Times,serif" font-size="14.00"> evaluate_risk </text>
<text text-anchor="middle" x="778.38" y="-680.67" font-family="Times,serif" font-size="14.00"> cost : 16</text>
</g>
<!-- 65caf742&#45;d7dc&#45;11ee&#45;9025&#45;ac1a3ddd05c7&#45;&gt;65caf9d6&#45;d7dc&#45;11ee&#45;9025&#45;ac1a3ddd05c7 -->
<g id="edge24" class="edge">
<title>65caf742&#45;d7dc&#45;11ee&#45;9025&#45;ac1a3ddd05c7&#45;&gt;65caf9d6&#45;d7dc&#45;11ee&#45;9025&#45;ac1a3ddd05c7</title>
<path fill="none" stroke="black" d="M741.43,-778.61C744.92,-771.22 749.21,-762.13 753.63,-752.79"/>
<polygon fill="black" stroke="black" points="756.67,-754.53 757.78,-743.99 750.34,-751.54 756.67,-754.53"/>
</g>
</g>
</svg>
