<?xml version="1.0" encoding="UTF-8" standalone="no"?>
<!DOCTYPE svg PUBLIC "-//W3C//DTD SVG 1.1//EN"
 "http://www.w3.org/Graphics/SVG/1.1/DTD/svg11.dtd">
<!-- Generated by graphviz version 8.1.0 (20230707.0739)
 -->
<!-- Title: CallTree Pages: 1 -->
<svg width="818pt" height="267pt"
 viewBox="0.00 0.00 818.32 267.40" xmlns="http://www.w3.org/2000/svg" xmlns:xlink="http://www.w3.org/1999/xlink">
<g id="graph0" class="graph" transform="scale(1 1) rotate(0) translate(4 263.4)">
<title>CallTree</title>
<polygon fill="white" stroke="none" points="-4,4 -4,-263.4 814.32,-263.4 814.32,4 -4,4"/>
<!-- 1c425428&#45;d811&#45;11ee&#45;a1e3&#45;04cf4b795879 -->
<g id="node1" class="node">
<title>1c425428&#45;d811&#45;11ee&#45;a1e3&#45;04cf4b795879</title>
<polygon fill="none" stroke="black" points="451.65,-259.4 347.15,-259.4 347.15,-201.9 451.65,-201.9 451.65,-259.4"/>
<text text-anchor="middle" x="399.4" y="-242.1" font-family="Times,serif" font-size="14.00">a5: send_offer </text>
<text text-anchor="middle" x="399.4" y="-225.6" font-family="Times,serif" font-size="14.00"> Type: Core </text>
<text text-anchor="middle" x="399.4" y="-209.1" font-family="Times,serif" font-size="14.00"> Direction: Core</text>
</g>
<!-- 1c4266d4&#45;d811&#45;11ee&#45;a1e3&#45;04cf4b795879 -->
<g id="node2" class="node">
<title>1c4266d4&#45;d811&#45;11ee&#45;a1e3&#45;04cf4b795879</title>
<ellipse fill="none" stroke="black" cx="114.4" cy="-147.9" rx="50.84" ry="18"/>
<text text-anchor="middle" x="114.4" y="-142.85" font-family="Times,serif" font-size="14.00">r_1: level1</text>
</g>
<!-- 1c425428&#45;d811&#45;11ee&#45;a1e3&#45;04cf4b795879&#45;&gt;1c4266d4&#45;d811&#45;11ee&#45;a1e3&#45;04cf4b795879 -->
<g id="edge1" class="edge">
<title>1c425428&#45;d811&#45;11ee&#45;a1e3&#45;04cf4b795879&#45;&gt;1c4266d4&#45;d811&#45;11ee&#45;a1e3&#45;04cf4b795879</title>
<path fill="none" stroke="black" d="M346.8,-214.74C294.39,-199.89 214.57,-177.28 163.45,-162.79"/>
<polygon fill="black" stroke="black" points="164.57,-159.19 154,-159.83 162.67,-165.93 164.57,-159.19"/>
</g>
<!-- 1c427200&#45;d811&#45;11ee&#45;a1e3&#45;04cf4b795879 -->
<g id="node4" class="node">
<title>1c427200&#45;d811&#45;11ee&#45;a1e3&#45;04cf4b795879</title>
<ellipse fill="none" stroke="black" cx="255.4" cy="-147.9" rx="50.84" ry="18"/>
<text text-anchor="middle" x="255.4" y="-142.85" font-family="Times,serif" font-size="14.00">r_2: level2</text>
</g>
<!-- 1c425428&#45;d811&#45;11ee&#45;a1e3&#45;04cf4b795879&#45;&gt;1c427200&#45;d811&#45;11ee&#45;a1e3&#45;04cf4b795879 -->
<g id="edge3" class="edge">
<title>1c425428&#45;d811&#45;11ee&#45;a1e3&#45;04cf4b795879&#45;&gt;1c427200&#45;d811&#45;11ee&#45;a1e3&#45;04cf4b795879</title>
<path fill="none" stroke="black" d="M349.04,-201.4C329.88,-190.66 308.46,-178.65 290.95,-168.83"/>
<polygon fill="black" stroke="black" points="293.1,-165.46 282.67,-163.63 289.68,-171.57 293.1,-165.46"/>
</g>
<!-- 1c427bf6&#45;d811&#45;11ee&#45;a1e3&#45;04cf4b795879 -->
<g id="node6" class="node">
<title>1c427bf6&#45;d811&#45;11ee&#45;a1e3&#45;04cf4b795879</title>
<ellipse fill="none" stroke="black" cx="399.4" cy="-147.9" rx="50.84" ry="18"/>
<text text-anchor="middle" x="399.4" y="-142.85" font-family="Times,serif" font-size="14.00">r_4: level2</text>
</g>
<!-- 1c425428&#45;d811&#45;11ee&#45;a1e3&#45;04cf4b795879&#45;&gt;1c427bf6&#45;d811&#45;11ee&#45;a1e3&#45;04cf4b795879 -->
<g id="edge5" class="edge">
<title>1c425428&#45;d811&#45;11ee&#45;a1e3&#45;04cf4b795879&#45;&gt;1c427bf6&#45;d811&#45;11ee&#45;a1e3&#45;04cf4b795879</title>
<path fill="none" stroke="black" d="M399.4,-201.4C399.4,-193.46 399.4,-184.82 399.4,-176.89"/>
<polygon fill="black" stroke="black" points="402.9,-176.94 399.4,-166.94 395.9,-176.94 402.9,-176.94"/>
</g>
<!-- 1c428614&#45;d811&#45;11ee&#45;a1e3&#45;04cf4b795879 -->
<g id="node8" class="node">
<title>1c428614&#45;d811&#45;11ee&#45;a1e3&#45;04cf4b795879</title>
<ellipse fill="none" stroke="black" cx="543.4" cy="-147.9" rx="50.84" ry="18"/>
<text text-anchor="middle" x="543.4" y="-142.85" font-family="Times,serif" font-size="14.00">r_3: level3</text>
</g>
<!-- 1c425428&#45;d811&#45;11ee&#45;a1e3&#45;04cf4b795879&#45;&gt;1c428614&#45;d811&#45;11ee&#45;a1e3&#45;04cf4b795879 -->
<g id="edge7" class="edge">
<title>1c425428&#45;d811&#45;11ee&#45;a1e3&#45;04cf4b795879&#45;&gt;1c428614&#45;d811&#45;11ee&#45;a1e3&#45;04cf4b795879</title>
<path fill="none" stroke="black" d="M449.77,-201.4C468.93,-190.66 490.34,-178.65 507.85,-168.83"/>
<polygon fill="black" stroke="black" points="509.13,-171.57 516.14,-163.63 505.7,-165.46 509.13,-171.57"/>
</g>
<!-- 1c4290c8&#45;d811&#45;11ee&#45;a1e3&#45;04cf4b795879 -->
<g id="node10" class="node">
<title>1c4290c8&#45;d811&#45;11ee&#45;a1e3&#45;04cf4b795879</title>
<ellipse fill="none" stroke="black" cx="699.4" cy="-147.9" rx="50.84" ry="18"/>
<text text-anchor="middle" x="699.4" y="-142.85" font-family="Times,serif" font-size="14.00">r_5: level3</text>
</g>
<!-- 1c425428&#45;d811&#45;11ee&#45;a1e3&#45;04cf4b795879&#45;&gt;1c4290c8&#45;d811&#45;11ee&#45;a1e3&#45;04cf4b795879 -->
<g id="edge9" class="edge">
<title>1c425428&#45;d811&#45;11ee&#45;a1e3&#45;04cf4b795879&#45;&gt;1c4290c8&#45;d811&#45;11ee&#45;a1e3&#45;04cf4b795879</title>
<path fill="none" stroke="black" d="M452,-215.49C507.61,-200.52 594.69,-177.08 649.33,-162.37"/>
<polygon fill="black" stroke="black" points="650.06,-165.53 658.81,-159.56 648.24,-158.77 650.06,-165.53"/>
</g>
<!-- 1c426cba&#45;d811&#45;11ee&#45;a1e3&#45;04cf4b795879 -->
<g id="node3" class="node">
<title>1c426cba&#45;d811&#45;11ee&#45;a1e3&#45;04cf4b795879</title>
<polygon fill="none" stroke="black" points="138.8,-46.95 104.1,-93.9 34.7,-93.9 0,-46.95 34.7,0 104.1,0 138.8,-46.95"/>
<text text-anchor="middle" x="69.4" y="-58.4" font-family="Times,serif" font-size="14.00">rp_5: level1 </text>
<text text-anchor="middle" x="69.4" y="-41.9" font-family="Times,serif" font-size="14.00"> send_offer </text>
<text text-anchor="middle" x="69.4" y="-25.4" font-family="Times,serif" font-size="14.00"> cost : 18</text>
</g>
<!-- 1c4266d4&#45;d811&#45;11ee&#45;a1e3&#45;04cf4b795879&#45;&gt;1c426cba&#45;d811&#45;11ee&#45;a1e3&#45;04cf4b795879 -->
<g id="edge2" class="edge">
<title>1c4266d4&#45;d811&#45;11ee&#45;a1e3&#45;04cf4b795879&#45;&gt;1c426cba&#45;d811&#45;11ee&#45;a1e3&#45;04cf4b795879</title>
<path fill="none" stroke="black" d="M106.56,-129.66C103.24,-122.35 99.15,-113.37 94.92,-104.07"/>
<polygon fill="black" stroke="black" points="97.82,-102.97 90.49,-95.32 91.44,-105.87 97.82,-102.97"/>
</g>
<!-- 1c427728&#45;d811&#45;11ee&#45;a1e3&#45;04cf4b795879 -->
<g id="node5" class="node">
<title>1c427728&#45;d811&#45;11ee&#45;a1e3&#45;04cf4b795879</title>
<polygon fill="none" stroke="black" points="306.32,-46.95 268.86,-93.9 193.95,-93.9 156.49,-46.95 193.95,0 268.86,0 306.32,-46.95"/>
<text text-anchor="middle" x="231.4" y="-58.4" font-family="Times,serif" font-size="14.00">rp_10: level2 </text>
<text text-anchor="middle" x="231.4" y="-41.9" font-family="Times,serif" font-size="14.00"> send_offer </text>
<text text-anchor="middle" x="231.4" y="-25.4" font-family="Times,serif" font-size="14.00"> cost : 84</text>
</g>
<!-- 1c427200&#45;d811&#45;11ee&#45;a1e3&#45;04cf4b795879&#45;&gt;1c427728&#45;d811&#45;11ee&#45;a1e3&#45;04cf4b795879 -->
<g id="edge4" class="edge">
<title>1c427200&#45;d811&#45;11ee&#45;a1e3&#45;04cf4b795879&#45;&gt;1c427728&#45;d811&#45;11ee&#45;a1e3&#45;04cf4b795879</title>
<path fill="none" stroke="black" d="M251.22,-129.66C249.5,-122.58 247.41,-113.93 245.23,-104.95"/>
<polygon fill="black" stroke="black" points="248.41,-104.21 242.65,-95.32 241.6,-105.86 248.41,-104.21"/>
</g>
<!-- 1c428114&#45;d811&#45;11ee&#45;a1e3&#45;04cf4b795879 -->
<g id="node7" class="node">
<title>1c428114&#45;d811&#45;11ee&#45;a1e3&#45;04cf4b795879</title>
<polygon fill="none" stroke="black" points="474.32,-46.95 436.86,-93.9 361.95,-93.9 324.49,-46.95 361.95,0 436.86,0 474.32,-46.95"/>
<text text-anchor="middle" x="399.4" y="-58.4" font-family="Times,serif" font-size="14.00">rp_10: level2 </text>
<text text-anchor="middle" x="399.4" y="-41.9" font-family="Times,serif" font-size="14.00"> send_offer </text>
<text text-anchor="middle" x="399.4" y="-25.4" font-family="Times,serif" font-size="14.00"> cost : 119</text>
</g>
<!-- 1c427bf6&#45;d811&#45;11ee&#45;a1e3&#45;04cf4b795879&#45;&gt;1c428114&#45;d811&#45;11ee&#45;a1e3&#45;04cf4b795879 -->
<g id="edge6" class="edge">
<title>1c427bf6&#45;d811&#45;11ee&#45;a1e3&#45;04cf4b795879&#45;&gt;1c428114&#45;d811&#45;11ee&#45;a1e3&#45;04cf4b795879</title>
<path fill="none" stroke="black" d="M399.4,-129.66C399.4,-122.65 399.4,-114.12 399.4,-105.24"/>
<polygon fill="black" stroke="black" points="402.9,-105.32 399.4,-95.32 395.9,-105.32 402.9,-105.32"/>
</g>
<!-- 1c428ba0&#45;d811&#45;11ee&#45;a1e3&#45;04cf4b795879 -->
<g id="node9" class="node">
<title>1c428ba0&#45;d811&#45;11ee&#45;a1e3&#45;04cf4b795879</title>
<polygon fill="none" stroke="black" points="642.32,-46.95 604.86,-93.9 529.95,-93.9 492.49,-46.95 529.95,0 604.86,0 642.32,-46.95"/>
<text text-anchor="middle" x="567.4" y="-58.4" font-family="Times,serif" font-size="14.00">rp_17: level3 </text>
<text text-anchor="middle" x="567.4" y="-41.9" font-family="Times,serif" font-size="14.00"> send_offer </text>
<text text-anchor="middle" x="567.4" y="-25.4" font-family="Times,serif" font-size="14.00"> cost : 45</text>
</g>
<!-- 1c428614&#45;d811&#45;11ee&#45;a1e3&#45;04cf4b795879&#45;&gt;1c428ba0&#45;d811&#45;11ee&#45;a1e3&#45;04cf4b795879 -->
<g id="edge8" class="edge">
<title>1c428614&#45;d811&#45;11ee&#45;a1e3&#45;04cf4b795879&#45;&gt;1c428ba0&#45;d811&#45;11ee&#45;a1e3&#45;04cf4b795879</title>
<path fill="none" stroke="black" d="M547.58,-129.66C549.3,-122.58 551.4,-113.93 553.58,-104.95"/>
<polygon fill="black" stroke="black" points="557.2,-105.86 556.16,-95.32 550.4,-104.21 557.2,-105.86"/>
</g>
<!-- 1c429636&#45;d811&#45;11ee&#45;a1e3&#45;04cf4b795879 -->
<g id="node11" class="node">
<title>1c429636&#45;d811&#45;11ee&#45;a1e3&#45;04cf4b795879</title>
<polygon fill="none" stroke="black" points="810.32,-46.95 772.86,-93.9 697.95,-93.9 660.49,-46.95 697.95,0 772.86,0 810.32,-46.95"/>
<text text-anchor="middle" x="735.4" y="-58.4" font-family="Times,serif" font-size="14.00">rp_17: level3 </text>
<text text-anchor="middle" x="735.4" y="-41.9" font-family="Times,serif" font-size="14.00"> send_offer </text>
<text text-anchor="middle" x="735.4" y="-25.4" font-family="Times,serif" font-size="14.00"> cost : 106</text>
</g>
<!-- 1c4290c8&#45;d811&#45;11ee&#45;a1e3&#45;04cf4b795879&#45;&gt;1c429636&#45;d811&#45;11ee&#45;a1e3&#45;04cf4b795879 -->
<g id="edge10" class="edge">
<title>1c4290c8&#45;d811&#45;11ee&#45;a1e3&#45;04cf4b795879&#45;&gt;1c429636&#45;d811&#45;11ee&#45;a1e3&#45;04cf4b795879</title>
<path fill="none" stroke="black" d="M705.67,-129.66C708.28,-122.5 711.46,-113.74 714.77,-104.65"/>
<polygon fill="black" stroke="black" points="718.4,-105.91 718.53,-95.32 711.82,-103.52 718.4,-105.91"/>
</g>
</g>
</svg>
