<?xml version="1.0" encoding="UTF-8" standalone="no"?>
<!DOCTYPE svg PUBLIC "-//W3C//DTD SVG 1.1//EN"
 "http://www.w3.org/Graphics/SVG/1.1/DTD/svg11.dtd">
<!-- Generated by graphviz version 7.1.0 (0)
 -->
<!-- Title: CallTree Pages: 1 -->
<svg width="1765pt" height="823pt"
 viewBox="0.00 0.00 1764.59 822.65" xmlns="http://www.w3.org/2000/svg" xmlns:xlink="http://www.w3.org/1999/xlink">
<g id="graph0" class="graph" transform="scale(1 1) rotate(0) translate(4 818.65)">
<title>CallTree</title>
<polygon fill="white" stroke="none" points="-4,4 -4,-818.65 1760.59,-818.65 1760.59,4 -4,4"/>
<!-- d4206620&#45;d7cb&#45;11ee&#45;9e69&#45;ac1a3ddd05c7 -->
<g id="node1" class="node">
<title>d4206620&#45;d7cb&#45;11ee&#45;9e69&#45;ac1a3ddd05c7</title>
<polygon fill="none" stroke="black" points="1151.28,-814.65 1042.28,-814.65 1042.28,-761.65 1151.28,-761.65 1151.28,-814.65"/>
<text text-anchor="middle" x="1096.78" y="-799.45" font-family="Times,serif" font-size="14.00">a7: design_offer </text>
<text text-anchor="middle" x="1096.78" y="-784.45" font-family="Times,serif" font-size="14.00"> Type: Core </text>
<text text-anchor="middle" x="1096.78" y="-769.45" font-family="Times,serif" font-size="14.00"> Direction: Core</text>
</g>
<!-- d42071f6&#45;d7cb&#45;11ee&#45;9e69&#45;ac1a3ddd05c7 -->
<g id="node2" class="node">
<title>d42071f6&#45;d7cb&#45;11ee&#45;9e69&#45;ac1a3ddd05c7</title>
<ellipse fill="none" stroke="black" cx="813.78" cy="-707.65" rx="48.99" ry="18"/>
<text text-anchor="middle" x="813.78" y="-703.95" font-family="Times,serif" font-size="14.00">r_1: level1</text>
</g>
<!-- d4206620&#45;d7cb&#45;11ee&#45;9e69&#45;ac1a3ddd05c7&#45;&gt;d42071f6&#45;d7cb&#45;11ee&#45;9e69&#45;ac1a3ddd05c7 -->
<g id="edge1" class="edge">
<title>d4206620&#45;d7cb&#45;11ee&#45;9e69&#45;ac1a3ddd05c7&#45;&gt;d42071f6&#45;d7cb&#45;11ee&#45;9e69&#45;ac1a3ddd05c7</title>
<path fill="none" stroke="black" d="M1041.88,-771.92C990.02,-757.53 912.96,-736.16 863.04,-722.31"/>
<polygon fill="black" stroke="black" points="864.23,-719.01 853.66,-719.71 862.36,-725.75 864.23,-719.01"/>
</g>
<!-- d4208f2e&#45;d7cb&#45;11ee&#45;9e69&#45;ac1a3ddd05c7 -->
<g id="node19" class="node">
<title>d4208f2e&#45;d7cb&#45;11ee&#45;9e69&#45;ac1a3ddd05c7</title>
<ellipse fill="none" stroke="black" cx="954.78" cy="-707.65" rx="48.99" ry="18"/>
<text text-anchor="middle" x="954.78" y="-703.95" font-family="Times,serif" font-size="14.00">r_2: level2</text>
</g>
<!-- d4206620&#45;d7cb&#45;11ee&#45;9e69&#45;ac1a3ddd05c7&#45;&gt;d4208f2e&#45;d7cb&#45;11ee&#45;9e69&#45;ac1a3ddd05c7 -->
<g id="edge18" class="edge">
<title>d4206620&#45;d7cb&#45;11ee&#45;9e69&#45;ac1a3ddd05c7&#45;&gt;d4208f2e&#45;d7cb&#45;11ee&#45;9e69&#45;ac1a3ddd05c7</title>
<path fill="none" stroke="black" d="M1049.89,-761.22C1030.71,-750.62 1008.87,-738.55 990.96,-728.65"/>
<polygon fill="black" stroke="black" points="992.68,-725.6 982.24,-723.83 989.3,-731.73 992.68,-725.6"/>
</g>
<!-- d42093fc&#45;d7cb&#45;11ee&#45;9e69&#45;ac1a3ddd05c7 -->
<g id="node22" class="node">
<title>d42093fc&#45;d7cb&#45;11ee&#45;9e69&#45;ac1a3ddd05c7</title>
<ellipse fill="none" stroke="black" cx="1096.78" cy="-707.65" rx="48.99" ry="18"/>
<text text-anchor="middle" x="1096.78" y="-703.95" font-family="Times,serif" font-size="14.00">r_4: level2</text>
</g>
<!-- d4206620&#45;d7cb&#45;11ee&#45;9e69&#45;ac1a3ddd05c7&#45;&gt;d42093fc&#45;d7cb&#45;11ee&#45;9e69&#45;ac1a3ddd05c7 -->
<g id="edge21" class="edge">
<title>d4206620&#45;d7cb&#45;11ee&#45;9e69&#45;ac1a3ddd05c7&#45;&gt;d42093fc&#45;d7cb&#45;11ee&#45;9e69&#45;ac1a3ddd05c7</title>
<path fill="none" stroke="black" d="M1096.78,-761.44C1096.78,-753.72 1096.78,-745.2 1096.78,-737.31"/>
<polygon fill="black" stroke="black" points="1100.28,-737.49 1096.78,-727.49 1093.28,-737.49 1100.28,-737.49"/>
</g>
<!-- d42096ea&#45;d7cb&#45;11ee&#45;9e69&#45;ac1a3ddd05c7 -->
<g id="node24" class="node">
<title>d42096ea&#45;d7cb&#45;11ee&#45;9e69&#45;ac1a3ddd05c7</title>
<ellipse fill="none" stroke="black" cx="1237.78" cy="-707.65" rx="48.99" ry="18"/>
<text text-anchor="middle" x="1237.78" y="-703.95" font-family="Times,serif" font-size="14.00">r_3: level3</text>
</g>
<!-- d4206620&#45;d7cb&#45;11ee&#45;9e69&#45;ac1a3ddd05c7&#45;&gt;d42096ea&#45;d7cb&#45;11ee&#45;9e69&#45;ac1a3ddd05c7 -->
<g id="edge23" class="edge">
<title>d4206620&#45;d7cb&#45;11ee&#45;9e69&#45;ac1a3ddd05c7&#45;&gt;d42096ea&#45;d7cb&#45;11ee&#45;9e69&#45;ac1a3ddd05c7</title>
<path fill="none" stroke="black" d="M1143.34,-761.22C1162.38,-750.62 1184.07,-738.55 1201.85,-728.65"/>
<polygon fill="black" stroke="black" points="1203.47,-731.75 1210.5,-723.83 1200.06,-725.64 1203.47,-731.75"/>
</g>
<!-- d420b5d0&#45;d7cb&#45;11ee&#45;9e69&#45;ac1a3ddd05c7 -->
<g id="node43" class="node">
<title>d420b5d0&#45;d7cb&#45;11ee&#45;9e69&#45;ac1a3ddd05c7</title>
<ellipse fill="none" stroke="black" cx="1392.78" cy="-707.65" rx="48.99" ry="18"/>
<text text-anchor="middle" x="1392.78" y="-703.95" font-family="Times,serif" font-size="14.00">r_5: level3</text>
</g>
<!-- d4206620&#45;d7cb&#45;11ee&#45;9e69&#45;ac1a3ddd05c7&#45;&gt;d420b5d0&#45;d7cb&#45;11ee&#45;9e69&#45;ac1a3ddd05c7 -->
<g id="edge42" class="edge">
<title>d4206620&#45;d7cb&#45;11ee&#45;9e69&#45;ac1a3ddd05c7&#45;&gt;d420b5d0&#45;d7cb&#45;11ee&#45;9e69&#45;ac1a3ddd05c7</title>
<path fill="none" stroke="black" d="M1151.76,-772.56C1206.7,-757.99 1290.41,-735.8 1343.32,-721.76"/>
<polygon fill="black" stroke="black" points="1343.89,-725.23 1352.66,-719.29 1342.09,-718.47 1343.89,-725.23"/>
</g>
<!-- d42073ea&#45;d7cb&#45;11ee&#45;9e69&#45;ac1a3ddd05c7 -->
<g id="node3" class="node">
<title>d42073ea&#45;d7cb&#45;11ee&#45;9e69&#45;ac1a3ddd05c7</title>
<polygon fill="none" stroke="black" points="791.01,-610.37 753.4,-653.42 678.16,-653.42 640.54,-610.37 678.16,-567.32 753.4,-567.32 791.01,-610.37"/>
<text text-anchor="middle" x="715.78" y="-621.67" font-family="Times,serif" font-size="14.00">rp_4: level1 </text>
<text text-anchor="middle" x="715.78" y="-606.67" font-family="Times,serif" font-size="14.00"> design_offer </text>
<text text-anchor="middle" x="715.78" y="-591.67" font-family="Times,serif" font-size="14.00"> cost : 25</text>
</g>
<!-- d42071f6&#45;d7cb&#45;11ee&#45;9e69&#45;ac1a3ddd05c7&#45;&gt;d42073ea&#45;d7cb&#45;11ee&#45;9e69&#45;ac1a3ddd05c7 -->
<g id="edge2" class="edge">
<title>d42071f6&#45;d7cb&#45;11ee&#45;9e69&#45;ac1a3ddd05c7&#45;&gt;d42073ea&#45;d7cb&#45;11ee&#45;9e69&#45;ac1a3ddd05c7</title>
<path fill="none" stroke="black" d="M797.15,-690.48C788.01,-681.6 776.15,-670.07 764.33,-658.57"/>
<polygon fill="black" stroke="black" points="766.87,-656.17 757.26,-651.7 761.99,-661.18 766.87,-656.17"/>
</g>
<!-- d4207584&#45;d7cb&#45;11ee&#45;9e69&#45;ac1a3ddd05c7 -->
<g id="node4" class="node">
<title>d4207584&#45;d7cb&#45;11ee&#45;9e69&#45;ac1a3ddd05c7</title>
<polygon fill="none" stroke="black" points="772.28,-531.1 647.28,-531.1 647.28,-478.1 772.28,-478.1 772.28,-531.1"/>
<text text-anchor="middle" x="709.78" y="-515.9" font-family="Times,serif" font-size="14.00">r0: create_proposal </text>
<text text-anchor="middle" x="709.78" y="-500.9" font-family="Times,serif" font-size="14.00"> Type: insert </text>
<text text-anchor="middle" x="709.78" y="-485.9" font-family="Times,serif" font-size="14.00"> Direction: parallel</text>
</g>
<!-- d42073ea&#45;d7cb&#45;11ee&#45;9e69&#45;ac1a3ddd05c7&#45;&gt;d4207584&#45;d7cb&#45;11ee&#45;9e69&#45;ac1a3ddd05c7 -->
<g id="edge3" class="edge">
<title>d42073ea&#45;d7cb&#45;11ee&#45;9e69&#45;ac1a3ddd05c7&#45;&gt;d4207584&#45;d7cb&#45;11ee&#45;9e69&#45;ac1a3ddd05c7</title>
<path fill="none" stroke="black" d="M713.32,-566.86C712.86,-558.91 712.38,-550.65 711.93,-542.87"/>
<polygon fill="black" stroke="black" points="715.44,-542.82 711.36,-533.04 708.45,-543.22 715.44,-542.82"/>
</g>
<!-- d420791c&#45;d7cb&#45;11ee&#45;9e69&#45;ac1a3ddd05c7 -->
<g id="node5" class="node">
<title>d420791c&#45;d7cb&#45;11ee&#45;9e69&#45;ac1a3ddd05c7</title>
<ellipse fill="none" stroke="black" cx="531.78" cy="-424.1" rx="48.99" ry="18"/>
<text text-anchor="middle" x="531.78" y="-420.4" font-family="Times,serif" font-size="14.00">r_2: level2</text>
</g>
<!-- d4207584&#45;d7cb&#45;11ee&#45;9e69&#45;ac1a3ddd05c7&#45;&gt;d420791c&#45;d7cb&#45;11ee&#45;9e69&#45;ac1a3ddd05c7 -->
<g id="edge4" class="edge">
<title>d4207584&#45;d7cb&#45;11ee&#45;9e69&#45;ac1a3ddd05c7&#45;&gt;d420791c&#45;d7cb&#45;11ee&#45;9e69&#45;ac1a3ddd05c7</title>
<path fill="none" stroke="black" d="M651,-477.68C625.3,-466.34 595.78,-453.32 572.55,-443.08"/>
<polygon fill="black" stroke="black" points="573.97,-439.88 563.41,-439.05 571.14,-446.28 573.97,-439.88"/>
</g>
<!-- d420895c&#45;d7cb&#45;11ee&#45;9e69&#45;ac1a3ddd05c7 -->
<g id="node15" class="node">
<title>d420895c&#45;d7cb&#45;11ee&#45;9e69&#45;ac1a3ddd05c7</title>
<ellipse fill="none" stroke="black" cx="687.78" cy="-424.1" rx="48.99" ry="18"/>
<text text-anchor="middle" x="687.78" y="-420.4" font-family="Times,serif" font-size="14.00">r_3: level3</text>
</g>
<!-- d4207584&#45;d7cb&#45;11ee&#45;9e69&#45;ac1a3ddd05c7&#45;&gt;d420895c&#45;d7cb&#45;11ee&#45;9e69&#45;ac1a3ddd05c7 -->
<g id="edge14" class="edge">
<title>d4207584&#45;d7cb&#45;11ee&#45;9e69&#45;ac1a3ddd05c7&#45;&gt;d420895c&#45;d7cb&#45;11ee&#45;9e69&#45;ac1a3ddd05c7</title>
<path fill="none" stroke="black" d="M702.57,-477.89C700.38,-470.08 697.97,-461.46 695.73,-453.48"/>
<polygon fill="black" stroke="black" points="699.11,-452.57 693.04,-443.89 692.37,-454.46 699.11,-452.57"/>
</g>
<!-- d4208c4a&#45;d7cb&#45;11ee&#45;9e69&#45;ac1a3ddd05c7 -->
<g id="node17" class="node">
<title>d4208c4a&#45;d7cb&#45;11ee&#45;9e69&#45;ac1a3ddd05c7</title>
<ellipse fill="none" stroke="black" cx="833.78" cy="-424.1" rx="48.99" ry="18"/>
<text text-anchor="middle" x="833.78" y="-420.4" font-family="Times,serif" font-size="14.00">r_5: level3</text>
</g>
<!-- d4207584&#45;d7cb&#45;11ee&#45;9e69&#45;ac1a3ddd05c7&#45;&gt;d4208c4a&#45;d7cb&#45;11ee&#45;9e69&#45;ac1a3ddd05c7 -->
<g id="edge16" class="edge">
<title>d4207584&#45;d7cb&#45;11ee&#45;9e69&#45;ac1a3ddd05c7&#45;&gt;d4208c4a&#45;d7cb&#45;11ee&#45;9e69&#45;ac1a3ddd05c7</title>
<path fill="none" stroke="black" d="M750.72,-477.68C766.81,-467.49 785.04,-455.95 800.32,-446.28"/>
<polygon fill="black" stroke="black" points="802.02,-449.34 808.6,-441.04 798.28,-443.43 802.02,-449.34"/>
</g>
<!-- d4207ad4&#45;d7cb&#45;11ee&#45;9e69&#45;ac1a3ddd05c7 -->
<g id="node6" class="node">
<title>d4207ad4&#45;d7cb&#45;11ee&#45;9e69&#45;ac1a3ddd05c7</title>
<polygon fill="none" stroke="black" points="568.41,-326.82 523.59,-369.87 433.96,-369.87 389.15,-326.82 433.96,-283.77 523.59,-283.77 568.41,-326.82"/>
<text text-anchor="middle" x="478.78" y="-338.12" font-family="Times,serif" font-size="14.00">rp_15: level3 </text>
<text text-anchor="middle" x="478.78" y="-323.12" font-family="Times,serif" font-size="14.00"> create_proposal </text>
<text text-anchor="middle" x="478.78" y="-308.12" font-family="Times,serif" font-size="14.00"> cost : 100</text>
</g>
<!-- d420791c&#45;d7cb&#45;11ee&#45;9e69&#45;ac1a3ddd05c7&#45;&gt;d4207ad4&#45;d7cb&#45;11ee&#45;9e69&#45;ac1a3ddd05c7 -->
<g id="edge5" class="edge">
<title>d420791c&#45;d7cb&#45;11ee&#45;9e69&#45;ac1a3ddd05c7&#45;&gt;d4207ad4&#45;d7cb&#45;11ee&#45;9e69&#45;ac1a3ddd05c7</title>
<path fill="none" stroke="black" d="M522.3,-406.06C518.15,-398.6 513.03,-389.39 507.77,-379.94"/>
<polygon fill="black" stroke="black" points="510.94,-378.44 503.02,-371.4 504.82,-381.84 510.94,-378.44"/>
</g>
<!-- d4207c3c&#45;d7cb&#45;11ee&#45;9e69&#45;ac1a3ddd05c7 -->
<g id="node7" class="node">
<title>d4207c3c&#45;d7cb&#45;11ee&#45;9e69&#45;ac1a3ddd05c7</title>
<polygon fill="none" stroke="black" points="415.28,-247.55 268.28,-247.55 268.28,-194.55 415.28,-194.55 415.28,-247.55"/>
<text text-anchor="middle" x="341.78" y="-232.35" font-family="Times,serif" font-size="14.00">r0: four_eyes_principle </text>
<text text-anchor="middle" x="341.78" y="-217.35" font-family="Times,serif" font-size="14.00"> Type: insert </text>
<text text-anchor="middle" x="341.78" y="-202.35" font-family="Times,serif" font-size="14.00"> Direction: before</text>
</g>
<!-- d4207ad4&#45;d7cb&#45;11ee&#45;9e69&#45;ac1a3ddd05c7&#45;&gt;d4207c3c&#45;d7cb&#45;11ee&#45;9e69&#45;ac1a3ddd05c7 -->
<g id="edge6" class="edge">
<title>d4207ad4&#45;d7cb&#45;11ee&#45;9e69&#45;ac1a3ddd05c7&#45;&gt;d4207c3c&#45;d7cb&#45;11ee&#45;9e69&#45;ac1a3ddd05c7</title>
<path fill="none" stroke="black" d="M428.93,-288.06C414.5,-277.13 398.86,-265.29 384.88,-254.7"/>
<polygon fill="black" stroke="black" points="387.25,-252.1 377.16,-248.85 383.02,-257.68 387.25,-252.1"/>
</g>
<!-- d420874a&#45;d7cb&#45;11ee&#45;9e69&#45;ac1a3ddd05c7 -->
<g id="node14" class="node">
<title>d420874a&#45;d7cb&#45;11ee&#45;9e69&#45;ac1a3ddd05c7</title>
<polygon fill="none" stroke="black" points="581.78,-247.55 433.78,-247.55 433.78,-194.55 581.78,-194.55 581.78,-247.55"/>
<text text-anchor="middle" x="507.78" y="-232.35" font-family="Times,serif" font-size="14.00">r0: decide_on_proposal </text>
<text text-anchor="middle" x="507.78" y="-217.35" font-family="Times,serif" font-size="14.00"> Type: delete </text>
<text text-anchor="middle" x="507.78" y="-202.35" font-family="Times,serif" font-size="14.00"> Direction: any</text>
</g>
<!-- d4207ad4&#45;d7cb&#45;11ee&#45;9e69&#45;ac1a3ddd05c7&#45;&gt;d420874a&#45;d7cb&#45;11ee&#45;9e69&#45;ac1a3ddd05c7 -->
<g id="edge13" class="edge">
<title>d4207ad4&#45;d7cb&#45;11ee&#45;9e69&#45;ac1a3ddd05c7&#45;&gt;d420874a&#45;d7cb&#45;11ee&#45;9e69&#45;ac1a3ddd05c7</title>
<path fill="none" stroke="black" d="M490.66,-283.31C492.91,-275.27 495.24,-266.91 497.44,-259.05"/>
<polygon fill="black" stroke="black" points="500.8,-260.01 500.12,-249.44 494.06,-258.13 500.8,-260.01"/>
</g>
<!-- d4207e94&#45;d7cb&#45;11ee&#45;9e69&#45;ac1a3ddd05c7 -->
<g id="node8" class="node">
<title>d4207e94&#45;d7cb&#45;11ee&#45;9e69&#45;ac1a3ddd05c7</title>
<ellipse fill="none" stroke="black" cx="167.78" cy="-140.55" rx="48.99" ry="18"/>
<text text-anchor="middle" x="167.78" y="-136.85" font-family="Times,serif" font-size="14.00">r_4: level2</text>
</g>
<!-- d4207c3c&#45;d7cb&#45;11ee&#45;9e69&#45;ac1a3ddd05c7&#45;&gt;d4207e94&#45;d7cb&#45;11ee&#45;9e69&#45;ac1a3ddd05c7 -->
<g id="edge7" class="edge">
<title>d4207c3c&#45;d7cb&#45;11ee&#45;9e69&#45;ac1a3ddd05c7&#45;&gt;d4207e94&#45;d7cb&#45;11ee&#45;9e69&#45;ac1a3ddd05c7</title>
<path fill="none" stroke="black" d="M284.32,-194.13C259.37,-182.87 230.74,-169.95 208.1,-159.74"/>
<polygon fill="black" stroke="black" points="209.76,-156.65 199.21,-155.73 206.88,-163.03 209.76,-156.65"/>
</g>
<!-- d420818c&#45;d7cb&#45;11ee&#45;9e69&#45;ac1a3ddd05c7 -->
<g id="node10" class="node">
<title>d420818c&#45;d7cb&#45;11ee&#45;9e69&#45;ac1a3ddd05c7</title>
<ellipse fill="none" stroke="black" cx="341.78" cy="-140.55" rx="48.99" ry="18"/>
<text text-anchor="middle" x="341.78" y="-136.85" font-family="Times,serif" font-size="14.00">r_3: level3</text>
</g>
<!-- d4207c3c&#45;d7cb&#45;11ee&#45;9e69&#45;ac1a3ddd05c7&#45;&gt;d420818c&#45;d7cb&#45;11ee&#45;9e69&#45;ac1a3ddd05c7 -->
<g id="edge9" class="edge">
<title>d4207c3c&#45;d7cb&#45;11ee&#45;9e69&#45;ac1a3ddd05c7&#45;&gt;d420818c&#45;d7cb&#45;11ee&#45;9e69&#45;ac1a3ddd05c7</title>
<path fill="none" stroke="black" d="M341.78,-194.34C341.78,-186.62 341.78,-178.11 341.78,-170.21"/>
<polygon fill="black" stroke="black" points="345.28,-170.39 341.78,-160.39 338.28,-170.39 345.28,-170.39"/>
</g>
<!-- d4208466&#45;d7cb&#45;11ee&#45;9e69&#45;ac1a3ddd05c7 -->
<g id="node12" class="node">
<title>d4208466&#45;d7cb&#45;11ee&#45;9e69&#45;ac1a3ddd05c7</title>
<ellipse fill="none" stroke="black" cx="516.78" cy="-140.55" rx="48.99" ry="18"/>
<text text-anchor="middle" x="516.78" y="-136.85" font-family="Times,serif" font-size="14.00">r_5: level3</text>
</g>
<!-- d4207c3c&#45;d7cb&#45;11ee&#45;9e69&#45;ac1a3ddd05c7&#45;&gt;d4208466&#45;d7cb&#45;11ee&#45;9e69&#45;ac1a3ddd05c7 -->
<g id="edge11" class="edge">
<title>d4207c3c&#45;d7cb&#45;11ee&#45;9e69&#45;ac1a3ddd05c7&#45;&gt;d4208466&#45;d7cb&#45;11ee&#45;9e69&#45;ac1a3ddd05c7</title>
<path fill="none" stroke="black" d="M399.56,-194.13C424.66,-182.87 453.46,-169.95 476.23,-159.74"/>
<polygon fill="black" stroke="black" points="477.48,-163.01 485.17,-155.73 474.62,-156.63 477.48,-163.01"/>
</g>
<!-- d4208024&#45;d7cb&#45;11ee&#45;9e69&#45;ac1a3ddd05c7 -->
<g id="node9" class="node">
<title>d4208024&#45;d7cb&#45;11ee&#45;9e69&#45;ac1a3ddd05c7</title>
<polygon fill="none" stroke="black" points="215.33,-43.27 161.56,-86.32 54,-86.32 0.22,-43.27 54,-0.22 161.56,-0.22 215.33,-43.27"/>
<text text-anchor="middle" x="107.78" y="-54.57" font-family="Times,serif" font-size="14.00">rp_24: level3 </text>
<text text-anchor="middle" x="107.78" y="-39.57" font-family="Times,serif" font-size="14.00"> four_eyes_principle </text>
<text text-anchor="middle" x="107.78" y="-24.57" font-family="Times,serif" font-size="14.00"> cost : 63</text>
</g>
<!-- d4207e94&#45;d7cb&#45;11ee&#45;9e69&#45;ac1a3ddd05c7&#45;&gt;d4208024&#45;d7cb&#45;11ee&#45;9e69&#45;ac1a3ddd05c7 -->
<g id="edge8" class="edge">
<title>d4207e94&#45;d7cb&#45;11ee&#45;9e69&#45;ac1a3ddd05c7&#45;&gt;d4208024&#45;d7cb&#45;11ee&#45;9e69&#45;ac1a3ddd05c7</title>
<path fill="none" stroke="black" d="M157.05,-122.52C152.3,-114.97 146.43,-105.64 140.41,-96.09"/>
<polygon fill="black" stroke="black" points="143.48,-94.4 135.19,-87.81 137.56,-98.13 143.48,-94.4"/>
</g>
<!-- d4208312&#45;d7cb&#45;11ee&#45;9e69&#45;ac1a3ddd05c7 -->
<g id="node11" class="node">
<title>d4208312&#45;d7cb&#45;11ee&#45;9e69&#45;ac1a3ddd05c7</title>
<polygon fill="none" stroke="black" points="449.33,-43.27 395.56,-86.32 288,-86.32 234.22,-43.27 288,-0.22 395.56,-0.22 449.33,-43.27"/>
<text text-anchor="middle" x="341.78" y="-54.57" font-family="Times,serif" font-size="14.00">rp_24: level3 </text>
<text text-anchor="middle" x="341.78" y="-39.57" font-family="Times,serif" font-size="14.00"> four_eyes_principle </text>
<text text-anchor="middle" x="341.78" y="-24.57" font-family="Times,serif" font-size="14.00"> cost : 53</text>
</g>
<!-- d420818c&#45;d7cb&#45;11ee&#45;9e69&#45;ac1a3ddd05c7&#45;&gt;d4208312&#45;d7cb&#45;11ee&#45;9e69&#45;ac1a3ddd05c7 -->
<g id="edge10" class="edge">
<title>d420818c&#45;d7cb&#45;11ee&#45;9e69&#45;ac1a3ddd05c7&#45;&gt;d4208312&#45;d7cb&#45;11ee&#45;9e69&#45;ac1a3ddd05c7</title>
<path fill="none" stroke="black" d="M341.78,-122.07C341.78,-115.13 341.78,-106.72 341.78,-98.05"/>
<polygon fill="black" stroke="black" points="345.28,-98.09 341.78,-88.09 338.28,-98.09 345.28,-98.09"/>
</g>
<!-- d42085ec&#45;d7cb&#45;11ee&#45;9e69&#45;ac1a3ddd05c7 -->
<g id="node13" class="node">
<title>d42085ec&#45;d7cb&#45;11ee&#45;9e69&#45;ac1a3ddd05c7</title>
<polygon fill="none" stroke="black" points="683.33,-43.27 629.56,-86.32 522,-86.32 468.22,-43.27 522,-0.22 629.56,-0.22 683.33,-43.27"/>
<text text-anchor="middle" x="575.78" y="-54.57" font-family="Times,serif" font-size="14.00">rp_24: level3 </text>
<text text-anchor="middle" x="575.78" y="-39.57" font-family="Times,serif" font-size="14.00"> four_eyes_principle </text>
<text text-anchor="middle" x="575.78" y="-24.57" font-family="Times,serif" font-size="14.00"> cost : 19</text>
</g>
<!-- d4208466&#45;d7cb&#45;11ee&#45;9e69&#45;ac1a3ddd05c7&#45;&gt;d42085ec&#45;d7cb&#45;11ee&#45;9e69&#45;ac1a3ddd05c7 -->
<g id="edge12" class="edge">
<title>d4208466&#45;d7cb&#45;11ee&#45;9e69&#45;ac1a3ddd05c7&#45;&gt;d42085ec&#45;d7cb&#45;11ee&#45;9e69&#45;ac1a3ddd05c7</title>
<path fill="none" stroke="black" d="M527.33,-122.52C532,-114.97 537.77,-105.64 543.69,-96.09"/>
<polygon fill="black" stroke="black" points="546.53,-98.16 548.82,-87.81 540.57,-94.47 546.53,-98.16"/>
</g>
<!-- d4208aec&#45;d7cb&#45;11ee&#45;9e69&#45;ac1a3ddd05c7 -->
<g id="node16" class="node">
<title>d4208aec&#45;d7cb&#45;11ee&#45;9e69&#45;ac1a3ddd05c7</title>
<polygon fill="none" stroke="black" points="766.41,-326.82 721.59,-369.87 631.96,-369.87 587.15,-326.82 631.96,-283.77 721.59,-283.77 766.41,-326.82"/>
<text text-anchor="middle" x="676.78" y="-338.12" font-family="Times,serif" font-size="14.00">rp_15: level3 </text>
<text text-anchor="middle" x="676.78" y="-323.12" font-family="Times,serif" font-size="14.00"> create_proposal </text>
<text text-anchor="middle" x="676.78" y="-308.12" font-family="Times,serif" font-size="14.00"> cost : 26</text>
</g>
<!-- d420895c&#45;d7cb&#45;11ee&#45;9e69&#45;ac1a3ddd05c7&#45;&gt;d4208aec&#45;d7cb&#45;11ee&#45;9e69&#45;ac1a3ddd05c7 -->
<g id="edge15" class="edge">
<title>d420895c&#45;d7cb&#45;11ee&#45;9e69&#45;ac1a3ddd05c7&#45;&gt;d4208aec&#45;d7cb&#45;11ee&#45;9e69&#45;ac1a3ddd05c7</title>
<path fill="none" stroke="black" d="M685.76,-405.62C684.95,-398.6 683.97,-390.08 682.95,-381.3"/>
<polygon fill="black" stroke="black" points="686.46,-381.16 681.84,-371.63 679.51,-381.97 686.46,-381.16"/>
</g>
<!-- d4208dc6&#45;d7cb&#45;11ee&#45;9e69&#45;ac1a3ddd05c7 -->
<g id="node18" class="node">
<title>d4208dc6&#45;d7cb&#45;11ee&#45;9e69&#45;ac1a3ddd05c7</title>
<polygon fill="none" stroke="black" points="964.41,-326.82 919.59,-369.87 829.96,-369.87 785.15,-326.82 829.96,-283.77 919.59,-283.77 964.41,-326.82"/>
<text text-anchor="middle" x="874.78" y="-338.12" font-family="Times,serif" font-size="14.00">rp_15: level3 </text>
<text text-anchor="middle" x="874.78" y="-323.12" font-family="Times,serif" font-size="14.00"> create_proposal </text>
<text text-anchor="middle" x="874.78" y="-308.12" font-family="Times,serif" font-size="14.00"> cost : 98</text>
</g>
<!-- d4208c4a&#45;d7cb&#45;11ee&#45;9e69&#45;ac1a3ddd05c7&#45;&gt;d4208dc6&#45;d7cb&#45;11ee&#45;9e69&#45;ac1a3ddd05c7 -->
<g id="edge17" class="edge">
<title>d4208c4a&#45;d7cb&#45;11ee&#45;9e69&#45;ac1a3ddd05c7&#45;&gt;d4208dc6&#45;d7cb&#45;11ee&#45;9e69&#45;ac1a3ddd05c7</title>
<path fill="none" stroke="black" d="M841.11,-406.06C844.25,-398.75 848.12,-389.77 852.09,-380.54"/>
<polygon fill="black" stroke="black" points="855.26,-382.03 856,-371.47 848.83,-379.27 855.26,-382.03"/>
</g>
<!-- d42090c8&#45;d7cb&#45;11ee&#45;9e69&#45;ac1a3ddd05c7 -->
<g id="node20" class="node">
<title>d42090c8&#45;d7cb&#45;11ee&#45;9e69&#45;ac1a3ddd05c7</title>
<polygon fill="none" stroke="black" points="1004.01,-610.37 966.4,-653.42 891.16,-653.42 853.54,-610.37 891.16,-567.32 966.4,-567.32 1004.01,-610.37"/>
<text text-anchor="middle" x="928.78" y="-621.67" font-family="Times,serif" font-size="14.00">rp_89: level2 </text>
<text text-anchor="middle" x="928.78" y="-606.67" font-family="Times,serif" font-size="14.00"> design_offer </text>
<text text-anchor="middle" x="928.78" y="-591.67" font-family="Times,serif" font-size="14.00"> cost : 18</text>
</g>
<!-- d4208f2e&#45;d7cb&#45;11ee&#45;9e69&#45;ac1a3ddd05c7&#45;&gt;d42090c8&#45;d7cb&#45;11ee&#45;9e69&#45;ac1a3ddd05c7 -->
<g id="edge19" class="edge">
<title>d4208f2e&#45;d7cb&#45;11ee&#45;9e69&#45;ac1a3ddd05c7&#45;&gt;d42090c8&#45;d7cb&#45;11ee&#45;9e69&#45;ac1a3ddd05c7</title>
<path fill="none" stroke="black" d="M950.13,-689.61C948.18,-682.46 945.79,-673.71 943.33,-664.68"/>
<polygon fill="black" stroke="black" points="946.72,-663.81 940.71,-655.08 939.96,-665.65 946.72,-663.81"/>
</g>
<!-- d4209226&#45;d7cb&#45;11ee&#45;9e69&#45;ac1a3ddd05c7 -->
<g id="node21" class="node">
<title>d4209226&#45;d7cb&#45;11ee&#45;9e69&#45;ac1a3ddd05c7</title>
<polygon fill="none" stroke="black" points="999.78,-531.1 857.78,-531.1 857.78,-478.1 999.78,-478.1 999.78,-531.1"/>
<text text-anchor="middle" x="928.78" y="-515.9" font-family="Times,serif" font-size="14.00">r0: head_confirmation </text>
<text text-anchor="middle" x="928.78" y="-500.9" font-family="Times,serif" font-size="14.00"> Type: insert </text>
<text text-anchor="middle" x="928.78" y="-485.9" font-family="Times,serif" font-size="14.00"> Direction: before</text>
</g>
<!-- d42090c8&#45;d7cb&#45;11ee&#45;9e69&#45;ac1a3ddd05c7&#45;&gt;d4209226&#45;d7cb&#45;11ee&#45;9e69&#45;ac1a3ddd05c7 -->
<g id="edge20" class="edge">
<title>d42090c8&#45;d7cb&#45;11ee&#45;9e69&#45;ac1a3ddd05c7&#45;&gt;d4209226&#45;d7cb&#45;11ee&#45;9e69&#45;ac1a3ddd05c7</title>
<path fill="none" stroke="black" d="M928.78,-566.86C928.78,-558.91 928.78,-550.65 928.78,-542.87"/>
<polygon fill="black" stroke="black" points="932.28,-543.04 928.78,-533.04 925.28,-543.04 932.28,-543.04"/>
</g>
<!-- d4209582&#45;d7cb&#45;11ee&#45;9e69&#45;ac1a3ddd05c7 -->
<g id="node23" class="node">
<title>d4209582&#45;d7cb&#45;11ee&#45;9e69&#45;ac1a3ddd05c7</title>
<polygon fill="none" stroke="black" points="1172.01,-610.37 1134.4,-653.42 1059.16,-653.42 1021.54,-610.37 1059.16,-567.32 1134.4,-567.32 1172.01,-610.37"/>
<text text-anchor="middle" x="1096.78" y="-621.67" font-family="Times,serif" font-size="14.00">rp_99: level2 </text>
<text text-anchor="middle" x="1096.78" y="-606.67" font-family="Times,serif" font-size="14.00"> design_offer </text>
<text text-anchor="middle" x="1096.78" y="-591.67" font-family="Times,serif" font-size="14.00"> cost : 63</text>
</g>
<!-- d42093fc&#45;d7cb&#45;11ee&#45;9e69&#45;ac1a3ddd05c7&#45;&gt;d4209582&#45;d7cb&#45;11ee&#45;9e69&#45;ac1a3ddd05c7 -->
<g id="edge22" class="edge">
<title>d42093fc&#45;d7cb&#45;11ee&#45;9e69&#45;ac1a3ddd05c7&#45;&gt;d4209582&#45;d7cb&#45;11ee&#45;9e69&#45;ac1a3ddd05c7</title>
<path fill="none" stroke="black" d="M1096.78,-689.17C1096.78,-682.22 1096.78,-673.82 1096.78,-665.14"/>
<polygon fill="black" stroke="black" points="1100.28,-665.19 1096.78,-655.19 1093.28,-665.19 1100.28,-665.19"/>
</g>
<!-- d420987a&#45;d7cb&#45;11ee&#45;9e69&#45;ac1a3ddd05c7 -->
<g id="node25" class="node">
<title>d420987a&#45;d7cb&#45;11ee&#45;9e69&#45;ac1a3ddd05c7</title>
<polygon fill="none" stroke="black" points="1340.01,-610.37 1302.4,-653.42 1227.16,-653.42 1189.54,-610.37 1227.16,-567.32 1302.4,-567.32 1340.01,-610.37"/>
<text text-anchor="middle" x="1264.78" y="-621.67" font-family="Times,serif" font-size="14.00">rp_9: level3 </text>
<text text-anchor="middle" x="1264.78" y="-606.67" font-family="Times,serif" font-size="14.00"> design_offer </text>
<text text-anchor="middle" x="1264.78" y="-591.67" font-family="Times,serif" font-size="14.00"> cost : 20</text>
</g>
<!-- d42096ea&#45;d7cb&#45;11ee&#45;9e69&#45;ac1a3ddd05c7&#45;&gt;d420987a&#45;d7cb&#45;11ee&#45;9e69&#45;ac1a3ddd05c7 -->
<g id="edge24" class="edge">
<title>d42096ea&#45;d7cb&#45;11ee&#45;9e69&#45;ac1a3ddd05c7&#45;&gt;d420987a&#45;d7cb&#45;11ee&#45;9e69&#45;ac1a3ddd05c7</title>
<path fill="none" stroke="black" d="M1242.6,-689.61C1244.63,-682.46 1247.11,-673.71 1249.67,-664.68"/>
<polygon fill="black" stroke="black" points="1253.03,-665.66 1252.39,-655.08 1246.3,-663.75 1253.03,-665.66"/>
</g>
<!-- d42099c4&#45;d7cb&#45;11ee&#45;9e69&#45;ac1a3ddd05c7 -->
<g id="node26" class="node">
<title>d42099c4&#45;d7cb&#45;11ee&#45;9e69&#45;ac1a3ddd05c7</title>
<polygon fill="none" stroke="black" points="1333.28,-531.1 1208.28,-531.1 1208.28,-478.1 1333.28,-478.1 1333.28,-531.1"/>
<text text-anchor="middle" x="1270.78" y="-515.9" font-family="Times,serif" font-size="14.00">r0: create_proposal </text>
<text text-anchor="middle" x="1270.78" y="-500.9" font-family="Times,serif" font-size="14.00"> Type: replace </text>
<text text-anchor="middle" x="1270.78" y="-485.9" font-family="Times,serif" font-size="14.00"> Direction: Core</text>
</g>
<!-- d420987a&#45;d7cb&#45;11ee&#45;9e69&#45;ac1a3ddd05c7&#45;&gt;d42099c4&#45;d7cb&#45;11ee&#45;9e69&#45;ac1a3ddd05c7 -->
<g id="edge25" class="edge">
<title>d420987a&#45;d7cb&#45;11ee&#45;9e69&#45;ac1a3ddd05c7&#45;&gt;d42099c4&#45;d7cb&#45;11ee&#45;9e69&#45;ac1a3ddd05c7</title>
<path fill="none" stroke="black" d="M1267.24,-566.86C1267.7,-558.91 1268.17,-550.65 1268.62,-542.87"/>
<polygon fill="black" stroke="black" points="1272.11,-543.22 1269.19,-533.04 1265.12,-542.82 1272.11,-543.22"/>
</g>
<!-- d4209d7a&#45;d7cb&#45;11ee&#45;9e69&#45;ac1a3ddd05c7 -->
<g id="node27" class="node">
<title>d4209d7a&#45;d7cb&#45;11ee&#45;9e69&#45;ac1a3ddd05c7</title>
<ellipse fill="none" stroke="black" cx="1113.78" cy="-424.1" rx="48.99" ry="18"/>
<text text-anchor="middle" x="1113.78" y="-420.4" font-family="Times,serif" font-size="14.00">r_2: level2</text>
</g>
<!-- d42099c4&#45;d7cb&#45;11ee&#45;9e69&#45;ac1a3ddd05c7&#45;&gt;d4209d7a&#45;d7cb&#45;11ee&#45;9e69&#45;ac1a3ddd05c7 -->
<g id="edge26" class="edge">
<title>d42099c4&#45;d7cb&#45;11ee&#45;9e69&#45;ac1a3ddd05c7&#45;&gt;d4209d7a&#45;d7cb&#45;11ee&#45;9e69&#45;ac1a3ddd05c7</title>
<path fill="none" stroke="black" d="M1218.93,-477.68C1197.03,-466.72 1171.98,-454.2 1151.83,-444.12"/>
<polygon fill="black" stroke="black" points="1153.64,-441.12 1143.13,-439.77 1150.51,-447.38 1153.64,-441.12"/>
</g>
<!-- d420ad10&#45;d7cb&#45;11ee&#45;9e69&#45;ac1a3ddd05c7 -->
<g id="node37" class="node">
<title>d420ad10&#45;d7cb&#45;11ee&#45;9e69&#45;ac1a3ddd05c7</title>
<ellipse fill="none" stroke="black" cx="1270.78" cy="-424.1" rx="48.99" ry="18"/>
<text text-anchor="middle" x="1270.78" y="-420.4" font-family="Times,serif" font-size="14.00">r_4: level2</text>
</g>
<!-- d42099c4&#45;d7cb&#45;11ee&#45;9e69&#45;ac1a3ddd05c7&#45;&gt;d420ad10&#45;d7cb&#45;11ee&#45;9e69&#45;ac1a3ddd05c7 -->
<g id="edge36" class="edge">
<title>d42099c4&#45;d7cb&#45;11ee&#45;9e69&#45;ac1a3ddd05c7&#45;&gt;d420ad10&#45;d7cb&#45;11ee&#45;9e69&#45;ac1a3ddd05c7</title>
<path fill="none" stroke="black" d="M1270.78,-477.89C1270.78,-470.17 1270.78,-461.66 1270.78,-453.76"/>
<polygon fill="black" stroke="black" points="1274.28,-453.94 1270.78,-443.94 1267.28,-453.94 1274.28,-453.94"/>
</g>
<!-- d420b012&#45;d7cb&#45;11ee&#45;9e69&#45;ac1a3ddd05c7 -->
<g id="node39" class="node">
<title>d420b012&#45;d7cb&#45;11ee&#45;9e69&#45;ac1a3ddd05c7</title>
<ellipse fill="none" stroke="black" cx="1426.78" cy="-424.1" rx="48.99" ry="18"/>
<text text-anchor="middle" x="1426.78" y="-420.4" font-family="Times,serif" font-size="14.00">r_3: level3</text>
</g>
<!-- d42099c4&#45;d7cb&#45;11ee&#45;9e69&#45;ac1a3ddd05c7&#45;&gt;d420b012&#45;d7cb&#45;11ee&#45;9e69&#45;ac1a3ddd05c7 -->
<g id="edge38" class="edge">
<title>d42099c4&#45;d7cb&#45;11ee&#45;9e69&#45;ac1a3ddd05c7&#45;&gt;d420b012&#45;d7cb&#45;11ee&#45;9e69&#45;ac1a3ddd05c7</title>
<path fill="none" stroke="black" d="M1322.29,-477.68C1343.96,-466.77 1368.72,-454.31 1388.69,-444.26"/>
<polygon fill="black" stroke="black" points="1390.24,-447.4 1397.6,-439.78 1387.1,-441.15 1390.24,-447.4"/>
</g>
<!-- d420b2f6&#45;d7cb&#45;11ee&#45;9e69&#45;ac1a3ddd05c7 -->
<g id="node41" class="node">
<title>d420b2f6&#45;d7cb&#45;11ee&#45;9e69&#45;ac1a3ddd05c7</title>
<ellipse fill="none" stroke="black" cx="1603.78" cy="-424.1" rx="48.99" ry="18"/>
<text text-anchor="middle" x="1603.78" y="-420.4" font-family="Times,serif" font-size="14.00">r_5: level3</text>
</g>
<!-- d42099c4&#45;d7cb&#45;11ee&#45;9e69&#45;ac1a3ddd05c7&#45;&gt;d420b2f6&#45;d7cb&#45;11ee&#45;9e69&#45;ac1a3ddd05c7 -->
<g id="edge40" class="edge">
<title>d42099c4&#45;d7cb&#45;11ee&#45;9e69&#45;ac1a3ddd05c7&#45;&gt;d420b2f6&#45;d7cb&#45;11ee&#45;9e69&#45;ac1a3ddd05c7</title>
<path fill="none" stroke="black" d="M1333.41,-488.83C1396.78,-473.89 1493.56,-451.08 1552.51,-437.18"/>
<polygon fill="black" stroke="black" points="1553.01,-440.66 1561.95,-434.96 1551.41,-433.85 1553.01,-440.66"/>
</g>
<!-- d4209f14&#45;d7cb&#45;11ee&#45;9e69&#45;ac1a3ddd05c7 -->
<g id="node28" class="node">
<title>d4209f14&#45;d7cb&#45;11ee&#45;9e69&#45;ac1a3ddd05c7</title>
<polygon fill="none" stroke="black" points="1162.41,-326.82 1117.59,-369.87 1027.96,-369.87 983.15,-326.82 1027.96,-283.77 1117.59,-283.77 1162.41,-326.82"/>
<text text-anchor="middle" x="1072.78" y="-338.12" font-family="Times,serif" font-size="14.00">rp_15: level3 </text>
<text text-anchor="middle" x="1072.78" y="-323.12" font-family="Times,serif" font-size="14.00"> create_proposal </text>
<text text-anchor="middle" x="1072.78" y="-308.12" font-family="Times,serif" font-size="14.00"> cost : 100</text>
</g>
<!-- d4209d7a&#45;d7cb&#45;11ee&#45;9e69&#45;ac1a3ddd05c7&#45;&gt;d4209f14&#45;d7cb&#45;11ee&#45;9e69&#45;ac1a3ddd05c7 -->
<g id="edge27" class="edge">
<title>d4209d7a&#45;d7cb&#45;11ee&#45;9e69&#45;ac1a3ddd05c7&#45;&gt;d4209f14&#45;d7cb&#45;11ee&#45;9e69&#45;ac1a3ddd05c7</title>
<path fill="none" stroke="black" d="M1106.45,-406.06C1103.3,-398.75 1099.44,-389.77 1095.46,-380.54"/>
<polygon fill="black" stroke="black" points="1098.73,-379.27 1091.56,-371.47 1092.3,-382.03 1098.73,-379.27"/>
</g>
<!-- d420a072&#45;d7cb&#45;11ee&#45;9e69&#45;ac1a3ddd05c7 -->
<g id="node29" class="node">
<title>d420a072&#45;d7cb&#45;11ee&#45;9e69&#45;ac1a3ddd05c7</title>
<polygon fill="none" stroke="black" points="1131.28,-247.55 984.28,-247.55 984.28,-194.55 1131.28,-194.55 1131.28,-247.55"/>
<text text-anchor="middle" x="1057.78" y="-232.35" font-family="Times,serif" font-size="14.00">r0: four_eyes_principle </text>
<text text-anchor="middle" x="1057.78" y="-217.35" font-family="Times,serif" font-size="14.00"> Type: insert </text>
<text text-anchor="middle" x="1057.78" y="-202.35" font-family="Times,serif" font-size="14.00"> Direction: before</text>
</g>
<!-- d4209f14&#45;d7cb&#45;11ee&#45;9e69&#45;ac1a3ddd05c7&#45;&gt;d420a072&#45;d7cb&#45;11ee&#45;9e69&#45;ac1a3ddd05c7 -->
<g id="edge28" class="edge">
<title>d4209f14&#45;d7cb&#45;11ee&#45;9e69&#45;ac1a3ddd05c7&#45;&gt;d420a072&#45;d7cb&#45;11ee&#45;9e69&#45;ac1a3ddd05c7</title>
<path fill="none" stroke="black" d="M1066.63,-283.31C1065.48,-275.36 1064.29,-267.1 1063.16,-259.32"/>
<polygon fill="black" stroke="black" points="1066.64,-258.87 1061.74,-249.48 1059.71,-259.87 1066.64,-258.87"/>
</g>
<!-- d420ab44&#45;d7cb&#45;11ee&#45;9e69&#45;ac1a3ddd05c7 -->
<g id="node36" class="node">
<title>d420ab44&#45;d7cb&#45;11ee&#45;9e69&#45;ac1a3ddd05c7</title>
<polygon fill="none" stroke="black" points="1297.78,-247.55 1149.78,-247.55 1149.78,-194.55 1297.78,-194.55 1297.78,-247.55"/>
<text text-anchor="middle" x="1223.78" y="-232.35" font-family="Times,serif" font-size="14.00">r0: decide_on_proposal </text>
<text text-anchor="middle" x="1223.78" y="-217.35" font-family="Times,serif" font-size="14.00"> Type: delete </text>
<text text-anchor="middle" x="1223.78" y="-202.35" font-family="Times,serif" font-size="14.00"> Direction: any</text>
</g>
<!-- d4209f14&#45;d7cb&#45;11ee&#45;9e69&#45;ac1a3ddd05c7&#45;&gt;d420ab44&#45;d7cb&#45;11ee&#45;9e69&#45;ac1a3ddd05c7 -->
<g id="edge35" class="edge">
<title>d4209f14&#45;d7cb&#45;11ee&#45;9e69&#45;ac1a3ddd05c7&#45;&gt;d420ab44&#45;d7cb&#45;11ee&#45;9e69&#45;ac1a3ddd05c7</title>
<path fill="none" stroke="black" d="M1124.74,-290.11C1141.57,-278.54 1160.14,-265.79 1176.6,-254.47"/>
<polygon fill="black" stroke="black" points="1178.51,-257.4 1184.77,-248.85 1174.55,-251.63 1178.51,-257.4"/>
</g>
<!-- d420a2ac&#45;d7cb&#45;11ee&#45;9e69&#45;ac1a3ddd05c7 -->
<g id="node30" class="node">
<title>d420a2ac&#45;d7cb&#45;11ee&#45;9e69&#45;ac1a3ddd05c7</title>
<ellipse fill="none" stroke="black" cx="882.78" cy="-140.55" rx="48.99" ry="18"/>
<text text-anchor="middle" x="882.78" y="-136.85" font-family="Times,serif" font-size="14.00">r_4: level2</text>
</g>
<!-- d420a072&#45;d7cb&#45;11ee&#45;9e69&#45;ac1a3ddd05c7&#45;&gt;d420a2ac&#45;d7cb&#45;11ee&#45;9e69&#45;ac1a3ddd05c7 -->
<g id="edge29" class="edge">
<title>d420a072&#45;d7cb&#45;11ee&#45;9e69&#45;ac1a3ddd05c7&#45;&gt;d420a2ac&#45;d7cb&#45;11ee&#45;9e69&#45;ac1a3ddd05c7</title>
<path fill="none" stroke="black" d="M999.99,-194.13C974.89,-182.87 946.1,-169.95 923.33,-159.74"/>
<polygon fill="black" stroke="black" points="924.94,-156.63 914.38,-155.73 922.07,-163.01 924.94,-156.63"/>
</g>
<!-- d420a590&#45;d7cb&#45;11ee&#45;9e69&#45;ac1a3ddd05c7 -->
<g id="node32" class="node">
<title>d420a590&#45;d7cb&#45;11ee&#45;9e69&#45;ac1a3ddd05c7</title>
<ellipse fill="none" stroke="black" cx="1057.78" cy="-140.55" rx="48.99" ry="18"/>
<text text-anchor="middle" x="1057.78" y="-136.85" font-family="Times,serif" font-size="14.00">r_3: level3</text>
</g>
<!-- d420a072&#45;d7cb&#45;11ee&#45;9e69&#45;ac1a3ddd05c7&#45;&gt;d420a590&#45;d7cb&#45;11ee&#45;9e69&#45;ac1a3ddd05c7 -->
<g id="edge31" class="edge">
<title>d420a072&#45;d7cb&#45;11ee&#45;9e69&#45;ac1a3ddd05c7&#45;&gt;d420a590&#45;d7cb&#45;11ee&#45;9e69&#45;ac1a3ddd05c7</title>
<path fill="none" stroke="black" d="M1057.78,-194.34C1057.78,-186.62 1057.78,-178.11 1057.78,-170.21"/>
<polygon fill="black" stroke="black" points="1061.28,-170.39 1057.78,-160.39 1054.28,-170.39 1061.28,-170.39"/>
</g>
<!-- d420a860&#45;d7cb&#45;11ee&#45;9e69&#45;ac1a3ddd05c7 -->
<g id="node34" class="node">
<title>d420a860&#45;d7cb&#45;11ee&#45;9e69&#45;ac1a3ddd05c7</title>
<ellipse fill="none" stroke="black" cx="1231.78" cy="-140.55" rx="48.99" ry="18"/>
<text text-anchor="middle" x="1231.78" y="-136.85" font-family="Times,serif" font-size="14.00">r_5: level3</text>
</g>
<!-- d420a072&#45;d7cb&#45;11ee&#45;9e69&#45;ac1a3ddd05c7&#45;&gt;d420a860&#45;d7cb&#45;11ee&#45;9e69&#45;ac1a3ddd05c7 -->
<g id="edge33" class="edge">
<title>d420a072&#45;d7cb&#45;11ee&#45;9e69&#45;ac1a3ddd05c7&#45;&gt;d420a860&#45;d7cb&#45;11ee&#45;9e69&#45;ac1a3ddd05c7</title>
<path fill="none" stroke="black" d="M1115.23,-194.13C1140.19,-182.87 1168.82,-169.95 1191.46,-159.74"/>
<polygon fill="black" stroke="black" points="1192.67,-163.03 1200.35,-155.73 1189.79,-156.65 1192.67,-163.03"/>
</g>
<!-- d420a432&#45;d7cb&#45;11ee&#45;9e69&#45;ac1a3ddd05c7 -->
<g id="node31" class="node">
<title>d420a432&#45;d7cb&#45;11ee&#45;9e69&#45;ac1a3ddd05c7</title>
<polygon fill="none" stroke="black" points="931.33,-43.27 877.56,-86.32 770,-86.32 716.22,-43.27 770,-0.22 877.56,-0.22 931.33,-43.27"/>
<text text-anchor="middle" x="823.78" y="-54.57" font-family="Times,serif" font-size="14.00">rp_24: level3 </text>
<text text-anchor="middle" x="823.78" y="-39.57" font-family="Times,serif" font-size="14.00"> four_eyes_principle </text>
<text text-anchor="middle" x="823.78" y="-24.57" font-family="Times,serif" font-size="14.00"> cost : 63</text>
</g>
<!-- d420a2ac&#45;d7cb&#45;11ee&#45;9e69&#45;ac1a3ddd05c7&#45;&gt;d420a432&#45;d7cb&#45;11ee&#45;9e69&#45;ac1a3ddd05c7 -->
<g id="edge30" class="edge">
<title>d420a2ac&#45;d7cb&#45;11ee&#45;9e69&#45;ac1a3ddd05c7&#45;&gt;d420a432&#45;d7cb&#45;11ee&#45;9e69&#45;ac1a3ddd05c7</title>
<path fill="none" stroke="black" d="M872.23,-122.52C867.56,-114.97 861.78,-105.64 855.87,-96.09"/>
<polygon fill="black" stroke="black" points="858.98,-94.47 850.74,-87.81 853.03,-98.16 858.98,-94.47"/>
</g>
<!-- d420a702&#45;d7cb&#45;11ee&#45;9e69&#45;ac1a3ddd05c7 -->
<g id="node33" class="node">
<title>d420a702&#45;d7cb&#45;11ee&#45;9e69&#45;ac1a3ddd05c7</title>
<polygon fill="none" stroke="black" points="1165.33,-43.27 1111.56,-86.32 1004,-86.32 950.22,-43.27 1004,-0.22 1111.56,-0.22 1165.33,-43.27"/>
<text text-anchor="middle" x="1057.78" y="-54.57" font-family="Times,serif" font-size="14.00">rp_24: level3 </text>
<text text-anchor="middle" x="1057.78" y="-39.57" font-family="Times,serif" font-size="14.00"> four_eyes_principle </text>
<text text-anchor="middle" x="1057.78" y="-24.57" font-family="Times,serif" font-size="14.00"> cost : 53</text>
</g>
<!-- d420a590&#45;d7cb&#45;11ee&#45;9e69&#45;ac1a3ddd05c7&#45;&gt;d420a702&#45;d7cb&#45;11ee&#45;9e69&#45;ac1a3ddd05c7 -->
<g id="edge32" class="edge">
<title>d420a590&#45;d7cb&#45;11ee&#45;9e69&#45;ac1a3ddd05c7&#45;&gt;d420a702&#45;d7cb&#45;11ee&#45;9e69&#45;ac1a3ddd05c7</title>
<path fill="none" stroke="black" d="M1057.78,-122.07C1057.78,-115.13 1057.78,-106.72 1057.78,-98.05"/>
<polygon fill="black" stroke="black" points="1061.28,-98.09 1057.78,-88.09 1054.28,-98.09 1061.28,-98.09"/>
</g>
<!-- d420a9e6&#45;d7cb&#45;11ee&#45;9e69&#45;ac1a3ddd05c7 -->
<g id="node35" class="node">
<title>d420a9e6&#45;d7cb&#45;11ee&#45;9e69&#45;ac1a3ddd05c7</title>
<polygon fill="none" stroke="black" points="1399.33,-43.27 1345.56,-86.32 1238,-86.32 1184.22,-43.27 1238,-0.22 1345.56,-0.22 1399.33,-43.27"/>
<text text-anchor="middle" x="1291.78" y="-54.57" font-family="Times,serif" font-size="14.00">rp_24: level3 </text>
<text text-anchor="middle" x="1291.78" y="-39.57" font-family="Times,serif" font-size="14.00"> four_eyes_principle </text>
<text text-anchor="middle" x="1291.78" y="-24.57" font-family="Times,serif" font-size="14.00"> cost : 19</text>
</g>
<!-- d420a860&#45;d7cb&#45;11ee&#45;9e69&#45;ac1a3ddd05c7&#45;&gt;d420a9e6&#45;d7cb&#45;11ee&#45;9e69&#45;ac1a3ddd05c7 -->
<g id="edge34" class="edge">
<title>d420a860&#45;d7cb&#45;11ee&#45;9e69&#45;ac1a3ddd05c7&#45;&gt;d420a9e6&#45;d7cb&#45;11ee&#45;9e69&#45;ac1a3ddd05c7</title>
<path fill="none" stroke="black" d="M1242.5,-122.52C1247.26,-114.97 1253.13,-105.64 1259.14,-96.09"/>
<polygon fill="black" stroke="black" points="1261.99,-98.13 1264.36,-87.81 1256.07,-94.4 1261.99,-98.13"/>
</g>
<!-- d420ae96&#45;d7cb&#45;11ee&#45;9e69&#45;ac1a3ddd05c7 -->
<g id="node38" class="node">
<title>d420ae96&#45;d7cb&#45;11ee&#45;9e69&#45;ac1a3ddd05c7</title>
<polygon fill="none" stroke="black" points="1360.41,-326.82 1315.59,-369.87 1225.96,-369.87 1181.15,-326.82 1225.96,-283.77 1315.59,-283.77 1360.41,-326.82"/>
<text text-anchor="middle" x="1270.78" y="-338.12" font-family="Times,serif" font-size="14.00">rp_15: level2 </text>
<text text-anchor="middle" x="1270.78" y="-323.12" font-family="Times,serif" font-size="14.00"> create_proposal </text>
<text text-anchor="middle" x="1270.78" y="-308.12" font-family="Times,serif" font-size="14.00"> cost : 15</text>
</g>
<!-- d420ad10&#45;d7cb&#45;11ee&#45;9e69&#45;ac1a3ddd05c7&#45;&gt;d420ae96&#45;d7cb&#45;11ee&#45;9e69&#45;ac1a3ddd05c7 -->
<g id="edge37" class="edge">
<title>d420ad10&#45;d7cb&#45;11ee&#45;9e69&#45;ac1a3ddd05c7&#45;&gt;d420ae96&#45;d7cb&#45;11ee&#45;9e69&#45;ac1a3ddd05c7</title>
<path fill="none" stroke="black" d="M1270.78,-405.62C1270.78,-398.67 1270.78,-390.27 1270.78,-381.6"/>
<polygon fill="black" stroke="black" points="1274.28,-381.64 1270.78,-371.64 1267.28,-381.64 1274.28,-381.64"/>
</g>
<!-- d420b1a2&#45;d7cb&#45;11ee&#45;9e69&#45;ac1a3ddd05c7 -->
<g id="node40" class="node">
<title>d420b1a2&#45;d7cb&#45;11ee&#45;9e69&#45;ac1a3ddd05c7</title>
<polygon fill="none" stroke="black" points="1558.41,-326.82 1513.59,-369.87 1423.96,-369.87 1379.15,-326.82 1423.96,-283.77 1513.59,-283.77 1558.41,-326.82"/>
<text text-anchor="middle" x="1468.78" y="-338.12" font-family="Times,serif" font-size="14.00">rp_15: level3 </text>
<text text-anchor="middle" x="1468.78" y="-323.12" font-family="Times,serif" font-size="14.00"> create_proposal </text>
<text text-anchor="middle" x="1468.78" y="-308.12" font-family="Times,serif" font-size="14.00"> cost : 26</text>
</g>
<!-- d420b012&#45;d7cb&#45;11ee&#45;9e69&#45;ac1a3ddd05c7&#45;&gt;d420b1a2&#45;d7cb&#45;11ee&#45;9e69&#45;ac1a3ddd05c7 -->
<g id="edge39" class="edge">
<title>d420b012&#45;d7cb&#45;11ee&#45;9e69&#45;ac1a3ddd05c7&#45;&gt;d420b1a2&#45;d7cb&#45;11ee&#45;9e69&#45;ac1a3ddd05c7</title>
<path fill="none" stroke="black" d="M1434.29,-406.06C1437.51,-398.75 1441.47,-389.77 1445.54,-380.54"/>
<polygon fill="black" stroke="black" points="1448.71,-382.02 1449.54,-371.46 1442.3,-379.2 1448.71,-382.02"/>
</g>
<!-- d420b468&#45;d7cb&#45;11ee&#45;9e69&#45;ac1a3ddd05c7 -->
<g id="node42" class="node">
<title>d420b468&#45;d7cb&#45;11ee&#45;9e69&#45;ac1a3ddd05c7</title>
<polygon fill="none" stroke="black" points="1756.41,-326.82 1711.59,-369.87 1621.96,-369.87 1577.15,-326.82 1621.96,-283.77 1711.59,-283.77 1756.41,-326.82"/>
<text text-anchor="middle" x="1666.78" y="-338.12" font-family="Times,serif" font-size="14.00">rp_15: level3 </text>
<text text-anchor="middle" x="1666.78" y="-323.12" font-family="Times,serif" font-size="14.00"> create_proposal </text>
<text text-anchor="middle" x="1666.78" y="-308.12" font-family="Times,serif" font-size="14.00"> cost : 98</text>
</g>
<!-- d420b2f6&#45;d7cb&#45;11ee&#45;9e69&#45;ac1a3ddd05c7&#45;&gt;d420b468&#45;d7cb&#45;11ee&#45;9e69&#45;ac1a3ddd05c7 -->
<g id="edge41" class="edge">
<title>d420b2f6&#45;d7cb&#45;11ee&#45;9e69&#45;ac1a3ddd05c7&#45;&gt;d420b468&#45;d7cb&#45;11ee&#45;9e69&#45;ac1a3ddd05c7</title>
<path fill="none" stroke="black" d="M1614.75,-406.5C1619.83,-398.83 1626.16,-389.24 1632.65,-379.44"/>
<polygon fill="black" stroke="black" points="1635.44,-381.55 1638.04,-371.28 1629.61,-377.69 1635.44,-381.55"/>
</g>
<!-- d420b760&#45;d7cb&#45;11ee&#45;9e69&#45;ac1a3ddd05c7 -->
<g id="node44" class="node">
<title>d420b760&#45;d7cb&#45;11ee&#45;9e69&#45;ac1a3ddd05c7</title>
<polygon fill="none" stroke="black" points="1508.01,-610.37 1470.4,-653.42 1395.16,-653.42 1357.54,-610.37 1395.16,-567.32 1470.4,-567.32 1508.01,-610.37"/>
<text text-anchor="middle" x="1432.78" y="-621.67" font-family="Times,serif" font-size="14.00">rp_9: level3 </text>
<text text-anchor="middle" x="1432.78" y="-606.67" font-family="Times,serif" font-size="14.00"> design_offer </text>
<text text-anchor="middle" x="1432.78" y="-591.67" font-family="Times,serif" font-size="14.00"> cost : 38</text>
</g>
<!-- d420b5d0&#45;d7cb&#45;11ee&#45;9e69&#45;ac1a3ddd05c7&#45;&gt;d420b760&#45;d7cb&#45;11ee&#45;9e69&#45;ac1a3ddd05c7 -->
<g id="edge43" class="edge">
<title>d420b5d0&#45;d7cb&#45;11ee&#45;9e69&#45;ac1a3ddd05c7&#45;&gt;d420b760&#45;d7cb&#45;11ee&#45;9e69&#45;ac1a3ddd05c7</title>
<path fill="none" stroke="black" d="M1399.93,-689.61C1403,-682.3 1406.77,-673.32 1410.65,-664.09"/>
<polygon fill="black" stroke="black" points="1413.81,-665.59 1414.45,-655.02 1407.35,-662.89 1413.81,-665.59"/>
</g>
</g>
</svg>
