<?xml version="1.0" encoding="UTF-8" standalone="no"?>
<!DOCTYPE svg PUBLIC "-//W3C//DTD SVG 1.1//EN"
 "http://www.w3.org/Graphics/SVG/1.1/DTD/svg11.dtd">
<!-- Generated by graphviz version 7.1.0 (0)
 -->
<!-- Title: CallTree Pages: 1 -->
<svg width="806pt" height="256pt"
 viewBox="0.00 0.00 806.15 255.55" xmlns="http://www.w3.org/2000/svg" xmlns:xlink="http://www.w3.org/1999/xlink">
<g id="graph0" class="graph" transform="scale(1 1) rotate(0) translate(4 251.55)">
<title>CallTree</title>
<polygon fill="white" stroke="none" points="-4,4 -4,-251.55 802.15,-251.55 802.15,4 -4,4"/>
<!-- f8343fd0&#45;d642&#45;11ee&#45;b104&#45;ac1a3ddd05c7 -->
<g id="node1" class="node">
<title>f8343fd0&#45;d642&#45;11ee&#45;b104&#45;ac1a3ddd05c7</title>
<polygon fill="none" stroke="black" points="443.54,-247.55 338.54,-247.55 338.54,-194.55 443.54,-194.55 443.54,-247.55"/>
<text text-anchor="middle" x="391.04" y="-232.35" font-family="Times,serif" font-size="14.00">a1: new_tender </text>
<text text-anchor="middle" x="391.04" y="-217.35" font-family="Times,serif" font-size="14.00"> Type: Core </text>
<text text-anchor="middle" x="391.04" y="-202.35" font-family="Times,serif" font-size="14.00"> Direction: Core</text>
</g>
<!-- f83447c8&#45;d642&#45;11ee&#45;b104&#45;ac1a3ddd05c7 -->
<g id="node2" class="node">
<title>f83447c8&#45;d642&#45;11ee&#45;b104&#45;ac1a3ddd05c7</title>
<ellipse fill="none" stroke="black" cx="93.04" cy="-140.55" rx="48.99" ry="18"/>
<text text-anchor="middle" x="93.04" y="-136.85" font-family="Times,serif" font-size="14.00">r_1: level1</text>
</g>
<!-- f8343fd0&#45;d642&#45;11ee&#45;b104&#45;ac1a3ddd05c7&#45;&gt;f83447c8&#45;d642&#45;11ee&#45;b104&#45;ac1a3ddd05c7 -->
<g id="edge1" class="edge">
<title>f8343fd0&#45;d642&#45;11ee&#45;b104&#45;ac1a3ddd05c7&#45;&gt;f83447c8&#45;d642&#45;11ee&#45;b104&#45;ac1a3ddd05c7</title>
<path fill="none" stroke="black" d="M338.1,-206.1C282.98,-191.59 197.29,-169.01 143.21,-154.77"/>
<polygon fill="black" stroke="black" points="144.2,-151.41 133.64,-152.25 142.42,-158.18 144.2,-151.41"/>
</g>
<!-- f8344bb0&#45;d642&#45;11ee&#45;b104&#45;ac1a3ddd05c7 -->
<g id="node4" class="node">
<title>f8344bb0&#45;d642&#45;11ee&#45;b104&#45;ac1a3ddd05c7</title>
<ellipse fill="none" stroke="black" cx="253.04" cy="-140.55" rx="48.99" ry="18"/>
<text text-anchor="middle" x="253.04" y="-136.85" font-family="Times,serif" font-size="14.00">r_2: level2</text>
</g>
<!-- f8343fd0&#45;d642&#45;11ee&#45;b104&#45;ac1a3ddd05c7&#45;&gt;f8344bb0&#45;d642&#45;11ee&#45;b104&#45;ac1a3ddd05c7 -->
<g id="edge3" class="edge">
<title>f8343fd0&#45;d642&#45;11ee&#45;b104&#45;ac1a3ddd05c7&#45;&gt;f8344bb0&#45;d642&#45;11ee&#45;b104&#45;ac1a3ddd05c7</title>
<path fill="none" stroke="black" d="M345.47,-194.13C326.96,-183.6 305.9,-171.62 288.56,-161.76"/>
<polygon fill="black" stroke="black" points="290.57,-158.87 280.15,-156.97 287.11,-164.96 290.57,-158.87"/>
</g>
<!-- f8344ed0&#45;d642&#45;11ee&#45;b104&#45;ac1a3ddd05c7 -->
<g id="node6" class="node">
<title>f8344ed0&#45;d642&#45;11ee&#45;b104&#45;ac1a3ddd05c7</title>
<ellipse fill="none" stroke="black" cx="391.04" cy="-140.55" rx="48.99" ry="18"/>
<text text-anchor="middle" x="391.04" y="-136.85" font-family="Times,serif" font-size="14.00">r_4: level2</text>
</g>
<!-- f8343fd0&#45;d642&#45;11ee&#45;b104&#45;ac1a3ddd05c7&#45;&gt;f8344ed0&#45;d642&#45;11ee&#45;b104&#45;ac1a3ddd05c7 -->
<g id="edge5" class="edge">
<title>f8343fd0&#45;d642&#45;11ee&#45;b104&#45;ac1a3ddd05c7&#45;&gt;f8344ed0&#45;d642&#45;11ee&#45;b104&#45;ac1a3ddd05c7</title>
<path fill="none" stroke="black" d="M391.04,-194.34C391.04,-186.62 391.04,-178.11 391.04,-170.21"/>
<polygon fill="black" stroke="black" points="394.54,-170.39 391.04,-160.39 387.54,-170.39 394.54,-170.39"/>
</g>
<!-- f83451f0&#45;d642&#45;11ee&#45;b104&#45;ac1a3ddd05c7 -->
<g id="node8" class="node">
<title>f83451f0&#45;d642&#45;11ee&#45;b104&#45;ac1a3ddd05c7</title>
<ellipse fill="none" stroke="black" cx="530.04" cy="-140.55" rx="48.99" ry="18"/>
<text text-anchor="middle" x="530.04" y="-136.85" font-family="Times,serif" font-size="14.00">r_3: level3</text>
</g>
<!-- f8343fd0&#45;d642&#45;11ee&#45;b104&#45;ac1a3ddd05c7&#45;&gt;f83451f0&#45;d642&#45;11ee&#45;b104&#45;ac1a3ddd05c7 -->
<g id="edge7" class="edge">
<title>f8343fd0&#45;d642&#45;11ee&#45;b104&#45;ac1a3ddd05c7&#45;&gt;f83451f0&#45;d642&#45;11ee&#45;b104&#45;ac1a3ddd05c7</title>
<path fill="none" stroke="black" d="M436.93,-194.13C455.58,-183.6 476.79,-171.62 494.25,-161.76"/>
<polygon fill="black" stroke="black" points="495.75,-164.93 502.73,-156.97 492.31,-158.84 495.75,-164.93"/>
</g>
<!-- f83454d4&#45;d642&#45;11ee&#45;b104&#45;ac1a3ddd05c7 -->
<g id="node10" class="node">
<title>f83454d4&#45;d642&#45;11ee&#45;b104&#45;ac1a3ddd05c7</title>
<ellipse fill="none" stroke="black" cx="696.04" cy="-140.55" rx="48.99" ry="18"/>
<text text-anchor="middle" x="696.04" y="-136.85" font-family="Times,serif" font-size="14.00">r_5: level3</text>
</g>
<!-- f8343fd0&#45;d642&#45;11ee&#45;b104&#45;ac1a3ddd05c7&#45;&gt;f83454d4&#45;d642&#45;11ee&#45;b104&#45;ac1a3ddd05c7 -->
<g id="edge9" class="edge">
<title>f8343fd0&#45;d642&#45;11ee&#45;b104&#45;ac1a3ddd05c7&#45;&gt;f83454d4&#45;d642&#45;11ee&#45;b104&#45;ac1a3ddd05c7</title>
<path fill="none" stroke="black" d="M443.81,-206.46C500.6,-191.85 590.23,-168.78 645.95,-154.44"/>
<polygon fill="black" stroke="black" points="646.69,-157.86 655.5,-151.98 644.94,-151.09 646.69,-157.86"/>
</g>
<!-- f8344a0c&#45;d642&#45;11ee&#45;b104&#45;ac1a3ddd05c7 -->
<g id="node3" class="node">
<title>f8344a0c&#45;d642&#45;11ee&#45;b104&#45;ac1a3ddd05c7</title>
<polygon fill="none" stroke="black" points="142.11,-43.27 106.57,-86.32 35.5,-86.32 -0.04,-43.27 35.5,-0.22 106.57,-0.22 142.11,-43.27"/>
<text text-anchor="middle" x="71.04" y="-54.57" font-family="Times,serif" font-size="14.00">rp_1: level1 </text>
<text text-anchor="middle" x="71.04" y="-39.57" font-family="Times,serif" font-size="14.00"> new_tender </text>
<text text-anchor="middle" x="71.04" y="-24.57" font-family="Times,serif" font-size="14.00"> cost : 47</text>
</g>
<!-- f83447c8&#45;d642&#45;11ee&#45;b104&#45;ac1a3ddd05c7&#45;&gt;f8344a0c&#45;d642&#45;11ee&#45;b104&#45;ac1a3ddd05c7 -->
<g id="edge2" class="edge">
<title>f83447c8&#45;d642&#45;11ee&#45;b104&#45;ac1a3ddd05c7&#45;&gt;f8344a0c&#45;d642&#45;11ee&#45;b104&#45;ac1a3ddd05c7</title>
<path fill="none" stroke="black" d="M89.1,-122.52C87.45,-115.36 85.43,-106.61 83.35,-97.58"/>
<polygon fill="black" stroke="black" points="86.79,-96.96 81.13,-88 79.97,-98.53 86.79,-96.96"/>
</g>
<!-- f8344d72&#45;d642&#45;11ee&#45;b104&#45;ac1a3ddd05c7 -->
<g id="node5" class="node">
<title>f8344d72&#45;d642&#45;11ee&#45;b104&#45;ac1a3ddd05c7</title>
<polygon fill="none" stroke="black" points="302.11,-43.27 266.57,-86.32 195.5,-86.32 159.96,-43.27 195.5,-0.22 266.57,-0.22 302.11,-43.27"/>
<text text-anchor="middle" x="231.04" y="-54.57" font-family="Times,serif" font-size="14.00">rp_6: level2 </text>
<text text-anchor="middle" x="231.04" y="-39.57" font-family="Times,serif" font-size="14.00"> new_tender </text>
<text text-anchor="middle" x="231.04" y="-24.57" font-family="Times,serif" font-size="14.00"> cost : 105</text>
</g>
<!-- f8344bb0&#45;d642&#45;11ee&#45;b104&#45;ac1a3ddd05c7&#45;&gt;f8344d72&#45;d642&#45;11ee&#45;b104&#45;ac1a3ddd05c7 -->
<g id="edge4" class="edge">
<title>f8344bb0&#45;d642&#45;11ee&#45;b104&#45;ac1a3ddd05c7&#45;&gt;f8344d72&#45;d642&#45;11ee&#45;b104&#45;ac1a3ddd05c7</title>
<path fill="none" stroke="black" d="M249.1,-122.52C247.45,-115.36 245.43,-106.61 243.35,-97.58"/>
<polygon fill="black" stroke="black" points="246.79,-96.96 241.13,-88 239.97,-98.53 246.79,-96.96"/>
</g>
<!-- f834507e&#45;d642&#45;11ee&#45;b104&#45;ac1a3ddd05c7 -->
<g id="node7" class="node">
<title>f834507e&#45;d642&#45;11ee&#45;b104&#45;ac1a3ddd05c7</title>
<polygon fill="none" stroke="black" points="462.11,-43.27 426.57,-86.32 355.5,-86.32 319.96,-43.27 355.5,-0.22 426.57,-0.22 462.11,-43.27"/>
<text text-anchor="middle" x="391.04" y="-54.57" font-family="Times,serif" font-size="14.00">rp_6: level2 </text>
<text text-anchor="middle" x="391.04" y="-39.57" font-family="Times,serif" font-size="14.00"> new_tender </text>
<text text-anchor="middle" x="391.04" y="-24.57" font-family="Times,serif" font-size="14.00"> cost : 121</text>
</g>
<!-- f8344ed0&#45;d642&#45;11ee&#45;b104&#45;ac1a3ddd05c7&#45;&gt;f834507e&#45;d642&#45;11ee&#45;b104&#45;ac1a3ddd05c7 -->
<g id="edge6" class="edge">
<title>f8344ed0&#45;d642&#45;11ee&#45;b104&#45;ac1a3ddd05c7&#45;&gt;f834507e&#45;d642&#45;11ee&#45;b104&#45;ac1a3ddd05c7</title>
<path fill="none" stroke="black" d="M391.04,-122.07C391.04,-115.13 391.04,-106.72 391.04,-98.05"/>
<polygon fill="black" stroke="black" points="394.54,-98.09 391.04,-88.09 387.54,-98.09 394.54,-98.09"/>
</g>
<!-- f8345380&#45;d642&#45;11ee&#45;b104&#45;ac1a3ddd05c7 -->
<g id="node9" class="node">
<title>f8345380&#45;d642&#45;11ee&#45;b104&#45;ac1a3ddd05c7</title>
<polygon fill="none" stroke="black" points="630.27,-43.27 592.65,-86.32 517.42,-86.32 479.8,-43.27 517.42,-0.22 592.65,-0.22 630.27,-43.27"/>
<text text-anchor="middle" x="555.04" y="-54.57" font-family="Times,serif" font-size="14.00">rp_13: level3 </text>
<text text-anchor="middle" x="555.04" y="-39.57" font-family="Times,serif" font-size="14.00"> new_tender </text>
<text text-anchor="middle" x="555.04" y="-24.57" font-family="Times,serif" font-size="14.00"> cost : 52</text>
</g>
<!-- f83451f0&#45;d642&#45;11ee&#45;b104&#45;ac1a3ddd05c7&#45;&gt;f8345380&#45;d642&#45;11ee&#45;b104&#45;ac1a3ddd05c7 -->
<g id="edge8" class="edge">
<title>f83451f0&#45;d642&#45;11ee&#45;b104&#45;ac1a3ddd05c7&#45;&gt;f8345380&#45;d642&#45;11ee&#45;b104&#45;ac1a3ddd05c7</title>
<path fill="none" stroke="black" d="M534.5,-122.52C536.38,-115.36 538.68,-106.61 541.05,-97.58"/>
<polygon fill="black" stroke="black" points="544.41,-98.55 543.56,-87.99 537.64,-96.77 544.41,-98.55"/>
</g>
<!-- f83456b4&#45;d642&#45;11ee&#45;b104&#45;ac1a3ddd05c7 -->
<g id="node11" class="node">
<title>f83456b4&#45;d642&#45;11ee&#45;b104&#45;ac1a3ddd05c7</title>
<polygon fill="none" stroke="black" points="798.27,-43.27 760.65,-86.32 685.42,-86.32 647.8,-43.27 685.42,-0.22 760.65,-0.22 798.27,-43.27"/>
<text text-anchor="middle" x="723.04" y="-54.57" font-family="Times,serif" font-size="14.00">rp_13: level3 </text>
<text text-anchor="middle" x="723.04" y="-39.57" font-family="Times,serif" font-size="14.00"> new_tender </text>
<text text-anchor="middle" x="723.04" y="-24.57" font-family="Times,serif" font-size="14.00"> cost : 120</text>
</g>
<!-- f83454d4&#45;d642&#45;11ee&#45;b104&#45;ac1a3ddd05c7&#45;&gt;f83456b4&#45;d642&#45;11ee&#45;b104&#45;ac1a3ddd05c7 -->
<g id="edge10" class="edge">
<title>f83454d4&#45;d642&#45;11ee&#45;b104&#45;ac1a3ddd05c7&#45;&gt;f83456b4&#45;d642&#45;11ee&#45;b104&#45;ac1a3ddd05c7</title>
<path fill="none" stroke="black" d="M700.86,-122.52C702.89,-115.36 705.37,-106.61 707.93,-97.58"/>
<polygon fill="black" stroke="black" points="711.29,-98.56 710.65,-87.98 704.55,-96.65 711.29,-98.56"/>
</g>
</g>
</svg>
