<?xml version="1.0" encoding="UTF-8" standalone="no"?>
<!DOCTYPE svg PUBLIC "-//W3C//DTD SVG 1.1//EN"
 "http://www.w3.org/Graphics/SVG/1.1/DTD/svg11.dtd">
<!-- Generated by graphviz version 7.1.0 (0)
 -->
<!-- Title: CallTree Pages: 1 -->
<svg width="414pt" height="256pt"
 viewBox="0.00 0.00 414.33 255.55" xmlns="http://www.w3.org/2000/svg" xmlns:xlink="http://www.w3.org/1999/xlink">
<g id="graph0" class="graph" transform="scale(1 1) rotate(0) translate(4 251.55)">
<title>CallTree</title>
<polygon fill="white" stroke="none" points="-4,4 -4,-251.55 410.33,-251.55 410.33,4 -4,4"/>
<!-- f847a96c&#45;d642&#45;11ee&#45;b104&#45;ac1a3ddd05c7 -->
<g id="node1" class="node">
<title>f847a96c&#45;d642&#45;11ee&#45;b104&#45;ac1a3ddd05c7</title>
<polygon fill="none" stroke="black" points="269.66,-247.55 134.66,-247.55 134.66,-194.55 269.66,-194.55 269.66,-247.55"/>
<text text-anchor="middle" x="202.16" y="-232.35" font-family="Times,serif" font-size="14.00">a8: contact_suppliers </text>
<text text-anchor="middle" x="202.16" y="-217.35" font-family="Times,serif" font-size="14.00"> Type: Core </text>
<text text-anchor="middle" x="202.16" y="-202.35" font-family="Times,serif" font-size="14.00"> Direction: Core</text>
</g>
<!-- f847ad90&#45;d642&#45;11ee&#45;b104&#45;ac1a3ddd05c7 -->
<g id="node2" class="node">
<title>f847ad90&#45;d642&#45;11ee&#45;b104&#45;ac1a3ddd05c7</title>
<ellipse fill="none" stroke="black" cx="121.16" cy="-140.55" rx="48.99" ry="18"/>
<text text-anchor="middle" x="121.16" y="-136.85" font-family="Times,serif" font-size="14.00">r_3: level3</text>
</g>
<!-- f847a96c&#45;d642&#45;11ee&#45;b104&#45;ac1a3ddd05c7&#45;&gt;f847ad90&#45;d642&#45;11ee&#45;b104&#45;ac1a3ddd05c7 -->
<g id="edge1" class="edge">
<title>f847a96c&#45;d642&#45;11ee&#45;b104&#45;ac1a3ddd05c7&#45;&gt;f847ad90&#45;d642&#45;11ee&#45;b104&#45;ac1a3ddd05c7</title>
<path fill="none" stroke="black" d="M175.64,-194.34C166.17,-185.17 155.55,-174.87 146.21,-165.82"/>
<polygon fill="black" stroke="black" points="148.77,-163.43 139.15,-158.98 143.9,-168.45 148.77,-163.43"/>
</g>
<!-- f847afd4&#45;d642&#45;11ee&#45;b104&#45;ac1a3ddd05c7 -->
<g id="node4" class="node">
<title>f847afd4&#45;d642&#45;11ee&#45;b104&#45;ac1a3ddd05c7</title>
<ellipse fill="none" stroke="black" cx="284.16" cy="-140.55" rx="48.99" ry="18"/>
<text text-anchor="middle" x="284.16" y="-136.85" font-family="Times,serif" font-size="14.00">r_5: level3</text>
</g>
<!-- f847a96c&#45;d642&#45;11ee&#45;b104&#45;ac1a3ddd05c7&#45;&gt;f847afd4&#45;d642&#45;11ee&#45;b104&#45;ac1a3ddd05c7 -->
<g id="edge3" class="edge">
<title>f847a96c&#45;d642&#45;11ee&#45;b104&#45;ac1a3ddd05c7&#45;&gt;f847afd4&#45;d642&#45;11ee&#45;b104&#45;ac1a3ddd05c7</title>
<path fill="none" stroke="black" d="M229.01,-194.34C238.74,-185.03 249.68,-174.56 259.23,-165.41"/>
<polygon fill="black" stroke="black" points="261.65,-167.95 266.45,-158.5 256.81,-162.89 261.65,-167.95"/>
</g>
<!-- f847aed0&#45;d642&#45;11ee&#45;b104&#45;ac1a3ddd05c7 -->
<g id="node3" class="node">
<title>f847aed0&#45;d642&#45;11ee&#45;b104&#45;ac1a3ddd05c7</title>
<polygon fill="none" stroke="black" points="194.49,-43.27 145.83,-86.32 48.5,-86.32 -0.16,-43.27 48.5,-0.22 145.83,-0.22 194.49,-43.27"/>
<text text-anchor="middle" x="97.16" y="-54.57" font-family="Times,serif" font-size="14.00">rp_16: level3 </text>
<text text-anchor="middle" x="97.16" y="-39.57" font-family="Times,serif" font-size="14.00"> contact_suppliers </text>
<text text-anchor="middle" x="97.16" y="-24.57" font-family="Times,serif" font-size="14.00"> cost : 89</text>
</g>
<!-- f847ad90&#45;d642&#45;11ee&#45;b104&#45;ac1a3ddd05c7&#45;&gt;f847aed0&#45;d642&#45;11ee&#45;b104&#45;ac1a3ddd05c7 -->
<g id="edge2" class="edge">
<title>f847ad90&#45;d642&#45;11ee&#45;b104&#45;ac1a3ddd05c7&#45;&gt;f847aed0&#45;d642&#45;11ee&#45;b104&#45;ac1a3ddd05c7</title>
<path fill="none" stroke="black" d="M116.87,-122.52C115.07,-115.36 112.87,-106.61 110.59,-97.58"/>
<polygon fill="black" stroke="black" points="114.01,-96.84 108.18,-87.99 107.23,-98.55 114.01,-96.84"/>
</g>
<!-- f847b0ec&#45;d642&#45;11ee&#45;b104&#45;ac1a3ddd05c7 -->
<g id="node5" class="node">
<title>f847b0ec&#45;d642&#45;11ee&#45;b104&#45;ac1a3ddd05c7</title>
<polygon fill="none" stroke="black" points="406.49,-43.27 357.83,-86.32 260.5,-86.32 211.84,-43.27 260.5,-0.22 357.83,-0.22 406.49,-43.27"/>
<text text-anchor="middle" x="309.16" y="-54.57" font-family="Times,serif" font-size="14.00">rp_16: level3 </text>
<text text-anchor="middle" x="309.16" y="-39.57" font-family="Times,serif" font-size="14.00"> contact_suppliers </text>
<text text-anchor="middle" x="309.16" y="-24.57" font-family="Times,serif" font-size="14.00"> cost : 148</text>
</g>
<!-- f847afd4&#45;d642&#45;11ee&#45;b104&#45;ac1a3ddd05c7&#45;&gt;f847b0ec&#45;d642&#45;11ee&#45;b104&#45;ac1a3ddd05c7 -->
<g id="edge4" class="edge">
<title>f847afd4&#45;d642&#45;11ee&#45;b104&#45;ac1a3ddd05c7&#45;&gt;f847b0ec&#45;d642&#45;11ee&#45;b104&#45;ac1a3ddd05c7</title>
<path fill="none" stroke="black" d="M288.63,-122.52C290.51,-115.36 292.81,-106.61 295.17,-97.58"/>
<polygon fill="black" stroke="black" points="298.54,-98.55 297.69,-87.99 291.77,-96.77 298.54,-98.55"/>
</g>
</g>
</svg>
