<?xml version="1.0" encoding="UTF-8" standalone="no"?>
<!DOCTYPE svg PUBLIC "-//W3C//DTD SVG 1.1//EN"
 "http://www.w3.org/Graphics/SVG/1.1/DTD/svg11.dtd">
<!-- Generated by graphviz version 8.1.0 (20230707.0739)
 -->
<!-- Title: CallTree Pages: 1 -->
<svg width="822pt" height="563pt"
 viewBox="0.00 0.00 821.91 562.79" xmlns="http://www.w3.org/2000/svg" xmlns:xlink="http://www.w3.org/1999/xlink">
<g id="graph0" class="graph" transform="scale(1 1) rotate(0) translate(4 558.79)">
<title>CallTree</title>
<polygon fill="white" stroke="none" points="-4,4 -4,-558.79 817.91,-558.79 817.91,4 -4,4"/>
<!-- 032fa416&#45;d741&#45;11ee&#45;8d3f&#45;04cf4b795879 -->
<g id="node1" class="node">
<title>032fa416&#45;d741&#45;11ee&#45;8d3f&#45;04cf4b795879</title>
<polygon fill="none" stroke="black" points="459.25,-554.79 354.75,-554.79 354.75,-497.29 459.25,-497.29 459.25,-554.79"/>
<text text-anchor="middle" x="407" y="-537.49" font-family="Times,serif" font-size="14.00">a1: new_tender </text>
<text text-anchor="middle" x="407" y="-520.99" font-family="Times,serif" font-size="14.00"> Type: Core </text>
<text text-anchor="middle" x="407" y="-504.49" font-family="Times,serif" font-size="14.00"> Direction: Core</text>
</g>
<!-- 032fab5a&#45;d741&#45;11ee&#45;8d3f&#45;04cf4b795879 -->
<g id="node2" class="node">
<title>032fab5a&#45;d741&#45;11ee&#45;8d3f&#45;04cf4b795879</title>
<ellipse fill="none" stroke="black" cx="128" cy="-443.29" rx="50.84" ry="18"/>
<text text-anchor="middle" x="128" y="-438.24" font-family="Times,serif" font-size="14.00">r_1: level1</text>
</g>
<!-- 032fa416&#45;d741&#45;11ee&#45;8d3f&#45;04cf4b795879&#45;&gt;032fab5a&#45;d741&#45;11ee&#45;8d3f&#45;04cf4b795879 -->
<g id="edge1" class="edge">
<title>032fa416&#45;d741&#45;11ee&#45;8d3f&#45;04cf4b795879&#45;&gt;032fab5a&#45;d741&#45;11ee&#45;8d3f&#45;04cf4b795879</title>
<path fill="none" stroke="black" d="M354.52,-509.86C303.49,-495.09 226.59,-472.83 176.84,-458.43"/>
<polygon fill="black" stroke="black" points="177.92,-454.81 167.35,-455.39 175.98,-461.54 177.92,-454.81"/>
</g>
<!-- 032fb3b6&#45;d741&#45;11ee&#45;8d3f&#45;04cf4b795879 -->
<g id="node7" class="node">
<title>032fb3b6&#45;d741&#45;11ee&#45;8d3f&#45;04cf4b795879</title>
<ellipse fill="none" stroke="black" cx="267" cy="-443.29" rx="50.84" ry="18"/>
<text text-anchor="middle" x="267" y="-438.24" font-family="Times,serif" font-size="14.00">r_2: level2</text>
</g>
<!-- 032fa416&#45;d741&#45;11ee&#45;8d3f&#45;04cf4b795879&#45;&gt;032fb3b6&#45;d741&#45;11ee&#45;8d3f&#45;04cf4b795879 -->
<g id="edge6" class="edge">
<title>032fa416&#45;d741&#45;11ee&#45;8d3f&#45;04cf4b795879&#45;&gt;032fb3b6&#45;d741&#45;11ee&#45;8d3f&#45;04cf4b795879</title>
<path fill="none" stroke="black" d="M358.03,-496.8C339.71,-486.23 319.26,-474.44 302.4,-464.71"/>
<polygon fill="black" stroke="black" points="304.34,-461.21 293.93,-459.25 300.84,-467.28 304.34,-461.21"/>
</g>
<!-- 032fb96a&#45;d741&#45;11ee&#45;8d3f&#45;04cf4b795879 -->
<g id="node11" class="node">
<title>032fb96a&#45;d741&#45;11ee&#45;8d3f&#45;04cf4b795879</title>
<ellipse fill="none" stroke="black" cx="407" cy="-443.29" rx="50.84" ry="18"/>
<text text-anchor="middle" x="407" y="-438.24" font-family="Times,serif" font-size="14.00">r_4: level2</text>
</g>
<!-- 032fa416&#45;d741&#45;11ee&#45;8d3f&#45;04cf4b795879&#45;&gt;032fb96a&#45;d741&#45;11ee&#45;8d3f&#45;04cf4b795879 -->
<g id="edge10" class="edge">
<title>032fa416&#45;d741&#45;11ee&#45;8d3f&#45;04cf4b795879&#45;&gt;032fb96a&#45;d741&#45;11ee&#45;8d3f&#45;04cf4b795879</title>
<path fill="none" stroke="black" d="M407,-496.8C407,-488.86 407,-480.22 407,-472.29"/>
<polygon fill="black" stroke="black" points="410.5,-472.34 407,-462.34 403.5,-472.34 410.5,-472.34"/>
</g>
<!-- 032fbc12&#45;d741&#45;11ee&#45;8d3f&#45;04cf4b795879 -->
<g id="node13" class="node">
<title>032fbc12&#45;d741&#45;11ee&#45;8d3f&#45;04cf4b795879</title>
<ellipse fill="none" stroke="black" cx="549" cy="-443.29" rx="50.84" ry="18"/>
<text text-anchor="middle" x="549" y="-438.24" font-family="Times,serif" font-size="14.00">r_3: level3</text>
</g>
<!-- 032fa416&#45;d741&#45;11ee&#45;8d3f&#45;04cf4b795879&#45;&gt;032fbc12&#45;d741&#45;11ee&#45;8d3f&#45;04cf4b795879 -->
<g id="edge12" class="edge">
<title>032fa416&#45;d741&#45;11ee&#45;8d3f&#45;04cf4b795879&#45;&gt;032fbc12&#45;d741&#45;11ee&#45;8d3f&#45;04cf4b795879</title>
<path fill="none" stroke="black" d="M456.66,-496.8C475.56,-486.06 496.67,-474.05 513.94,-464.23"/>
<polygon fill="black" stroke="black" points="515.14,-467.01 522.1,-459.02 511.67,-460.92 515.14,-467.01"/>
</g>
<!-- 032fc1bc&#45;d741&#45;11ee&#45;8d3f&#45;04cf4b795879 -->
<g id="node17" class="node">
<title>032fc1bc&#45;d741&#45;11ee&#45;8d3f&#45;04cf4b795879</title>
<ellipse fill="none" stroke="black" cx="704" cy="-443.29" rx="50.84" ry="18"/>
<text text-anchor="middle" x="704" y="-438.24" font-family="Times,serif" font-size="14.00">r_5: level3</text>
</g>
<!-- 032fa416&#45;d741&#45;11ee&#45;8d3f&#45;04cf4b795879&#45;&gt;032fc1bc&#45;d741&#45;11ee&#45;8d3f&#45;04cf4b795879 -->
<g id="edge16" class="edge">
<title>032fa416&#45;d741&#45;11ee&#45;8d3f&#45;04cf4b795879&#45;&gt;032fc1bc&#45;d741&#45;11ee&#45;8d3f&#45;04cf4b795879</title>
<path fill="none" stroke="black" d="M459.41,-510.79C514.37,-495.85 600.09,-472.55 654.09,-457.86"/>
<polygon fill="black" stroke="black" points="654.71,-461.05 663.44,-455.05 652.88,-454.29 654.71,-461.05"/>
</g>
<!-- 032fad44&#45;d741&#45;11ee&#45;8d3f&#45;04cf4b795879 -->
<g id="node3" class="node">
<title>032fad44&#45;d741&#45;11ee&#45;8d3f&#45;04cf4b795879</title>
<polygon fill="none" stroke="black" points="159.63,-342.35 124.31,-389.29 53.68,-389.29 18.37,-342.35 53.68,-295.4 124.31,-295.4 159.63,-342.35"/>
<text text-anchor="middle" x="89" y="-353.8" font-family="Times,serif" font-size="14.00">rp_1: level1 </text>
<text text-anchor="middle" x="89" y="-337.3" font-family="Times,serif" font-size="14.00"> new_tender </text>
<text text-anchor="middle" x="89" y="-320.8" font-family="Times,serif" font-size="14.00"> cost : 12</text>
</g>
<!-- 032fab5a&#45;d741&#45;11ee&#45;8d3f&#45;04cf4b795879&#45;&gt;032fad44&#45;d741&#45;11ee&#45;8d3f&#45;04cf4b795879 -->
<g id="edge2" class="edge">
<title>032fab5a&#45;d741&#45;11ee&#45;8d3f&#45;04cf4b795879&#45;&gt;032fad44&#45;d741&#45;11ee&#45;8d3f&#45;04cf4b795879</title>
<path fill="none" stroke="black" d="M121.2,-425.06C118.35,-417.82 114.86,-408.95 111.23,-399.76"/>
<polygon fill="black" stroke="black" points="114.2,-398.73 107.27,-390.71 107.68,-401.3 114.2,-398.73"/>
</g>
<!-- 032faeb6&#45;d741&#45;11ee&#45;8d3f&#45;04cf4b795879 -->
<g id="node4" class="node">
<title>032faeb6&#45;d741&#45;11ee&#45;8d3f&#45;04cf4b795879</title>
<polygon fill="none" stroke="black" points="151,-259.4 27,-259.4 27,-201.9 151,-201.9 151,-259.4"/>
<text text-anchor="middle" x="89" y="-242.1" font-family="Times,serif" font-size="14.00">r0: create_proposal </text>
<text text-anchor="middle" x="89" y="-225.6" font-family="Times,serif" font-size="14.00"> Type: insert </text>
<text text-anchor="middle" x="89" y="-209.1" font-family="Times,serif" font-size="14.00"> Direction: after</text>
</g>
<!-- 032fad44&#45;d741&#45;11ee&#45;8d3f&#45;04cf4b795879&#45;&gt;032faeb6&#45;d741&#45;11ee&#45;8d3f&#45;04cf4b795879 -->
<g id="edge3" class="edge">
<title>032fad44&#45;d741&#45;11ee&#45;8d3f&#45;04cf4b795879&#45;&gt;032faeb6&#45;d741&#45;11ee&#45;8d3f&#45;04cf4b795879</title>
<path fill="none" stroke="black" d="M89,-295.14C89,-286.94 89,-278.48 89,-270.51"/>
<polygon fill="black" stroke="black" points="92.5,-270.65 89,-260.65 85.5,-270.65 92.5,-270.65"/>
</g>
<!-- 032fb0be&#45;d741&#45;11ee&#45;8d3f&#45;04cf4b795879 -->
<g id="node5" class="node">
<title>032fb0be&#45;d741&#45;11ee&#45;8d3f&#45;04cf4b795879</title>
<ellipse fill="none" stroke="black" cx="89" cy="-147.9" rx="50.84" ry="18"/>
<text text-anchor="middle" x="89" y="-142.85" font-family="Times,serif" font-size="14.00">r_4: level2</text>
</g>
<!-- 032faeb6&#45;d741&#45;11ee&#45;8d3f&#45;04cf4b795879&#45;&gt;032fb0be&#45;d741&#45;11ee&#45;8d3f&#45;04cf4b795879 -->
<g id="edge4" class="edge">
<title>032faeb6&#45;d741&#45;11ee&#45;8d3f&#45;04cf4b795879&#45;&gt;032fb0be&#45;d741&#45;11ee&#45;8d3f&#45;04cf4b795879</title>
<path fill="none" stroke="black" d="M89,-201.4C89,-193.46 89,-184.82 89,-176.89"/>
<polygon fill="black" stroke="black" points="92.5,-176.94 89,-166.94 85.5,-176.94 92.5,-176.94"/>
</g>
<!-- 032fb258&#45;d741&#45;11ee&#45;8d3f&#45;04cf4b795879 -->
<g id="node6" class="node">
<title>032fb258&#45;d741&#45;11ee&#45;8d3f&#45;04cf4b795879</title>
<polygon fill="none" stroke="black" points="178,-46.95 133.5,-93.9 44.5,-93.9 0,-46.95 44.5,0 133.5,0 178,-46.95"/>
<text text-anchor="middle" x="89" y="-58.4" font-family="Times,serif" font-size="14.00">rp_15: level2 </text>
<text text-anchor="middle" x="89" y="-41.9" font-family="Times,serif" font-size="14.00"> create_proposal </text>
<text text-anchor="middle" x="89" y="-25.4" font-family="Times,serif" font-size="14.00"> cost : 15</text>
</g>
<!-- 032fb0be&#45;d741&#45;11ee&#45;8d3f&#45;04cf4b795879&#45;&gt;032fb258&#45;d741&#45;11ee&#45;8d3f&#45;04cf4b795879 -->
<g id="edge5" class="edge">
<title>032fb0be&#45;d741&#45;11ee&#45;8d3f&#45;04cf4b795879&#45;&gt;032fb258&#45;d741&#45;11ee&#45;8d3f&#45;04cf4b795879</title>
<path fill="none" stroke="black" d="M89,-129.66C89,-122.65 89,-114.12 89,-105.24"/>
<polygon fill="black" stroke="black" points="92.5,-105.32 89,-95.32 85.5,-105.32 92.5,-105.32"/>
</g>
<!-- 032fb546&#45;d741&#45;11ee&#45;8d3f&#45;04cf4b795879 -->
<g id="node8" class="node">
<title>032fb546&#45;d741&#45;11ee&#45;8d3f&#45;04cf4b795879</title>
<polygon fill="none" stroke="black" points="318.63,-342.35 283.31,-389.29 212.68,-389.29 177.37,-342.35 212.68,-295.4 283.31,-295.4 318.63,-342.35"/>
<text text-anchor="middle" x="248" y="-353.8" font-family="Times,serif" font-size="14.00">rp_6: level2 </text>
<text text-anchor="middle" x="248" y="-337.3" font-family="Times,serif" font-size="14.00"> new_tender </text>
<text text-anchor="middle" x="248" y="-320.8" font-family="Times,serif" font-size="14.00"> cost : 85</text>
</g>
<!-- 032fb3b6&#45;d741&#45;11ee&#45;8d3f&#45;04cf4b795879&#45;&gt;032fb546&#45;d741&#45;11ee&#45;8d3f&#45;04cf4b795879 -->
<g id="edge7" class="edge">
<title>032fb3b6&#45;d741&#45;11ee&#45;8d3f&#45;04cf4b795879&#45;&gt;032fb546&#45;d741&#45;11ee&#45;8d3f&#45;04cf4b795879</title>
<path fill="none" stroke="black" d="M263.69,-425.06C262.33,-417.97 260.67,-409.33 258.94,-400.34"/>
<polygon fill="black" stroke="black" points="262.22,-399.88 256.9,-390.71 255.35,-401.2 262.22,-399.88"/>
</g>
<!-- 032fb67c&#45;d741&#45;11ee&#45;8d3f&#45;04cf4b795879 -->
<g id="node9" class="node">
<title>032fb67c&#45;d741&#45;11ee&#45;8d3f&#45;04cf4b795879</title>
<polygon fill="none" stroke="black" points="292.37,-259.4 173.62,-259.4 173.62,-201.9 292.37,-201.9 292.37,-259.4"/>
<text text-anchor="middle" x="233" y="-242.1" font-family="Times,serif" font-size="14.00">r0: data_support </text>
<text text-anchor="middle" x="233" y="-225.6" font-family="Times,serif" font-size="14.00"> Type: insert </text>
<text text-anchor="middle" x="233" y="-209.1" font-family="Times,serif" font-size="14.00"> Direction: parallel</text>
</g>
<!-- 032fb546&#45;d741&#45;11ee&#45;8d3f&#45;04cf4b795879&#45;&gt;032fb67c&#45;d741&#45;11ee&#45;8d3f&#45;04cf4b795879 -->
<g id="edge8" class="edge">
<title>032fb546&#45;d741&#45;11ee&#45;8d3f&#45;04cf4b795879&#45;&gt;032fb67c&#45;d741&#45;11ee&#45;8d3f&#45;04cf4b795879</title>
<path fill="none" stroke="black" d="M241.68,-295.14C240.56,-286.94 239.4,-278.48 238.31,-270.51"/>
<polygon fill="black" stroke="black" points="241.65,-270.08 236.83,-260.65 234.71,-271.03 241.65,-270.08"/>
</g>
<!-- 032fb80c&#45;d741&#45;11ee&#45;8d3f&#45;04cf4b795879 -->
<g id="node10" class="node">
<title>032fb80c&#45;d741&#45;11ee&#45;8d3f&#45;04cf4b795879</title>
<polygon fill="none" stroke="black" points="487.25,-259.4 310.75,-259.4 310.75,-201.9 487.25,-201.9 487.25,-259.4"/>
<text text-anchor="middle" x="399" y="-242.1" font-family="Times,serif" font-size="14.00">r0: handover_to_engineering </text>
<text text-anchor="middle" x="399" y="-225.6" font-family="Times,serif" font-size="14.00"> Type: delete </text>
<text text-anchor="middle" x="399" y="-209.1" font-family="Times,serif" font-size="14.00"> Direction: any</text>
</g>
<!-- 032fb546&#45;d741&#45;11ee&#45;8d3f&#45;04cf4b795879&#45;&gt;032fb80c&#45;d741&#45;11ee&#45;8d3f&#45;04cf4b795879 -->
<g id="edge9" class="edge">
<title>032fb546&#45;d741&#45;11ee&#45;8d3f&#45;04cf4b795879&#45;&gt;032fb80c&#45;d741&#45;11ee&#45;8d3f&#45;04cf4b795879</title>
<path fill="none" stroke="black" d="M293.3,-308.43C311.67,-295.09 332.89,-279.68 351.47,-266.17"/>
<polygon fill="black" stroke="black" points="353.33,-268.43 359.36,-259.72 349.21,-262.76 353.33,-268.43"/>
</g>
<!-- 032fbae6&#45;d741&#45;11ee&#45;8d3f&#45;04cf4b795879 -->
<g id="node12" class="node">
<title>032fbae6&#45;d741&#45;11ee&#45;8d3f&#45;04cf4b795879</title>
<polygon fill="none" stroke="black" points="477.63,-342.35 442.31,-389.29 371.68,-389.29 336.37,-342.35 371.68,-295.4 442.31,-295.4 477.63,-342.35"/>
<text text-anchor="middle" x="407" y="-353.8" font-family="Times,serif" font-size="14.00">rp_6: level2 </text>
<text text-anchor="middle" x="407" y="-337.3" font-family="Times,serif" font-size="14.00"> new_tender </text>
<text text-anchor="middle" x="407" y="-320.8" font-family="Times,serif" font-size="14.00"> cost : 87</text>
</g>
<!-- 032fb96a&#45;d741&#45;11ee&#45;8d3f&#45;04cf4b795879&#45;&gt;032fbae6&#45;d741&#45;11ee&#45;8d3f&#45;04cf4b795879 -->
<g id="edge11" class="edge">
<title>032fb96a&#45;d741&#45;11ee&#45;8d3f&#45;04cf4b795879&#45;&gt;032fbae6&#45;d741&#45;11ee&#45;8d3f&#45;04cf4b795879</title>
<path fill="none" stroke="black" d="M407,-425.06C407,-418.05 407,-409.52 407,-400.64"/>
<polygon fill="black" stroke="black" points="410.5,-400.71 407,-390.71 403.5,-400.71 410.5,-400.71"/>
</g>
<!-- 032fbd8e&#45;d741&#45;11ee&#45;8d3f&#45;04cf4b795879 -->
<g id="node14" class="node">
<title>032fbd8e&#45;d741&#45;11ee&#45;8d3f&#45;04cf4b795879</title>
<polygon fill="none" stroke="black" points="645.91,-342.35 608.45,-389.29 533.54,-389.29 496.08,-342.35 533.54,-295.4 608.45,-295.4 645.91,-342.35"/>
<text text-anchor="middle" x="571" y="-353.8" font-family="Times,serif" font-size="14.00">rp_13: level3 </text>
<text text-anchor="middle" x="571" y="-337.3" font-family="Times,serif" font-size="14.00"> new_tender </text>
<text text-anchor="middle" x="571" y="-320.8" font-family="Times,serif" font-size="14.00"> cost : 7</text>
</g>
<!-- 032fbc12&#45;d741&#45;11ee&#45;8d3f&#45;04cf4b795879&#45;&gt;032fbd8e&#45;d741&#45;11ee&#45;8d3f&#45;04cf4b795879 -->
<g id="edge13" class="edge">
<title>032fbc12&#45;d741&#45;11ee&#45;8d3f&#45;04cf4b795879&#45;&gt;032fbd8e&#45;d741&#45;11ee&#45;8d3f&#45;04cf4b795879</title>
<path fill="none" stroke="black" d="M552.83,-425.06C554.41,-417.97 556.33,-409.33 558.33,-400.34"/>
<polygon fill="black" stroke="black" points="561.93,-401.24 560.69,-390.71 555.1,-399.72 561.93,-401.24"/>
</g>
<!-- 032fbeba&#45;d741&#45;11ee&#45;8d3f&#45;04cf4b795879 -->
<g id="node15" class="node">
<title>032fbeba&#45;d741&#45;11ee&#45;8d3f&#45;04cf4b795879</title>
<polygon fill="none" stroke="black" points="627.37,-259.4 508.62,-259.4 508.62,-201.9 627.37,-201.9 627.37,-259.4"/>
<text text-anchor="middle" x="568" y="-242.1" font-family="Times,serif" font-size="14.00">r0: inform_head </text>
<text text-anchor="middle" x="568" y="-225.6" font-family="Times,serif" font-size="14.00"> Type: insert </text>
<text text-anchor="middle" x="568" y="-209.1" font-family="Times,serif" font-size="14.00"> Direction: parallel</text>
</g>
<!-- 032fbd8e&#45;d741&#45;11ee&#45;8d3f&#45;04cf4b795879&#45;&gt;032fbeba&#45;d741&#45;11ee&#45;8d3f&#45;04cf4b795879 -->
<g id="edge14" class="edge">
<title>032fbd8e&#45;d741&#45;11ee&#45;8d3f&#45;04cf4b795879&#45;&gt;032fbeba&#45;d741&#45;11ee&#45;8d3f&#45;04cf4b795879</title>
<path fill="none" stroke="black" d="M569.73,-295.14C569.51,-286.94 569.28,-278.48 569.06,-270.51"/>
<polygon fill="black" stroke="black" points="572.54,-270.55 568.76,-260.65 565.54,-270.74 572.54,-270.55"/>
</g>
<!-- 032fc018&#45;d741&#45;11ee&#45;8d3f&#45;04cf4b795879 -->
<g id="node16" class="node">
<title>032fc018&#45;d741&#45;11ee&#45;8d3f&#45;04cf4b795879</title>
<polygon fill="none" stroke="black" points="756.25,-259.4 645.75,-259.4 645.75,-201.9 756.25,-201.9 756.25,-259.4"/>
<text text-anchor="middle" x="701" y="-242.1" font-family="Times,serif" font-size="14.00">r0: close_project </text>
<text text-anchor="middle" x="701" y="-225.6" font-family="Times,serif" font-size="14.00"> Type: delete </text>
<text text-anchor="middle" x="701" y="-209.1" font-family="Times,serif" font-size="14.00"> Direction: any</text>
</g>
<!-- 032fbd8e&#45;d741&#45;11ee&#45;8d3f&#45;04cf4b795879&#45;&gt;032fc018&#45;d741&#45;11ee&#45;8d3f&#45;04cf4b795879 -->
<g id="edge15" class="edge">
<title>032fbd8e&#45;d741&#45;11ee&#45;8d3f&#45;04cf4b795879&#45;&gt;032fc018&#45;d741&#45;11ee&#45;8d3f&#45;04cf4b795879</title>
<path fill="none" stroke="black" d="M615.37,-303.9C629.76,-291.76 645.65,-278.35 659.8,-266.41"/>
<polygon fill="black" stroke="black" points="661.52,-268.7 666.9,-259.57 657,-263.35 661.52,-268.7"/>
</g>
<!-- 032fc338&#45;d741&#45;11ee&#45;8d3f&#45;04cf4b795879 -->
<g id="node18" class="node">
<title>032fc338&#45;d741&#45;11ee&#45;8d3f&#45;04cf4b795879</title>
<polygon fill="none" stroke="black" points="813.91,-342.35 776.45,-389.29 701.54,-389.29 664.08,-342.35 701.54,-295.4 776.45,-295.4 813.91,-342.35"/>
<text text-anchor="middle" x="739" y="-353.8" font-family="Times,serif" font-size="14.00">rp_13: level3 </text>
<text text-anchor="middle" x="739" y="-337.3" font-family="Times,serif" font-size="14.00"> new_tender </text>
<text text-anchor="middle" x="739" y="-320.8" font-family="Times,serif" font-size="14.00"> cost : 28</text>
</g>
<!-- 032fc1bc&#45;d741&#45;11ee&#45;8d3f&#45;04cf4b795879&#45;&gt;032fc338&#45;d741&#45;11ee&#45;8d3f&#45;04cf4b795879 -->
<g id="edge17" class="edge">
<title>032fc1bc&#45;d741&#45;11ee&#45;8d3f&#45;04cf4b795879&#45;&gt;032fc338&#45;d741&#45;11ee&#45;8d3f&#45;04cf4b795879</title>
<path fill="none" stroke="black" d="M710.09,-425.06C712.63,-417.9 715.73,-409.14 718.94,-400.05"/>
<polygon fill="black" stroke="black" points="722.56,-401.31 722.6,-390.71 715.96,-398.97 722.56,-401.31"/>
</g>
</g>
</svg>
