<?xml version="1.0" encoding="UTF-8" standalone="no"?>
<!DOCTYPE svg PUBLIC "-//W3C//DTD SVG 1.1//EN"
 "http://www.w3.org/Graphics/SVG/1.1/DTD/svg11.dtd">
<!-- Generated by graphviz version 8.1.0 (20230707.0739)
 -->
<!-- Title: CallTree Pages: 1 -->
<svg width="458pt" height="267pt"
 viewBox="0.00 0.00 457.96 267.40" xmlns="http://www.w3.org/2000/svg" xmlns:xlink="http://www.w3.org/1999/xlink">
<g id="graph0" class="graph" transform="scale(1 1) rotate(0) translate(4 263.4)">
<title>CallTree</title>
<polygon fill="white" stroke="none" points="-4,4 -4,-263.4 453.96,-263.4 453.96,4 -4,4"/>
<!-- 033bf3d8&#45;d741&#45;11ee&#45;8d3f&#45;04cf4b795879 -->
<g id="node1" class="node">
<title>033bf3d8&#45;d741&#45;11ee&#45;8d3f&#45;04cf4b795879</title>
<polygon fill="none" stroke="black" points="302.73,-259.4 147.23,-259.4 147.23,-201.9 302.73,-201.9 302.73,-259.4"/>
<text text-anchor="middle" x="224.98" y="-242.1" font-family="Times,serif" font-size="14.00">a10: decide_on_proposal </text>
<text text-anchor="middle" x="224.98" y="-225.6" font-family="Times,serif" font-size="14.00"> Type: Core </text>
<text text-anchor="middle" x="224.98" y="-209.1" font-family="Times,serif" font-size="14.00"> Direction: Core</text>
</g>
<!-- 033bfe78&#45;d741&#45;11ee&#45;8d3f&#45;04cf4b795879 -->
<g id="node2" class="node">
<title>033bfe78&#45;d741&#45;11ee&#45;8d3f&#45;04cf4b795879</title>
<ellipse fill="none" stroke="black" cx="164.98" cy="-147.9" rx="50.84" ry="18"/>
<text text-anchor="middle" x="164.98" y="-142.85" font-family="Times,serif" font-size="14.00">r_3: level3</text>
</g>
<!-- 033bf3d8&#45;d741&#45;11ee&#45;8d3f&#45;04cf4b795879&#45;&gt;033bfe78&#45;d741&#45;11ee&#45;8d3f&#45;04cf4b795879 -->
<g id="edge1" class="edge">
<title>033bf3d8&#45;d741&#45;11ee&#45;8d3f&#45;04cf4b795879&#45;&gt;033bfe78&#45;d741&#45;11ee&#45;8d3f&#45;04cf4b795879</title>
<path fill="none" stroke="black" d="M204,-201.4C197.38,-192.49 190.11,-182.71 183.66,-174.03"/>
<polygon fill="black" stroke="black" points="186.07,-172.41 177.3,-166.47 180.45,-176.58 186.07,-172.41"/>
</g>
<!-- 033c0242&#45;d741&#45;11ee&#45;8d3f&#45;04cf4b795879 -->
<g id="node4" class="node">
<title>033c0242&#45;d741&#45;11ee&#45;8d3f&#45;04cf4b795879</title>
<ellipse fill="none" stroke="black" cx="312.98" cy="-147.9" rx="50.84" ry="18"/>
<text text-anchor="middle" x="312.98" y="-142.85" font-family="Times,serif" font-size="14.00">r_5: level3</text>
</g>
<!-- 033bf3d8&#45;d741&#45;11ee&#45;8d3f&#45;04cf4b795879&#45;&gt;033c0242&#45;d741&#45;11ee&#45;8d3f&#45;04cf4b795879 -->
<g id="edge3" class="edge">
<title>033bf3d8&#45;d741&#45;11ee&#45;8d3f&#45;04cf4b795879&#45;&gt;033c0242&#45;d741&#45;11ee&#45;8d3f&#45;04cf4b795879</title>
<path fill="none" stroke="black" d="M255.76,-201.4C266.06,-191.95 277.43,-181.52 287.29,-172.47"/>
<polygon fill="black" stroke="black" points="289.18,-175.57 294.18,-166.24 284.44,-170.42 289.18,-175.57"/>
</g>
<!-- 033c00b2&#45;d741&#45;11ee&#45;8d3f&#45;04cf4b795879 -->
<g id="node3" class="node">
<title>033c00b2&#45;d741&#45;11ee&#45;8d3f&#45;04cf4b795879</title>
<polygon fill="none" stroke="black" points="215.96,-46.95 161.97,-93.9 53.99,-93.9 0,-46.95 53.99,0 161.97,0 215.96,-46.95"/>
<text text-anchor="middle" x="107.98" y="-58.4" font-family="Times,serif" font-size="14.00">rp_25: level3 </text>
<text text-anchor="middle" x="107.98" y="-41.9" font-family="Times,serif" font-size="14.00"> decide_on_proposal </text>
<text text-anchor="middle" x="107.98" y="-25.4" font-family="Times,serif" font-size="14.00"> cost : 30</text>
</g>
<!-- 033bfe78&#45;d741&#45;11ee&#45;8d3f&#45;04cf4b795879&#45;&gt;033c00b2&#45;d741&#45;11ee&#45;8d3f&#45;04cf4b795879 -->
<g id="edge2" class="edge">
<title>033bfe78&#45;d741&#45;11ee&#45;8d3f&#45;04cf4b795879&#45;&gt;033c00b2&#45;d741&#45;11ee&#45;8d3f&#45;04cf4b795879</title>
<path fill="none" stroke="black" d="M155.31,-130.11C150.98,-122.59 145.6,-113.25 140.03,-103.58"/>
<polygon fill="black" stroke="black" points="142.69,-102.19 134.66,-95.27 136.62,-105.68 142.69,-102.19"/>
</g>
<!-- 033c03f0&#45;d741&#45;11ee&#45;8d3f&#45;04cf4b795879 -->
<g id="node5" class="node">
<title>033c03f0&#45;d741&#45;11ee&#45;8d3f&#45;04cf4b795879</title>
<polygon fill="none" stroke="black" points="449.96,-46.95 395.97,-93.9 287.99,-93.9 234,-46.95 287.99,0 395.97,0 449.96,-46.95"/>
<text text-anchor="middle" x="341.98" y="-58.4" font-family="Times,serif" font-size="14.00">rp_25: level3 </text>
<text text-anchor="middle" x="341.98" y="-41.9" font-family="Times,serif" font-size="14.00"> decide_on_proposal </text>
<text text-anchor="middle" x="341.98" y="-25.4" font-family="Times,serif" font-size="14.00"> cost : 23</text>
</g>
<!-- 033c0242&#45;d741&#45;11ee&#45;8d3f&#45;04cf4b795879&#45;&gt;033c03f0&#45;d741&#45;11ee&#45;8d3f&#45;04cf4b795879 -->
<g id="edge4" class="edge">
<title>033c0242&#45;d741&#45;11ee&#45;8d3f&#45;04cf4b795879&#45;&gt;033c03f0&#45;d741&#45;11ee&#45;8d3f&#45;04cf4b795879</title>
<path fill="none" stroke="black" d="M318.03,-129.66C320.13,-122.5 322.7,-113.74 325.36,-104.65"/>
<polygon fill="black" stroke="black" points="328.94,-105.9 328.39,-95.32 322.22,-103.93 328.94,-105.9"/>
</g>
</g>
</svg>
