<?xml version="1.0" encoding="UTF-8" standalone="no"?>
<!DOCTYPE svg PUBLIC "-//W3C//DTD SVG 1.1//EN"
 "http://www.w3.org/Graphics/SVG/1.1/DTD/svg11.dtd">
<!-- Generated by graphviz version 8.1.0 (20230707.0739)
 -->
<!-- Title: CallTree Pages: 1 -->
<svg width="1334pt" height="563pt"
 viewBox="0.00 0.00 1334.17 562.79" xmlns="http://www.w3.org/2000/svg" xmlns:xlink="http://www.w3.org/1999/xlink">
<g id="graph0" class="graph" transform="scale(1 1) rotate(0) translate(4 558.79)">
<title>CallTree</title>
<polygon fill="white" stroke="none" points="-4,4 -4,-558.79 1330.17,-558.79 1330.17,4 -4,4"/>
<!-- 679f63dc&#45;d615&#45;11ee&#45;9dd8&#45;04cf4b795879 -->
<g id="node1" class="node">
<title>679f63dc&#45;d615&#45;11ee&#45;9dd8&#45;04cf4b795879</title>
<polygon fill="none" stroke="black" points="911.08,-554.79 799.08,-554.79 799.08,-497.29 911.08,-497.29 911.08,-554.79"/>
<text text-anchor="middle" x="855.08" y="-537.49" font-family="Times,serif" font-size="14.00">a3: evaluate_risk </text>
<text text-anchor="middle" x="855.08" y="-520.99" font-family="Times,serif" font-size="14.00"> Type: Core </text>
<text text-anchor="middle" x="855.08" y="-504.49" font-family="Times,serif" font-size="14.00"> Direction: Core</text>
</g>
<!-- 679f743a&#45;d615&#45;11ee&#45;9dd8&#45;04cf4b795879 -->
<g id="node2" class="node">
<title>679f743a&#45;d615&#45;11ee&#45;9dd8&#45;04cf4b795879</title>
<ellipse fill="none" stroke="black" cx="561.08" cy="-443.29" rx="50.84" ry="18"/>
<text text-anchor="middle" x="561.08" y="-438.24" font-family="Times,serif" font-size="14.00">r_1: level1</text>
</g>
<!-- 679f63dc&#45;d615&#45;11ee&#45;9dd8&#45;04cf4b795879&#45;&gt;679f743a&#45;d615&#45;11ee&#45;9dd8&#45;04cf4b795879 -->
<g id="edge1" class="edge">
<title>679f63dc&#45;d615&#45;11ee&#45;9dd8&#45;04cf4b795879&#45;&gt;679f743a&#45;d615&#45;11ee&#45;9dd8&#45;04cf4b795879</title>
<path fill="none" stroke="black" d="M798.74,-509.57C744.3,-494.62 662.65,-472.19 610.63,-457.9"/>
<polygon fill="black" stroke="black" points="611.89,-454.34 601.32,-455.07 610.03,-461.09 611.89,-454.34"/>
</g>
<!-- 679f91a4&#45;d615&#45;11ee&#45;9dd8&#45;04cf4b795879 -->
<g id="node9" class="node">
<title>679f91a4&#45;d615&#45;11ee&#45;9dd8&#45;04cf4b795879</title>
<ellipse fill="none" stroke="black" cx="708.08" cy="-443.29" rx="50.84" ry="18"/>
<text text-anchor="middle" x="708.08" y="-438.24" font-family="Times,serif" font-size="14.00">r_2: level2</text>
</g>
<!-- 679f63dc&#45;d615&#45;11ee&#45;9dd8&#45;04cf4b795879&#45;&gt;679f91a4&#45;d615&#45;11ee&#45;9dd8&#45;04cf4b795879 -->
<g id="edge8" class="edge">
<title>679f63dc&#45;d615&#45;11ee&#45;9dd8&#45;04cf4b795879&#45;&gt;679f91a4&#45;d615&#45;11ee&#45;9dd8&#45;04cf4b795879</title>
<path fill="none" stroke="black" d="M803.67,-496.8C784.11,-486.06 762.25,-474.05 744.37,-464.23"/>
<polygon fill="black" stroke="black" points="746.34,-460.77 735.9,-459.02 742.97,-466.91 746.34,-460.77"/>
</g>
<!-- 679fb328&#45;d615&#45;11ee&#45;9dd8&#45;04cf4b795879 -->
<g id="node16" class="node">
<title>679fb328&#45;d615&#45;11ee&#45;9dd8&#45;04cf4b795879</title>
<ellipse fill="none" stroke="black" cx="855.08" cy="-443.29" rx="50.84" ry="18"/>
<text text-anchor="middle" x="855.08" y="-438.24" font-family="Times,serif" font-size="14.00">r_4: level2</text>
</g>
<!-- 679f63dc&#45;d615&#45;11ee&#45;9dd8&#45;04cf4b795879&#45;&gt;679fb328&#45;d615&#45;11ee&#45;9dd8&#45;04cf4b795879 -->
<g id="edge15" class="edge">
<title>679f63dc&#45;d615&#45;11ee&#45;9dd8&#45;04cf4b795879&#45;&gt;679fb328&#45;d615&#45;11ee&#45;9dd8&#45;04cf4b795879</title>
<path fill="none" stroke="black" d="M855.08,-496.8C855.08,-488.86 855.08,-480.22 855.08,-472.29"/>
<polygon fill="black" stroke="black" points="858.58,-472.34 855.08,-462.34 851.58,-472.34 858.58,-472.34"/>
</g>
<!-- 679fd06a&#45;d615&#45;11ee&#45;9dd8&#45;04cf4b795879 -->
<g id="node23" class="node">
<title>679fd06a&#45;d615&#45;11ee&#45;9dd8&#45;04cf4b795879</title>
<ellipse fill="none" stroke="black" cx="1002.08" cy="-443.29" rx="50.84" ry="18"/>
<text text-anchor="middle" x="1002.08" y="-438.24" font-family="Times,serif" font-size="14.00">r_3: level3</text>
</g>
<!-- 679f63dc&#45;d615&#45;11ee&#45;9dd8&#45;04cf4b795879&#45;&gt;679fd06a&#45;d615&#45;11ee&#45;9dd8&#45;04cf4b795879 -->
<g id="edge22" class="edge">
<title>679f63dc&#45;d615&#45;11ee&#45;9dd8&#45;04cf4b795879&#45;&gt;679fd06a&#45;d615&#45;11ee&#45;9dd8&#45;04cf4b795879</title>
<path fill="none" stroke="black" d="M906.5,-496.8C926.06,-486.06 947.92,-474.05 965.79,-464.23"/>
<polygon fill="black" stroke="black" points="967.19,-466.91 974.27,-459.02 963.82,-460.77 967.19,-466.91"/>
</g>
<!-- 679fd7a4&#45;d615&#45;11ee&#45;9dd8&#45;04cf4b795879 -->
<g id="node25" class="node">
<title>679fd7a4&#45;d615&#45;11ee&#45;9dd8&#45;04cf4b795879</title>
<ellipse fill="none" stroke="black" cx="1162.08" cy="-443.29" rx="50.84" ry="18"/>
<text text-anchor="middle" x="1162.08" y="-438.24" font-family="Times,serif" font-size="14.00">r_5: level3</text>
</g>
<!-- 679f63dc&#45;d615&#45;11ee&#45;9dd8&#45;04cf4b795879&#45;&gt;679fd7a4&#45;d615&#45;11ee&#45;9dd8&#45;04cf4b795879 -->
<g id="edge24" class="edge">
<title>679f63dc&#45;d615&#45;11ee&#45;9dd8&#45;04cf4b795879&#45;&gt;679fd7a4&#45;d615&#45;11ee&#45;9dd8&#45;04cf4b795879</title>
<path fill="none" stroke="black" d="M911.39,-510.23C968.68,-495.17 1056.64,-472.03 1111.7,-457.55"/>
<polygon fill="black" stroke="black" points="1112.47,-460.7 1121.25,-454.77 1110.69,-453.93 1112.47,-460.7"/>
</g>
<!-- 679f78ea&#45;d615&#45;11ee&#45;9dd8&#45;04cf4b795879 -->
<g id="node3" class="node">
<title>679f78ea&#45;d615&#45;11ee&#45;9dd8&#45;04cf4b795879</title>
<polygon fill="none" stroke="black" points="448.06,-342.35 409.07,-389.29 331.09,-389.29 292.11,-342.35 331.09,-295.4 409.07,-295.4 448.06,-342.35"/>
<text text-anchor="middle" x="370.08" y="-353.8" font-family="Times,serif" font-size="14.00">rp_3: level1 </text>
<text text-anchor="middle" x="370.08" y="-337.3" font-family="Times,serif" font-size="14.00"> evaluate_risk </text>
<text text-anchor="middle" x="370.08" y="-320.8" font-family="Times,serif" font-size="14.00"> cost : 11</text>
</g>
<!-- 679f743a&#45;d615&#45;11ee&#45;9dd8&#45;04cf4b795879&#45;&gt;679f78ea&#45;d615&#45;11ee&#45;9dd8&#45;04cf4b795879 -->
<g id="edge2" class="edge">
<title>679f743a&#45;d615&#45;11ee&#45;9dd8&#45;04cf4b795879&#45;&gt;679f78ea&#45;d615&#45;11ee&#45;9dd8&#45;04cf4b795879</title>
<path fill="none" stroke="black" d="M533.31,-427.91C507.3,-414.43 467.49,-393.81 433.69,-376.3"/>
<polygon fill="black" stroke="black" points="435.83,-372.94 425.34,-371.45 432.61,-379.16 435.83,-372.94"/>
</g>
<!-- 679f7c82&#45;d615&#45;11ee&#45;9dd8&#45;04cf4b795879 -->
<g id="node4" class="node">
<title>679f7c82&#45;d615&#45;11ee&#45;9dd8&#45;04cf4b795879</title>
<polygon fill="none" stroke="black" points="397.71,-259.4 256.46,-259.4 256.46,-201.9 397.71,-201.9 397.71,-259.4"/>
<text text-anchor="middle" x="327.08" y="-242.1" font-family="Times,serif" font-size="14.00">r2: head_confirmation </text>
<text text-anchor="middle" x="327.08" y="-225.6" font-family="Times,serif" font-size="14.00"> Type: insert </text>
<text text-anchor="middle" x="327.08" y="-209.1" font-family="Times,serif" font-size="14.00"> Direction: before</text>
</g>
<!-- 679f78ea&#45;d615&#45;11ee&#45;9dd8&#45;04cf4b795879&#45;&gt;679f7c82&#45;d615&#45;11ee&#45;9dd8&#45;04cf4b795879 -->
<g id="edge3" class="edge">
<title>679f78ea&#45;d615&#45;11ee&#45;9dd8&#45;04cf4b795879&#45;&gt;679f7c82&#45;d615&#45;11ee&#45;9dd8&#45;04cf4b795879</title>
<path fill="none" stroke="black" d="M351.97,-295.14C348.65,-286.66 345.21,-277.9 341.99,-269.69"/>
<polygon fill="black" stroke="black" points="344.97,-268.68 338.06,-260.65 338.45,-271.24 344.97,-268.68"/>
</g>
<!-- 679f81fa&#45;d615&#45;11ee&#45;9dd8&#45;04cf4b795879 -->
<g id="node5" class="node">
<title>679f81fa&#45;d615&#45;11ee&#45;9dd8&#45;04cf4b795879</title>
<ellipse fill="none" stroke="black" cx="155.08" cy="-147.9" rx="50.84" ry="18"/>
<text text-anchor="middle" x="155.08" y="-142.85" font-family="Times,serif" font-size="14.00">r_3: level3</text>
</g>
<!-- 679f7c82&#45;d615&#45;11ee&#45;9dd8&#45;04cf4b795879&#45;&gt;679f81fa&#45;d615&#45;11ee&#45;9dd8&#45;04cf4b795879 -->
<g id="edge4" class="edge">
<title>679f7c82&#45;d615&#45;11ee&#45;9dd8&#45;04cf4b795879&#45;&gt;679f81fa&#45;d615&#45;11ee&#45;9dd8&#45;04cf4b795879</title>
<path fill="none" stroke="black" d="M266.93,-201.4C242.84,-190.1 215.77,-177.39 194.3,-167.31"/>
<polygon fill="black" stroke="black" points="196.09,-163.81 185.55,-162.73 193.12,-170.15 196.09,-163.81"/>
</g>
<!-- 679f89fc&#45;d615&#45;11ee&#45;9dd8&#45;04cf4b795879 -->
<g id="node7" class="node">
<title>679f89fc&#45;d615&#45;11ee&#45;9dd8&#45;04cf4b795879</title>
<ellipse fill="none" stroke="black" cx="327.08" cy="-147.9" rx="50.84" ry="18"/>
<text text-anchor="middle" x="327.08" y="-142.85" font-family="Times,serif" font-size="14.00">r_5: level3</text>
</g>
<!-- 679f7c82&#45;d615&#45;11ee&#45;9dd8&#45;04cf4b795879&#45;&gt;679f89fc&#45;d615&#45;11ee&#45;9dd8&#45;04cf4b795879 -->
<g id="edge6" class="edge">
<title>679f7c82&#45;d615&#45;11ee&#45;9dd8&#45;04cf4b795879&#45;&gt;679f89fc&#45;d615&#45;11ee&#45;9dd8&#45;04cf4b795879</title>
<path fill="none" stroke="black" d="M327.08,-201.4C327.08,-193.46 327.08,-184.82 327.08,-176.89"/>
<polygon fill="black" stroke="black" points="330.58,-176.94 327.08,-166.94 323.58,-176.94 330.58,-176.94"/>
</g>
<!-- 679f8650&#45;d615&#45;11ee&#45;9dd8&#45;04cf4b795879 -->
<g id="node6" class="node">
<title>679f8650&#45;d615&#45;11ee&#45;9dd8&#45;04cf4b795879</title>
<polygon fill="none" stroke="black" points="206.17,-46.95 154.62,-93.9 51.54,-93.9 0,-46.95 51.54,0 154.62,0 206.17,-46.95"/>
<text text-anchor="middle" x="103.08" y="-58.4" font-family="Times,serif" font-size="14.00">rp_23: level3 </text>
<text text-anchor="middle" x="103.08" y="-41.9" font-family="Times,serif" font-size="14.00"> head_confirmation </text>
<text text-anchor="middle" x="103.08" y="-25.4" font-family="Times,serif" font-size="14.00"> cost : 108</text>
</g>
<!-- 679f81fa&#45;d615&#45;11ee&#45;9dd8&#45;04cf4b795879&#45;&gt;679f8650&#45;d615&#45;11ee&#45;9dd8&#45;04cf4b795879 -->
<g id="edge5" class="edge">
<title>679f81fa&#45;d615&#45;11ee&#45;9dd8&#45;04cf4b795879&#45;&gt;679f8650&#45;d615&#45;11ee&#45;9dd8&#45;04cf4b795879</title>
<path fill="none" stroke="black" d="M146.26,-130.11C142.35,-122.67 137.5,-113.44 132.48,-103.88"/>
<polygon fill="black" stroke="black" points="135.17,-102.49 127.42,-95.27 128.98,-105.75 135.17,-102.49"/>
</g>
<!-- 679f8e16&#45;d615&#45;11ee&#45;9dd8&#45;04cf4b795879 -->
<g id="node8" class="node">
<title>679f8e16&#45;d615&#45;11ee&#45;9dd8&#45;04cf4b795879</title>
<polygon fill="none" stroke="black" points="430.17,-46.95 378.62,-93.9 275.54,-93.9 224,-46.95 275.54,0 378.62,0 430.17,-46.95"/>
<text text-anchor="middle" x="327.08" y="-58.4" font-family="Times,serif" font-size="14.00">rp_23: level3 </text>
<text text-anchor="middle" x="327.08" y="-41.9" font-family="Times,serif" font-size="14.00"> head_confirmation </text>
<text text-anchor="middle" x="327.08" y="-25.4" font-family="Times,serif" font-size="14.00"> cost : 76</text>
</g>
<!-- 679f89fc&#45;d615&#45;11ee&#45;9dd8&#45;04cf4b795879&#45;&gt;679f8e16&#45;d615&#45;11ee&#45;9dd8&#45;04cf4b795879 -->
<g id="edge7" class="edge">
<title>679f89fc&#45;d615&#45;11ee&#45;9dd8&#45;04cf4b795879&#45;&gt;679f8e16&#45;d615&#45;11ee&#45;9dd8&#45;04cf4b795879</title>
<path fill="none" stroke="black" d="M327.08,-129.66C327.08,-122.65 327.08,-114.12 327.08,-105.24"/>
<polygon fill="black" stroke="black" points="330.58,-105.32 327.08,-95.32 323.58,-105.32 330.58,-105.32"/>
</g>
<!-- 679f95be&#45;d615&#45;11ee&#45;9dd8&#45;04cf4b795879 -->
<g id="node10" class="node">
<title>679f95be&#45;d615&#45;11ee&#45;9dd8&#45;04cf4b795879</title>
<polygon fill="none" stroke="black" points="759.06,-342.35 720.07,-389.29 642.09,-389.29 603.11,-342.35 642.09,-295.4 720.07,-295.4 759.06,-342.35"/>
<text text-anchor="middle" x="681.08" y="-353.8" font-family="Times,serif" font-size="14.00">rp_8: level2 </text>
<text text-anchor="middle" x="681.08" y="-337.3" font-family="Times,serif" font-size="14.00"> evaluate_risk </text>
<text text-anchor="middle" x="681.08" y="-320.8" font-family="Times,serif" font-size="14.00"> cost : 36</text>
</g>
<!-- 679f91a4&#45;d615&#45;11ee&#45;9dd8&#45;04cf4b795879&#45;&gt;679f95be&#45;d615&#45;11ee&#45;9dd8&#45;04cf4b795879 -->
<g id="edge9" class="edge">
<title>679f91a4&#45;d615&#45;11ee&#45;9dd8&#45;04cf4b795879&#45;&gt;679f95be&#45;d615&#45;11ee&#45;9dd8&#45;04cf4b795879</title>
<path fill="none" stroke="black" d="M703.38,-425.06C701.43,-417.9 699.04,-409.14 696.56,-400.05"/>
<polygon fill="black" stroke="black" points="699.74,-399.44 693.74,-390.71 692.99,-401.28 699.74,-399.44"/>
</g>
<!-- 679f9988&#45;d615&#45;11ee&#45;9dd8&#45;04cf4b795879 -->
<g id="node11" class="node">
<title>679f9988&#45;d615&#45;11ee&#45;9dd8&#45;04cf4b795879</title>
<polygon fill="none" stroke="black" points="751.71,-259.4 610.46,-259.4 610.46,-201.9 751.71,-201.9 751.71,-259.4"/>
<text text-anchor="middle" x="681.08" y="-242.1" font-family="Times,serif" font-size="14.00">r3: head_confirmation </text>
<text text-anchor="middle" x="681.08" y="-225.6" font-family="Times,serif" font-size="14.00"> Type: insert </text>
<text text-anchor="middle" x="681.08" y="-209.1" font-family="Times,serif" font-size="14.00"> Direction: before</text>
</g>
<!-- 679f95be&#45;d615&#45;11ee&#45;9dd8&#45;04cf4b795879&#45;&gt;679f9988&#45;d615&#45;11ee&#45;9dd8&#45;04cf4b795879 -->
<g id="edge10" class="edge">
<title>679f95be&#45;d615&#45;11ee&#45;9dd8&#45;04cf4b795879&#45;&gt;679f9988&#45;d615&#45;11ee&#45;9dd8&#45;04cf4b795879</title>
<path fill="none" stroke="black" d="M681.08,-295.14C681.08,-286.94 681.08,-278.48 681.08,-270.51"/>
<polygon fill="black" stroke="black" points="684.58,-270.65 681.08,-260.65 677.58,-270.65 684.58,-270.65"/>
</g>
<!-- 679f9eb0&#45;d615&#45;11ee&#45;9dd8&#45;04cf4b795879 -->
<g id="node12" class="node">
<title>679f9eb0&#45;d615&#45;11ee&#45;9dd8&#45;04cf4b795879</title>
<ellipse fill="none" stroke="black" cx="577.08" cy="-147.9" rx="50.84" ry="18"/>
<text text-anchor="middle" x="577.08" y="-142.85" font-family="Times,serif" font-size="14.00">r_3: level3</text>
</g>
<!-- 679f9988&#45;d615&#45;11ee&#45;9dd8&#45;04cf4b795879&#45;&gt;679f9eb0&#45;d615&#45;11ee&#45;9dd8&#45;04cf4b795879 -->
<g id="edge11" class="edge">
<title>679f9988&#45;d615&#45;11ee&#45;9dd8&#45;04cf4b795879&#45;&gt;679f9eb0&#45;d615&#45;11ee&#45;9dd8&#45;04cf4b795879</title>
<path fill="none" stroke="black" d="M644.71,-201.4C632.11,-191.62 618.15,-180.79 606.21,-171.51"/>
<polygon fill="black" stroke="black" points="608.57,-168.14 598.53,-164.77 604.28,-173.67 608.57,-168.14"/>
</g>
<!-- 679fa7a2&#45;d615&#45;11ee&#45;9dd8&#45;04cf4b795879 -->
<g id="node14" class="node">
<title>679fa7a2&#45;d615&#45;11ee&#45;9dd8&#45;04cf4b795879</title>
<ellipse fill="none" stroke="black" cx="723.08" cy="-147.9" rx="50.84" ry="18"/>
<text text-anchor="middle" x="723.08" y="-142.85" font-family="Times,serif" font-size="14.00">r_5: level3</text>
</g>
<!-- 679f9988&#45;d615&#45;11ee&#45;9dd8&#45;04cf4b795879&#45;&gt;679fa7a2&#45;d615&#45;11ee&#45;9dd8&#45;04cf4b795879 -->
<g id="edge13" class="edge">
<title>679f9988&#45;d615&#45;11ee&#45;9dd8&#45;04cf4b795879&#45;&gt;679fa7a2&#45;d615&#45;11ee&#45;9dd8&#45;04cf4b795879</title>
<path fill="none" stroke="black" d="M695.77,-201.4C700.14,-193 704.92,-183.82 709.24,-175.52"/>
<polygon fill="black" stroke="black" points="712.71,-177.43 714.22,-166.94 706.5,-174.2 712.71,-177.43"/>
</g>
<!-- 679fa2d4&#45;d615&#45;11ee&#45;9dd8&#45;04cf4b795879 -->
<g id="node13" class="node">
<title>679fa2d4&#45;d615&#45;11ee&#45;9dd8&#45;04cf4b795879</title>
<polygon fill="none" stroke="black" points="654.17,-46.95 602.62,-93.9 499.54,-93.9 448,-46.95 499.54,0 602.62,0 654.17,-46.95"/>
<text text-anchor="middle" x="551.08" y="-58.4" font-family="Times,serif" font-size="14.00">rp_23: level3 </text>
<text text-anchor="middle" x="551.08" y="-41.9" font-family="Times,serif" font-size="14.00"> head_confirmation </text>
<text text-anchor="middle" x="551.08" y="-25.4" font-family="Times,serif" font-size="14.00"> cost : 108</text>
</g>
<!-- 679f9eb0&#45;d615&#45;11ee&#45;9dd8&#45;04cf4b795879&#45;&gt;679fa2d4&#45;d615&#45;11ee&#45;9dd8&#45;04cf4b795879 -->
<g id="edge12" class="edge">
<title>679f9eb0&#45;d615&#45;11ee&#45;9dd8&#45;04cf4b795879&#45;&gt;679fa2d4&#45;d615&#45;11ee&#45;9dd8&#45;04cf4b795879</title>
<path fill="none" stroke="black" d="M572.55,-129.66C570.69,-122.58 568.42,-113.93 566.06,-104.95"/>
<polygon fill="black" stroke="black" points="569.19,-104.1 563.27,-95.32 562.42,-105.88 569.19,-104.1"/>
</g>
<!-- 679fadf6&#45;d615&#45;11ee&#45;9dd8&#45;04cf4b795879 -->
<g id="node15" class="node">
<title>679fadf6&#45;d615&#45;11ee&#45;9dd8&#45;04cf4b795879</title>
<polygon fill="none" stroke="black" points="878.17,-46.95 826.62,-93.9 723.54,-93.9 672,-46.95 723.54,0 826.62,0 878.17,-46.95"/>
<text text-anchor="middle" x="775.08" y="-58.4" font-family="Times,serif" font-size="14.00">rp_23: level3 </text>
<text text-anchor="middle" x="775.08" y="-41.9" font-family="Times,serif" font-size="14.00"> head_confirmation </text>
<text text-anchor="middle" x="775.08" y="-25.4" font-family="Times,serif" font-size="14.00"> cost : 76</text>
</g>
<!-- 679fa7a2&#45;d615&#45;11ee&#45;9dd8&#45;04cf4b795879&#45;&gt;679fadf6&#45;d615&#45;11ee&#45;9dd8&#45;04cf4b795879 -->
<g id="edge14" class="edge">
<title>679fa7a2&#45;d615&#45;11ee&#45;9dd8&#45;04cf4b795879&#45;&gt;679fadf6&#45;d615&#45;11ee&#45;9dd8&#45;04cf4b795879</title>
<path fill="none" stroke="black" d="M731.9,-130.11C735.82,-122.67 740.67,-113.44 745.69,-103.88"/>
<polygon fill="black" stroke="black" points="749.19,-105.75 750.74,-95.27 742.99,-102.49 749.19,-105.75"/>
</g>
<!-- 679fb95e&#45;d615&#45;11ee&#45;9dd8&#45;04cf4b795879 -->
<g id="node17" class="node">
<title>679fb95e&#45;d615&#45;11ee&#45;9dd8&#45;04cf4b795879</title>
<polygon fill="none" stroke="black" points="933.06,-342.35 894.07,-389.29 816.09,-389.29 777.11,-342.35 816.09,-295.4 894.07,-295.4 933.06,-342.35"/>
<text text-anchor="middle" x="855.08" y="-353.8" font-family="Times,serif" font-size="14.00">rp_8: level2 </text>
<text text-anchor="middle" x="855.08" y="-337.3" font-family="Times,serif" font-size="14.00"> evaluate_risk </text>
<text text-anchor="middle" x="855.08" y="-320.8" font-family="Times,serif" font-size="14.00"> cost : 146</text>
</g>
<!-- 679fb328&#45;d615&#45;11ee&#45;9dd8&#45;04cf4b795879&#45;&gt;679fb95e&#45;d615&#45;11ee&#45;9dd8&#45;04cf4b795879 -->
<g id="edge16" class="edge">
<title>679fb328&#45;d615&#45;11ee&#45;9dd8&#45;04cf4b795879&#45;&gt;679fb95e&#45;d615&#45;11ee&#45;9dd8&#45;04cf4b795879</title>
<path fill="none" stroke="black" d="M855.08,-425.06C855.08,-418.05 855.08,-409.52 855.08,-400.64"/>
<polygon fill="black" stroke="black" points="858.58,-400.71 855.08,-390.71 851.58,-400.71 858.58,-400.71"/>
</g>
<!-- 679fbd0a&#45;d615&#45;11ee&#45;9dd8&#45;04cf4b795879 -->
<g id="node18" class="node">
<title>679fbd0a&#45;d615&#45;11ee&#45;9dd8&#45;04cf4b795879</title>
<polygon fill="none" stroke="black" points="1069.71,-259.4 928.46,-259.4 928.46,-201.9 1069.71,-201.9 1069.71,-259.4"/>
<text text-anchor="middle" x="999.08" y="-242.1" font-family="Times,serif" font-size="14.00">r6: head_confirmation </text>
<text text-anchor="middle" x="999.08" y="-225.6" font-family="Times,serif" font-size="14.00"> Type: insert </text>
<text text-anchor="middle" x="999.08" y="-209.1" font-family="Times,serif" font-size="14.00"> Direction: after</text>
</g>
<!-- 679fb95e&#45;d615&#45;11ee&#45;9dd8&#45;04cf4b795879&#45;&gt;679fbd0a&#45;d615&#45;11ee&#45;9dd8&#45;04cf4b795879 -->
<g id="edge17" class="edge">
<title>679fb95e&#45;d615&#45;11ee&#45;9dd8&#45;04cf4b795879&#45;&gt;679fbd0a&#45;d615&#45;11ee&#45;9dd8&#45;04cf4b795879</title>
<path fill="none" stroke="black" d="M902.63,-305.12C918.95,-292.7 937.16,-278.82 953.33,-266.5"/>
<polygon fill="black" stroke="black" points="955.24,-268.69 961.07,-259.84 951,-263.12 955.24,-268.69"/>
</g>
<!-- 679fc246&#45;d615&#45;11ee&#45;9dd8&#45;04cf4b795879 -->
<g id="node19" class="node">
<title>679fc246&#45;d615&#45;11ee&#45;9dd8&#45;04cf4b795879</title>
<ellipse fill="none" stroke="black" cx="999.08" cy="-147.9" rx="50.84" ry="18"/>
<text text-anchor="middle" x="999.08" y="-142.85" font-family="Times,serif" font-size="14.00">r_3: level3</text>
</g>
<!-- 679fbd0a&#45;d615&#45;11ee&#45;9dd8&#45;04cf4b795879&#45;&gt;679fc246&#45;d615&#45;11ee&#45;9dd8&#45;04cf4b795879 -->
<g id="edge18" class="edge">
<title>679fbd0a&#45;d615&#45;11ee&#45;9dd8&#45;04cf4b795879&#45;&gt;679fc246&#45;d615&#45;11ee&#45;9dd8&#45;04cf4b795879</title>
<path fill="none" stroke="black" d="M999.08,-201.4C999.08,-193.46 999.08,-184.82 999.08,-176.89"/>
<polygon fill="black" stroke="black" points="1002.58,-176.94 999.08,-166.94 995.58,-176.94 1002.58,-176.94"/>
</g>
<!-- 679fc96c&#45;d615&#45;11ee&#45;9dd8&#45;04cf4b795879 -->
<g id="node21" class="node">
<title>679fc96c&#45;d615&#45;11ee&#45;9dd8&#45;04cf4b795879</title>
<ellipse fill="none" stroke="black" cx="1171.08" cy="-147.9" rx="50.84" ry="18"/>
<text text-anchor="middle" x="1171.08" y="-142.85" font-family="Times,serif" font-size="14.00">r_5: level3</text>
</g>
<!-- 679fbd0a&#45;d615&#45;11ee&#45;9dd8&#45;04cf4b795879&#45;&gt;679fc96c&#45;d615&#45;11ee&#45;9dd8&#45;04cf4b795879 -->
<g id="edge20" class="edge">
<title>679fbd0a&#45;d615&#45;11ee&#45;9dd8&#45;04cf4b795879&#45;&gt;679fc96c&#45;d615&#45;11ee&#45;9dd8&#45;04cf4b795879</title>
<path fill="none" stroke="black" d="M1059.24,-201.4C1083.33,-190.1 1110.39,-177.39 1131.87,-167.31"/>
<polygon fill="black" stroke="black" points="1133.05,-170.15 1140.61,-162.73 1130.07,-163.81 1133.05,-170.15"/>
</g>
<!-- 679fc638&#45;d615&#45;11ee&#45;9dd8&#45;04cf4b795879 -->
<g id="node20" class="node">
<title>679fc638&#45;d615&#45;11ee&#45;9dd8&#45;04cf4b795879</title>
<polygon fill="none" stroke="black" points="1102.17,-46.95 1050.62,-93.9 947.54,-93.9 896,-46.95 947.54,0 1050.62,0 1102.17,-46.95"/>
<text text-anchor="middle" x="999.08" y="-58.4" font-family="Times,serif" font-size="14.00">rp_23: level3 </text>
<text text-anchor="middle" x="999.08" y="-41.9" font-family="Times,serif" font-size="14.00"> head_confirmation </text>
<text text-anchor="middle" x="999.08" y="-25.4" font-family="Times,serif" font-size="14.00"> cost : 108</text>
</g>
<!-- 679fc246&#45;d615&#45;11ee&#45;9dd8&#45;04cf4b795879&#45;&gt;679fc638&#45;d615&#45;11ee&#45;9dd8&#45;04cf4b795879 -->
<g id="edge19" class="edge">
<title>679fc246&#45;d615&#45;11ee&#45;9dd8&#45;04cf4b795879&#45;&gt;679fc638&#45;d615&#45;11ee&#45;9dd8&#45;04cf4b795879</title>
<path fill="none" stroke="black" d="M999.08,-129.66C999.08,-122.65 999.08,-114.12 999.08,-105.24"/>
<polygon fill="black" stroke="black" points="1002.58,-105.32 999.08,-95.32 995.58,-105.32 1002.58,-105.32"/>
</g>
<!-- 679fcd4a&#45;d615&#45;11ee&#45;9dd8&#45;04cf4b795879 -->
<g id="node22" class="node">
<title>679fcd4a&#45;d615&#45;11ee&#45;9dd8&#45;04cf4b795879</title>
<polygon fill="none" stroke="black" points="1326.17,-46.95 1274.62,-93.9 1171.54,-93.9 1120,-46.95 1171.54,0 1274.62,0 1326.17,-46.95"/>
<text text-anchor="middle" x="1223.08" y="-58.4" font-family="Times,serif" font-size="14.00">rp_23: level3 </text>
<text text-anchor="middle" x="1223.08" y="-41.9" font-family="Times,serif" font-size="14.00"> head_confirmation </text>
<text text-anchor="middle" x="1223.08" y="-25.4" font-family="Times,serif" font-size="14.00"> cost : 76</text>
</g>
<!-- 679fc96c&#45;d615&#45;11ee&#45;9dd8&#45;04cf4b795879&#45;&gt;679fcd4a&#45;d615&#45;11ee&#45;9dd8&#45;04cf4b795879 -->
<g id="edge21" class="edge">
<title>679fc96c&#45;d615&#45;11ee&#45;9dd8&#45;04cf4b795879&#45;&gt;679fcd4a&#45;d615&#45;11ee&#45;9dd8&#45;04cf4b795879</title>
<path fill="none" stroke="black" d="M1179.9,-130.11C1183.82,-122.67 1188.67,-113.44 1193.69,-103.88"/>
<polygon fill="black" stroke="black" points="1197.19,-105.75 1198.74,-95.27 1190.99,-102.49 1197.19,-105.75"/>
</g>
<!-- 679fd452&#45;d615&#45;11ee&#45;9dd8&#45;04cf4b795879 -->
<g id="node24" class="node">
<title>679fd452&#45;d615&#45;11ee&#45;9dd8&#45;04cf4b795879</title>
<polygon fill="none" stroke="black" points="1107.06,-342.35 1068.07,-389.29 990.09,-389.29 951.11,-342.35 990.09,-295.4 1068.07,-295.4 1107.06,-342.35"/>
<text text-anchor="middle" x="1029.08" y="-353.8" font-family="Times,serif" font-size="14.00">rp_14: level3 </text>
<text text-anchor="middle" x="1029.08" y="-337.3" font-family="Times,serif" font-size="14.00"> evaluate_risk </text>
<text text-anchor="middle" x="1029.08" y="-320.8" font-family="Times,serif" font-size="14.00"> cost : 100</text>
</g>
<!-- 679fd06a&#45;d615&#45;11ee&#45;9dd8&#45;04cf4b795879&#45;&gt;679fd452&#45;d615&#45;11ee&#45;9dd8&#45;04cf4b795879 -->
<g id="edge23" class="edge">
<title>679fd06a&#45;d615&#45;11ee&#45;9dd8&#45;04cf4b795879&#45;&gt;679fd452&#45;d615&#45;11ee&#45;9dd8&#45;04cf4b795879</title>
<path fill="none" stroke="black" d="M1006.79,-425.06C1008.74,-417.9 1011.13,-409.14 1013.61,-400.05"/>
<polygon fill="black" stroke="black" points="1017.17,-401.28 1016.43,-390.71 1010.42,-399.44 1017.17,-401.28"/>
</g>
<!-- 679fdb78&#45;d615&#45;11ee&#45;9dd8&#45;04cf4b795879 -->
<g id="node26" class="node">
<title>679fdb78&#45;d615&#45;11ee&#45;9dd8&#45;04cf4b795879</title>
<polygon fill="none" stroke="black" points="1281.06,-342.35 1242.07,-389.29 1164.09,-389.29 1125.11,-342.35 1164.09,-295.4 1242.07,-295.4 1281.06,-342.35"/>
<text text-anchor="middle" x="1203.08" y="-353.8" font-family="Times,serif" font-size="14.00">rp_14: level3 </text>
<text text-anchor="middle" x="1203.08" y="-337.3" font-family="Times,serif" font-size="14.00"> evaluate_risk </text>
<text text-anchor="middle" x="1203.08" y="-320.8" font-family="Times,serif" font-size="14.00"> cost : 100</text>
</g>
<!-- 679fd7a4&#45;d615&#45;11ee&#45;9dd8&#45;04cf4b795879&#45;&gt;679fdb78&#45;d615&#45;11ee&#45;9dd8&#45;04cf4b795879 -->
<g id="edge25" class="edge">
<title>679fd7a4&#45;d615&#45;11ee&#45;9dd8&#45;04cf4b795879&#45;&gt;679fdb78&#45;d615&#45;11ee&#45;9dd8&#45;04cf4b795879</title>
<path fill="none" stroke="black" d="M1169.22,-425.06C1172.22,-417.82 1175.9,-408.95 1179.71,-399.76"/>
<polygon fill="black" stroke="black" points="1183.27,-401.29 1183.87,-390.71 1176.81,-398.61 1183.27,-401.29"/>
</g>
</g>
</svg>
