<?xml version="1.0" encoding="UTF-8" standalone="no"?>
<!DOCTYPE svg PUBLIC "-//W3C//DTD SVG 1.1//EN"
 "http://www.w3.org/Graphics/SVG/1.1/DTD/svg11.dtd">
<!-- Generated by graphviz version 7.1.0 (0)
 -->
<!-- Title: CallTree Pages: 1 -->
<svg width="825pt" height="539pt"
 viewBox="0.00 0.00 824.93 539.10" xmlns="http://www.w3.org/2000/svg" xmlns:xlink="http://www.w3.org/1999/xlink">
<g id="graph0" class="graph" transform="scale(1 1) rotate(0) translate(4 535.1)">
<title>CallTree</title>
<polygon fill="white" stroke="none" points="-4,4 -4,-535.1 820.93,-535.1 820.93,4 -4,4"/>
<!-- 65c32526&#45;d7dc&#45;11ee&#45;9025&#45;ac1a3ddd05c7 -->
<g id="node1" class="node">
<title>65c32526&#45;d7dc&#45;11ee&#45;9025&#45;ac1a3ddd05c7</title>
<polygon fill="none" stroke="black" points="462.31,-531.1 357.31,-531.1 357.31,-478.1 462.31,-478.1 462.31,-531.1"/>
<text text-anchor="middle" x="409.81" y="-515.9" font-family="Times,serif" font-size="14.00">a1: new_tender </text>
<text text-anchor="middle" x="409.81" y="-500.9" font-family="Times,serif" font-size="14.00"> Type: Core </text>
<text text-anchor="middle" x="409.81" y="-485.9" font-family="Times,serif" font-size="14.00"> Direction: Core</text>
</g>
<!-- 65c32efe&#45;d7dc&#45;11ee&#45;9025&#45;ac1a3ddd05c7 -->
<g id="node2" class="node">
<title>65c32efe&#45;d7dc&#45;11ee&#45;9025&#45;ac1a3ddd05c7</title>
<ellipse fill="none" stroke="black" cx="111.81" cy="-424.1" rx="48.99" ry="18"/>
<text text-anchor="middle" x="111.81" y="-420.4" font-family="Times,serif" font-size="14.00">r_1: level1</text>
</g>
<!-- 65c32526&#45;d7dc&#45;11ee&#45;9025&#45;ac1a3ddd05c7&#45;&gt;65c32efe&#45;d7dc&#45;11ee&#45;9025&#45;ac1a3ddd05c7 -->
<g id="edge1" class="edge">
<title>65c32526&#45;d7dc&#45;11ee&#45;9025&#45;ac1a3ddd05c7&#45;&gt;65c32efe&#45;d7dc&#45;11ee&#45;9025&#45;ac1a3ddd05c7</title>
<path fill="none" stroke="black" d="M356.88,-489.65C301.76,-475.13 216.07,-452.56 161.99,-438.32"/>
<polygon fill="black" stroke="black" points="162.98,-434.96 152.42,-435.79 161.2,-441.73 162.98,-434.96"/>
</g>
<!-- 65c33908&#45;d7dc&#45;11ee&#45;9025&#45;ac1a3ddd05c7 -->
<g id="node7" class="node">
<title>65c33908&#45;d7dc&#45;11ee&#45;9025&#45;ac1a3ddd05c7</title>
<ellipse fill="none" stroke="black" cx="271.81" cy="-424.1" rx="48.99" ry="18"/>
<text text-anchor="middle" x="271.81" y="-420.4" font-family="Times,serif" font-size="14.00">r_2: level2</text>
</g>
<!-- 65c32526&#45;d7dc&#45;11ee&#45;9025&#45;ac1a3ddd05c7&#45;&gt;65c33908&#45;d7dc&#45;11ee&#45;9025&#45;ac1a3ddd05c7 -->
<g id="edge6" class="edge">
<title>65c32526&#45;d7dc&#45;11ee&#45;9025&#45;ac1a3ddd05c7&#45;&gt;65c33908&#45;d7dc&#45;11ee&#45;9025&#45;ac1a3ddd05c7</title>
<path fill="none" stroke="black" d="M364.25,-477.68C345.74,-467.15 324.68,-455.17 307.34,-445.31"/>
<polygon fill="black" stroke="black" points="309.35,-442.42 298.93,-440.52 305.89,-448.51 309.35,-442.42"/>
</g>
<!-- 65c33f8e&#45;d7dc&#45;11ee&#45;9025&#45;ac1a3ddd05c7 -->
<g id="node11" class="node">
<title>65c33f8e&#45;d7dc&#45;11ee&#45;9025&#45;ac1a3ddd05c7</title>
<ellipse fill="none" stroke="black" cx="409.81" cy="-424.1" rx="48.99" ry="18"/>
<text text-anchor="middle" x="409.81" y="-420.4" font-family="Times,serif" font-size="14.00">r_4: level2</text>
</g>
<!-- 65c32526&#45;d7dc&#45;11ee&#45;9025&#45;ac1a3ddd05c7&#45;&gt;65c33f8e&#45;d7dc&#45;11ee&#45;9025&#45;ac1a3ddd05c7 -->
<g id="edge10" class="edge">
<title>65c32526&#45;d7dc&#45;11ee&#45;9025&#45;ac1a3ddd05c7&#45;&gt;65c33f8e&#45;d7dc&#45;11ee&#45;9025&#45;ac1a3ddd05c7</title>
<path fill="none" stroke="black" d="M409.81,-477.89C409.81,-470.17 409.81,-461.66 409.81,-453.76"/>
<polygon fill="black" stroke="black" points="413.31,-453.94 409.81,-443.94 406.31,-453.94 413.31,-453.94"/>
</g>
<!-- 65c3427c&#45;d7dc&#45;11ee&#45;9025&#45;ac1a3ddd05c7 -->
<g id="node13" class="node">
<title>65c3427c&#45;d7dc&#45;11ee&#45;9025&#45;ac1a3ddd05c7</title>
<ellipse fill="none" stroke="black" cx="548.81" cy="-424.1" rx="48.99" ry="18"/>
<text text-anchor="middle" x="548.81" y="-420.4" font-family="Times,serif" font-size="14.00">r_3: level3</text>
</g>
<!-- 65c32526&#45;d7dc&#45;11ee&#45;9025&#45;ac1a3ddd05c7&#45;&gt;65c3427c&#45;d7dc&#45;11ee&#45;9025&#45;ac1a3ddd05c7 -->
<g id="edge12" class="edge">
<title>65c32526&#45;d7dc&#45;11ee&#45;9025&#45;ac1a3ddd05c7&#45;&gt;65c3427c&#45;d7dc&#45;11ee&#45;9025&#45;ac1a3ddd05c7</title>
<path fill="none" stroke="black" d="M455.71,-477.68C474.35,-467.15 495.57,-455.17 513.03,-445.31"/>
<polygon fill="black" stroke="black" points="514.53,-448.48 521.51,-440.52 511.09,-442.39 514.53,-448.48"/>
</g>
<!-- 65c3489e&#45;d7dc&#45;11ee&#45;9025&#45;ac1a3ddd05c7 -->
<g id="node17" class="node">
<title>65c3489e&#45;d7dc&#45;11ee&#45;9025&#45;ac1a3ddd05c7</title>
<ellipse fill="none" stroke="black" cx="714.81" cy="-424.1" rx="48.99" ry="18"/>
<text text-anchor="middle" x="714.81" y="-420.4" font-family="Times,serif" font-size="14.00">r_5: level3</text>
</g>
<!-- 65c32526&#45;d7dc&#45;11ee&#45;9025&#45;ac1a3ddd05c7&#45;&gt;65c3489e&#45;d7dc&#45;11ee&#45;9025&#45;ac1a3ddd05c7 -->
<g id="edge16" class="edge">
<title>65c32526&#45;d7dc&#45;11ee&#45;9025&#45;ac1a3ddd05c7&#45;&gt;65c3489e&#45;d7dc&#45;11ee&#45;9025&#45;ac1a3ddd05c7</title>
<path fill="none" stroke="black" d="M462.59,-490.01C519.38,-475.4 609.01,-452.33 664.73,-437.99"/>
<polygon fill="black" stroke="black" points="665.47,-441.41 674.28,-435.53 663.72,-434.63 665.47,-441.41"/>
</g>
<!-- 65c33174&#45;d7dc&#45;11ee&#45;9025&#45;ac1a3ddd05c7 -->
<g id="node3" class="node">
<title>65c33174&#45;d7dc&#45;11ee&#45;9025&#45;ac1a3ddd05c7</title>
<polygon fill="none" stroke="black" points="160.89,-326.82 125.35,-369.87 54.28,-369.87 18.74,-326.82 54.28,-283.77 125.35,-283.77 160.89,-326.82"/>
<text text-anchor="middle" x="89.81" y="-338.12" font-family="Times,serif" font-size="14.00">rp_1: level1 </text>
<text text-anchor="middle" x="89.81" y="-323.12" font-family="Times,serif" font-size="14.00"> new_tender </text>
<text text-anchor="middle" x="89.81" y="-308.12" font-family="Times,serif" font-size="14.00"> cost : 12</text>
</g>
<!-- 65c32efe&#45;d7dc&#45;11ee&#45;9025&#45;ac1a3ddd05c7&#45;&gt;65c33174&#45;d7dc&#45;11ee&#45;9025&#45;ac1a3ddd05c7 -->
<g id="edge2" class="edge">
<title>65c32efe&#45;d7dc&#45;11ee&#45;9025&#45;ac1a3ddd05c7&#45;&gt;65c33174&#45;d7dc&#45;11ee&#45;9025&#45;ac1a3ddd05c7</title>
<path fill="none" stroke="black" d="M107.88,-406.06C106.23,-398.91 104.21,-390.16 102.12,-381.13"/>
<polygon fill="black" stroke="black" points="105.57,-380.51 99.91,-371.55 98.75,-382.08 105.57,-380.51"/>
</g>
<!-- 65c33386&#45;d7dc&#45;11ee&#45;9025&#45;ac1a3ddd05c7 -->
<g id="node4" class="node">
<title>65c33386&#45;d7dc&#45;11ee&#45;9025&#45;ac1a3ddd05c7</title>
<polygon fill="none" stroke="black" points="152.31,-247.55 27.31,-247.55 27.31,-194.55 152.31,-194.55 152.31,-247.55"/>
<text text-anchor="middle" x="89.81" y="-232.35" font-family="Times,serif" font-size="14.00">r0: create_proposal </text>
<text text-anchor="middle" x="89.81" y="-217.35" font-family="Times,serif" font-size="14.00"> Type: insert </text>
<text text-anchor="middle" x="89.81" y="-202.35" font-family="Times,serif" font-size="14.00"> Direction: after</text>
</g>
<!-- 65c33174&#45;d7dc&#45;11ee&#45;9025&#45;ac1a3ddd05c7&#45;&gt;65c33386&#45;d7dc&#45;11ee&#45;9025&#45;ac1a3ddd05c7 -->
<g id="edge3" class="edge">
<title>65c33174&#45;d7dc&#45;11ee&#45;9025&#45;ac1a3ddd05c7&#45;&gt;65c33386&#45;d7dc&#45;11ee&#45;9025&#45;ac1a3ddd05c7</title>
<path fill="none" stroke="black" d="M89.81,-283.31C89.81,-275.36 89.81,-267.1 89.81,-259.32"/>
<polygon fill="black" stroke="black" points="93.31,-259.49 89.81,-249.49 86.31,-259.49 93.31,-259.49"/>
</g>
<!-- 65c335f2&#45;d7dc&#45;11ee&#45;9025&#45;ac1a3ddd05c7 -->
<g id="node5" class="node">
<title>65c335f2&#45;d7dc&#45;11ee&#45;9025&#45;ac1a3ddd05c7</title>
<ellipse fill="none" stroke="black" cx="89.81" cy="-140.55" rx="48.99" ry="18"/>
<text text-anchor="middle" x="89.81" y="-136.85" font-family="Times,serif" font-size="14.00">r_4: level2</text>
</g>
<!-- 65c33386&#45;d7dc&#45;11ee&#45;9025&#45;ac1a3ddd05c7&#45;&gt;65c335f2&#45;d7dc&#45;11ee&#45;9025&#45;ac1a3ddd05c7 -->
<g id="edge4" class="edge">
<title>65c33386&#45;d7dc&#45;11ee&#45;9025&#45;ac1a3ddd05c7&#45;&gt;65c335f2&#45;d7dc&#45;11ee&#45;9025&#45;ac1a3ddd05c7</title>
<path fill="none" stroke="black" d="M89.81,-194.34C89.81,-186.62 89.81,-178.11 89.81,-170.21"/>
<polygon fill="black" stroke="black" points="93.31,-170.39 89.81,-160.39 86.31,-170.39 93.31,-170.39"/>
</g>
<!-- 65c3378c&#45;d7dc&#45;11ee&#45;9025&#45;ac1a3ddd05c7 -->
<g id="node6" class="node">
<title>65c3378c&#45;d7dc&#45;11ee&#45;9025&#45;ac1a3ddd05c7</title>
<polygon fill="none" stroke="black" points="179.44,-43.27 134.63,-86.32 45,-86.32 0.18,-43.27 45,-0.22 134.63,-0.22 179.44,-43.27"/>
<text text-anchor="middle" x="89.81" y="-54.57" font-family="Times,serif" font-size="14.00">rp_15: level2 </text>
<text text-anchor="middle" x="89.81" y="-39.57" font-family="Times,serif" font-size="14.00"> create_proposal </text>
<text text-anchor="middle" x="89.81" y="-24.57" font-family="Times,serif" font-size="14.00"> cost : 15</text>
</g>
<!-- 65c335f2&#45;d7dc&#45;11ee&#45;9025&#45;ac1a3ddd05c7&#45;&gt;65c3378c&#45;d7dc&#45;11ee&#45;9025&#45;ac1a3ddd05c7 -->
<g id="edge5" class="edge">
<title>65c335f2&#45;d7dc&#45;11ee&#45;9025&#45;ac1a3ddd05c7&#45;&gt;65c3378c&#45;d7dc&#45;11ee&#45;9025&#45;ac1a3ddd05c7</title>
<path fill="none" stroke="black" d="M89.81,-122.07C89.81,-115.13 89.81,-106.72 89.81,-98.05"/>
<polygon fill="black" stroke="black" points="93.31,-98.09 89.81,-88.09 86.31,-98.09 93.31,-98.09"/>
</g>
<!-- 65c33aa2&#45;d7dc&#45;11ee&#45;9025&#45;ac1a3ddd05c7 -->
<g id="node8" class="node">
<title>65c33aa2&#45;d7dc&#45;11ee&#45;9025&#45;ac1a3ddd05c7</title>
<polygon fill="none" stroke="black" points="320.89,-326.82 285.35,-369.87 214.28,-369.87 178.74,-326.82 214.28,-283.77 285.35,-283.77 320.89,-326.82"/>
<text text-anchor="middle" x="249.81" y="-338.12" font-family="Times,serif" font-size="14.00">rp_6: level2 </text>
<text text-anchor="middle" x="249.81" y="-323.12" font-family="Times,serif" font-size="14.00"> new_tender </text>
<text text-anchor="middle" x="249.81" y="-308.12" font-family="Times,serif" font-size="14.00"> cost : 85</text>
</g>
<!-- 65c33908&#45;d7dc&#45;11ee&#45;9025&#45;ac1a3ddd05c7&#45;&gt;65c33aa2&#45;d7dc&#45;11ee&#45;9025&#45;ac1a3ddd05c7 -->
<g id="edge7" class="edge">
<title>65c33908&#45;d7dc&#45;11ee&#45;9025&#45;ac1a3ddd05c7&#45;&gt;65c33aa2&#45;d7dc&#45;11ee&#45;9025&#45;ac1a3ddd05c7</title>
<path fill="none" stroke="black" d="M267.88,-406.06C266.23,-398.91 264.21,-390.16 262.12,-381.13"/>
<polygon fill="black" stroke="black" points="265.57,-380.51 259.91,-371.55 258.75,-382.08 265.57,-380.51"/>
</g>
<!-- 65c33c00&#45;d7dc&#45;11ee&#45;9025&#45;ac1a3ddd05c7 -->
<g id="node9" class="node">
<title>65c33c00&#45;d7dc&#45;11ee&#45;9025&#45;ac1a3ddd05c7</title>
<polygon fill="none" stroke="black" points="295.31,-247.55 176.31,-247.55 176.31,-194.55 295.31,-194.55 295.31,-247.55"/>
<text text-anchor="middle" x="235.81" y="-232.35" font-family="Times,serif" font-size="14.00">r0: data_support </text>
<text text-anchor="middle" x="235.81" y="-217.35" font-family="Times,serif" font-size="14.00"> Type: insert </text>
<text text-anchor="middle" x="235.81" y="-202.35" font-family="Times,serif" font-size="14.00"> Direction: parallel</text>
</g>
<!-- 65c33aa2&#45;d7dc&#45;11ee&#45;9025&#45;ac1a3ddd05c7&#45;&gt;65c33c00&#45;d7dc&#45;11ee&#45;9025&#45;ac1a3ddd05c7 -->
<g id="edge8" class="edge">
<title>65c33aa2&#45;d7dc&#45;11ee&#45;9025&#45;ac1a3ddd05c7&#45;&gt;65c33c00&#45;d7dc&#45;11ee&#45;9025&#45;ac1a3ddd05c7</title>
<path fill="none" stroke="black" d="M244.08,-283.31C243.01,-275.36 241.89,-267.1 240.84,-259.32"/>
<polygon fill="black" stroke="black" points="244.32,-258.92 239.52,-249.48 237.38,-259.86 244.32,-258.92"/>
</g>
<!-- 65c33de0&#45;d7dc&#45;11ee&#45;9025&#45;ac1a3ddd05c7 -->
<g id="node10" class="node">
<title>65c33de0&#45;d7dc&#45;11ee&#45;9025&#45;ac1a3ddd05c7</title>
<polygon fill="none" stroke="black" points="490.31,-247.55 313.31,-247.55 313.31,-194.55 490.31,-194.55 490.31,-247.55"/>
<text text-anchor="middle" x="401.81" y="-232.35" font-family="Times,serif" font-size="14.00">r0: handover_to_engineering </text>
<text text-anchor="middle" x="401.81" y="-217.35" font-family="Times,serif" font-size="14.00"> Type: delete </text>
<text text-anchor="middle" x="401.81" y="-202.35" font-family="Times,serif" font-size="14.00"> Direction: any</text>
</g>
<!-- 65c33aa2&#45;d7dc&#45;11ee&#45;9025&#45;ac1a3ddd05c7&#45;&gt;65c33de0&#45;d7dc&#45;11ee&#45;9025&#45;ac1a3ddd05c7 -->
<g id="edge9" class="edge">
<title>65c33aa2&#45;d7dc&#45;11ee&#45;9025&#45;ac1a3ddd05c7&#45;&gt;65c33de0&#45;d7dc&#45;11ee&#45;9025&#45;ac1a3ddd05c7</title>
<path fill="none" stroke="black" d="M295.01,-294.97C313.87,-282.09 335.79,-267.13 354.84,-254.12"/>
<polygon fill="black" stroke="black" points="356.68,-257.1 362.97,-248.57 352.74,-251.32 356.68,-257.1"/>
</g>
<!-- 65c34128&#45;d7dc&#45;11ee&#45;9025&#45;ac1a3ddd05c7 -->
<g id="node12" class="node">
<title>65c34128&#45;d7dc&#45;11ee&#45;9025&#45;ac1a3ddd05c7</title>
<polygon fill="none" stroke="black" points="480.89,-326.82 445.35,-369.87 374.28,-369.87 338.74,-326.82 374.28,-283.77 445.35,-283.77 480.89,-326.82"/>
<text text-anchor="middle" x="409.81" y="-338.12" font-family="Times,serif" font-size="14.00">rp_6: level2 </text>
<text text-anchor="middle" x="409.81" y="-323.12" font-family="Times,serif" font-size="14.00"> new_tender </text>
<text text-anchor="middle" x="409.81" y="-308.12" font-family="Times,serif" font-size="14.00"> cost : 87</text>
</g>
<!-- 65c33f8e&#45;d7dc&#45;11ee&#45;9025&#45;ac1a3ddd05c7&#45;&gt;65c34128&#45;d7dc&#45;11ee&#45;9025&#45;ac1a3ddd05c7 -->
<g id="edge11" class="edge">
<title>65c33f8e&#45;d7dc&#45;11ee&#45;9025&#45;ac1a3ddd05c7&#45;&gt;65c34128&#45;d7dc&#45;11ee&#45;9025&#45;ac1a3ddd05c7</title>
<path fill="none" stroke="black" d="M409.81,-405.62C409.81,-398.67 409.81,-390.27 409.81,-381.6"/>
<polygon fill="black" stroke="black" points="413.31,-381.64 409.81,-371.64 406.31,-381.64 413.31,-381.64"/>
</g>
<!-- 65c343f8&#45;d7dc&#45;11ee&#45;9025&#45;ac1a3ddd05c7 -->
<g id="node14" class="node">
<title>65c343f8&#45;d7dc&#45;11ee&#45;9025&#45;ac1a3ddd05c7</title>
<polygon fill="none" stroke="black" points="649.05,-326.82 611.43,-369.87 536.2,-369.87 498.58,-326.82 536.2,-283.77 611.43,-283.77 649.05,-326.82"/>
<text text-anchor="middle" x="573.81" y="-338.12" font-family="Times,serif" font-size="14.00">rp_13: level3 </text>
<text text-anchor="middle" x="573.81" y="-323.12" font-family="Times,serif" font-size="14.00"> new_tender </text>
<text text-anchor="middle" x="573.81" y="-308.12" font-family="Times,serif" font-size="14.00"> cost : 7</text>
</g>
<!-- 65c3427c&#45;d7dc&#45;11ee&#45;9025&#45;ac1a3ddd05c7&#45;&gt;65c343f8&#45;d7dc&#45;11ee&#45;9025&#45;ac1a3ddd05c7 -->
<g id="edge13" class="edge">
<title>65c3427c&#45;d7dc&#45;11ee&#45;9025&#45;ac1a3ddd05c7&#45;&gt;65c343f8&#45;d7dc&#45;11ee&#45;9025&#45;ac1a3ddd05c7</title>
<path fill="none" stroke="black" d="M553.28,-406.06C555.16,-398.91 557.46,-390.16 559.83,-381.13"/>
<polygon fill="black" stroke="black" points="563.19,-382.1 562.34,-371.54 556.42,-380.32 563.19,-382.1"/>
</g>
<!-- 65c34542&#45;d7dc&#45;11ee&#45;9025&#45;ac1a3ddd05c7 -->
<g id="node15" class="node">
<title>65c34542&#45;d7dc&#45;11ee&#45;9025&#45;ac1a3ddd05c7</title>
<polygon fill="none" stroke="black" points="630.31,-247.55 511.31,-247.55 511.31,-194.55 630.31,-194.55 630.31,-247.55"/>
<text text-anchor="middle" x="570.81" y="-232.35" font-family="Times,serif" font-size="14.00">r0: inform_head </text>
<text text-anchor="middle" x="570.81" y="-217.35" font-family="Times,serif" font-size="14.00"> Type: insert </text>
<text text-anchor="middle" x="570.81" y="-202.35" font-family="Times,serif" font-size="14.00"> Direction: parallel</text>
</g>
<!-- 65c343f8&#45;d7dc&#45;11ee&#45;9025&#45;ac1a3ddd05c7&#45;&gt;65c34542&#45;d7dc&#45;11ee&#45;9025&#45;ac1a3ddd05c7 -->
<g id="edge14" class="edge">
<title>65c343f8&#45;d7dc&#45;11ee&#45;9025&#45;ac1a3ddd05c7&#45;&gt;65c34542&#45;d7dc&#45;11ee&#45;9025&#45;ac1a3ddd05c7</title>
<path fill="none" stroke="black" d="M572.59,-283.31C572.36,-275.36 572.12,-267.1 571.89,-259.32"/>
<polygon fill="black" stroke="black" points="575.4,-259.39 571.61,-249.49 568.4,-259.59 575.4,-259.39"/>
</g>
<!-- 65c346f0&#45;d7dc&#45;11ee&#45;9025&#45;ac1a3ddd05c7 -->
<g id="node16" class="node">
<title>65c346f0&#45;d7dc&#45;11ee&#45;9025&#45;ac1a3ddd05c7</title>
<polygon fill="none" stroke="black" points="759.31,-247.55 648.31,-247.55 648.31,-194.55 759.31,-194.55 759.31,-247.55"/>
<text text-anchor="middle" x="703.81" y="-232.35" font-family="Times,serif" font-size="14.00">r0: close_project </text>
<text text-anchor="middle" x="703.81" y="-217.35" font-family="Times,serif" font-size="14.00"> Type: delete </text>
<text text-anchor="middle" x="703.81" y="-202.35" font-family="Times,serif" font-size="14.00"> Direction: any</text>
</g>
<!-- 65c343f8&#45;d7dc&#45;11ee&#45;9025&#45;ac1a3ddd05c7&#45;&gt;65c346f0&#45;d7dc&#45;11ee&#45;9025&#45;ac1a3ddd05c7 -->
<g id="edge15" class="edge">
<title>65c343f8&#45;d7dc&#45;11ee&#45;9025&#45;ac1a3ddd05c7&#45;&gt;65c346f0&#45;d7dc&#45;11ee&#45;9025&#45;ac1a3ddd05c7</title>
<path fill="none" stroke="black" d="M617.83,-290.69C632.34,-279.1 648.43,-266.26 662.72,-254.85"/>
<polygon fill="black" stroke="black" points="664.54,-257.88 670.17,-248.9 660.17,-252.41 664.54,-257.88"/>
</g>
<!-- 65c34a24&#45;d7dc&#45;11ee&#45;9025&#45;ac1a3ddd05c7 -->
<g id="node18" class="node">
<title>65c34a24&#45;d7dc&#45;11ee&#45;9025&#45;ac1a3ddd05c7</title>
<polygon fill="none" stroke="black" points="817.05,-326.82 779.43,-369.87 704.2,-369.87 666.58,-326.82 704.2,-283.77 779.43,-283.77 817.05,-326.82"/>
<text text-anchor="middle" x="741.81" y="-338.12" font-family="Times,serif" font-size="14.00">rp_13: level3 </text>
<text text-anchor="middle" x="741.81" y="-323.12" font-family="Times,serif" font-size="14.00"> new_tender </text>
<text text-anchor="middle" x="741.81" y="-308.12" font-family="Times,serif" font-size="14.00"> cost : 28</text>
</g>
<!-- 65c3489e&#45;d7dc&#45;11ee&#45;9025&#45;ac1a3ddd05c7&#45;&gt;65c34a24&#45;d7dc&#45;11ee&#45;9025&#45;ac1a3ddd05c7 -->
<g id="edge17" class="edge">
<title>65c3489e&#45;d7dc&#45;11ee&#45;9025&#45;ac1a3ddd05c7&#45;&gt;65c34a24&#45;d7dc&#45;11ee&#45;9025&#45;ac1a3ddd05c7</title>
<path fill="none" stroke="black" d="M719.64,-406.06C721.67,-398.91 724.15,-390.16 726.71,-381.13"/>
<polygon fill="black" stroke="black" points="730.07,-382.11 729.43,-371.53 723.33,-380.2 730.07,-382.11"/>
</g>
</g>
</svg>
