<?xml version="1.0" encoding="UTF-8" standalone="no"?>
<!DOCTYPE svg PUBLIC "-//W3C//DTD SVG 1.1//EN"
 "http://www.w3.org/Graphics/SVG/1.1/DTD/svg11.dtd">
<!-- Generated by graphviz version 7.1.0 (0)
 -->
<!-- Title: CallTree Pages: 1 -->
<svg width="858pt" height="539pt"
 viewBox="0.00 0.00 858.13 539.10" xmlns="http://www.w3.org/2000/svg" xmlns:xlink="http://www.w3.org/1999/xlink">
<g id="graph0" class="graph" transform="scale(1 1) rotate(0) translate(4 535.1)">
<title>CallTree</title>
<polygon fill="white" stroke="none" points="-4,4 -4,-535.1 854.13,-535.1 854.13,4 -4,4"/>
<!-- fa0a286c&#45;c696&#45;11ee&#45;a4c0&#45;ac1a3ddd05c7 -->
<g id="node1" class="node">
<title>fa0a286c&#45;c696&#45;11ee&#45;a4c0&#45;ac1a3ddd05c7</title>
<polygon fill="none" stroke="black" points="550.25,-531.1 437.25,-531.1 437.25,-478.1 550.25,-478.1 550.25,-531.1"/>
<text text-anchor="middle" x="493.75" y="-515.9" font-family="Times,serif" font-size="14.00">a9: close_project </text>
<text text-anchor="middle" x="493.75" y="-500.9" font-family="Times,serif" font-size="14.00"> Type: Core </text>
<text text-anchor="middle" x="493.75" y="-485.9" font-family="Times,serif" font-size="14.00"> Direction: Core</text>
</g>
<!-- fa0a2ede&#45;c696&#45;11ee&#45;a4c0&#45;ac1a3ddd05c7 -->
<g id="node2" class="node">
<title>fa0a2ede&#45;c696&#45;11ee&#45;a4c0&#45;ac1a3ddd05c7</title>
<ellipse fill="none" stroke="black" cx="291.75" cy="-424.1" rx="48.99" ry="18"/>
<text text-anchor="middle" x="291.75" y="-420.4" font-family="Times,serif" font-size="14.00">r_2: level2</text>
</g>
<!-- fa0a286c&#45;c696&#45;11ee&#45;a4c0&#45;ac1a3ddd05c7&#45;&gt;fa0a2ede&#45;c696&#45;11ee&#45;a4c0&#45;ac1a3ddd05c7 -->
<g id="edge1" class="edge">
<title>fa0a286c&#45;c696&#45;11ee&#45;a4c0&#45;ac1a3ddd05c7&#45;&gt;fa0a2ede&#45;c696&#45;11ee&#45;a4c0&#45;ac1a3ddd05c7</title>
<path fill="none" stroke="black" d="M436.94,-481.52C404.62,-468.96 364.78,-453.48 335.01,-441.91"/>
<polygon fill="black" stroke="black" points="336.53,-438.75 325.94,-438.39 334,-445.27 336.53,-438.75"/>
</g>
<!-- fa0a3924&#45;c696&#45;11ee&#45;a4c0&#45;ac1a3ddd05c7 -->
<g id="node9" class="node">
<title>fa0a3924&#45;c696&#45;11ee&#45;a4c0&#45;ac1a3ddd05c7</title>
<ellipse fill="none" stroke="black" cx="436.75" cy="-424.1" rx="48.99" ry="18"/>
<text text-anchor="middle" x="436.75" y="-420.4" font-family="Times,serif" font-size="14.00">r_4: level2</text>
</g>
<!-- fa0a286c&#45;c696&#45;11ee&#45;a4c0&#45;ac1a3ddd05c7&#45;&gt;fa0a3924&#45;c696&#45;11ee&#45;a4c0&#45;ac1a3ddd05c7 -->
<g id="edge8" class="edge">
<title>fa0a286c&#45;c696&#45;11ee&#45;a4c0&#45;ac1a3ddd05c7&#45;&gt;fa0a3924&#45;c696&#45;11ee&#45;a4c0&#45;ac1a3ddd05c7</title>
<path fill="none" stroke="black" d="M475.09,-477.89C468.86,-469.32 461.92,-459.76 455.67,-451.15"/>
<polygon fill="black" stroke="black" points="458.58,-449.21 449.88,-443.17 452.92,-453.32 458.58,-449.21"/>
</g>
<!-- fa0a4112&#45;c696&#45;11ee&#45;a4c0&#45;ac1a3ddd05c7 -->
<g id="node16" class="node">
<title>fa0a4112&#45;c696&#45;11ee&#45;a4c0&#45;ac1a3ddd05c7</title>
<ellipse fill="none" stroke="black" cx="581.75" cy="-424.1" rx="48.99" ry="18"/>
<text text-anchor="middle" x="581.75" y="-420.4" font-family="Times,serif" font-size="14.00">r_3: level3</text>
</g>
<!-- fa0a286c&#45;c696&#45;11ee&#45;a4c0&#45;ac1a3ddd05c7&#45;&gt;fa0a4112&#45;c696&#45;11ee&#45;a4c0&#45;ac1a3ddd05c7 -->
<g id="edge15" class="edge">
<title>fa0a286c&#45;c696&#45;11ee&#45;a4c0&#45;ac1a3ddd05c7&#45;&gt;fa0a4112&#45;c696&#45;11ee&#45;a4c0&#45;ac1a3ddd05c7</title>
<path fill="none" stroke="black" d="M522.57,-477.89C533.03,-468.56 544.81,-458.05 555.08,-448.89"/>
<polygon fill="black" stroke="black" points="557.39,-451.52 562.52,-442.25 552.73,-446.29 557.39,-451.52"/>
</g>
<!-- fa0a4306&#45;c696&#45;11ee&#45;a4c0&#45;ac1a3ddd05c7 -->
<g id="node18" class="node">
<title>fa0a4306&#45;c696&#45;11ee&#45;a4c0&#45;ac1a3ddd05c7</title>
<ellipse fill="none" stroke="black" cx="741.75" cy="-424.1" rx="48.99" ry="18"/>
<text text-anchor="middle" x="741.75" y="-420.4" font-family="Times,serif" font-size="14.00">r_5: level3</text>
</g>
<!-- fa0a286c&#45;c696&#45;11ee&#45;a4c0&#45;ac1a3ddd05c7&#45;&gt;fa0a4306&#45;c696&#45;11ee&#45;a4c0&#45;ac1a3ddd05c7 -->
<g id="edge17" class="edge">
<title>fa0a286c&#45;c696&#45;11ee&#45;a4c0&#45;ac1a3ddd05c7&#45;&gt;fa0a4306&#45;c696&#45;11ee&#45;a4c0&#45;ac1a3ddd05c7</title>
<path fill="none" stroke="black" d="M550.65,-485.59C594.27,-471.78 653.74,-452.95 694.7,-439.99"/>
<polygon fill="black" stroke="black" points="695.55,-443.39 704.03,-437.04 693.44,-436.72 695.55,-443.39"/>
</g>
<!-- fa0a303c&#45;c696&#45;11ee&#45;a4c0&#45;ac1a3ddd05c7 -->
<g id="node3" class="node">
<title>fa0a303c&#45;c696&#45;11ee&#45;a4c0&#45;ac1a3ddd05c7</title>
<polygon fill="none" stroke="black" points="325.02,-326.82 285.88,-369.87 207.62,-369.87 168.48,-326.82 207.62,-283.77 285.88,-283.77 325.02,-326.82"/>
<text text-anchor="middle" x="246.75" y="-338.12" font-family="Times,serif" font-size="14.00">rp_12: level2 </text>
<text text-anchor="middle" x="246.75" y="-323.12" font-family="Times,serif" font-size="14.00"> close_project </text>
<text text-anchor="middle" x="246.75" y="-308.12" font-family="Times,serif" font-size="14.00"> cost : 10</text>
</g>
<!-- fa0a2ede&#45;c696&#45;11ee&#45;a4c0&#45;ac1a3ddd05c7&#45;&gt;fa0a303c&#45;c696&#45;11ee&#45;a4c0&#45;ac1a3ddd05c7 -->
<g id="edge2" class="edge">
<title>fa0a2ede&#45;c696&#45;11ee&#45;a4c0&#45;ac1a3ddd05c7&#45;&gt;fa0a303c&#45;c696&#45;11ee&#45;a4c0&#45;ac1a3ddd05c7</title>
<path fill="none" stroke="black" d="M283.71,-406.06C280.22,-398.67 275.92,-389.58 271.51,-380.24"/>
<polygon fill="black" stroke="black" points="274.79,-378.99 267.35,-371.44 268.46,-381.98 274.79,-378.99"/>
</g>
<!-- fa0a31a4&#45;c696&#45;11ee&#45;a4c0&#45;ac1a3ddd05c7 -->
<g id="node4" class="node">
<title>fa0a31a4&#45;c696&#45;11ee&#45;a4c0&#45;ac1a3ddd05c7</title>
<polygon fill="none" stroke="black" points="301.25,-247.55 192.25,-247.55 192.25,-194.55 301.25,-194.55 301.25,-247.55"/>
<text text-anchor="middle" x="246.75" y="-232.35" font-family="Times,serif" font-size="14.00">r4: inform_head </text>
<text text-anchor="middle" x="246.75" y="-217.35" font-family="Times,serif" font-size="14.00"> Type: insert </text>
<text text-anchor="middle" x="246.75" y="-202.35" font-family="Times,serif" font-size="14.00"> Direction: after</text>
</g>
<!-- fa0a303c&#45;c696&#45;11ee&#45;a4c0&#45;ac1a3ddd05c7&#45;&gt;fa0a31a4&#45;c696&#45;11ee&#45;a4c0&#45;ac1a3ddd05c7 -->
<g id="edge3" class="edge">
<title>fa0a303c&#45;c696&#45;11ee&#45;a4c0&#45;ac1a3ddd05c7&#45;&gt;fa0a31a4&#45;c696&#45;11ee&#45;a4c0&#45;ac1a3ddd05c7</title>
<path fill="none" stroke="black" d="M246.75,-283.31C246.75,-275.36 246.75,-267.1 246.75,-259.32"/>
<polygon fill="black" stroke="black" points="250.25,-259.49 246.75,-249.49 243.25,-259.49 250.25,-259.49"/>
</g>
<!-- fa0a34c4&#45;c696&#45;11ee&#45;a4c0&#45;ac1a3ddd05c7 -->
<g id="node5" class="node">
<title>fa0a34c4&#45;c696&#45;11ee&#45;a4c0&#45;ac1a3ddd05c7</title>
<ellipse fill="none" stroke="black" cx="104.75" cy="-140.55" rx="48.99" ry="18"/>
<text text-anchor="middle" x="104.75" y="-136.85" font-family="Times,serif" font-size="14.00">r_2: level2</text>
</g>
<!-- fa0a31a4&#45;c696&#45;11ee&#45;a4c0&#45;ac1a3ddd05c7&#45;&gt;fa0a34c4&#45;c696&#45;11ee&#45;a4c0&#45;ac1a3ddd05c7 -->
<g id="edge4" class="edge">
<title>fa0a31a4&#45;c696&#45;11ee&#45;a4c0&#45;ac1a3ddd05c7&#45;&gt;fa0a34c4&#45;c696&#45;11ee&#45;a4c0&#45;ac1a3ddd05c7</title>
<path fill="none" stroke="black" d="M199.86,-194.13C180.68,-183.52 158.84,-171.45 140.93,-161.55"/>
<polygon fill="black" stroke="black" points="142.66,-158.5 132.21,-156.73 139.27,-164.63 142.66,-158.5"/>
</g>
<!-- fa0a3726&#45;c696&#45;11ee&#45;a4c0&#45;ac1a3ddd05c7 -->
<g id="node7" class="node">
<title>fa0a3726&#45;c696&#45;11ee&#45;a4c0&#45;ac1a3ddd05c7</title>
<ellipse fill="none" stroke="black" cx="247.75" cy="-140.55" rx="48.99" ry="18"/>
<text text-anchor="middle" x="247.75" y="-136.85" font-family="Times,serif" font-size="14.00">r_4: level2</text>
</g>
<!-- fa0a31a4&#45;c696&#45;11ee&#45;a4c0&#45;ac1a3ddd05c7&#45;&gt;fa0a3726&#45;c696&#45;11ee&#45;a4c0&#45;ac1a3ddd05c7 -->
<g id="edge6" class="edge">
<title>fa0a31a4&#45;c696&#45;11ee&#45;a4c0&#45;ac1a3ddd05c7&#45;&gt;fa0a3726&#45;c696&#45;11ee&#45;a4c0&#45;ac1a3ddd05c7</title>
<path fill="none" stroke="black" d="M247.08,-194.34C247.18,-186.62 247.28,-178.11 247.39,-170.21"/>
<polygon fill="black" stroke="black" points="250.88,-170.44 247.51,-160.39 243.88,-170.35 250.88,-170.44"/>
</g>
<!-- fa0a362c&#45;c696&#45;11ee&#45;a4c0&#45;ac1a3ddd05c7 -->
<g id="node6" class="node">
<title>fa0a362c&#45;c696&#45;11ee&#45;a4c0&#45;ac1a3ddd05c7</title>
<polygon fill="none" stroke="black" points="153.25,-43.27 115,-86.32 38.5,-86.32 0.25,-43.27 38.5,-0.22 115,-0.22 153.25,-43.27"/>
<text text-anchor="middle" x="76.75" y="-54.57" font-family="Times,serif" font-size="14.00">rp_22: level2 </text>
<text text-anchor="middle" x="76.75" y="-39.57" font-family="Times,serif" font-size="14.00"> inform_head </text>
<text text-anchor="middle" x="76.75" y="-24.57" font-family="Times,serif" font-size="14.00"> cost : 15</text>
</g>
<!-- fa0a34c4&#45;c696&#45;11ee&#45;a4c0&#45;ac1a3ddd05c7&#45;&gt;fa0a362c&#45;c696&#45;11ee&#45;a4c0&#45;ac1a3ddd05c7 -->
<g id="edge5" class="edge">
<title>fa0a34c4&#45;c696&#45;11ee&#45;a4c0&#45;ac1a3ddd05c7&#45;&gt;fa0a362c&#45;c696&#45;11ee&#45;a4c0&#45;ac1a3ddd05c7</title>
<path fill="none" stroke="black" d="M99.74,-122.52C97.62,-115.28 95.01,-106.42 92.33,-97.29"/>
<polygon fill="black" stroke="black" points="95.77,-96.59 89.59,-87.98 89.06,-98.56 95.77,-96.59"/>
</g>
<!-- fa0a383e&#45;c696&#45;11ee&#45;a4c0&#45;ac1a3ddd05c7 -->
<g id="node8" class="node">
<title>fa0a383e&#45;c696&#45;11ee&#45;a4c0&#45;ac1a3ddd05c7</title>
<polygon fill="none" stroke="black" points="325.25,-43.27 287,-86.32 210.5,-86.32 172.25,-43.27 210.5,-0.22 287,-0.22 325.25,-43.27"/>
<text text-anchor="middle" x="248.75" y="-54.57" font-family="Times,serif" font-size="14.00">rp_22: level2 </text>
<text text-anchor="middle" x="248.75" y="-39.57" font-family="Times,serif" font-size="14.00"> inform_head </text>
<text text-anchor="middle" x="248.75" y="-24.57" font-family="Times,serif" font-size="14.00"> cost : 15</text>
</g>
<!-- fa0a3726&#45;c696&#45;11ee&#45;a4c0&#45;ac1a3ddd05c7&#45;&gt;fa0a383e&#45;c696&#45;11ee&#45;a4c0&#45;ac1a3ddd05c7 -->
<g id="edge7" class="edge">
<title>fa0a3726&#45;c696&#45;11ee&#45;a4c0&#45;ac1a3ddd05c7&#45;&gt;fa0a383e&#45;c696&#45;11ee&#45;a4c0&#45;ac1a3ddd05c7</title>
<path fill="none" stroke="black" d="M247.93,-122.07C248.01,-115.13 248.1,-106.72 248.19,-98.05"/>
<polygon fill="black" stroke="black" points="251.69,-98.13 248.29,-88.09 244.69,-98.05 251.69,-98.13"/>
</g>
<!-- fa0a3a46&#45;c696&#45;11ee&#45;a4c0&#45;ac1a3ddd05c7 -->
<g id="node10" class="node">
<title>fa0a3a46&#45;c696&#45;11ee&#45;a4c0&#45;ac1a3ddd05c7</title>
<polygon fill="none" stroke="black" points="500.02,-326.82 460.88,-369.87 382.62,-369.87 343.48,-326.82 382.62,-283.77 460.88,-283.77 500.02,-326.82"/>
<text text-anchor="middle" x="421.75" y="-338.12" font-family="Times,serif" font-size="14.00">rp_12: level2 </text>
<text text-anchor="middle" x="421.75" y="-323.12" font-family="Times,serif" font-size="14.00"> close_project </text>
<text text-anchor="middle" x="421.75" y="-308.12" font-family="Times,serif" font-size="14.00"> cost : 15</text>
</g>
<!-- fa0a3924&#45;c696&#45;11ee&#45;a4c0&#45;ac1a3ddd05c7&#45;&gt;fa0a3a46&#45;c696&#45;11ee&#45;a4c0&#45;ac1a3ddd05c7 -->
<g id="edge9" class="edge">
<title>fa0a3924&#45;c696&#45;11ee&#45;a4c0&#45;ac1a3ddd05c7&#45;&gt;fa0a3a46&#45;c696&#45;11ee&#45;a4c0&#45;ac1a3ddd05c7</title>
<path fill="none" stroke="black" d="M434.07,-406.06C432.96,-398.99 431.6,-390.35 430.19,-381.43"/>
<polygon fill="black" stroke="black" points="433.65,-380.9 428.64,-371.57 426.74,-381.99 433.65,-380.9"/>
</g>
<!-- fa0a3b22&#45;c696&#45;11ee&#45;a4c0&#45;ac1a3ddd05c7 -->
<g id="node11" class="node">
<title>fa0a3b22&#45;c696&#45;11ee&#45;a4c0&#45;ac1a3ddd05c7</title>
<polygon fill="none" stroke="black" points="476.25,-247.55 367.25,-247.55 367.25,-194.55 476.25,-194.55 476.25,-247.55"/>
<text text-anchor="middle" x="421.75" y="-232.35" font-family="Times,serif" font-size="14.00">r7: inform_head </text>
<text text-anchor="middle" x="421.75" y="-217.35" font-family="Times,serif" font-size="14.00"> Type: insert </text>
<text text-anchor="middle" x="421.75" y="-202.35" font-family="Times,serif" font-size="14.00"> Direction: after</text>
</g>
<!-- fa0a3a46&#45;c696&#45;11ee&#45;a4c0&#45;ac1a3ddd05c7&#45;&gt;fa0a3b22&#45;c696&#45;11ee&#45;a4c0&#45;ac1a3ddd05c7 -->
<g id="edge10" class="edge">
<title>fa0a3a46&#45;c696&#45;11ee&#45;a4c0&#45;ac1a3ddd05c7&#45;&gt;fa0a3b22&#45;c696&#45;11ee&#45;a4c0&#45;ac1a3ddd05c7</title>
<path fill="none" stroke="black" d="M421.75,-283.31C421.75,-275.36 421.75,-267.1 421.75,-259.32"/>
<polygon fill="black" stroke="black" points="425.25,-259.49 421.75,-249.49 418.25,-259.49 425.25,-259.49"/>
</g>
<!-- fa0a3cd0&#45;c696&#45;11ee&#45;a4c0&#45;ac1a3ddd05c7 -->
<g id="node12" class="node">
<title>fa0a3cd0&#45;c696&#45;11ee&#45;a4c0&#45;ac1a3ddd05c7</title>
<ellipse fill="none" stroke="black" cx="421.75" cy="-140.55" rx="48.99" ry="18"/>
<text text-anchor="middle" x="421.75" y="-136.85" font-family="Times,serif" font-size="14.00">r_2: level2</text>
</g>
<!-- fa0a3b22&#45;c696&#45;11ee&#45;a4c0&#45;ac1a3ddd05c7&#45;&gt;fa0a3cd0&#45;c696&#45;11ee&#45;a4c0&#45;ac1a3ddd05c7 -->
<g id="edge11" class="edge">
<title>fa0a3b22&#45;c696&#45;11ee&#45;a4c0&#45;ac1a3ddd05c7&#45;&gt;fa0a3cd0&#45;c696&#45;11ee&#45;a4c0&#45;ac1a3ddd05c7</title>
<path fill="none" stroke="black" d="M421.75,-194.34C421.75,-186.62 421.75,-178.11 421.75,-170.21"/>
<polygon fill="black" stroke="black" points="425.25,-170.39 421.75,-160.39 418.25,-170.39 425.25,-170.39"/>
</g>
<!-- fa0a3f1e&#45;c696&#45;11ee&#45;a4c0&#45;ac1a3ddd05c7 -->
<g id="node14" class="node">
<title>fa0a3f1e&#45;c696&#45;11ee&#45;a4c0&#45;ac1a3ddd05c7</title>
<ellipse fill="none" stroke="black" cx="564.75" cy="-140.55" rx="48.99" ry="18"/>
<text text-anchor="middle" x="564.75" y="-136.85" font-family="Times,serif" font-size="14.00">r_4: level2</text>
</g>
<!-- fa0a3b22&#45;c696&#45;11ee&#45;a4c0&#45;ac1a3ddd05c7&#45;&gt;fa0a3f1e&#45;c696&#45;11ee&#45;a4c0&#45;ac1a3ddd05c7 -->
<g id="edge13" class="edge">
<title>fa0a3b22&#45;c696&#45;11ee&#45;a4c0&#45;ac1a3ddd05c7&#45;&gt;fa0a3f1e&#45;c696&#45;11ee&#45;a4c0&#45;ac1a3ddd05c7</title>
<path fill="none" stroke="black" d="M468.97,-194.13C488.37,-183.48 510.49,-171.34 528.57,-161.41"/>
<polygon fill="black" stroke="black" points="530.02,-164.61 537.1,-156.73 526.65,-158.47 530.02,-164.61"/>
</g>
<!-- fa0a3e2e&#45;c696&#45;11ee&#45;a4c0&#45;ac1a3ddd05c7 -->
<g id="node13" class="node">
<title>fa0a3e2e&#45;c696&#45;11ee&#45;a4c0&#45;ac1a3ddd05c7</title>
<polygon fill="none" stroke="black" points="498.25,-43.27 460,-86.32 383.5,-86.32 345.25,-43.27 383.5,-0.22 460,-0.22 498.25,-43.27"/>
<text text-anchor="middle" x="421.75" y="-54.57" font-family="Times,serif" font-size="14.00">rp_22: level2 </text>
<text text-anchor="middle" x="421.75" y="-39.57" font-family="Times,serif" font-size="14.00"> inform_head </text>
<text text-anchor="middle" x="421.75" y="-24.57" font-family="Times,serif" font-size="14.00"> cost : 15</text>
</g>
<!-- fa0a3cd0&#45;c696&#45;11ee&#45;a4c0&#45;ac1a3ddd05c7&#45;&gt;fa0a3e2e&#45;c696&#45;11ee&#45;a4c0&#45;ac1a3ddd05c7 -->
<g id="edge12" class="edge">
<title>fa0a3cd0&#45;c696&#45;11ee&#45;a4c0&#45;ac1a3ddd05c7&#45;&gt;fa0a3e2e&#45;c696&#45;11ee&#45;a4c0&#45;ac1a3ddd05c7</title>
<path fill="none" stroke="black" d="M421.75,-122.07C421.75,-115.13 421.75,-106.72 421.75,-98.05"/>
<polygon fill="black" stroke="black" points="425.25,-98.09 421.75,-88.09 418.25,-98.09 425.25,-98.09"/>
</g>
<!-- fa0a402c&#45;c696&#45;11ee&#45;a4c0&#45;ac1a3ddd05c7 -->
<g id="node15" class="node">
<title>fa0a402c&#45;c696&#45;11ee&#45;a4c0&#45;ac1a3ddd05c7</title>
<polygon fill="none" stroke="black" points="670.25,-43.27 632,-86.32 555.5,-86.32 517.25,-43.27 555.5,-0.22 632,-0.22 670.25,-43.27"/>
<text text-anchor="middle" x="593.75" y="-54.57" font-family="Times,serif" font-size="14.00">rp_22: level2 </text>
<text text-anchor="middle" x="593.75" y="-39.57" font-family="Times,serif" font-size="14.00"> inform_head </text>
<text text-anchor="middle" x="593.75" y="-24.57" font-family="Times,serif" font-size="14.00"> cost : 15</text>
</g>
<!-- fa0a3f1e&#45;c696&#45;11ee&#45;a4c0&#45;ac1a3ddd05c7&#45;&gt;fa0a402c&#45;c696&#45;11ee&#45;a4c0&#45;ac1a3ddd05c7 -->
<g id="edge14" class="edge">
<title>fa0a3f1e&#45;c696&#45;11ee&#45;a4c0&#45;ac1a3ddd05c7&#45;&gt;fa0a402c&#45;c696&#45;11ee&#45;a4c0&#45;ac1a3ddd05c7</title>
<path fill="none" stroke="black" d="M569.94,-122.52C572.14,-115.28 574.83,-106.42 577.61,-97.29"/>
<polygon fill="black" stroke="black" points="580.89,-98.56 580.45,-87.97 574.19,-96.52 580.89,-98.56"/>
</g>
<!-- fa0a4234&#45;c696&#45;11ee&#45;a4c0&#45;ac1a3ddd05c7 -->
<g id="node17" class="node">
<title>fa0a4234&#45;c696&#45;11ee&#45;a4c0&#45;ac1a3ddd05c7</title>
<polygon fill="none" stroke="black" points="675.02,-326.82 635.88,-369.87 557.62,-369.87 518.48,-326.82 557.62,-283.77 635.88,-283.77 675.02,-326.82"/>
<text text-anchor="middle" x="596.75" y="-338.12" font-family="Times,serif" font-size="14.00">rp_19: level3 </text>
<text text-anchor="middle" x="596.75" y="-323.12" font-family="Times,serif" font-size="14.00"> close_project </text>
<text text-anchor="middle" x="596.75" y="-308.12" font-family="Times,serif" font-size="14.00"> cost : 20</text>
</g>
<!-- fa0a4112&#45;c696&#45;11ee&#45;a4c0&#45;ac1a3ddd05c7&#45;&gt;fa0a4234&#45;c696&#45;11ee&#45;a4c0&#45;ac1a3ddd05c7 -->
<g id="edge16" class="edge">
<title>fa0a4112&#45;c696&#45;11ee&#45;a4c0&#45;ac1a3ddd05c7&#45;&gt;fa0a4234&#45;c696&#45;11ee&#45;a4c0&#45;ac1a3ddd05c7</title>
<path fill="none" stroke="black" d="M584.43,-406.06C585.55,-398.99 586.91,-390.35 588.31,-381.43"/>
<polygon fill="black" stroke="black" points="591.77,-381.99 589.86,-371.57 584.85,-380.9 591.77,-381.99"/>
</g>
<!-- fa0a4414&#45;c696&#45;11ee&#45;a4c0&#45;ac1a3ddd05c7 -->
<g id="node19" class="node">
<title>fa0a4414&#45;c696&#45;11ee&#45;a4c0&#45;ac1a3ddd05c7</title>
<polygon fill="none" stroke="black" points="850.02,-326.82 810.88,-369.87 732.62,-369.87 693.48,-326.82 732.62,-283.77 810.88,-283.77 850.02,-326.82"/>
<text text-anchor="middle" x="771.75" y="-338.12" font-family="Times,serif" font-size="14.00">rp_19: level3 </text>
<text text-anchor="middle" x="771.75" y="-323.12" font-family="Times,serif" font-size="14.00"> close_project </text>
<text text-anchor="middle" x="771.75" y="-308.12" font-family="Times,serif" font-size="14.00"> cost : 25</text>
</g>
<!-- fa0a4306&#45;c696&#45;11ee&#45;a4c0&#45;ac1a3ddd05c7&#45;&gt;fa0a4414&#45;c696&#45;11ee&#45;a4c0&#45;ac1a3ddd05c7 -->
<g id="edge18" class="edge">
<title>fa0a4306&#45;c696&#45;11ee&#45;a4c0&#45;ac1a3ddd05c7&#45;&gt;fa0a4414&#45;c696&#45;11ee&#45;a4c0&#45;ac1a3ddd05c7</title>
<path fill="none" stroke="black" d="M747.11,-406.06C749.39,-398.83 752.18,-389.97 755.06,-380.84"/>
<polygon fill="black" stroke="black" points="758.33,-382.11 757.99,-371.52 751.65,-380.01 758.33,-382.11"/>
</g>
</g>
</svg>
