<?xml version="1.0" encoding="UTF-8" standalone="no"?>
<!DOCTYPE svg PUBLIC "-//W3C//DTD SVG 1.1//EN"
 "http://www.w3.org/Graphics/SVG/1.1/DTD/svg11.dtd">
<!-- Generated by graphviz version 8.1.0 (20230707.0739)
 -->
<!-- Title: CallTree Pages: 1 -->
<svg width="862pt" height="563pt"
 viewBox="0.00 0.00 861.75 562.79" xmlns="http://www.w3.org/2000/svg" xmlns:xlink="http://www.w3.org/1999/xlink">
<g id="graph0" class="graph" transform="scale(1 1) rotate(0) translate(4 558.79)">
<title>CallTree</title>
<polygon fill="white" stroke="none" points="-4,4 -4,-558.79 857.75,-558.79 857.75,4 -4,4"/>
<!-- 7ef85e1c&#45;cb57&#45;11ee&#45;9270&#45;04cf4b795879 -->
<g id="node1" class="node">
<title>7ef85e1c&#45;cb57&#45;11ee&#45;9270&#45;04cf4b795879</title>
<polygon fill="none" stroke="black" points="488.25,-554.79 377.75,-554.79 377.75,-497.29 488.25,-497.29 488.25,-554.79"/>
<text text-anchor="middle" x="433" y="-537.49" font-family="Times,serif" font-size="14.00">a1: start_process </text>
<text text-anchor="middle" x="433" y="-520.99" font-family="Times,serif" font-size="14.00"> Type: Core </text>
<text text-anchor="middle" x="433" y="-504.49" font-family="Times,serif" font-size="14.00"> Direction: Core</text>
</g>
<!-- 7ef8661e&#45;cb57&#45;11ee&#45;9270&#45;04cf4b795879 -->
<g id="node2" class="node">
<title>7ef8661e&#45;cb57&#45;11ee&#45;9270&#45;04cf4b795879</title>
<ellipse fill="none" stroke="black" cx="141" cy="-443.29" rx="50.84" ry="18"/>
<text text-anchor="middle" x="141" y="-438.24" font-family="Times,serif" font-size="14.00">r_1: level1</text>
</g>
<!-- 7ef85e1c&#45;cb57&#45;11ee&#45;9270&#45;04cf4b795879&#45;&gt;7ef8661e&#45;cb57&#45;11ee&#45;9270&#45;04cf4b795879 -->
<g id="edge1" class="edge">
<title>7ef85e1c&#45;cb57&#45;11ee&#45;9270&#45;04cf4b795879&#45;&gt;7ef8661e&#45;cb57&#45;11ee&#45;9270&#45;04cf4b795879</title>
<path fill="none" stroke="black" d="M377.39,-509.67C323.47,-494.76 242.45,-472.35 190.65,-458.02"/>
<polygon fill="black" stroke="black" points="191.63,-454.39 181.06,-455.1 189.77,-461.14 191.63,-454.39"/>
</g>
<!-- 7ef86f06&#45;cb57&#45;11ee&#45;9270&#45;04cf4b795879 -->
<g id="node7" class="node">
<title>7ef86f06&#45;cb57&#45;11ee&#45;9270&#45;04cf4b795879</title>
<ellipse fill="none" stroke="black" cx="287" cy="-443.29" rx="50.84" ry="18"/>
<text text-anchor="middle" x="287" y="-438.24" font-family="Times,serif" font-size="14.00">r_2: level2</text>
</g>
<!-- 7ef85e1c&#45;cb57&#45;11ee&#45;9270&#45;04cf4b795879&#45;&gt;7ef86f06&#45;cb57&#45;11ee&#45;9270&#45;04cf4b795879 -->
<g id="edge6" class="edge">
<title>7ef85e1c&#45;cb57&#45;11ee&#45;9270&#45;04cf4b795879&#45;&gt;7ef86f06&#45;cb57&#45;11ee&#45;9270&#45;04cf4b795879</title>
<path fill="none" stroke="black" d="M381.93,-496.8C362.51,-486.06 340.8,-474.05 323.04,-464.23"/>
<polygon fill="black" stroke="black" points="325.07,-460.8 314.63,-459.02 321.68,-466.93 325.07,-460.8"/>
</g>
<!-- 7ef87974&#45;cb57&#45;11ee&#45;9270&#45;04cf4b795879 -->
<g id="node11" class="node">
<title>7ef87974&#45;cb57&#45;11ee&#45;9270&#45;04cf4b795879</title>
<ellipse fill="none" stroke="black" cx="433" cy="-443.29" rx="50.84" ry="18"/>
<text text-anchor="middle" x="433" y="-438.24" font-family="Times,serif" font-size="14.00">r_4: level2</text>
</g>
<!-- 7ef85e1c&#45;cb57&#45;11ee&#45;9270&#45;04cf4b795879&#45;&gt;7ef87974&#45;cb57&#45;11ee&#45;9270&#45;04cf4b795879 -->
<g id="edge10" class="edge">
<title>7ef85e1c&#45;cb57&#45;11ee&#45;9270&#45;04cf4b795879&#45;&gt;7ef87974&#45;cb57&#45;11ee&#45;9270&#45;04cf4b795879</title>
<path fill="none" stroke="black" d="M433,-496.8C433,-488.86 433,-480.22 433,-472.29"/>
<polygon fill="black" stroke="black" points="436.5,-472.34 433,-462.34 429.5,-472.34 436.5,-472.34"/>
</g>
<!-- 7ef87cb2&#45;cb57&#45;11ee&#45;9270&#45;04cf4b795879 -->
<g id="node13" class="node">
<title>7ef87cb2&#45;cb57&#45;11ee&#45;9270&#45;04cf4b795879</title>
<ellipse fill="none" stroke="black" cx="579" cy="-443.29" rx="50.84" ry="18"/>
<text text-anchor="middle" x="579" y="-438.24" font-family="Times,serif" font-size="14.00">r_3: level3</text>
</g>
<!-- 7ef85e1c&#45;cb57&#45;11ee&#45;9270&#45;04cf4b795879&#45;&gt;7ef87cb2&#45;cb57&#45;11ee&#45;9270&#45;04cf4b795879 -->
<g id="edge12" class="edge">
<title>7ef85e1c&#45;cb57&#45;11ee&#45;9270&#45;04cf4b795879&#45;&gt;7ef87cb2&#45;cb57&#45;11ee&#45;9270&#45;04cf4b795879</title>
<path fill="none" stroke="black" d="M484.06,-496.8C503.49,-486.06 525.2,-474.05 542.95,-464.23"/>
<polygon fill="black" stroke="black" points="544.31,-466.93 551.37,-459.02 540.92,-460.8 544.31,-466.93"/>
</g>
<!-- 7ef8823e&#45;cb57&#45;11ee&#45;9270&#45;04cf4b795879 -->
<g id="node17" class="node">
<title>7ef8823e&#45;cb57&#45;11ee&#45;9270&#45;04cf4b795879</title>
<ellipse fill="none" stroke="black" cx="738" cy="-443.29" rx="50.84" ry="18"/>
<text text-anchor="middle" x="738" y="-438.24" font-family="Times,serif" font-size="14.00">r_5: level3</text>
</g>
<!-- 7ef85e1c&#45;cb57&#45;11ee&#45;9270&#45;04cf4b795879&#45;&gt;7ef8823e&#45;cb57&#45;11ee&#45;9270&#45;04cf4b795879 -->
<g id="edge16" class="edge">
<title>7ef85e1c&#45;cb57&#45;11ee&#45;9270&#45;04cf4b795879&#45;&gt;7ef8823e&#45;cb57&#45;11ee&#45;9270&#45;04cf4b795879</title>
<path fill="none" stroke="black" d="M488.59,-510.33C545.45,-495.27 633,-472.09 687.82,-457.58"/>
<polygon fill="black" stroke="black" points="688.55,-460.74 697.33,-454.8 686.76,-453.97 688.55,-460.74"/>
</g>
<!-- 7ef8683a&#45;cb57&#45;11ee&#45;9270&#45;04cf4b795879 -->
<g id="node3" class="node">
<title>7ef8683a&#45;cb57&#45;11ee&#45;9270&#45;04cf4b795879</title>
<polygon fill="none" stroke="black" points="165.75,-342.35 127.37,-389.29 50.62,-389.29 12.25,-342.35 50.62,-295.4 127.37,-295.4 165.75,-342.35"/>
<text text-anchor="middle" x="89" y="-353.8" font-family="Times,serif" font-size="14.00">rp_1: level1 </text>
<text text-anchor="middle" x="89" y="-337.3" font-family="Times,serif" font-size="14.00"> start_process </text>
<text text-anchor="middle" x="89" y="-320.8" font-family="Times,serif" font-size="14.00"> cost : 12</text>
</g>
<!-- 7ef8661e&#45;cb57&#45;11ee&#45;9270&#45;04cf4b795879&#45;&gt;7ef8683a&#45;cb57&#45;11ee&#45;9270&#45;04cf4b795879 -->
<g id="edge2" class="edge">
<title>7ef8661e&#45;cb57&#45;11ee&#45;9270&#45;04cf4b795879&#45;&gt;7ef8683a&#45;cb57&#45;11ee&#45;9270&#45;04cf4b795879</title>
<path fill="none" stroke="black" d="M132.18,-425.51C128.27,-418.07 123.41,-408.83 118.39,-399.28"/>
<polygon fill="black" stroke="black" points="121.09,-397.89 113.34,-390.66 114.89,-401.15 121.09,-397.89"/>
</g>
<!-- 7ef869d4&#45;cb57&#45;11ee&#45;9270&#45;04cf4b795879 -->
<g id="node4" class="node">
<title>7ef869d4&#45;cb57&#45;11ee&#45;9270&#45;04cf4b795879</title>
<polygon fill="none" stroke="black" points="151,-259.4 27,-259.4 27,-201.9 151,-201.9 151,-259.4"/>
<text text-anchor="middle" x="89" y="-242.1" font-family="Times,serif" font-size="14.00">r0: create_proposal </text>
<text text-anchor="middle" x="89" y="-225.6" font-family="Times,serif" font-size="14.00"> Type: insert </text>
<text text-anchor="middle" x="89" y="-209.1" font-family="Times,serif" font-size="14.00"> Direction: after</text>
</g>
<!-- 7ef8683a&#45;cb57&#45;11ee&#45;9270&#45;04cf4b795879&#45;&gt;7ef869d4&#45;cb57&#45;11ee&#45;9270&#45;04cf4b795879 -->
<g id="edge3" class="edge">
<title>7ef8683a&#45;cb57&#45;11ee&#45;9270&#45;04cf4b795879&#45;&gt;7ef869d4&#45;cb57&#45;11ee&#45;9270&#45;04cf4b795879</title>
<path fill="none" stroke="black" d="M89,-295.14C89,-286.94 89,-278.48 89,-270.51"/>
<polygon fill="black" stroke="black" points="92.5,-270.65 89,-260.65 85.5,-270.65 92.5,-270.65"/>
</g>
<!-- 7ef86bf0&#45;cb57&#45;11ee&#45;9270&#45;04cf4b795879 -->
<g id="node5" class="node">
<title>7ef86bf0&#45;cb57&#45;11ee&#45;9270&#45;04cf4b795879</title>
<ellipse fill="none" stroke="black" cx="89" cy="-147.9" rx="50.84" ry="18"/>
<text text-anchor="middle" x="89" y="-142.85" font-family="Times,serif" font-size="14.00">r_4: level2</text>
</g>
<!-- 7ef869d4&#45;cb57&#45;11ee&#45;9270&#45;04cf4b795879&#45;&gt;7ef86bf0&#45;cb57&#45;11ee&#45;9270&#45;04cf4b795879 -->
<g id="edge4" class="edge">
<title>7ef869d4&#45;cb57&#45;11ee&#45;9270&#45;04cf4b795879&#45;&gt;7ef86bf0&#45;cb57&#45;11ee&#45;9270&#45;04cf4b795879</title>
<path fill="none" stroke="black" d="M89,-201.4C89,-193.46 89,-184.82 89,-176.89"/>
<polygon fill="black" stroke="black" points="92.5,-176.94 89,-166.94 85.5,-176.94 92.5,-176.94"/>
</g>
<!-- 7ef86da8&#45;cb57&#45;11ee&#45;9270&#45;04cf4b795879 -->
<g id="node6" class="node">
<title>7ef86da8&#45;cb57&#45;11ee&#45;9270&#45;04cf4b795879</title>
<polygon fill="none" stroke="black" points="178,-46.95 133.5,-93.9 44.5,-93.9 0,-46.95 44.5,0 133.5,0 178,-46.95"/>
<text text-anchor="middle" x="89" y="-58.4" font-family="Times,serif" font-size="14.00">rp_15: level2 </text>
<text text-anchor="middle" x="89" y="-41.9" font-family="Times,serif" font-size="14.00"> create_proposal </text>
<text text-anchor="middle" x="89" y="-25.4" font-family="Times,serif" font-size="14.00"> cost : 15</text>
</g>
<!-- 7ef86bf0&#45;cb57&#45;11ee&#45;9270&#45;04cf4b795879&#45;&gt;7ef86da8&#45;cb57&#45;11ee&#45;9270&#45;04cf4b795879 -->
<g id="edge5" class="edge">
<title>7ef86bf0&#45;cb57&#45;11ee&#45;9270&#45;04cf4b795879&#45;&gt;7ef86da8&#45;cb57&#45;11ee&#45;9270&#45;04cf4b795879</title>
<path fill="none" stroke="black" d="M89,-129.66C89,-122.65 89,-114.12 89,-105.24"/>
<polygon fill="black" stroke="black" points="92.5,-105.32 89,-95.32 85.5,-105.32 92.5,-105.32"/>
</g>
<!-- 7ef870b4&#45;cb57&#45;11ee&#45;9270&#45;04cf4b795879 -->
<g id="node8" class="node">
<title>7ef870b4&#45;cb57&#45;11ee&#45;9270&#45;04cf4b795879</title>
<polygon fill="none" stroke="black" points="337.75,-342.35 299.37,-389.29 222.62,-389.29 184.25,-342.35 222.62,-295.4 299.37,-295.4 337.75,-342.35"/>
<text text-anchor="middle" x="261" y="-353.8" font-family="Times,serif" font-size="14.00">rp_6: level2 </text>
<text text-anchor="middle" x="261" y="-337.3" font-family="Times,serif" font-size="14.00"> start_process </text>
<text text-anchor="middle" x="261" y="-320.8" font-family="Times,serif" font-size="14.00"> cost : 85</text>
</g>
<!-- 7ef86f06&#45;cb57&#45;11ee&#45;9270&#45;04cf4b795879&#45;&gt;7ef870b4&#45;cb57&#45;11ee&#45;9270&#45;04cf4b795879 -->
<g id="edge7" class="edge">
<title>7ef86f06&#45;cb57&#45;11ee&#45;9270&#45;04cf4b795879&#45;&gt;7ef870b4&#45;cb57&#45;11ee&#45;9270&#45;04cf4b795879</title>
<path fill="none" stroke="black" d="M282.47,-425.06C280.61,-417.97 278.34,-409.33 275.98,-400.34"/>
<polygon fill="black" stroke="black" points="279.11,-399.5 273.18,-390.71 272.34,-401.28 279.11,-399.5"/>
</g>
<!-- 7ef87208&#45;cb57&#45;11ee&#45;9270&#45;04cf4b795879 -->
<g id="node9" class="node">
<title>7ef87208&#45;cb57&#45;11ee&#45;9270&#45;04cf4b795879</title>
<polygon fill="none" stroke="black" points="303.37,-259.4 184.62,-259.4 184.62,-201.9 303.37,-201.9 303.37,-259.4"/>
<text text-anchor="middle" x="244" y="-242.1" font-family="Times,serif" font-size="14.00">r0: data_support </text>
<text text-anchor="middle" x="244" y="-225.6" font-family="Times,serif" font-size="14.00"> Type: insert </text>
<text text-anchor="middle" x="244" y="-209.1" font-family="Times,serif" font-size="14.00"> Direction: parallel</text>
</g>
<!-- 7ef870b4&#45;cb57&#45;11ee&#45;9270&#45;04cf4b795879&#45;&gt;7ef87208&#45;cb57&#45;11ee&#45;9270&#45;04cf4b795879 -->
<g id="edge8" class="edge">
<title>7ef870b4&#45;cb57&#45;11ee&#45;9270&#45;04cf4b795879&#45;&gt;7ef87208&#45;cb57&#45;11ee&#45;9270&#45;04cf4b795879</title>
<path fill="none" stroke="black" d="M253.84,-295.14C252.57,-286.94 251.26,-278.48 250.02,-270.51"/>
<polygon fill="black" stroke="black" points="253.33,-270 248.34,-260.65 246.41,-271.07 253.33,-270"/>
</g>
<!-- 7ef87776&#45;cb57&#45;11ee&#45;9270&#45;04cf4b795879 -->
<g id="node10" class="node">
<title>7ef87776&#45;cb57&#45;11ee&#45;9270&#45;04cf4b795879</title>
<polygon fill="none" stroke="black" points="498.25,-259.4 321.75,-259.4 321.75,-201.9 498.25,-201.9 498.25,-259.4"/>
<text text-anchor="middle" x="410" y="-242.1" font-family="Times,serif" font-size="14.00">r0: handover_to_engineering </text>
<text text-anchor="middle" x="410" y="-225.6" font-family="Times,serif" font-size="14.00"> Type: delete </text>
<text text-anchor="middle" x="410" y="-209.1" font-family="Times,serif" font-size="14.00"> Direction: any</text>
</g>
<!-- 7ef870b4&#45;cb57&#45;11ee&#45;9270&#45;04cf4b795879&#45;&gt;7ef87776&#45;cb57&#45;11ee&#45;9270&#45;04cf4b795879 -->
<g id="edge9" class="edge">
<title>7ef870b4&#45;cb57&#45;11ee&#45;9270&#45;04cf4b795879&#45;&gt;7ef87776&#45;cb57&#45;11ee&#45;9270&#45;04cf4b795879</title>
<path fill="none" stroke="black" d="M308.55,-306.33C325.96,-293.52 345.63,-279.04 362.99,-266.26"/>
<polygon fill="black" stroke="black" points="364.85,-268.49 370.83,-259.75 360.7,-262.86 364.85,-268.49"/>
</g>
<!-- 7ef87b5e&#45;cb57&#45;11ee&#45;9270&#45;04cf4b795879 -->
<g id="node12" class="node">
<title>7ef87b5e&#45;cb57&#45;11ee&#45;9270&#45;04cf4b795879</title>
<polygon fill="none" stroke="black" points="509.75,-342.35 471.37,-389.29 394.62,-389.29 356.25,-342.35 394.62,-295.4 471.37,-295.4 509.75,-342.35"/>
<text text-anchor="middle" x="433" y="-353.8" font-family="Times,serif" font-size="14.00">rp_6: level2 </text>
<text text-anchor="middle" x="433" y="-337.3" font-family="Times,serif" font-size="14.00"> start_process </text>
<text text-anchor="middle" x="433" y="-320.8" font-family="Times,serif" font-size="14.00"> cost : 87</text>
</g>
<!-- 7ef87974&#45;cb57&#45;11ee&#45;9270&#45;04cf4b795879&#45;&gt;7ef87b5e&#45;cb57&#45;11ee&#45;9270&#45;04cf4b795879 -->
<g id="edge11" class="edge">
<title>7ef87974&#45;cb57&#45;11ee&#45;9270&#45;04cf4b795879&#45;&gt;7ef87b5e&#45;cb57&#45;11ee&#45;9270&#45;04cf4b795879</title>
<path fill="none" stroke="black" d="M433,-425.06C433,-418.05 433,-409.52 433,-400.64"/>
<polygon fill="black" stroke="black" points="436.5,-400.71 433,-390.71 429.5,-400.71 436.5,-400.71"/>
</g>
<!-- 7ef87e38&#45;cb57&#45;11ee&#45;9270&#45;04cf4b795879 -->
<g id="node14" class="node">
<title>7ef87e38&#45;cb57&#45;11ee&#45;9270&#45;04cf4b795879</title>
<polygon fill="none" stroke="black" points="681.75,-342.35 643.37,-389.29 566.62,-389.29 528.25,-342.35 566.62,-295.4 643.37,-295.4 681.75,-342.35"/>
<text text-anchor="middle" x="605" y="-353.8" font-family="Times,serif" font-size="14.00">rp_13: level3 </text>
<text text-anchor="middle" x="605" y="-337.3" font-family="Times,serif" font-size="14.00"> start_process </text>
<text text-anchor="middle" x="605" y="-320.8" font-family="Times,serif" font-size="14.00"> cost : 7</text>
</g>
<!-- 7ef87cb2&#45;cb57&#45;11ee&#45;9270&#45;04cf4b795879&#45;&gt;7ef87e38&#45;cb57&#45;11ee&#45;9270&#45;04cf4b795879 -->
<g id="edge13" class="edge">
<title>7ef87cb2&#45;cb57&#45;11ee&#45;9270&#45;04cf4b795879&#45;&gt;7ef87e38&#45;cb57&#45;11ee&#45;9270&#45;04cf4b795879</title>
<path fill="none" stroke="black" d="M583.53,-425.06C585.39,-417.97 587.66,-409.33 590.02,-400.34"/>
<polygon fill="black" stroke="black" points="593.66,-401.28 592.81,-390.71 586.89,-399.5 593.66,-401.28"/>
</g>
<!-- 7ef87f78&#45;cb57&#45;11ee&#45;9270&#45;04cf4b795879 -->
<g id="node15" class="node">
<title>7ef87f78&#45;cb57&#45;11ee&#45;9270&#45;04cf4b795879</title>
<polygon fill="none" stroke="black" points="649.37,-259.4 530.62,-259.4 530.62,-201.9 649.37,-201.9 649.37,-259.4"/>
<text text-anchor="middle" x="590" y="-242.1" font-family="Times,serif" font-size="14.00">r0: inform_head </text>
<text text-anchor="middle" x="590" y="-225.6" font-family="Times,serif" font-size="14.00"> Type: insert </text>
<text text-anchor="middle" x="590" y="-209.1" font-family="Times,serif" font-size="14.00"> Direction: parallel</text>
</g>
<!-- 7ef87e38&#45;cb57&#45;11ee&#45;9270&#45;04cf4b795879&#45;&gt;7ef87f78&#45;cb57&#45;11ee&#45;9270&#45;04cf4b795879 -->
<g id="edge14" class="edge">
<title>7ef87e38&#45;cb57&#45;11ee&#45;9270&#45;04cf4b795879&#45;&gt;7ef87f78&#45;cb57&#45;11ee&#45;9270&#45;04cf4b795879</title>
<path fill="none" stroke="black" d="M598.68,-295.14C597.56,-286.94 596.4,-278.48 595.31,-270.51"/>
<polygon fill="black" stroke="black" points="598.65,-270.08 593.83,-260.65 591.71,-271.03 598.65,-270.08"/>
</g>
<!-- 7ef880e0&#45;cb57&#45;11ee&#45;9270&#45;04cf4b795879 -->
<g id="node16" class="node">
<title>7ef880e0&#45;cb57&#45;11ee&#45;9270&#45;04cf4b795879</title>
<polygon fill="none" stroke="black" points="778.25,-259.4 667.75,-259.4 667.75,-201.9 778.25,-201.9 778.25,-259.4"/>
<text text-anchor="middle" x="723" y="-242.1" font-family="Times,serif" font-size="14.00">r0: close_project </text>
<text text-anchor="middle" x="723" y="-225.6" font-family="Times,serif" font-size="14.00"> Type: delete </text>
<text text-anchor="middle" x="723" y="-209.1" font-family="Times,serif" font-size="14.00"> Direction: any</text>
</g>
<!-- 7ef87e38&#45;cb57&#45;11ee&#45;9270&#45;04cf4b795879&#45;&gt;7ef880e0&#45;cb57&#45;11ee&#45;9270&#45;04cf4b795879 -->
<g id="edge15" class="edge">
<title>7ef87e38&#45;cb57&#45;11ee&#45;9270&#45;04cf4b795879&#45;&gt;7ef880e0&#45;cb57&#45;11ee&#45;9270&#45;04cf4b795879</title>
<path fill="none" stroke="black" d="M648.27,-301.12C660.24,-289.99 673.14,-278 684.8,-267.16"/>
<polygon fill="black" stroke="black" points="686.71,-270.23 691.65,-260.86 681.94,-265.11 686.71,-270.23"/>
</g>
<!-- 7ef883c4&#45;cb57&#45;11ee&#45;9270&#45;04cf4b795879 -->
<g id="node18" class="node">
<title>7ef883c4&#45;cb57&#45;11ee&#45;9270&#45;04cf4b795879</title>
<polygon fill="none" stroke="black" points="853.75,-342.35 815.37,-389.29 738.62,-389.29 700.25,-342.35 738.62,-295.4 815.37,-295.4 853.75,-342.35"/>
<text text-anchor="middle" x="777" y="-353.8" font-family="Times,serif" font-size="14.00">rp_13: level3 </text>
<text text-anchor="middle" x="777" y="-337.3" font-family="Times,serif" font-size="14.00"> start_process </text>
<text text-anchor="middle" x="777" y="-320.8" font-family="Times,serif" font-size="14.00"> cost : 28</text>
</g>
<!-- 7ef8823e&#45;cb57&#45;11ee&#45;9270&#45;04cf4b795879&#45;&gt;7ef883c4&#45;cb57&#45;11ee&#45;9270&#45;04cf4b795879 -->
<g id="edge17" class="edge">
<title>7ef8823e&#45;cb57&#45;11ee&#45;9270&#45;04cf4b795879&#45;&gt;7ef883c4&#45;cb57&#45;11ee&#45;9270&#45;04cf4b795879</title>
<path fill="none" stroke="black" d="M744.79,-425.06C747.64,-417.82 751.14,-408.95 754.76,-399.76"/>
<polygon fill="black" stroke="black" points="758.31,-401.3 758.72,-390.71 751.8,-398.73 758.31,-401.3"/>
</g>
</g>
</svg>
