<?xml version="1.0" encoding="UTF-8" standalone="no"?>
<!DOCTYPE svg PUBLIC "-//W3C//DTD SVG 1.1//EN"
 "http://www.w3.org/Graphics/SVG/1.1/DTD/svg11.dtd">
<!-- Generated by graphviz version 8.1.0 (20230707.0739)
 -->
<!-- Title: CallTree Pages: 1 -->
<svg width="1084pt" height="563pt"
 viewBox="0.00 0.00 1083.77 562.79" xmlns="http://www.w3.org/2000/svg" xmlns:xlink="http://www.w3.org/1999/xlink">
<g id="graph0" class="graph" transform="scale(1 1) rotate(0) translate(4 558.79)">
<title>CallTree</title>
<polygon fill="white" stroke="none" points="-4,4 -4,-558.79 1079.77,-558.79 1079.77,4 -4,4"/>
<!-- 7f104996&#45;cb57&#45;11ee&#45;9270&#45;04cf4b795879 -->
<g id="node1" class="node">
<title>7f104996&#45;cb57&#45;11ee&#45;9270&#45;04cf4b795879</title>
<polygon fill="none" stroke="black" points="451.65,-554.79 347.15,-554.79 347.15,-497.29 451.65,-497.29 451.65,-554.79"/>
<text text-anchor="middle" x="399.4" y="-537.49" font-family="Times,serif" font-size="14.00">a5: send_offer </text>
<text text-anchor="middle" x="399.4" y="-520.99" font-family="Times,serif" font-size="14.00"> Type: Core </text>
<text text-anchor="middle" x="399.4" y="-504.49" font-family="Times,serif" font-size="14.00"> Direction: Core</text>
</g>
<!-- 7f10515c&#45;cb57&#45;11ee&#45;9270&#45;04cf4b795879 -->
<g id="node2" class="node">
<title>7f10515c&#45;cb57&#45;11ee&#45;9270&#45;04cf4b795879</title>
<ellipse fill="none" stroke="black" cx="114.4" cy="-443.29" rx="50.84" ry="18"/>
<text text-anchor="middle" x="114.4" y="-438.24" font-family="Times,serif" font-size="14.00">r_1: level1</text>
</g>
<!-- 7f104996&#45;cb57&#45;11ee&#45;9270&#45;04cf4b795879&#45;&gt;7f10515c&#45;cb57&#45;11ee&#45;9270&#45;04cf4b795879 -->
<g id="edge1" class="edge">
<title>7f104996&#45;cb57&#45;11ee&#45;9270&#45;04cf4b795879&#45;&gt;7f10515c&#45;cb57&#45;11ee&#45;9270&#45;04cf4b795879</title>
<path fill="none" stroke="black" d="M346.8,-510.14C294.39,-495.29 214.57,-472.68 163.45,-458.19"/>
<polygon fill="black" stroke="black" points="164.57,-454.59 154,-455.23 162.67,-461.32 164.57,-454.59"/>
</g>
<!-- 7f1054e0&#45;cb57&#45;11ee&#45;9270&#45;04cf4b795879 -->
<g id="node4" class="node">
<title>7f1054e0&#45;cb57&#45;11ee&#45;9270&#45;04cf4b795879</title>
<ellipse fill="none" stroke="black" cx="255.4" cy="-443.29" rx="50.84" ry="18"/>
<text text-anchor="middle" x="255.4" y="-438.24" font-family="Times,serif" font-size="14.00">r_2: level2</text>
</g>
<!-- 7f104996&#45;cb57&#45;11ee&#45;9270&#45;04cf4b795879&#45;&gt;7f1054e0&#45;cb57&#45;11ee&#45;9270&#45;04cf4b795879 -->
<g id="edge3" class="edge">
<title>7f104996&#45;cb57&#45;11ee&#45;9270&#45;04cf4b795879&#45;&gt;7f1054e0&#45;cb57&#45;11ee&#45;9270&#45;04cf4b795879</title>
<path fill="none" stroke="black" d="M349.04,-496.8C329.88,-486.06 308.46,-474.05 290.95,-464.23"/>
<polygon fill="black" stroke="black" points="293.1,-460.86 282.67,-459.02 289.68,-466.97 293.1,-460.86"/>
</g>
<!-- 7f1057c4&#45;cb57&#45;11ee&#45;9270&#45;04cf4b795879 -->
<g id="node6" class="node">
<title>7f1057c4&#45;cb57&#45;11ee&#45;9270&#45;04cf4b795879</title>
<ellipse fill="none" stroke="black" cx="399.4" cy="-443.29" rx="50.84" ry="18"/>
<text text-anchor="middle" x="399.4" y="-438.24" font-family="Times,serif" font-size="14.00">r_4: level2</text>
</g>
<!-- 7f104996&#45;cb57&#45;11ee&#45;9270&#45;04cf4b795879&#45;&gt;7f1057c4&#45;cb57&#45;11ee&#45;9270&#45;04cf4b795879 -->
<g id="edge5" class="edge">
<title>7f104996&#45;cb57&#45;11ee&#45;9270&#45;04cf4b795879&#45;&gt;7f1057c4&#45;cb57&#45;11ee&#45;9270&#45;04cf4b795879</title>
<path fill="none" stroke="black" d="M399.4,-496.8C399.4,-488.86 399.4,-480.22 399.4,-472.29"/>
<polygon fill="black" stroke="black" points="402.9,-472.34 399.4,-462.34 395.9,-472.34 402.9,-472.34"/>
</g>
<!-- 7f105a9e&#45;cb57&#45;11ee&#45;9270&#45;04cf4b795879 -->
<g id="node8" class="node">
<title>7f105a9e&#45;cb57&#45;11ee&#45;9270&#45;04cf4b795879</title>
<ellipse fill="none" stroke="black" cx="543.4" cy="-443.29" rx="50.84" ry="18"/>
<text text-anchor="middle" x="543.4" y="-438.24" font-family="Times,serif" font-size="14.00">r_3: level3</text>
</g>
<!-- 7f104996&#45;cb57&#45;11ee&#45;9270&#45;04cf4b795879&#45;&gt;7f105a9e&#45;cb57&#45;11ee&#45;9270&#45;04cf4b795879 -->
<g id="edge7" class="edge">
<title>7f104996&#45;cb57&#45;11ee&#45;9270&#45;04cf4b795879&#45;&gt;7f105a9e&#45;cb57&#45;11ee&#45;9270&#45;04cf4b795879</title>
<path fill="none" stroke="black" d="M449.77,-496.8C468.93,-486.06 490.34,-474.05 507.85,-464.23"/>
<polygon fill="black" stroke="black" points="509.13,-466.97 516.14,-459.02 505.7,-460.86 509.13,-466.97"/>
</g>
<!-- 7f105f6c&#45;cb57&#45;11ee&#45;9270&#45;04cf4b795879 -->
<g id="node11" class="node">
<title>7f105f6c&#45;cb57&#45;11ee&#45;9270&#45;04cf4b795879</title>
<ellipse fill="none" stroke="black" cx="699.4" cy="-443.29" rx="50.84" ry="18"/>
<text text-anchor="middle" x="699.4" y="-438.24" font-family="Times,serif" font-size="14.00">r_5: level3</text>
</g>
<!-- 7f104996&#45;cb57&#45;11ee&#45;9270&#45;04cf4b795879&#45;&gt;7f105f6c&#45;cb57&#45;11ee&#45;9270&#45;04cf4b795879 -->
<g id="edge10" class="edge">
<title>7f104996&#45;cb57&#45;11ee&#45;9270&#45;04cf4b795879&#45;&gt;7f105f6c&#45;cb57&#45;11ee&#45;9270&#45;04cf4b795879</title>
<path fill="none" stroke="black" d="M452,-510.89C507.61,-495.92 594.69,-472.48 649.33,-457.77"/>
<polygon fill="black" stroke="black" points="650.06,-460.93 658.81,-454.95 648.24,-454.17 650.06,-460.93"/>
</g>
<!-- 7f10535a&#45;cb57&#45;11ee&#45;9270&#45;04cf4b795879 -->
<g id="node3" class="node">
<title>7f10535a&#45;cb57&#45;11ee&#45;9270&#45;04cf4b795879</title>
<polygon fill="none" stroke="black" points="138.8,-342.35 104.1,-389.29 34.7,-389.29 0,-342.35 34.7,-295.4 104.1,-295.4 138.8,-342.35"/>
<text text-anchor="middle" x="69.4" y="-353.8" font-family="Times,serif" font-size="14.00">rp_5: level1 </text>
<text text-anchor="middle" x="69.4" y="-337.3" font-family="Times,serif" font-size="14.00"> send_offer </text>
<text text-anchor="middle" x="69.4" y="-320.8" font-family="Times,serif" font-size="14.00"> cost : 50</text>
</g>
<!-- 7f10515c&#45;cb57&#45;11ee&#45;9270&#45;04cf4b795879&#45;&gt;7f10535a&#45;cb57&#45;11ee&#45;9270&#45;04cf4b795879 -->
<g id="edge2" class="edge">
<title>7f10515c&#45;cb57&#45;11ee&#45;9270&#45;04cf4b795879&#45;&gt;7f10535a&#45;cb57&#45;11ee&#45;9270&#45;04cf4b795879</title>
<path fill="none" stroke="black" d="M106.56,-425.06C103.24,-417.74 99.15,-408.76 94.92,-399.46"/>
<polygon fill="black" stroke="black" points="97.82,-398.37 90.49,-390.71 91.44,-401.27 97.82,-398.37"/>
</g>
<!-- 7f105684&#45;cb57&#45;11ee&#45;9270&#45;04cf4b795879 -->
<g id="node5" class="node">
<title>7f105684&#45;cb57&#45;11ee&#45;9270&#45;04cf4b795879</title>
<polygon fill="none" stroke="black" points="306.32,-342.35 268.86,-389.29 193.95,-389.29 156.49,-342.35 193.95,-295.4 268.86,-295.4 306.32,-342.35"/>
<text text-anchor="middle" x="231.4" y="-353.8" font-family="Times,serif" font-size="14.00">rp_10: level2 </text>
<text text-anchor="middle" x="231.4" y="-337.3" font-family="Times,serif" font-size="14.00"> send_offer </text>
<text text-anchor="middle" x="231.4" y="-320.8" font-family="Times,serif" font-size="14.00"> cost : 59</text>
</g>
<!-- 7f1054e0&#45;cb57&#45;11ee&#45;9270&#45;04cf4b795879&#45;&gt;7f105684&#45;cb57&#45;11ee&#45;9270&#45;04cf4b795879 -->
<g id="edge4" class="edge">
<title>7f1054e0&#45;cb57&#45;11ee&#45;9270&#45;04cf4b795879&#45;&gt;7f105684&#45;cb57&#45;11ee&#45;9270&#45;04cf4b795879</title>
<path fill="none" stroke="black" d="M251.22,-425.06C249.5,-417.97 247.41,-409.33 245.23,-400.34"/>
<polygon fill="black" stroke="black" points="248.41,-399.61 242.65,-390.71 241.6,-401.26 248.41,-399.61"/>
</g>
<!-- 7f105954&#45;cb57&#45;11ee&#45;9270&#45;04cf4b795879 -->
<g id="node7" class="node">
<title>7f105954&#45;cb57&#45;11ee&#45;9270&#45;04cf4b795879</title>
<polygon fill="none" stroke="black" points="474.32,-342.35 436.86,-389.29 361.95,-389.29 324.49,-342.35 361.95,-295.4 436.86,-295.4 474.32,-342.35"/>
<text text-anchor="middle" x="399.4" y="-353.8" font-family="Times,serif" font-size="14.00">rp_10: level2 </text>
<text text-anchor="middle" x="399.4" y="-337.3" font-family="Times,serif" font-size="14.00"> send_offer </text>
<text text-anchor="middle" x="399.4" y="-320.8" font-family="Times,serif" font-size="14.00"> cost : 70</text>
</g>
<!-- 7f1057c4&#45;cb57&#45;11ee&#45;9270&#45;04cf4b795879&#45;&gt;7f105954&#45;cb57&#45;11ee&#45;9270&#45;04cf4b795879 -->
<g id="edge6" class="edge">
<title>7f1057c4&#45;cb57&#45;11ee&#45;9270&#45;04cf4b795879&#45;&gt;7f105954&#45;cb57&#45;11ee&#45;9270&#45;04cf4b795879</title>
<path fill="none" stroke="black" d="M399.4,-425.06C399.4,-418.05 399.4,-409.52 399.4,-400.64"/>
<polygon fill="black" stroke="black" points="402.9,-400.71 399.4,-390.71 395.9,-400.71 402.9,-400.71"/>
</g>
<!-- 7f105c38&#45;cb57&#45;11ee&#45;9270&#45;04cf4b795879 -->
<g id="node9" class="node">
<title>7f105c38&#45;cb57&#45;11ee&#45;9270&#45;04cf4b795879</title>
<polygon fill="none" stroke="black" points="642.32,-342.35 604.86,-389.29 529.95,-389.29 492.49,-342.35 529.95,-295.4 604.86,-295.4 642.32,-342.35"/>
<text text-anchor="middle" x="567.4" y="-353.8" font-family="Times,serif" font-size="14.00">rp_17: level3 </text>
<text text-anchor="middle" x="567.4" y="-337.3" font-family="Times,serif" font-size="14.00"> send_offer </text>
<text text-anchor="middle" x="567.4" y="-320.8" font-family="Times,serif" font-size="14.00"> cost : 47</text>
</g>
<!-- 7f105a9e&#45;cb57&#45;11ee&#45;9270&#45;04cf4b795879&#45;&gt;7f105c38&#45;cb57&#45;11ee&#45;9270&#45;04cf4b795879 -->
<g id="edge8" class="edge">
<title>7f105a9e&#45;cb57&#45;11ee&#45;9270&#45;04cf4b795879&#45;&gt;7f105c38&#45;cb57&#45;11ee&#45;9270&#45;04cf4b795879</title>
<path fill="none" stroke="black" d="M547.58,-425.06C549.3,-417.97 551.4,-409.33 553.58,-400.34"/>
<polygon fill="black" stroke="black" points="557.2,-401.26 556.16,-390.71 550.4,-399.61 557.2,-401.26"/>
</g>
<!-- 7f105d82&#45;cb57&#45;11ee&#45;9270&#45;04cf4b795879 -->
<g id="node10" class="node">
<title>7f105d82&#45;cb57&#45;11ee&#45;9270&#45;04cf4b795879</title>
<polygon fill="none" stroke="black" points="638.03,-259.4 496.78,-259.4 496.78,-201.9 638.03,-201.9 638.03,-259.4"/>
<text text-anchor="middle" x="567.4" y="-242.1" font-family="Times,serif" font-size="14.00">r0: head_confirmation </text>
<text text-anchor="middle" x="567.4" y="-225.6" font-family="Times,serif" font-size="14.00"> Type: insert </text>
<text text-anchor="middle" x="567.4" y="-209.1" font-family="Times,serif" font-size="14.00"> Direction: after</text>
</g>
<!-- 7f105c38&#45;cb57&#45;11ee&#45;9270&#45;04cf4b795879&#45;&gt;7f105d82&#45;cb57&#45;11ee&#45;9270&#45;04cf4b795879 -->
<g id="edge9" class="edge">
<title>7f105c38&#45;cb57&#45;11ee&#45;9270&#45;04cf4b795879&#45;&gt;7f105d82&#45;cb57&#45;11ee&#45;9270&#45;04cf4b795879</title>
<path fill="none" stroke="black" d="M567.4,-295.14C567.4,-286.94 567.4,-278.48 567.4,-270.51"/>
<polygon fill="black" stroke="black" points="570.9,-270.65 567.4,-260.65 563.9,-270.65 570.9,-270.65"/>
</g>
<!-- 7f1060fc&#45;cb57&#45;11ee&#45;9270&#45;04cf4b795879 -->
<g id="node12" class="node">
<title>7f1060fc&#45;cb57&#45;11ee&#45;9270&#45;04cf4b795879</title>
<polygon fill="none" stroke="black" points="810.32,-342.35 772.86,-389.29 697.95,-389.29 660.49,-342.35 697.95,-295.4 772.86,-295.4 810.32,-342.35"/>
<text text-anchor="middle" x="735.4" y="-353.8" font-family="Times,serif" font-size="14.00">rp_17: level3 </text>
<text text-anchor="middle" x="735.4" y="-337.3" font-family="Times,serif" font-size="14.00"> send_offer </text>
<text text-anchor="middle" x="735.4" y="-320.8" font-family="Times,serif" font-size="14.00"> cost : 56</text>
</g>
<!-- 7f105f6c&#45;cb57&#45;11ee&#45;9270&#45;04cf4b795879&#45;&gt;7f1060fc&#45;cb57&#45;11ee&#45;9270&#45;04cf4b795879 -->
<g id="edge11" class="edge">
<title>7f105f6c&#45;cb57&#45;11ee&#45;9270&#45;04cf4b795879&#45;&gt;7f1060fc&#45;cb57&#45;11ee&#45;9270&#45;04cf4b795879</title>
<path fill="none" stroke="black" d="M705.67,-425.06C708.28,-417.9 711.46,-409.14 714.77,-400.05"/>
<polygon fill="black" stroke="black" points="718.4,-401.31 718.53,-390.71 711.82,-398.92 718.4,-401.31"/>
</g>
<!-- 7f106246&#45;cb57&#45;11ee&#45;9270&#45;04cf4b795879 -->
<g id="node13" class="node">
<title>7f106246&#45;cb57&#45;11ee&#45;9270&#45;04cf4b795879</title>
<polygon fill="none" stroke="black" points="808.65,-259.4 662.15,-259.4 662.15,-201.9 808.65,-201.9 808.65,-259.4"/>
<text text-anchor="middle" x="735.4" y="-242.1" font-family="Times,serif" font-size="14.00">r0: four_eyes_principle </text>
<text text-anchor="middle" x="735.4" y="-225.6" font-family="Times,serif" font-size="14.00"> Type: insert </text>
<text text-anchor="middle" x="735.4" y="-209.1" font-family="Times,serif" font-size="14.00"> Direction: after</text>
</g>
<!-- 7f1060fc&#45;cb57&#45;11ee&#45;9270&#45;04cf4b795879&#45;&gt;7f106246&#45;cb57&#45;11ee&#45;9270&#45;04cf4b795879 -->
<g id="edge12" class="edge">
<title>7f1060fc&#45;cb57&#45;11ee&#45;9270&#45;04cf4b795879&#45;&gt;7f106246&#45;cb57&#45;11ee&#45;9270&#45;04cf4b795879</title>
<path fill="none" stroke="black" d="M735.4,-295.14C735.4,-286.94 735.4,-278.48 735.4,-270.51"/>
<polygon fill="black" stroke="black" points="738.9,-270.65 735.4,-260.65 731.9,-270.65 738.9,-270.65"/>
</g>
<!-- 7f106476&#45;cb57&#45;11ee&#45;9270&#45;04cf4b795879 -->
<g id="node14" class="node">
<title>7f106476&#45;cb57&#45;11ee&#45;9270&#45;04cf4b795879</title>
<ellipse fill="none" stroke="black" cx="559.4" cy="-147.9" rx="50.84" ry="18"/>
<text text-anchor="middle" x="559.4" y="-142.85" font-family="Times,serif" font-size="14.00">r_4: level2</text>
</g>
<!-- 7f106246&#45;cb57&#45;11ee&#45;9270&#45;04cf4b795879&#45;&gt;7f106476&#45;cb57&#45;11ee&#45;9270&#45;04cf4b795879 -->
<g id="edge13" class="edge">
<title>7f106246&#45;cb57&#45;11ee&#45;9270&#45;04cf4b795879&#45;&gt;7f106476&#45;cb57&#45;11ee&#45;9270&#45;04cf4b795879</title>
<path fill="none" stroke="black" d="M673.85,-201.4C649.2,-190.1 621.5,-177.39 599.53,-167.31"/>
<polygon fill="black" stroke="black" points="601.11,-163.72 590.56,-162.73 598.19,-170.08 601.11,-163.72"/>
</g>
<!-- 7f106750&#45;cb57&#45;11ee&#45;9270&#45;04cf4b795879 -->
<g id="node16" class="node">
<title>7f106750&#45;cb57&#45;11ee&#45;9270&#45;04cf4b795879</title>
<ellipse fill="none" stroke="black" cx="735.4" cy="-147.9" rx="50.84" ry="18"/>
<text text-anchor="middle" x="735.4" y="-142.85" font-family="Times,serif" font-size="14.00">r_3: level3</text>
</g>
<!-- 7f106246&#45;cb57&#45;11ee&#45;9270&#45;04cf4b795879&#45;&gt;7f106750&#45;cb57&#45;11ee&#45;9270&#45;04cf4b795879 -->
<g id="edge15" class="edge">
<title>7f106246&#45;cb57&#45;11ee&#45;9270&#45;04cf4b795879&#45;&gt;7f106750&#45;cb57&#45;11ee&#45;9270&#45;04cf4b795879</title>
<path fill="none" stroke="black" d="M735.4,-201.4C735.4,-193.46 735.4,-184.82 735.4,-176.89"/>
<polygon fill="black" stroke="black" points="738.9,-176.94 735.4,-166.94 731.9,-176.94 738.9,-176.94"/>
</g>
<!-- 7f106a0c&#45;cb57&#45;11ee&#45;9270&#45;04cf4b795879 -->
<g id="node18" class="node">
<title>7f106a0c&#45;cb57&#45;11ee&#45;9270&#45;04cf4b795879</title>
<ellipse fill="none" stroke="black" cx="911.4" cy="-147.9" rx="50.84" ry="18"/>
<text text-anchor="middle" x="911.4" y="-142.85" font-family="Times,serif" font-size="14.00">r_5: level3</text>
</g>
<!-- 7f106246&#45;cb57&#45;11ee&#45;9270&#45;04cf4b795879&#45;&gt;7f106a0c&#45;cb57&#45;11ee&#45;9270&#45;04cf4b795879 -->
<g id="edge17" class="edge">
<title>7f106246&#45;cb57&#45;11ee&#45;9270&#45;04cf4b795879&#45;&gt;7f106a0c&#45;cb57&#45;11ee&#45;9270&#45;04cf4b795879</title>
<path fill="none" stroke="black" d="M796.96,-201.4C821.6,-190.1 849.3,-177.39 871.27,-167.31"/>
<polygon fill="black" stroke="black" points="872.62,-170.08 880.25,-162.73 869.7,-163.72 872.62,-170.08"/>
</g>
<!-- 7f106610&#45;cb57&#45;11ee&#45;9270&#45;04cf4b795879 -->
<g id="node15" class="node">
<title>7f106610&#45;cb57&#45;11ee&#45;9270&#45;04cf4b795879</title>
<polygon fill="none" stroke="black" points="609.77,-46.95 556.09,-93.9 448.72,-93.9 395.03,-46.95 448.72,0 556.09,0 609.77,-46.95"/>
<text text-anchor="middle" x="502.4" y="-58.4" font-family="Times,serif" font-size="14.00">rp_24: level3 </text>
<text text-anchor="middle" x="502.4" y="-41.9" font-family="Times,serif" font-size="14.00"> four_eyes_principle </text>
<text text-anchor="middle" x="502.4" y="-25.4" font-family="Times,serif" font-size="14.00"> cost : 63</text>
</g>
<!-- 7f106476&#45;cb57&#45;11ee&#45;9270&#45;04cf4b795879&#45;&gt;7f106610&#45;cb57&#45;11ee&#45;9270&#45;04cf4b795879 -->
<g id="edge14" class="edge">
<title>7f106476&#45;cb57&#45;11ee&#45;9270&#45;04cf4b795879&#45;&gt;7f106610&#45;cb57&#45;11ee&#45;9270&#45;04cf4b795879</title>
<path fill="none" stroke="black" d="M549.73,-130.11C545.4,-122.59 540.02,-113.25 534.45,-103.58"/>
<polygon fill="black" stroke="black" points="537.11,-102.19 529.08,-95.27 531.04,-105.68 537.11,-102.19"/>
</g>
<!-- 7f1068cc&#45;cb57&#45;11ee&#45;9270&#45;04cf4b795879 -->
<g id="node17" class="node">
<title>7f1068cc&#45;cb57&#45;11ee&#45;9270&#45;04cf4b795879</title>
<polygon fill="none" stroke="black" points="842.77,-46.95 789.09,-93.9 681.72,-93.9 628.03,-46.95 681.72,0 789.09,0 842.77,-46.95"/>
<text text-anchor="middle" x="735.4" y="-58.4" font-family="Times,serif" font-size="14.00">rp_24: level3 </text>
<text text-anchor="middle" x="735.4" y="-41.9" font-family="Times,serif" font-size="14.00"> four_eyes_principle </text>
<text text-anchor="middle" x="735.4" y="-25.4" font-family="Times,serif" font-size="14.00"> cost : 53</text>
</g>
<!-- 7f106750&#45;cb57&#45;11ee&#45;9270&#45;04cf4b795879&#45;&gt;7f1068cc&#45;cb57&#45;11ee&#45;9270&#45;04cf4b795879 -->
<g id="edge16" class="edge">
<title>7f106750&#45;cb57&#45;11ee&#45;9270&#45;04cf4b795879&#45;&gt;7f1068cc&#45;cb57&#45;11ee&#45;9270&#45;04cf4b795879</title>
<path fill="none" stroke="black" d="M735.4,-129.66C735.4,-122.65 735.4,-114.12 735.4,-105.24"/>
<polygon fill="black" stroke="black" points="738.9,-105.32 735.4,-95.32 731.9,-105.32 738.9,-105.32"/>
</g>
<!-- 7f106b88&#45;cb57&#45;11ee&#45;9270&#45;04cf4b795879 -->
<g id="node19" class="node">
<title>7f106b88&#45;cb57&#45;11ee&#45;9270&#45;04cf4b795879</title>
<polygon fill="none" stroke="black" points="1075.77,-46.95 1022.09,-93.9 914.72,-93.9 861.03,-46.95 914.72,0 1022.09,0 1075.77,-46.95"/>
<text text-anchor="middle" x="968.4" y="-58.4" font-family="Times,serif" font-size="14.00">rp_24: level3 </text>
<text text-anchor="middle" x="968.4" y="-41.9" font-family="Times,serif" font-size="14.00"> four_eyes_principle </text>
<text text-anchor="middle" x="968.4" y="-25.4" font-family="Times,serif" font-size="14.00"> cost : 19</text>
</g>
<!-- 7f106a0c&#45;cb57&#45;11ee&#45;9270&#45;04cf4b795879&#45;&gt;7f106b88&#45;cb57&#45;11ee&#45;9270&#45;04cf4b795879 -->
<g id="edge18" class="edge">
<title>7f106a0c&#45;cb57&#45;11ee&#45;9270&#45;04cf4b795879&#45;&gt;7f106b88&#45;cb57&#45;11ee&#45;9270&#45;04cf4b795879</title>
<path fill="none" stroke="black" d="M921.07,-130.11C925.4,-122.59 930.79,-113.25 936.35,-103.58"/>
<polygon fill="black" stroke="black" points="939.76,-105.68 941.72,-95.27 933.7,-102.19 939.76,-105.68"/>
</g>
</g>
</svg>
