<?xml version="1.0" encoding="UTF-8" standalone="no"?>
<!DOCTYPE svg PUBLIC "-//W3C//DTD SVG 1.1//EN"
 "http://www.w3.org/Graphics/SVG/1.1/DTD/svg11.dtd">
<!-- Generated by graphviz version 7.1.0 (0)
 -->
<!-- Title: CallTree Pages: 1 -->
<svg width="782pt" height="345pt"
 viewBox="0.00 0.00 781.63 344.55" xmlns="http://www.w3.org/2000/svg" xmlns:xlink="http://www.w3.org/1999/xlink">
<g id="graph0" class="graph" transform="scale(1 1) rotate(0) translate(4 340.55)">
<title>CallTree</title>
<polygon fill="white" stroke="none" points="-4,4 -4,-340.55 777.63,-340.55 777.63,4 -4,4"/>
<!-- e0a57e62&#45;c687&#45;11ee&#45;890b&#45;ac1a3ddd05c7 -->
<g id="node1" class="node">
<title>e0a57e62&#45;c687&#45;11ee&#45;890b&#45;ac1a3ddd05c7</title>
<polygon fill="none" stroke="black" points="428.81,-336.55 302.81,-336.55 302.81,-283.55 428.81,-283.55 428.81,-336.55"/>
<text text-anchor="middle" x="365.81" y="-321.35" font-family="Times,serif" font-size="14.00">a4: create_proposal </text>
<text text-anchor="middle" x="365.81" y="-306.35" font-family="Times,serif" font-size="14.00"> Type: Core </text>
<text text-anchor="middle" x="365.81" y="-291.35" font-family="Times,serif" font-size="14.00"> Direction: Core</text>
</g>
<!-- e0a586aa&#45;c687&#45;11ee&#45;890b&#45;ac1a3ddd05c7 -->
<g id="node2" class="node">
<title>e0a586aa&#45;c687&#45;11ee&#45;890b&#45;ac1a3ddd05c7</title>
<ellipse fill="none" stroke="black" cx="152.81" cy="-229.55" rx="48.99" ry="18"/>
<text text-anchor="middle" x="152.81" y="-225.85" font-family="Times,serif" font-size="14.00">r_2: level2</text>
</g>
<!-- e0a57e62&#45;c687&#45;11ee&#45;890b&#45;ac1a3ddd05c7&#45;&gt;e0a586aa&#45;c687&#45;11ee&#45;890b&#45;ac1a3ddd05c7 -->
<g id="edge1" class="edge">
<title>e0a57e62&#45;c687&#45;11ee&#45;890b&#45;ac1a3ddd05c7&#45;&gt;e0a586aa&#45;c687&#45;11ee&#45;890b&#45;ac1a3ddd05c7</title>
<path fill="none" stroke="black" d="M302.48,-285.71C268.63,-273.23 227.76,-258.17 197.29,-246.94"/>
<polygon fill="black" stroke="black" points="198.58,-243.69 187.99,-243.51 196.16,-250.25 198.58,-243.69"/>
</g>
<!-- e0a58a56&#45;c687&#45;11ee&#45;890b&#45;ac1a3ddd05c7 -->
<g id="node4" class="node">
<title>e0a58a56&#45;c687&#45;11ee&#45;890b&#45;ac1a3ddd05c7</title>
<ellipse fill="none" stroke="black" cx="308.81" cy="-229.55" rx="48.99" ry="18"/>
<text text-anchor="middle" x="308.81" y="-225.85" font-family="Times,serif" font-size="14.00">r_4: level2</text>
</g>
<!-- e0a57e62&#45;c687&#45;11ee&#45;890b&#45;ac1a3ddd05c7&#45;&gt;e0a58a56&#45;c687&#45;11ee&#45;890b&#45;ac1a3ddd05c7 -->
<g id="edge3" class="edge">
<title>e0a57e62&#45;c687&#45;11ee&#45;890b&#45;ac1a3ddd05c7&#45;&gt;e0a58a56&#45;c687&#45;11ee&#45;890b&#45;ac1a3ddd05c7</title>
<path fill="none" stroke="black" d="M347.15,-283.34C340.92,-274.77 333.98,-265.21 327.73,-256.6"/>
<polygon fill="black" stroke="black" points="330.65,-254.66 321.94,-248.63 324.98,-258.77 330.65,-254.66"/>
</g>
<!-- e0a58d4e&#45;c687&#45;11ee&#45;890b&#45;ac1a3ddd05c7 -->
<g id="node6" class="node">
<title>e0a58d4e&#45;c687&#45;11ee&#45;890b&#45;ac1a3ddd05c7</title>
<ellipse fill="none" stroke="black" cx="464.81" cy="-229.55" rx="48.99" ry="18"/>
<text text-anchor="middle" x="464.81" y="-225.85" font-family="Times,serif" font-size="14.00">r_3: level3</text>
</g>
<!-- e0a57e62&#45;c687&#45;11ee&#45;890b&#45;ac1a3ddd05c7&#45;&gt;e0a58d4e&#45;c687&#45;11ee&#45;890b&#45;ac1a3ddd05c7 -->
<g id="edge5" class="edge">
<title>e0a57e62&#45;c687&#45;11ee&#45;890b&#45;ac1a3ddd05c7&#45;&gt;e0a58d4e&#45;c687&#45;11ee&#45;890b&#45;ac1a3ddd05c7</title>
<path fill="none" stroke="black" d="M398.51,-283.13C410.59,-273.54 424.2,-262.75 435.93,-253.46"/>
<polygon fill="black" stroke="black" points="438.02,-256.27 443.68,-247.31 433.67,-250.78 438.02,-256.27"/>
</g>
<!-- e0a59262&#45;c687&#45;11ee&#45;890b&#45;ac1a3ddd05c7 -->
<g id="node9" class="node">
<title>e0a59262&#45;c687&#45;11ee&#45;890b&#45;ac1a3ddd05c7</title>
<ellipse fill="none" stroke="black" cx="641.81" cy="-229.55" rx="48.99" ry="18"/>
<text text-anchor="middle" x="641.81" y="-225.85" font-family="Times,serif" font-size="14.00">r_5: level3</text>
</g>
<!-- e0a57e62&#45;c687&#45;11ee&#45;890b&#45;ac1a3ddd05c7&#45;&gt;e0a59262&#45;c687&#45;11ee&#45;890b&#45;ac1a3ddd05c7 -->
<g id="edge8" class="edge">
<title>e0a57e62&#45;c687&#45;11ee&#45;890b&#45;ac1a3ddd05c7&#45;&gt;e0a59262&#45;c687&#45;11ee&#45;890b&#45;ac1a3ddd05c7</title>
<path fill="none" stroke="black" d="M429.13,-291.04C478.98,-276.86 547.42,-257.4 593.06,-244.42"/>
<polygon fill="black" stroke="black" points="593.74,-247.86 602.4,-241.76 591.83,-241.13 593.74,-247.86"/>
</g>
<!-- e0a588b2&#45;c687&#45;11ee&#45;890b&#45;ac1a3ddd05c7 -->
<g id="node3" class="node">
<title>e0a588b2&#45;c687&#45;11ee&#45;890b&#45;ac1a3ddd05c7</title>
<polygon fill="none" stroke="black" points="179.44,-132.27 134.63,-175.32 45,-175.32 0.18,-132.27 45,-89.22 134.63,-89.22 179.44,-132.27"/>
<text text-anchor="middle" x="89.81" y="-143.57" font-family="Times,serif" font-size="14.00">rp_15: level3 </text>
<text text-anchor="middle" x="89.81" y="-128.57" font-family="Times,serif" font-size="14.00"> create_proposal </text>
<text text-anchor="middle" x="89.81" y="-113.57" font-family="Times,serif" font-size="14.00"> cost : 35</text>
</g>
<!-- e0a586aa&#45;c687&#45;11ee&#45;890b&#45;ac1a3ddd05c7&#45;&gt;e0a588b2&#45;c687&#45;11ee&#45;890b&#45;ac1a3ddd05c7 -->
<g id="edge2" class="edge">
<title>e0a586aa&#45;c687&#45;11ee&#45;890b&#45;ac1a3ddd05c7&#45;&gt;e0a588b2&#45;c687&#45;11ee&#45;890b&#45;ac1a3ddd05c7</title>
<path fill="none" stroke="black" d="M141.84,-211.95C136.76,-204.28 130.43,-194.7 123.94,-184.89"/>
<polygon fill="black" stroke="black" points="126.99,-183.14 118.55,-176.73 121.15,-187 126.99,-183.14"/>
</g>
<!-- e0a58be6&#45;c687&#45;11ee&#45;890b&#45;ac1a3ddd05c7 -->
<g id="node5" class="node">
<title>e0a58be6&#45;c687&#45;11ee&#45;890b&#45;ac1a3ddd05c7</title>
<polygon fill="none" stroke="black" points="377.44,-132.27 332.63,-175.32 243,-175.32 198.18,-132.27 243,-89.22 332.63,-89.22 377.44,-132.27"/>
<text text-anchor="middle" x="287.81" y="-143.57" font-family="Times,serif" font-size="14.00">rp_15: level2 </text>
<text text-anchor="middle" x="287.81" y="-128.57" font-family="Times,serif" font-size="14.00"> create_proposal </text>
<text text-anchor="middle" x="287.81" y="-113.57" font-family="Times,serif" font-size="14.00"> cost : 146</text>
</g>
<!-- e0a58a56&#45;c687&#45;11ee&#45;890b&#45;ac1a3ddd05c7&#45;&gt;e0a58be6&#45;c687&#45;11ee&#45;890b&#45;ac1a3ddd05c7 -->
<g id="edge4" class="edge">
<title>e0a58a56&#45;c687&#45;11ee&#45;890b&#45;ac1a3ddd05c7&#45;&gt;e0a58be6&#45;c687&#45;11ee&#45;890b&#45;ac1a3ddd05c7</title>
<path fill="none" stroke="black" d="M305.06,-211.52C303.48,-204.36 301.55,-195.61 299.57,-186.58"/>
<polygon fill="black" stroke="black" points="303.02,-186.02 297.45,-177 296.19,-187.52 303.02,-186.02"/>
</g>
<!-- e0a58ed4&#45;c687&#45;11ee&#45;890b&#45;ac1a3ddd05c7 -->
<g id="node7" class="node">
<title>e0a58ed4&#45;c687&#45;11ee&#45;890b&#45;ac1a3ddd05c7</title>
<polygon fill="none" stroke="black" points="575.44,-132.27 530.63,-175.32 441,-175.32 396.18,-132.27 441,-89.22 530.63,-89.22 575.44,-132.27"/>
<text text-anchor="middle" x="485.81" y="-143.57" font-family="Times,serif" font-size="14.00">rp_15: level3 </text>
<text text-anchor="middle" x="485.81" y="-128.57" font-family="Times,serif" font-size="14.00"> create_proposal </text>
<text text-anchor="middle" x="485.81" y="-113.57" font-family="Times,serif" font-size="14.00"> cost : 93</text>
</g>
<!-- e0a58d4e&#45;c687&#45;11ee&#45;890b&#45;ac1a3ddd05c7&#45;&gt;e0a58ed4&#45;c687&#45;11ee&#45;890b&#45;ac1a3ddd05c7 -->
<g id="edge6" class="edge">
<title>e0a58d4e&#45;c687&#45;11ee&#45;890b&#45;ac1a3ddd05c7&#45;&gt;e0a58ed4&#45;c687&#45;11ee&#45;890b&#45;ac1a3ddd05c7</title>
<path fill="none" stroke="black" d="M468.57,-211.52C470.15,-204.36 472.07,-195.61 474.06,-186.58"/>
<polygon fill="black" stroke="black" points="477.44,-187.52 476.18,-177 470.61,-186.02 477.44,-187.52"/>
</g>
<!-- e0a59032&#45;c687&#45;11ee&#45;890b&#45;ac1a3ddd05c7 -->
<g id="node8" class="node">
<title>e0a59032&#45;c687&#45;11ee&#45;890b&#45;ac1a3ddd05c7</title>
<polygon fill="none" stroke="black" points="559.81,-53 411.81,-53 411.81,0 559.81,0 559.81,-53"/>
<text text-anchor="middle" x="485.81" y="-37.8" font-family="Times,serif" font-size="14.00">a15: proposal_approval </text>
<text text-anchor="middle" x="485.81" y="-22.8" font-family="Times,serif" font-size="14.00"> Type: delete </text>
<text text-anchor="middle" x="485.81" y="-7.8" font-family="Times,serif" font-size="14.00"> Direction: any</text>
</g>
<!-- e0a58ed4&#45;c687&#45;11ee&#45;890b&#45;ac1a3ddd05c7&#45;&gt;e0a59032&#45;c687&#45;11ee&#45;890b&#45;ac1a3ddd05c7 -->
<g id="edge7" class="edge">
<title>e0a58ed4&#45;c687&#45;11ee&#45;890b&#45;ac1a3ddd05c7&#45;&gt;e0a59032&#45;c687&#45;11ee&#45;890b&#45;ac1a3ddd05c7</title>
<path fill="none" stroke="black" d="M485.81,-88.77C485.81,-80.81 485.81,-72.55 485.81,-64.77"/>
<polygon fill="black" stroke="black" points="489.31,-64.94 485.81,-54.94 482.31,-64.94 489.31,-64.94"/>
</g>
<!-- e0a593e8&#45;c687&#45;11ee&#45;890b&#45;ac1a3ddd05c7 -->
<g id="node10" class="node">
<title>e0a593e8&#45;c687&#45;11ee&#45;890b&#45;ac1a3ddd05c7</title>
<polygon fill="none" stroke="black" points="773.44,-132.27 728.63,-175.32 639,-175.32 594.18,-132.27 639,-89.22 728.63,-89.22 773.44,-132.27"/>
<text text-anchor="middle" x="683.81" y="-143.57" font-family="Times,serif" font-size="14.00">rp_15: level3 </text>
<text text-anchor="middle" x="683.81" y="-128.57" font-family="Times,serif" font-size="14.00"> create_proposal </text>
<text text-anchor="middle" x="683.81" y="-113.57" font-family="Times,serif" font-size="14.00"> cost : 125</text>
</g>
<!-- e0a59262&#45;c687&#45;11ee&#45;890b&#45;ac1a3ddd05c7&#45;&gt;e0a593e8&#45;c687&#45;11ee&#45;890b&#45;ac1a3ddd05c7 -->
<g id="edge9" class="edge">
<title>e0a59262&#45;c687&#45;11ee&#45;890b&#45;ac1a3ddd05c7&#45;&gt;e0a593e8&#45;c687&#45;11ee&#45;890b&#45;ac1a3ddd05c7</title>
<path fill="none" stroke="black" d="M649.32,-211.52C652.55,-204.2 656.5,-195.23 660.58,-185.99"/>
<polygon fill="black" stroke="black" points="663.75,-187.47 664.58,-176.91 657.34,-184.65 663.75,-187.47"/>
</g>
<!-- e0a59546&#45;c687&#45;11ee&#45;890b&#45;ac1a3ddd05c7 -->
<g id="node11" class="node">
<title>e0a59546&#45;c687&#45;11ee&#45;890b&#45;ac1a3ddd05c7</title>
<polygon fill="none" stroke="black" points="757.81,-53 609.81,-53 609.81,0 757.81,0 757.81,-53"/>
<text text-anchor="middle" x="683.81" y="-37.8" font-family="Times,serif" font-size="14.00">a15: proposal_approval </text>
<text text-anchor="middle" x="683.81" y="-22.8" font-family="Times,serif" font-size="14.00"> Type: delete </text>
<text text-anchor="middle" x="683.81" y="-7.8" font-family="Times,serif" font-size="14.00"> Direction: any</text>
</g>
<!-- e0a593e8&#45;c687&#45;11ee&#45;890b&#45;ac1a3ddd05c7&#45;&gt;e0a59546&#45;c687&#45;11ee&#45;890b&#45;ac1a3ddd05c7 -->
<g id="edge10" class="edge">
<title>e0a593e8&#45;c687&#45;11ee&#45;890b&#45;ac1a3ddd05c7&#45;&gt;e0a59546&#45;c687&#45;11ee&#45;890b&#45;ac1a3ddd05c7</title>
<path fill="none" stroke="black" d="M683.81,-88.77C683.81,-80.81 683.81,-72.55 683.81,-64.77"/>
<polygon fill="black" stroke="black" points="687.31,-64.94 683.81,-54.94 680.31,-64.94 687.31,-64.94"/>
</g>
</g>
</svg>
