<?xml version="1.0" encoding="UTF-8" standalone="no"?>
<!DOCTYPE svg PUBLIC "-//W3C//DTD SVG 1.1//EN"
 "http://www.w3.org/Graphics/SVG/1.1/DTD/svg11.dtd">
<!-- Generated by graphviz version 8.1.0 (20230707.0739)
 -->
<!-- Title: CallTree Pages: 1 -->
<svg width="1152pt" height="952pt"
 viewBox="0.00 0.00 1152.14 951.69" xmlns="http://www.w3.org/2000/svg" xmlns:xlink="http://www.w3.org/1999/xlink">
<g id="graph0" class="graph" transform="scale(1 1) rotate(0) translate(4 947.69)">
<title>CallTree</title>
<polygon fill="white" stroke="none" points="-4,4 -4,-947.69 1148.14,-947.69 1148.14,4 -4,4"/>
<!-- 7f15f74c&#45;cb57&#45;11ee&#45;9270&#45;04cf4b795879 -->
<g id="node1" class="node">
<title>7f15f74c&#45;cb57&#45;11ee&#45;9270&#45;04cf4b795879</title>
<polygon fill="none" stroke="black" points="693,-943.69 581,-943.69 581,-886.19 693,-886.19 693,-943.69"/>
<text text-anchor="middle" x="637" y="-926.39" font-family="Times,serif" font-size="14.00">a9: close_project </text>
<text text-anchor="middle" x="637" y="-909.89" font-family="Times,serif" font-size="14.00"> Type: Core </text>
<text text-anchor="middle" x="637" y="-893.39" font-family="Times,serif" font-size="14.00"> Direction: Core</text>
</g>
<!-- 7f160a66&#45;cb57&#45;11ee&#45;9270&#45;04cf4b795879 -->
<g id="node2" class="node">
<title>7f160a66&#45;cb57&#45;11ee&#45;9270&#45;04cf4b795879</title>
<ellipse fill="none" stroke="black" cx="430" cy="-832.19" rx="50.84" ry="18"/>
<text text-anchor="middle" x="430" y="-827.14" font-family="Times,serif" font-size="14.00">r_2: level2</text>
</g>
<!-- 7f15f74c&#45;cb57&#45;11ee&#45;9270&#45;04cf4b795879&#45;&gt;7f160a66&#45;cb57&#45;11ee&#45;9270&#45;04cf4b795879 -->
<g id="edge1" class="edge">
<title>7f15f74c&#45;cb57&#45;11ee&#45;9270&#45;04cf4b795879&#45;&gt;7f160a66&#45;cb57&#45;11ee&#45;9270&#45;04cf4b795879</title>
<path fill="none" stroke="black" d="M580.71,-891.98C546.93,-878.81 504.62,-862.3 473.44,-850.14"/>
<polygon fill="black" stroke="black" points="474.9,-846.56 464.32,-846.19 472.36,-853.08 474.9,-846.56"/>
</g>
<!-- 7f1643f0&#45;cb57&#45;11ee&#45;9270&#45;04cf4b795879 -->
<g id="node17" class="node">
<title>7f1643f0&#45;cb57&#45;11ee&#45;9270&#45;04cf4b795879</title>
<ellipse fill="none" stroke="black" cx="577" cy="-832.19" rx="50.84" ry="18"/>
<text text-anchor="middle" x="577" y="-827.14" font-family="Times,serif" font-size="14.00">r_4: level2</text>
</g>
<!-- 7f15f74c&#45;cb57&#45;11ee&#45;9270&#45;04cf4b795879&#45;&gt;7f1643f0&#45;cb57&#45;11ee&#45;9270&#45;04cf4b795879 -->
<g id="edge16" class="edge">
<title>7f15f74c&#45;cb57&#45;11ee&#45;9270&#45;04cf4b795879&#45;&gt;7f1643f0&#45;cb57&#45;11ee&#45;9270&#45;04cf4b795879</title>
<path fill="none" stroke="black" d="M616.01,-885.7C609.39,-876.79 602.12,-867.01 595.68,-858.33"/>
<polygon fill="black" stroke="black" points="598.09,-856.7 589.31,-850.76 592.47,-860.88 598.09,-856.7"/>
</g>
<!-- 7f164af8&#45;cb57&#45;11ee&#45;9270&#45;04cf4b795879 -->
<g id="node19" class="node">
<title>7f164af8&#45;cb57&#45;11ee&#45;9270&#45;04cf4b795879</title>
<ellipse fill="none" stroke="black" cx="724" cy="-832.19" rx="50.84" ry="18"/>
<text text-anchor="middle" x="724" y="-827.14" font-family="Times,serif" font-size="14.00">r_3: level3</text>
</g>
<!-- 7f15f74c&#45;cb57&#45;11ee&#45;9270&#45;04cf4b795879&#45;&gt;7f164af8&#45;cb57&#45;11ee&#45;9270&#45;04cf4b795879 -->
<g id="edge18" class="edge">
<title>7f15f74c&#45;cb57&#45;11ee&#45;9270&#45;04cf4b795879&#45;&gt;7f164af8&#45;cb57&#45;11ee&#45;9270&#45;04cf4b795879</title>
<path fill="none" stroke="black" d="M667.43,-885.7C677.61,-876.25 688.85,-865.82 698.6,-856.76"/>
<polygon fill="black" stroke="black" points="700.45,-859.9 705.4,-850.53 695.69,-854.77 700.45,-859.9"/>
</g>
<!-- 7f1651ba&#45;cb57&#45;11ee&#45;9270&#45;04cf4b795879 -->
<g id="node21" class="node">
<title>7f1651ba&#45;cb57&#45;11ee&#45;9270&#45;04cf4b795879</title>
<ellipse fill="none" stroke="black" cx="884" cy="-832.19" rx="50.84" ry="18"/>
<text text-anchor="middle" x="884" y="-827.14" font-family="Times,serif" font-size="14.00">r_5: level3</text>
</g>
<!-- 7f15f74c&#45;cb57&#45;11ee&#45;9270&#45;04cf4b795879&#45;&gt;7f1651ba&#45;cb57&#45;11ee&#45;9270&#45;04cf4b795879 -->
<g id="edge20" class="edge">
<title>7f15f74c&#45;cb57&#45;11ee&#45;9270&#45;04cf4b795879&#45;&gt;7f1651ba&#45;cb57&#45;11ee&#45;9270&#45;04cf4b795879</title>
<path fill="none" stroke="black" d="M693.36,-895.52C736.84,-881.3 796.28,-861.87 837.17,-848.5"/>
<polygon fill="black" stroke="black" points="837.99,-851.59 846.4,-845.15 835.81,-844.94 837.99,-851.59"/>
</g>
<!-- 7f160e94&#45;cb57&#45;11ee&#45;9270&#45;04cf4b795879 -->
<g id="node3" class="node">
<title>7f160e94&#45;cb57&#45;11ee&#45;9270&#45;04cf4b795879</title>
<polygon fill="none" stroke="black" points="467.97,-731.24 428.99,-778.19 351.01,-778.19 312.02,-731.24 351.01,-684.29 428.99,-684.29 467.97,-731.24"/>
<text text-anchor="middle" x="390" y="-742.69" font-family="Times,serif" font-size="14.00">rp_12: level2 </text>
<text text-anchor="middle" x="390" y="-726.19" font-family="Times,serif" font-size="14.00"> close_project </text>
<text text-anchor="middle" x="390" y="-709.69" font-family="Times,serif" font-size="14.00"> cost : 64</text>
</g>
<!-- 7f160a66&#45;cb57&#45;11ee&#45;9270&#45;04cf4b795879&#45;&gt;7f160e94&#45;cb57&#45;11ee&#45;9270&#45;04cf4b795879 -->
<g id="edge2" class="edge">
<title>7f160a66&#45;cb57&#45;11ee&#45;9270&#45;04cf4b795879&#45;&gt;7f160e94&#45;cb57&#45;11ee&#45;9270&#45;04cf4b795879</title>
<path fill="none" stroke="black" d="M423.03,-813.96C420.1,-806.72 416.52,-797.85 412.8,-788.65"/>
<polygon fill="black" stroke="black" points="415.74,-787.57 408.74,-779.61 409.25,-790.19 415.74,-787.57"/>
</g>
<!-- 7f1611fa&#45;cb57&#45;11ee&#45;9270&#45;04cf4b795879 -->
<g id="node4" class="node">
<title>7f1611fa&#45;cb57&#45;11ee&#45;9270&#45;04cf4b795879</title>
<polygon fill="none" stroke="black" points="249.25,-648.29 102.75,-648.29 102.75,-590.79 249.25,-590.79 249.25,-648.29"/>
<text text-anchor="middle" x="176" y="-630.99" font-family="Times,serif" font-size="14.00">r0: four_eyes_principle </text>
<text text-anchor="middle" x="176" y="-614.49" font-family="Times,serif" font-size="14.00"> Type: insert </text>
<text text-anchor="middle" x="176" y="-597.99" font-family="Times,serif" font-size="14.00"> Direction: after</text>
</g>
<!-- 7f160e94&#45;cb57&#45;11ee&#45;9270&#45;04cf4b795879&#45;&gt;7f1611fa&#45;cb57&#45;11ee&#45;9270&#45;04cf4b795879 -->
<g id="edge3" class="edge">
<title>7f160e94&#45;cb57&#45;11ee&#45;9270&#45;04cf4b795879&#45;&gt;7f1611fa&#45;cb57&#45;11ee&#45;9270&#45;04cf4b795879</title>
<path fill="none" stroke="black" d="M335.44,-702.28C306.5,-687.44 270.76,-669.12 240.46,-653.59"/>
<polygon fill="black" stroke="black" points="242.32,-650.1 231.83,-648.65 239.13,-656.33 242.32,-650.1"/>
</g>
<!-- 7f16166e&#45;cb57&#45;11ee&#45;9270&#45;04cf4b795879 -->
<g id="node5" class="node">
<title>7f16166e&#45;cb57&#45;11ee&#45;9270&#45;04cf4b795879</title>
<polygon fill="none" stroke="black" points="376.5,-648.29 267.5,-648.29 267.5,-590.79 376.5,-590.79 376.5,-648.29"/>
<text text-anchor="middle" x="322" y="-630.99" font-family="Times,serif" font-size="14.00">r0: start_process </text>
<text text-anchor="middle" x="322" y="-614.49" font-family="Times,serif" font-size="14.00"> Type: delete </text>
<text text-anchor="middle" x="322" y="-597.99" font-family="Times,serif" font-size="14.00"> Direction: any</text>
</g>
<!-- 7f160e94&#45;cb57&#45;11ee&#45;9270&#45;04cf4b795879&#45;&gt;7f16166e&#45;cb57&#45;11ee&#45;9270&#45;04cf4b795879 -->
<g id="edge4" class="edge">
<title>7f160e94&#45;cb57&#45;11ee&#45;9270&#45;04cf4b795879&#45;&gt;7f16166e&#45;cb57&#45;11ee&#45;9270&#45;04cf4b795879</title>
<path fill="none" stroke="black" d="M361.36,-684.04C355.92,-675.27 350.3,-666.21 345.07,-657.77"/>
<polygon fill="black" stroke="black" points="347.6,-656.2 339.36,-649.55 341.65,-659.89 347.6,-656.2"/>
</g>
<!-- 7f161a4c&#45;cb57&#45;11ee&#45;9270&#45;04cf4b795879 -->
<g id="node6" class="node">
<title>7f161a4c&#45;cb57&#45;11ee&#45;9270&#45;04cf4b795879</title>
<polygon fill="none" stroke="black" points="519,-648.29 395,-648.29 395,-590.79 519,-590.79 519,-648.29"/>
<text text-anchor="middle" x="457" y="-630.99" font-family="Times,serif" font-size="14.00">r0: create_proposal </text>
<text text-anchor="middle" x="457" y="-614.49" font-family="Times,serif" font-size="14.00"> Type: replace </text>
<text text-anchor="middle" x="457" y="-597.99" font-family="Times,serif" font-size="14.00"> Direction: Core</text>
</g>
<!-- 7f160e94&#45;cb57&#45;11ee&#45;9270&#45;04cf4b795879&#45;&gt;7f161a4c&#45;cb57&#45;11ee&#45;9270&#45;04cf4b795879 -->
<g id="edge5" class="edge">
<title>7f160e94&#45;cb57&#45;11ee&#45;9270&#45;04cf4b795879&#45;&gt;7f161a4c&#45;cb57&#45;11ee&#45;9270&#45;04cf4b795879</title>
<path fill="none" stroke="black" d="M418.22,-684.04C423.57,-675.27 429.11,-666.21 434.26,-657.77"/>
<polygon fill="black" stroke="black" points="437.67,-659.91 439.89,-649.55 431.69,-656.26 437.67,-659.91"/>
</g>
<!-- 7f16401c&#45;cb57&#45;11ee&#45;9270&#45;04cf4b795879 -->
<g id="node16" class="node">
<title>7f16401c&#45;cb57&#45;11ee&#45;9270&#45;04cf4b795879</title>
<polygon fill="none" stroke="black" points="670.5,-648.29 537.5,-648.29 537.5,-590.79 670.5,-590.79 670.5,-648.29"/>
<text text-anchor="middle" x="604" y="-630.99" font-family="Times,serif" font-size="14.00">r0: contact_suppliers </text>
<text text-anchor="middle" x="604" y="-614.49" font-family="Times,serif" font-size="14.00"> Type: delete </text>
<text text-anchor="middle" x="604" y="-597.99" font-family="Times,serif" font-size="14.00"> Direction: any</text>
</g>
<!-- 7f160e94&#45;cb57&#45;11ee&#45;9270&#45;04cf4b795879&#45;&gt;7f16401c&#45;cb57&#45;11ee&#45;9270&#45;04cf4b795879 -->
<g id="edge15" class="edge">
<title>7f160e94&#45;cb57&#45;11ee&#45;9270&#45;04cf4b795879&#45;&gt;7f16401c&#45;cb57&#45;11ee&#45;9270&#45;04cf4b795879</title>
<path fill="none" stroke="black" d="M443.74,-701.64C454.72,-695.85 466.22,-689.85 477,-684.29 496.61,-674.2 518.01,-663.38 537.56,-653.57"/>
<polygon fill="black" stroke="black" points="538.91,-656.3 546.29,-648.7 535.78,-650.05 538.91,-656.3"/>
</g>
<!-- 7f162028&#45;cb57&#45;11ee&#45;9270&#45;04cf4b795879 -->
<g id="node7" class="node">
<title>7f162028&#45;cb57&#45;11ee&#45;9270&#45;04cf4b795879</title>
<ellipse fill="none" stroke="black" cx="155" cy="-536.79" rx="50.84" ry="18"/>
<text text-anchor="middle" x="155" y="-531.74" font-family="Times,serif" font-size="14.00">r_2: level2</text>
</g>
<!-- 7f161a4c&#45;cb57&#45;11ee&#45;9270&#45;04cf4b795879&#45;&gt;7f162028&#45;cb57&#45;11ee&#45;9270&#45;04cf4b795879 -->
<g id="edge6" class="edge">
<title>7f161a4c&#45;cb57&#45;11ee&#45;9270&#45;04cf4b795879&#45;&gt;7f162028&#45;cb57&#45;11ee&#45;9270&#45;04cf4b795879</title>
<path fill="none" stroke="black" d="M394.75,-593.93C391.46,-592.83 388.2,-591.77 385,-590.79 325.93,-572.7 256.67,-557.54 209.7,-548.13"/>
<polygon fill="black" stroke="black" points="210.64,-544.55 200.15,-546.04 209.28,-551.42 210.64,-544.55"/>
</g>
<!-- 7f162b36&#45;cb57&#45;11ee&#45;9270&#45;04cf4b795879 -->
<g id="node10" class="node">
<title>7f162b36&#45;cb57&#45;11ee&#45;9270&#45;04cf4b795879</title>
<ellipse fill="none" stroke="black" cx="313" cy="-536.79" rx="50.84" ry="18"/>
<text text-anchor="middle" x="313" y="-531.74" font-family="Times,serif" font-size="14.00">r_4: level2</text>
</g>
<!-- 7f161a4c&#45;cb57&#45;11ee&#45;9270&#45;04cf4b795879&#45;&gt;7f162b36&#45;cb57&#45;11ee&#45;9270&#45;04cf4b795879 -->
<g id="edge9" class="edge">
<title>7f161a4c&#45;cb57&#45;11ee&#45;9270&#45;04cf4b795879&#45;&gt;7f162b36&#45;cb57&#45;11ee&#45;9270&#45;04cf4b795879</title>
<path fill="none" stroke="black" d="M406.63,-590.3C387.47,-579.56 366.06,-567.55 348.55,-557.73"/>
<polygon fill="black" stroke="black" points="350.7,-554.36 340.26,-552.52 347.27,-560.47 350.7,-554.36"/>
</g>
<!-- 7f16322a&#45;cb57&#45;11ee&#45;9270&#45;04cf4b795879 -->
<g id="node12" class="node">
<title>7f16322a&#45;cb57&#45;11ee&#45;9270&#45;04cf4b795879</title>
<ellipse fill="none" stroke="black" cx="462" cy="-536.79" rx="50.84" ry="18"/>
<text text-anchor="middle" x="462" y="-531.74" font-family="Times,serif" font-size="14.00">r_3: level3</text>
</g>
<!-- 7f161a4c&#45;cb57&#45;11ee&#45;9270&#45;04cf4b795879&#45;&gt;7f16322a&#45;cb57&#45;11ee&#45;9270&#45;04cf4b795879 -->
<g id="edge11" class="edge">
<title>7f161a4c&#45;cb57&#45;11ee&#45;9270&#45;04cf4b795879&#45;&gt;7f16322a&#45;cb57&#45;11ee&#45;9270&#45;04cf4b795879</title>
<path fill="none" stroke="black" d="M458.75,-590.3C459.24,-582.36 459.77,-573.72 460.26,-565.79"/>
<polygon fill="black" stroke="black" points="463.82,-566.04 460.94,-555.84 456.83,-565.6 463.82,-566.04"/>
</g>
<!-- 7f1638ec&#45;cb57&#45;11ee&#45;9270&#45;04cf4b795879 -->
<g id="node14" class="node">
<title>7f1638ec&#45;cb57&#45;11ee&#45;9270&#45;04cf4b795879</title>
<ellipse fill="none" stroke="black" cx="639" cy="-536.79" rx="50.84" ry="18"/>
<text text-anchor="middle" x="639" y="-531.74" font-family="Times,serif" font-size="14.00">r_5: level3</text>
</g>
<!-- 7f161a4c&#45;cb57&#45;11ee&#45;9270&#45;04cf4b795879&#45;&gt;7f1638ec&#45;cb57&#45;11ee&#45;9270&#45;04cf4b795879 -->
<g id="edge13" class="edge">
<title>7f161a4c&#45;cb57&#45;11ee&#45;9270&#45;04cf4b795879&#45;&gt;7f1638ec&#45;cb57&#45;11ee&#45;9270&#45;04cf4b795879</title>
<path fill="none" stroke="black" d="M519.38,-590.87C545.55,-579.25 575.24,-566.08 598.5,-555.76"/>
<polygon fill="black" stroke="black" points="599.64,-558.64 607.36,-551.39 596.8,-552.24 599.64,-558.64"/>
</g>
<!-- 7f16242e&#45;cb57&#45;11ee&#45;9270&#45;04cf4b795879 -->
<g id="node8" class="node">
<title>7f16242e&#45;cb57&#45;11ee&#45;9270&#45;04cf4b795879</title>
<polygon fill="none" stroke="black" points="178,-435.85 133.5,-482.79 44.5,-482.79 0,-435.85 44.5,-388.9 133.5,-388.9 178,-435.85"/>
<text text-anchor="middle" x="89" y="-447.3" font-family="Times,serif" font-size="14.00">rp_15: level3 </text>
<text text-anchor="middle" x="89" y="-430.8" font-family="Times,serif" font-size="14.00"> create_proposal </text>
<text text-anchor="middle" x="89" y="-414.3" font-family="Times,serif" font-size="14.00"> cost : 100</text>
</g>
<!-- 7f162028&#45;cb57&#45;11ee&#45;9270&#45;04cf4b795879&#45;&gt;7f16242e&#45;cb57&#45;11ee&#45;9270&#45;04cf4b795879 -->
<g id="edge7" class="edge">
<title>7f162028&#45;cb57&#45;11ee&#45;9270&#45;04cf4b795879&#45;&gt;7f16242e&#45;cb57&#45;11ee&#45;9270&#45;04cf4b795879</title>
<path fill="none" stroke="black" d="M143.8,-519.01C138.73,-511.41 132.42,-501.95 125.91,-492.18"/>
<polygon fill="black" stroke="black" points="128.35,-490.54 119.89,-484.16 122.53,-494.43 128.35,-490.54"/>
</g>
<!-- 7f16276c&#45;cb57&#45;11ee&#45;9270&#45;04cf4b795879 -->
<g id="node9" class="node">
<title>7f16276c&#45;cb57&#45;11ee&#45;9270&#45;04cf4b795879</title>
<polygon fill="none" stroke="black" points="158.5,-352.9 19.5,-352.9 19.5,-295.4 158.5,-295.4 158.5,-352.9"/>
<text text-anchor="middle" x="89" y="-335.6" font-family="Times,serif" font-size="14.00">r0: proposal_approval </text>
<text text-anchor="middle" x="89" y="-319.1" font-family="Times,serif" font-size="14.00"> Type: delete </text>
<text text-anchor="middle" x="89" y="-302.6" font-family="Times,serif" font-size="14.00"> Direction: any</text>
</g>
<!-- 7f16242e&#45;cb57&#45;11ee&#45;9270&#45;04cf4b795879&#45;&gt;7f16276c&#45;cb57&#45;11ee&#45;9270&#45;04cf4b795879 -->
<g id="edge8" class="edge">
<title>7f16242e&#45;cb57&#45;11ee&#45;9270&#45;04cf4b795879&#45;&gt;7f16276c&#45;cb57&#45;11ee&#45;9270&#45;04cf4b795879</title>
<path fill="none" stroke="black" d="M89,-388.64C89,-380.44 89,-371.98 89,-364.01"/>
<polygon fill="black" stroke="black" points="92.5,-364.15 89,-354.15 85.5,-364.15 92.5,-364.15"/>
</g>
<!-- 7f162f0a&#45;cb57&#45;11ee&#45;9270&#45;04cf4b795879 -->
<g id="node11" class="node">
<title>7f162f0a&#45;cb57&#45;11ee&#45;9270&#45;04cf4b795879</title>
<polygon fill="none" stroke="black" points="374,-435.85 329.5,-482.79 240.5,-482.79 196,-435.85 240.5,-388.9 329.5,-388.9 374,-435.85"/>
<text text-anchor="middle" x="285" y="-447.3" font-family="Times,serif" font-size="14.00">rp_15: level2 </text>
<text text-anchor="middle" x="285" y="-430.8" font-family="Times,serif" font-size="14.00"> create_proposal </text>
<text text-anchor="middle" x="285" y="-414.3" font-family="Times,serif" font-size="14.00"> cost : 15</text>
</g>
<!-- 7f162b36&#45;cb57&#45;11ee&#45;9270&#45;04cf4b795879&#45;&gt;7f162f0a&#45;cb57&#45;11ee&#45;9270&#45;04cf4b795879 -->
<g id="edge10" class="edge">
<title>7f162b36&#45;cb57&#45;11ee&#45;9270&#45;04cf4b795879&#45;&gt;7f162f0a&#45;cb57&#45;11ee&#45;9270&#45;04cf4b795879</title>
<path fill="none" stroke="black" d="M308.12,-518.56C306.09,-511.4 303.62,-502.64 301.04,-493.55"/>
<polygon fill="black" stroke="black" points="304.21,-492.88 298.12,-484.21 297.47,-494.79 304.21,-492.88"/>
</g>
<!-- 7f1635ea&#45;cb57&#45;11ee&#45;9270&#45;04cf4b795879 -->
<g id="node13" class="node">
<title>7f1635ea&#45;cb57&#45;11ee&#45;9270&#45;04cf4b795879</title>
<polygon fill="none" stroke="black" points="570,-435.85 525.5,-482.79 436.5,-482.79 392,-435.85 436.5,-388.9 525.5,-388.9 570,-435.85"/>
<text text-anchor="middle" x="481" y="-447.3" font-family="Times,serif" font-size="14.00">rp_15: level3 </text>
<text text-anchor="middle" x="481" y="-430.8" font-family="Times,serif" font-size="14.00"> create_proposal </text>
<text text-anchor="middle" x="481" y="-414.3" font-family="Times,serif" font-size="14.00"> cost : 26</text>
</g>
<!-- 7f16322a&#45;cb57&#45;11ee&#45;9270&#45;04cf4b795879&#45;&gt;7f1635ea&#45;cb57&#45;11ee&#45;9270&#45;04cf4b795879 -->
<g id="edge12" class="edge">
<title>7f16322a&#45;cb57&#45;11ee&#45;9270&#45;04cf4b795879&#45;&gt;7f1635ea&#45;cb57&#45;11ee&#45;9270&#45;04cf4b795879</title>
<path fill="none" stroke="black" d="M465.31,-518.56C466.67,-511.47 468.33,-502.83 470.05,-493.84"/>
<polygon fill="black" stroke="black" points="473.65,-494.7 472.09,-484.21 466.77,-493.38 473.65,-494.7"/>
</g>
<!-- 7f163cfc&#45;cb57&#45;11ee&#45;9270&#45;04cf4b795879 -->
<g id="node15" class="node">
<title>7f163cfc&#45;cb57&#45;11ee&#45;9270&#45;04cf4b795879</title>
<polygon fill="none" stroke="black" points="766,-435.85 721.5,-482.79 632.5,-482.79 588,-435.85 632.5,-388.9 721.5,-388.9 766,-435.85"/>
<text text-anchor="middle" x="677" y="-447.3" font-family="Times,serif" font-size="14.00">rp_15: level3 </text>
<text text-anchor="middle" x="677" y="-430.8" font-family="Times,serif" font-size="14.00"> create_proposal </text>
<text text-anchor="middle" x="677" y="-414.3" font-family="Times,serif" font-size="14.00"> cost : 98</text>
</g>
<!-- 7f1638ec&#45;cb57&#45;11ee&#45;9270&#45;04cf4b795879&#45;&gt;7f163cfc&#45;cb57&#45;11ee&#45;9270&#45;04cf4b795879 -->
<g id="edge14" class="edge">
<title>7f1638ec&#45;cb57&#45;11ee&#45;9270&#45;04cf4b795879&#45;&gt;7f163cfc&#45;cb57&#45;11ee&#45;9270&#45;04cf4b795879</title>
<path fill="none" stroke="black" d="M645.62,-518.56C648.4,-511.32 651.8,-502.45 655.33,-493.26"/>
<polygon fill="black" stroke="black" points="658.87,-494.8 659.19,-484.21 652.34,-492.29 658.87,-494.8"/>
</g>
<!-- 7f1647e2&#45;cb57&#45;11ee&#45;9270&#45;04cf4b795879 -->
<g id="node18" class="node">
<title>7f1647e2&#45;cb57&#45;11ee&#45;9270&#45;04cf4b795879</title>
<polygon fill="none" stroke="black" points="641.97,-731.24 602.99,-778.19 525.01,-778.19 486.02,-731.24 525.01,-684.29 602.99,-684.29 641.97,-731.24"/>
<text text-anchor="middle" x="564" y="-742.69" font-family="Times,serif" font-size="14.00">rp_12: level2 </text>
<text text-anchor="middle" x="564" y="-726.19" font-family="Times,serif" font-size="14.00"> close_project </text>
<text text-anchor="middle" x="564" y="-709.69" font-family="Times,serif" font-size="14.00"> cost : 67</text>
</g>
<!-- 7f1643f0&#45;cb57&#45;11ee&#45;9270&#45;04cf4b795879&#45;&gt;7f1647e2&#45;cb57&#45;11ee&#45;9270&#45;04cf4b795879 -->
<g id="edge17" class="edge">
<title>7f1643f0&#45;cb57&#45;11ee&#45;9270&#45;04cf4b795879&#45;&gt;7f1647e2&#45;cb57&#45;11ee&#45;9270&#45;04cf4b795879</title>
<path fill="none" stroke="black" d="M574.73,-813.96C573.8,-806.87 572.67,-798.23 571.49,-789.24"/>
<polygon fill="black" stroke="black" points="574.86,-789.07 570.09,-779.61 567.92,-789.98 574.86,-789.07"/>
</g>
<!-- 7f164eae&#45;cb57&#45;11ee&#45;9270&#45;04cf4b795879 -->
<g id="node20" class="node">
<title>7f164eae&#45;cb57&#45;11ee&#45;9270&#45;04cf4b795879</title>
<polygon fill="none" stroke="black" points="815.97,-731.24 776.99,-778.19 699.01,-778.19 660.02,-731.24 699.01,-684.29 776.99,-684.29 815.97,-731.24"/>
<text text-anchor="middle" x="738" y="-742.69" font-family="Times,serif" font-size="14.00">rp_19: level3 </text>
<text text-anchor="middle" x="738" y="-726.19" font-family="Times,serif" font-size="14.00"> close_project </text>
<text text-anchor="middle" x="738" y="-709.69" font-family="Times,serif" font-size="14.00"> cost : 56</text>
</g>
<!-- 7f164af8&#45;cb57&#45;11ee&#45;9270&#45;04cf4b795879&#45;&gt;7f164eae&#45;cb57&#45;11ee&#45;9270&#45;04cf4b795879 -->
<g id="edge19" class="edge">
<title>7f164af8&#45;cb57&#45;11ee&#45;9270&#45;04cf4b795879&#45;&gt;7f164eae&#45;cb57&#45;11ee&#45;9270&#45;04cf4b795879</title>
<path fill="none" stroke="black" d="M726.44,-813.96C727.44,-806.87 728.66,-798.23 729.93,-789.24"/>
<polygon fill="black" stroke="black" points="733.5,-790 731.44,-779.61 726.57,-789.02 733.5,-790"/>
</g>
<!-- 7f16557a&#45;cb57&#45;11ee&#45;9270&#45;04cf4b795879 -->
<g id="node22" class="node">
<title>7f16557a&#45;cb57&#45;11ee&#45;9270&#45;04cf4b795879</title>
<polygon fill="none" stroke="black" points="989.97,-731.24 950.99,-778.19 873.01,-778.19 834.02,-731.24 873.01,-684.29 950.99,-684.29 989.97,-731.24"/>
<text text-anchor="middle" x="912" y="-742.69" font-family="Times,serif" font-size="14.00">rp_19: level3 </text>
<text text-anchor="middle" x="912" y="-726.19" font-family="Times,serif" font-size="14.00"> close_project </text>
<text text-anchor="middle" x="912" y="-709.69" font-family="Times,serif" font-size="14.00"> cost : 62</text>
</g>
<!-- 7f1651ba&#45;cb57&#45;11ee&#45;9270&#45;04cf4b795879&#45;&gt;7f16557a&#45;cb57&#45;11ee&#45;9270&#45;04cf4b795879 -->
<g id="edge21" class="edge">
<title>7f1651ba&#45;cb57&#45;11ee&#45;9270&#45;04cf4b795879&#45;&gt;7f16557a&#45;cb57&#45;11ee&#45;9270&#45;04cf4b795879</title>
<path fill="none" stroke="black" d="M888.88,-813.96C890.9,-806.79 893.38,-798.04 895.95,-788.95"/>
<polygon fill="black" stroke="black" points="899.52,-790.19 898.88,-779.61 892.79,-788.28 899.52,-790.19"/>
</g>
<!-- 7f165886&#45;cb57&#45;11ee&#45;9270&#45;04cf4b795879 -->
<g id="node23" class="node">
<title>7f165886&#45;cb57&#45;11ee&#45;9270&#45;04cf4b795879</title>
<polygon fill="none" stroke="black" points="968.37,-648.29 855.62,-648.29 855.62,-590.79 968.37,-590.79 968.37,-648.29"/>
<text text-anchor="middle" x="912" y="-630.99" font-family="Times,serif" font-size="14.00">r0: data_support </text>
<text text-anchor="middle" x="912" y="-614.49" font-family="Times,serif" font-size="14.00"> Type: insert </text>
<text text-anchor="middle" x="912" y="-597.99" font-family="Times,serif" font-size="14.00"> Direction: before</text>
</g>
<!-- 7f16557a&#45;cb57&#45;11ee&#45;9270&#45;04cf4b795879&#45;&gt;7f165886&#45;cb57&#45;11ee&#45;9270&#45;04cf4b795879 -->
<g id="edge22" class="edge">
<title>7f16557a&#45;cb57&#45;11ee&#45;9270&#45;04cf4b795879&#45;&gt;7f165886&#45;cb57&#45;11ee&#45;9270&#45;04cf4b795879</title>
<path fill="none" stroke="black" d="M912,-684.04C912,-675.84 912,-667.38 912,-659.41"/>
<polygon fill="black" stroke="black" points="915.5,-659.55 912,-649.55 908.5,-659.55 915.5,-659.55"/>
</g>
<!-- 7f165ffc&#45;cb57&#45;11ee&#45;9270&#45;04cf4b795879 -->
<g id="node24" class="node">
<title>7f165ffc&#45;cb57&#45;11ee&#45;9270&#45;04cf4b795879</title>
<ellipse fill="none" stroke="black" cx="903" cy="-536.79" rx="50.84" ry="18"/>
<text text-anchor="middle" x="903" y="-531.74" font-family="Times,serif" font-size="14.00">r_2: level2</text>
</g>
<!-- 7f165886&#45;cb57&#45;11ee&#45;9270&#45;04cf4b795879&#45;&gt;7f165ffc&#45;cb57&#45;11ee&#45;9270&#45;04cf4b795879 -->
<g id="edge23" class="edge">
<title>7f165886&#45;cb57&#45;11ee&#45;9270&#45;04cf4b795879&#45;&gt;7f165ffc&#45;cb57&#45;11ee&#45;9270&#45;04cf4b795879</title>
<path fill="none" stroke="black" d="M908.85,-590.3C907.95,-582.26 906.98,-573.52 906.09,-565.51"/>
<polygon fill="black" stroke="black" points="909.48,-565.39 904.9,-555.84 902.53,-566.17 909.48,-565.39"/>
</g>
<!-- 7f168ad6&#45;cb57&#45;11ee&#45;9270&#45;04cf4b795879 -->
<g id="node34" class="node">
<title>7f168ad6&#45;cb57&#45;11ee&#45;9270&#45;04cf4b795879</title>
<ellipse fill="none" stroke="black" cx="1048" cy="-536.79" rx="50.84" ry="18"/>
<text text-anchor="middle" x="1048" y="-531.74" font-family="Times,serif" font-size="14.00">r_4: level2</text>
</g>
<!-- 7f165886&#45;cb57&#45;11ee&#45;9270&#45;04cf4b795879&#45;&gt;7f168ad6&#45;cb57&#45;11ee&#45;9270&#45;04cf4b795879 -->
<g id="edge33" class="edge">
<title>7f165886&#45;cb57&#45;11ee&#45;9270&#45;04cf4b795879&#45;&gt;7f168ad6&#45;cb57&#45;11ee&#45;9270&#45;04cf4b795879</title>
<path fill="none" stroke="black" d="M959.56,-590.3C977.37,-579.73 997.23,-567.94 1013.61,-558.21"/>
<polygon fill="black" stroke="black" points="1015,-560.86 1021.81,-552.75 1011.43,-554.85 1015,-560.86"/>
</g>
<!-- 7f166452&#45;cb57&#45;11ee&#45;9270&#45;04cf4b795879 -->
<g id="node25" class="node">
<title>7f166452&#45;cb57&#45;11ee&#45;9270&#45;04cf4b795879</title>
<polygon fill="none" stroke="black" points="974.14,-435.85 936.07,-482.79 859.93,-482.79 821.86,-435.85 859.93,-388.9 936.07,-388.9 974.14,-435.85"/>
<text text-anchor="middle" x="898" y="-447.3" font-family="Times,serif" font-size="14.00">rp_20: level2 </text>
<text text-anchor="middle" x="898" y="-430.8" font-family="Times,serif" font-size="14.00"> data_support </text>
<text text-anchor="middle" x="898" y="-414.3" font-family="Times,serif" font-size="14.00"> cost : 1</text>
</g>
<!-- 7f165ffc&#45;cb57&#45;11ee&#45;9270&#45;04cf4b795879&#45;&gt;7f166452&#45;cb57&#45;11ee&#45;9270&#45;04cf4b795879 -->
<g id="edge24" class="edge">
<title>7f165ffc&#45;cb57&#45;11ee&#45;9270&#45;04cf4b795879&#45;&gt;7f166452&#45;cb57&#45;11ee&#45;9270&#45;04cf4b795879</title>
<path fill="none" stroke="black" d="M902.13,-518.56C901.77,-511.55 901.34,-503.02 900.89,-494.14"/>
<polygon fill="black" stroke="black" points="904.34,-494.03 900.34,-484.21 897.35,-494.38 904.34,-494.03"/>
</g>
<!-- 7f166786&#45;cb57&#45;11ee&#45;9270&#45;04cf4b795879 -->
<g id="node26" class="node">
<title>7f166786&#45;cb57&#45;11ee&#45;9270&#45;04cf4b795879</title>
<polygon fill="none" stroke="black" points="890.37,-352.9 777.62,-352.9 777.62,-295.4 890.37,-295.4 890.37,-352.9"/>
<text text-anchor="middle" x="834" y="-335.6" font-family="Times,serif" font-size="14.00">r0: inform_head </text>
<text text-anchor="middle" x="834" y="-319.1" font-family="Times,serif" font-size="14.00"> Type: insert </text>
<text text-anchor="middle" x="834" y="-302.6" font-family="Times,serif" font-size="14.00"> Direction: before</text>
</g>
<!-- 7f166452&#45;cb57&#45;11ee&#45;9270&#45;04cf4b795879&#45;&gt;7f166786&#45;cb57&#45;11ee&#45;9270&#45;04cf4b795879 -->
<g id="edge25" class="edge">
<title>7f166452&#45;cb57&#45;11ee&#45;9270&#45;04cf4b795879&#45;&gt;7f166786&#45;cb57&#45;11ee&#45;9270&#45;04cf4b795879</title>
<path fill="none" stroke="black" d="M871.04,-388.64C865.98,-379.97 860.75,-371.01 855.87,-362.64"/>
<polygon fill="black" stroke="black" points="858.4,-361.03 850.34,-354.15 852.35,-364.55 858.4,-361.03"/>
</g>
<!-- 7f168630&#45;cb57&#45;11ee&#45;9270&#45;04cf4b795879 -->
<g id="node33" class="node">
<title>7f168630&#45;cb57&#45;11ee&#45;9270&#45;04cf4b795879</title>
<polygon fill="none" stroke="black" points="1015.37,-352.9 908.62,-352.9 908.62,-295.4 1015.37,-295.4 1015.37,-352.9"/>
<text text-anchor="middle" x="962" y="-335.6" font-family="Times,serif" font-size="14.00">r0: design_offer </text>
<text text-anchor="middle" x="962" y="-319.1" font-family="Times,serif" font-size="14.00"> Type: delete </text>
<text text-anchor="middle" x="962" y="-302.6" font-family="Times,serif" font-size="14.00"> Direction: any</text>
</g>
<!-- 7f166452&#45;cb57&#45;11ee&#45;9270&#45;04cf4b795879&#45;&gt;7f168630&#45;cb57&#45;11ee&#45;9270&#45;04cf4b795879 -->
<g id="edge32" class="edge">
<title>7f166452&#45;cb57&#45;11ee&#45;9270&#45;04cf4b795879&#45;&gt;7f168630&#45;cb57&#45;11ee&#45;9270&#45;04cf4b795879</title>
<path fill="none" stroke="black" d="M924.95,-388.64C930.01,-379.97 935.24,-371.01 940.12,-362.64"/>
<polygon fill="black" stroke="black" points="943.64,-364.55 945.66,-354.15 937.6,-361.03 943.64,-364.55"/>
</g>
<!-- 7f166dc6&#45;cb57&#45;11ee&#45;9270&#45;04cf4b795879 -->
<g id="node27" class="node">
<title>7f166dc6&#45;cb57&#45;11ee&#45;9270&#45;04cf4b795879</title>
<ellipse fill="none" stroke="black" cx="768" cy="-241.4" rx="50.84" ry="18"/>
<text text-anchor="middle" x="768" y="-236.35" font-family="Times,serif" font-size="14.00">r_2: level2</text>
</g>
<!-- 7f166786&#45;cb57&#45;11ee&#45;9270&#45;04cf4b795879&#45;&gt;7f166dc6&#45;cb57&#45;11ee&#45;9270&#45;04cf4b795879 -->
<g id="edge26" class="edge">
<title>7f166786&#45;cb57&#45;11ee&#45;9270&#45;04cf4b795879&#45;&gt;7f166dc6&#45;cb57&#45;11ee&#45;9270&#45;04cf4b795879</title>
<path fill="none" stroke="black" d="M810.91,-294.9C803.55,-285.9 795.47,-276.01 788.32,-267.26"/>
<polygon fill="black" stroke="black" points="790.58,-265.5 781.54,-259.97 785.16,-269.93 790.58,-265.5"/>
</g>
<!-- 7f167582&#45;cb57&#45;11ee&#45;9270&#45;04cf4b795879 -->
<g id="node29" class="node">
<title>7f167582&#45;cb57&#45;11ee&#45;9270&#45;04cf4b795879</title>
<ellipse fill="none" stroke="black" cx="900" cy="-241.4" rx="50.84" ry="18"/>
<text text-anchor="middle" x="900" y="-236.35" font-family="Times,serif" font-size="14.00">r_4: level2</text>
</g>
<!-- 7f166786&#45;cb57&#45;11ee&#45;9270&#45;04cf4b795879&#45;&gt;7f167582&#45;cb57&#45;11ee&#45;9270&#45;04cf4b795879 -->
<g id="edge28" class="edge">
<title>7f166786&#45;cb57&#45;11ee&#45;9270&#45;04cf4b795879&#45;&gt;7f167582&#45;cb57&#45;11ee&#45;9270&#45;04cf4b795879</title>
<path fill="none" stroke="black" d="M857.08,-294.9C864.44,-285.9 872.53,-276.01 879.68,-267.26"/>
<polygon fill="black" stroke="black" points="882.83,-269.93 886.45,-259.97 877.41,-265.5 882.83,-269.93"/>
</g>
<!-- 7f1671fe&#45;cb57&#45;11ee&#45;9270&#45;04cf4b795879 -->
<g id="node28" class="node">
<title>7f1671fe&#45;cb57&#45;11ee&#45;9270&#45;04cf4b795879</title>
<polygon fill="none" stroke="black" points="819.14,-140.45 781.07,-187.4 704.93,-187.4 666.86,-140.45 704.93,-93.5 781.07,-93.5 819.14,-140.45"/>
<text text-anchor="middle" x="743" y="-151.9" font-family="Times,serif" font-size="14.00">rp_22: level2 </text>
<text text-anchor="middle" x="743" y="-135.4" font-family="Times,serif" font-size="14.00"> inform_head </text>
<text text-anchor="middle" x="743" y="-118.9" font-family="Times,serif" font-size="14.00"> cost : 11</text>
</g>
<!-- 7f166dc6&#45;cb57&#45;11ee&#45;9270&#45;04cf4b795879&#45;&gt;7f1671fe&#45;cb57&#45;11ee&#45;9270&#45;04cf4b795879 -->
<g id="edge27" class="edge">
<title>7f166dc6&#45;cb57&#45;11ee&#45;9270&#45;04cf4b795879&#45;&gt;7f1671fe&#45;cb57&#45;11ee&#45;9270&#45;04cf4b795879</title>
<path fill="none" stroke="black" d="M763.64,-223.16C761.85,-216.08 759.67,-207.43 757.4,-198.45"/>
<polygon fill="black" stroke="black" points="760.56,-197.66 754.71,-188.82 753.77,-199.37 760.56,-197.66"/>
</g>
<!-- 7f16796a&#45;cb57&#45;11ee&#45;9270&#45;04cf4b795879 -->
<g id="node30" class="node">
<title>7f16796a&#45;cb57&#45;11ee&#45;9270&#45;04cf4b795879</title>
<polygon fill="none" stroke="black" points="989.14,-140.45 951.07,-187.4 874.93,-187.4 836.86,-140.45 874.93,-93.5 951.07,-93.5 989.14,-140.45"/>
<text text-anchor="middle" x="913" y="-151.9" font-family="Times,serif" font-size="14.00">rp_22: level2 </text>
<text text-anchor="middle" x="913" y="-135.4" font-family="Times,serif" font-size="14.00"> inform_head </text>
<text text-anchor="middle" x="913" y="-118.9" font-family="Times,serif" font-size="14.00"> cost : 92</text>
</g>
<!-- 7f167582&#45;cb57&#45;11ee&#45;9270&#45;04cf4b795879&#45;&gt;7f16796a&#45;cb57&#45;11ee&#45;9270&#45;04cf4b795879 -->
<g id="edge29" class="edge">
<title>7f167582&#45;cb57&#45;11ee&#45;9270&#45;04cf4b795879&#45;&gt;7f16796a&#45;cb57&#45;11ee&#45;9270&#45;04cf4b795879</title>
<path fill="none" stroke="black" d="M902.26,-223.16C903.19,-216.08 904.33,-207.43 905.51,-198.45"/>
<polygon fill="black" stroke="black" points="909.07,-199.19 906.91,-188.82 902.13,-198.28 909.07,-199.19"/>
</g>
<!-- 7f167cbc&#45;cb57&#45;11ee&#45;9270&#45;04cf4b795879 -->
<g id="node31" class="node">
<title>7f167cbc&#45;cb57&#45;11ee&#45;9270&#45;04cf4b795879</title>
<polygon fill="none" stroke="black" points="905.25,-57.5 758.75,-57.5 758.75,0 905.25,0 905.25,-57.5"/>
<text text-anchor="middle" x="832" y="-40.2" font-family="Times,serif" font-size="14.00">r0: four_eyes_principle </text>
<text text-anchor="middle" x="832" y="-23.7" font-family="Times,serif" font-size="14.00"> Type: insert </text>
<text text-anchor="middle" x="832" y="-7.2" font-family="Times,serif" font-size="14.00"> Direction: parallel</text>
</g>
<!-- 7f16796a&#45;cb57&#45;11ee&#45;9270&#45;04cf4b795879&#45;&gt;7f167cbc&#45;cb57&#45;11ee&#45;9270&#45;04cf4b795879 -->
<g id="edge30" class="edge">
<title>7f16796a&#45;cb57&#45;11ee&#45;9270&#45;04cf4b795879&#45;&gt;7f167cbc&#45;cb57&#45;11ee&#45;9270&#45;04cf4b795879</title>
<path fill="none" stroke="black" d="M878.88,-93.24C872.27,-84.29 865.43,-75.02 859.08,-66.43"/>
<polygon fill="black" stroke="black" points="861.43,-64.72 852.68,-58.75 855.8,-68.88 861.43,-64.72"/>
</g>
<!-- 7f16813a&#45;cb57&#45;11ee&#45;9270&#45;04cf4b795879 -->
<g id="node32" class="node">
<title>7f16813a&#45;cb57&#45;11ee&#45;9270&#45;04cf4b795879</title>
<polygon fill="none" stroke="black" points="1064.62,-57.5 923.37,-57.5 923.37,0 1064.62,0 1064.62,-57.5"/>
<text text-anchor="middle" x="994" y="-40.2" font-family="Times,serif" font-size="14.00">r0: head_confirmation </text>
<text text-anchor="middle" x="994" y="-23.7" font-family="Times,serif" font-size="14.00"> Type: replace </text>
<text text-anchor="middle" x="994" y="-7.2" font-family="Times,serif" font-size="14.00"> Direction: Core</text>
</g>
<!-- 7f16796a&#45;cb57&#45;11ee&#45;9270&#45;04cf4b795879&#45;&gt;7f16813a&#45;cb57&#45;11ee&#45;9270&#45;04cf4b795879 -->
<g id="edge31" class="edge">
<title>7f16796a&#45;cb57&#45;11ee&#45;9270&#45;04cf4b795879&#45;&gt;7f16813a&#45;cb57&#45;11ee&#45;9270&#45;04cf4b795879</title>
<path fill="none" stroke="black" d="M947.11,-93.24C953.73,-84.29 960.57,-75.02 966.92,-66.43"/>
<polygon fill="black" stroke="black" points="970.2,-68.88 973.32,-58.75 964.56,-64.72 970.2,-68.88"/>
</g>
<!-- 7f168ec8&#45;cb57&#45;11ee&#45;9270&#45;04cf4b795879 -->
<g id="node35" class="node">
<title>7f168ec8&#45;cb57&#45;11ee&#45;9270&#45;04cf4b795879</title>
<polygon fill="none" stroke="black" points="1144.14,-435.85 1106.07,-482.79 1029.93,-482.79 991.86,-435.85 1029.93,-388.9 1106.07,-388.9 1144.14,-435.85"/>
<text text-anchor="middle" x="1068" y="-447.3" font-family="Times,serif" font-size="14.00">rp_20: level2 </text>
<text text-anchor="middle" x="1068" y="-430.8" font-family="Times,serif" font-size="14.00"> data_support </text>
<text text-anchor="middle" x="1068" y="-414.3" font-family="Times,serif" font-size="14.00"> cost : 24</text>
</g>
<!-- 7f168ad6&#45;cb57&#45;11ee&#45;9270&#45;04cf4b795879&#45;&gt;7f168ec8&#45;cb57&#45;11ee&#45;9270&#45;04cf4b795879 -->
<g id="edge34" class="edge">
<title>7f168ad6&#45;cb57&#45;11ee&#45;9270&#45;04cf4b795879&#45;&gt;7f168ec8&#45;cb57&#45;11ee&#45;9270&#45;04cf4b795879</title>
<path fill="none" stroke="black" d="M1051.48,-518.56C1052.91,-511.47 1054.66,-502.83 1056.48,-493.84"/>
<polygon fill="black" stroke="black" points="1060.08,-494.71 1058.63,-484.21 1053.21,-493.32 1060.08,-494.71"/>
</g>
</g>
</svg>
