<?xml version="1.0" encoding="UTF-8" standalone="no"?>
<!DOCTYPE svg PUBLIC "-//W3C//DTD SVG 1.1//EN"
 "http://www.w3.org/Graphics/SVG/1.1/DTD/svg11.dtd">
<!-- Generated by graphviz version 7.1.0 (0)
 -->
<!-- Title: CallTree Pages: 1 -->
<svg width="1028pt" height="256pt"
 viewBox="0.00 0.00 1028.13 255.55" xmlns="http://www.w3.org/2000/svg" xmlns:xlink="http://www.w3.org/1999/xlink">
<g id="graph0" class="graph" transform="scale(1 1) rotate(0) translate(4 251.55)">
<title>CallTree</title>
<polygon fill="white" stroke="none" points="-4,4 -4,-251.55 1024.13,-251.55 1024.13,4 -4,4"/>
<!-- f9ee8db4&#45;c696&#45;11ee&#45;a4c0&#45;ac1a3ddd05c7 -->
<g id="node1" class="node">
<title>f9ee8db4&#45;c696&#45;11ee&#45;a4c0&#45;ac1a3ddd05c7</title>
<polygon fill="none" stroke="black" points="558.07,-247.55 447.07,-247.55 447.07,-194.55 558.07,-194.55 558.07,-247.55"/>
<text text-anchor="middle" x="502.57" y="-232.35" font-family="Times,serif" font-size="14.00">a1: start_process </text>
<text text-anchor="middle" x="502.57" y="-217.35" font-family="Times,serif" font-size="14.00"> Type: Core </text>
<text text-anchor="middle" x="502.57" y="-202.35" font-family="Times,serif" font-size="14.00"> Direction: Core</text>
</g>
<!-- f9ee9340&#45;c696&#45;11ee&#45;a4c0&#45;ac1a3ddd05c7 -->
<g id="node2" class="node">
<title>f9ee9340&#45;c696&#45;11ee&#45;a4c0&#45;ac1a3ddd05c7</title>
<ellipse fill="none" stroke="black" cx="106.57" cy="-140.55" rx="48.99" ry="18"/>
<text text-anchor="middle" x="106.57" y="-136.85" font-family="Times,serif" font-size="14.00">r_1: level1</text>
</g>
<!-- f9ee8db4&#45;c696&#45;11ee&#45;a4c0&#45;ac1a3ddd05c7&#45;&gt;f9ee9340&#45;c696&#45;11ee&#45;a4c0&#45;ac1a3ddd05c7 -->
<g id="edge1" class="edge">
<title>f9ee8db4&#45;c696&#45;11ee&#45;a4c0&#45;ac1a3ddd05c7&#45;&gt;f9ee9340&#45;c696&#45;11ee&#45;a4c0&#45;ac1a3ddd05c7</title>
<path fill="none" stroke="black" d="M446.67,-208.97C370.52,-193.87 235.11,-167.03 160.17,-152.18"/>
<polygon fill="black" stroke="black" points="161.1,-148.79 150.61,-150.28 159.74,-155.66 161.1,-148.79"/>
</g>
<!-- f9ee9638&#45;c696&#45;11ee&#45;a4c0&#45;ac1a3ddd05c7 -->
<g id="node4" class="node">
<title>f9ee9638&#45;c696&#45;11ee&#45;a4c0&#45;ac1a3ddd05c7</title>
<ellipse fill="none" stroke="black" cx="279.57" cy="-140.55" rx="48.99" ry="18"/>
<text text-anchor="middle" x="279.57" y="-136.85" font-family="Times,serif" font-size="14.00">r_6: level1</text>
</g>
<!-- f9ee8db4&#45;c696&#45;11ee&#45;a4c0&#45;ac1a3ddd05c7&#45;&gt;f9ee9638&#45;c696&#45;11ee&#45;a4c0&#45;ac1a3ddd05c7 -->
<g id="edge3" class="edge">
<title>f9ee8db4&#45;c696&#45;11ee&#45;a4c0&#45;ac1a3ddd05c7&#45;&gt;f9ee9638&#45;c696&#45;11ee&#45;a4c0&#45;ac1a3ddd05c7</title>
<path fill="none" stroke="black" d="M446.58,-200.34C408.82,-187.05 359.64,-169.74 324.45,-157.35"/>
<polygon fill="black" stroke="black" points="326.03,-154.19 315.43,-154.17 323.7,-160.8 326.03,-154.19"/>
</g>
<!-- f9ee9854&#45;c696&#45;11ee&#45;a4c0&#45;ac1a3ddd05c7 -->
<g id="node6" class="node">
<title>f9ee9854&#45;c696&#45;11ee&#45;a4c0&#45;ac1a3ddd05c7</title>
<ellipse fill="none" stroke="black" cx="434.57" cy="-140.55" rx="48.99" ry="18"/>
<text text-anchor="middle" x="434.57" y="-136.85" font-family="Times,serif" font-size="14.00">r_2: level2</text>
</g>
<!-- f9ee8db4&#45;c696&#45;11ee&#45;a4c0&#45;ac1a3ddd05c7&#45;&gt;f9ee9854&#45;c696&#45;11ee&#45;a4c0&#45;ac1a3ddd05c7 -->
<g id="edge5" class="edge">
<title>f9ee8db4&#45;c696&#45;11ee&#45;a4c0&#45;ac1a3ddd05c7&#45;&gt;f9ee9854&#45;c696&#45;11ee&#45;a4c0&#45;ac1a3ddd05c7</title>
<path fill="none" stroke="black" d="M480.3,-194.34C472.52,-185.36 463.79,-175.29 456.07,-166.37"/>
<polygon fill="black" stroke="black" points="458.94,-164.34 449.75,-159.07 453.65,-168.92 458.94,-164.34"/>
</g>
<!-- f9ee9a70&#45;c696&#45;11ee&#45;a4c0&#45;ac1a3ddd05c7 -->
<g id="node8" class="node">
<title>f9ee9a70&#45;c696&#45;11ee&#45;a4c0&#45;ac1a3ddd05c7</title>
<ellipse fill="none" stroke="black" cx="571.57" cy="-140.55" rx="48.99" ry="18"/>
<text text-anchor="middle" x="571.57" y="-136.85" font-family="Times,serif" font-size="14.00">r_4: level2</text>
</g>
<!-- f9ee8db4&#45;c696&#45;11ee&#45;a4c0&#45;ac1a3ddd05c7&#45;&gt;f9ee9a70&#45;c696&#45;11ee&#45;a4c0&#45;ac1a3ddd05c7 -->
<g id="edge7" class="edge">
<title>f9ee8db4&#45;c696&#45;11ee&#45;a4c0&#45;ac1a3ddd05c7&#45;&gt;f9ee9a70&#45;c696&#45;11ee&#45;a4c0&#45;ac1a3ddd05c7</title>
<path fill="none" stroke="black" d="M525.16,-194.34C533.06,-185.36 541.91,-175.29 549.75,-166.37"/>
<polygon fill="black" stroke="black" points="552.2,-168.89 556.17,-159.06 546.94,-164.26 552.2,-168.89"/>
</g>
<!-- f9ee9c96&#45;c696&#45;11ee&#45;a4c0&#45;ac1a3ddd05c7 -->
<g id="node10" class="node">
<title>f9ee9c96&#45;c696&#45;11ee&#45;a4c0&#45;ac1a3ddd05c7</title>
<ellipse fill="none" stroke="black" cx="729.57" cy="-140.55" rx="48.99" ry="18"/>
<text text-anchor="middle" x="729.57" y="-136.85" font-family="Times,serif" font-size="14.00">r_3: level3</text>
</g>
<!-- f9ee8db4&#45;c696&#45;11ee&#45;a4c0&#45;ac1a3ddd05c7&#45;&gt;f9ee9c96&#45;c696&#45;11ee&#45;a4c0&#45;ac1a3ddd05c7 -->
<g id="edge9" class="edge">
<title>f9ee8db4&#45;c696&#45;11ee&#45;a4c0&#45;ac1a3ddd05c7&#45;&gt;f9ee9c96&#45;c696&#45;11ee&#45;a4c0&#45;ac1a3ddd05c7</title>
<path fill="none" stroke="black" d="M558.39,-200.74C597.05,-187.37 647.88,-169.8 684.08,-157.28"/>
<polygon fill="black" stroke="black" points="685.08,-160.64 693.39,-154.06 682.79,-154.02 685.08,-160.64"/>
</g>
<!-- f9ee9e76&#45;c696&#45;11ee&#45;a4c0&#45;ac1a3ddd05c7 -->
<g id="node12" class="node">
<title>f9ee9e76&#45;c696&#45;11ee&#45;a4c0&#45;ac1a3ddd05c7</title>
<ellipse fill="none" stroke="black" cx="931.57" cy="-140.55" rx="48.99" ry="18"/>
<text text-anchor="middle" x="931.57" y="-136.85" font-family="Times,serif" font-size="14.00">r_5: level3</text>
</g>
<!-- f9ee8db4&#45;c696&#45;11ee&#45;a4c0&#45;ac1a3ddd05c7&#45;&gt;f9ee9e76&#45;c696&#45;11ee&#45;a4c0&#45;ac1a3ddd05c7 -->
<g id="edge11" class="edge">
<title>f9ee8db4&#45;c696&#45;11ee&#45;a4c0&#45;ac1a3ddd05c7&#45;&gt;f9ee9e76&#45;c696&#45;11ee&#45;a4c0&#45;ac1a3ddd05c7</title>
<path fill="none" stroke="black" d="M558.21,-209.87C640.84,-194.75 795.02,-166.53 877.01,-151.53"/>
<polygon fill="black" stroke="black" points="877.64,-154.98 886.84,-149.73 876.38,-148.09 877.64,-154.98"/>
</g>
<!-- f9ee94c6&#45;c696&#45;11ee&#45;a4c0&#45;ac1a3ddd05c7 -->
<g id="node3" class="node">
<title>f9ee94c6&#45;c696&#45;11ee&#45;a4c0&#45;ac1a3ddd05c7</title>
<polygon fill="none" stroke="black" points="155.2,-43.27 116.38,-86.32 38.75,-86.32 -0.07,-43.27 38.75,-0.22 116.38,-0.22 155.2,-43.27"/>
<text text-anchor="middle" x="77.57" y="-54.57" font-family="Times,serif" font-size="14.00">rp_1: level1 </text>
<text text-anchor="middle" x="77.57" y="-39.57" font-family="Times,serif" font-size="14.00"> start_process </text>
<text text-anchor="middle" x="77.57" y="-24.57" font-family="Times,serif" font-size="14.00"> cost : 10</text>
</g>
<!-- f9ee9340&#45;c696&#45;11ee&#45;a4c0&#45;ac1a3ddd05c7&#45;&gt;f9ee94c6&#45;c696&#45;11ee&#45;a4c0&#45;ac1a3ddd05c7 -->
<g id="edge2" class="edge">
<title>f9ee9340&#45;c696&#45;11ee&#45;a4c0&#45;ac1a3ddd05c7&#45;&gt;f9ee94c6&#45;c696&#45;11ee&#45;a4c0&#45;ac1a3ddd05c7</title>
<path fill="none" stroke="black" d="M101.38,-122.52C99.18,-115.28 96.48,-106.42 93.7,-97.29"/>
<polygon fill="black" stroke="black" points="97.13,-96.52 90.87,-87.97 90.43,-98.56 97.13,-96.52"/>
</g>
<!-- f9ee976e&#45;c696&#45;11ee&#45;a4c0&#45;ac1a3ddd05c7 -->
<g id="node5" class="node">
<title>f9ee976e&#45;c696&#45;11ee&#45;a4c0&#45;ac1a3ddd05c7</title>
<polygon fill="none" stroke="black" points="328.2,-43.27 289.38,-86.32 211.75,-86.32 172.93,-43.27 211.75,-0.22 289.38,-0.22 328.2,-43.27"/>
<text text-anchor="middle" x="250.57" y="-54.57" font-family="Times,serif" font-size="14.00">rp_1: level1 </text>
<text text-anchor="middle" x="250.57" y="-39.57" font-family="Times,serif" font-size="14.00"> start_process </text>
<text text-anchor="middle" x="250.57" y="-24.57" font-family="Times,serif" font-size="14.00"> cost : 10</text>
</g>
<!-- f9ee9638&#45;c696&#45;11ee&#45;a4c0&#45;ac1a3ddd05c7&#45;&gt;f9ee976e&#45;c696&#45;11ee&#45;a4c0&#45;ac1a3ddd05c7 -->
<g id="edge4" class="edge">
<title>f9ee9638&#45;c696&#45;11ee&#45;a4c0&#45;ac1a3ddd05c7&#45;&gt;f9ee976e&#45;c696&#45;11ee&#45;a4c0&#45;ac1a3ddd05c7</title>
<path fill="none" stroke="black" d="M274.38,-122.52C272.18,-115.28 269.48,-106.42 266.7,-97.29"/>
<polygon fill="black" stroke="black" points="270.13,-96.52 263.87,-87.97 263.43,-98.56 270.13,-96.52"/>
</g>
<!-- f9ee9980&#45;c696&#45;11ee&#45;a4c0&#45;ac1a3ddd05c7 -->
<g id="node7" class="node">
<title>f9ee9980&#45;c696&#45;11ee&#45;a4c0&#45;ac1a3ddd05c7</title>
<polygon fill="none" stroke="black" points="501.2,-43.27 462.38,-86.32 384.75,-86.32 345.93,-43.27 384.75,-0.22 462.38,-0.22 501.2,-43.27"/>
<text text-anchor="middle" x="423.57" y="-54.57" font-family="Times,serif" font-size="14.00">rp_6: level2 </text>
<text text-anchor="middle" x="423.57" y="-39.57" font-family="Times,serif" font-size="14.00"> start_process </text>
<text text-anchor="middle" x="423.57" y="-24.57" font-family="Times,serif" font-size="14.00"> cost : 15</text>
</g>
<!-- f9ee9854&#45;c696&#45;11ee&#45;a4c0&#45;ac1a3ddd05c7&#45;&gt;f9ee9980&#45;c696&#45;11ee&#45;a4c0&#45;ac1a3ddd05c7 -->
<g id="edge6" class="edge">
<title>f9ee9854&#45;c696&#45;11ee&#45;a4c0&#45;ac1a3ddd05c7&#45;&gt;f9ee9980&#45;c696&#45;11ee&#45;a4c0&#45;ac1a3ddd05c7</title>
<path fill="none" stroke="black" d="M432.55,-122.07C431.74,-115.05 430.76,-106.54 429.74,-97.75"/>
<polygon fill="black" stroke="black" points="433.25,-97.61 428.63,-88.08 426.3,-98.42 433.25,-97.61"/>
</g>
<!-- f9ee9b88&#45;c696&#45;11ee&#45;a4c0&#45;ac1a3ddd05c7 -->
<g id="node9" class="node">
<title>f9ee9b88&#45;c696&#45;11ee&#45;a4c0&#45;ac1a3ddd05c7</title>
<polygon fill="none" stroke="black" points="674.2,-43.27 635.38,-86.32 557.75,-86.32 518.93,-43.27 557.75,-0.22 635.38,-0.22 674.2,-43.27"/>
<text text-anchor="middle" x="596.57" y="-54.57" font-family="Times,serif" font-size="14.00">rp_6: level2 </text>
<text text-anchor="middle" x="596.57" y="-39.57" font-family="Times,serif" font-size="14.00"> start_process </text>
<text text-anchor="middle" x="596.57" y="-24.57" font-family="Times,serif" font-size="14.00"> cost : 15</text>
</g>
<!-- f9ee9a70&#45;c696&#45;11ee&#45;a4c0&#45;ac1a3ddd05c7&#45;&gt;f9ee9b88&#45;c696&#45;11ee&#45;a4c0&#45;ac1a3ddd05c7 -->
<g id="edge8" class="edge">
<title>f9ee9a70&#45;c696&#45;11ee&#45;a4c0&#45;ac1a3ddd05c7&#45;&gt;f9ee9b88&#45;c696&#45;11ee&#45;a4c0&#45;ac1a3ddd05c7</title>
<path fill="none" stroke="black" d="M576.04,-122.52C577.91,-115.36 580.21,-106.61 582.58,-97.58"/>
<polygon fill="black" stroke="black" points="585.94,-98.55 585.1,-87.99 579.17,-96.77 585.94,-98.55"/>
</g>
<!-- f9ee9da4&#45;c696&#45;11ee&#45;a4c0&#45;ac1a3ddd05c7 -->
<g id="node11" class="node">
<title>f9ee9da4&#45;c696&#45;11ee&#45;a4c0&#45;ac1a3ddd05c7</title>
<polygon fill="none" stroke="black" points="847.2,-43.27 808.38,-86.32 730.75,-86.32 691.93,-43.27 730.75,-0.22 808.38,-0.22 847.2,-43.27"/>
<text text-anchor="middle" x="769.57" y="-54.57" font-family="Times,serif" font-size="14.00">rp_13: level3 </text>
<text text-anchor="middle" x="769.57" y="-39.57" font-family="Times,serif" font-size="14.00"> start_process </text>
<text text-anchor="middle" x="769.57" y="-24.57" font-family="Times,serif" font-size="14.00"> cost : 10</text>
</g>
<!-- f9ee9c96&#45;c696&#45;11ee&#45;a4c0&#45;ac1a3ddd05c7&#45;&gt;f9ee9da4&#45;c696&#45;11ee&#45;a4c0&#45;ac1a3ddd05c7 -->
<g id="edge10" class="edge">
<title>f9ee9c96&#45;c696&#45;11ee&#45;a4c0&#45;ac1a3ddd05c7&#45;&gt;f9ee9da4&#45;c696&#45;11ee&#45;a4c0&#45;ac1a3ddd05c7</title>
<path fill="none" stroke="black" d="M736.72,-122.52C739.79,-115.2 743.56,-106.23 747.44,-96.99"/>
<polygon fill="black" stroke="black" points="750.6,-98.5 751.24,-87.92 744.14,-95.79 750.6,-98.5"/>
</g>
<!-- f9ee9f84&#45;c696&#45;11ee&#45;a4c0&#45;ac1a3ddd05c7 -->
<g id="node13" class="node">
<title>f9ee9f84&#45;c696&#45;11ee&#45;a4c0&#45;ac1a3ddd05c7</title>
<polygon fill="none" stroke="black" points="1020.2,-43.27 981.38,-86.32 903.75,-86.32 864.93,-43.27 903.75,-0.22 981.38,-0.22 1020.2,-43.27"/>
<text text-anchor="middle" x="942.57" y="-54.57" font-family="Times,serif" font-size="14.00">rp_13: level3 </text>
<text text-anchor="middle" x="942.57" y="-39.57" font-family="Times,serif" font-size="14.00"> start_process </text>
<text text-anchor="middle" x="942.57" y="-24.57" font-family="Times,serif" font-size="14.00"> cost : 10</text>
</g>
<!-- f9ee9e76&#45;c696&#45;11ee&#45;a4c0&#45;ac1a3ddd05c7&#45;&gt;f9ee9f84&#45;c696&#45;11ee&#45;a4c0&#45;ac1a3ddd05c7 -->
<g id="edge12" class="edge">
<title>f9ee9e76&#45;c696&#45;11ee&#45;a4c0&#45;ac1a3ddd05c7&#45;&gt;f9ee9f84&#45;c696&#45;11ee&#45;a4c0&#45;ac1a3ddd05c7</title>
<path fill="none" stroke="black" d="M933.58,-122.07C934.4,-115.05 935.38,-106.54 936.39,-97.75"/>
<polygon fill="black" stroke="black" points="939.84,-98.42 937.51,-88.08 932.89,-97.61 939.84,-98.42"/>
</g>
</g>
</svg>
