<?xml version="1.0" encoding="UTF-8" standalone="no"?>
<!DOCTYPE svg PUBLIC "-//W3C//DTD SVG 1.1//EN"
 "http://www.w3.org/Graphics/SVG/1.1/DTD/svg11.dtd">
<!-- Generated by graphviz version 7.1.0 (0)
 -->
<!-- Title: CallTree Pages: 1 -->
<svg width="434pt" height="256pt"
 viewBox="0.00 0.00 434.12 255.55" xmlns="http://www.w3.org/2000/svg" xmlns:xlink="http://www.w3.org/1999/xlink">
<g id="graph0" class="graph" transform="scale(1 1) rotate(0) translate(4 251.55)">
<title>CallTree</title>
<polygon fill="white" stroke="none" points="-4,4 -4,-251.55 430.12,-251.55 430.12,4 -4,4"/>
<!-- f9fb68d6&#45;c696&#45;11ee&#45;a4c0&#45;ac1a3ddd05c7 -->
<g id="node1" class="node">
<title>f9fb68d6&#45;c696&#45;11ee&#45;a4c0&#45;ac1a3ddd05c7</title>
<polygon fill="none" stroke="black" points="287.06,-247.55 139.06,-247.55 139.06,-194.55 287.06,-194.55 287.06,-247.55"/>
<text text-anchor="middle" x="213.06" y="-232.35" font-family="Times,serif" font-size="14.00">a10: proposal_approval </text>
<text text-anchor="middle" x="213.06" y="-217.35" font-family="Times,serif" font-size="14.00"> Type: Core </text>
<text text-anchor="middle" x="213.06" y="-202.35" font-family="Times,serif" font-size="14.00"> Direction: Core</text>
</g>
<!-- f9fb6c6e&#45;c696&#45;11ee&#45;a4c0&#45;ac1a3ddd05c7 -->
<g id="node2" class="node">
<title>f9fb6c6e&#45;c696&#45;11ee&#45;a4c0&#45;ac1a3ddd05c7</title>
<ellipse fill="none" stroke="black" cx="129.06" cy="-140.55" rx="48.99" ry="18"/>
<text text-anchor="middle" x="129.06" y="-136.85" font-family="Times,serif" font-size="14.00">r_3: level3</text>
</g>
<!-- f9fb68d6&#45;c696&#45;11ee&#45;a4c0&#45;ac1a3ddd05c7&#45;&gt;f9fb6c6e&#45;c696&#45;11ee&#45;a4c0&#45;ac1a3ddd05c7 -->
<g id="edge1" class="edge">
<title>f9fb68d6&#45;c696&#45;11ee&#45;a4c0&#45;ac1a3ddd05c7&#45;&gt;f9fb6c6e&#45;c696&#45;11ee&#45;a4c0&#45;ac1a3ddd05c7</title>
<path fill="none" stroke="black" d="M185.56,-194.34C175.57,-185.01 164.33,-174.5 154.52,-165.34"/>
<polygon fill="black" stroke="black" points="157.14,-163 147.44,-158.73 152.36,-168.11 157.14,-163"/>
</g>
<!-- f9fb6eee&#45;c696&#45;11ee&#45;a4c0&#45;ac1a3ddd05c7 -->
<g id="node4" class="node">
<title>f9fb6eee&#45;c696&#45;11ee&#45;a4c0&#45;ac1a3ddd05c7</title>
<ellipse fill="none" stroke="black" cx="297.06" cy="-140.55" rx="48.99" ry="18"/>
<text text-anchor="middle" x="297.06" y="-136.85" font-family="Times,serif" font-size="14.00">r_5: level3</text>
</g>
<!-- f9fb68d6&#45;c696&#45;11ee&#45;a4c0&#45;ac1a3ddd05c7&#45;&gt;f9fb6eee&#45;c696&#45;11ee&#45;a4c0&#45;ac1a3ddd05c7 -->
<g id="edge3" class="edge">
<title>f9fb68d6&#45;c696&#45;11ee&#45;a4c0&#45;ac1a3ddd05c7&#45;&gt;f9fb6eee&#45;c696&#45;11ee&#45;a4c0&#45;ac1a3ddd05c7</title>
<path fill="none" stroke="black" d="M240.57,-194.34C250.56,-185.01 261.8,-174.5 271.61,-165.34"/>
<polygon fill="black" stroke="black" points="273.77,-168.11 278.68,-158.73 268.99,-163 273.77,-168.11"/>
</g>
<!-- f9fb6dcc&#45;c696&#45;11ee&#45;a4c0&#45;ac1a3ddd05c7 -->
<g id="node3" class="node">
<title>f9fb6dcc&#45;c696&#45;11ee&#45;a4c0&#45;ac1a3ddd05c7</title>
<polygon fill="none" stroke="black" points="204.19,-43.27 153.12,-86.32 51,-86.32 -0.06,-43.27 51,-0.22 153.12,-0.22 204.19,-43.27"/>
<text text-anchor="middle" x="102.06" y="-54.57" font-family="Times,serif" font-size="14.00">rp_25: level3 </text>
<text text-anchor="middle" x="102.06" y="-39.57" font-family="Times,serif" font-size="14.00"> proposal_approval </text>
<text text-anchor="middle" x="102.06" y="-24.57" font-family="Times,serif" font-size="14.00"> cost : 5</text>
</g>
<!-- f9fb6c6e&#45;c696&#45;11ee&#45;a4c0&#45;ac1a3ddd05c7&#45;&gt;f9fb6dcc&#45;c696&#45;11ee&#45;a4c0&#45;ac1a3ddd05c7 -->
<g id="edge2" class="edge">
<title>f9fb6c6e&#45;c696&#45;11ee&#45;a4c0&#45;ac1a3ddd05c7&#45;&gt;f9fb6dcc&#45;c696&#45;11ee&#45;a4c0&#45;ac1a3ddd05c7</title>
<path fill="none" stroke="black" d="M124.24,-122.52C122.21,-115.36 119.73,-106.61 117.17,-97.58"/>
<polygon fill="black" stroke="black" points="120.54,-96.65 114.45,-87.98 113.81,-98.56 120.54,-96.65"/>
</g>
<!-- f9fb7010&#45;c696&#45;11ee&#45;a4c0&#45;ac1a3ddd05c7 -->
<g id="node5" class="node">
<title>f9fb7010&#45;c696&#45;11ee&#45;a4c0&#45;ac1a3ddd05c7</title>
<polygon fill="none" stroke="black" points="426.19,-43.27 375.12,-86.32 273,-86.32 221.94,-43.27 273,-0.22 375.12,-0.22 426.19,-43.27"/>
<text text-anchor="middle" x="324.06" y="-54.57" font-family="Times,serif" font-size="14.00">rp_25: level3 </text>
<text text-anchor="middle" x="324.06" y="-39.57" font-family="Times,serif" font-size="14.00"> proposal_approval </text>
<text text-anchor="middle" x="324.06" y="-24.57" font-family="Times,serif" font-size="14.00"> cost : 5</text>
</g>
<!-- f9fb6eee&#45;c696&#45;11ee&#45;a4c0&#45;ac1a3ddd05c7&#45;&gt;f9fb7010&#45;c696&#45;11ee&#45;a4c0&#45;ac1a3ddd05c7 -->
<g id="edge4" class="edge">
<title>f9fb6eee&#45;c696&#45;11ee&#45;a4c0&#45;ac1a3ddd05c7&#45;&gt;f9fb7010&#45;c696&#45;11ee&#45;a4c0&#45;ac1a3ddd05c7</title>
<path fill="none" stroke="black" d="M301.89,-122.52C303.92,-115.36 306.4,-106.61 308.95,-97.58"/>
<polygon fill="black" stroke="black" points="312.32,-98.56 311.68,-87.98 305.58,-96.65 312.32,-98.56"/>
</g>
</g>
</svg>
