<?xml version="1.0" encoding="UTF-8" standalone="no"?>
<!DOCTYPE svg PUBLIC "-//W3C//DTD SVG 1.1//EN"
 "http://www.w3.org/Graphics/SVG/1.1/DTD/svg11.dtd">
<!-- Generated by graphviz version 8.1.0 (20230707.0739)
 -->
<!-- Title: CallTree Pages: 1 -->
<svg width="1022pt" height="267pt"
 viewBox="0.00 0.00 1021.50 267.40" xmlns="http://www.w3.org/2000/svg" xmlns:xlink="http://www.w3.org/1999/xlink">
<g id="graph0" class="graph" transform="scale(1 1) rotate(0) translate(4 263.4)">
<title>CallTree</title>
<polygon fill="white" stroke="none" points="-4,4 -4,-263.4 1017.5,-263.4 1017.5,4 -4,4"/>
<!-- 48c4e732&#45;c8de&#45;11ee&#45;ab3a&#45;04cf4b795879 -->
<g id="node1" class="node">
<title>48c4e732&#45;c8de&#45;11ee&#45;ab3a&#45;04cf4b795879</title>
<polygon fill="none" stroke="black" points="549,-259.4 438.5,-259.4 438.5,-201.9 549,-201.9 549,-259.4"/>
<text text-anchor="middle" x="493.75" y="-242.1" font-family="Times,serif" font-size="14.00">a1: start_process </text>
<text text-anchor="middle" x="493.75" y="-225.6" font-family="Times,serif" font-size="14.00"> Type: Core </text>
<text text-anchor="middle" x="493.75" y="-209.1" font-family="Times,serif" font-size="14.00"> Direction: Core</text>
</g>
<!-- 48c50550&#45;c8de&#45;11ee&#45;ab3a&#45;04cf4b795879 -->
<g id="node2" class="node">
<title>48c50550&#45;c8de&#45;11ee&#45;ab3a&#45;04cf4b795879</title>
<ellipse fill="none" stroke="black" cx="128.75" cy="-147.9" rx="50.84" ry="18"/>
<text text-anchor="middle" x="128.75" y="-142.85" font-family="Times,serif" font-size="14.00">r_1: level1</text>
</g>
<!-- 48c4e732&#45;c8de&#45;11ee&#45;ab3a&#45;04cf4b795879&#45;&gt;48c50550&#45;c8de&#45;11ee&#45;ab3a&#45;04cf4b795879 -->
<g id="edge1" class="edge">
<title>48c4e732&#45;c8de&#45;11ee&#45;ab3a&#45;04cf4b795879&#45;&gt;48c50550&#45;c8de&#45;11ee&#45;ab3a&#45;04cf4b795879</title>
<path fill="none" stroke="black" d="M438.32,-217.38C368.65,-201.97 249.95,-175.71 181.55,-160.58"/>
<polygon fill="black" stroke="black" points="182.54,-156.99 172.02,-158.25 181.03,-163.83 182.54,-156.99"/>
</g>
<!-- 48c519fa&#45;c8de&#45;11ee&#45;ab3a&#45;04cf4b795879 -->
<g id="node4" class="node">
<title>48c519fa&#45;c8de&#45;11ee&#45;ab3a&#45;04cf4b795879</title>
<ellipse fill="none" stroke="black" cx="274.75" cy="-147.9" rx="50.84" ry="18"/>
<text text-anchor="middle" x="274.75" y="-142.85" font-family="Times,serif" font-size="14.00">r_6: level1</text>
</g>
<!-- 48c4e732&#45;c8de&#45;11ee&#45;ab3a&#45;04cf4b795879&#45;&gt;48c519fa&#45;c8de&#45;11ee&#45;ab3a&#45;04cf4b795879 -->
<g id="edge3" class="edge">
<title>48c4e732&#45;c8de&#45;11ee&#45;ab3a&#45;04cf4b795879&#45;&gt;48c519fa&#45;c8de&#45;11ee&#45;ab3a&#45;04cf4b795879</title>
<path fill="none" stroke="black" d="M438.2,-209.17C401.34,-195.57 353.6,-177.97 319.24,-165.3"/>
<polygon fill="black" stroke="black" points="320.63,-161.72 310.04,-161.54 318.21,-168.28 320.63,-161.72"/>
</g>
<!-- 48c52bb6&#45;c8de&#45;11ee&#45;ab3a&#45;04cf4b795879 -->
<g id="node6" class="node">
<title>48c52bb6&#45;c8de&#45;11ee&#45;ab3a&#45;04cf4b795879</title>
<ellipse fill="none" stroke="black" cx="433.75" cy="-147.9" rx="50.84" ry="18"/>
<text text-anchor="middle" x="433.75" y="-142.85" font-family="Times,serif" font-size="14.00">r_2: level2</text>
</g>
<!-- 48c4e732&#45;c8de&#45;11ee&#45;ab3a&#45;04cf4b795879&#45;&gt;48c52bb6&#45;c8de&#45;11ee&#45;ab3a&#45;04cf4b795879 -->
<g id="edge5" class="edge">
<title>48c4e732&#45;c8de&#45;11ee&#45;ab3a&#45;04cf4b795879&#45;&gt;48c52bb6&#45;c8de&#45;11ee&#45;ab3a&#45;04cf4b795879</title>
<path fill="none" stroke="black" d="M472.77,-201.4C466.14,-192.49 458.88,-182.71 452.43,-174.03"/>
<polygon fill="black" stroke="black" points="454.84,-172.41 446.06,-166.47 449.22,-176.58 454.84,-172.41"/>
</g>
<!-- 48c53dc2&#45;c8de&#45;11ee&#45;ab3a&#45;04cf4b795879 -->
<g id="node8" class="node">
<title>48c53dc2&#45;c8de&#45;11ee&#45;ab3a&#45;04cf4b795879</title>
<ellipse fill="none" stroke="black" cx="579.75" cy="-147.9" rx="50.84" ry="18"/>
<text text-anchor="middle" x="579.75" y="-142.85" font-family="Times,serif" font-size="14.00">r_4: level2</text>
</g>
<!-- 48c4e732&#45;c8de&#45;11ee&#45;ab3a&#45;04cf4b795879&#45;&gt;48c53dc2&#45;c8de&#45;11ee&#45;ab3a&#45;04cf4b795879 -->
<g id="edge7" class="edge">
<title>48c4e732&#45;c8de&#45;11ee&#45;ab3a&#45;04cf4b795879&#45;&gt;48c53dc2&#45;c8de&#45;11ee&#45;ab3a&#45;04cf4b795879</title>
<path fill="none" stroke="black" d="M523.83,-201.4C533.97,-191.88 545.17,-181.37 554.86,-172.26"/>
<polygon fill="black" stroke="black" points="556.7,-175.4 561.6,-166 551.91,-170.3 556.7,-175.4"/>
</g>
<!-- 48c54fba&#45;c8de&#45;11ee&#45;ab3a&#45;04cf4b795879 -->
<g id="node10" class="node">
<title>48c54fba&#45;c8de&#45;11ee&#45;ab3a&#45;04cf4b795879</title>
<ellipse fill="none" stroke="black" cx="738.75" cy="-147.9" rx="50.84" ry="18"/>
<text text-anchor="middle" x="738.75" y="-142.85" font-family="Times,serif" font-size="14.00">r_3: level3</text>
</g>
<!-- 48c4e732&#45;c8de&#45;11ee&#45;ab3a&#45;04cf4b795879&#45;&gt;48c54fba&#45;c8de&#45;11ee&#45;ab3a&#45;04cf4b795879 -->
<g id="edge9" class="edge">
<title>48c4e732&#45;c8de&#45;11ee&#45;ab3a&#45;04cf4b795879&#45;&gt;48c54fba&#45;c8de&#45;11ee&#45;ab3a&#45;04cf4b795879</title>
<path fill="none" stroke="black" d="M549.34,-211.32C592.37,-197.14 651.29,-177.72 691.93,-164.33"/>
<polygon fill="black" stroke="black" points="692.96,-167.35 701.36,-160.89 690.77,-160.7 692.96,-167.35"/>
</g>
<!-- 48c562f2&#45;c8de&#45;11ee&#45;ab3a&#45;04cf4b795879 -->
<g id="node12" class="node">
<title>48c562f2&#45;c8de&#45;11ee&#45;ab3a&#45;04cf4b795879</title>
<ellipse fill="none" stroke="black" cx="903.75" cy="-147.9" rx="50.84" ry="18"/>
<text text-anchor="middle" x="903.75" y="-142.85" font-family="Times,serif" font-size="14.00">r_5: level3</text>
</g>
<!-- 48c4e732&#45;c8de&#45;11ee&#45;ab3a&#45;04cf4b795879&#45;&gt;48c562f2&#45;c8de&#45;11ee&#45;ab3a&#45;04cf4b795879 -->
<g id="edge11" class="edge">
<title>48c4e732&#45;c8de&#45;11ee&#45;ab3a&#45;04cf4b795879&#45;&gt;48c562f2&#45;c8de&#45;11ee&#45;ab3a&#45;04cf4b795879</title>
<path fill="none" stroke="black" d="M549.47,-218.67C628.31,-203.15 771.47,-174.95 849.5,-159.58"/>
<polygon fill="black" stroke="black" points="849.93,-162.87 859.06,-157.5 848.58,-156 849.93,-162.87"/>
</g>
<!-- 48c5113a&#45;c8de&#45;11ee&#45;ab3a&#45;04cf4b795879 -->
<g id="node3" class="node">
<title>48c5113a&#45;c8de&#45;11ee&#45;ab3a&#45;04cf4b795879</title>
<polygon fill="none" stroke="black" points="153.5,-46.95 115.13,-93.9 38.38,-93.9 0,-46.95 38.38,0 115.13,0 153.5,-46.95"/>
<text text-anchor="middle" x="76.75" y="-58.4" font-family="Times,serif" font-size="14.00">rp_1: level1 </text>
<text text-anchor="middle" x="76.75" y="-41.9" font-family="Times,serif" font-size="14.00"> start_process </text>
<text text-anchor="middle" x="76.75" y="-25.4" font-family="Times,serif" font-size="14.00"> cost : 10</text>
</g>
<!-- 48c50550&#45;c8de&#45;11ee&#45;ab3a&#45;04cf4b795879&#45;&gt;48c5113a&#45;c8de&#45;11ee&#45;ab3a&#45;04cf4b795879 -->
<g id="edge2" class="edge">
<title>48c50550&#45;c8de&#45;11ee&#45;ab3a&#45;04cf4b795879&#45;&gt;48c5113a&#45;c8de&#45;11ee&#45;ab3a&#45;04cf4b795879</title>
<path fill="none" stroke="black" d="M119.93,-130.11C116.02,-122.67 111.17,-113.44 106.14,-103.88"/>
<polygon fill="black" stroke="black" points="108.84,-102.49 101.09,-95.27 102.65,-105.75 108.84,-102.49"/>
</g>
<!-- 48c523dc&#45;c8de&#45;11ee&#45;ab3a&#45;04cf4b795879 -->
<g id="node5" class="node">
<title>48c523dc&#45;c8de&#45;11ee&#45;ab3a&#45;04cf4b795879</title>
<polygon fill="none" stroke="black" points="325.5,-46.95 287.13,-93.9 210.38,-93.9 172,-46.95 210.38,0 287.13,0 325.5,-46.95"/>
<text text-anchor="middle" x="248.75" y="-58.4" font-family="Times,serif" font-size="14.00">rp_1: level1 </text>
<text text-anchor="middle" x="248.75" y="-41.9" font-family="Times,serif" font-size="14.00"> start_process </text>
<text text-anchor="middle" x="248.75" y="-25.4" font-family="Times,serif" font-size="14.00"> cost : 10</text>
</g>
<!-- 48c519fa&#45;c8de&#45;11ee&#45;ab3a&#45;04cf4b795879&#45;&gt;48c523dc&#45;c8de&#45;11ee&#45;ab3a&#45;04cf4b795879 -->
<g id="edge4" class="edge">
<title>48c519fa&#45;c8de&#45;11ee&#45;ab3a&#45;04cf4b795879&#45;&gt;48c523dc&#45;c8de&#45;11ee&#45;ab3a&#45;04cf4b795879</title>
<path fill="none" stroke="black" d="M270.22,-129.66C268.36,-122.58 266.09,-113.93 263.73,-104.95"/>
<polygon fill="black" stroke="black" points="266.86,-104.1 260.93,-95.32 260.09,-105.88 266.86,-104.1"/>
</g>
<!-- 48c535e8&#45;c8de&#45;11ee&#45;ab3a&#45;04cf4b795879 -->
<g id="node7" class="node">
<title>48c535e8&#45;c8de&#45;11ee&#45;ab3a&#45;04cf4b795879</title>
<polygon fill="none" stroke="black" points="497.5,-46.95 459.13,-93.9 382.38,-93.9 344,-46.95 382.38,0 459.13,0 497.5,-46.95"/>
<text text-anchor="middle" x="420.75" y="-58.4" font-family="Times,serif" font-size="14.00">rp_6: level2 </text>
<text text-anchor="middle" x="420.75" y="-41.9" font-family="Times,serif" font-size="14.00"> start_process </text>
<text text-anchor="middle" x="420.75" y="-25.4" font-family="Times,serif" font-size="14.00"> cost : 15</text>
</g>
<!-- 48c52bb6&#45;c8de&#45;11ee&#45;ab3a&#45;04cf4b795879&#45;&gt;48c535e8&#45;c8de&#45;11ee&#45;ab3a&#45;04cf4b795879 -->
<g id="edge6" class="edge">
<title>48c52bb6&#45;c8de&#45;11ee&#45;ab3a&#45;04cf4b795879&#45;&gt;48c535e8&#45;c8de&#45;11ee&#45;ab3a&#45;04cf4b795879</title>
<path fill="none" stroke="black" d="M431.49,-129.66C430.56,-122.58 429.42,-113.93 428.24,-104.95"/>
<polygon fill="black" stroke="black" points="431.62,-104.78 426.84,-95.32 424.68,-105.69 431.62,-104.78"/>
</g>
<!-- 48c54736&#45;c8de&#45;11ee&#45;ab3a&#45;04cf4b795879 -->
<g id="node9" class="node">
<title>48c54736&#45;c8de&#45;11ee&#45;ab3a&#45;04cf4b795879</title>
<polygon fill="none" stroke="black" points="669.5,-46.95 631.13,-93.9 554.38,-93.9 516,-46.95 554.38,0 631.13,0 669.5,-46.95"/>
<text text-anchor="middle" x="592.75" y="-58.4" font-family="Times,serif" font-size="14.00">rp_6: level2 </text>
<text text-anchor="middle" x="592.75" y="-41.9" font-family="Times,serif" font-size="14.00"> start_process </text>
<text text-anchor="middle" x="592.75" y="-25.4" font-family="Times,serif" font-size="14.00"> cost : 15</text>
</g>
<!-- 48c53dc2&#45;c8de&#45;11ee&#45;ab3a&#45;04cf4b795879&#45;&gt;48c54736&#45;c8de&#45;11ee&#45;ab3a&#45;04cf4b795879 -->
<g id="edge8" class="edge">
<title>48c53dc2&#45;c8de&#45;11ee&#45;ab3a&#45;04cf4b795879&#45;&gt;48c54736&#45;c8de&#45;11ee&#45;ab3a&#45;04cf4b795879</title>
<path fill="none" stroke="black" d="M582.02,-129.66C582.95,-122.58 584.08,-113.93 585.26,-104.95"/>
<polygon fill="black" stroke="black" points="588.83,-105.69 586.66,-95.32 581.89,-104.78 588.83,-105.69"/>
</g>
<!-- 48c55ac8&#45;c8de&#45;11ee&#45;ab3a&#45;04cf4b795879 -->
<g id="node11" class="node">
<title>48c55ac8&#45;c8de&#45;11ee&#45;ab3a&#45;04cf4b795879</title>
<polygon fill="none" stroke="black" points="841.5,-46.95 803.13,-93.9 726.38,-93.9 688,-46.95 726.38,0 803.13,0 841.5,-46.95"/>
<text text-anchor="middle" x="764.75" y="-58.4" font-family="Times,serif" font-size="14.00">rp_13: level3 </text>
<text text-anchor="middle" x="764.75" y="-41.9" font-family="Times,serif" font-size="14.00"> start_process </text>
<text text-anchor="middle" x="764.75" y="-25.4" font-family="Times,serif" font-size="14.00"> cost : 10</text>
</g>
<!-- 48c54fba&#45;c8de&#45;11ee&#45;ab3a&#45;04cf4b795879&#45;&gt;48c55ac8&#45;c8de&#45;11ee&#45;ab3a&#45;04cf4b795879 -->
<g id="edge10" class="edge">
<title>48c54fba&#45;c8de&#45;11ee&#45;ab3a&#45;04cf4b795879&#45;&gt;48c55ac8&#45;c8de&#45;11ee&#45;ab3a&#45;04cf4b795879</title>
<path fill="none" stroke="black" d="M743.28,-129.66C745.14,-122.58 747.41,-113.93 749.77,-104.95"/>
<polygon fill="black" stroke="black" points="753.41,-105.88 752.57,-95.32 746.64,-104.1 753.41,-105.88"/>
</g>
<!-- 48c56c5c&#45;c8de&#45;11ee&#45;ab3a&#45;04cf4b795879 -->
<g id="node13" class="node">
<title>48c56c5c&#45;c8de&#45;11ee&#45;ab3a&#45;04cf4b795879</title>
<polygon fill="none" stroke="black" points="1013.5,-46.95 975.13,-93.9 898.38,-93.9 860,-46.95 898.38,0 975.13,0 1013.5,-46.95"/>
<text text-anchor="middle" x="936.75" y="-58.4" font-family="Times,serif" font-size="14.00">rp_13: level3 </text>
<text text-anchor="middle" x="936.75" y="-41.9" font-family="Times,serif" font-size="14.00"> start_process </text>
<text text-anchor="middle" x="936.75" y="-25.4" font-family="Times,serif" font-size="14.00"> cost : 10</text>
</g>
<!-- 48c562f2&#45;c8de&#45;11ee&#45;ab3a&#45;04cf4b795879&#45;&gt;48c56c5c&#45;c8de&#45;11ee&#45;ab3a&#45;04cf4b795879 -->
<g id="edge12" class="edge">
<title>48c562f2&#45;c8de&#45;11ee&#45;ab3a&#45;04cf4b795879&#45;&gt;48c56c5c&#45;c8de&#45;11ee&#45;ab3a&#45;04cf4b795879</title>
<path fill="none" stroke="black" d="M909.5,-129.66C911.89,-122.5 914.81,-113.74 917.84,-104.65"/>
<polygon fill="black" stroke="black" points="921.44,-105.91 921.29,-95.32 914.8,-103.7 921.44,-105.91"/>
</g>
</g>
</svg>
