<?xml version="1.0" encoding="UTF-8" standalone="no"?>
<!DOCTYPE svg PUBLIC "-//W3C//DTD SVG 1.1//EN"
 "http://www.w3.org/Graphics/SVG/1.1/DTD/svg11.dtd">
<!-- Generated by graphviz version 8.1.0 (20230707.0739)
 -->
<!-- Title: CallTree Pages: 1 -->
<svg width="588pt" height="361pt"
 viewBox="0.00 0.00 588.09 360.90" xmlns="http://www.w3.org/2000/svg" xmlns:xlink="http://www.w3.org/1999/xlink">
<g id="graph0" class="graph" transform="scale(1 1) rotate(0) translate(4 356.9)">
<title>CallTree</title>
<polygon fill="white" stroke="none" points="-4,4 -4,-356.9 584.09,-356.9 584.09,4 -4,4"/>
<!-- 7efbc200&#45;cb57&#45;11ee&#45;9270&#45;04cf4b795879 -->
<g id="node1" class="node">
<title>7efbc200&#45;cb57&#45;11ee&#45;9270&#45;04cf4b795879</title>
<polygon fill="none" stroke="black" points="331.84,-352.9 211.59,-352.9 211.59,-295.4 331.84,-295.4 331.84,-352.9"/>
<text text-anchor="middle" x="271.71" y="-335.6" font-family="Times,serif" font-size="14.00">a2: data_gathering </text>
<text text-anchor="middle" x="271.71" y="-319.1" font-family="Times,serif" font-size="14.00"> Type: Core </text>
<text text-anchor="middle" x="271.71" y="-302.6" font-family="Times,serif" font-size="14.00"> Direction: Core</text>
</g>
<!-- 7efbc7d2&#45;cb57&#45;11ee&#45;9270&#45;04cf4b795879 -->
<g id="node2" class="node">
<title>7efbc7d2&#45;cb57&#45;11ee&#45;9270&#45;04cf4b795879</title>
<ellipse fill="none" stroke="black" cx="118.71" cy="-241.4" rx="50.84" ry="18"/>
<text text-anchor="middle" x="118.71" y="-236.35" font-family="Times,serif" font-size="14.00">r_1: level1</text>
</g>
<!-- 7efbc200&#45;cb57&#45;11ee&#45;9270&#45;04cf4b795879&#45;&gt;7efbc7d2&#45;cb57&#45;11ee&#45;9270&#45;04cf4b795879 -->
<g id="edge1" class="edge">
<title>7efbc200&#45;cb57&#45;11ee&#45;9270&#45;04cf4b795879&#45;&gt;7efbc7d2&#45;cb57&#45;11ee&#45;9270&#45;04cf4b795879</title>
<path fill="none" stroke="black" d="M218.2,-294.9C197.6,-284.03 174.55,-271.87 155.83,-261.99"/>
<polygon fill="black" stroke="black" points="157.67,-258.47 147.19,-256.9 154.4,-264.66 157.67,-258.47"/>
</g>
<!-- 7efbcb60&#45;cb57&#45;11ee&#45;9270&#45;04cf4b795879 -->
<g id="node4" class="node">
<title>7efbcb60&#45;cb57&#45;11ee&#45;9270&#45;04cf4b795879</title>
<ellipse fill="none" stroke="black" cx="271.71" cy="-241.4" rx="50.84" ry="18"/>
<text text-anchor="middle" x="271.71" y="-236.35" font-family="Times,serif" font-size="14.00">r_2: level2</text>
</g>
<!-- 7efbc200&#45;cb57&#45;11ee&#45;9270&#45;04cf4b795879&#45;&gt;7efbcb60&#45;cb57&#45;11ee&#45;9270&#45;04cf4b795879 -->
<g id="edge3" class="edge">
<title>7efbc200&#45;cb57&#45;11ee&#45;9270&#45;04cf4b795879&#45;&gt;7efbcb60&#45;cb57&#45;11ee&#45;9270&#45;04cf4b795879</title>
<path fill="none" stroke="black" d="M271.71,-294.9C271.71,-286.96 271.71,-278.32 271.71,-270.39"/>
<polygon fill="black" stroke="black" points="275.21,-270.44 271.71,-260.44 268.21,-270.44 275.21,-270.44"/>
</g>
<!-- 7efbce62&#45;cb57&#45;11ee&#45;9270&#45;04cf4b795879 -->
<g id="node6" class="node">
<title>7efbce62&#45;cb57&#45;11ee&#45;9270&#45;04cf4b795879</title>
<ellipse fill="none" stroke="black" cx="424.71" cy="-241.4" rx="50.84" ry="18"/>
<text text-anchor="middle" x="424.71" y="-236.35" font-family="Times,serif" font-size="14.00">r_4: level2</text>
</g>
<!-- 7efbc200&#45;cb57&#45;11ee&#45;9270&#45;04cf4b795879&#45;&gt;7efbce62&#45;cb57&#45;11ee&#45;9270&#45;04cf4b795879 -->
<g id="edge5" class="edge">
<title>7efbc200&#45;cb57&#45;11ee&#45;9270&#45;04cf4b795879&#45;&gt;7efbce62&#45;cb57&#45;11ee&#45;9270&#45;04cf4b795879</title>
<path fill="none" stroke="black" d="M325.22,-294.9C345.82,-284.03 368.87,-271.87 387.6,-261.99"/>
<polygon fill="black" stroke="black" points="389.02,-264.66 396.23,-256.9 385.75,-258.47 389.02,-264.66"/>
</g>
<!-- 7efbc9da&#45;cb57&#45;11ee&#45;9270&#45;04cf4b795879 -->
<g id="node3" class="node">
<title>7efbc9da&#45;cb57&#45;11ee&#45;9270&#45;04cf4b795879</title>
<polygon fill="none" stroke="black" points="169.42,-140.45 127.07,-187.4 42.36,-187.4 0,-140.45 42.36,-93.5 127.07,-93.5 169.42,-140.45"/>
<text text-anchor="middle" x="84.71" y="-151.9" font-family="Times,serif" font-size="14.00">rp_2: level1 </text>
<text text-anchor="middle" x="84.71" y="-135.4" font-family="Times,serif" font-size="14.00"> data_gathering </text>
<text text-anchor="middle" x="84.71" y="-118.9" font-family="Times,serif" font-size="14.00"> cost : 83</text>
</g>
<!-- 7efbc7d2&#45;cb57&#45;11ee&#45;9270&#45;04cf4b795879&#45;&gt;7efbc9da&#45;cb57&#45;11ee&#45;9270&#45;04cf4b795879 -->
<g id="edge2" class="edge">
<title>7efbc7d2&#45;cb57&#45;11ee&#45;9270&#45;04cf4b795879&#45;&gt;7efbc9da&#45;cb57&#45;11ee&#45;9270&#45;04cf4b795879</title>
<path fill="none" stroke="black" d="M112.79,-223.16C110.33,-216 107.32,-207.24 104.2,-198.15"/>
<polygon fill="black" stroke="black" points="107.2,-197.14 100.64,-188.82 100.58,-199.41 107.2,-197.14"/>
</g>
<!-- 7efbcd0e&#45;cb57&#45;11ee&#45;9270&#45;04cf4b795879 -->
<g id="node5" class="node">
<title>7efbcd0e&#45;cb57&#45;11ee&#45;9270&#45;04cf4b795879</title>
<polygon fill="none" stroke="black" points="356.42,-140.45 314.07,-187.4 229.36,-187.4 187,-140.45 229.36,-93.5 314.07,-93.5 356.42,-140.45"/>
<text text-anchor="middle" x="271.71" y="-151.9" font-family="Times,serif" font-size="14.00">rp_7: level2 </text>
<text text-anchor="middle" x="271.71" y="-135.4" font-family="Times,serif" font-size="14.00"> data_gathering </text>
<text text-anchor="middle" x="271.71" y="-118.9" font-family="Times,serif" font-size="14.00"> cost : 24</text>
</g>
<!-- 7efbcb60&#45;cb57&#45;11ee&#45;9270&#45;04cf4b795879&#45;&gt;7efbcd0e&#45;cb57&#45;11ee&#45;9270&#45;04cf4b795879 -->
<g id="edge4" class="edge">
<title>7efbcb60&#45;cb57&#45;11ee&#45;9270&#45;04cf4b795879&#45;&gt;7efbcd0e&#45;cb57&#45;11ee&#45;9270&#45;04cf4b795879</title>
<path fill="none" stroke="black" d="M271.71,-223.16C271.71,-216.15 271.71,-207.62 271.71,-198.74"/>
<polygon fill="black" stroke="black" points="275.21,-198.82 271.71,-188.82 268.21,-198.82 275.21,-198.82"/>
</g>
<!-- 7efbcffc&#45;cb57&#45;11ee&#45;9270&#45;04cf4b795879 -->
<g id="node7" class="node">
<title>7efbcffc&#45;cb57&#45;11ee&#45;9270&#45;04cf4b795879</title>
<polygon fill="none" stroke="black" points="543.42,-140.45 501.07,-187.4 416.36,-187.4 374,-140.45 416.36,-93.5 501.07,-93.5 543.42,-140.45"/>
<text text-anchor="middle" x="458.71" y="-151.9" font-family="Times,serif" font-size="14.00">rp_7: level2 </text>
<text text-anchor="middle" x="458.71" y="-135.4" font-family="Times,serif" font-size="14.00"> data_gathering </text>
<text text-anchor="middle" x="458.71" y="-118.9" font-family="Times,serif" font-size="14.00"> cost : 65</text>
</g>
<!-- 7efbce62&#45;cb57&#45;11ee&#45;9270&#45;04cf4b795879&#45;&gt;7efbcffc&#45;cb57&#45;11ee&#45;9270&#45;04cf4b795879 -->
<g id="edge6" class="edge">
<title>7efbce62&#45;cb57&#45;11ee&#45;9270&#45;04cf4b795879&#45;&gt;7efbcffc&#45;cb57&#45;11ee&#45;9270&#45;04cf4b795879</title>
<path fill="none" stroke="black" d="M430.63,-223.16C433.09,-216 436.1,-207.24 439.23,-198.15"/>
<polygon fill="black" stroke="black" points="442.84,-199.41 442.78,-188.82 436.22,-197.14 442.84,-199.41"/>
</g>
<!-- 7efbd150&#45;cb57&#45;11ee&#45;9270&#45;04cf4b795879 -->
<g id="node8" class="node">
<title>7efbd150&#45;cb57&#45;11ee&#45;9270&#45;04cf4b795879</title>
<polygon fill="none" stroke="black" points="449.09,-57.5 336.34,-57.5 336.34,0 449.09,0 449.09,-57.5"/>
<text text-anchor="middle" x="392.71" y="-40.2" font-family="Times,serif" font-size="14.00">r0: inform_head </text>
<text text-anchor="middle" x="392.71" y="-23.7" font-family="Times,serif" font-size="14.00"> Type: insert </text>
<text text-anchor="middle" x="392.71" y="-7.2" font-family="Times,serif" font-size="14.00"> Direction: before</text>
</g>
<!-- 7efbcffc&#45;cb57&#45;11ee&#45;9270&#45;04cf4b795879&#45;&gt;7efbd150&#45;cb57&#45;11ee&#45;9270&#45;04cf4b795879 -->
<g id="edge7" class="edge">
<title>7efbcffc&#45;cb57&#45;11ee&#45;9270&#45;04cf4b795879&#45;&gt;7efbd150&#45;cb57&#45;11ee&#45;9270&#45;04cf4b795879</title>
<path fill="none" stroke="black" d="M430.91,-93.24C425.64,-84.48 420.19,-75.41 415.11,-66.97"/>
<polygon fill="black" stroke="black" points="417.71,-65.52 409.56,-58.75 411.72,-69.13 417.71,-65.52"/>
</g>
<!-- 7efbd330&#45;cb57&#45;11ee&#45;9270&#45;04cf4b795879 -->
<g id="node9" class="node">
<title>7efbd330&#45;cb57&#45;11ee&#45;9270&#45;04cf4b795879</title>
<polygon fill="none" stroke="black" points="580.09,-57.5 467.34,-57.5 467.34,0 580.09,0 580.09,-57.5"/>
<text text-anchor="middle" x="523.71" y="-40.2" font-family="Times,serif" font-size="14.00">r0: data_support </text>
<text text-anchor="middle" x="523.71" y="-23.7" font-family="Times,serif" font-size="14.00"> Type: insert </text>
<text text-anchor="middle" x="523.71" y="-7.2" font-family="Times,serif" font-size="14.00"> Direction: before</text>
</g>
<!-- 7efbcffc&#45;cb57&#45;11ee&#45;9270&#45;04cf4b795879&#45;&gt;7efbd330&#45;cb57&#45;11ee&#45;9270&#45;04cf4b795879 -->
<g id="edge8" class="edge">
<title>7efbcffc&#45;cb57&#45;11ee&#45;9270&#45;04cf4b795879&#45;&gt;7efbd330&#45;cb57&#45;11ee&#45;9270&#45;04cf4b795879</title>
<path fill="none" stroke="black" d="M486.09,-93.24C491.28,-84.48 496.65,-75.41 501.66,-66.97"/>
<polygon fill="black" stroke="black" points="505.03,-69.14 507.12,-58.75 499.01,-65.57 505.03,-69.14"/>
</g>
</g>
</svg>
