<?xml version="1.0" encoding="UTF-8" standalone="no"?>
<!DOCTYPE svg PUBLIC "-//W3C//DTD SVG 1.1//EN"
 "http://www.w3.org/Graphics/SVG/1.1/DTD/svg11.dtd">
<!-- Generated by graphviz version 7.1.0 (0)
 -->
<!-- Title: CallTree Pages: 1 -->
<svg width="631pt" height="539pt"
 viewBox="0.00 0.00 630.67 539.10" xmlns="http://www.w3.org/2000/svg" xmlns:xlink="http://www.w3.org/1999/xlink">
<g id="graph0" class="graph" transform="scale(1 1) rotate(0) translate(4 535.1)">
<title>CallTree</title>
<polygon fill="white" stroke="none" points="-4,4 -4,-535.1 626.67,-535.1 626.67,4 -4,4"/>
<!-- e09effe2&#45;c687&#45;11ee&#45;890b&#45;ac1a3ddd05c7 -->
<g id="node1" class="node">
<title>e09effe2&#45;c687&#45;11ee&#45;890b&#45;ac1a3ddd05c7</title>
<polygon fill="none" stroke="black" points="410.25,-531.1 289.25,-531.1 289.25,-478.1 410.25,-478.1 410.25,-531.1"/>
<text text-anchor="middle" x="349.75" y="-515.9" font-family="Times,serif" font-size="14.00">a2: data_gathering </text>
<text text-anchor="middle" x="349.75" y="-500.9" font-family="Times,serif" font-size="14.00"> Type: Core </text>
<text text-anchor="middle" x="349.75" y="-485.9" font-family="Times,serif" font-size="14.00"> Direction: Core</text>
</g>
<!-- e09f06c2&#45;c687&#45;11ee&#45;890b&#45;ac1a3ddd05c7 -->
<g id="node2" class="node">
<title>e09f06c2&#45;c687&#45;11ee&#45;890b&#45;ac1a3ddd05c7</title>
<ellipse fill="none" stroke="black" cx="198.75" cy="-424.1" rx="48.99" ry="18"/>
<text text-anchor="middle" x="198.75" y="-420.4" font-family="Times,serif" font-size="14.00">r_1: level1</text>
</g>
<!-- e09effe2&#45;c687&#45;11ee&#45;890b&#45;ac1a3ddd05c7&#45;&gt;e09f06c2&#45;c687&#45;11ee&#45;890b&#45;ac1a3ddd05c7 -->
<g id="edge1" class="edge">
<title>e09effe2&#45;c687&#45;11ee&#45;890b&#45;ac1a3ddd05c7&#45;&gt;e09f06c2&#45;c687&#45;11ee&#45;890b&#45;ac1a3ddd05c7</title>
<path fill="none" stroke="black" d="M299.89,-477.68C279.16,-466.9 255.5,-454.6 236.28,-444.61"/>
<polygon fill="black" stroke="black" points="237.94,-441.53 227.45,-440.02 234.71,-447.74 237.94,-441.53"/>
</g>
<!-- e09f1568&#45;c687&#45;11ee&#45;890b&#45;ac1a3ddd05c7 -->
<g id="node9" class="node">
<title>e09f1568&#45;c687&#45;11ee&#45;890b&#45;ac1a3ddd05c7</title>
<ellipse fill="none" stroke="black" cx="349.75" cy="-424.1" rx="48.99" ry="18"/>
<text text-anchor="middle" x="349.75" y="-420.4" font-family="Times,serif" font-size="14.00">r_2: level2</text>
</g>
<!-- e09effe2&#45;c687&#45;11ee&#45;890b&#45;ac1a3ddd05c7&#45;&gt;e09f1568&#45;c687&#45;11ee&#45;890b&#45;ac1a3ddd05c7 -->
<g id="edge8" class="edge">
<title>e09effe2&#45;c687&#45;11ee&#45;890b&#45;ac1a3ddd05c7&#45;&gt;e09f1568&#45;c687&#45;11ee&#45;890b&#45;ac1a3ddd05c7</title>
<path fill="none" stroke="black" d="M349.75,-477.89C349.75,-470.17 349.75,-461.66 349.75,-453.76"/>
<polygon fill="black" stroke="black" points="353.25,-453.94 349.75,-443.94 346.25,-453.94 353.25,-453.94"/>
</g>
<!-- e09f1860&#45;c687&#45;11ee&#45;890b&#45;ac1a3ddd05c7 -->
<g id="node11" class="node">
<title>e09f1860&#45;c687&#45;11ee&#45;890b&#45;ac1a3ddd05c7</title>
<ellipse fill="none" stroke="black" cx="500.75" cy="-424.1" rx="48.99" ry="18"/>
<text text-anchor="middle" x="500.75" y="-420.4" font-family="Times,serif" font-size="14.00">r_4: level2</text>
</g>
<!-- e09effe2&#45;c687&#45;11ee&#45;890b&#45;ac1a3ddd05c7&#45;&gt;e09f1860&#45;c687&#45;11ee&#45;890b&#45;ac1a3ddd05c7 -->
<g id="edge10" class="edge">
<title>e09effe2&#45;c687&#45;11ee&#45;890b&#45;ac1a3ddd05c7&#45;&gt;e09f1860&#45;c687&#45;11ee&#45;890b&#45;ac1a3ddd05c7</title>
<path fill="none" stroke="black" d="M399.61,-477.68C420.34,-466.9 444,-454.6 463.22,-444.61"/>
<polygon fill="black" stroke="black" points="464.79,-447.74 472.05,-440.02 461.56,-441.53 464.79,-447.74"/>
</g>
<!-- e09f08b6&#45;c687&#45;11ee&#45;890b&#45;ac1a3ddd05c7 -->
<g id="node3" class="node">
<title>e09f08b6&#45;c687&#45;11ee&#45;890b&#45;ac1a3ddd05c7</title>
<polygon fill="none" stroke="black" points="246.58,-326.82 204.17,-369.87 119.33,-369.87 76.92,-326.82 119.33,-283.77 204.17,-283.77 246.58,-326.82"/>
<text text-anchor="middle" x="161.75" y="-338.12" font-family="Times,serif" font-size="14.00">rp_2: level1 </text>
<text text-anchor="middle" x="161.75" y="-323.12" font-family="Times,serif" font-size="14.00"> data_gathering </text>
<text text-anchor="middle" x="161.75" y="-308.12" font-family="Times,serif" font-size="14.00"> cost : 61</text>
</g>
<!-- e09f06c2&#45;c687&#45;11ee&#45;890b&#45;ac1a3ddd05c7&#45;&gt;e09f08b6&#45;c687&#45;11ee&#45;890b&#45;ac1a3ddd05c7 -->
<g id="edge2" class="edge">
<title>e09f06c2&#45;c687&#45;11ee&#45;890b&#45;ac1a3ddd05c7&#45;&gt;e09f08b6&#45;c687&#45;11ee&#45;890b&#45;ac1a3ddd05c7</title>
<path fill="none" stroke="black" d="M192.14,-406.06C189.3,-398.75 185.81,-389.77 182.22,-380.54"/>
<polygon fill="black" stroke="black" points="185.59,-379.54 178.71,-371.49 179.07,-382.08 185.59,-379.54"/>
</g>
<!-- e09f0c76&#45;c687&#45;11ee&#45;890b&#45;ac1a3ddd05c7 -->
<g id="node4" class="node">
<title>e09f0c76&#45;c687&#45;11ee&#45;890b&#45;ac1a3ddd05c7</title>
<polygon fill="none" stroke="black" points="218.25,-247.55 105.25,-247.55 105.25,-194.55 218.25,-194.55 218.25,-247.55"/>
<text text-anchor="middle" x="161.75" y="-232.35" font-family="Times,serif" font-size="14.00">r1: data_support </text>
<text text-anchor="middle" x="161.75" y="-217.35" font-family="Times,serif" font-size="14.00"> Type: insert </text>
<text text-anchor="middle" x="161.75" y="-202.35" font-family="Times,serif" font-size="14.00"> Direction: before</text>
</g>
<!-- e09f08b6&#45;c687&#45;11ee&#45;890b&#45;ac1a3ddd05c7&#45;&gt;e09f0c76&#45;c687&#45;11ee&#45;890b&#45;ac1a3ddd05c7 -->
<g id="edge3" class="edge">
<title>e09f08b6&#45;c687&#45;11ee&#45;890b&#45;ac1a3ddd05c7&#45;&gt;e09f0c76&#45;c687&#45;11ee&#45;890b&#45;ac1a3ddd05c7</title>
<path fill="none" stroke="black" d="M161.75,-283.31C161.75,-275.36 161.75,-267.1 161.75,-259.32"/>
<polygon fill="black" stroke="black" points="165.25,-259.49 161.75,-249.49 158.25,-259.49 165.25,-259.49"/>
</g>
<!-- e09f0f00&#45;c687&#45;11ee&#45;890b&#45;ac1a3ddd05c7 -->
<g id="node5" class="node">
<title>e09f0f00&#45;c687&#45;11ee&#45;890b&#45;ac1a3ddd05c7</title>
<ellipse fill="none" stroke="black" cx="104.75" cy="-140.55" rx="48.99" ry="18"/>
<text text-anchor="middle" x="104.75" y="-136.85" font-family="Times,serif" font-size="14.00">r_2: level2</text>
</g>
<!-- e09f0c76&#45;c687&#45;11ee&#45;890b&#45;ac1a3ddd05c7&#45;&gt;e09f0f00&#45;c687&#45;11ee&#45;890b&#45;ac1a3ddd05c7 -->
<g id="edge4" class="edge">
<title>e09f0c76&#45;c687&#45;11ee&#45;890b&#45;ac1a3ddd05c7&#45;&gt;e09f0f00&#45;c687&#45;11ee&#45;890b&#45;ac1a3ddd05c7</title>
<path fill="none" stroke="black" d="M143.09,-194.34C136.86,-185.77 129.92,-176.21 123.67,-167.6"/>
<polygon fill="black" stroke="black" points="126.58,-165.66 117.88,-159.63 120.92,-169.77 126.58,-165.66"/>
</g>
<!-- e09f122a&#45;c687&#45;11ee&#45;890b&#45;ac1a3ddd05c7 -->
<g id="node7" class="node">
<title>e09f122a&#45;c687&#45;11ee&#45;890b&#45;ac1a3ddd05c7</title>
<ellipse fill="none" stroke="black" cx="233.75" cy="-140.55" rx="48.99" ry="18"/>
<text text-anchor="middle" x="233.75" y="-136.85" font-family="Times,serif" font-size="14.00">r_4: level2</text>
</g>
<!-- e09f0c76&#45;c687&#45;11ee&#45;890b&#45;ac1a3ddd05c7&#45;&gt;e09f122a&#45;c687&#45;11ee&#45;890b&#45;ac1a3ddd05c7 -->
<g id="edge6" class="edge">
<title>e09f0c76&#45;c687&#45;11ee&#45;890b&#45;ac1a3ddd05c7&#45;&gt;e09f122a&#45;c687&#45;11ee&#45;890b&#45;ac1a3ddd05c7</title>
<path fill="none" stroke="black" d="M185.33,-194.34C193.57,-185.36 202.8,-175.29 210.98,-166.37"/>
<polygon fill="black" stroke="black" points="213.53,-168.78 217.71,-159.04 208.37,-164.05 213.53,-168.78"/>
</g>
<!-- e09f10ae&#45;c687&#45;11ee&#45;890b&#45;ac1a3ddd05c7 -->
<g id="node6" class="node">
<title>e09f10ae&#45;c687&#45;11ee&#45;890b&#45;ac1a3ddd05c7</title>
<polygon fill="none" stroke="black" points="153.25,-43.27 115,-86.32 38.5,-86.32 0.25,-43.27 38.5,-0.22 115,-0.22 153.25,-43.27"/>
<text text-anchor="middle" x="76.75" y="-54.57" font-family="Times,serif" font-size="14.00">rp_20: level2 </text>
<text text-anchor="middle" x="76.75" y="-39.57" font-family="Times,serif" font-size="14.00"> data_support </text>
<text text-anchor="middle" x="76.75" y="-24.57" font-family="Times,serif" font-size="14.00"> cost : 42</text>
</g>
<!-- e09f0f00&#45;c687&#45;11ee&#45;890b&#45;ac1a3ddd05c7&#45;&gt;e09f10ae&#45;c687&#45;11ee&#45;890b&#45;ac1a3ddd05c7 -->
<g id="edge5" class="edge">
<title>e09f0f00&#45;c687&#45;11ee&#45;890b&#45;ac1a3ddd05c7&#45;&gt;e09f10ae&#45;c687&#45;11ee&#45;890b&#45;ac1a3ddd05c7</title>
<path fill="none" stroke="black" d="M99.74,-122.52C97.62,-115.28 95.01,-106.42 92.33,-97.29"/>
<polygon fill="black" stroke="black" points="95.77,-96.59 89.59,-87.98 89.06,-98.56 95.77,-96.59"/>
</g>
<!-- e09f13ba&#45;c687&#45;11ee&#45;890b&#45;ac1a3ddd05c7 -->
<g id="node8" class="node">
<title>e09f13ba&#45;c687&#45;11ee&#45;890b&#45;ac1a3ddd05c7</title>
<polygon fill="none" stroke="black" points="325.25,-43.27 287,-86.32 210.5,-86.32 172.25,-43.27 210.5,-0.22 287,-0.22 325.25,-43.27"/>
<text text-anchor="middle" x="248.75" y="-54.57" font-family="Times,serif" font-size="14.00">rp_20: level2 </text>
<text text-anchor="middle" x="248.75" y="-39.57" font-family="Times,serif" font-size="14.00"> data_support </text>
<text text-anchor="middle" x="248.75" y="-24.57" font-family="Times,serif" font-size="14.00"> cost : 57</text>
</g>
<!-- e09f122a&#45;c687&#45;11ee&#45;890b&#45;ac1a3ddd05c7&#45;&gt;e09f13ba&#45;c687&#45;11ee&#45;890b&#45;ac1a3ddd05c7 -->
<g id="edge7" class="edge">
<title>e09f122a&#45;c687&#45;11ee&#45;890b&#45;ac1a3ddd05c7&#45;&gt;e09f13ba&#45;c687&#45;11ee&#45;890b&#45;ac1a3ddd05c7</title>
<path fill="none" stroke="black" d="M236.43,-122.52C237.55,-115.44 238.91,-106.8 240.31,-97.88"/>
<polygon fill="black" stroke="black" points="243.77,-98.44 241.86,-88.02 236.85,-97.36 243.77,-98.44"/>
</g>
<!-- e09f1702&#45;c687&#45;11ee&#45;890b&#45;ac1a3ddd05c7 -->
<g id="node10" class="node">
<title>e09f1702&#45;c687&#45;11ee&#45;890b&#45;ac1a3ddd05c7</title>
<polygon fill="none" stroke="black" points="434.58,-326.82 392.17,-369.87 307.33,-369.87 264.92,-326.82 307.33,-283.77 392.17,-283.77 434.58,-326.82"/>
<text text-anchor="middle" x="349.75" y="-338.12" font-family="Times,serif" font-size="14.00">rp_7: level2 </text>
<text text-anchor="middle" x="349.75" y="-323.12" font-family="Times,serif" font-size="14.00"> data_gathering </text>
<text text-anchor="middle" x="349.75" y="-308.12" font-family="Times,serif" font-size="14.00"> cost : 100</text>
</g>
<!-- e09f1568&#45;c687&#45;11ee&#45;890b&#45;ac1a3ddd05c7&#45;&gt;e09f1702&#45;c687&#45;11ee&#45;890b&#45;ac1a3ddd05c7 -->
<g id="edge9" class="edge">
<title>e09f1568&#45;c687&#45;11ee&#45;890b&#45;ac1a3ddd05c7&#45;&gt;e09f1702&#45;c687&#45;11ee&#45;890b&#45;ac1a3ddd05c7</title>
<path fill="none" stroke="black" d="M349.75,-405.62C349.75,-398.67 349.75,-390.27 349.75,-381.6"/>
<polygon fill="black" stroke="black" points="353.25,-381.64 349.75,-371.64 346.25,-381.64 353.25,-381.64"/>
</g>
<!-- e09f19dc&#45;c687&#45;11ee&#45;890b&#45;ac1a3ddd05c7 -->
<g id="node12" class="node">
<title>e09f19dc&#45;c687&#45;11ee&#45;890b&#45;ac1a3ddd05c7</title>
<polygon fill="none" stroke="black" points="622.58,-326.82 580.17,-369.87 495.33,-369.87 452.92,-326.82 495.33,-283.77 580.17,-283.77 622.58,-326.82"/>
<text text-anchor="middle" x="537.75" y="-338.12" font-family="Times,serif" font-size="14.00">rp_7: level2 </text>
<text text-anchor="middle" x="537.75" y="-323.12" font-family="Times,serif" font-size="14.00"> data_gathering </text>
<text text-anchor="middle" x="537.75" y="-308.12" font-family="Times,serif" font-size="14.00"> cost : 39</text>
</g>
<!-- e09f1860&#45;c687&#45;11ee&#45;890b&#45;ac1a3ddd05c7&#45;&gt;e09f19dc&#45;c687&#45;11ee&#45;890b&#45;ac1a3ddd05c7 -->
<g id="edge11" class="edge">
<title>e09f1860&#45;c687&#45;11ee&#45;890b&#45;ac1a3ddd05c7&#45;&gt;e09f19dc&#45;c687&#45;11ee&#45;890b&#45;ac1a3ddd05c7</title>
<path fill="none" stroke="black" d="M507.37,-406.06C510.2,-398.75 513.69,-389.77 517.28,-380.54"/>
<polygon fill="black" stroke="black" points="520.44,-382.08 520.79,-371.49 513.91,-379.54 520.44,-382.08"/>
</g>
</g>
</svg>
