<?xml version="1.0" encoding="UTF-8" standalone="no"?>
<!DOCTYPE svg PUBLIC "-//W3C//DTD SVG 1.1//EN"
 "http://www.w3.org/Graphics/SVG/1.1/DTD/svg11.dtd">
<!-- Generated by graphviz version 7.1.0 (0)
 -->
<!-- Title: CallTree Pages: 1 -->
<svg width="556pt" height="256pt"
 viewBox="0.00 0.00 555.54 255.55" xmlns="http://www.w3.org/2000/svg" xmlns:xlink="http://www.w3.org/1999/xlink">
<g id="graph0" class="graph" transform="scale(1 1) rotate(0) translate(4 251.55)">
<title>CallTree</title>
<polygon fill="white" stroke="none" points="-4,4 -4,-251.55 551.54,-251.55 551.54,4 -4,4"/>
<!-- fa073576&#45;c696&#45;11ee&#45;a4c0&#45;ac1a3ddd05c7 -->
<g id="node1" class="node">
<title>fa073576&#45;c696&#45;11ee&#45;a4c0&#45;ac1a3ddd05c7</title>
<polygon fill="none" stroke="black" points="362.77,-247.55 183.77,-247.55 183.77,-194.55 362.77,-194.55 362.77,-247.55"/>
<text text-anchor="middle" x="273.27" y="-232.35" font-family="Times,serif" font-size="14.00">a6: handover_to_engineering </text>
<text text-anchor="middle" x="273.27" y="-217.35" font-family="Times,serif" font-size="14.00"> Type: Core </text>
<text text-anchor="middle" x="273.27" y="-202.35" font-family="Times,serif" font-size="14.00"> Direction: Core</text>
</g>
<!-- fa073a12&#45;c696&#45;11ee&#45;a4c0&#45;ac1a3ddd05c7 -->
<g id="node2" class="node">
<title>fa073a12&#45;c696&#45;11ee&#45;a4c0&#45;ac1a3ddd05c7</title>
<ellipse fill="none" stroke="black" cx="216.27" cy="-140.55" rx="48.99" ry="18"/>
<text text-anchor="middle" x="216.27" y="-136.85" font-family="Times,serif" font-size="14.00">r_1: level1</text>
</g>
<!-- fa073576&#45;c696&#45;11ee&#45;a4c0&#45;ac1a3ddd05c7&#45;&gt;fa073a12&#45;c696&#45;11ee&#45;a4c0&#45;ac1a3ddd05c7 -->
<g id="edge1" class="edge">
<title>fa073576&#45;c696&#45;11ee&#45;a4c0&#45;ac1a3ddd05c7&#45;&gt;fa073a12&#45;c696&#45;11ee&#45;a4c0&#45;ac1a3ddd05c7</title>
<path fill="none" stroke="black" d="M254.61,-194.34C248.38,-185.77 241.44,-176.21 235.19,-167.6"/>
<polygon fill="black" stroke="black" points="238.11,-165.66 229.4,-159.63 232.44,-169.77 238.11,-165.66"/>
</g>
<!-- fa073c6a&#45;c696&#45;11ee&#45;a4c0&#45;ac1a3ddd05c7 -->
<g id="node4" class="node">
<title>fa073c6a&#45;c696&#45;11ee&#45;a4c0&#45;ac1a3ddd05c7</title>
<ellipse fill="none" stroke="black" cx="373.27" cy="-140.55" rx="48.99" ry="18"/>
<text text-anchor="middle" x="373.27" y="-136.85" font-family="Times,serif" font-size="14.00">r_6: level1</text>
</g>
<!-- fa073576&#45;c696&#45;11ee&#45;a4c0&#45;ac1a3ddd05c7&#45;&gt;fa073c6a&#45;c696&#45;11ee&#45;a4c0&#45;ac1a3ddd05c7 -->
<g id="edge3" class="edge">
<title>fa073576&#45;c696&#45;11ee&#45;a4c0&#45;ac1a3ddd05c7&#45;&gt;fa073c6a&#45;c696&#45;11ee&#45;a4c0&#45;ac1a3ddd05c7</title>
<path fill="none" stroke="black" d="M306.29,-194.13C318.5,-184.54 332.25,-173.75 344.09,-164.46"/>
<polygon fill="black" stroke="black" points="346.22,-167.23 351.93,-158.3 341.9,-161.73 346.22,-167.23"/>
</g>
<!-- fa073b5c&#45;c696&#45;11ee&#45;a4c0&#45;ac1a3ddd05c7 -->
<g id="node3" class="node">
<title>fa073b5c&#45;c696&#45;11ee&#45;a4c0&#45;ac1a3ddd05c7</title>
<polygon fill="none" stroke="black" points="264.32,-43.27 198.3,-86.32 66.25,-86.32 0.23,-43.27 66.25,-0.22 198.3,-0.22 264.32,-43.27"/>
<text text-anchor="middle" x="132.27" y="-54.57" font-family="Times,serif" font-size="14.00">rp_16: level3 </text>
<text text-anchor="middle" x="132.27" y="-39.57" font-family="Times,serif" font-size="14.00"> handover_to_engineering </text>
<text text-anchor="middle" x="132.27" y="-24.57" font-family="Times,serif" font-size="14.00"> cost : 15</text>
</g>
<!-- fa073a12&#45;c696&#45;11ee&#45;a4c0&#45;ac1a3ddd05c7&#45;&gt;fa073b5c&#45;c696&#45;11ee&#45;a4c0&#45;ac1a3ddd05c7 -->
<g id="edge2" class="edge">
<title>fa073a12&#45;c696&#45;11ee&#45;a4c0&#45;ac1a3ddd05c7&#45;&gt;fa073b5c&#45;c696&#45;11ee&#45;a4c0&#45;ac1a3ddd05c7</title>
<path fill="none" stroke="black" d="M201.64,-122.95C194.66,-115.04 185.9,-105.1 176.98,-94.98"/>
<polygon fill="black" stroke="black" points="179.71,-92.79 170.48,-87.61 174.46,-97.42 179.71,-92.79"/>
</g>
<!-- fa073d82&#45;c696&#45;11ee&#45;a4c0&#45;ac1a3ddd05c7 -->
<g id="node5" class="node">
<title>fa073d82&#45;c696&#45;11ee&#45;a4c0&#45;ac1a3ddd05c7</title>
<polygon fill="none" stroke="black" points="547.32,-43.27 481.3,-86.32 349.25,-86.32 283.23,-43.27 349.25,-0.22 481.3,-0.22 547.32,-43.27"/>
<text text-anchor="middle" x="415.27" y="-54.57" font-family="Times,serif" font-size="14.00">rp_16: level3 </text>
<text text-anchor="middle" x="415.27" y="-39.57" font-family="Times,serif" font-size="14.00"> handover_to_engineering </text>
<text text-anchor="middle" x="415.27" y="-24.57" font-family="Times,serif" font-size="14.00"> cost : 15</text>
</g>
<!-- fa073c6a&#45;c696&#45;11ee&#45;a4c0&#45;ac1a3ddd05c7&#45;&gt;fa073d82&#45;c696&#45;11ee&#45;a4c0&#45;ac1a3ddd05c7 -->
<g id="edge4" class="edge">
<title>fa073c6a&#45;c696&#45;11ee&#45;a4c0&#45;ac1a3ddd05c7&#45;&gt;fa073d82&#45;c696&#45;11ee&#45;a4c0&#45;ac1a3ddd05c7</title>
<path fill="none" stroke="black" d="M380.78,-122.52C384,-115.2 387.96,-106.23 392.03,-96.99"/>
<polygon fill="black" stroke="black" points="395.2,-98.47 396.04,-87.91 388.8,-95.65 395.2,-98.47"/>
</g>
</g>
</svg>
