<?xml version="1.0" encoding="UTF-8" standalone="no"?>
<!DOCTYPE svg PUBLIC "-//W3C//DTD SVG 1.1//EN"
 "http://www.w3.org/Graphics/SVG/1.1/DTD/svg11.dtd">
<!-- Generated by graphviz version 7.1.0 (0)
 -->
<!-- Title: CallTree Pages: 1 -->
<svg width="978pt" height="256pt"
 viewBox="0.00 0.00 978.34 255.55" xmlns="http://www.w3.org/2000/svg" xmlns:xlink="http://www.w3.org/1999/xlink">
<g id="graph0" class="graph" transform="scale(1 1) rotate(0) translate(4 251.55)">
<title>CallTree</title>
<polygon fill="white" stroke="none" points="-4,4 -4,-251.55 974.34,-251.55 974.34,4 -4,4"/>
<!-- fa044b68&#45;c696&#45;11ee&#45;a4c0&#45;ac1a3ddd05c7 -->
<g id="node1" class="node">
<title>fa044b68&#45;c696&#45;11ee&#45;a4c0&#45;ac1a3ddd05c7</title>
<polygon fill="none" stroke="black" points="520.72,-247.55 415.72,-247.55 415.72,-194.55 520.72,-194.55 520.72,-247.55"/>
<text text-anchor="middle" x="468.22" y="-232.35" font-family="Times,serif" font-size="14.00">a5: send_offer </text>
<text text-anchor="middle" x="468.22" y="-217.35" font-family="Times,serif" font-size="14.00"> Type: Core </text>
<text text-anchor="middle" x="468.22" y="-202.35" font-family="Times,serif" font-size="14.00"> Direction: Core</text>
</g>
<!-- fa04505e&#45;c696&#45;11ee&#45;a4c0&#45;ac1a3ddd05c7 -->
<g id="node2" class="node">
<title>fa04505e&#45;c696&#45;11ee&#45;a4c0&#45;ac1a3ddd05c7</title>
<ellipse fill="none" stroke="black" cx="91.22" cy="-140.55" rx="48.99" ry="18"/>
<text text-anchor="middle" x="91.22" y="-136.85" font-family="Times,serif" font-size="14.00">r_1: level1</text>
</g>
<!-- fa044b68&#45;c696&#45;11ee&#45;a4c0&#45;ac1a3ddd05c7&#45;&gt;fa04505e&#45;c696&#45;11ee&#45;a4c0&#45;ac1a3ddd05c7 -->
<g id="edge1" class="edge">
<title>fa044b68&#45;c696&#45;11ee&#45;a4c0&#45;ac1a3ddd05c7&#45;&gt;fa04505e&#45;c696&#45;11ee&#45;a4c0&#45;ac1a3ddd05c7</title>
<path fill="none" stroke="black" d="M415.4,-209.05C343.65,-194.11 216.11,-167.55 144.25,-152.59"/>
<polygon fill="black" stroke="black" points="145.2,-149.21 134.69,-150.6 143.77,-156.07 145.2,-149.21"/>
</g>
<!-- fa0452ca&#45;c696&#45;11ee&#45;a4c0&#45;ac1a3ddd05c7 -->
<g id="node4" class="node">
<title>fa0452ca&#45;c696&#45;11ee&#45;a4c0&#45;ac1a3ddd05c7</title>
<ellipse fill="none" stroke="black" cx="252.22" cy="-140.55" rx="48.99" ry="18"/>
<text text-anchor="middle" x="252.22" y="-136.85" font-family="Times,serif" font-size="14.00">r_6: level1</text>
</g>
<!-- fa044b68&#45;c696&#45;11ee&#45;a4c0&#45;ac1a3ddd05c7&#45;&gt;fa0452ca&#45;c696&#45;11ee&#45;a4c0&#45;ac1a3ddd05c7 -->
<g id="edge3" class="edge">
<title>fa044b68&#45;c696&#45;11ee&#45;a4c0&#45;ac1a3ddd05c7&#45;&gt;fa0452ca&#45;c696&#45;11ee&#45;a4c0&#45;ac1a3ddd05c7</title>
<path fill="none" stroke="black" d="M415.38,-200.85C379.09,-187.66 331.44,-170.34 297.02,-157.83"/>
<polygon fill="black" stroke="black" points="298.35,-154.59 287.76,-154.46 295.96,-161.17 298.35,-154.59"/>
</g>
<!-- fa0454d2&#45;c696&#45;11ee&#45;a4c0&#45;ac1a3ddd05c7 -->
<g id="node6" class="node">
<title>fa0454d2&#45;c696&#45;11ee&#45;a4c0&#45;ac1a3ddd05c7</title>
<ellipse fill="none" stroke="black" cx="401.22" cy="-140.55" rx="48.99" ry="18"/>
<text text-anchor="middle" x="401.22" y="-136.85" font-family="Times,serif" font-size="14.00">r_2: level2</text>
</g>
<!-- fa044b68&#45;c696&#45;11ee&#45;a4c0&#45;ac1a3ddd05c7&#45;&gt;fa0454d2&#45;c696&#45;11ee&#45;a4c0&#45;ac1a3ddd05c7 -->
<g id="edge5" class="edge">
<title>fa044b68&#45;c696&#45;11ee&#45;a4c0&#45;ac1a3ddd05c7&#45;&gt;fa0454d2&#45;c696&#45;11ee&#45;a4c0&#45;ac1a3ddd05c7</title>
<path fill="none" stroke="black" d="M446.28,-194.34C438.69,-185.45 430.2,-175.5 422.65,-166.65"/>
<polygon fill="black" stroke="black" points="425.33,-164.41 416.18,-159.08 420.01,-168.96 425.33,-164.41"/>
</g>
<!-- fa0456c6&#45;c696&#45;11ee&#45;a4c0&#45;ac1a3ddd05c7 -->
<g id="node8" class="node">
<title>fa0456c6&#45;c696&#45;11ee&#45;a4c0&#45;ac1a3ddd05c7</title>
<ellipse fill="none" stroke="black" cx="536.22" cy="-140.55" rx="48.99" ry="18"/>
<text text-anchor="middle" x="536.22" y="-136.85" font-family="Times,serif" font-size="14.00">r_4: level2</text>
</g>
<!-- fa044b68&#45;c696&#45;11ee&#45;a4c0&#45;ac1a3ddd05c7&#45;&gt;fa0456c6&#45;c696&#45;11ee&#45;a4c0&#45;ac1a3ddd05c7 -->
<g id="edge7" class="edge">
<title>fa044b68&#45;c696&#45;11ee&#45;a4c0&#45;ac1a3ddd05c7&#45;&gt;fa0456c6&#45;c696&#45;11ee&#45;a4c0&#45;ac1a3ddd05c7</title>
<path fill="none" stroke="black" d="M490.48,-194.34C498.27,-185.36 506.99,-175.29 514.71,-166.37"/>
<polygon fill="black" stroke="black" points="517.14,-168.92 521.04,-159.07 511.85,-164.34 517.14,-168.92"/>
</g>
<!-- fa0458b0&#45;c696&#45;11ee&#45;a4c0&#45;ac1a3ddd05c7 -->
<g id="node10" class="node">
<title>fa0458b0&#45;c696&#45;11ee&#45;a4c0&#45;ac1a3ddd05c7</title>
<ellipse fill="none" stroke="black" cx="691.22" cy="-140.55" rx="48.99" ry="18"/>
<text text-anchor="middle" x="691.22" y="-136.85" font-family="Times,serif" font-size="14.00">r_3: level3</text>
</g>
<!-- fa044b68&#45;c696&#45;11ee&#45;a4c0&#45;ac1a3ddd05c7&#45;&gt;fa0458b0&#45;c696&#45;11ee&#45;a4c0&#45;ac1a3ddd05c7 -->
<g id="edge9" class="edge">
<title>fa044b68&#45;c696&#45;11ee&#45;a4c0&#45;ac1a3ddd05c7&#45;&gt;fa0458b0&#45;c696&#45;11ee&#45;a4c0&#45;ac1a3ddd05c7</title>
<path fill="none" stroke="black" d="M521.07,-201.45C559.12,-188.05 609.91,-170.17 646.07,-157.44"/>
<polygon fill="black" stroke="black" points="647.09,-160.79 655.36,-154.17 644.77,-154.19 647.09,-160.79"/>
</g>
<!-- fa045a90&#45;c696&#45;11ee&#45;a4c0&#45;ac1a3ddd05c7 -->
<g id="node12" class="node">
<title>fa045a90&#45;c696&#45;11ee&#45;a4c0&#45;ac1a3ddd05c7</title>
<ellipse fill="none" stroke="black" cx="885.22" cy="-140.55" rx="48.99" ry="18"/>
<text text-anchor="middle" x="885.22" y="-136.85" font-family="Times,serif" font-size="14.00">r_5: level3</text>
</g>
<!-- fa044b68&#45;c696&#45;11ee&#45;a4c0&#45;ac1a3ddd05c7&#45;&gt;fa045a90&#45;c696&#45;11ee&#45;a4c0&#45;ac1a3ddd05c7 -->
<g id="edge11" class="edge">
<title>fa044b68&#45;c696&#45;11ee&#45;a4c0&#45;ac1a3ddd05c7&#45;&gt;fa045a90&#45;c696&#45;11ee&#45;a4c0&#45;ac1a3ddd05c7</title>
<path fill="none" stroke="black" d="M521.03,-210.11C600.78,-195.09 751.13,-166.79 831.44,-151.67"/>
<polygon fill="black" stroke="black" points="831.63,-155.2 840.81,-149.91 830.33,-148.32 831.63,-155.2"/>
</g>
<!-- fa0451bc&#45;c696&#45;11ee&#45;a4c0&#45;ac1a3ddd05c7 -->
<g id="node3" class="node">
<title>fa0451bc&#45;c696&#45;11ee&#45;a4c0&#45;ac1a3ddd05c7</title>
<polygon fill="none" stroke="black" points="140.66,-43.27 105.44,-86.32 35,-86.32 -0.22,-43.27 35,-0.22 105.44,-0.22 140.66,-43.27"/>
<text text-anchor="middle" x="70.22" y="-54.57" font-family="Times,serif" font-size="14.00">rp_5: level1 </text>
<text text-anchor="middle" x="70.22" y="-39.57" font-family="Times,serif" font-size="14.00"> send_offer </text>
<text text-anchor="middle" x="70.22" y="-24.57" font-family="Times,serif" font-size="14.00"> cost : 40</text>
</g>
<!-- fa04505e&#45;c696&#45;11ee&#45;a4c0&#45;ac1a3ddd05c7&#45;&gt;fa0451bc&#45;c696&#45;11ee&#45;a4c0&#45;ac1a3ddd05c7 -->
<g id="edge2" class="edge">
<title>fa04505e&#45;c696&#45;11ee&#45;a4c0&#45;ac1a3ddd05c7&#45;&gt;fa0451bc&#45;c696&#45;11ee&#45;a4c0&#45;ac1a3ddd05c7</title>
<path fill="none" stroke="black" d="M87.46,-122.52C85.89,-115.36 83.96,-106.61 81.97,-97.58"/>
<polygon fill="black" stroke="black" points="85.43,-97.02 79.86,-88 78.59,-98.52 85.43,-97.02"/>
</g>
<!-- fa0453ec&#45;c696&#45;11ee&#45;a4c0&#45;ac1a3ddd05c7 -->
<g id="node5" class="node">
<title>fa0453ec&#45;c696&#45;11ee&#45;a4c0&#45;ac1a3ddd05c7</title>
<polygon fill="none" stroke="black" points="298.66,-43.27 263.44,-86.32 193,-86.32 157.78,-43.27 193,-0.22 263.44,-0.22 298.66,-43.27"/>
<text text-anchor="middle" x="228.22" y="-54.57" font-family="Times,serif" font-size="14.00">rp_5: level1 </text>
<text text-anchor="middle" x="228.22" y="-39.57" font-family="Times,serif" font-size="14.00"> send_offer </text>
<text text-anchor="middle" x="228.22" y="-24.57" font-family="Times,serif" font-size="14.00"> cost : 40</text>
</g>
<!-- fa0452ca&#45;c696&#45;11ee&#45;a4c0&#45;ac1a3ddd05c7&#45;&gt;fa0453ec&#45;c696&#45;11ee&#45;a4c0&#45;ac1a3ddd05c7 -->
<g id="edge4" class="edge">
<title>fa0452ca&#45;c696&#45;11ee&#45;a4c0&#45;ac1a3ddd05c7&#45;&gt;fa0453ec&#45;c696&#45;11ee&#45;a4c0&#45;ac1a3ddd05c7</title>
<path fill="none" stroke="black" d="M247.93,-122.52C246.13,-115.36 243.92,-106.61 241.65,-97.58"/>
<polygon fill="black" stroke="black" points="245.07,-96.84 239.23,-87.99 238.28,-98.55 245.07,-96.84"/>
</g>
<!-- fa0455ea&#45;c696&#45;11ee&#45;a4c0&#45;ac1a3ddd05c7 -->
<g id="node7" class="node">
<title>fa0455ea&#45;c696&#45;11ee&#45;a4c0&#45;ac1a3ddd05c7</title>
<polygon fill="none" stroke="black" points="466.45,-43.27 428.84,-86.32 353.6,-86.32 315.98,-43.27 353.6,-0.22 428.84,-0.22 466.45,-43.27"/>
<text text-anchor="middle" x="391.22" y="-54.57" font-family="Times,serif" font-size="14.00">rp_10: level2 </text>
<text text-anchor="middle" x="391.22" y="-39.57" font-family="Times,serif" font-size="14.00"> send_offer </text>
<text text-anchor="middle" x="391.22" y="-24.57" font-family="Times,serif" font-size="14.00"> cost : 40</text>
</g>
<!-- fa0454d2&#45;c696&#45;11ee&#45;a4c0&#45;ac1a3ddd05c7&#45;&gt;fa0455ea&#45;c696&#45;11ee&#45;a4c0&#45;ac1a3ddd05c7 -->
<g id="edge6" class="edge">
<title>fa0454d2&#45;c696&#45;11ee&#45;a4c0&#45;ac1a3ddd05c7&#45;&gt;fa0455ea&#45;c696&#45;11ee&#45;a4c0&#45;ac1a3ddd05c7</title>
<path fill="none" stroke="black" d="M399.38,-122.07C398.65,-115.05 397.75,-106.54 396.83,-97.75"/>
<polygon fill="black" stroke="black" points="400.34,-97.66 395.82,-88.08 393.38,-98.39 400.34,-97.66"/>
</g>
<!-- fa0457d4&#45;c696&#45;11ee&#45;a4c0&#45;ac1a3ddd05c7 -->
<g id="node9" class="node">
<title>fa0457d4&#45;c696&#45;11ee&#45;a4c0&#45;ac1a3ddd05c7</title>
<polygon fill="none" stroke="black" points="634.45,-43.27 596.84,-86.32 521.6,-86.32 483.98,-43.27 521.6,-0.22 596.84,-0.22 634.45,-43.27"/>
<text text-anchor="middle" x="559.22" y="-54.57" font-family="Times,serif" font-size="14.00">rp_10: level2 </text>
<text text-anchor="middle" x="559.22" y="-39.57" font-family="Times,serif" font-size="14.00"> send_offer </text>
<text text-anchor="middle" x="559.22" y="-24.57" font-family="Times,serif" font-size="14.00"> cost : 50</text>
</g>
<!-- fa0456c6&#45;c696&#45;11ee&#45;a4c0&#45;ac1a3ddd05c7&#45;&gt;fa0457d4&#45;c696&#45;11ee&#45;a4c0&#45;ac1a3ddd05c7 -->
<g id="edge8" class="edge">
<title>fa0456c6&#45;c696&#45;11ee&#45;a4c0&#45;ac1a3ddd05c7&#45;&gt;fa0457d4&#45;c696&#45;11ee&#45;a4c0&#45;ac1a3ddd05c7</title>
<path fill="none" stroke="black" d="M540.33,-122.52C542.06,-115.36 544.17,-106.61 546.35,-97.58"/>
<polygon fill="black" stroke="black" points="549.72,-98.54 548.66,-88 542.91,-96.9 549.72,-98.54"/>
</g>
<!-- fa0459be&#45;c696&#45;11ee&#45;a4c0&#45;ac1a3ddd05c7 -->
<g id="node11" class="node">
<title>fa0459be&#45;c696&#45;11ee&#45;a4c0&#45;ac1a3ddd05c7</title>
<polygon fill="none" stroke="black" points="802.45,-43.27 764.84,-86.32 689.6,-86.32 651.98,-43.27 689.6,-0.22 764.84,-0.22 802.45,-43.27"/>
<text text-anchor="middle" x="727.22" y="-54.57" font-family="Times,serif" font-size="14.00">rp_17: level3 </text>
<text text-anchor="middle" x="727.22" y="-39.57" font-family="Times,serif" font-size="14.00"> send_offer </text>
<text text-anchor="middle" x="727.22" y="-24.57" font-family="Times,serif" font-size="14.00"> cost : 50</text>
</g>
<!-- fa0458b0&#45;c696&#45;11ee&#45;a4c0&#45;ac1a3ddd05c7&#45;&gt;fa0459be&#45;c696&#45;11ee&#45;a4c0&#45;ac1a3ddd05c7 -->
<g id="edge10" class="edge">
<title>fa0458b0&#45;c696&#45;11ee&#45;a4c0&#45;ac1a3ddd05c7&#45;&gt;fa0459be&#45;c696&#45;11ee&#45;a4c0&#45;ac1a3ddd05c7</title>
<path fill="none" stroke="black" d="M697.65,-122.52C700.39,-115.28 703.74,-106.42 707.19,-97.29"/>
<polygon fill="black" stroke="black" points="710.46,-98.53 710.72,-87.94 703.91,-96.06 710.46,-98.53"/>
</g>
<!-- fa045b94&#45;c696&#45;11ee&#45;a4c0&#45;ac1a3ddd05c7 -->
<g id="node13" class="node">
<title>fa045b94&#45;c696&#45;11ee&#45;a4c0&#45;ac1a3ddd05c7</title>
<polygon fill="none" stroke="black" points="970.45,-43.27 932.84,-86.32 857.6,-86.32 819.98,-43.27 857.6,-0.22 932.84,-0.22 970.45,-43.27"/>
<text text-anchor="middle" x="895.22" y="-54.57" font-family="Times,serif" font-size="14.00">rp_17: level3 </text>
<text text-anchor="middle" x="895.22" y="-39.57" font-family="Times,serif" font-size="14.00"> send_offer </text>
<text text-anchor="middle" x="895.22" y="-24.57" font-family="Times,serif" font-size="14.00"> cost : 50</text>
</g>
<!-- fa045a90&#45;c696&#45;11ee&#45;a4c0&#45;ac1a3ddd05c7&#45;&gt;fa045b94&#45;c696&#45;11ee&#45;a4c0&#45;ac1a3ddd05c7 -->
<g id="edge12" class="edge">
<title>fa045a90&#45;c696&#45;11ee&#45;a4c0&#45;ac1a3ddd05c7&#45;&gt;fa045b94&#45;c696&#45;11ee&#45;a4c0&#45;ac1a3ddd05c7</title>
<path fill="none" stroke="black" d="M887.05,-122.07C887.79,-115.05 888.68,-106.54 889.61,-97.75"/>
<polygon fill="black" stroke="black" points="893.06,-98.39 890.62,-88.08 886.1,-97.66 893.06,-98.39"/>
</g>
</g>
</svg>
