<?xml version="1.0" encoding="UTF-8" standalone="no"?>
<!DOCTYPE svg PUBLIC "-//W3C//DTD SVG 1.1//EN"
 "http://www.w3.org/Graphics/SVG/1.1/DTD/svg11.dtd">
<!-- Generated by graphviz version 8.1.0 (20230707.0739)
 -->
<!-- Title: CallTree Pages: 1 -->
<svg width="774pt" height="361pt"
 viewBox="0.00 0.00 774.00 360.90" xmlns="http://www.w3.org/2000/svg" xmlns:xlink="http://www.w3.org/1999/xlink">
<g id="graph0" class="graph" transform="scale(1 1) rotate(0) translate(4 356.9)">
<title>CallTree</title>
<polygon fill="white" stroke="none" points="-4,4 -4,-356.9 770,-356.9 770,4 -4,4"/>
<!-- 48e1a246&#45;c8de&#45;11ee&#45;ab3a&#45;04cf4b795879 -->
<g id="node1" class="node">
<title>48e1a246&#45;c8de&#45;11ee&#45;ab3a&#45;04cf4b795879</title>
<polygon fill="none" stroke="black" points="426.75,-352.9 301.25,-352.9 301.25,-295.4 426.75,-295.4 426.75,-352.9"/>
<text text-anchor="middle" x="364" y="-335.6" font-family="Times,serif" font-size="14.00">a4: create_proposal </text>
<text text-anchor="middle" x="364" y="-319.1" font-family="Times,serif" font-size="14.00"> Type: Core </text>
<text text-anchor="middle" x="364" y="-302.6" font-family="Times,serif" font-size="14.00"> Direction: Core</text>
</g>
<!-- 48e1bbfa&#45;c8de&#45;11ee&#45;ab3a&#45;04cf4b795879 -->
<g id="node2" class="node">
<title>48e1bbfa&#45;c8de&#45;11ee&#45;ab3a&#45;04cf4b795879</title>
<ellipse fill="none" stroke="black" cx="146" cy="-241.4" rx="50.84" ry="18"/>
<text text-anchor="middle" x="146" y="-236.35" font-family="Times,serif" font-size="14.00">r_2: level2</text>
</g>
<!-- 48e1a246&#45;c8de&#45;11ee&#45;ab3a&#45;04cf4b795879&#45;&gt;48e1bbfa&#45;c8de&#45;11ee&#45;ab3a&#45;04cf4b795879 -->
<g id="edge1" class="edge">
<title>48e1a246&#45;c8de&#45;11ee&#45;ab3a&#45;04cf4b795879&#45;&gt;48e1bbfa&#45;c8de&#45;11ee&#45;ab3a&#45;04cf4b795879</title>
<path fill="none" stroke="black" d="M300.94,-299.79C265.43,-286.64 221.95,-270.53 190.09,-258.73"/>
<polygon fill="black" stroke="black" points="191.78,-255.25 181.19,-255.06 189.35,-261.82 191.78,-255.25"/>
</g>
<!-- 48e1cd70&#45;c8de&#45;11ee&#45;ab3a&#45;04cf4b795879 -->
<g id="node4" class="node">
<title>48e1cd70&#45;c8de&#45;11ee&#45;ab3a&#45;04cf4b795879</title>
<ellipse fill="none" stroke="black" cx="304" cy="-241.4" rx="50.84" ry="18"/>
<text text-anchor="middle" x="304" y="-236.35" font-family="Times,serif" font-size="14.00">r_4: level2</text>
</g>
<!-- 48e1a246&#45;c8de&#45;11ee&#45;ab3a&#45;04cf4b795879&#45;&gt;48e1cd70&#45;c8de&#45;11ee&#45;ab3a&#45;04cf4b795879 -->
<g id="edge3" class="edge">
<title>48e1a246&#45;c8de&#45;11ee&#45;ab3a&#45;04cf4b795879&#45;&gt;48e1cd70&#45;c8de&#45;11ee&#45;ab3a&#45;04cf4b795879</title>
<path fill="none" stroke="black" d="M343.01,-294.9C336.39,-285.99 329.12,-276.21 322.68,-267.53"/>
<polygon fill="black" stroke="black" points="325.09,-265.91 316.31,-259.97 319.47,-270.08 325.09,-265.91"/>
</g>
<!-- 48e1dd56&#45;c8de&#45;11ee&#45;ab3a&#45;04cf4b795879 -->
<g id="node6" class="node">
<title>48e1dd56&#45;c8de&#45;11ee&#45;ab3a&#45;04cf4b795879</title>
<ellipse fill="none" stroke="black" cx="462" cy="-241.4" rx="50.84" ry="18"/>
<text text-anchor="middle" x="462" y="-236.35" font-family="Times,serif" font-size="14.00">r_3: level3</text>
</g>
<!-- 48e1a246&#45;c8de&#45;11ee&#45;ab3a&#45;04cf4b795879&#45;&gt;48e1dd56&#45;c8de&#45;11ee&#45;ab3a&#45;04cf4b795879 -->
<g id="edge5" class="edge">
<title>48e1a246&#45;c8de&#45;11ee&#45;ab3a&#45;04cf4b795879&#45;&gt;48e1dd56&#45;c8de&#45;11ee&#45;ab3a&#45;04cf4b795879</title>
<path fill="none" stroke="black" d="M398.27,-294.9C409.95,-285.29 422.85,-274.66 433.97,-265.49"/>
<polygon fill="black" stroke="black" points="435.96,-267.56 441.45,-258.5 431.51,-262.16 435.96,-267.56"/>
</g>
<!-- 48e1f854&#45;c8de&#45;11ee&#45;ab3a&#45;04cf4b795879 -->
<g id="node9" class="node">
<title>48e1f854&#45;c8de&#45;11ee&#45;ab3a&#45;04cf4b795879</title>
<ellipse fill="none" stroke="black" cx="639" cy="-241.4" rx="50.84" ry="18"/>
<text text-anchor="middle" x="639" y="-236.35" font-family="Times,serif" font-size="14.00">r_5: level3</text>
</g>
<!-- 48e1a246&#45;c8de&#45;11ee&#45;ab3a&#45;04cf4b795879&#45;&gt;48e1f854&#45;c8de&#45;11ee&#45;ab3a&#45;04cf4b795879 -->
<g id="edge8" class="edge">
<title>48e1a246&#45;c8de&#45;11ee&#45;ab3a&#45;04cf4b795879&#45;&gt;48e1f854&#45;c8de&#45;11ee&#45;ab3a&#45;04cf4b795879</title>
<path fill="none" stroke="black" d="M427.09,-304.62C476.71,-290.05 544.83,-270.05 590.3,-256.7"/>
<polygon fill="black" stroke="black" points="591.17,-259.79 599.78,-253.62 589.2,-253.08 591.17,-259.79"/>
</g>
<!-- 48e1c5b4&#45;c8de&#45;11ee&#45;ab3a&#45;04cf4b795879 -->
<g id="node3" class="node">
<title>48e1c5b4&#45;c8de&#45;11ee&#45;ab3a&#45;04cf4b795879</title>
<polygon fill="none" stroke="black" points="178,-140.45 133.5,-187.4 44.5,-187.4 0,-140.45 44.5,-93.5 133.5,-93.5 178,-140.45"/>
<text text-anchor="middle" x="89" y="-151.9" font-family="Times,serif" font-size="14.00">rp_15: level3 </text>
<text text-anchor="middle" x="89" y="-135.4" font-family="Times,serif" font-size="14.00"> create_proposal </text>
<text text-anchor="middle" x="89" y="-118.9" font-family="Times,serif" font-size="14.00"> cost : 25</text>
</g>
<!-- 48e1bbfa&#45;c8de&#45;11ee&#45;ab3a&#45;04cf4b795879&#45;&gt;48e1c5b4&#45;c8de&#45;11ee&#45;ab3a&#45;04cf4b795879 -->
<g id="edge2" class="edge">
<title>48e1bbfa&#45;c8de&#45;11ee&#45;ab3a&#45;04cf4b795879&#45;&gt;48e1c5b4&#45;c8de&#45;11ee&#45;ab3a&#45;04cf4b795879</title>
<path fill="none" stroke="black" d="M136.33,-223.61C132,-216.09 126.61,-206.75 121.05,-197.08"/>
<polygon fill="black" stroke="black" points="123.71,-195.69 115.68,-188.77 117.64,-199.18 123.71,-195.69"/>
</g>
<!-- 48e1d626&#45;c8de&#45;11ee&#45;ab3a&#45;04cf4b795879 -->
<g id="node5" class="node">
<title>48e1d626&#45;c8de&#45;11ee&#45;ab3a&#45;04cf4b795879</title>
<polygon fill="none" stroke="black" points="374,-140.45 329.5,-187.4 240.5,-187.4 196,-140.45 240.5,-93.5 329.5,-93.5 374,-140.45"/>
<text text-anchor="middle" x="285" y="-151.9" font-family="Times,serif" font-size="14.00">rp_15: level2 </text>
<text text-anchor="middle" x="285" y="-135.4" font-family="Times,serif" font-size="14.00"> create_proposal </text>
<text text-anchor="middle" x="285" y="-118.9" font-family="Times,serif" font-size="14.00"> cost : 25</text>
</g>
<!-- 48e1cd70&#45;c8de&#45;11ee&#45;ab3a&#45;04cf4b795879&#45;&gt;48e1d626&#45;c8de&#45;11ee&#45;ab3a&#45;04cf4b795879 -->
<g id="edge4" class="edge">
<title>48e1cd70&#45;c8de&#45;11ee&#45;ab3a&#45;04cf4b795879&#45;&gt;48e1d626&#45;c8de&#45;11ee&#45;ab3a&#45;04cf4b795879</title>
<path fill="none" stroke="black" d="M300.69,-223.16C299.33,-216.08 297.67,-207.43 295.94,-198.45"/>
<polygon fill="black" stroke="black" points="299.22,-197.98 293.9,-188.82 292.35,-199.3 299.22,-197.98"/>
</g>
<!-- 48e1e6e8&#45;c8de&#45;11ee&#45;ab3a&#45;04cf4b795879 -->
<g id="node7" class="node">
<title>48e1e6e8&#45;c8de&#45;11ee&#45;ab3a&#45;04cf4b795879</title>
<polygon fill="none" stroke="black" points="570,-140.45 525.5,-187.4 436.5,-187.4 392,-140.45 436.5,-93.5 525.5,-93.5 570,-140.45"/>
<text text-anchor="middle" x="481" y="-151.9" font-family="Times,serif" font-size="14.00">rp_15: level3 </text>
<text text-anchor="middle" x="481" y="-135.4" font-family="Times,serif" font-size="14.00"> create_proposal </text>
<text text-anchor="middle" x="481" y="-118.9" font-family="Times,serif" font-size="14.00"> cost : 29</text>
</g>
<!-- 48e1dd56&#45;c8de&#45;11ee&#45;ab3a&#45;04cf4b795879&#45;&gt;48e1e6e8&#45;c8de&#45;11ee&#45;ab3a&#45;04cf4b795879 -->
<g id="edge6" class="edge">
<title>48e1dd56&#45;c8de&#45;11ee&#45;ab3a&#45;04cf4b795879&#45;&gt;48e1e6e8&#45;c8de&#45;11ee&#45;ab3a&#45;04cf4b795879</title>
<path fill="none" stroke="black" d="M465.31,-223.16C466.67,-216.08 468.33,-207.43 470.05,-198.45"/>
<polygon fill="black" stroke="black" points="473.65,-199.3 472.09,-188.82 466.77,-197.98 473.65,-199.3"/>
</g>
<!-- 48e1ee7c&#45;c8de&#45;11ee&#45;ab3a&#45;04cf4b795879 -->
<g id="node8" class="node">
<title>48e1ee7c&#45;c8de&#45;11ee&#45;ab3a&#45;04cf4b795879</title>
<polygon fill="none" stroke="black" points="554.62,-57.5 407.37,-57.5 407.37,0 554.62,0 554.62,-57.5"/>
<text text-anchor="middle" x="481" y="-40.2" font-family="Times,serif" font-size="14.00">a15: proposal_approval </text>
<text text-anchor="middle" x="481" y="-23.7" font-family="Times,serif" font-size="14.00"> Type: delete </text>
<text text-anchor="middle" x="481" y="-7.2" font-family="Times,serif" font-size="14.00"> Direction: any</text>
</g>
<!-- 48e1e6e8&#45;c8de&#45;11ee&#45;ab3a&#45;04cf4b795879&#45;&gt;48e1ee7c&#45;c8de&#45;11ee&#45;ab3a&#45;04cf4b795879 -->
<g id="edge7" class="edge">
<title>48e1e6e8&#45;c8de&#45;11ee&#45;ab3a&#45;04cf4b795879&#45;&gt;48e1ee7c&#45;c8de&#45;11ee&#45;ab3a&#45;04cf4b795879</title>
<path fill="none" stroke="black" d="M481,-93.24C481,-85.05 481,-76.58 481,-68.61"/>
<polygon fill="black" stroke="black" points="484.5,-68.75 481,-58.75 477.5,-68.75 484.5,-68.75"/>
</g>
<!-- 48e2025e&#45;c8de&#45;11ee&#45;ab3a&#45;04cf4b795879 -->
<g id="node10" class="node">
<title>48e2025e&#45;c8de&#45;11ee&#45;ab3a&#45;04cf4b795879</title>
<polygon fill="none" stroke="black" points="766,-140.45 721.5,-187.4 632.5,-187.4 588,-140.45 632.5,-93.5 721.5,-93.5 766,-140.45"/>
<text text-anchor="middle" x="677" y="-151.9" font-family="Times,serif" font-size="14.00">rp_15: level3 </text>
<text text-anchor="middle" x="677" y="-135.4" font-family="Times,serif" font-size="14.00"> create_proposal </text>
<text text-anchor="middle" x="677" y="-118.9" font-family="Times,serif" font-size="14.00"> cost : 30</text>
</g>
<!-- 48e1f854&#45;c8de&#45;11ee&#45;ab3a&#45;04cf4b795879&#45;&gt;48e2025e&#45;c8de&#45;11ee&#45;ab3a&#45;04cf4b795879 -->
<g id="edge9" class="edge">
<title>48e1f854&#45;c8de&#45;11ee&#45;ab3a&#45;04cf4b795879&#45;&gt;48e2025e&#45;c8de&#45;11ee&#45;ab3a&#45;04cf4b795879</title>
<path fill="none" stroke="black" d="M645.62,-223.16C648.4,-215.92 651.8,-207.06 655.33,-197.86"/>
<polygon fill="black" stroke="black" points="658.87,-199.41 659.19,-188.82 652.34,-196.9 658.87,-199.41"/>
</g>
<!-- 48e20b5a&#45;c8de&#45;11ee&#45;ab3a&#45;04cf4b795879 -->
<g id="node11" class="node">
<title>48e20b5a&#45;c8de&#45;11ee&#45;ab3a&#45;04cf4b795879</title>
<polygon fill="none" stroke="black" points="750.62,-57.5 603.37,-57.5 603.37,0 750.62,0 750.62,-57.5"/>
<text text-anchor="middle" x="677" y="-40.2" font-family="Times,serif" font-size="14.00">a15: proposal_approval </text>
<text text-anchor="middle" x="677" y="-23.7" font-family="Times,serif" font-size="14.00"> Type: delete </text>
<text text-anchor="middle" x="677" y="-7.2" font-family="Times,serif" font-size="14.00"> Direction: any</text>
</g>
<!-- 48e2025e&#45;c8de&#45;11ee&#45;ab3a&#45;04cf4b795879&#45;&gt;48e20b5a&#45;c8de&#45;11ee&#45;ab3a&#45;04cf4b795879 -->
<g id="edge10" class="edge">
<title>48e2025e&#45;c8de&#45;11ee&#45;ab3a&#45;04cf4b795879&#45;&gt;48e20b5a&#45;c8de&#45;11ee&#45;ab3a&#45;04cf4b795879</title>
<path fill="none" stroke="black" d="M677,-93.24C677,-85.05 677,-76.58 677,-68.61"/>
<polygon fill="black" stroke="black" points="680.5,-68.75 677,-58.75 673.5,-68.75 680.5,-68.75"/>
</g>
</g>
</svg>
