<?xml version="1.0" encoding="UTF-8" standalone="no"?>
<!DOCTYPE svg PUBLIC "-//W3C//DTD SVG 1.1//EN"
 "http://www.w3.org/Graphics/SVG/1.1/DTD/svg11.dtd">
<!-- Generated by graphviz version 8.1.0 (20230707.0739)
 -->
<!-- Title: CallTree Pages: 1 -->
<svg width="1749pt" height="858pt"
 viewBox="0.00 0.00 1749.37 858.19" xmlns="http://www.w3.org/2000/svg" xmlns:xlink="http://www.w3.org/1999/xlink">
<g id="graph0" class="graph" transform="scale(1 1) rotate(0) translate(4 854.19)">
<title>CallTree</title>
<polygon fill="white" stroke="none" points="-4,4 -4,-854.19 1745.37,-854.19 1745.37,4 -4,4"/>
<!-- 7f09733c&#45;cb57&#45;11ee&#45;9270&#45;04cf4b795879 -->
<g id="node1" class="node">
<title>7f09733c&#45;cb57&#45;11ee&#45;9270&#45;04cf4b795879</title>
<polygon fill="none" stroke="black" points="1141.49,-850.19 1033.24,-850.19 1033.24,-792.69 1141.49,-792.69 1141.49,-850.19"/>
<text text-anchor="middle" x="1087.37" y="-832.89" font-family="Times,serif" font-size="14.00">a7: design_offer </text>
<text text-anchor="middle" x="1087.37" y="-816.39" font-family="Times,serif" font-size="14.00"> Type: Core </text>
<text text-anchor="middle" x="1087.37" y="-799.89" font-family="Times,serif" font-size="14.00"> Direction: Core</text>
</g>
<!-- 7f09849e&#45;cb57&#45;11ee&#45;9270&#45;04cf4b795879 -->
<g id="node2" class="node">
<title>7f09849e&#45;cb57&#45;11ee&#45;9270&#45;04cf4b795879</title>
<ellipse fill="none" stroke="black" cx="799.37" cy="-738.69" rx="50.84" ry="18"/>
<text text-anchor="middle" x="799.37" y="-733.64" font-family="Times,serif" font-size="14.00">r_1: level1</text>
</g>
<!-- 7f09733c&#45;cb57&#45;11ee&#45;9270&#45;04cf4b795879&#45;&gt;7f09849e&#45;cb57&#45;11ee&#45;9270&#45;04cf4b795879 -->
<g id="edge1" class="edge">
<title>7f09733c&#45;cb57&#45;11ee&#45;9270&#45;04cf4b795879&#45;&gt;7f09849e&#45;cb57&#45;11ee&#45;9270&#45;04cf4b795879</title>
<path fill="none" stroke="black" d="M1032.86,-805.16C979.88,-790.3 900.12,-767.94 848.9,-753.58"/>
<polygon fill="black" stroke="black" points="850,-749.97 839.42,-750.64 848.11,-756.71 850,-749.97"/>
</g>
<!-- 7f09af8c&#45;cb57&#45;11ee&#45;9270&#45;04cf4b795879 -->
<g id="node19" class="node">
<title>7f09af8c&#45;cb57&#45;11ee&#45;9270&#45;04cf4b795879</title>
<ellipse fill="none" stroke="black" cx="943.37" cy="-738.69" rx="50.84" ry="18"/>
<text text-anchor="middle" x="943.37" y="-733.64" font-family="Times,serif" font-size="14.00">r_2: level2</text>
</g>
<!-- 7f09733c&#45;cb57&#45;11ee&#45;9270&#45;04cf4b795879&#45;&gt;7f09af8c&#45;cb57&#45;11ee&#45;9270&#45;04cf4b795879 -->
<g id="edge18" class="edge">
<title>7f09733c&#45;cb57&#45;11ee&#45;9270&#45;04cf4b795879&#45;&gt;7f09af8c&#45;cb57&#45;11ee&#45;9270&#45;04cf4b795879</title>
<path fill="none" stroke="black" d="M1037.01,-792.2C1017.84,-781.45 996.43,-769.45 978.92,-759.63"/>
<polygon fill="black" stroke="black" points="981.07,-756.26 970.63,-754.42 977.64,-762.36 981.07,-756.26"/>
</g>
<!-- 7f09b68a&#45;cb57&#45;11ee&#45;9270&#45;04cf4b795879 -->
<g id="node22" class="node">
<title>7f09b68a&#45;cb57&#45;11ee&#45;9270&#45;04cf4b795879</title>
<ellipse fill="none" stroke="black" cx="1087.37" cy="-738.69" rx="50.84" ry="18"/>
<text text-anchor="middle" x="1087.37" y="-733.64" font-family="Times,serif" font-size="14.00">r_4: level2</text>
</g>
<!-- 7f09733c&#45;cb57&#45;11ee&#45;9270&#45;04cf4b795879&#45;&gt;7f09b68a&#45;cb57&#45;11ee&#45;9270&#45;04cf4b795879 -->
<g id="edge21" class="edge">
<title>7f09733c&#45;cb57&#45;11ee&#45;9270&#45;04cf4b795879&#45;&gt;7f09b68a&#45;cb57&#45;11ee&#45;9270&#45;04cf4b795879</title>
<path fill="none" stroke="black" d="M1087.37,-792.2C1087.37,-784.25 1087.37,-775.62 1087.37,-767.69"/>
<polygon fill="black" stroke="black" points="1090.87,-767.74 1087.37,-757.74 1083.87,-767.74 1090.87,-767.74"/>
</g>
<!-- 7f09bb30&#45;cb57&#45;11ee&#45;9270&#45;04cf4b795879 -->
<g id="node24" class="node">
<title>7f09bb30&#45;cb57&#45;11ee&#45;9270&#45;04cf4b795879</title>
<ellipse fill="none" stroke="black" cx="1231.37" cy="-738.69" rx="50.84" ry="18"/>
<text text-anchor="middle" x="1231.37" y="-733.64" font-family="Times,serif" font-size="14.00">r_3: level3</text>
</g>
<!-- 7f09733c&#45;cb57&#45;11ee&#45;9270&#45;04cf4b795879&#45;&gt;7f09bb30&#45;cb57&#45;11ee&#45;9270&#45;04cf4b795879 -->
<g id="edge23" class="edge">
<title>7f09733c&#45;cb57&#45;11ee&#45;9270&#45;04cf4b795879&#45;&gt;7f09bb30&#45;cb57&#45;11ee&#45;9270&#45;04cf4b795879</title>
<path fill="none" stroke="black" d="M1137.73,-792.2C1156.89,-781.45 1178.31,-769.45 1195.82,-759.63"/>
<polygon fill="black" stroke="black" points="1197.09,-762.36 1204.1,-754.42 1193.67,-756.26 1197.09,-762.36"/>
</g>
<!-- 7f09e95c&#45;cb57&#45;11ee&#45;9270&#45;04cf4b795879 -->
<g id="node43" class="node">
<title>7f09e95c&#45;cb57&#45;11ee&#45;9270&#45;04cf4b795879</title>
<ellipse fill="none" stroke="black" cx="1387.37" cy="-738.69" rx="50.84" ry="18"/>
<text text-anchor="middle" x="1387.37" y="-733.64" font-family="Times,serif" font-size="14.00">r_5: level3</text>
</g>
<!-- 7f09733c&#45;cb57&#45;11ee&#45;9270&#45;04cf4b795879&#45;&gt;7f09e95c&#45;cb57&#45;11ee&#45;9270&#45;04cf4b795879 -->
<g id="edge42" class="edge">
<title>7f09733c&#45;cb57&#45;11ee&#45;9270&#45;04cf4b795879&#45;&gt;7f09e95c&#45;cb57&#45;11ee&#45;9270&#45;04cf4b795879</title>
<path fill="none" stroke="black" d="M1141.7,-805.82C1197.42,-790.82 1283.37,-767.68 1337.43,-753.13"/>
<polygon fill="black" stroke="black" points="1338.06,-756.32 1346.8,-750.34 1336.24,-749.56 1338.06,-756.32"/>
</g>
<!-- 7f09876e&#45;cb57&#45;11ee&#45;9270&#45;04cf4b795879 -->
<g id="node3" class="node">
<title>7f09876e&#45;cb57&#45;11ee&#45;9270&#45;04cf4b795879</title>
<polygon fill="none" stroke="black" points="784.28,-637.74 746.83,-684.69 671.91,-684.69 634.46,-637.74 671.91,-590.79 746.83,-590.79 784.28,-637.74"/>
<text text-anchor="middle" x="709.37" y="-649.19" font-family="Times,serif" font-size="14.00">rp_4: level1 </text>
<text text-anchor="middle" x="709.37" y="-632.69" font-family="Times,serif" font-size="14.00"> design_offer </text>
<text text-anchor="middle" x="709.37" y="-616.19" font-family="Times,serif" font-size="14.00"> cost : 25</text>
</g>
<!-- 7f09849e&#45;cb57&#45;11ee&#45;9270&#45;04cf4b795879&#45;&gt;7f09876e&#45;cb57&#45;11ee&#45;9270&#45;04cf4b795879 -->
<g id="edge2" class="edge">
<title>7f09849e&#45;cb57&#45;11ee&#45;9270&#45;04cf4b795879&#45;&gt;7f09876e&#45;cb57&#45;11ee&#45;9270&#45;04cf4b795879</title>
<path fill="none" stroke="black" d="M784.51,-721.35C776.64,-712.7 766.49,-701.55 756.22,-690.25"/>
<polygon fill="black" stroke="black" points="759.43,-688.48 750.11,-683.44 754.25,-693.19 759.43,-688.48"/>
</g>
<!-- 7f098994&#45;cb57&#45;11ee&#45;9270&#45;04cf4b795879 -->
<g id="node4" class="node">
<title>7f098994&#45;cb57&#45;11ee&#45;9270&#45;04cf4b795879</title>
<polygon fill="none" stroke="black" points="765.37,-554.79 641.37,-554.79 641.37,-497.29 765.37,-497.29 765.37,-554.79"/>
<text text-anchor="middle" x="703.37" y="-537.49" font-family="Times,serif" font-size="14.00">r0: create_proposal </text>
<text text-anchor="middle" x="703.37" y="-520.99" font-family="Times,serif" font-size="14.00"> Type: insert </text>
<text text-anchor="middle" x="703.37" y="-504.49" font-family="Times,serif" font-size="14.00"> Direction: parallel</text>
</g>
<!-- 7f09876e&#45;cb57&#45;11ee&#45;9270&#45;04cf4b795879&#45;&gt;7f098994&#45;cb57&#45;11ee&#45;9270&#45;04cf4b795879 -->
<g id="edge3" class="edge">
<title>7f09876e&#45;cb57&#45;11ee&#45;9270&#45;04cf4b795879&#45;&gt;7f098994&#45;cb57&#45;11ee&#45;9270&#45;04cf4b795879</title>
<path fill="none" stroke="black" d="M706.84,-590.54C706.39,-582.34 705.93,-573.88 705.49,-565.91"/>
<polygon fill="black" stroke="black" points="708.94,-565.84 704.9,-556.05 701.95,-566.22 708.94,-565.84"/>
</g>
<!-- 7f098f0c&#45;cb57&#45;11ee&#45;9270&#45;04cf4b795879 -->
<g id="node5" class="node">
<title>7f098f0c&#45;cb57&#45;11ee&#45;9270&#45;04cf4b795879</title>
<ellipse fill="none" stroke="black" cx="524.37" cy="-443.29" rx="50.84" ry="18"/>
<text text-anchor="middle" x="524.37" y="-438.24" font-family="Times,serif" font-size="14.00">r_2: level2</text>
</g>
<!-- 7f098994&#45;cb57&#45;11ee&#45;9270&#45;04cf4b795879&#45;&gt;7f098f0c&#45;cb57&#45;11ee&#45;9270&#45;04cf4b795879 -->
<g id="edge4" class="edge">
<title>7f098994&#45;cb57&#45;11ee&#45;9270&#45;04cf4b795879&#45;&gt;7f098f0c&#45;cb57&#45;11ee&#45;9270&#45;04cf4b795879</title>
<path fill="none" stroke="black" d="M641.02,-496.92C615.64,-485.47 587.05,-472.57 564.53,-462.41"/>
<polygon fill="black" stroke="black" points="566.19,-458.87 555.64,-457.95 563.31,-465.25 566.19,-458.87"/>
</g>
<!-- 7f09a6f4&#45;cb57&#45;11ee&#45;9270&#45;04cf4b795879 -->
<g id="node15" class="node">
<title>7f09a6f4&#45;cb57&#45;11ee&#45;9270&#45;04cf4b795879</title>
<ellipse fill="none" stroke="black" cx="682.37" cy="-443.29" rx="50.84" ry="18"/>
<text text-anchor="middle" x="682.37" y="-438.24" font-family="Times,serif" font-size="14.00">r_3: level3</text>
</g>
<!-- 7f098994&#45;cb57&#45;11ee&#45;9270&#45;04cf4b795879&#45;&gt;7f09a6f4&#45;cb57&#45;11ee&#45;9270&#45;04cf4b795879 -->
<g id="edge14" class="edge">
<title>7f098994&#45;cb57&#45;11ee&#45;9270&#45;04cf4b795879&#45;&gt;7f09a6f4&#45;cb57&#45;11ee&#45;9270&#45;04cf4b795879</title>
<path fill="none" stroke="black" d="M696.02,-496.8C693.91,-488.67 691.61,-479.82 689.51,-471.74"/>
<polygon fill="black" stroke="black" points="692.71,-471.14 686.8,-462.34 685.93,-472.9 692.71,-471.14"/>
</g>
<!-- 7f09ab40&#45;cb57&#45;11ee&#45;9270&#45;04cf4b795879 -->
<g id="node17" class="node">
<title>7f09ab40&#45;cb57&#45;11ee&#45;9270&#45;04cf4b795879</title>
<ellipse fill="none" stroke="black" cx="830.37" cy="-443.29" rx="50.84" ry="18"/>
<text text-anchor="middle" x="830.37" y="-438.24" font-family="Times,serif" font-size="14.00">r_5: level3</text>
</g>
<!-- 7f098994&#45;cb57&#45;11ee&#45;9270&#45;04cf4b795879&#45;&gt;7f09ab40&#45;cb57&#45;11ee&#45;9270&#45;04cf4b795879 -->
<g id="edge16" class="edge">
<title>7f098994&#45;cb57&#45;11ee&#45;9270&#45;04cf4b795879&#45;&gt;7f09ab40&#45;cb57&#45;11ee&#45;9270&#45;04cf4b795879</title>
<path fill="none" stroke="black" d="M747.79,-496.8C764.14,-486.41 782.35,-474.83 797.5,-465.2"/>
<polygon fill="black" stroke="black" points="798.93,-467.8 805.49,-459.48 795.17,-461.89 798.93,-467.8"/>
</g>
<!-- 7f0991fa&#45;cb57&#45;11ee&#45;9270&#45;04cf4b795879 -->
<g id="node6" class="node">
<title>7f0991fa&#45;cb57&#45;11ee&#45;9270&#45;04cf4b795879</title>
<polygon fill="none" stroke="black" points="565.37,-342.35 520.87,-389.29 431.87,-389.29 387.37,-342.35 431.87,-295.4 520.87,-295.4 565.37,-342.35"/>
<text text-anchor="middle" x="476.37" y="-353.8" font-family="Times,serif" font-size="14.00">rp_15: level3 </text>
<text text-anchor="middle" x="476.37" y="-337.3" font-family="Times,serif" font-size="14.00"> create_proposal </text>
<text text-anchor="middle" x="476.37" y="-320.8" font-family="Times,serif" font-size="14.00"> cost : 100</text>
</g>
<!-- 7f098f0c&#45;cb57&#45;11ee&#45;9270&#45;04cf4b795879&#45;&gt;7f0991fa&#45;cb57&#45;11ee&#45;9270&#45;04cf4b795879 -->
<g id="edge5" class="edge">
<title>7f098f0c&#45;cb57&#45;11ee&#45;9270&#45;04cf4b795879&#45;&gt;7f0991fa&#45;cb57&#45;11ee&#45;9270&#45;04cf4b795879</title>
<path fill="none" stroke="black" d="M516.01,-425.06C512.46,-417.74 508.1,-408.76 503.59,-399.46"/>
<polygon fill="black" stroke="black" points="506.38,-398.18 498.86,-390.71 500.08,-401.24 506.38,-398.18"/>
</g>
<!-- 7f099416&#45;cb57&#45;11ee&#45;9270&#45;04cf4b795879 -->
<g id="node7" class="node">
<title>7f099416&#45;cb57&#45;11ee&#45;9270&#45;04cf4b795879</title>
<polygon fill="none" stroke="black" points="413.62,-259.4 267.12,-259.4 267.12,-201.9 413.62,-201.9 413.62,-259.4"/>
<text text-anchor="middle" x="340.37" y="-242.1" font-family="Times,serif" font-size="14.00">r0: four_eyes_principle </text>
<text text-anchor="middle" x="340.37" y="-225.6" font-family="Times,serif" font-size="14.00"> Type: insert </text>
<text text-anchor="middle" x="340.37" y="-209.1" font-family="Times,serif" font-size="14.00"> Direction: before</text>
</g>
<!-- 7f0991fa&#45;cb57&#45;11ee&#45;9270&#45;04cf4b795879&#45;&gt;7f099416&#45;cb57&#45;11ee&#45;9270&#45;04cf4b795879 -->
<g id="edge6" class="edge">
<title>7f0991fa&#45;cb57&#45;11ee&#45;9270&#45;04cf4b795879&#45;&gt;7f099416&#45;cb57&#45;11ee&#45;9270&#45;04cf4b795879</title>
<path fill="none" stroke="black" d="M426.11,-300.81C412.08,-289.49 396.96,-277.29 383.38,-266.34"/>
<polygon fill="black" stroke="black" points="386.13,-263.26 376.15,-259.7 381.74,-268.7 386.13,-263.26"/>
</g>
<!-- 7f09a474&#45;cb57&#45;11ee&#45;9270&#45;04cf4b795879 -->
<g id="node14" class="node">
<title>7f09a474&#45;cb57&#45;11ee&#45;9270&#45;04cf4b795879</title>
<polygon fill="none" stroke="black" points="570.87,-259.4 431.87,-259.4 431.87,-201.9 570.87,-201.9 570.87,-259.4"/>
<text text-anchor="middle" x="501.37" y="-242.1" font-family="Times,serif" font-size="14.00">r0: proposal_approval </text>
<text text-anchor="middle" x="501.37" y="-225.6" font-family="Times,serif" font-size="14.00"> Type: delete </text>
<text text-anchor="middle" x="501.37" y="-209.1" font-family="Times,serif" font-size="14.00"> Direction: any</text>
</g>
<!-- 7f0991fa&#45;cb57&#45;11ee&#45;9270&#45;04cf4b795879&#45;&gt;7f09a474&#45;cb57&#45;11ee&#45;9270&#45;04cf4b795879 -->
<g id="edge13" class="edge">
<title>7f0991fa&#45;cb57&#45;11ee&#45;9270&#45;04cf4b795879&#45;&gt;7f09a474&#45;cb57&#45;11ee&#45;9270&#45;04cf4b795879</title>
<path fill="none" stroke="black" d="M486.9,-295.14C488.79,-286.85 490.74,-278.29 492.57,-270.24"/>
<polygon fill="black" stroke="black" points="496.18,-271.18 494.99,-260.65 489.35,-269.62 496.18,-271.18"/>
</g>
<!-- 7f09977c&#45;cb57&#45;11ee&#45;9270&#45;04cf4b795879 -->
<g id="node8" class="node">
<title>7f09977c&#45;cb57&#45;11ee&#45;9270&#45;04cf4b795879</title>
<ellipse fill="none" stroke="black" cx="164.37" cy="-147.9" rx="50.84" ry="18"/>
<text text-anchor="middle" x="164.37" y="-142.85" font-family="Times,serif" font-size="14.00">r_4: level2</text>
</g>
<!-- 7f099416&#45;cb57&#45;11ee&#45;9270&#45;04cf4b795879&#45;&gt;7f09977c&#45;cb57&#45;11ee&#45;9270&#45;04cf4b795879 -->
<g id="edge7" class="edge">
<title>7f099416&#45;cb57&#45;11ee&#45;9270&#45;04cf4b795879&#45;&gt;7f09977c&#45;cb57&#45;11ee&#45;9270&#45;04cf4b795879</title>
<path fill="none" stroke="black" d="M278.81,-201.4C254.17,-190.1 226.47,-177.39 204.5,-167.31"/>
<polygon fill="black" stroke="black" points="206.07,-163.72 195.52,-162.73 203.15,-170.08 206.07,-163.72"/>
</g>
<!-- 7f099be6&#45;cb57&#45;11ee&#45;9270&#45;04cf4b795879 -->
<g id="node10" class="node">
<title>7f099be6&#45;cb57&#45;11ee&#45;9270&#45;04cf4b795879</title>
<ellipse fill="none" stroke="black" cx="340.37" cy="-147.9" rx="50.84" ry="18"/>
<text text-anchor="middle" x="340.37" y="-142.85" font-family="Times,serif" font-size="14.00">r_3: level3</text>
</g>
<!-- 7f099416&#45;cb57&#45;11ee&#45;9270&#45;04cf4b795879&#45;&gt;7f099be6&#45;cb57&#45;11ee&#45;9270&#45;04cf4b795879 -->
<g id="edge9" class="edge">
<title>7f099416&#45;cb57&#45;11ee&#45;9270&#45;04cf4b795879&#45;&gt;7f099be6&#45;cb57&#45;11ee&#45;9270&#45;04cf4b795879</title>
<path fill="none" stroke="black" d="M340.37,-201.4C340.37,-193.46 340.37,-184.82 340.37,-176.89"/>
<polygon fill="black" stroke="black" points="343.87,-176.94 340.37,-166.94 336.87,-176.94 343.87,-176.94"/>
</g>
<!-- 7f09a028&#45;cb57&#45;11ee&#45;9270&#45;04cf4b795879 -->
<g id="node12" class="node">
<title>7f09a028&#45;cb57&#45;11ee&#45;9270&#45;04cf4b795879</title>
<ellipse fill="none" stroke="black" cx="517.37" cy="-147.9" rx="50.84" ry="18"/>
<text text-anchor="middle" x="517.37" y="-142.85" font-family="Times,serif" font-size="14.00">r_5: level3</text>
</g>
<!-- 7f099416&#45;cb57&#45;11ee&#45;9270&#45;04cf4b795879&#45;&gt;7f09a028&#45;cb57&#45;11ee&#45;9270&#45;04cf4b795879 -->
<g id="edge11" class="edge">
<title>7f099416&#45;cb57&#45;11ee&#45;9270&#45;04cf4b795879&#45;&gt;7f09a028&#45;cb57&#45;11ee&#45;9270&#45;04cf4b795879</title>
<path fill="none" stroke="black" d="M402.28,-201.4C427.17,-190.05 455.17,-177.27 477.31,-167.17"/>
<polygon fill="black" stroke="black" points="478.4,-170.07 486.04,-162.73 475.49,-163.7 478.4,-170.07"/>
</g>
<!-- 7f0999f2&#45;cb57&#45;11ee&#45;9270&#45;04cf4b795879 -->
<g id="node9" class="node">
<title>7f0999f2&#45;cb57&#45;11ee&#45;9270&#45;04cf4b795879</title>
<polygon fill="none" stroke="black" points="214.74,-46.95 161.05,-93.9 53.68,-93.9 0,-46.95 53.68,0 161.05,0 214.74,-46.95"/>
<text text-anchor="middle" x="107.37" y="-58.4" font-family="Times,serif" font-size="14.00">rp_24: level3 </text>
<text text-anchor="middle" x="107.37" y="-41.9" font-family="Times,serif" font-size="14.00"> four_eyes_principle </text>
<text text-anchor="middle" x="107.37" y="-25.4" font-family="Times,serif" font-size="14.00"> cost : 63</text>
</g>
<!-- 7f09977c&#45;cb57&#45;11ee&#45;9270&#45;04cf4b795879&#45;&gt;7f0999f2&#45;cb57&#45;11ee&#45;9270&#45;04cf4b795879 -->
<g id="edge8" class="edge">
<title>7f09977c&#45;cb57&#45;11ee&#45;9270&#45;04cf4b795879&#45;&gt;7f0999f2&#45;cb57&#45;11ee&#45;9270&#45;04cf4b795879</title>
<path fill="none" stroke="black" d="M154.7,-130.11C150.37,-122.59 144.98,-113.25 139.42,-103.58"/>
<polygon fill="black" stroke="black" points="142.08,-102.19 134.05,-95.27 136.01,-105.68 142.08,-102.19"/>
</g>
<!-- 7f099e48&#45;cb57&#45;11ee&#45;9270&#45;04cf4b795879 -->
<g id="node11" class="node">
<title>7f099e48&#45;cb57&#45;11ee&#45;9270&#45;04cf4b795879</title>
<polygon fill="none" stroke="black" points="447.74,-46.95 394.05,-93.9 286.68,-93.9 233,-46.95 286.68,0 394.05,0 447.74,-46.95"/>
<text text-anchor="middle" x="340.37" y="-58.4" font-family="Times,serif" font-size="14.00">rp_24: level3 </text>
<text text-anchor="middle" x="340.37" y="-41.9" font-family="Times,serif" font-size="14.00"> four_eyes_principle </text>
<text text-anchor="middle" x="340.37" y="-25.4" font-family="Times,serif" font-size="14.00"> cost : 53</text>
</g>
<!-- 7f099be6&#45;cb57&#45;11ee&#45;9270&#45;04cf4b795879&#45;&gt;7f099e48&#45;cb57&#45;11ee&#45;9270&#45;04cf4b795879 -->
<g id="edge10" class="edge">
<title>7f099be6&#45;cb57&#45;11ee&#45;9270&#45;04cf4b795879&#45;&gt;7f099e48&#45;cb57&#45;11ee&#45;9270&#45;04cf4b795879</title>
<path fill="none" stroke="black" d="M340.37,-129.66C340.37,-122.65 340.37,-114.12 340.37,-105.24"/>
<polygon fill="black" stroke="black" points="343.87,-105.32 340.37,-95.32 336.87,-105.32 343.87,-105.32"/>
</g>
<!-- 7f09a294&#45;cb57&#45;11ee&#45;9270&#45;04cf4b795879 -->
<g id="node13" class="node">
<title>7f09a294&#45;cb57&#45;11ee&#45;9270&#45;04cf4b795879</title>
<polygon fill="none" stroke="black" points="680.74,-46.95 627.05,-93.9 519.68,-93.9 466,-46.95 519.68,0 627.05,0 680.74,-46.95"/>
<text text-anchor="middle" x="573.37" y="-58.4" font-family="Times,serif" font-size="14.00">rp_24: level3 </text>
<text text-anchor="middle" x="573.37" y="-41.9" font-family="Times,serif" font-size="14.00"> four_eyes_principle </text>
<text text-anchor="middle" x="573.37" y="-25.4" font-family="Times,serif" font-size="14.00"> cost : 19</text>
</g>
<!-- 7f09a028&#45;cb57&#45;11ee&#45;9270&#45;04cf4b795879&#45;&gt;7f09a294&#45;cb57&#45;11ee&#45;9270&#45;04cf4b795879 -->
<g id="edge12" class="edge">
<title>7f09a028&#45;cb57&#45;11ee&#45;9270&#45;04cf4b795879&#45;&gt;7f09a294&#45;cb57&#45;11ee&#45;9270&#45;04cf4b795879</title>
<path fill="none" stroke="black" d="M526.87,-130.11C531.13,-122.59 536.41,-113.25 541.88,-103.58"/>
<polygon fill="black" stroke="black" points="545.28,-105.69 547.15,-95.27 539.18,-102.25 545.28,-105.69"/>
</g>
<!-- 7f09a960&#45;cb57&#45;11ee&#45;9270&#45;04cf4b795879 -->
<g id="node16" class="node">
<title>7f09a960&#45;cb57&#45;11ee&#45;9270&#45;04cf4b795879</title>
<polygon fill="none" stroke="black" points="761.37,-342.35 716.87,-389.29 627.87,-389.29 583.37,-342.35 627.87,-295.4 716.87,-295.4 761.37,-342.35"/>
<text text-anchor="middle" x="672.37" y="-353.8" font-family="Times,serif" font-size="14.00">rp_15: level3 </text>
<text text-anchor="middle" x="672.37" y="-337.3" font-family="Times,serif" font-size="14.00"> create_proposal </text>
<text text-anchor="middle" x="672.37" y="-320.8" font-family="Times,serif" font-size="14.00"> cost : 26</text>
</g>
<!-- 7f09a6f4&#45;cb57&#45;11ee&#45;9270&#45;04cf4b795879&#45;&gt;7f09a960&#45;cb57&#45;11ee&#45;9270&#45;04cf4b795879 -->
<g id="edge15" class="edge">
<title>7f09a6f4&#45;cb57&#45;11ee&#45;9270&#45;04cf4b795879&#45;&gt;7f09a960&#45;cb57&#45;11ee&#45;9270&#45;04cf4b795879</title>
<path fill="none" stroke="black" d="M680.63,-425.06C679.92,-418.05 679.06,-409.52 678.16,-400.64"/>
<polygon fill="black" stroke="black" points="681.54,-400.31 677.06,-390.71 674.58,-401.02 681.54,-400.31"/>
</g>
<!-- 7f09ad8e&#45;cb57&#45;11ee&#45;9270&#45;04cf4b795879 -->
<g id="node18" class="node">
<title>7f09ad8e&#45;cb57&#45;11ee&#45;9270&#45;04cf4b795879</title>
<polygon fill="none" stroke="black" points="957.37,-342.35 912.87,-389.29 823.87,-389.29 779.37,-342.35 823.87,-295.4 912.87,-295.4 957.37,-342.35"/>
<text text-anchor="middle" x="868.37" y="-353.8" font-family="Times,serif" font-size="14.00">rp_15: level3 </text>
<text text-anchor="middle" x="868.37" y="-337.3" font-family="Times,serif" font-size="14.00"> create_proposal </text>
<text text-anchor="middle" x="868.37" y="-320.8" font-family="Times,serif" font-size="14.00"> cost : 98</text>
</g>
<!-- 7f09ab40&#45;cb57&#45;11ee&#45;9270&#45;04cf4b795879&#45;&gt;7f09ad8e&#45;cb57&#45;11ee&#45;9270&#45;04cf4b795879 -->
<g id="edge17" class="edge">
<title>7f09ab40&#45;cb57&#45;11ee&#45;9270&#45;04cf4b795879&#45;&gt;7f09ad8e&#45;cb57&#45;11ee&#45;9270&#45;04cf4b795879</title>
<path fill="none" stroke="black" d="M836.99,-425.06C839.77,-417.82 843.17,-408.95 846.7,-399.76"/>
<polygon fill="black" stroke="black" points="850.24,-401.3 850.56,-390.71 843.71,-398.79 850.24,-401.3"/>
</g>
<!-- 7f09b20c&#45;cb57&#45;11ee&#45;9270&#45;04cf4b795879 -->
<g id="node20" class="node">
<title>7f09b20c&#45;cb57&#45;11ee&#45;9270&#45;04cf4b795879</title>
<polygon fill="none" stroke="black" points="994.28,-637.74 956.83,-684.69 881.91,-684.69 844.46,-637.74 881.91,-590.79 956.83,-590.79 994.28,-637.74"/>
<text text-anchor="middle" x="919.37" y="-649.19" font-family="Times,serif" font-size="14.00">rp_89: level2 </text>
<text text-anchor="middle" x="919.37" y="-632.69" font-family="Times,serif" font-size="14.00"> design_offer </text>
<text text-anchor="middle" x="919.37" y="-616.19" font-family="Times,serif" font-size="14.00"> cost : 18</text>
</g>
<!-- 7f09af8c&#45;cb57&#45;11ee&#45;9270&#45;04cf4b795879&#45;&gt;7f09b20c&#45;cb57&#45;11ee&#45;9270&#45;04cf4b795879 -->
<g id="edge19" class="edge">
<title>7f09af8c&#45;cb57&#45;11ee&#45;9270&#45;04cf4b795879&#45;&gt;7f09b20c&#45;cb57&#45;11ee&#45;9270&#45;04cf4b795879</title>
<path fill="none" stroke="black" d="M939.19,-720.46C937.47,-713.37 935.37,-704.73 933.19,-695.74"/>
<polygon fill="black" stroke="black" points="936.37,-695 930.62,-686.11 929.57,-696.65 936.37,-695"/>
</g>
<!-- 7f09b40a&#45;cb57&#45;11ee&#45;9270&#45;04cf4b795879 -->
<g id="node21" class="node">
<title>7f09b40a&#45;cb57&#45;11ee&#45;9270&#45;04cf4b795879</title>
<polygon fill="none" stroke="black" points="989.99,-554.79 848.74,-554.79 848.74,-497.29 989.99,-497.29 989.99,-554.79"/>
<text text-anchor="middle" x="919.37" y="-537.49" font-family="Times,serif" font-size="14.00">r0: head_confirmation </text>
<text text-anchor="middle" x="919.37" y="-520.99" font-family="Times,serif" font-size="14.00"> Type: insert </text>
<text text-anchor="middle" x="919.37" y="-504.49" font-family="Times,serif" font-size="14.00"> Direction: before</text>
</g>
<!-- 7f09b20c&#45;cb57&#45;11ee&#45;9270&#45;04cf4b795879&#45;&gt;7f09b40a&#45;cb57&#45;11ee&#45;9270&#45;04cf4b795879 -->
<g id="edge20" class="edge">
<title>7f09b20c&#45;cb57&#45;11ee&#45;9270&#45;04cf4b795879&#45;&gt;7f09b40a&#45;cb57&#45;11ee&#45;9270&#45;04cf4b795879</title>
<path fill="none" stroke="black" d="M919.37,-590.54C919.37,-582.34 919.37,-573.88 919.37,-565.91"/>
<polygon fill="black" stroke="black" points="922.87,-566.05 919.37,-556.05 915.87,-566.05 922.87,-566.05"/>
</g>
<!-- 7f09b93c&#45;cb57&#45;11ee&#45;9270&#45;04cf4b795879 -->
<g id="node23" class="node">
<title>7f09b93c&#45;cb57&#45;11ee&#45;9270&#45;04cf4b795879</title>
<polygon fill="none" stroke="black" points="1162.28,-637.74 1124.83,-684.69 1049.91,-684.69 1012.46,-637.74 1049.91,-590.79 1124.83,-590.79 1162.28,-637.74"/>
<text text-anchor="middle" x="1087.37" y="-649.19" font-family="Times,serif" font-size="14.00">rp_99: level2 </text>
<text text-anchor="middle" x="1087.37" y="-632.69" font-family="Times,serif" font-size="14.00"> design_offer </text>
<text text-anchor="middle" x="1087.37" y="-616.19" font-family="Times,serif" font-size="14.00"> cost : 63</text>
</g>
<!-- 7f09b68a&#45;cb57&#45;11ee&#45;9270&#45;04cf4b795879&#45;&gt;7f09b93c&#45;cb57&#45;11ee&#45;9270&#45;04cf4b795879 -->
<g id="edge22" class="edge">
<title>7f09b68a&#45;cb57&#45;11ee&#45;9270&#45;04cf4b795879&#45;&gt;7f09b93c&#45;cb57&#45;11ee&#45;9270&#45;04cf4b795879</title>
<path fill="none" stroke="black" d="M1087.37,-720.46C1087.37,-713.45 1087.37,-704.91 1087.37,-696.03"/>
<polygon fill="black" stroke="black" points="1090.87,-696.11 1087.37,-686.11 1083.87,-696.11 1090.87,-696.11"/>
</g>
<!-- 7f09bd92&#45;cb57&#45;11ee&#45;9270&#45;04cf4b795879 -->
<g id="node25" class="node">
<title>7f09bd92&#45;cb57&#45;11ee&#45;9270&#45;04cf4b795879</title>
<polygon fill="none" stroke="black" points="1330.28,-637.74 1292.83,-684.69 1217.91,-684.69 1180.46,-637.74 1217.91,-590.79 1292.83,-590.79 1330.28,-637.74"/>
<text text-anchor="middle" x="1255.37" y="-649.19" font-family="Times,serif" font-size="14.00">rp_9: level3 </text>
<text text-anchor="middle" x="1255.37" y="-632.69" font-family="Times,serif" font-size="14.00"> design_offer </text>
<text text-anchor="middle" x="1255.37" y="-616.19" font-family="Times,serif" font-size="14.00"> cost : 20</text>
</g>
<!-- 7f09bb30&#45;cb57&#45;11ee&#45;9270&#45;04cf4b795879&#45;&gt;7f09bd92&#45;cb57&#45;11ee&#45;9270&#45;04cf4b795879 -->
<g id="edge24" class="edge">
<title>7f09bb30&#45;cb57&#45;11ee&#45;9270&#45;04cf4b795879&#45;&gt;7f09bd92&#45;cb57&#45;11ee&#45;9270&#45;04cf4b795879</title>
<path fill="none" stroke="black" d="M1235.55,-720.46C1237.27,-713.37 1239.37,-704.73 1241.54,-695.74"/>
<polygon fill="black" stroke="black" points="1245.17,-696.65 1244.12,-686.11 1238.36,-695 1245.17,-696.65"/>
</g>
<!-- 7f09bf7c&#45;cb57&#45;11ee&#45;9270&#45;04cf4b795879 -->
<g id="node26" class="node">
<title>7f09bf7c&#45;cb57&#45;11ee&#45;9270&#45;04cf4b795879</title>
<polygon fill="none" stroke="black" points="1322.37,-554.79 1198.37,-554.79 1198.37,-497.29 1322.37,-497.29 1322.37,-554.79"/>
<text text-anchor="middle" x="1260.37" y="-537.49" font-family="Times,serif" font-size="14.00">r0: create_proposal </text>
<text text-anchor="middle" x="1260.37" y="-520.99" font-family="Times,serif" font-size="14.00"> Type: replace </text>
<text text-anchor="middle" x="1260.37" y="-504.49" font-family="Times,serif" font-size="14.00"> Direction: Core</text>
</g>
<!-- 7f09bd92&#45;cb57&#45;11ee&#45;9270&#45;04cf4b795879&#45;&gt;7f09bf7c&#45;cb57&#45;11ee&#45;9270&#45;04cf4b795879 -->
<g id="edge25" class="edge">
<title>7f09bd92&#45;cb57&#45;11ee&#45;9270&#45;04cf4b795879&#45;&gt;7f09bf7c&#45;cb57&#45;11ee&#45;9270&#45;04cf4b795879</title>
<path fill="none" stroke="black" d="M1257.48,-590.54C1257.85,-582.34 1258.23,-573.88 1258.6,-565.91"/>
<polygon fill="black" stroke="black" points="1262.13,-566.2 1259.09,-556.05 1255.14,-565.88 1262.13,-566.2"/>
</g>
<!-- 7f09c4fe&#45;cb57&#45;11ee&#45;9270&#45;04cf4b795879 -->
<g id="node27" class="node">
<title>7f09c4fe&#45;cb57&#45;11ee&#45;9270&#45;04cf4b795879</title>
<ellipse fill="none" stroke="black" cx="1102.37" cy="-443.29" rx="50.84" ry="18"/>
<text text-anchor="middle" x="1102.37" y="-438.24" font-family="Times,serif" font-size="14.00">r_2: level2</text>
</g>
<!-- 7f09bf7c&#45;cb57&#45;11ee&#45;9270&#45;04cf4b795879&#45;&gt;7f09c4fe&#45;cb57&#45;11ee&#45;9270&#45;04cf4b795879 -->
<g id="edge26" class="edge">
<title>7f09bf7c&#45;cb57&#45;11ee&#45;9270&#45;04cf4b795879&#45;&gt;7f09c4fe&#45;cb57&#45;11ee&#45;9270&#45;04cf4b795879</title>
<path fill="none" stroke="black" d="M1205.11,-496.8C1183.59,-485.8 1159.47,-473.48 1140.02,-463.54"/>
<polygon fill="black" stroke="black" points="1141.81,-460.01 1131.31,-458.57 1138.62,-466.24 1141.81,-460.01"/>
</g>
<!-- 7f09dc50&#45;cb57&#45;11ee&#45;9270&#45;04cf4b795879 -->
<g id="node37" class="node">
<title>7f09dc50&#45;cb57&#45;11ee&#45;9270&#45;04cf4b795879</title>
<ellipse fill="none" stroke="black" cx="1260.37" cy="-443.29" rx="50.84" ry="18"/>
<text text-anchor="middle" x="1260.37" y="-438.24" font-family="Times,serif" font-size="14.00">r_4: level2</text>
</g>
<!-- 7f09bf7c&#45;cb57&#45;11ee&#45;9270&#45;04cf4b795879&#45;&gt;7f09dc50&#45;cb57&#45;11ee&#45;9270&#45;04cf4b795879 -->
<g id="edge36" class="edge">
<title>7f09bf7c&#45;cb57&#45;11ee&#45;9270&#45;04cf4b795879&#45;&gt;7f09dc50&#45;cb57&#45;11ee&#45;9270&#45;04cf4b795879</title>
<path fill="none" stroke="black" d="M1260.37,-496.8C1260.37,-488.86 1260.37,-480.22 1260.37,-472.29"/>
<polygon fill="black" stroke="black" points="1263.87,-472.34 1260.37,-462.34 1256.87,-472.34 1263.87,-472.34"/>
</g>
<!-- 7f09e0f6&#45;cb57&#45;11ee&#45;9270&#45;04cf4b795879 -->
<g id="node39" class="node">
<title>7f09e0f6&#45;cb57&#45;11ee&#45;9270&#45;04cf4b795879</title>
<ellipse fill="none" stroke="black" cx="1418.37" cy="-443.29" rx="50.84" ry="18"/>
<text text-anchor="middle" x="1418.37" y="-438.24" font-family="Times,serif" font-size="14.00">r_3: level3</text>
</g>
<!-- 7f09bf7c&#45;cb57&#45;11ee&#45;9270&#45;04cf4b795879&#45;&gt;7f09e0f6&#45;cb57&#45;11ee&#45;9270&#45;04cf4b795879 -->
<g id="edge38" class="edge">
<title>7f09bf7c&#45;cb57&#45;11ee&#45;9270&#45;04cf4b795879&#45;&gt;7f09e0f6&#45;cb57&#45;11ee&#45;9270&#45;04cf4b795879</title>
<path fill="none" stroke="black" d="M1315.63,-496.8C1337.15,-485.8 1361.26,-473.48 1380.72,-463.54"/>
<polygon fill="black" stroke="black" points="1382.12,-466.24 1389.43,-458.57 1378.93,-460.01 1382.12,-466.24"/>
</g>
<!-- 7f09e524&#45;cb57&#45;11ee&#45;9270&#45;04cf4b795879 -->
<g id="node41" class="node">
<title>7f09e524&#45;cb57&#45;11ee&#45;9270&#45;04cf4b795879</title>
<ellipse fill="none" stroke="black" cx="1595.37" cy="-443.29" rx="50.84" ry="18"/>
<text text-anchor="middle" x="1595.37" y="-438.24" font-family="Times,serif" font-size="14.00">r_5: level3</text>
</g>
<!-- 7f09bf7c&#45;cb57&#45;11ee&#45;9270&#45;04cf4b795879&#45;&gt;7f09e524&#45;cb57&#45;11ee&#45;9270&#45;04cf4b795879 -->
<g id="edge40" class="edge">
<title>7f09bf7c&#45;cb57&#45;11ee&#45;9270&#45;04cf4b795879&#45;&gt;7f09e524&#45;cb57&#45;11ee&#45;9270&#45;04cf4b795879</title>
<path fill="none" stroke="black" d="M1322.6,-510.05C1386.19,-494.72 1483.83,-471.18 1543.41,-456.82"/>
<polygon fill="black" stroke="black" points="1544.18,-459.99 1553.08,-454.25 1542.54,-453.19 1544.18,-459.99"/>
</g>
<!-- 7f09c77e&#45;cb57&#45;11ee&#45;9270&#45;04cf4b795879 -->
<g id="node28" class="node">
<title>7f09c77e&#45;cb57&#45;11ee&#45;9270&#45;04cf4b795879</title>
<polygon fill="none" stroke="black" points="1153.37,-342.35 1108.87,-389.29 1019.87,-389.29 975.37,-342.35 1019.87,-295.4 1108.87,-295.4 1153.37,-342.35"/>
<text text-anchor="middle" x="1064.37" y="-353.8" font-family="Times,serif" font-size="14.00">rp_15: level3 </text>
<text text-anchor="middle" x="1064.37" y="-337.3" font-family="Times,serif" font-size="14.00"> create_proposal </text>
<text text-anchor="middle" x="1064.37" y="-320.8" font-family="Times,serif" font-size="14.00"> cost : 100</text>
</g>
<!-- 7f09c4fe&#45;cb57&#45;11ee&#45;9270&#45;04cf4b795879&#45;&gt;7f09c77e&#45;cb57&#45;11ee&#45;9270&#45;04cf4b795879 -->
<g id="edge27" class="edge">
<title>7f09c4fe&#45;cb57&#45;11ee&#45;9270&#45;04cf4b795879&#45;&gt;7f09c77e&#45;cb57&#45;11ee&#45;9270&#45;04cf4b795879</title>
<path fill="none" stroke="black" d="M1095.75,-425.06C1092.97,-417.82 1089.56,-408.95 1086.03,-399.76"/>
<polygon fill="black" stroke="black" points="1089.03,-398.79 1082.18,-390.71 1082.49,-401.3 1089.03,-398.79"/>
</g>
<!-- 7f09c972&#45;cb57&#45;11ee&#45;9270&#45;04cf4b795879 -->
<g id="node29" class="node">
<title>7f09c972&#45;cb57&#45;11ee&#45;9270&#45;04cf4b795879</title>
<polygon fill="none" stroke="black" points="1124.62,-259.4 978.12,-259.4 978.12,-201.9 1124.62,-201.9 1124.62,-259.4"/>
<text text-anchor="middle" x="1051.37" y="-242.1" font-family="Times,serif" font-size="14.00">r0: four_eyes_principle </text>
<text text-anchor="middle" x="1051.37" y="-225.6" font-family="Times,serif" font-size="14.00"> Type: insert </text>
<text text-anchor="middle" x="1051.37" y="-209.1" font-family="Times,serif" font-size="14.00"> Direction: before</text>
</g>
<!-- 7f09c77e&#45;cb57&#45;11ee&#45;9270&#45;04cf4b795879&#45;&gt;7f09c972&#45;cb57&#45;11ee&#45;9270&#45;04cf4b795879 -->
<g id="edge28" class="edge">
<title>7f09c77e&#45;cb57&#45;11ee&#45;9270&#45;04cf4b795879&#45;&gt;7f09c972&#45;cb57&#45;11ee&#45;9270&#45;04cf4b795879</title>
<path fill="none" stroke="black" d="M1058.89,-295.14C1057.92,-286.94 1056.92,-278.48 1055.97,-270.51"/>
<polygon fill="black" stroke="black" points="1059.34,-270.17 1054.69,-260.65 1052.39,-270.99 1059.34,-270.17"/>
</g>
<!-- 7f09d9e4&#45;cb57&#45;11ee&#45;9270&#45;04cf4b795879 -->
<g id="node36" class="node">
<title>7f09d9e4&#45;cb57&#45;11ee&#45;9270&#45;04cf4b795879</title>
<polygon fill="none" stroke="black" points="1281.87,-259.4 1142.87,-259.4 1142.87,-201.9 1281.87,-201.9 1281.87,-259.4"/>
<text text-anchor="middle" x="1212.37" y="-242.1" font-family="Times,serif" font-size="14.00">r0: proposal_approval </text>
<text text-anchor="middle" x="1212.37" y="-225.6" font-family="Times,serif" font-size="14.00"> Type: delete </text>
<text text-anchor="middle" x="1212.37" y="-209.1" font-family="Times,serif" font-size="14.00"> Direction: any</text>
</g>
<!-- 7f09c77e&#45;cb57&#45;11ee&#45;9270&#45;04cf4b795879&#45;&gt;7f09d9e4&#45;cb57&#45;11ee&#45;9270&#45;04cf4b795879 -->
<g id="edge35" class="edge">
<title>7f09c77e&#45;cb57&#45;11ee&#45;9270&#45;04cf4b795879&#45;&gt;7f09d9e4&#45;cb57&#45;11ee&#45;9270&#45;04cf4b795879</title>
<path fill="none" stroke="black" d="M1116.13,-302.98C1132.31,-290.99 1150.05,-277.84 1165.84,-266.13"/>
<polygon fill="black" stroke="black" points="1167.44,-268.56 1173.39,-259.79 1163.28,-262.94 1167.44,-268.56"/>
</g>
<!-- 7f09ccba&#45;cb57&#45;11ee&#45;9270&#45;04cf4b795879 -->
<g id="node30" class="node">
<title>7f09ccba&#45;cb57&#45;11ee&#45;9270&#45;04cf4b795879</title>
<ellipse fill="none" stroke="black" cx="874.37" cy="-147.9" rx="50.84" ry="18"/>
<text text-anchor="middle" x="874.37" y="-142.85" font-family="Times,serif" font-size="14.00">r_4: level2</text>
</g>
<!-- 7f09c972&#45;cb57&#45;11ee&#45;9270&#45;04cf4b795879&#45;&gt;7f09ccba&#45;cb57&#45;11ee&#45;9270&#45;04cf4b795879 -->
<g id="edge29" class="edge">
<title>7f09c972&#45;cb57&#45;11ee&#45;9270&#45;04cf4b795879&#45;&gt;7f09ccba&#45;cb57&#45;11ee&#45;9270&#45;04cf4b795879</title>
<path fill="none" stroke="black" d="M989.46,-201.4C964.57,-190.05 936.57,-177.27 914.43,-167.17"/>
<polygon fill="black" stroke="black" points="916.25,-163.7 905.7,-162.73 913.34,-170.07 916.25,-163.7"/>
</g>
<!-- 7f09d12e&#45;cb57&#45;11ee&#45;9270&#45;04cf4b795879 -->
<g id="node32" class="node">
<title>7f09d12e&#45;cb57&#45;11ee&#45;9270&#45;04cf4b795879</title>
<ellipse fill="none" stroke="black" cx="1051.37" cy="-147.9" rx="50.84" ry="18"/>
<text text-anchor="middle" x="1051.37" y="-142.85" font-family="Times,serif" font-size="14.00">r_3: level3</text>
</g>
<!-- 7f09c972&#45;cb57&#45;11ee&#45;9270&#45;04cf4b795879&#45;&gt;7f09d12e&#45;cb57&#45;11ee&#45;9270&#45;04cf4b795879 -->
<g id="edge31" class="edge">
<title>7f09c972&#45;cb57&#45;11ee&#45;9270&#45;04cf4b795879&#45;&gt;7f09d12e&#45;cb57&#45;11ee&#45;9270&#45;04cf4b795879</title>
<path fill="none" stroke="black" d="M1051.37,-201.4C1051.37,-193.46 1051.37,-184.82 1051.37,-176.89"/>
<polygon fill="black" stroke="black" points="1054.87,-176.94 1051.37,-166.94 1047.87,-176.94 1054.87,-176.94"/>
</g>
<!-- 7f09d598&#45;cb57&#45;11ee&#45;9270&#45;04cf4b795879 -->
<g id="node34" class="node">
<title>7f09d598&#45;cb57&#45;11ee&#45;9270&#45;04cf4b795879</title>
<ellipse fill="none" stroke="black" cx="1227.37" cy="-147.9" rx="50.84" ry="18"/>
<text text-anchor="middle" x="1227.37" y="-142.85" font-family="Times,serif" font-size="14.00">r_5: level3</text>
</g>
<!-- 7f09c972&#45;cb57&#45;11ee&#45;9270&#45;04cf4b795879&#45;&gt;7f09d598&#45;cb57&#45;11ee&#45;9270&#45;04cf4b795879 -->
<g id="edge33" class="edge">
<title>7f09c972&#45;cb57&#45;11ee&#45;9270&#45;04cf4b795879&#45;&gt;7f09d598&#45;cb57&#45;11ee&#45;9270&#45;04cf4b795879</title>
<path fill="none" stroke="black" d="M1112.93,-201.4C1137.57,-190.1 1165.27,-177.39 1187.24,-167.31"/>
<polygon fill="black" stroke="black" points="1188.58,-170.08 1196.21,-162.73 1185.67,-163.72 1188.58,-170.08"/>
</g>
<!-- 7f09cf30&#45;cb57&#45;11ee&#45;9270&#45;04cf4b795879 -->
<g id="node31" class="node">
<title>7f09cf30&#45;cb57&#45;11ee&#45;9270&#45;04cf4b795879</title>
<polygon fill="none" stroke="black" points="925.74,-46.95 872.05,-93.9 764.68,-93.9 711,-46.95 764.68,0 872.05,0 925.74,-46.95"/>
<text text-anchor="middle" x="818.37" y="-58.4" font-family="Times,serif" font-size="14.00">rp_24: level3 </text>
<text text-anchor="middle" x="818.37" y="-41.9" font-family="Times,serif" font-size="14.00"> four_eyes_principle </text>
<text text-anchor="middle" x="818.37" y="-25.4" font-family="Times,serif" font-size="14.00"> cost : 63</text>
</g>
<!-- 7f09ccba&#45;cb57&#45;11ee&#45;9270&#45;04cf4b795879&#45;&gt;7f09cf30&#45;cb57&#45;11ee&#45;9270&#45;04cf4b795879 -->
<g id="edge30" class="edge">
<title>7f09ccba&#45;cb57&#45;11ee&#45;9270&#45;04cf4b795879&#45;&gt;7f09cf30&#45;cb57&#45;11ee&#45;9270&#45;04cf4b795879</title>
<path fill="none" stroke="black" d="M864.87,-130.11C860.61,-122.59 855.32,-113.25 849.85,-103.58"/>
<polygon fill="black" stroke="black" points="852.56,-102.25 844.58,-95.27 846.46,-105.69 852.56,-102.25"/>
</g>
<!-- 7f09d3ae&#45;cb57&#45;11ee&#45;9270&#45;04cf4b795879 -->
<g id="node33" class="node">
<title>7f09d3ae&#45;cb57&#45;11ee&#45;9270&#45;04cf4b795879</title>
<polygon fill="none" stroke="black" points="1158.74,-46.95 1105.05,-93.9 997.68,-93.9 944,-46.95 997.68,0 1105.05,0 1158.74,-46.95"/>
<text text-anchor="middle" x="1051.37" y="-58.4" font-family="Times,serif" font-size="14.00">rp_24: level3 </text>
<text text-anchor="middle" x="1051.37" y="-41.9" font-family="Times,serif" font-size="14.00"> four_eyes_principle </text>
<text text-anchor="middle" x="1051.37" y="-25.4" font-family="Times,serif" font-size="14.00"> cost : 53</text>
</g>
<!-- 7f09d12e&#45;cb57&#45;11ee&#45;9270&#45;04cf4b795879&#45;&gt;7f09d3ae&#45;cb57&#45;11ee&#45;9270&#45;04cf4b795879 -->
<g id="edge32" class="edge">
<title>7f09d12e&#45;cb57&#45;11ee&#45;9270&#45;04cf4b795879&#45;&gt;7f09d3ae&#45;cb57&#45;11ee&#45;9270&#45;04cf4b795879</title>
<path fill="none" stroke="black" d="M1051.37,-129.66C1051.37,-122.65 1051.37,-114.12 1051.37,-105.24"/>
<polygon fill="black" stroke="black" points="1054.87,-105.32 1051.37,-95.32 1047.87,-105.32 1054.87,-105.32"/>
</g>
<!-- 7f09d7fa&#45;cb57&#45;11ee&#45;9270&#45;04cf4b795879 -->
<g id="node35" class="node">
<title>7f09d7fa&#45;cb57&#45;11ee&#45;9270&#45;04cf4b795879</title>
<polygon fill="none" stroke="black" points="1391.74,-46.95 1338.05,-93.9 1230.68,-93.9 1177,-46.95 1230.68,0 1338.05,0 1391.74,-46.95"/>
<text text-anchor="middle" x="1284.37" y="-58.4" font-family="Times,serif" font-size="14.00">rp_24: level3 </text>
<text text-anchor="middle" x="1284.37" y="-41.9" font-family="Times,serif" font-size="14.00"> four_eyes_principle </text>
<text text-anchor="middle" x="1284.37" y="-25.4" font-family="Times,serif" font-size="14.00"> cost : 19</text>
</g>
<!-- 7f09d598&#45;cb57&#45;11ee&#45;9270&#45;04cf4b795879&#45;&gt;7f09d7fa&#45;cb57&#45;11ee&#45;9270&#45;04cf4b795879 -->
<g id="edge34" class="edge">
<title>7f09d598&#45;cb57&#45;11ee&#45;9270&#45;04cf4b795879&#45;&gt;7f09d7fa&#45;cb57&#45;11ee&#45;9270&#45;04cf4b795879</title>
<path fill="none" stroke="black" d="M1237.04,-130.11C1241.37,-122.59 1246.75,-113.25 1252.32,-103.58"/>
<polygon fill="black" stroke="black" points="1255.73,-105.68 1257.69,-95.27 1249.66,-102.19 1255.73,-105.68"/>
</g>
<!-- 7f09deb2&#45;cb57&#45;11ee&#45;9270&#45;04cf4b795879 -->
<g id="node38" class="node">
<title>7f09deb2&#45;cb57&#45;11ee&#45;9270&#45;04cf4b795879</title>
<polygon fill="none" stroke="black" points="1349.37,-342.35 1304.87,-389.29 1215.87,-389.29 1171.37,-342.35 1215.87,-295.4 1304.87,-295.4 1349.37,-342.35"/>
<text text-anchor="middle" x="1260.37" y="-353.8" font-family="Times,serif" font-size="14.00">rp_15: level2 </text>
<text text-anchor="middle" x="1260.37" y="-337.3" font-family="Times,serif" font-size="14.00"> create_proposal </text>
<text text-anchor="middle" x="1260.37" y="-320.8" font-family="Times,serif" font-size="14.00"> cost : 15</text>
</g>
<!-- 7f09dc50&#45;cb57&#45;11ee&#45;9270&#45;04cf4b795879&#45;&gt;7f09deb2&#45;cb57&#45;11ee&#45;9270&#45;04cf4b795879 -->
<g id="edge37" class="edge">
<title>7f09dc50&#45;cb57&#45;11ee&#45;9270&#45;04cf4b795879&#45;&gt;7f09deb2&#45;cb57&#45;11ee&#45;9270&#45;04cf4b795879</title>
<path fill="none" stroke="black" d="M1260.37,-425.06C1260.37,-418.05 1260.37,-409.52 1260.37,-400.64"/>
<polygon fill="black" stroke="black" points="1263.87,-400.71 1260.37,-390.71 1256.87,-400.71 1263.87,-400.71"/>
</g>
<!-- 7f09e34e&#45;cb57&#45;11ee&#45;9270&#45;04cf4b795879 -->
<g id="node40" class="node">
<title>7f09e34e&#45;cb57&#45;11ee&#45;9270&#45;04cf4b795879</title>
<polygon fill="none" stroke="black" points="1545.37,-342.35 1500.87,-389.29 1411.87,-389.29 1367.37,-342.35 1411.87,-295.4 1500.87,-295.4 1545.37,-342.35"/>
<text text-anchor="middle" x="1456.37" y="-353.8" font-family="Times,serif" font-size="14.00">rp_15: level3 </text>
<text text-anchor="middle" x="1456.37" y="-337.3" font-family="Times,serif" font-size="14.00"> create_proposal </text>
<text text-anchor="middle" x="1456.37" y="-320.8" font-family="Times,serif" font-size="14.00"> cost : 26</text>
</g>
<!-- 7f09e0f6&#45;cb57&#45;11ee&#45;9270&#45;04cf4b795879&#45;&gt;7f09e34e&#45;cb57&#45;11ee&#45;9270&#45;04cf4b795879 -->
<g id="edge39" class="edge">
<title>7f09e0f6&#45;cb57&#45;11ee&#45;9270&#45;04cf4b795879&#45;&gt;7f09e34e&#45;cb57&#45;11ee&#45;9270&#45;04cf4b795879</title>
<path fill="none" stroke="black" d="M1424.99,-425.06C1427.77,-417.82 1431.17,-408.95 1434.7,-399.76"/>
<polygon fill="black" stroke="black" points="1438.24,-401.3 1438.56,-390.71 1431.71,-398.79 1438.24,-401.3"/>
</g>
<!-- 7f09e772&#45;cb57&#45;11ee&#45;9270&#45;04cf4b795879 -->
<g id="node42" class="node">
<title>7f09e772&#45;cb57&#45;11ee&#45;9270&#45;04cf4b795879</title>
<polygon fill="none" stroke="black" points="1741.37,-342.35 1696.87,-389.29 1607.87,-389.29 1563.37,-342.35 1607.87,-295.4 1696.87,-295.4 1741.37,-342.35"/>
<text text-anchor="middle" x="1652.37" y="-353.8" font-family="Times,serif" font-size="14.00">rp_15: level3 </text>
<text text-anchor="middle" x="1652.37" y="-337.3" font-family="Times,serif" font-size="14.00"> create_proposal </text>
<text text-anchor="middle" x="1652.37" y="-320.8" font-family="Times,serif" font-size="14.00"> cost : 98</text>
</g>
<!-- 7f09e524&#45;cb57&#45;11ee&#45;9270&#45;04cf4b795879&#45;&gt;7f09e772&#45;cb57&#45;11ee&#45;9270&#45;04cf4b795879 -->
<g id="edge41" class="edge">
<title>7f09e524&#45;cb57&#45;11ee&#45;9270&#45;04cf4b795879&#45;&gt;7f09e772&#45;cb57&#45;11ee&#45;9270&#45;04cf4b795879</title>
<path fill="none" stroke="black" d="M1605.04,-425.51C1609.37,-417.99 1614.75,-408.64 1620.32,-398.98"/>
<polygon fill="black" stroke="black" points="1623.73,-401.08 1625.69,-390.66 1617.66,-397.58 1623.73,-401.08"/>
</g>
<!-- 7f09ebbe&#45;cb57&#45;11ee&#45;9270&#45;04cf4b795879 -->
<g id="node44" class="node">
<title>7f09ebbe&#45;cb57&#45;11ee&#45;9270&#45;04cf4b795879</title>
<polygon fill="none" stroke="black" points="1498.28,-637.74 1460.83,-684.69 1385.91,-684.69 1348.46,-637.74 1385.91,-590.79 1460.83,-590.79 1498.28,-637.74"/>
<text text-anchor="middle" x="1423.37" y="-649.19" font-family="Times,serif" font-size="14.00">rp_9: level3 </text>
<text text-anchor="middle" x="1423.37" y="-632.69" font-family="Times,serif" font-size="14.00"> design_offer </text>
<text text-anchor="middle" x="1423.37" y="-616.19" font-family="Times,serif" font-size="14.00"> cost : 38</text>
</g>
<!-- 7f09e95c&#45;cb57&#45;11ee&#45;9270&#45;04cf4b795879&#45;&gt;7f09ebbe&#45;cb57&#45;11ee&#45;9270&#45;04cf4b795879 -->
<g id="edge43" class="edge">
<title>7f09e95c&#45;cb57&#45;11ee&#45;9270&#45;04cf4b795879&#45;&gt;7f09ebbe&#45;cb57&#45;11ee&#45;9270&#45;04cf4b795879</title>
<path fill="none" stroke="black" d="M1393.64,-720.46C1396.25,-713.29 1399.43,-704.54 1402.74,-695.45"/>
<polygon fill="black" stroke="black" points="1406.37,-696.71 1406.5,-686.11 1399.79,-694.31 1406.37,-696.71"/>
</g>
</g>
</svg>
