<?xml version="1.0" encoding="UTF-8" standalone="no"?>
<!DOCTYPE svg PUBLIC "-//W3C//DTD SVG 1.1//EN"
 "http://www.w3.org/Graphics/SVG/1.1/DTD/svg11.dtd">
<!-- Generated by graphviz version 8.1.0 (20230707.0739)
 -->
<!-- Title: CallTree Pages: 1 -->
<svg width="1542pt" height="563pt"
 viewBox="0.00 0.00 1542.28 562.79" xmlns="http://www.w3.org/2000/svg" xmlns:xlink="http://www.w3.org/1999/xlink">
<g id="graph0" class="graph" transform="scale(1 1) rotate(0) translate(4 558.79)">
<title>CallTree</title>
<polygon fill="white" stroke="none" points="-4,4 -4,-558.79 1538.28,-558.79 1538.28,4 -4,4"/>
<!-- 48f1a88a&#45;c8de&#45;11ee&#45;ab3a&#45;04cf4b795879 -->
<g id="node1" class="node">
<title>48f1a88a&#45;c8de&#45;11ee&#45;ab3a&#45;04cf4b795879</title>
<polygon fill="none" stroke="black" points="1081.49,-554.79 973.24,-554.79 973.24,-497.29 1081.49,-497.29 1081.49,-554.79"/>
<text text-anchor="middle" x="1027.37" y="-537.49" font-family="Times,serif" font-size="14.00">a7: design_offer </text>
<text text-anchor="middle" x="1027.37" y="-520.99" font-family="Times,serif" font-size="14.00"> Type: Core </text>
<text text-anchor="middle" x="1027.37" y="-504.49" font-family="Times,serif" font-size="14.00"> Direction: Core</text>
</g>
<!-- 48f1d5da&#45;c8de&#45;11ee&#45;ab3a&#45;04cf4b795879 -->
<g id="node2" class="node">
<title>48f1d5da&#45;c8de&#45;11ee&#45;ab3a&#45;04cf4b795879</title>
<ellipse fill="none" stroke="black" cx="667.37" cy="-443.29" rx="50.84" ry="18"/>
<text text-anchor="middle" x="667.37" y="-438.24" font-family="Times,serif" font-size="14.00">r_1: level1</text>
</g>
<!-- 48f1a88a&#45;c8de&#45;11ee&#45;ab3a&#45;04cf4b795879&#45;&gt;48f1d5da&#45;c8de&#45;11ee&#45;ab3a&#45;04cf4b795879 -->
<g id="edge1" class="edge">
<title>48f1a88a&#45;c8de&#45;11ee&#45;ab3a&#45;04cf4b795879&#45;&gt;48f1d5da&#45;c8de&#45;11ee&#45;ab3a&#45;04cf4b795879</title>
<path fill="none" stroke="black" d="M973.08,-512.87C904.56,-497.5 787.5,-471.24 719.85,-456.07"/>
<polygon fill="black" stroke="black" points="720.95,-452.5 710.43,-453.73 719.42,-459.33 720.95,-452.5"/>
</g>
<!-- 48f24146&#45;c8de&#45;11ee&#45;ab3a&#45;04cf4b795879 -->
<g id="node11" class="node">
<title>48f24146&#45;c8de&#45;11ee&#45;ab3a&#45;04cf4b795879</title>
<ellipse fill="none" stroke="black" cx="811.37" cy="-443.29" rx="50.84" ry="18"/>
<text text-anchor="middle" x="811.37" y="-438.24" font-family="Times,serif" font-size="14.00">r_6: level1</text>
</g>
<!-- 48f1a88a&#45;c8de&#45;11ee&#45;ab3a&#45;04cf4b795879&#45;&gt;48f24146&#45;c8de&#45;11ee&#45;ab3a&#45;04cf4b795879 -->
<g id="edge10" class="edge">
<title>48f1a88a&#45;c8de&#45;11ee&#45;ab3a&#45;04cf4b795879&#45;&gt;48f24146&#45;c8de&#45;11ee&#45;ab3a&#45;04cf4b795879</title>
<path fill="none" stroke="black" d="M972.86,-504.67C936.51,-491.08 889.33,-473.44 855.37,-460.74"/>
<polygon fill="black" stroke="black" points="856.87,-457.19 846.28,-456.97 854.42,-463.75 856.87,-457.19"/>
</g>
<!-- 48f29380&#45;c8de&#45;11ee&#45;ab3a&#45;04cf4b795879 -->
<g id="node20" class="node">
<title>48f29380&#45;c8de&#45;11ee&#45;ab3a&#45;04cf4b795879</title>
<ellipse fill="none" stroke="black" cx="967.37" cy="-443.29" rx="50.84" ry="18"/>
<text text-anchor="middle" x="967.37" y="-438.24" font-family="Times,serif" font-size="14.00">r_2: level2</text>
</g>
<!-- 48f1a88a&#45;c8de&#45;11ee&#45;ab3a&#45;04cf4b795879&#45;&gt;48f29380&#45;c8de&#45;11ee&#45;ab3a&#45;04cf4b795879 -->
<g id="edge19" class="edge">
<title>48f1a88a&#45;c8de&#45;11ee&#45;ab3a&#45;04cf4b795879&#45;&gt;48f29380&#45;c8de&#45;11ee&#45;ab3a&#45;04cf4b795879</title>
<path fill="none" stroke="black" d="M1006.38,-496.8C999.76,-487.89 992.5,-478.11 986.05,-469.43"/>
<polygon fill="black" stroke="black" points="988.46,-467.81 979.68,-461.87 982.84,-471.98 988.46,-467.81"/>
</g>
<!-- 48f2a9a6&#45;c8de&#45;11ee&#45;ab3a&#45;04cf4b795879 -->
<g id="node22" class="node">
<title>48f2a9a6&#45;c8de&#45;11ee&#45;ab3a&#45;04cf4b795879</title>
<ellipse fill="none" stroke="black" cx="1111.37" cy="-443.29" rx="50.84" ry="18"/>
<text text-anchor="middle" x="1111.37" y="-438.24" font-family="Times,serif" font-size="14.00">r_4: level2</text>
</g>
<!-- 48f1a88a&#45;c8de&#45;11ee&#45;ab3a&#45;04cf4b795879&#45;&gt;48f2a9a6&#45;c8de&#45;11ee&#45;ab3a&#45;04cf4b795879 -->
<g id="edge21" class="edge">
<title>48f1a88a&#45;c8de&#45;11ee&#45;ab3a&#45;04cf4b795879&#45;&gt;48f2a9a6&#45;c8de&#45;11ee&#45;ab3a&#45;04cf4b795879</title>
<path fill="none" stroke="black" d="M1056.75,-496.8C1066.56,-487.37 1077.37,-476.97 1086.78,-467.93"/>
<polygon fill="black" stroke="black" points="1088.83,-470.85 1093.62,-461.4 1083.98,-465.81 1088.83,-470.85"/>
</g>
<!-- 48f2ba40&#45;c8de&#45;11ee&#45;ab3a&#45;04cf4b795879 -->
<g id="node24" class="node">
<title>48f2ba40&#45;c8de&#45;11ee&#45;ab3a&#45;04cf4b795879</title>
<ellipse fill="none" stroke="black" cx="1267.37" cy="-443.29" rx="50.84" ry="18"/>
<text text-anchor="middle" x="1267.37" y="-438.24" font-family="Times,serif" font-size="14.00">r_3: level3</text>
</g>
<!-- 48f1a88a&#45;c8de&#45;11ee&#45;ab3a&#45;04cf4b795879&#45;&gt;48f2ba40&#45;c8de&#45;11ee&#45;ab3a&#45;04cf4b795879 -->
<g id="edge23" class="edge">
<title>48f1a88a&#45;c8de&#45;11ee&#45;ab3a&#45;04cf4b795879&#45;&gt;48f2ba40&#45;c8de&#45;11ee&#45;ab3a&#45;04cf4b795879</title>
<path fill="none" stroke="black" d="M1081.83,-506.72C1123.85,-492.58 1181.34,-473.24 1221.14,-459.85"/>
<polygon fill="black" stroke="black" points="1222,-462.91 1230.36,-456.41 1219.77,-456.28 1222,-462.91"/>
</g>
<!-- 48f322b4&#45;c8de&#45;11ee&#45;ab3a&#45;04cf4b795879 -->
<g id="node27" class="node">
<title>48f322b4&#45;c8de&#45;11ee&#45;ab3a&#45;04cf4b795879</title>
<ellipse fill="none" stroke="black" cx="1429.37" cy="-443.29" rx="50.84" ry="18"/>
<text text-anchor="middle" x="1429.37" y="-438.24" font-family="Times,serif" font-size="14.00">r_5: level3</text>
</g>
<!-- 48f1a88a&#45;c8de&#45;11ee&#45;ab3a&#45;04cf4b795879&#45;&gt;48f322b4&#45;c8de&#45;11ee&#45;ab3a&#45;04cf4b795879 -->
<g id="edge26" class="edge">
<title>48f1a88a&#45;c8de&#45;11ee&#45;ab3a&#45;04cf4b795879&#45;&gt;48f322b4&#45;c8de&#45;11ee&#45;ab3a&#45;04cf4b795879</title>
<path fill="none" stroke="black" d="M1081.58,-514.15C1158.55,-498.69 1298.64,-470.55 1375.44,-455.13"/>
<polygon fill="black" stroke="black" points="1375.73,-458.44 1384.85,-453.04 1374.35,-451.57 1375.73,-458.44"/>
</g>
<!-- 48f1f1dc&#45;c8de&#45;11ee&#45;ab3a&#45;04cf4b795879 -->
<g id="node3" class="node">
<title>48f1f1dc&#45;c8de&#45;11ee&#45;ab3a&#45;04cf4b795879</title>
<polygon fill="none" stroke="black" points="620.28,-342.35 582.83,-389.29 507.91,-389.29 470.46,-342.35 507.91,-295.4 582.83,-295.4 620.28,-342.35"/>
<text text-anchor="middle" x="545.37" y="-353.8" font-family="Times,serif" font-size="14.00">rp_4: level1 </text>
<text text-anchor="middle" x="545.37" y="-337.3" font-family="Times,serif" font-size="14.00"> design_offer </text>
<text text-anchor="middle" x="545.37" y="-320.8" font-family="Times,serif" font-size="14.00"> cost : 20</text>
</g>
<!-- 48f1d5da&#45;c8de&#45;11ee&#45;ab3a&#45;04cf4b795879&#45;&gt;48f1f1dc&#45;c8de&#45;11ee&#45;ab3a&#45;04cf4b795879 -->
<g id="edge2" class="edge">
<title>48f1d5da&#45;c8de&#45;11ee&#45;ab3a&#45;04cf4b795879&#45;&gt;48f1f1dc&#45;c8de&#45;11ee&#45;ab3a&#45;04cf4b795879</title>
<path fill="none" stroke="black" d="M647.77,-426.4C634.51,-415.65 616.32,-400.89 598.94,-386.8"/>
<polygon fill="black" stroke="black" points="601.47,-383.53 591.5,-379.95 597.06,-388.97 601.47,-383.53"/>
</g>
<!-- 48f1fa60&#45;c8de&#45;11ee&#45;ab3a&#45;04cf4b795879 -->
<g id="node4" class="node">
<title>48f1fa60&#45;c8de&#45;11ee&#45;ab3a&#45;04cf4b795879</title>
<polygon fill="none" stroke="black" points="472.99,-259.4 319.74,-259.4 319.74,-201.9 472.99,-201.9 472.99,-259.4"/>
<text text-anchor="middle" x="396.37" y="-242.1" font-family="Times,serif" font-size="14.00">r10: four_eyes_principle </text>
<text text-anchor="middle" x="396.37" y="-225.6" font-family="Times,serif" font-size="14.00"> Type: insert </text>
<text text-anchor="middle" x="396.37" y="-209.1" font-family="Times,serif" font-size="14.00"> Direction: parallel</text>
</g>
<!-- 48f1f1dc&#45;c8de&#45;11ee&#45;ab3a&#45;04cf4b795879&#45;&gt;48f1fa60&#45;c8de&#45;11ee&#45;ab3a&#45;04cf4b795879 -->
<g id="edge3" class="edge">
<title>48f1f1dc&#45;c8de&#45;11ee&#45;ab3a&#45;04cf4b795879&#45;&gt;48f1fa60&#45;c8de&#45;11ee&#45;ab3a&#45;04cf4b795879</title>
<path fill="none" stroke="black" d="M498.63,-306.94C480.88,-293.87 460.68,-279 442.95,-265.94"/>
<polygon fill="black" stroke="black" points="445.59,-262.8 435.46,-259.69 441.44,-268.44 445.59,-262.8"/>
</g>
<!-- 48f2065e&#45;c8de&#45;11ee&#45;ab3a&#45;04cf4b795879 -->
<g id="node5" class="node">
<title>48f2065e&#45;c8de&#45;11ee&#45;ab3a&#45;04cf4b795879</title>
<ellipse fill="none" stroke="black" cx="183.37" cy="-147.9" rx="50.84" ry="18"/>
<text text-anchor="middle" x="183.37" y="-142.85" font-family="Times,serif" font-size="14.00">r_4: level2</text>
</g>
<!-- 48f1fa60&#45;c8de&#45;11ee&#45;ab3a&#45;04cf4b795879&#45;&gt;48f2065e&#45;c8de&#45;11ee&#45;ab3a&#45;04cf4b795879 -->
<g id="edge4" class="edge">
<title>48f1fa60&#45;c8de&#45;11ee&#45;ab3a&#45;04cf4b795879&#45;&gt;48f2065e&#45;c8de&#45;11ee&#45;ab3a&#45;04cf4b795879</title>
<path fill="none" stroke="black" d="M321.87,-201.4C290.28,-189.43 254.54,-175.88 227.28,-165.55"/>
<polygon fill="black" stroke="black" points="228.87,-162.02 218.28,-161.75 226.39,-168.57 228.87,-162.02"/>
</g>
<!-- 48f2189c&#45;c8de&#45;11ee&#45;ab3a&#45;04cf4b795879 -->
<g id="node7" class="node">
<title>48f2189c&#45;c8de&#45;11ee&#45;ab3a&#45;04cf4b795879</title>
<ellipse fill="none" stroke="black" cx="359.37" cy="-147.9" rx="50.84" ry="18"/>
<text text-anchor="middle" x="359.37" y="-142.85" font-family="Times,serif" font-size="14.00">r_3: level3</text>
</g>
<!-- 48f1fa60&#45;c8de&#45;11ee&#45;ab3a&#45;04cf4b795879&#45;&gt;48f2189c&#45;c8de&#45;11ee&#45;ab3a&#45;04cf4b795879 -->
<g id="edge6" class="edge">
<title>48f1fa60&#45;c8de&#45;11ee&#45;ab3a&#45;04cf4b795879&#45;&gt;48f2189c&#45;c8de&#45;11ee&#45;ab3a&#45;04cf4b795879</title>
<path fill="none" stroke="black" d="M383.43,-201.4C379.62,-193.09 375.46,-184.02 371.69,-175.79"/>
<polygon fill="black" stroke="black" points="374.53,-174.58 367.18,-166.94 368.16,-177.49 374.53,-174.58"/>
</g>
<!-- 48f2288c&#45;c8de&#45;11ee&#45;ab3a&#45;04cf4b795879 -->
<g id="node9" class="node">
<title>48f2288c&#45;c8de&#45;11ee&#45;ab3a&#45;04cf4b795879</title>
<ellipse fill="none" stroke="black" cx="517.37" cy="-147.9" rx="50.84" ry="18"/>
<text text-anchor="middle" x="517.37" y="-142.85" font-family="Times,serif" font-size="14.00">r_5: level3</text>
</g>
<!-- 48f1fa60&#45;c8de&#45;11ee&#45;ab3a&#45;04cf4b795879&#45;&gt;48f2288c&#45;c8de&#45;11ee&#45;ab3a&#45;04cf4b795879 -->
<g id="edge8" class="edge">
<title>48f1fa60&#45;c8de&#45;11ee&#45;ab3a&#45;04cf4b795879&#45;&gt;48f2288c&#45;c8de&#45;11ee&#45;ab3a&#45;04cf4b795879</title>
<path fill="none" stroke="black" d="M438.69,-201.4C454.01,-191.18 471.04,-179.82 485.33,-170.28"/>
<polygon fill="black" stroke="black" points="486.9,-172.77 493.28,-164.31 483.02,-166.95 486.9,-172.77"/>
</g>
<!-- 48f210ea&#45;c8de&#45;11ee&#45;ab3a&#45;04cf4b795879 -->
<g id="node6" class="node">
<title>48f210ea&#45;c8de&#45;11ee&#45;ab3a&#45;04cf4b795879</title>
<polygon fill="none" stroke="black" points="214.74,-46.95 161.05,-93.9 53.68,-93.9 0,-46.95 53.68,0 161.05,0 214.74,-46.95"/>
<text text-anchor="middle" x="107.37" y="-58.4" font-family="Times,serif" font-size="14.00">rp_24: level3 </text>
<text text-anchor="middle" x="107.37" y="-41.9" font-family="Times,serif" font-size="14.00"> four_eyes_principle </text>
<text text-anchor="middle" x="107.37" y="-25.4" font-family="Times,serif" font-size="14.00"> cost : 10</text>
</g>
<!-- 48f2065e&#45;c8de&#45;11ee&#45;ab3a&#45;04cf4b795879&#45;&gt;48f210ea&#45;c8de&#45;11ee&#45;ab3a&#45;04cf4b795879 -->
<g id="edge5" class="edge">
<title>48f2065e&#45;c8de&#45;11ee&#45;ab3a&#45;04cf4b795879&#45;&gt;48f210ea&#45;c8de&#45;11ee&#45;ab3a&#45;04cf4b795879</title>
<path fill="none" stroke="black" d="M170.48,-130.11C164.58,-122.44 157.23,-112.86 149.64,-102.98"/>
<polygon fill="black" stroke="black" points="151.81,-101.07 142.95,-95.27 146.26,-105.33 151.81,-101.07"/>
</g>
<!-- 48f22184&#45;c8de&#45;11ee&#45;ab3a&#45;04cf4b795879 -->
<g id="node8" class="node">
<title>48f22184&#45;c8de&#45;11ee&#45;ab3a&#45;04cf4b795879</title>
<polygon fill="none" stroke="black" points="447.74,-46.95 394.05,-93.9 286.68,-93.9 233,-46.95 286.68,0 394.05,0 447.74,-46.95"/>
<text text-anchor="middle" x="340.37" y="-58.4" font-family="Times,serif" font-size="14.00">rp_24: level3 </text>
<text text-anchor="middle" x="340.37" y="-41.9" font-family="Times,serif" font-size="14.00"> four_eyes_principle </text>
<text text-anchor="middle" x="340.37" y="-25.4" font-family="Times,serif" font-size="14.00"> cost : 10</text>
</g>
<!-- 48f2189c&#45;c8de&#45;11ee&#45;ab3a&#45;04cf4b795879&#45;&gt;48f22184&#45;c8de&#45;11ee&#45;ab3a&#45;04cf4b795879 -->
<g id="edge7" class="edge">
<title>48f2189c&#45;c8de&#45;11ee&#45;ab3a&#45;04cf4b795879&#45;&gt;48f22184&#45;c8de&#45;11ee&#45;ab3a&#45;04cf4b795879</title>
<path fill="none" stroke="black" d="M356.06,-129.66C354.7,-122.58 353.04,-113.93 351.31,-104.95"/>
<polygon fill="black" stroke="black" points="354.6,-104.48 349.27,-95.32 347.72,-105.8 354.6,-104.48"/>
</g>
<!-- 48f230e8&#45;c8de&#45;11ee&#45;ab3a&#45;04cf4b795879 -->
<g id="node10" class="node">
<title>48f230e8&#45;c8de&#45;11ee&#45;ab3a&#45;04cf4b795879</title>
<polygon fill="none" stroke="black" points="680.74,-46.95 627.05,-93.9 519.68,-93.9 466,-46.95 519.68,0 627.05,0 680.74,-46.95"/>
<text text-anchor="middle" x="573.37" y="-58.4" font-family="Times,serif" font-size="14.00">rp_24: level3 </text>
<text text-anchor="middle" x="573.37" y="-41.9" font-family="Times,serif" font-size="14.00"> four_eyes_principle </text>
<text text-anchor="middle" x="573.37" y="-25.4" font-family="Times,serif" font-size="14.00"> cost : 10</text>
</g>
<!-- 48f2288c&#45;c8de&#45;11ee&#45;ab3a&#45;04cf4b795879&#45;&gt;48f230e8&#45;c8de&#45;11ee&#45;ab3a&#45;04cf4b795879 -->
<g id="edge9" class="edge">
<title>48f2288c&#45;c8de&#45;11ee&#45;ab3a&#45;04cf4b795879&#45;&gt;48f230e8&#45;c8de&#45;11ee&#45;ab3a&#45;04cf4b795879</title>
<path fill="none" stroke="black" d="M526.87,-130.11C531.13,-122.59 536.41,-113.25 541.88,-103.58"/>
<polygon fill="black" stroke="black" points="545.28,-105.69 547.15,-95.27 539.18,-102.25 545.28,-105.69"/>
</g>
<!-- 48f24c54&#45;c8de&#45;11ee&#45;ab3a&#45;04cf4b795879 -->
<g id="node12" class="node">
<title>48f24c54&#45;c8de&#45;11ee&#45;ab3a&#45;04cf4b795879</title>
<polygon fill="none" stroke="black" points="862.28,-342.35 824.83,-389.29 749.91,-389.29 712.46,-342.35 749.91,-295.4 824.83,-295.4 862.28,-342.35"/>
<text text-anchor="middle" x="787.37" y="-353.8" font-family="Times,serif" font-size="14.00">rp_4: level1 </text>
<text text-anchor="middle" x="787.37" y="-337.3" font-family="Times,serif" font-size="14.00"> design_offer </text>
<text text-anchor="middle" x="787.37" y="-320.8" font-family="Times,serif" font-size="14.00"> cost : 20</text>
</g>
<!-- 48f24146&#45;c8de&#45;11ee&#45;ab3a&#45;04cf4b795879&#45;&gt;48f24c54&#45;c8de&#45;11ee&#45;ab3a&#45;04cf4b795879 -->
<g id="edge11" class="edge">
<title>48f24146&#45;c8de&#45;11ee&#45;ab3a&#45;04cf4b795879&#45;&gt;48f24c54&#45;c8de&#45;11ee&#45;ab3a&#45;04cf4b795879</title>
<path fill="none" stroke="black" d="M807.19,-425.06C805.47,-417.97 803.37,-409.33 801.19,-400.34"/>
<polygon fill="black" stroke="black" points="804.37,-399.61 798.62,-390.71 797.57,-401.26 804.37,-399.61"/>
</g>
<!-- 48f253e8&#45;c8de&#45;11ee&#45;ab3a&#45;04cf4b795879 -->
<g id="node13" class="node">
<title>48f253e8&#45;c8de&#45;11ee&#45;ab3a&#45;04cf4b795879</title>
<polygon fill="none" stroke="black" points="998.99,-259.4 845.74,-259.4 845.74,-201.9 998.99,-201.9 998.99,-259.4"/>
<text text-anchor="middle" x="922.37" y="-242.1" font-family="Times,serif" font-size="14.00">r10: four_eyes_principle </text>
<text text-anchor="middle" x="922.37" y="-225.6" font-family="Times,serif" font-size="14.00"> Type: insert </text>
<text text-anchor="middle" x="922.37" y="-209.1" font-family="Times,serif" font-size="14.00"> Direction: parallel</text>
</g>
<!-- 48f24c54&#45;c8de&#45;11ee&#45;ab3a&#45;04cf4b795879&#45;&gt;48f253e8&#45;c8de&#45;11ee&#45;ab3a&#45;04cf4b795879 -->
<g id="edge12" class="edge">
<title>48f24c54&#45;c8de&#45;11ee&#45;ab3a&#45;04cf4b795879&#45;&gt;48f253e8&#45;c8de&#45;11ee&#45;ab3a&#45;04cf4b795879</title>
<path fill="none" stroke="black" d="M832.7,-304.51C847.68,-292.34 864.3,-278.83 879.13,-266.78"/>
<polygon fill="black" stroke="black" points="881.07,-268.91 886.62,-259.88 876.65,-263.47 881.07,-268.91"/>
</g>
<!-- 48f261e4&#45;c8de&#45;11ee&#45;ab3a&#45;04cf4b795879 -->
<g id="node14" class="node">
<title>48f261e4&#45;c8de&#45;11ee&#45;ab3a&#45;04cf4b795879</title>
<ellipse fill="none" stroke="black" cx="834.37" cy="-147.9" rx="50.84" ry="18"/>
<text text-anchor="middle" x="834.37" y="-142.85" font-family="Times,serif" font-size="14.00">r_4: level2</text>
</g>
<!-- 48f253e8&#45;c8de&#45;11ee&#45;ab3a&#45;04cf4b795879&#45;&gt;48f261e4&#45;c8de&#45;11ee&#45;ab3a&#45;04cf4b795879 -->
<g id="edge13" class="edge">
<title>48f253e8&#45;c8de&#45;11ee&#45;ab3a&#45;04cf4b795879&#45;&gt;48f261e4&#45;c8de&#45;11ee&#45;ab3a&#45;04cf4b795879</title>
<path fill="none" stroke="black" d="M891.59,-201.4C881.29,-191.95 869.93,-181.52 860.06,-172.47"/>
<polygon fill="black" stroke="black" points="862.91,-170.42 853.17,-166.24 858.18,-175.57 862.91,-170.42"/>
</g>
<!-- 48f272c4&#45;c8de&#45;11ee&#45;ab3a&#45;04cf4b795879 -->
<g id="node16" class="node">
<title>48f272c4&#45;c8de&#45;11ee&#45;ab3a&#45;04cf4b795879</title>
<ellipse fill="none" stroke="black" cx="1010.37" cy="-147.9" rx="50.84" ry="18"/>
<text text-anchor="middle" x="1010.37" y="-142.85" font-family="Times,serif" font-size="14.00">r_3: level3</text>
</g>
<!-- 48f253e8&#45;c8de&#45;11ee&#45;ab3a&#45;04cf4b795879&#45;&gt;48f272c4&#45;c8de&#45;11ee&#45;ab3a&#45;04cf4b795879 -->
<g id="edge15" class="edge">
<title>48f253e8&#45;c8de&#45;11ee&#45;ab3a&#45;04cf4b795879&#45;&gt;48f272c4&#45;c8de&#45;11ee&#45;ab3a&#45;04cf4b795879</title>
<path fill="none" stroke="black" d="M953.15,-201.4C963.45,-191.95 974.81,-181.52 984.68,-172.47"/>
<polygon fill="black" stroke="black" points="986.56,-175.57 991.56,-166.24 981.83,-170.42 986.56,-175.57"/>
</g>
<!-- 48f28340&#45;c8de&#45;11ee&#45;ab3a&#45;04cf4b795879 -->
<g id="node18" class="node">
<title>48f28340&#45;c8de&#45;11ee&#45;ab3a&#45;04cf4b795879</title>
<ellipse fill="none" stroke="black" cx="1215.37" cy="-147.9" rx="50.84" ry="18"/>
<text text-anchor="middle" x="1215.37" y="-142.85" font-family="Times,serif" font-size="14.00">r_5: level3</text>
</g>
<!-- 48f253e8&#45;c8de&#45;11ee&#45;ab3a&#45;04cf4b795879&#45;&gt;48f28340&#45;c8de&#45;11ee&#45;ab3a&#45;04cf4b795879 -->
<g id="edge17" class="edge">
<title>48f253e8&#45;c8de&#45;11ee&#45;ab3a&#45;04cf4b795879&#45;&gt;48f28340&#45;c8de&#45;11ee&#45;ab3a&#45;04cf4b795879</title>
<path fill="none" stroke="black" d="M999.35,-208.43C1051.94,-193.94 1120.08,-175.16 1165.63,-162.6"/>
<polygon fill="black" stroke="black" points="1166.42,-165.74 1175.13,-159.71 1164.56,-158.99 1166.42,-165.74"/>
</g>
<!-- 48f26b94&#45;c8de&#45;11ee&#45;ab3a&#45;04cf4b795879 -->
<g id="node15" class="node">
<title>48f26b94&#45;c8de&#45;11ee&#45;ab3a&#45;04cf4b795879</title>
<polygon fill="none" stroke="black" points="913.74,-46.95 860.05,-93.9 752.68,-93.9 699,-46.95 752.68,0 860.05,0 913.74,-46.95"/>
<text text-anchor="middle" x="806.37" y="-58.4" font-family="Times,serif" font-size="14.00">rp_24: level3 </text>
<text text-anchor="middle" x="806.37" y="-41.9" font-family="Times,serif" font-size="14.00"> four_eyes_principle </text>
<text text-anchor="middle" x="806.37" y="-25.4" font-family="Times,serif" font-size="14.00"> cost : 10</text>
</g>
<!-- 48f261e4&#45;c8de&#45;11ee&#45;ab3a&#45;04cf4b795879&#45;&gt;48f26b94&#45;c8de&#45;11ee&#45;ab3a&#45;04cf4b795879 -->
<g id="edge14" class="edge">
<title>48f261e4&#45;c8de&#45;11ee&#45;ab3a&#45;04cf4b795879&#45;&gt;48f26b94&#45;c8de&#45;11ee&#45;ab3a&#45;04cf4b795879</title>
<path fill="none" stroke="black" d="M829.49,-129.66C827.47,-122.5 824.99,-113.74 822.42,-104.65"/>
<polygon fill="black" stroke="black" points="825.58,-103.99 819.49,-95.32 818.85,-105.89 825.58,-103.99"/>
</g>
<!-- 48f27b20&#45;c8de&#45;11ee&#45;ab3a&#45;04cf4b795879 -->
<g id="node17" class="node">
<title>48f27b20&#45;c8de&#45;11ee&#45;ab3a&#45;04cf4b795879</title>
<polygon fill="none" stroke="black" points="1146.74,-46.95 1093.05,-93.9 985.68,-93.9 932,-46.95 985.68,0 1093.05,0 1146.74,-46.95"/>
<text text-anchor="middle" x="1039.37" y="-58.4" font-family="Times,serif" font-size="14.00">rp_24: level3 </text>
<text text-anchor="middle" x="1039.37" y="-41.9" font-family="Times,serif" font-size="14.00"> four_eyes_principle </text>
<text text-anchor="middle" x="1039.37" y="-25.4" font-family="Times,serif" font-size="14.00"> cost : 10</text>
</g>
<!-- 48f272c4&#45;c8de&#45;11ee&#45;ab3a&#45;04cf4b795879&#45;&gt;48f27b20&#45;c8de&#45;11ee&#45;ab3a&#45;04cf4b795879 -->
<g id="edge16" class="edge">
<title>48f272c4&#45;c8de&#45;11ee&#45;ab3a&#45;04cf4b795879&#45;&gt;48f27b20&#45;c8de&#45;11ee&#45;ab3a&#45;04cf4b795879</title>
<path fill="none" stroke="black" d="M1015.42,-129.66C1017.52,-122.5 1020.09,-113.74 1022.75,-104.65"/>
<polygon fill="black" stroke="black" points="1026.33,-105.9 1025.78,-95.32 1019.61,-103.93 1026.33,-105.9"/>
</g>
<!-- 48f28b9c&#45;c8de&#45;11ee&#45;ab3a&#45;04cf4b795879 -->
<g id="node19" class="node">
<title>48f28b9c&#45;c8de&#45;11ee&#45;ab3a&#45;04cf4b795879</title>
<polygon fill="none" stroke="black" points="1379.74,-46.95 1326.05,-93.9 1218.68,-93.9 1165,-46.95 1218.68,0 1326.05,0 1379.74,-46.95"/>
<text text-anchor="middle" x="1272.37" y="-58.4" font-family="Times,serif" font-size="14.00">rp_24: level3 </text>
<text text-anchor="middle" x="1272.37" y="-41.9" font-family="Times,serif" font-size="14.00"> four_eyes_principle </text>
<text text-anchor="middle" x="1272.37" y="-25.4" font-family="Times,serif" font-size="14.00"> cost : 10</text>
</g>
<!-- 48f28340&#45;c8de&#45;11ee&#45;ab3a&#45;04cf4b795879&#45;&gt;48f28b9c&#45;c8de&#45;11ee&#45;ab3a&#45;04cf4b795879 -->
<g id="edge18" class="edge">
<title>48f28340&#45;c8de&#45;11ee&#45;ab3a&#45;04cf4b795879&#45;&gt;48f28b9c&#45;c8de&#45;11ee&#45;ab3a&#45;04cf4b795879</title>
<path fill="none" stroke="black" d="M1225.04,-130.11C1229.37,-122.59 1234.75,-113.25 1240.32,-103.58"/>
<polygon fill="black" stroke="black" points="1243.73,-105.68 1245.69,-95.27 1237.66,-102.19 1243.73,-105.68"/>
</g>
<!-- 48f2a0a0&#45;c8de&#45;11ee&#45;ab3a&#45;04cf4b795879 -->
<g id="node21" class="node">
<title>48f2a0a0&#45;c8de&#45;11ee&#45;ab3a&#45;04cf4b795879</title>
<polygon fill="none" stroke="black" points="1030.28,-342.35 992.83,-389.29 917.91,-389.29 880.46,-342.35 917.91,-295.4 992.83,-295.4 1030.28,-342.35"/>
<text text-anchor="middle" x="955.37" y="-353.8" font-family="Times,serif" font-size="14.00">rp_89: level2 </text>
<text text-anchor="middle" x="955.37" y="-337.3" font-family="Times,serif" font-size="14.00"> design_offer </text>
<text text-anchor="middle" x="955.37" y="-320.8" font-family="Times,serif" font-size="14.00"> cost : 20</text>
</g>
<!-- 48f29380&#45;c8de&#45;11ee&#45;ab3a&#45;04cf4b795879&#45;&gt;48f2a0a0&#45;c8de&#45;11ee&#45;ab3a&#45;04cf4b795879 -->
<g id="edge20" class="edge">
<title>48f29380&#45;c8de&#45;11ee&#45;ab3a&#45;04cf4b795879&#45;&gt;48f2a0a0&#45;c8de&#45;11ee&#45;ab3a&#45;04cf4b795879</title>
<path fill="none" stroke="black" d="M965.28,-425.06C964.42,-417.97 963.37,-409.33 962.28,-400.34"/>
<polygon fill="black" stroke="black" points="965.67,-400.22 960.99,-390.71 958.72,-401.06 965.67,-400.22"/>
</g>
<!-- 48f2b2de&#45;c8de&#45;11ee&#45;ab3a&#45;04cf4b795879 -->
<g id="node23" class="node">
<title>48f2b2de&#45;c8de&#45;11ee&#45;ab3a&#45;04cf4b795879</title>
<polygon fill="none" stroke="black" points="1198.28,-342.35 1160.83,-389.29 1085.91,-389.29 1048.46,-342.35 1085.91,-295.4 1160.83,-295.4 1198.28,-342.35"/>
<text text-anchor="middle" x="1123.37" y="-353.8" font-family="Times,serif" font-size="14.00">rp_99: level2 </text>
<text text-anchor="middle" x="1123.37" y="-337.3" font-family="Times,serif" font-size="14.00"> design_offer </text>
<text text-anchor="middle" x="1123.37" y="-320.8" font-family="Times,serif" font-size="14.00"> cost : 20</text>
</g>
<!-- 48f2a9a6&#45;c8de&#45;11ee&#45;ab3a&#45;04cf4b795879&#45;&gt;48f2b2de&#45;c8de&#45;11ee&#45;ab3a&#45;04cf4b795879 -->
<g id="edge22" class="edge">
<title>48f2a9a6&#45;c8de&#45;11ee&#45;ab3a&#45;04cf4b795879&#45;&gt;48f2b2de&#45;c8de&#45;11ee&#45;ab3a&#45;04cf4b795879</title>
<path fill="none" stroke="black" d="M1113.46,-425.06C1114.32,-417.97 1115.37,-409.33 1116.46,-400.34"/>
<polygon fill="black" stroke="black" points="1120.02,-401.06 1117.75,-390.71 1113.07,-400.22 1120.02,-401.06"/>
</g>
<!-- 48f2c2b0&#45;c8de&#45;11ee&#45;ab3a&#45;04cf4b795879 -->
<g id="node25" class="node">
<title>48f2c2b0&#45;c8de&#45;11ee&#45;ab3a&#45;04cf4b795879</title>
<polygon fill="none" stroke="black" points="1366.28,-342.35 1328.83,-389.29 1253.91,-389.29 1216.46,-342.35 1253.91,-295.4 1328.83,-295.4 1366.28,-342.35"/>
<text text-anchor="middle" x="1291.37" y="-353.8" font-family="Times,serif" font-size="14.00">rp_9: level3 </text>
<text text-anchor="middle" x="1291.37" y="-337.3" font-family="Times,serif" font-size="14.00"> design_offer </text>
<text text-anchor="middle" x="1291.37" y="-320.8" font-family="Times,serif" font-size="14.00"> cost : 50</text>
</g>
<!-- 48f2ba40&#45;c8de&#45;11ee&#45;ab3a&#45;04cf4b795879&#45;&gt;48f2c2b0&#45;c8de&#45;11ee&#45;ab3a&#45;04cf4b795879 -->
<g id="edge24" class="edge">
<title>48f2ba40&#45;c8de&#45;11ee&#45;ab3a&#45;04cf4b795879&#45;&gt;48f2c2b0&#45;c8de&#45;11ee&#45;ab3a&#45;04cf4b795879</title>
<path fill="none" stroke="black" d="M1271.55,-425.06C1273.27,-417.97 1275.37,-409.33 1277.54,-400.34"/>
<polygon fill="black" stroke="black" points="1281.17,-401.26 1280.12,-390.71 1274.36,-399.61 1281.17,-401.26"/>
</g>
<!-- 48f316a2&#45;c8de&#45;11ee&#45;ab3a&#45;04cf4b795879 -->
<g id="node26" class="node">
<title>48f316a2&#45;c8de&#45;11ee&#45;ab3a&#45;04cf4b795879</title>
<polygon fill="none" stroke="black" points="1340.24,-259.4 1242.49,-259.4 1242.49,-201.9 1340.24,-201.9 1340.24,-259.4"/>
<text text-anchor="middle" x="1291.37" y="-242.1" font-family="Times,serif" font-size="14.00">a8: send_offer </text>
<text text-anchor="middle" x="1291.37" y="-225.6" font-family="Times,serif" font-size="14.00"> Type: delete </text>
<text text-anchor="middle" x="1291.37" y="-209.1" font-family="Times,serif" font-size="14.00"> Direction: any</text>
</g>
<!-- 48f2c2b0&#45;c8de&#45;11ee&#45;ab3a&#45;04cf4b795879&#45;&gt;48f316a2&#45;c8de&#45;11ee&#45;ab3a&#45;04cf4b795879 -->
<g id="edge25" class="edge">
<title>48f2c2b0&#45;c8de&#45;11ee&#45;ab3a&#45;04cf4b795879&#45;&gt;48f316a2&#45;c8de&#45;11ee&#45;ab3a&#45;04cf4b795879</title>
<path fill="none" stroke="black" d="M1291.37,-295.14C1291.37,-286.94 1291.37,-278.48 1291.37,-270.51"/>
<polygon fill="black" stroke="black" points="1294.87,-270.65 1291.37,-260.65 1287.87,-270.65 1294.87,-270.65"/>
</g>
<!-- 48f32bd8&#45;c8de&#45;11ee&#45;ab3a&#45;04cf4b795879 -->
<g id="node28" class="node">
<title>48f32bd8&#45;c8de&#45;11ee&#45;ab3a&#45;04cf4b795879</title>
<polygon fill="none" stroke="black" points="1534.28,-342.35 1496.83,-389.29 1421.91,-389.29 1384.46,-342.35 1421.91,-295.4 1496.83,-295.4 1534.28,-342.35"/>
<text text-anchor="middle" x="1459.37" y="-353.8" font-family="Times,serif" font-size="14.00">rp_9: level3 </text>
<text text-anchor="middle" x="1459.37" y="-337.3" font-family="Times,serif" font-size="14.00"> design_offer </text>
<text text-anchor="middle" x="1459.37" y="-320.8" font-family="Times,serif" font-size="14.00"> cost : 50</text>
</g>
<!-- 48f322b4&#45;c8de&#45;11ee&#45;ab3a&#45;04cf4b795879&#45;&gt;48f32bd8&#45;c8de&#45;11ee&#45;ab3a&#45;04cf4b795879 -->
<g id="edge27" class="edge">
<title>48f322b4&#45;c8de&#45;11ee&#45;ab3a&#45;04cf4b795879&#45;&gt;48f32bd8&#45;c8de&#45;11ee&#45;ab3a&#45;04cf4b795879</title>
<path fill="none" stroke="black" d="M1434.59,-425.06C1436.77,-417.9 1439.42,-409.14 1442.18,-400.05"/>
<polygon fill="black" stroke="black" points="1445.76,-401.3 1445.31,-390.71 1439.06,-399.27 1445.76,-401.3"/>
</g>
<!-- 48f33358&#45;c8de&#45;11ee&#45;ab3a&#45;04cf4b795879 -->
<g id="node29" class="node">
<title>48f33358&#45;c8de&#45;11ee&#45;ab3a&#45;04cf4b795879</title>
<polygon fill="none" stroke="black" points="1508.24,-259.4 1410.49,-259.4 1410.49,-201.9 1508.24,-201.9 1508.24,-259.4"/>
<text text-anchor="middle" x="1459.37" y="-242.1" font-family="Times,serif" font-size="14.00">a8: send_offer </text>
<text text-anchor="middle" x="1459.37" y="-225.6" font-family="Times,serif" font-size="14.00"> Type: delete </text>
<text text-anchor="middle" x="1459.37" y="-209.1" font-family="Times,serif" font-size="14.00"> Direction: any</text>
</g>
<!-- 48f32bd8&#45;c8de&#45;11ee&#45;ab3a&#45;04cf4b795879&#45;&gt;48f33358&#45;c8de&#45;11ee&#45;ab3a&#45;04cf4b795879 -->
<g id="edge28" class="edge">
<title>48f32bd8&#45;c8de&#45;11ee&#45;ab3a&#45;04cf4b795879&#45;&gt;48f33358&#45;c8de&#45;11ee&#45;ab3a&#45;04cf4b795879</title>
<path fill="none" stroke="black" d="M1459.37,-295.14C1459.37,-286.94 1459.37,-278.48 1459.37,-270.51"/>
<polygon fill="black" stroke="black" points="1462.87,-270.65 1459.37,-260.65 1455.87,-270.65 1462.87,-270.65"/>
</g>
</g>
</svg>
