<?xml version="1.0" encoding="UTF-8" standalone="no"?>
<!DOCTYPE svg PUBLIC "-//W3C//DTD SVG 1.1//EN"
 "http://www.w3.org/Graphics/SVG/1.1/DTD/svg11.dtd">
<!-- Generated by graphviz version 8.1.0 (20230707.0739)
 -->
<!-- Title: CallTree Pages: 1 -->
<svg width="975pt" height="267pt"
 viewBox="0.00 0.00 975.32 267.40" xmlns="http://www.w3.org/2000/svg" xmlns:xlink="http://www.w3.org/1999/xlink">
<g id="graph0" class="graph" transform="scale(1 1) rotate(0) translate(4 263.4)">
<title>CallTree</title>
<polygon fill="white" stroke="none" points="-4,4 -4,-263.4 971.32,-263.4 971.32,4 -4,4"/>
<!-- 4902e6a4&#45;c8de&#45;11ee&#45;ab3a&#45;04cf4b795879 -->
<g id="node1" class="node">
<title>4902e6a4&#45;c8de&#45;11ee&#45;ab3a&#45;04cf4b795879</title>
<polygon fill="none" stroke="black" points="512.65,-259.4 408.15,-259.4 408.15,-201.9 512.65,-201.9 512.65,-259.4"/>
<text text-anchor="middle" x="460.4" y="-242.1" font-family="Times,serif" font-size="14.00">a5: send_offer </text>
<text text-anchor="middle" x="460.4" y="-225.6" font-family="Times,serif" font-size="14.00"> Type: Core </text>
<text text-anchor="middle" x="460.4" y="-209.1" font-family="Times,serif" font-size="14.00"> Direction: Core</text>
</g>
<!-- 49030242&#45;c8de&#45;11ee&#45;ab3a&#45;04cf4b795879 -->
<g id="node2" class="node">
<title>49030242&#45;c8de&#45;11ee&#45;ab3a&#45;04cf4b795879</title>
<ellipse fill="none" stroke="black" cx="109.4" cy="-147.9" rx="50.84" ry="18"/>
<text text-anchor="middle" x="109.4" y="-142.85" font-family="Times,serif" font-size="14.00">r_1: level1</text>
</g>
<!-- 4902e6a4&#45;c8de&#45;11ee&#45;ab3a&#45;04cf4b795879&#45;&gt;49030242&#45;c8de&#45;11ee&#45;ab3a&#45;04cf4b795879 -->
<g id="edge1" class="edge">
<title>4902e6a4&#45;c8de&#45;11ee&#45;ab3a&#45;04cf4b795879&#45;&gt;49030242&#45;c8de&#45;11ee&#45;ab3a&#45;04cf4b795879</title>
<path fill="none" stroke="black" d="M407.85,-217.56C341.55,-202.3 228.19,-176.23 161.91,-160.98"/>
<polygon fill="black" stroke="black" points="162.82,-157.37 152.29,-158.53 161.25,-164.19 162.82,-157.37"/>
</g>
<!-- 4903132c&#45;c8de&#45;11ee&#45;ab3a&#45;04cf4b795879 -->
<g id="node4" class="node">
<title>4903132c&#45;c8de&#45;11ee&#45;ab3a&#45;04cf4b795879</title>
<ellipse fill="none" stroke="black" cx="247.4" cy="-147.9" rx="50.84" ry="18"/>
<text text-anchor="middle" x="247.4" y="-142.85" font-family="Times,serif" font-size="14.00">r_6: level1</text>
</g>
<!-- 4902e6a4&#45;c8de&#45;11ee&#45;ab3a&#45;04cf4b795879&#45;&gt;4903132c&#45;c8de&#45;11ee&#45;ab3a&#45;04cf4b795879 -->
<g id="edge3" class="edge">
<title>4902e6a4&#45;c8de&#45;11ee&#45;ab3a&#45;04cf4b795879&#45;&gt;4903132c&#45;c8de&#45;11ee&#45;ab3a&#45;04cf4b795879</title>
<path fill="none" stroke="black" d="M407.75,-209.69C371.91,-196.1 325.03,-178.33 291.23,-165.51"/>
<polygon fill="black" stroke="black" points="292.78,-161.98 282.19,-161.71 290.3,-168.52 292.78,-161.98"/>
</g>
<!-- 4903240c&#45;c8de&#45;11ee&#45;ab3a&#45;04cf4b795879 -->
<g id="node6" class="node">
<title>4903240c&#45;c8de&#45;11ee&#45;ab3a&#45;04cf4b795879</title>
<ellipse fill="none" stroke="black" cx="400.4" cy="-147.9" rx="50.84" ry="18"/>
<text text-anchor="middle" x="400.4" y="-142.85" font-family="Times,serif" font-size="14.00">r_2: level2</text>
</g>
<!-- 4902e6a4&#45;c8de&#45;11ee&#45;ab3a&#45;04cf4b795879&#45;&gt;4903240c&#45;c8de&#45;11ee&#45;ab3a&#45;04cf4b795879 -->
<g id="edge5" class="edge">
<title>4902e6a4&#45;c8de&#45;11ee&#45;ab3a&#45;04cf4b795879&#45;&gt;4903240c&#45;c8de&#45;11ee&#45;ab3a&#45;04cf4b795879</title>
<path fill="none" stroke="black" d="M439.42,-201.4C432.8,-192.49 425.53,-182.71 419.08,-174.03"/>
<polygon fill="black" stroke="black" points="421.49,-172.41 412.72,-166.47 415.87,-176.58 421.49,-172.41"/>
</g>
<!-- 49033866&#45;c8de&#45;11ee&#45;ab3a&#45;04cf4b795879 -->
<g id="node8" class="node">
<title>49033866&#45;c8de&#45;11ee&#45;ab3a&#45;04cf4b795879</title>
<ellipse fill="none" stroke="black" cx="544.4" cy="-147.9" rx="50.84" ry="18"/>
<text text-anchor="middle" x="544.4" y="-142.85" font-family="Times,serif" font-size="14.00">r_4: level2</text>
</g>
<!-- 4902e6a4&#45;c8de&#45;11ee&#45;ab3a&#45;04cf4b795879&#45;&gt;49033866&#45;c8de&#45;11ee&#45;ab3a&#45;04cf4b795879 -->
<g id="edge7" class="edge">
<title>4902e6a4&#45;c8de&#45;11ee&#45;ab3a&#45;04cf4b795879&#45;&gt;49033866&#45;c8de&#45;11ee&#45;ab3a&#45;04cf4b795879</title>
<path fill="none" stroke="black" d="M489.78,-201.4C499.59,-191.98 510.41,-181.58 519.81,-172.54"/>
<polygon fill="black" stroke="black" points="521.87,-175.46 526.65,-166 517.01,-170.41 521.87,-175.46"/>
</g>
<!-- 49034de2&#45;c8de&#45;11ee&#45;ab3a&#45;04cf4b795879 -->
<g id="node10" class="node">
<title>49034de2&#45;c8de&#45;11ee&#45;ab3a&#45;04cf4b795879</title>
<ellipse fill="none" stroke="black" cx="700.4" cy="-147.9" rx="50.84" ry="18"/>
<text text-anchor="middle" x="700.4" y="-142.85" font-family="Times,serif" font-size="14.00">r_3: level3</text>
</g>
<!-- 4902e6a4&#45;c8de&#45;11ee&#45;ab3a&#45;04cf4b795879&#45;&gt;49034de2&#45;c8de&#45;11ee&#45;ab3a&#45;04cf4b795879 -->
<g id="edge9" class="edge">
<title>4902e6a4&#45;c8de&#45;11ee&#45;ab3a&#45;04cf4b795879&#45;&gt;49034de2&#45;c8de&#45;11ee&#45;ab3a&#45;04cf4b795879</title>
<path fill="none" stroke="black" d="M513.07,-211.93C555.25,-197.73 613.84,-178.02 654.21,-164.44"/>
<polygon fill="black" stroke="black" points="655.21,-167.46 663.57,-160.95 652.98,-160.82 655.21,-167.46"/>
</g>
<!-- 490363d6&#45;c8de&#45;11ee&#45;ab3a&#45;04cf4b795879 -->
<g id="node12" class="node">
<title>490363d6&#45;c8de&#45;11ee&#45;ab3a&#45;04cf4b795879</title>
<ellipse fill="none" stroke="black" cx="862.4" cy="-147.9" rx="50.84" ry="18"/>
<text text-anchor="middle" x="862.4" y="-142.85" font-family="Times,serif" font-size="14.00">r_5: level3</text>
</g>
<!-- 4902e6a4&#45;c8de&#45;11ee&#45;ab3a&#45;04cf4b795879&#45;&gt;490363d6&#45;c8de&#45;11ee&#45;ab3a&#45;04cf4b795879 -->
<g id="edge11" class="edge">
<title>4902e6a4&#45;c8de&#45;11ee&#45;ab3a&#45;04cf4b795879&#45;&gt;490363d6&#45;c8de&#45;11ee&#45;ab3a&#45;04cf4b795879</title>
<path fill="none" stroke="black" d="M512.96,-219.09C589.59,-203.7 731.26,-175.24 808.59,-159.71"/>
<polygon fill="black" stroke="black" points="808.95,-163 818.06,-157.6 807.57,-156.14 808.95,-163"/>
</g>
<!-- 49030bc0&#45;c8de&#45;11ee&#45;ab3a&#45;04cf4b795879 -->
<g id="node3" class="node">
<title>49030bc0&#45;c8de&#45;11ee&#45;ab3a&#45;04cf4b795879</title>
<polygon fill="none" stroke="black" points="138.8,-46.95 104.1,-93.9 34.7,-93.9 0,-46.95 34.7,0 104.1,0 138.8,-46.95"/>
<text text-anchor="middle" x="69.4" y="-58.4" font-family="Times,serif" font-size="14.00">rp_5: level1 </text>
<text text-anchor="middle" x="69.4" y="-41.9" font-family="Times,serif" font-size="14.00"> send_offer </text>
<text text-anchor="middle" x="69.4" y="-25.4" font-family="Times,serif" font-size="14.00"> cost : 40</text>
</g>
<!-- 49030242&#45;c8de&#45;11ee&#45;ab3a&#45;04cf4b795879&#45;&gt;49030bc0&#45;c8de&#45;11ee&#45;ab3a&#45;04cf4b795879 -->
<g id="edge2" class="edge">
<title>49030242&#45;c8de&#45;11ee&#45;ab3a&#45;04cf4b795879&#45;&gt;49030bc0&#45;c8de&#45;11ee&#45;ab3a&#45;04cf4b795879</title>
<path fill="none" stroke="black" d="M102.43,-129.66C99.51,-122.42 95.92,-113.56 92.21,-104.36"/>
<polygon fill="black" stroke="black" points="95.14,-103.28 88.15,-95.32 88.65,-105.9 95.14,-103.28"/>
</g>
<!-- 49031b9c&#45;c8de&#45;11ee&#45;ab3a&#45;04cf4b795879 -->
<g id="node5" class="node">
<title>49031b9c&#45;c8de&#45;11ee&#45;ab3a&#45;04cf4b795879</title>
<polygon fill="none" stroke="black" points="295.8,-46.95 261.1,-93.9 191.7,-93.9 157,-46.95 191.7,0 261.1,0 295.8,-46.95"/>
<text text-anchor="middle" x="226.4" y="-58.4" font-family="Times,serif" font-size="14.00">rp_5: level1 </text>
<text text-anchor="middle" x="226.4" y="-41.9" font-family="Times,serif" font-size="14.00"> send_offer </text>
<text text-anchor="middle" x="226.4" y="-25.4" font-family="Times,serif" font-size="14.00"> cost : 40</text>
</g>
<!-- 4903132c&#45;c8de&#45;11ee&#45;ab3a&#45;04cf4b795879&#45;&gt;49031b9c&#45;c8de&#45;11ee&#45;ab3a&#45;04cf4b795879 -->
<g id="edge4" class="edge">
<title>4903132c&#45;c8de&#45;11ee&#45;ab3a&#45;04cf4b795879&#45;&gt;49031b9c&#45;c8de&#45;11ee&#45;ab3a&#45;04cf4b795879</title>
<path fill="none" stroke="black" d="M243.74,-129.66C242.24,-122.58 240.41,-113.93 238.5,-104.95"/>
<polygon fill="black" stroke="black" points="241.74,-104.37 236.24,-95.32 234.9,-105.83 241.74,-104.37"/>
</g>
<!-- 49032f38&#45;c8de&#45;11ee&#45;ab3a&#45;04cf4b795879 -->
<g id="node7" class="node">
<title>49032f38&#45;c8de&#45;11ee&#45;ab3a&#45;04cf4b795879</title>
<polygon fill="none" stroke="black" points="463.32,-46.95 425.86,-93.9 350.95,-93.9 313.49,-46.95 350.95,0 425.86,0 463.32,-46.95"/>
<text text-anchor="middle" x="388.4" y="-58.4" font-family="Times,serif" font-size="14.00">rp_10: level2 </text>
<text text-anchor="middle" x="388.4" y="-41.9" font-family="Times,serif" font-size="14.00"> send_offer </text>
<text text-anchor="middle" x="388.4" y="-25.4" font-family="Times,serif" font-size="14.00"> cost : 40</text>
</g>
<!-- 4903240c&#45;c8de&#45;11ee&#45;ab3a&#45;04cf4b795879&#45;&gt;49032f38&#45;c8de&#45;11ee&#45;ab3a&#45;04cf4b795879 -->
<g id="edge6" class="edge">
<title>4903240c&#45;c8de&#45;11ee&#45;ab3a&#45;04cf4b795879&#45;&gt;49032f38&#45;c8de&#45;11ee&#45;ab3a&#45;04cf4b795879</title>
<path fill="none" stroke="black" d="M398.31,-129.66C397.45,-122.58 396.4,-113.93 395.31,-104.95"/>
<polygon fill="black" stroke="black" points="398.7,-104.82 394.03,-95.32 391.76,-105.67 398.7,-104.82"/>
</g>
<!-- 49034342&#45;c8de&#45;11ee&#45;ab3a&#45;04cf4b795879 -->
<g id="node9" class="node">
<title>49034342&#45;c8de&#45;11ee&#45;ab3a&#45;04cf4b795879</title>
<polygon fill="none" stroke="black" points="631.32,-46.95 593.86,-93.9 518.95,-93.9 481.49,-46.95 518.95,0 593.86,0 631.32,-46.95"/>
<text text-anchor="middle" x="556.4" y="-58.4" font-family="Times,serif" font-size="14.00">rp_10: level2 </text>
<text text-anchor="middle" x="556.4" y="-41.9" font-family="Times,serif" font-size="14.00"> send_offer </text>
<text text-anchor="middle" x="556.4" y="-25.4" font-family="Times,serif" font-size="14.00"> cost : 50</text>
</g>
<!-- 49033866&#45;c8de&#45;11ee&#45;ab3a&#45;04cf4b795879&#45;&gt;49034342&#45;c8de&#45;11ee&#45;ab3a&#45;04cf4b795879 -->
<g id="edge8" class="edge">
<title>49033866&#45;c8de&#45;11ee&#45;ab3a&#45;04cf4b795879&#45;&gt;49034342&#45;c8de&#45;11ee&#45;ab3a&#45;04cf4b795879</title>
<path fill="none" stroke="black" d="M546.49,-129.66C547.35,-122.58 548.4,-113.93 549.49,-104.95"/>
<polygon fill="black" stroke="black" points="553.05,-105.67 550.78,-95.32 546.1,-104.82 553.05,-105.67"/>
</g>
<!-- 49035a12&#45;c8de&#45;11ee&#45;ab3a&#45;04cf4b795879 -->
<g id="node11" class="node">
<title>49035a12&#45;c8de&#45;11ee&#45;ab3a&#45;04cf4b795879</title>
<polygon fill="none" stroke="black" points="799.32,-46.95 761.86,-93.9 686.95,-93.9 649.49,-46.95 686.95,0 761.86,0 799.32,-46.95"/>
<text text-anchor="middle" x="724.4" y="-58.4" font-family="Times,serif" font-size="14.00">rp_17: level3 </text>
<text text-anchor="middle" x="724.4" y="-41.9" font-family="Times,serif" font-size="14.00"> send_offer </text>
<text text-anchor="middle" x="724.4" y="-25.4" font-family="Times,serif" font-size="14.00"> cost : 50</text>
</g>
<!-- 49034de2&#45;c8de&#45;11ee&#45;ab3a&#45;04cf4b795879&#45;&gt;49035a12&#45;c8de&#45;11ee&#45;ab3a&#45;04cf4b795879 -->
<g id="edge10" class="edge">
<title>49034de2&#45;c8de&#45;11ee&#45;ab3a&#45;04cf4b795879&#45;&gt;49035a12&#45;c8de&#45;11ee&#45;ab3a&#45;04cf4b795879</title>
<path fill="none" stroke="black" d="M704.58,-129.66C706.3,-122.58 708.4,-113.93 710.58,-104.95"/>
<polygon fill="black" stroke="black" points="714.2,-105.86 713.16,-95.32 707.4,-104.21 714.2,-105.86"/>
</g>
<!-- 49036d0e&#45;c8de&#45;11ee&#45;ab3a&#45;04cf4b795879 -->
<g id="node13" class="node">
<title>49036d0e&#45;c8de&#45;11ee&#45;ab3a&#45;04cf4b795879</title>
<polygon fill="none" stroke="black" points="967.32,-46.95 929.86,-93.9 854.95,-93.9 817.49,-46.95 854.95,0 929.86,0 967.32,-46.95"/>
<text text-anchor="middle" x="892.4" y="-58.4" font-family="Times,serif" font-size="14.00">rp_17: level3 </text>
<text text-anchor="middle" x="892.4" y="-41.9" font-family="Times,serif" font-size="14.00"> send_offer </text>
<text text-anchor="middle" x="892.4" y="-25.4" font-family="Times,serif" font-size="14.00"> cost : 50</text>
</g>
<!-- 490363d6&#45;c8de&#45;11ee&#45;ab3a&#45;04cf4b795879&#45;&gt;49036d0e&#45;c8de&#45;11ee&#45;ab3a&#45;04cf4b795879 -->
<g id="edge12" class="edge">
<title>490363d6&#45;c8de&#45;11ee&#45;ab3a&#45;04cf4b795879&#45;&gt;49036d0e&#45;c8de&#45;11ee&#45;ab3a&#45;04cf4b795879</title>
<path fill="none" stroke="black" d="M867.63,-129.66C869.8,-122.5 872.45,-113.74 875.21,-104.65"/>
<polygon fill="black" stroke="black" points="878.79,-105.9 878.34,-95.32 872.09,-103.87 878.79,-105.9"/>
</g>
</g>
</svg>
