<?xml version="1.0" encoding="UTF-8" standalone="no"?>
<!DOCTYPE svg PUBLIC "-//W3C//DTD SVG 1.1//EN"
 "http://www.w3.org/Graphics/SVG/1.1/DTD/svg11.dtd">
<!-- Generated by graphviz version 7.1.0 (0)
 -->
<!-- Title: CallTree Pages: 1 -->
<svg width="820pt" height="256pt"
 viewBox="0.00 0.00 820.34 255.55" xmlns="http://www.w3.org/2000/svg" xmlns:xlink="http://www.w3.org/1999/xlink">
<g id="graph0" class="graph" transform="scale(1 1) rotate(0) translate(4 251.55)">
<title>CallTree</title>
<polygon fill="white" stroke="none" points="-4,4 -4,-251.55 816.34,-251.55 816.34,4 -4,4"/>
<!-- e0b0f422&#45;c687&#45;11ee&#45;890b&#45;ac1a3ddd05c7 -->
<g id="node1" class="node">
<title>e0b0f422&#45;c687&#45;11ee&#45;890b&#45;ac1a3ddd05c7</title>
<polygon fill="none" stroke="black" points="453.72,-247.55 348.72,-247.55 348.72,-194.55 453.72,-194.55 453.72,-247.55"/>
<text text-anchor="middle" x="401.22" y="-232.35" font-family="Times,serif" font-size="14.00">a5: send_offer </text>
<text text-anchor="middle" x="401.22" y="-217.35" font-family="Times,serif" font-size="14.00"> Type: Core </text>
<text text-anchor="middle" x="401.22" y="-202.35" font-family="Times,serif" font-size="14.00"> Direction: Core</text>
</g>
<!-- e0b0fb84&#45;c687&#45;11ee&#45;890b&#45;ac1a3ddd05c7 -->
<g id="node2" class="node">
<title>e0b0fb84&#45;c687&#45;11ee&#45;890b&#45;ac1a3ddd05c7</title>
<ellipse fill="none" stroke="black" cx="94.22" cy="-140.55" rx="48.99" ry="18"/>
<text text-anchor="middle" x="94.22" y="-136.85" font-family="Times,serif" font-size="14.00">r_1: level1</text>
</g>
<!-- e0b0f422&#45;c687&#45;11ee&#45;890b&#45;ac1a3ddd05c7&#45;&gt;e0b0fb84&#45;c687&#45;11ee&#45;890b&#45;ac1a3ddd05c7 -->
<g id="edge1" class="edge">
<title>e0b0f422&#45;c687&#45;11ee&#45;890b&#45;ac1a3ddd05c7&#45;&gt;e0b0fb84&#45;c687&#45;11ee&#45;890b&#45;ac1a3ddd05c7</title>
<path fill="none" stroke="black" d="M348.44,-206.55C291.35,-191.95 200.96,-168.84 144.75,-154.47"/>
<polygon fill="black" stroke="black" points="145.66,-151.09 135.11,-152 143.93,-157.87 145.66,-151.09"/>
</g>
<!-- e0b0ff1c&#45;c687&#45;11ee&#45;890b&#45;ac1a3ddd05c7 -->
<g id="node4" class="node">
<title>e0b0ff1c&#45;c687&#45;11ee&#45;890b&#45;ac1a3ddd05c7</title>
<ellipse fill="none" stroke="black" cx="259.22" cy="-140.55" rx="48.99" ry="18"/>
<text text-anchor="middle" x="259.22" y="-136.85" font-family="Times,serif" font-size="14.00">r_2: level2</text>
</g>
<!-- e0b0f422&#45;c687&#45;11ee&#45;890b&#45;ac1a3ddd05c7&#45;&gt;e0b0ff1c&#45;c687&#45;11ee&#45;890b&#45;ac1a3ddd05c7 -->
<g id="edge3" class="edge">
<title>e0b0f422&#45;c687&#45;11ee&#45;890b&#45;ac1a3ddd05c7&#45;&gt;e0b0ff1c&#45;c687&#45;11ee&#45;890b&#45;ac1a3ddd05c7</title>
<path fill="none" stroke="black" d="M354.33,-194.13C335.15,-183.52 313.31,-171.45 295.4,-161.55"/>
<polygon fill="black" stroke="black" points="297.12,-158.5 286.68,-156.73 293.74,-164.63 297.12,-158.5"/>
</g>
<!-- e0b1023c&#45;c687&#45;11ee&#45;890b&#45;ac1a3ddd05c7 -->
<g id="node6" class="node">
<title>e0b1023c&#45;c687&#45;11ee&#45;890b&#45;ac1a3ddd05c7</title>
<ellipse fill="none" stroke="black" cx="401.22" cy="-140.55" rx="48.99" ry="18"/>
<text text-anchor="middle" x="401.22" y="-136.85" font-family="Times,serif" font-size="14.00">r_4: level2</text>
</g>
<!-- e0b0f422&#45;c687&#45;11ee&#45;890b&#45;ac1a3ddd05c7&#45;&gt;e0b1023c&#45;c687&#45;11ee&#45;890b&#45;ac1a3ddd05c7 -->
<g id="edge5" class="edge">
<title>e0b0f422&#45;c687&#45;11ee&#45;890b&#45;ac1a3ddd05c7&#45;&gt;e0b1023c&#45;c687&#45;11ee&#45;890b&#45;ac1a3ddd05c7</title>
<path fill="none" stroke="black" d="M401.22,-194.34C401.22,-186.62 401.22,-178.11 401.22,-170.21"/>
<polygon fill="black" stroke="black" points="404.72,-170.39 401.22,-160.39 397.72,-170.39 404.72,-170.39"/>
</g>
<!-- e0b1053e&#45;c687&#45;11ee&#45;890b&#45;ac1a3ddd05c7 -->
<g id="node8" class="node">
<title>e0b1053e&#45;c687&#45;11ee&#45;890b&#45;ac1a3ddd05c7</title>
<ellipse fill="none" stroke="black" cx="542.22" cy="-140.55" rx="48.99" ry="18"/>
<text text-anchor="middle" x="542.22" y="-136.85" font-family="Times,serif" font-size="14.00">r_3: level3</text>
</g>
<!-- e0b0f422&#45;c687&#45;11ee&#45;890b&#45;ac1a3ddd05c7&#45;&gt;e0b1053e&#45;c687&#45;11ee&#45;890b&#45;ac1a3ddd05c7 -->
<g id="edge7" class="edge">
<title>e0b0f422&#45;c687&#45;11ee&#45;890b&#45;ac1a3ddd05c7&#45;&gt;e0b1053e&#45;c687&#45;11ee&#45;890b&#45;ac1a3ddd05c7</title>
<path fill="none" stroke="black" d="M447.78,-194.13C466.82,-183.52 488.51,-171.45 506.3,-161.55"/>
<polygon fill="black" stroke="black" points="507.91,-164.66 514.94,-156.73 504.51,-158.54 507.91,-164.66"/>
</g>
<!-- e0b1082c&#45;c687&#45;11ee&#45;890b&#45;ac1a3ddd05c7 -->
<g id="node10" class="node">
<title>e0b1082c&#45;c687&#45;11ee&#45;890b&#45;ac1a3ddd05c7</title>
<ellipse fill="none" stroke="black" cx="710.22" cy="-140.55" rx="48.99" ry="18"/>
<text text-anchor="middle" x="710.22" y="-136.85" font-family="Times,serif" font-size="14.00">r_5: level3</text>
</g>
<!-- e0b0f422&#45;c687&#45;11ee&#45;890b&#45;ac1a3ddd05c7&#45;&gt;e0b1082c&#45;c687&#45;11ee&#45;890b&#45;ac1a3ddd05c7 -->
<g id="edge9" class="edge">
<title>e0b0f422&#45;c687&#45;11ee&#45;890b&#45;ac1a3ddd05c7&#45;&gt;e0b1082c&#45;c687&#45;11ee&#45;890b&#45;ac1a3ddd05c7</title>
<path fill="none" stroke="black" d="M453.99,-206.64C511.68,-191.99 603.43,-168.68 660.07,-154.29"/>
<polygon fill="black" stroke="black" points="660.61,-157.76 669.44,-151.91 658.89,-150.98 660.61,-157.76"/>
</g>
<!-- e0b0fd6e&#45;c687&#45;11ee&#45;890b&#45;ac1a3ddd05c7 -->
<g id="node3" class="node">
<title>e0b0fd6e&#45;c687&#45;11ee&#45;890b&#45;ac1a3ddd05c7</title>
<polygon fill="none" stroke="black" points="140.66,-43.27 105.44,-86.32 35,-86.32 -0.22,-43.27 35,-0.22 105.44,-0.22 140.66,-43.27"/>
<text text-anchor="middle" x="70.22" y="-54.57" font-family="Times,serif" font-size="14.00">rp_5: level1 </text>
<text text-anchor="middle" x="70.22" y="-39.57" font-family="Times,serif" font-size="14.00"> send_offer </text>
<text text-anchor="middle" x="70.22" y="-24.57" font-family="Times,serif" font-size="14.00"> cost : 18</text>
</g>
<!-- e0b0fb84&#45;c687&#45;11ee&#45;890b&#45;ac1a3ddd05c7&#45;&gt;e0b0fd6e&#45;c687&#45;11ee&#45;890b&#45;ac1a3ddd05c7 -->
<g id="edge2" class="edge">
<title>e0b0fb84&#45;c687&#45;11ee&#45;890b&#45;ac1a3ddd05c7&#45;&gt;e0b0fd6e&#45;c687&#45;11ee&#45;890b&#45;ac1a3ddd05c7</title>
<path fill="none" stroke="black" d="M89.93,-122.52C88.13,-115.36 85.92,-106.61 83.65,-97.58"/>
<polygon fill="black" stroke="black" points="87.07,-96.84 81.23,-87.99 80.28,-98.55 87.07,-96.84"/>
</g>
<!-- e0b100c0&#45;c687&#45;11ee&#45;890b&#45;ac1a3ddd05c7 -->
<g id="node5" class="node">
<title>e0b100c0&#45;c687&#45;11ee&#45;890b&#45;ac1a3ddd05c7</title>
<polygon fill="none" stroke="black" points="308.45,-43.27 270.84,-86.32 195.6,-86.32 157.98,-43.27 195.6,-0.22 270.84,-0.22 308.45,-43.27"/>
<text text-anchor="middle" x="233.22" y="-54.57" font-family="Times,serif" font-size="14.00">rp_10: level2 </text>
<text text-anchor="middle" x="233.22" y="-39.57" font-family="Times,serif" font-size="14.00"> send_offer </text>
<text text-anchor="middle" x="233.22" y="-24.57" font-family="Times,serif" font-size="14.00"> cost : 84</text>
</g>
<!-- e0b0ff1c&#45;c687&#45;11ee&#45;890b&#45;ac1a3ddd05c7&#45;&gt;e0b100c0&#45;c687&#45;11ee&#45;890b&#45;ac1a3ddd05c7 -->
<g id="edge4" class="edge">
<title>e0b0ff1c&#45;c687&#45;11ee&#45;890b&#45;ac1a3ddd05c7&#45;&gt;e0b100c0&#45;c687&#45;11ee&#45;890b&#45;ac1a3ddd05c7</title>
<path fill="none" stroke="black" d="M254.57,-122.52C252.62,-115.36 250.23,-106.61 247.77,-97.58"/>
<polygon fill="black" stroke="black" points="251.16,-96.71 245.15,-87.99 244.4,-98.56 251.16,-96.71"/>
</g>
<!-- e0b103cc&#45;c687&#45;11ee&#45;890b&#45;ac1a3ddd05c7 -->
<g id="node7" class="node">
<title>e0b103cc&#45;c687&#45;11ee&#45;890b&#45;ac1a3ddd05c7</title>
<polygon fill="none" stroke="black" points="476.45,-43.27 438.84,-86.32 363.6,-86.32 325.98,-43.27 363.6,-0.22 438.84,-0.22 476.45,-43.27"/>
<text text-anchor="middle" x="401.22" y="-54.57" font-family="Times,serif" font-size="14.00">rp_10: level2 </text>
<text text-anchor="middle" x="401.22" y="-39.57" font-family="Times,serif" font-size="14.00"> send_offer </text>
<text text-anchor="middle" x="401.22" y="-24.57" font-family="Times,serif" font-size="14.00"> cost : 119</text>
</g>
<!-- e0b1023c&#45;c687&#45;11ee&#45;890b&#45;ac1a3ddd05c7&#45;&gt;e0b103cc&#45;c687&#45;11ee&#45;890b&#45;ac1a3ddd05c7 -->
<g id="edge6" class="edge">
<title>e0b1023c&#45;c687&#45;11ee&#45;890b&#45;ac1a3ddd05c7&#45;&gt;e0b103cc&#45;c687&#45;11ee&#45;890b&#45;ac1a3ddd05c7</title>
<path fill="none" stroke="black" d="M401.22,-122.07C401.22,-115.13 401.22,-106.72 401.22,-98.05"/>
<polygon fill="black" stroke="black" points="404.72,-98.09 401.22,-88.09 397.72,-98.09 404.72,-98.09"/>
</g>
<!-- e0b106c4&#45;c687&#45;11ee&#45;890b&#45;ac1a3ddd05c7 -->
<g id="node9" class="node">
<title>e0b106c4&#45;c687&#45;11ee&#45;890b&#45;ac1a3ddd05c7</title>
<polygon fill="none" stroke="black" points="644.45,-43.27 606.84,-86.32 531.6,-86.32 493.98,-43.27 531.6,-0.22 606.84,-0.22 644.45,-43.27"/>
<text text-anchor="middle" x="569.22" y="-54.57" font-family="Times,serif" font-size="14.00">rp_17: level3 </text>
<text text-anchor="middle" x="569.22" y="-39.57" font-family="Times,serif" font-size="14.00"> send_offer </text>
<text text-anchor="middle" x="569.22" y="-24.57" font-family="Times,serif" font-size="14.00"> cost : 45</text>
</g>
<!-- e0b1053e&#45;c687&#45;11ee&#45;890b&#45;ac1a3ddd05c7&#45;&gt;e0b106c4&#45;c687&#45;11ee&#45;890b&#45;ac1a3ddd05c7 -->
<g id="edge8" class="edge">
<title>e0b1053e&#45;c687&#45;11ee&#45;890b&#45;ac1a3ddd05c7&#45;&gt;e0b106c4&#45;c687&#45;11ee&#45;890b&#45;ac1a3ddd05c7</title>
<path fill="none" stroke="black" d="M547.05,-122.52C549.07,-115.36 551.55,-106.61 554.11,-97.58"/>
<polygon fill="black" stroke="black" points="557.47,-98.56 556.83,-87.98 550.74,-96.65 557.47,-98.56"/>
</g>
<!-- e0b109b2&#45;c687&#45;11ee&#45;890b&#45;ac1a3ddd05c7 -->
<g id="node11" class="node">
<title>e0b109b2&#45;c687&#45;11ee&#45;890b&#45;ac1a3ddd05c7</title>
<polygon fill="none" stroke="black" points="812.45,-43.27 774.84,-86.32 699.6,-86.32 661.98,-43.27 699.6,-0.22 774.84,-0.22 812.45,-43.27"/>
<text text-anchor="middle" x="737.22" y="-54.57" font-family="Times,serif" font-size="14.00">rp_17: level3 </text>
<text text-anchor="middle" x="737.22" y="-39.57" font-family="Times,serif" font-size="14.00"> send_offer </text>
<text text-anchor="middle" x="737.22" y="-24.57" font-family="Times,serif" font-size="14.00"> cost : 106</text>
</g>
<!-- e0b1082c&#45;c687&#45;11ee&#45;890b&#45;ac1a3ddd05c7&#45;&gt;e0b109b2&#45;c687&#45;11ee&#45;890b&#45;ac1a3ddd05c7 -->
<g id="edge10" class="edge">
<title>e0b1082c&#45;c687&#45;11ee&#45;890b&#45;ac1a3ddd05c7&#45;&gt;e0b109b2&#45;c687&#45;11ee&#45;890b&#45;ac1a3ddd05c7</title>
<path fill="none" stroke="black" d="M715.05,-122.52C717.07,-115.36 719.55,-106.61 722.11,-97.58"/>
<polygon fill="black" stroke="black" points="725.47,-98.56 724.83,-87.98 718.74,-96.65 725.47,-98.56"/>
</g>
</g>
</svg>
