<?xml version="1.0" encoding="UTF-8" standalone="no"?>
<!DOCTYPE svg PUBLIC "-//W3C//DTD SVG 1.1//EN"
 "http://www.w3.org/Graphics/SVG/1.1/DTD/svg11.dtd">
<!-- Generated by graphviz version 7.1.0 (0)
 -->
<!-- Title: CallTree Pages: 1 -->
<svg width="855pt" height="256pt"
 viewBox="0.00 0.00 855.13 255.55" xmlns="http://www.w3.org/2000/svg" xmlns:xlink="http://www.w3.org/1999/xlink">
<g id="graph0" class="graph" transform="scale(1 1) rotate(0) translate(4 251.55)">
<title>CallTree</title>
<polygon fill="white" stroke="none" points="-4,4 -4,-251.55 851.13,-251.55 851.13,4 -4,4"/>
<!-- e09b7b56&#45;c687&#45;11ee&#45;890b&#45;ac1a3ddd05c7 -->
<g id="node1" class="node">
<title>e09b7b56&#45;c687&#45;11ee&#45;890b&#45;ac1a3ddd05c7</title>
<polygon fill="none" stroke="black" points="479.07,-247.55 368.07,-247.55 368.07,-194.55 479.07,-194.55 479.07,-247.55"/>
<text text-anchor="middle" x="423.57" y="-232.35" font-family="Times,serif" font-size="14.00">a1: start_process </text>
<text text-anchor="middle" x="423.57" y="-217.35" font-family="Times,serif" font-size="14.00"> Type: Core </text>
<text text-anchor="middle" x="423.57" y="-202.35" font-family="Times,serif" font-size="14.00"> Direction: Core</text>
</g>
<!-- e09b8420&#45;c687&#45;11ee&#45;890b&#45;ac1a3ddd05c7 -->
<g id="node2" class="node">
<title>e09b8420&#45;c687&#45;11ee&#45;890b&#45;ac1a3ddd05c7</title>
<ellipse fill="none" stroke="black" cx="106.57" cy="-140.55" rx="48.99" ry="18"/>
<text text-anchor="middle" x="106.57" y="-136.85" font-family="Times,serif" font-size="14.00">r_1: level1</text>
</g>
<!-- e09b7b56&#45;c687&#45;11ee&#45;890b&#45;ac1a3ddd05c7&#45;&gt;e09b8420&#45;c687&#45;11ee&#45;890b&#45;ac1a3ddd05c7 -->
<g id="edge1" class="edge">
<title>e09b7b56&#45;c687&#45;11ee&#45;890b&#45;ac1a3ddd05c7&#45;&gt;e09b8420&#45;c687&#45;11ee&#45;890b&#45;ac1a3ddd05c7</title>
<path fill="none" stroke="black" d="M367.62,-206.2C308.14,-191.46 214.87,-168.37 157.41,-154.14"/>
<polygon fill="black" stroke="black" points="158.43,-150.79 147.88,-151.78 156.75,-157.58 158.43,-150.79"/>
</g>
<!-- e09b88bc&#45;c687&#45;11ee&#45;890b&#45;ac1a3ddd05c7 -->
<g id="node4" class="node">
<title>e09b88bc&#45;c687&#45;11ee&#45;890b&#45;ac1a3ddd05c7</title>
<ellipse fill="none" stroke="black" cx="279.57" cy="-140.55" rx="48.99" ry="18"/>
<text text-anchor="middle" x="279.57" y="-136.85" font-family="Times,serif" font-size="14.00">r_2: level2</text>
</g>
<!-- e09b7b56&#45;c687&#45;11ee&#45;890b&#45;ac1a3ddd05c7&#45;&gt;e09b88bc&#45;c687&#45;11ee&#45;890b&#45;ac1a3ddd05c7 -->
<g id="edge3" class="edge">
<title>e09b7b56&#45;c687&#45;11ee&#45;890b&#45;ac1a3ddd05c7&#45;&gt;e09b88bc&#45;c687&#45;11ee&#45;890b&#45;ac1a3ddd05c7</title>
<path fill="none" stroke="black" d="M376.02,-194.13C356.48,-183.48 334.21,-171.34 316,-161.41"/>
<polygon fill="black" stroke="black" points="317.86,-158.43 307.4,-156.72 314.5,-164.58 317.86,-158.43"/>
</g>
<!-- e09b8bdc&#45;c687&#45;11ee&#45;890b&#45;ac1a3ddd05c7 -->
<g id="node6" class="node">
<title>e09b8bdc&#45;c687&#45;11ee&#45;890b&#45;ac1a3ddd05c7</title>
<ellipse fill="none" stroke="black" cx="423.57" cy="-140.55" rx="48.99" ry="18"/>
<text text-anchor="middle" x="423.57" y="-136.85" font-family="Times,serif" font-size="14.00">r_4: level2</text>
</g>
<!-- e09b7b56&#45;c687&#45;11ee&#45;890b&#45;ac1a3ddd05c7&#45;&gt;e09b8bdc&#45;c687&#45;11ee&#45;890b&#45;ac1a3ddd05c7 -->
<g id="edge5" class="edge">
<title>e09b7b56&#45;c687&#45;11ee&#45;890b&#45;ac1a3ddd05c7&#45;&gt;e09b8bdc&#45;c687&#45;11ee&#45;890b&#45;ac1a3ddd05c7</title>
<path fill="none" stroke="black" d="M423.57,-194.34C423.57,-186.62 423.57,-178.11 423.57,-170.21"/>
<polygon fill="black" stroke="black" points="427.07,-170.39 423.57,-160.39 420.07,-170.39 427.07,-170.39"/>
</g>
<!-- e09b8ef2&#45;c687&#45;11ee&#45;890b&#45;ac1a3ddd05c7 -->
<g id="node8" class="node">
<title>e09b8ef2&#45;c687&#45;11ee&#45;890b&#45;ac1a3ddd05c7</title>
<ellipse fill="none" stroke="black" cx="567.57" cy="-140.55" rx="48.99" ry="18"/>
<text text-anchor="middle" x="567.57" y="-136.85" font-family="Times,serif" font-size="14.00">r_3: level3</text>
</g>
<!-- e09b7b56&#45;c687&#45;11ee&#45;890b&#45;ac1a3ddd05c7&#45;&gt;e09b8ef2&#45;c687&#45;11ee&#45;890b&#45;ac1a3ddd05c7 -->
<g id="edge7" class="edge">
<title>e09b7b56&#45;c687&#45;11ee&#45;890b&#45;ac1a3ddd05c7&#45;&gt;e09b8ef2&#45;c687&#45;11ee&#45;890b&#45;ac1a3ddd05c7</title>
<path fill="none" stroke="black" d="M471.12,-194.13C490.66,-183.48 512.92,-171.34 531.13,-161.41"/>
<polygon fill="black" stroke="black" points="532.63,-164.58 539.73,-156.72 529.28,-158.43 532.63,-164.58"/>
</g>
<!-- e09b9230&#45;c687&#45;11ee&#45;890b&#45;ac1a3ddd05c7 -->
<g id="node10" class="node">
<title>e09b9230&#45;c687&#45;11ee&#45;890b&#45;ac1a3ddd05c7</title>
<ellipse fill="none" stroke="black" cx="740.57" cy="-140.55" rx="48.99" ry="18"/>
<text text-anchor="middle" x="740.57" y="-136.85" font-family="Times,serif" font-size="14.00">r_5: level3</text>
</g>
<!-- e09b7b56&#45;c687&#45;11ee&#45;890b&#45;ac1a3ddd05c7&#45;&gt;e09b9230&#45;c687&#45;11ee&#45;890b&#45;ac1a3ddd05c7 -->
<g id="edge9" class="edge">
<title>e09b7b56&#45;c687&#45;11ee&#45;890b&#45;ac1a3ddd05c7&#45;&gt;e09b9230&#45;c687&#45;11ee&#45;890b&#45;ac1a3ddd05c7</title>
<path fill="none" stroke="black" d="M479.51,-206.2C539,-191.46 632.26,-168.37 689.73,-154.14"/>
<polygon fill="black" stroke="black" points="690.39,-157.58 699.25,-151.78 688.71,-150.79 690.39,-157.58"/>
</g>
<!-- e09b86b4&#45;c687&#45;11ee&#45;890b&#45;ac1a3ddd05c7 -->
<g id="node3" class="node">
<title>e09b86b4&#45;c687&#45;11ee&#45;890b&#45;ac1a3ddd05c7</title>
<polygon fill="none" stroke="black" points="155.2,-43.27 116.38,-86.32 38.75,-86.32 -0.07,-43.27 38.75,-0.22 116.38,-0.22 155.2,-43.27"/>
<text text-anchor="middle" x="77.57" y="-54.57" font-family="Times,serif" font-size="14.00">rp_1: level1 </text>
<text text-anchor="middle" x="77.57" y="-39.57" font-family="Times,serif" font-size="14.00"> start_process </text>
<text text-anchor="middle" x="77.57" y="-24.57" font-family="Times,serif" font-size="14.00"> cost : 47</text>
</g>
<!-- e09b8420&#45;c687&#45;11ee&#45;890b&#45;ac1a3ddd05c7&#45;&gt;e09b86b4&#45;c687&#45;11ee&#45;890b&#45;ac1a3ddd05c7 -->
<g id="edge2" class="edge">
<title>e09b8420&#45;c687&#45;11ee&#45;890b&#45;ac1a3ddd05c7&#45;&gt;e09b86b4&#45;c687&#45;11ee&#45;890b&#45;ac1a3ddd05c7</title>
<path fill="none" stroke="black" d="M101.38,-122.52C99.18,-115.28 96.48,-106.42 93.7,-97.29"/>
<polygon fill="black" stroke="black" points="97.13,-96.52 90.87,-87.97 90.43,-98.56 97.13,-96.52"/>
</g>
<!-- e09b8a6a&#45;c687&#45;11ee&#45;890b&#45;ac1a3ddd05c7 -->
<g id="node5" class="node">
<title>e09b8a6a&#45;c687&#45;11ee&#45;890b&#45;ac1a3ddd05c7</title>
<polygon fill="none" stroke="black" points="328.2,-43.27 289.38,-86.32 211.75,-86.32 172.93,-43.27 211.75,-0.22 289.38,-0.22 328.2,-43.27"/>
<text text-anchor="middle" x="250.57" y="-54.57" font-family="Times,serif" font-size="14.00">rp_6: level2 </text>
<text text-anchor="middle" x="250.57" y="-39.57" font-family="Times,serif" font-size="14.00"> start_process </text>
<text text-anchor="middle" x="250.57" y="-24.57" font-family="Times,serif" font-size="14.00"> cost : 105</text>
</g>
<!-- e09b88bc&#45;c687&#45;11ee&#45;890b&#45;ac1a3ddd05c7&#45;&gt;e09b8a6a&#45;c687&#45;11ee&#45;890b&#45;ac1a3ddd05c7 -->
<g id="edge4" class="edge">
<title>e09b88bc&#45;c687&#45;11ee&#45;890b&#45;ac1a3ddd05c7&#45;&gt;e09b8a6a&#45;c687&#45;11ee&#45;890b&#45;ac1a3ddd05c7</title>
<path fill="none" stroke="black" d="M274.38,-122.52C272.18,-115.28 269.48,-106.42 266.7,-97.29"/>
<polygon fill="black" stroke="black" points="270.13,-96.52 263.87,-87.97 263.43,-98.56 270.13,-96.52"/>
</g>
<!-- e09b8d58&#45;c687&#45;11ee&#45;890b&#45;ac1a3ddd05c7 -->
<g id="node7" class="node">
<title>e09b8d58&#45;c687&#45;11ee&#45;890b&#45;ac1a3ddd05c7</title>
<polygon fill="none" stroke="black" points="501.2,-43.27 462.38,-86.32 384.75,-86.32 345.93,-43.27 384.75,-0.22 462.38,-0.22 501.2,-43.27"/>
<text text-anchor="middle" x="423.57" y="-54.57" font-family="Times,serif" font-size="14.00">rp_6: level2 </text>
<text text-anchor="middle" x="423.57" y="-39.57" font-family="Times,serif" font-size="14.00"> start_process </text>
<text text-anchor="middle" x="423.57" y="-24.57" font-family="Times,serif" font-size="14.00"> cost : 121</text>
</g>
<!-- e09b8bdc&#45;c687&#45;11ee&#45;890b&#45;ac1a3ddd05c7&#45;&gt;e09b8d58&#45;c687&#45;11ee&#45;890b&#45;ac1a3ddd05c7 -->
<g id="edge6" class="edge">
<title>e09b8bdc&#45;c687&#45;11ee&#45;890b&#45;ac1a3ddd05c7&#45;&gt;e09b8d58&#45;c687&#45;11ee&#45;890b&#45;ac1a3ddd05c7</title>
<path fill="none" stroke="black" d="M423.57,-122.07C423.57,-115.13 423.57,-106.72 423.57,-98.05"/>
<polygon fill="black" stroke="black" points="427.07,-98.09 423.57,-88.09 420.07,-98.09 427.07,-98.09"/>
</g>
<!-- e09b9082&#45;c687&#45;11ee&#45;890b&#45;ac1a3ddd05c7 -->
<g id="node9" class="node">
<title>e09b9082&#45;c687&#45;11ee&#45;890b&#45;ac1a3ddd05c7</title>
<polygon fill="none" stroke="black" points="674.2,-43.27 635.38,-86.32 557.75,-86.32 518.93,-43.27 557.75,-0.22 635.38,-0.22 674.2,-43.27"/>
<text text-anchor="middle" x="596.57" y="-54.57" font-family="Times,serif" font-size="14.00">rp_13: level3 </text>
<text text-anchor="middle" x="596.57" y="-39.57" font-family="Times,serif" font-size="14.00"> start_process </text>
<text text-anchor="middle" x="596.57" y="-24.57" font-family="Times,serif" font-size="14.00"> cost : 52</text>
</g>
<!-- e09b8ef2&#45;c687&#45;11ee&#45;890b&#45;ac1a3ddd05c7&#45;&gt;e09b9082&#45;c687&#45;11ee&#45;890b&#45;ac1a3ddd05c7 -->
<g id="edge8" class="edge">
<title>e09b8ef2&#45;c687&#45;11ee&#45;890b&#45;ac1a3ddd05c7&#45;&gt;e09b9082&#45;c687&#45;11ee&#45;890b&#45;ac1a3ddd05c7</title>
<path fill="none" stroke="black" d="M572.75,-122.52C574.95,-115.28 577.65,-106.42 580.43,-97.29"/>
<polygon fill="black" stroke="black" points="583.7,-98.56 583.27,-87.97 577.01,-96.52 583.7,-98.56"/>
</g>
<!-- e09b93f2&#45;c687&#45;11ee&#45;890b&#45;ac1a3ddd05c7 -->
<g id="node11" class="node">
<title>e09b93f2&#45;c687&#45;11ee&#45;890b&#45;ac1a3ddd05c7</title>
<polygon fill="none" stroke="black" points="847.2,-43.27 808.38,-86.32 730.75,-86.32 691.93,-43.27 730.75,-0.22 808.38,-0.22 847.2,-43.27"/>
<text text-anchor="middle" x="769.57" y="-54.57" font-family="Times,serif" font-size="14.00">rp_13: level3 </text>
<text text-anchor="middle" x="769.57" y="-39.57" font-family="Times,serif" font-size="14.00"> start_process </text>
<text text-anchor="middle" x="769.57" y="-24.57" font-family="Times,serif" font-size="14.00"> cost : 120</text>
</g>
<!-- e09b9230&#45;c687&#45;11ee&#45;890b&#45;ac1a3ddd05c7&#45;&gt;e09b93f2&#45;c687&#45;11ee&#45;890b&#45;ac1a3ddd05c7 -->
<g id="edge10" class="edge">
<title>e09b9230&#45;c687&#45;11ee&#45;890b&#45;ac1a3ddd05c7&#45;&gt;e09b93f2&#45;c687&#45;11ee&#45;890b&#45;ac1a3ddd05c7</title>
<path fill="none" stroke="black" d="M745.75,-122.52C747.95,-115.28 750.65,-106.42 753.43,-97.29"/>
<polygon fill="black" stroke="black" points="756.7,-98.56 756.27,-87.97 750.01,-96.52 756.7,-98.56"/>
</g>
</g>
</svg>
