<?xml version="1.0" encoding="UTF-8" standalone="no"?>
<!DOCTYPE svg PUBLIC "-//W3C//DTD SVG 1.1//EN"
 "http://www.w3.org/Graphics/SVG/1.1/DTD/svg11.dtd">
<!-- Generated by graphviz version 7.1.0 (0)
 -->
<!-- Title: CallTree Pages: 1 -->
<svg width="897pt" height="539pt"
 viewBox="0.00 0.00 896.67 539.10" xmlns="http://www.w3.org/2000/svg" xmlns:xlink="http://www.w3.org/1999/xlink">
<g id="graph0" class="graph" transform="scale(1 1) rotate(0) translate(4 535.1)">
<title>CallTree</title>
<polygon fill="white" stroke="none" points="-4,4 -4,-535.1 892.67,-535.1 892.67,4 -4,4"/>
<!-- f9f239f0&#45;c696&#45;11ee&#45;a4c0&#45;ac1a3ddd05c7 -->
<g id="node1" class="node">
<title>f9f239f0&#45;c696&#45;11ee&#45;a4c0&#45;ac1a3ddd05c7</title>
<polygon fill="none" stroke="black" points="563.25,-531.1 442.25,-531.1 442.25,-478.1 563.25,-478.1 563.25,-531.1"/>
<text text-anchor="middle" x="502.75" y="-515.9" font-family="Times,serif" font-size="14.00">a2: data_gathering </text>
<text text-anchor="middle" x="502.75" y="-500.9" font-family="Times,serif" font-size="14.00"> Type: Core </text>
<text text-anchor="middle" x="502.75" y="-485.9" font-family="Times,serif" font-size="14.00"> Direction: Core</text>
</g>
<!-- f9f23f9a&#45;c696&#45;11ee&#45;a4c0&#45;ac1a3ddd05c7 -->
<g id="node2" class="node">
<title>f9f23f9a&#45;c696&#45;11ee&#45;a4c0&#45;ac1a3ddd05c7</title>
<ellipse fill="none" stroke="black" cx="294.75" cy="-424.1" rx="48.99" ry="18"/>
<text text-anchor="middle" x="294.75" y="-420.4" font-family="Times,serif" font-size="14.00">r_1: level1</text>
</g>
<!-- f9f239f0&#45;c696&#45;11ee&#45;a4c0&#45;ac1a3ddd05c7&#45;&gt;f9f23f9a&#45;c696&#45;11ee&#45;a4c0&#45;ac1a3ddd05c7 -->
<g id="edge1" class="edge">
<title>f9f239f0&#45;c696&#45;11ee&#45;a4c0&#45;ac1a3ddd05c7&#45;&gt;f9f23f9a&#45;c696&#45;11ee&#45;a4c0&#45;ac1a3ddd05c7</title>
<path fill="none" stroke="black" d="M442.03,-480.68C408.92,-468.19 368.69,-453 338.65,-441.67"/>
<polygon fill="black" stroke="black" points="340.09,-438.47 329.49,-438.21 337.61,-445.01 340.09,-438.47"/>
</g>
<!-- f9f24832&#45;c696&#45;11ee&#45;a4c0&#45;ac1a3ddd05c7 -->
<g id="node9" class="node">
<title>f9f24832&#45;c696&#45;11ee&#45;a4c0&#45;ac1a3ddd05c7</title>
<ellipse fill="none" stroke="black" cx="445.75" cy="-424.1" rx="48.99" ry="18"/>
<text text-anchor="middle" x="445.75" y="-420.4" font-family="Times,serif" font-size="14.00">r_6: level1</text>
</g>
<!-- f9f239f0&#45;c696&#45;11ee&#45;a4c0&#45;ac1a3ddd05c7&#45;&gt;f9f24832&#45;c696&#45;11ee&#45;a4c0&#45;ac1a3ddd05c7 -->
<g id="edge8" class="edge">
<title>f9f239f0&#45;c696&#45;11ee&#45;a4c0&#45;ac1a3ddd05c7&#45;&gt;f9f24832&#45;c696&#45;11ee&#45;a4c0&#45;ac1a3ddd05c7</title>
<path fill="none" stroke="black" d="M484.09,-477.89C477.86,-469.32 470.92,-459.76 464.67,-451.15"/>
<polygon fill="black" stroke="black" points="467.58,-449.21 458.88,-443.17 461.92,-453.32 467.58,-449.21"/>
</g>
<!-- f9f24f9e&#45;c696&#45;11ee&#45;a4c0&#45;ac1a3ddd05c7 -->
<g id="node16" class="node">
<title>f9f24f9e&#45;c696&#45;11ee&#45;a4c0&#45;ac1a3ddd05c7</title>
<ellipse fill="none" stroke="black" cx="596.75" cy="-424.1" rx="48.99" ry="18"/>
<text text-anchor="middle" x="596.75" y="-420.4" font-family="Times,serif" font-size="14.00">r_2: level2</text>
</g>
<!-- f9f239f0&#45;c696&#45;11ee&#45;a4c0&#45;ac1a3ddd05c7&#45;&gt;f9f24f9e&#45;c696&#45;11ee&#45;a4c0&#45;ac1a3ddd05c7 -->
<g id="edge15" class="edge">
<title>f9f239f0&#45;c696&#45;11ee&#45;a4c0&#45;ac1a3ddd05c7&#45;&gt;f9f24f9e&#45;c696&#45;11ee&#45;a4c0&#45;ac1a3ddd05c7</title>
<path fill="none" stroke="black" d="M533.79,-477.68C545.15,-468.19 557.93,-457.52 568.99,-448.28"/>
<polygon fill="black" stroke="black" points="571.21,-450.98 576.64,-441.89 566.73,-445.61 571.21,-450.98"/>
</g>
<!-- f9f25188&#45;c696&#45;11ee&#45;a4c0&#45;ac1a3ddd05c7 -->
<g id="node18" class="node">
<title>f9f25188&#45;c696&#45;11ee&#45;a4c0&#45;ac1a3ddd05c7</title>
<ellipse fill="none" stroke="black" cx="766.75" cy="-424.1" rx="48.99" ry="18"/>
<text text-anchor="middle" x="766.75" y="-420.4" font-family="Times,serif" font-size="14.00">r_4: level2</text>
</g>
<!-- f9f239f0&#45;c696&#45;11ee&#45;a4c0&#45;ac1a3ddd05c7&#45;&gt;f9f25188&#45;c696&#45;11ee&#45;a4c0&#45;ac1a3ddd05c7 -->
<g id="edge17" class="edge">
<title>f9f239f0&#45;c696&#45;11ee&#45;a4c0&#45;ac1a3ddd05c7&#45;&gt;f9f25188&#45;c696&#45;11ee&#45;a4c0&#45;ac1a3ddd05c7</title>
<path fill="none" stroke="black" d="M563.65,-485.49C610.72,-471.49 674.98,-452.39 718.52,-439.44"/>
<polygon fill="black" stroke="black" points="719.35,-442.84 727.94,-436.64 717.36,-436.13 719.35,-442.84"/>
</g>
<!-- f9f24102&#45;c696&#45;11ee&#45;a4c0&#45;ac1a3ddd05c7 -->
<g id="node3" class="node">
<title>f9f24102&#45;c696&#45;11ee&#45;a4c0&#45;ac1a3ddd05c7</title>
<polygon fill="none" stroke="black" points="324.58,-326.82 282.17,-369.87 197.33,-369.87 154.92,-326.82 197.33,-283.77 282.17,-283.77 324.58,-326.82"/>
<text text-anchor="middle" x="239.75" y="-338.12" font-family="Times,serif" font-size="14.00">rp_2: level1 </text>
<text text-anchor="middle" x="239.75" y="-323.12" font-family="Times,serif" font-size="14.00"> data_gathering </text>
<text text-anchor="middle" x="239.75" y="-308.12" font-family="Times,serif" font-size="14.00"> cost : 10</text>
</g>
<!-- f9f23f9a&#45;c696&#45;11ee&#45;a4c0&#45;ac1a3ddd05c7&#45;&gt;f9f24102&#45;c696&#45;11ee&#45;a4c0&#45;ac1a3ddd05c7 -->
<g id="edge2" class="edge">
<title>f9f23f9a&#45;c696&#45;11ee&#45;a4c0&#45;ac1a3ddd05c7&#45;&gt;f9f24102&#45;c696&#45;11ee&#45;a4c0&#45;ac1a3ddd05c7</title>
<path fill="none" stroke="black" d="M284.92,-406.06C280.61,-398.6 275.29,-389.39 269.84,-379.94"/>
<polygon fill="black" stroke="black" points="272.93,-378.3 264.9,-371.39 266.87,-381.8 272.93,-378.3"/>
</g>
<!-- f9f2421a&#45;c696&#45;11ee&#45;a4c0&#45;ac1a3ddd05c7 -->
<g id="node4" class="node">
<title>f9f2421a&#45;c696&#45;11ee&#45;a4c0&#45;ac1a3ddd05c7</title>
<polygon fill="none" stroke="black" points="296.25,-247.55 183.25,-247.55 183.25,-194.55 296.25,-194.55 296.25,-247.55"/>
<text text-anchor="middle" x="239.75" y="-232.35" font-family="Times,serif" font-size="14.00">r1: data_support </text>
<text text-anchor="middle" x="239.75" y="-217.35" font-family="Times,serif" font-size="14.00"> Type: insert </text>
<text text-anchor="middle" x="239.75" y="-202.35" font-family="Times,serif" font-size="14.00"> Direction: before</text>
</g>
<!-- f9f24102&#45;c696&#45;11ee&#45;a4c0&#45;ac1a3ddd05c7&#45;&gt;f9f2421a&#45;c696&#45;11ee&#45;a4c0&#45;ac1a3ddd05c7 -->
<g id="edge3" class="edge">
<title>f9f24102&#45;c696&#45;11ee&#45;a4c0&#45;ac1a3ddd05c7&#45;&gt;f9f2421a&#45;c696&#45;11ee&#45;a4c0&#45;ac1a3ddd05c7</title>
<path fill="none" stroke="black" d="M239.75,-283.31C239.75,-275.36 239.75,-267.1 239.75,-259.32"/>
<polygon fill="black" stroke="black" points="243.25,-259.49 239.75,-249.49 236.25,-259.49 243.25,-259.49"/>
</g>
<!-- f9f243f0&#45;c696&#45;11ee&#45;a4c0&#45;ac1a3ddd05c7 -->
<g id="node5" class="node">
<title>f9f243f0&#45;c696&#45;11ee&#45;a4c0&#45;ac1a3ddd05c7</title>
<ellipse fill="none" stroke="black" cx="101.75" cy="-140.55" rx="48.99" ry="18"/>
<text text-anchor="middle" x="101.75" y="-136.85" font-family="Times,serif" font-size="14.00">r_2: level2</text>
</g>
<!-- f9f2421a&#45;c696&#45;11ee&#45;a4c0&#45;ac1a3ddd05c7&#45;&gt;f9f243f0&#45;c696&#45;11ee&#45;a4c0&#45;ac1a3ddd05c7 -->
<g id="edge4" class="edge">
<title>f9f2421a&#45;c696&#45;11ee&#45;a4c0&#45;ac1a3ddd05c7&#45;&gt;f9f243f0&#45;c696&#45;11ee&#45;a4c0&#45;ac1a3ddd05c7</title>
<path fill="none" stroke="black" d="M194.18,-194.13C175.67,-183.6 154.62,-171.62 137.28,-161.76"/>
<polygon fill="black" stroke="black" points="139.29,-158.87 128.86,-156.97 135.82,-164.96 139.29,-158.87"/>
</g>
<!-- f9f2462a&#45;c696&#45;11ee&#45;a4c0&#45;ac1a3ddd05c7 -->
<g id="node7" class="node">
<title>f9f2462a&#45;c696&#45;11ee&#45;a4c0&#45;ac1a3ddd05c7</title>
<ellipse fill="none" stroke="black" cx="240.75" cy="-140.55" rx="48.99" ry="18"/>
<text text-anchor="middle" x="240.75" y="-136.85" font-family="Times,serif" font-size="14.00">r_4: level2</text>
</g>
<!-- f9f2421a&#45;c696&#45;11ee&#45;a4c0&#45;ac1a3ddd05c7&#45;&gt;f9f2462a&#45;c696&#45;11ee&#45;a4c0&#45;ac1a3ddd05c7 -->
<g id="edge6" class="edge">
<title>f9f2421a&#45;c696&#45;11ee&#45;a4c0&#45;ac1a3ddd05c7&#45;&gt;f9f2462a&#45;c696&#45;11ee&#45;a4c0&#45;ac1a3ddd05c7</title>
<path fill="none" stroke="black" d="M240.08,-194.34C240.18,-186.62 240.28,-178.11 240.39,-170.21"/>
<polygon fill="black" stroke="black" points="243.88,-170.44 240.51,-160.39 236.88,-170.35 243.88,-170.44"/>
</g>
<!-- f9f2451c&#45;c696&#45;11ee&#45;a4c0&#45;ac1a3ddd05c7 -->
<g id="node6" class="node">
<title>f9f2451c&#45;c696&#45;11ee&#45;a4c0&#45;ac1a3ddd05c7</title>
<polygon fill="none" stroke="black" points="153.25,-43.27 115,-86.32 38.5,-86.32 0.25,-43.27 38.5,-0.22 115,-0.22 153.25,-43.27"/>
<text text-anchor="middle" x="76.75" y="-54.57" font-family="Times,serif" font-size="14.00">rp_20: level2 </text>
<text text-anchor="middle" x="76.75" y="-39.57" font-family="Times,serif" font-size="14.00"> data_support </text>
<text text-anchor="middle" x="76.75" y="-24.57" font-family="Times,serif" font-size="14.00"> cost : 9</text>
</g>
<!-- f9f243f0&#45;c696&#45;11ee&#45;a4c0&#45;ac1a3ddd05c7&#45;&gt;f9f2451c&#45;c696&#45;11ee&#45;a4c0&#45;ac1a3ddd05c7 -->
<g id="edge5" class="edge">
<title>f9f243f0&#45;c696&#45;11ee&#45;a4c0&#45;ac1a3ddd05c7&#45;&gt;f9f2451c&#45;c696&#45;11ee&#45;a4c0&#45;ac1a3ddd05c7</title>
<path fill="none" stroke="black" d="M97.28,-122.52C95.4,-115.36 93.11,-106.61 90.74,-97.58"/>
<polygon fill="black" stroke="black" points="94.15,-96.77 88.22,-87.99 87.37,-98.55 94.15,-96.77"/>
</g>
<!-- f9f24742&#45;c696&#45;11ee&#45;a4c0&#45;ac1a3ddd05c7 -->
<g id="node8" class="node">
<title>f9f24742&#45;c696&#45;11ee&#45;a4c0&#45;ac1a3ddd05c7</title>
<polygon fill="none" stroke="black" points="325.25,-43.27 287,-86.32 210.5,-86.32 172.25,-43.27 210.5,-0.22 287,-0.22 325.25,-43.27"/>
<text text-anchor="middle" x="248.75" y="-54.57" font-family="Times,serif" font-size="14.00">rp_20: level2 </text>
<text text-anchor="middle" x="248.75" y="-39.57" font-family="Times,serif" font-size="14.00"> data_support </text>
<text text-anchor="middle" x="248.75" y="-24.57" font-family="Times,serif" font-size="14.00"> cost : 8</text>
</g>
<!-- f9f2462a&#45;c696&#45;11ee&#45;a4c0&#45;ac1a3ddd05c7&#45;&gt;f9f24742&#45;c696&#45;11ee&#45;a4c0&#45;ac1a3ddd05c7 -->
<g id="edge7" class="edge">
<title>f9f2462a&#45;c696&#45;11ee&#45;a4c0&#45;ac1a3ddd05c7&#45;&gt;f9f24742&#45;c696&#45;11ee&#45;a4c0&#45;ac1a3ddd05c7</title>
<path fill="none" stroke="black" d="M242.22,-122.07C242.8,-115.13 243.51,-106.72 244.24,-98.05"/>
<polygon fill="black" stroke="black" points="247.72,-98.34 245.07,-88.09 240.75,-97.76 247.72,-98.34"/>
</g>
<!-- f9f2494a&#45;c696&#45;11ee&#45;a4c0&#45;ac1a3ddd05c7 -->
<g id="node10" class="node">
<title>f9f2494a&#45;c696&#45;11ee&#45;a4c0&#45;ac1a3ddd05c7</title>
<polygon fill="none" stroke="black" points="512.58,-326.82 470.17,-369.87 385.33,-369.87 342.92,-326.82 385.33,-283.77 470.17,-283.77 512.58,-326.82"/>
<text text-anchor="middle" x="427.75" y="-338.12" font-family="Times,serif" font-size="14.00">rp_2: level1 </text>
<text text-anchor="middle" x="427.75" y="-323.12" font-family="Times,serif" font-size="14.00"> data_gathering </text>
<text text-anchor="middle" x="427.75" y="-308.12" font-family="Times,serif" font-size="14.00"> cost : 10</text>
</g>
<!-- f9f24832&#45;c696&#45;11ee&#45;a4c0&#45;ac1a3ddd05c7&#45;&gt;f9f2494a&#45;c696&#45;11ee&#45;a4c0&#45;ac1a3ddd05c7 -->
<g id="edge9" class="edge">
<title>f9f24832&#45;c696&#45;11ee&#45;a4c0&#45;ac1a3ddd05c7&#45;&gt;f9f2494a&#45;c696&#45;11ee&#45;a4c0&#45;ac1a3ddd05c7</title>
<path fill="none" stroke="black" d="M442.53,-406.06C441.18,-398.91 439.53,-390.16 437.82,-381.13"/>
<polygon fill="black" stroke="black" points="441.31,-380.74 436.01,-371.56 434.43,-382.04 441.31,-380.74"/>
</g>
<!-- f9f24a30&#45;c696&#45;11ee&#45;a4c0&#45;ac1a3ddd05c7 -->
<g id="node11" class="node">
<title>f9f24a30&#45;c696&#45;11ee&#45;a4c0&#45;ac1a3ddd05c7</title>
<polygon fill="none" stroke="black" points="484.25,-247.55 371.25,-247.55 371.25,-194.55 484.25,-194.55 484.25,-247.55"/>
<text text-anchor="middle" x="427.75" y="-232.35" font-family="Times,serif" font-size="14.00">r1: data_support </text>
<text text-anchor="middle" x="427.75" y="-217.35" font-family="Times,serif" font-size="14.00"> Type: insert </text>
<text text-anchor="middle" x="427.75" y="-202.35" font-family="Times,serif" font-size="14.00"> Direction: before</text>
</g>
<!-- f9f2494a&#45;c696&#45;11ee&#45;a4c0&#45;ac1a3ddd05c7&#45;&gt;f9f24a30&#45;c696&#45;11ee&#45;a4c0&#45;ac1a3ddd05c7 -->
<g id="edge10" class="edge">
<title>f9f2494a&#45;c696&#45;11ee&#45;a4c0&#45;ac1a3ddd05c7&#45;&gt;f9f24a30&#45;c696&#45;11ee&#45;a4c0&#45;ac1a3ddd05c7</title>
<path fill="none" stroke="black" d="M427.75,-283.31C427.75,-275.36 427.75,-267.1 427.75,-259.32"/>
<polygon fill="black" stroke="black" points="431.25,-259.49 427.75,-249.49 424.25,-259.49 431.25,-259.49"/>
</g>
<!-- f9f24bc0&#45;c696&#45;11ee&#45;a4c0&#45;ac1a3ddd05c7 -->
<g id="node12" class="node">
<title>f9f24bc0&#45;c696&#45;11ee&#45;a4c0&#45;ac1a3ddd05c7</title>
<ellipse fill="none" stroke="black" cx="425.75" cy="-140.55" rx="48.99" ry="18"/>
<text text-anchor="middle" x="425.75" y="-136.85" font-family="Times,serif" font-size="14.00">r_2: level2</text>
</g>
<!-- f9f24a30&#45;c696&#45;11ee&#45;a4c0&#45;ac1a3ddd05c7&#45;&gt;f9f24bc0&#45;c696&#45;11ee&#45;a4c0&#45;ac1a3ddd05c7 -->
<g id="edge11" class="edge">
<title>f9f24a30&#45;c696&#45;11ee&#45;a4c0&#45;ac1a3ddd05c7&#45;&gt;f9f24bc0&#45;c696&#45;11ee&#45;a4c0&#45;ac1a3ddd05c7</title>
<path fill="none" stroke="black" d="M427.1,-194.34C426.9,-186.62 426.68,-178.11 426.48,-170.21"/>
<polygon fill="black" stroke="black" points="429.98,-170.3 426.23,-160.39 422.99,-170.48 429.98,-170.3"/>
</g>
<!-- f9f24daa&#45;c696&#45;11ee&#45;a4c0&#45;ac1a3ddd05c7 -->
<g id="node14" class="node">
<title>f9f24daa&#45;c696&#45;11ee&#45;a4c0&#45;ac1a3ddd05c7</title>
<ellipse fill="none" stroke="black" cx="568.75" cy="-140.55" rx="48.99" ry="18"/>
<text text-anchor="middle" x="568.75" y="-136.85" font-family="Times,serif" font-size="14.00">r_4: level2</text>
</g>
<!-- f9f24a30&#45;c696&#45;11ee&#45;a4c0&#45;ac1a3ddd05c7&#45;&gt;f9f24daa&#45;c696&#45;11ee&#45;a4c0&#45;ac1a3ddd05c7 -->
<g id="edge13" class="edge">
<title>f9f24a30&#45;c696&#45;11ee&#45;a4c0&#45;ac1a3ddd05c7&#45;&gt;f9f24daa&#45;c696&#45;11ee&#45;a4c0&#45;ac1a3ddd05c7</title>
<path fill="none" stroke="black" d="M474.31,-194.13C493.35,-183.52 515.04,-171.45 532.83,-161.55"/>
<polygon fill="black" stroke="black" points="534.44,-164.66 541.48,-156.73 531.04,-158.54 534.44,-164.66"/>
</g>
<!-- f9f24cce&#45;c696&#45;11ee&#45;a4c0&#45;ac1a3ddd05c7 -->
<g id="node13" class="node">
<title>f9f24cce&#45;c696&#45;11ee&#45;a4c0&#45;ac1a3ddd05c7</title>
<polygon fill="none" stroke="black" points="501.25,-43.27 463,-86.32 386.5,-86.32 348.25,-43.27 386.5,-0.22 463,-0.22 501.25,-43.27"/>
<text text-anchor="middle" x="424.75" y="-54.57" font-family="Times,serif" font-size="14.00">rp_20: level2 </text>
<text text-anchor="middle" x="424.75" y="-39.57" font-family="Times,serif" font-size="14.00"> data_support </text>
<text text-anchor="middle" x="424.75" y="-24.57" font-family="Times,serif" font-size="14.00"> cost : 9</text>
</g>
<!-- f9f24bc0&#45;c696&#45;11ee&#45;a4c0&#45;ac1a3ddd05c7&#45;&gt;f9f24cce&#45;c696&#45;11ee&#45;a4c0&#45;ac1a3ddd05c7 -->
<g id="edge12" class="edge">
<title>f9f24bc0&#45;c696&#45;11ee&#45;a4c0&#45;ac1a3ddd05c7&#45;&gt;f9f24cce&#45;c696&#45;11ee&#45;a4c0&#45;ac1a3ddd05c7</title>
<path fill="none" stroke="black" d="M425.57,-122.07C425.49,-115.13 425.41,-106.72 425.32,-98.05"/>
<polygon fill="black" stroke="black" points="428.82,-98.05 425.21,-88.09 421.82,-98.13 428.82,-98.05"/>
</g>
<!-- f9f24eb8&#45;c696&#45;11ee&#45;a4c0&#45;ac1a3ddd05c7 -->
<g id="node15" class="node">
<title>f9f24eb8&#45;c696&#45;11ee&#45;a4c0&#45;ac1a3ddd05c7</title>
<polygon fill="none" stroke="black" points="673.25,-43.27 635,-86.32 558.5,-86.32 520.25,-43.27 558.5,-0.22 635,-0.22 673.25,-43.27"/>
<text text-anchor="middle" x="596.75" y="-54.57" font-family="Times,serif" font-size="14.00">rp_20: level2 </text>
<text text-anchor="middle" x="596.75" y="-39.57" font-family="Times,serif" font-size="14.00"> data_support </text>
<text text-anchor="middle" x="596.75" y="-24.57" font-family="Times,serif" font-size="14.00"> cost : 8</text>
</g>
<!-- f9f24daa&#45;c696&#45;11ee&#45;a4c0&#45;ac1a3ddd05c7&#45;&gt;f9f24eb8&#45;c696&#45;11ee&#45;a4c0&#45;ac1a3ddd05c7 -->
<g id="edge14" class="edge">
<title>f9f24daa&#45;c696&#45;11ee&#45;a4c0&#45;ac1a3ddd05c7&#45;&gt;f9f24eb8&#45;c696&#45;11ee&#45;a4c0&#45;ac1a3ddd05c7</title>
<path fill="none" stroke="black" d="M573.76,-122.52C575.88,-115.28 578.49,-106.42 581.17,-97.29"/>
<polygon fill="black" stroke="black" points="584.44,-98.56 583.91,-87.98 577.73,-96.59 584.44,-98.56"/>
</g>
<!-- f9f250ac&#45;c696&#45;11ee&#45;a4c0&#45;ac1a3ddd05c7 -->
<g id="node17" class="node">
<title>f9f250ac&#45;c696&#45;11ee&#45;a4c0&#45;ac1a3ddd05c7</title>
<polygon fill="none" stroke="black" points="700.58,-326.82 658.17,-369.87 573.33,-369.87 530.92,-326.82 573.33,-283.77 658.17,-283.77 700.58,-326.82"/>
<text text-anchor="middle" x="615.75" y="-338.12" font-family="Times,serif" font-size="14.00">rp_7: level2 </text>
<text text-anchor="middle" x="615.75" y="-323.12" font-family="Times,serif" font-size="14.00"> data_gathering </text>
<text text-anchor="middle" x="615.75" y="-308.12" font-family="Times,serif" font-size="14.00"> cost : 20</text>
</g>
<!-- f9f24f9e&#45;c696&#45;11ee&#45;a4c0&#45;ac1a3ddd05c7&#45;&gt;f9f250ac&#45;c696&#45;11ee&#45;a4c0&#45;ac1a3ddd05c7 -->
<g id="edge16" class="edge">
<title>f9f24f9e&#45;c696&#45;11ee&#45;a4c0&#45;ac1a3ddd05c7&#45;&gt;f9f250ac&#45;c696&#45;11ee&#45;a4c0&#45;ac1a3ddd05c7</title>
<path fill="none" stroke="black" d="M600.15,-406.06C601.57,-398.91 603.32,-390.16 605.12,-381.13"/>
<polygon fill="black" stroke="black" points="608.51,-382.05 607.03,-371.56 601.64,-380.68 608.51,-382.05"/>
</g>
<!-- f9f252a0&#45;c696&#45;11ee&#45;a4c0&#45;ac1a3ddd05c7 -->
<g id="node19" class="node">
<title>f9f252a0&#45;c696&#45;11ee&#45;a4c0&#45;ac1a3ddd05c7</title>
<polygon fill="none" stroke="black" points="888.58,-326.82 846.17,-369.87 761.33,-369.87 718.92,-326.82 761.33,-283.77 846.17,-283.77 888.58,-326.82"/>
<text text-anchor="middle" x="803.75" y="-338.12" font-family="Times,serif" font-size="14.00">rp_7: level2 </text>
<text text-anchor="middle" x="803.75" y="-323.12" font-family="Times,serif" font-size="14.00"> data_gathering </text>
<text text-anchor="middle" x="803.75" y="-308.12" font-family="Times,serif" font-size="14.00"> cost : 20</text>
</g>
<!-- f9f25188&#45;c696&#45;11ee&#45;a4c0&#45;ac1a3ddd05c7&#45;&gt;f9f252a0&#45;c696&#45;11ee&#45;a4c0&#45;ac1a3ddd05c7 -->
<g id="edge18" class="edge">
<title>f9f25188&#45;c696&#45;11ee&#45;a4c0&#45;ac1a3ddd05c7&#45;&gt;f9f252a0&#45;c696&#45;11ee&#45;a4c0&#45;ac1a3ddd05c7</title>
<path fill="none" stroke="black" d="M773.37,-406.06C776.2,-398.75 779.69,-389.77 783.28,-380.54"/>
<polygon fill="black" stroke="black" points="786.44,-382.08 786.79,-371.49 779.91,-379.54 786.44,-382.08"/>
</g>
</g>
</svg>
