<?xml version="1.0" encoding="UTF-8" standalone="no"?>
<!DOCTYPE svg PUBLIC "-//W3C//DTD SVG 1.1//EN"
 "http://www.w3.org/Graphics/SVG/1.1/DTD/svg11.dtd">
<!-- Generated by graphviz version 7.1.0 (0)
 -->
<!-- Title: CallTree Pages: 1 -->
<svg width="1790pt" height="539pt"
 viewBox="0.00 0.00 1790.39 539.10" xmlns="http://www.w3.org/2000/svg" xmlns:xlink="http://www.w3.org/1999/xlink">
<g id="graph0" class="graph" transform="scale(1 1) rotate(0) translate(4 535.1)">
<title>CallTree</title>
<polygon fill="white" stroke="none" points="-4,4 -4,-535.1 1786.39,-535.1 1786.39,4 -4,4"/>
<!-- f9f53c5e&#45;c696&#45;11ee&#45;a4c0&#45;ac1a3ddd05c7 -->
<g id="node1" class="node">
<title>f9f53c5e&#45;c696&#45;11ee&#45;a4c0&#45;ac1a3ddd05c7</title>
<polygon fill="none" stroke="black" points="1120.2,-531.1 1007.2,-531.1 1007.2,-478.1 1120.2,-478.1 1120.2,-531.1"/>
<text text-anchor="middle" x="1063.7" y="-515.9" font-family="Times,serif" font-size="14.00">a3: evaluate_risk </text>
<text text-anchor="middle" x="1063.7" y="-500.9" font-family="Times,serif" font-size="14.00"> Type: Core </text>
<text text-anchor="middle" x="1063.7" y="-485.9" font-family="Times,serif" font-size="14.00"> Direction: Core</text>
</g>
<!-- f9f54488&#45;c696&#45;11ee&#45;a4c0&#45;ac1a3ddd05c7 -->
<g id="node2" class="node">
<title>f9f54488&#45;c696&#45;11ee&#45;a4c0&#45;ac1a3ddd05c7</title>
<ellipse fill="none" stroke="black" cx="694.7" cy="-424.1" rx="48.99" ry="18"/>
<text text-anchor="middle" x="694.7" y="-420.4" font-family="Times,serif" font-size="14.00">r_1: level1</text>
</g>
<!-- f9f53c5e&#45;c696&#45;11ee&#45;a4c0&#45;ac1a3ddd05c7&#45;&gt;f9f54488&#45;c696&#45;11ee&#45;a4c0&#45;ac1a3ddd05c7 -->
<g id="edge1" class="edge">
<title>f9f53c5e&#45;c696&#45;11ee&#45;a4c0&#45;ac1a3ddd05c7&#45;&gt;f9f54488&#45;c696&#45;11ee&#45;a4c0&#45;ac1a3ddd05c7</title>
<path fill="none" stroke="black" d="M1006.85,-491.5C936.09,-476.45 816.19,-450.94 747.41,-436.31"/>
<polygon fill="black" stroke="black" points="748.41,-432.95 737.9,-434.29 746.95,-439.79 748.41,-432.95"/>
</g>
<!-- f9f54dac&#45;c696&#45;11ee&#45;a4c0&#45;ac1a3ddd05c7 -->
<g id="node9" class="node">
<title>f9f54dac&#45;c696&#45;11ee&#45;a4c0&#45;ac1a3ddd05c7</title>
<ellipse fill="none" stroke="black" cx="839.7" cy="-424.1" rx="48.99" ry="18"/>
<text text-anchor="middle" x="839.7" y="-420.4" font-family="Times,serif" font-size="14.00">r_6: level1</text>
</g>
<!-- f9f53c5e&#45;c696&#45;11ee&#45;a4c0&#45;ac1a3ddd05c7&#45;&gt;f9f54dac&#45;c696&#45;11ee&#45;a4c0&#45;ac1a3ddd05c7 -->
<g id="edge8" class="edge">
<title>f9f53c5e&#45;c696&#45;11ee&#45;a4c0&#45;ac1a3ddd05c7&#45;&gt;f9f54dac&#45;c696&#45;11ee&#45;a4c0&#45;ac1a3ddd05c7</title>
<path fill="none" stroke="black" d="M1006.88,-483.69C969.06,-470.43 920.04,-453.25 884.88,-440.93"/>
<polygon fill="black" stroke="black" points="886.46,-437.78 875.86,-437.77 884.14,-444.38 886.46,-437.78"/>
</g>
<!-- f9f5575c&#45;c696&#45;11ee&#45;a4c0&#45;ac1a3ddd05c7 -->
<g id="node16" class="node">
<title>f9f5575c&#45;c696&#45;11ee&#45;a4c0&#45;ac1a3ddd05c7</title>
<ellipse fill="none" stroke="black" cx="1006.7" cy="-424.1" rx="48.99" ry="18"/>
<text text-anchor="middle" x="1006.7" y="-420.4" font-family="Times,serif" font-size="14.00">r_2: level2</text>
</g>
<!-- f9f53c5e&#45;c696&#45;11ee&#45;a4c0&#45;ac1a3ddd05c7&#45;&gt;f9f5575c&#45;c696&#45;11ee&#45;a4c0&#45;ac1a3ddd05c7 -->
<g id="edge15" class="edge">
<title>f9f53c5e&#45;c696&#45;11ee&#45;a4c0&#45;ac1a3ddd05c7&#45;&gt;f9f5575c&#45;c696&#45;11ee&#45;a4c0&#45;ac1a3ddd05c7</title>
<path fill="none" stroke="black" d="M1045.03,-477.89C1038.8,-469.32 1031.86,-459.76 1025.61,-451.15"/>
<polygon fill="black" stroke="black" points="1028.53,-449.21 1019.82,-443.17 1022.86,-453.32 1028.53,-449.21"/>
</g>
<!-- f9f55ec8&#45;c696&#45;11ee&#45;a4c0&#45;ac1a3ddd05c7 -->
<g id="node23" class="node">
<title>f9f55ec8&#45;c696&#45;11ee&#45;a4c0&#45;ac1a3ddd05c7</title>
<ellipse fill="none" stroke="black" cx="1151.7" cy="-424.1" rx="48.99" ry="18"/>
<text text-anchor="middle" x="1151.7" y="-420.4" font-family="Times,serif" font-size="14.00">r_4: level2</text>
</g>
<!-- f9f53c5e&#45;c696&#45;11ee&#45;a4c0&#45;ac1a3ddd05c7&#45;&gt;f9f55ec8&#45;c696&#45;11ee&#45;a4c0&#45;ac1a3ddd05c7 -->
<g id="edge22" class="edge">
<title>f9f53c5e&#45;c696&#45;11ee&#45;a4c0&#45;ac1a3ddd05c7&#45;&gt;f9f55ec8&#45;c696&#45;11ee&#45;a4c0&#45;ac1a3ddd05c7</title>
<path fill="none" stroke="black" d="M1092.51,-477.89C1102.98,-468.56 1114.75,-458.05 1125.03,-448.89"/>
<polygon fill="black" stroke="black" points="1127.34,-451.52 1132.47,-442.25 1122.68,-446.29 1127.34,-451.52"/>
</g>
<!-- f9f565f8&#45;c696&#45;11ee&#45;a4c0&#45;ac1a3ddd05c7 -->
<g id="node30" class="node">
<title>f9f565f8&#45;c696&#45;11ee&#45;a4c0&#45;ac1a3ddd05c7</title>
<ellipse fill="none" stroke="black" cx="1311.7" cy="-424.1" rx="48.99" ry="18"/>
<text text-anchor="middle" x="1311.7" y="-420.4" font-family="Times,serif" font-size="14.00">r_3: level3</text>
</g>
<!-- f9f53c5e&#45;c696&#45;11ee&#45;a4c0&#45;ac1a3ddd05c7&#45;&gt;f9f565f8&#45;c696&#45;11ee&#45;a4c0&#45;ac1a3ddd05c7 -->
<g id="edge29" class="edge">
<title>f9f53c5e&#45;c696&#45;11ee&#45;a4c0&#45;ac1a3ddd05c7&#45;&gt;f9f565f8&#45;c696&#45;11ee&#45;a4c0&#45;ac1a3ddd05c7</title>
<path fill="none" stroke="black" d="M1120.59,-485.59C1164.21,-471.78 1223.69,-452.95 1264.64,-439.99"/>
<polygon fill="black" stroke="black" points="1265.49,-443.39 1273.97,-437.04 1263.38,-436.72 1265.49,-443.39"/>
</g>
<!-- f9f5681e&#45;c696&#45;11ee&#45;a4c0&#45;ac1a3ddd05c7 -->
<g id="node32" class="node">
<title>f9f5681e&#45;c696&#45;11ee&#45;a4c0&#45;ac1a3ddd05c7</title>
<ellipse fill="none" stroke="black" cx="1478.7" cy="-424.1" rx="48.99" ry="18"/>
<text text-anchor="middle" x="1478.7" y="-420.4" font-family="Times,serif" font-size="14.00">r_5: level3</text>
</g>
<!-- f9f53c5e&#45;c696&#45;11ee&#45;a4c0&#45;ac1a3ddd05c7&#45;&gt;f9f5681e&#45;c696&#45;11ee&#45;a4c0&#45;ac1a3ddd05c7 -->
<g id="edge31" class="edge">
<title>f9f53c5e&#45;c696&#45;11ee&#45;a4c0&#45;ac1a3ddd05c7&#45;&gt;f9f5681e&#45;c696&#45;11ee&#45;a4c0&#45;ac1a3ddd05c7</title>
<path fill="none" stroke="black" d="M1120.53,-492.85C1200.72,-477.68 1346.04,-450.19 1424.68,-435.32"/>
<polygon fill="black" stroke="black" points="1425.12,-438.79 1434.29,-433.5 1423.81,-431.92 1425.12,-438.79"/>
</g>
<!-- f9f545fa&#45;c696&#45;11ee&#45;a4c0&#45;ac1a3ddd05c7 -->
<g id="node3" class="node">
<title>f9f545fa&#45;c696&#45;11ee&#45;a4c0&#45;ac1a3ddd05c7</title>
<polygon fill="none" stroke="black" points="569.96,-326.82 530.83,-369.87 452.56,-369.87 413.43,-326.82 452.56,-283.77 530.83,-283.77 569.96,-326.82"/>
<text text-anchor="middle" x="491.7" y="-338.12" font-family="Times,serif" font-size="14.00">rp_3: level1 </text>
<text text-anchor="middle" x="491.7" y="-323.12" font-family="Times,serif" font-size="14.00"> evaluate_risk </text>
<text text-anchor="middle" x="491.7" y="-308.12" font-family="Times,serif" font-size="14.00"> cost : 10</text>
</g>
<!-- f9f54488&#45;c696&#45;11ee&#45;a4c0&#45;ac1a3ddd05c7&#45;&gt;f9f545fa&#45;c696&#45;11ee&#45;a4c0&#45;ac1a3ddd05c7 -->
<g id="edge2" class="edge">
<title>f9f54488&#45;c696&#45;11ee&#45;a4c0&#45;ac1a3ddd05c7&#45;&gt;f9f545fa&#45;c696&#45;11ee&#45;a4c0&#45;ac1a3ddd05c7</title>
<path fill="none" stroke="black" d="M665.61,-409.45C637.25,-396.14 593.15,-375.44 556.46,-358.22"/>
<polygon fill="black" stroke="black" points="558.24,-355.19 547.7,-354.11 555.26,-361.52 558.24,-355.19"/>
</g>
<!-- f9f54712&#45;c696&#45;11ee&#45;a4c0&#45;ac1a3ddd05c7 -->
<g id="node4" class="node">
<title>f9f54712&#45;c696&#45;11ee&#45;a4c0&#45;ac1a3ddd05c7</title>
<polygon fill="none" stroke="black" points="399.7,-247.55 257.7,-247.55 257.7,-194.55 399.7,-194.55 399.7,-247.55"/>
<text text-anchor="middle" x="328.7" y="-232.35" font-family="Times,serif" font-size="14.00">r2: head_confirmation </text>
<text text-anchor="middle" x="328.7" y="-217.35" font-family="Times,serif" font-size="14.00"> Type: insert </text>
<text text-anchor="middle" x="328.7" y="-202.35" font-family="Times,serif" font-size="14.00"> Direction: before</text>
</g>
<!-- f9f545fa&#45;c696&#45;11ee&#45;a4c0&#45;ac1a3ddd05c7&#45;&gt;f9f54712&#45;c696&#45;11ee&#45;a4c0&#45;ac1a3ddd05c7 -->
<g id="edge3" class="edge">
<title>f9f545fa&#45;c696&#45;11ee&#45;a4c0&#45;ac1a3ddd05c7&#45;&gt;f9f54712&#45;c696&#45;11ee&#45;a4c0&#45;ac1a3ddd05c7</title>
<path fill="none" stroke="black" d="M442.35,-294.41C422.3,-281.64 399.15,-266.91 379.01,-254.08"/>
<polygon fill="black" stroke="black" points="380.97,-251.18 370.66,-248.77 377.22,-257.09 380.97,-251.18"/>
</g>
<!-- f9f548d4&#45;c696&#45;11ee&#45;a4c0&#45;ac1a3ddd05c7 -->
<g id="node5" class="node">
<title>f9f548d4&#45;c696&#45;11ee&#45;a4c0&#45;ac1a3ddd05c7</title>
<ellipse fill="none" stroke="black" cx="158.7" cy="-140.55" rx="48.99" ry="18"/>
<text text-anchor="middle" x="158.7" y="-136.85" font-family="Times,serif" font-size="14.00">r_3: level3</text>
</g>
<!-- f9f54712&#45;c696&#45;11ee&#45;a4c0&#45;ac1a3ddd05c7&#45;&gt;f9f548d4&#45;c696&#45;11ee&#45;a4c0&#45;ac1a3ddd05c7 -->
<g id="edge4" class="edge">
<title>f9f54712&#45;c696&#45;11ee&#45;a4c0&#45;ac1a3ddd05c7&#45;&gt;f9f548d4&#45;c696&#45;11ee&#45;a4c0&#45;ac1a3ddd05c7</title>
<path fill="none" stroke="black" d="M272.56,-194.13C248.29,-182.92 220.46,-170.07 198.39,-159.88"/>
<polygon fill="black" stroke="black" points="199.98,-156.76 189.43,-155.74 197.04,-163.11 199.98,-156.76"/>
</g>
<!-- f9f54ae6&#45;c696&#45;11ee&#45;a4c0&#45;ac1a3ddd05c7 -->
<g id="node7" class="node">
<title>f9f54ae6&#45;c696&#45;11ee&#45;a4c0&#45;ac1a3ddd05c7</title>
<ellipse fill="none" stroke="black" cx="328.7" cy="-140.55" rx="48.99" ry="18"/>
<text text-anchor="middle" x="328.7" y="-136.85" font-family="Times,serif" font-size="14.00">r_5: level3</text>
</g>
<!-- f9f54712&#45;c696&#45;11ee&#45;a4c0&#45;ac1a3ddd05c7&#45;&gt;f9f54ae6&#45;c696&#45;11ee&#45;a4c0&#45;ac1a3ddd05c7 -->
<g id="edge6" class="edge">
<title>f9f54712&#45;c696&#45;11ee&#45;a4c0&#45;ac1a3ddd05c7&#45;&gt;f9f54ae6&#45;c696&#45;11ee&#45;a4c0&#45;ac1a3ddd05c7</title>
<path fill="none" stroke="black" d="M328.7,-194.34C328.7,-186.62 328.7,-178.11 328.7,-170.21"/>
<polygon fill="black" stroke="black" points="332.2,-170.39 328.7,-160.39 325.2,-170.39 332.2,-170.39"/>
</g>
<!-- f9f54a00&#45;c696&#45;11ee&#45;a4c0&#45;ac1a3ddd05c7 -->
<g id="node6" class="node">
<title>f9f54a00&#45;c696&#45;11ee&#45;a4c0&#45;ac1a3ddd05c7</title>
<polygon fill="none" stroke="black" points="207.59,-43.27 155.64,-86.32 51.75,-86.32 -0.2,-43.27 51.75,-0.22 155.64,-0.22 207.59,-43.27"/>
<text text-anchor="middle" x="103.7" y="-54.57" font-family="Times,serif" font-size="14.00">rp_23: level3 </text>
<text text-anchor="middle" x="103.7" y="-39.57" font-family="Times,serif" font-size="14.00"> head_confirmation </text>
<text text-anchor="middle" x="103.7" y="-24.57" font-family="Times,serif" font-size="14.00"> cost : 5</text>
</g>
<!-- f9f548d4&#45;c696&#45;11ee&#45;a4c0&#45;ac1a3ddd05c7&#45;&gt;f9f54a00&#45;c696&#45;11ee&#45;a4c0&#45;ac1a3ddd05c7 -->
<g id="edge5" class="edge">
<title>f9f548d4&#45;c696&#45;11ee&#45;a4c0&#45;ac1a3ddd05c7&#45;&gt;f9f54a00&#45;c696&#45;11ee&#45;a4c0&#45;ac1a3ddd05c7</title>
<path fill="none" stroke="black" d="M148.86,-122.52C144.55,-115.05 139.23,-105.84 133.78,-96.39"/>
<polygon fill="black" stroke="black" points="136.87,-94.75 128.84,-87.84 130.81,-98.25 136.87,-94.75"/>
</g>
<!-- f9f54c58&#45;c696&#45;11ee&#45;a4c0&#45;ac1a3ddd05c7 -->
<g id="node8" class="node">
<title>f9f54c58&#45;c696&#45;11ee&#45;a4c0&#45;ac1a3ddd05c7</title>
<polygon fill="none" stroke="black" points="432.59,-43.27 380.64,-86.32 276.75,-86.32 224.8,-43.27 276.75,-0.22 380.64,-0.22 432.59,-43.27"/>
<text text-anchor="middle" x="328.7" y="-54.57" font-family="Times,serif" font-size="14.00">rp_23: level3 </text>
<text text-anchor="middle" x="328.7" y="-39.57" font-family="Times,serif" font-size="14.00"> head_confirmation </text>
<text text-anchor="middle" x="328.7" y="-24.57" font-family="Times,serif" font-size="14.00"> cost : 5</text>
</g>
<!-- f9f54ae6&#45;c696&#45;11ee&#45;a4c0&#45;ac1a3ddd05c7&#45;&gt;f9f54c58&#45;c696&#45;11ee&#45;a4c0&#45;ac1a3ddd05c7 -->
<g id="edge7" class="edge">
<title>f9f54ae6&#45;c696&#45;11ee&#45;a4c0&#45;ac1a3ddd05c7&#45;&gt;f9f54c58&#45;c696&#45;11ee&#45;a4c0&#45;ac1a3ddd05c7</title>
<path fill="none" stroke="black" d="M328.7,-122.07C328.7,-115.13 328.7,-106.72 328.7,-98.05"/>
<polygon fill="black" stroke="black" points="332.2,-98.09 328.7,-88.09 325.2,-98.09 332.2,-98.09"/>
</g>
<!-- f9f54f5a&#45;c696&#45;11ee&#45;a4c0&#45;ac1a3ddd05c7 -->
<g id="node10" class="node">
<title>f9f54f5a&#45;c696&#45;11ee&#45;a4c0&#45;ac1a3ddd05c7</title>
<polygon fill="none" stroke="black" points="881.96,-326.82 842.83,-369.87 764.56,-369.87 725.43,-326.82 764.56,-283.77 842.83,-283.77 881.96,-326.82"/>
<text text-anchor="middle" x="803.7" y="-338.12" font-family="Times,serif" font-size="14.00">rp_3: level1 </text>
<text text-anchor="middle" x="803.7" y="-323.12" font-family="Times,serif" font-size="14.00"> evaluate_risk </text>
<text text-anchor="middle" x="803.7" y="-308.12" font-family="Times,serif" font-size="14.00"> cost : 10</text>
</g>
<!-- f9f54dac&#45;c696&#45;11ee&#45;a4c0&#45;ac1a3ddd05c7&#45;&gt;f9f54f5a&#45;c696&#45;11ee&#45;a4c0&#45;ac1a3ddd05c7 -->
<g id="edge9" class="edge">
<title>f9f54dac&#45;c696&#45;11ee&#45;a4c0&#45;ac1a3ddd05c7&#45;&gt;f9f54f5a&#45;c696&#45;11ee&#45;a4c0&#45;ac1a3ddd05c7</title>
<path fill="none" stroke="black" d="M833.26,-406.06C830.53,-398.83 827.18,-389.97 823.73,-380.84"/>
<polygon fill="black" stroke="black" points="827,-379.61 820.2,-371.49 820.46,-382.08 827,-379.61"/>
</g>
<!-- f9f550ae&#45;c696&#45;11ee&#45;a4c0&#45;ac1a3ddd05c7 -->
<g id="node11" class="node">
<title>f9f550ae&#45;c696&#45;11ee&#45;a4c0&#45;ac1a3ddd05c7</title>
<polygon fill="none" stroke="black" points="849.7,-247.55 707.7,-247.55 707.7,-194.55 849.7,-194.55 849.7,-247.55"/>
<text text-anchor="middle" x="778.7" y="-232.35" font-family="Times,serif" font-size="14.00">r2: head_confirmation </text>
<text text-anchor="middle" x="778.7" y="-217.35" font-family="Times,serif" font-size="14.00"> Type: insert </text>
<text text-anchor="middle" x="778.7" y="-202.35" font-family="Times,serif" font-size="14.00"> Direction: before</text>
</g>
<!-- f9f54f5a&#45;c696&#45;11ee&#45;a4c0&#45;ac1a3ddd05c7&#45;&gt;f9f550ae&#45;c696&#45;11ee&#45;a4c0&#45;ac1a3ddd05c7 -->
<g id="edge10" class="edge">
<title>f9f54f5a&#45;c696&#45;11ee&#45;a4c0&#45;ac1a3ddd05c7&#45;&gt;f9f550ae&#45;c696&#45;11ee&#45;a4c0&#45;ac1a3ddd05c7</title>
<path fill="none" stroke="black" d="M793.45,-283.31C791.52,-275.27 789.5,-266.91 787.61,-259.05"/>
<polygon fill="black" stroke="black" points="791.04,-258.35 785.3,-249.45 784.24,-259.99 791.04,-258.35"/>
</g>
<!-- f9f5531a&#45;c696&#45;11ee&#45;a4c0&#45;ac1a3ddd05c7 -->
<g id="node12" class="node">
<title>f9f5531a&#45;c696&#45;11ee&#45;a4c0&#45;ac1a3ddd05c7</title>
<ellipse fill="none" stroke="black" cx="608.7" cy="-140.55" rx="48.99" ry="18"/>
<text text-anchor="middle" x="608.7" y="-136.85" font-family="Times,serif" font-size="14.00">r_3: level3</text>
</g>
<!-- f9f550ae&#45;c696&#45;11ee&#45;a4c0&#45;ac1a3ddd05c7&#45;&gt;f9f5531a&#45;c696&#45;11ee&#45;a4c0&#45;ac1a3ddd05c7 -->
<g id="edge11" class="edge">
<title>f9f550ae&#45;c696&#45;11ee&#45;a4c0&#45;ac1a3ddd05c7&#45;&gt;f9f5531a&#45;c696&#45;11ee&#45;a4c0&#45;ac1a3ddd05c7</title>
<path fill="none" stroke="black" d="M722.56,-194.13C698.29,-182.92 670.46,-170.07 648.39,-159.88"/>
<polygon fill="black" stroke="black" points="649.98,-156.76 639.43,-155.74 647.04,-163.11 649.98,-156.76"/>
</g>
<!-- f9f5555e&#45;c696&#45;11ee&#45;a4c0&#45;ac1a3ddd05c7 -->
<g id="node14" class="node">
<title>f9f5555e&#45;c696&#45;11ee&#45;a4c0&#45;ac1a3ddd05c7</title>
<ellipse fill="none" stroke="black" cx="778.7" cy="-140.55" rx="48.99" ry="18"/>
<text text-anchor="middle" x="778.7" y="-136.85" font-family="Times,serif" font-size="14.00">r_5: level3</text>
</g>
<!-- f9f550ae&#45;c696&#45;11ee&#45;a4c0&#45;ac1a3ddd05c7&#45;&gt;f9f5555e&#45;c696&#45;11ee&#45;a4c0&#45;ac1a3ddd05c7 -->
<g id="edge13" class="edge">
<title>f9f550ae&#45;c696&#45;11ee&#45;a4c0&#45;ac1a3ddd05c7&#45;&gt;f9f5555e&#45;c696&#45;11ee&#45;a4c0&#45;ac1a3ddd05c7</title>
<path fill="none" stroke="black" d="M778.7,-194.34C778.7,-186.62 778.7,-178.11 778.7,-170.21"/>
<polygon fill="black" stroke="black" points="782.2,-170.39 778.7,-160.39 775.2,-170.39 782.2,-170.39"/>
</g>
<!-- f9f55464&#45;c696&#45;11ee&#45;a4c0&#45;ac1a3ddd05c7 -->
<g id="node13" class="node">
<title>f9f55464&#45;c696&#45;11ee&#45;a4c0&#45;ac1a3ddd05c7</title>
<polygon fill="none" stroke="black" points="657.59,-43.27 605.64,-86.32 501.75,-86.32 449.8,-43.27 501.75,-0.22 605.64,-0.22 657.59,-43.27"/>
<text text-anchor="middle" x="553.7" y="-54.57" font-family="Times,serif" font-size="14.00">rp_23: level3 </text>
<text text-anchor="middle" x="553.7" y="-39.57" font-family="Times,serif" font-size="14.00"> head_confirmation </text>
<text text-anchor="middle" x="553.7" y="-24.57" font-family="Times,serif" font-size="14.00"> cost : 5</text>
</g>
<!-- f9f5531a&#45;c696&#45;11ee&#45;a4c0&#45;ac1a3ddd05c7&#45;&gt;f9f55464&#45;c696&#45;11ee&#45;a4c0&#45;ac1a3ddd05c7 -->
<g id="edge12" class="edge">
<title>f9f5531a&#45;c696&#45;11ee&#45;a4c0&#45;ac1a3ddd05c7&#45;&gt;f9f55464&#45;c696&#45;11ee&#45;a4c0&#45;ac1a3ddd05c7</title>
<path fill="none" stroke="black" d="M598.86,-122.52C594.55,-115.05 589.23,-105.84 583.78,-96.39"/>
<polygon fill="black" stroke="black" points="586.87,-94.75 578.84,-87.84 580.81,-98.25 586.87,-94.75"/>
</g>
<!-- f9f55676&#45;c696&#45;11ee&#45;a4c0&#45;ac1a3ddd05c7 -->
<g id="node15" class="node">
<title>f9f55676&#45;c696&#45;11ee&#45;a4c0&#45;ac1a3ddd05c7</title>
<polygon fill="none" stroke="black" points="882.59,-43.27 830.64,-86.32 726.75,-86.32 674.8,-43.27 726.75,-0.22 830.64,-0.22 882.59,-43.27"/>
<text text-anchor="middle" x="778.7" y="-54.57" font-family="Times,serif" font-size="14.00">rp_23: level3 </text>
<text text-anchor="middle" x="778.7" y="-39.57" font-family="Times,serif" font-size="14.00"> head_confirmation </text>
<text text-anchor="middle" x="778.7" y="-24.57" font-family="Times,serif" font-size="14.00"> cost : 5</text>
</g>
<!-- f9f5555e&#45;c696&#45;11ee&#45;a4c0&#45;ac1a3ddd05c7&#45;&gt;f9f55676&#45;c696&#45;11ee&#45;a4c0&#45;ac1a3ddd05c7 -->
<g id="edge14" class="edge">
<title>f9f5555e&#45;c696&#45;11ee&#45;a4c0&#45;ac1a3ddd05c7&#45;&gt;f9f55676&#45;c696&#45;11ee&#45;a4c0&#45;ac1a3ddd05c7</title>
<path fill="none" stroke="black" d="M778.7,-122.07C778.7,-115.13 778.7,-106.72 778.7,-98.05"/>
<polygon fill="black" stroke="black" points="782.2,-98.09 778.7,-88.09 775.2,-98.09 782.2,-98.09"/>
</g>
<!-- f9f55874&#45;c696&#45;11ee&#45;a4c0&#45;ac1a3ddd05c7 -->
<g id="node17" class="node">
<title>f9f55874&#45;c696&#45;11ee&#45;a4c0&#45;ac1a3ddd05c7</title>
<polygon fill="none" stroke="black" points="1069.96,-326.82 1030.83,-369.87 952.56,-369.87 913.43,-326.82 952.56,-283.77 1030.83,-283.77 1069.96,-326.82"/>
<text text-anchor="middle" x="991.7" y="-338.12" font-family="Times,serif" font-size="14.00">rp_8: level2 </text>
<text text-anchor="middle" x="991.7" y="-323.12" font-family="Times,serif" font-size="14.00"> evaluate_risk </text>
<text text-anchor="middle" x="991.7" y="-308.12" font-family="Times,serif" font-size="14.00"> cost : 25</text>
</g>
<!-- f9f5575c&#45;c696&#45;11ee&#45;a4c0&#45;ac1a3ddd05c7&#45;&gt;f9f55874&#45;c696&#45;11ee&#45;a4c0&#45;ac1a3ddd05c7 -->
<g id="edge16" class="edge">
<title>f9f5575c&#45;c696&#45;11ee&#45;a4c0&#45;ac1a3ddd05c7&#45;&gt;f9f55874&#45;c696&#45;11ee&#45;a4c0&#45;ac1a3ddd05c7</title>
<path fill="none" stroke="black" d="M1004.01,-406.06C1002.9,-398.99 1001.54,-390.35 1000.14,-381.43"/>
<polygon fill="black" stroke="black" points="1003.6,-380.9 998.58,-371.57 996.68,-381.99 1003.6,-380.9"/>
</g>
<!-- f9f55950&#45;c696&#45;11ee&#45;a4c0&#45;ac1a3ddd05c7 -->
<g id="node18" class="node">
<title>f9f55950&#45;c696&#45;11ee&#45;a4c0&#45;ac1a3ddd05c7</title>
<polygon fill="none" stroke="black" points="1074.7,-247.55 932.7,-247.55 932.7,-194.55 1074.7,-194.55 1074.7,-247.55"/>
<text text-anchor="middle" x="1003.7" y="-232.35" font-family="Times,serif" font-size="14.00">r3: head_confirmation </text>
<text text-anchor="middle" x="1003.7" y="-217.35" font-family="Times,serif" font-size="14.00"> Type: insert </text>
<text text-anchor="middle" x="1003.7" y="-202.35" font-family="Times,serif" font-size="14.00"> Direction: before</text>
</g>
<!-- f9f55874&#45;c696&#45;11ee&#45;a4c0&#45;ac1a3ddd05c7&#45;&gt;f9f55950&#45;c696&#45;11ee&#45;a4c0&#45;ac1a3ddd05c7 -->
<g id="edge17" class="edge">
<title>f9f55874&#45;c696&#45;11ee&#45;a4c0&#45;ac1a3ddd05c7&#45;&gt;f9f55950&#45;c696&#45;11ee&#45;a4c0&#45;ac1a3ddd05c7</title>
<path fill="none" stroke="black" d="M996.61,-283.31C997.53,-275.36 998.49,-267.1 999.39,-259.32"/>
<polygon fill="black" stroke="black" points="1002.85,-259.82 1000.52,-249.48 995.9,-259.01 1002.85,-259.82"/>
</g>
<!-- f9f55b08&#45;c696&#45;11ee&#45;a4c0&#45;ac1a3ddd05c7 -->
<g id="node19" class="node">
<title>f9f55b08&#45;c696&#45;11ee&#45;a4c0&#45;ac1a3ddd05c7</title>
<ellipse fill="none" stroke="black" cx="1003.7" cy="-140.55" rx="48.99" ry="18"/>
<text text-anchor="middle" x="1003.7" y="-136.85" font-family="Times,serif" font-size="14.00">r_3: level3</text>
</g>
<!-- f9f55950&#45;c696&#45;11ee&#45;a4c0&#45;ac1a3ddd05c7&#45;&gt;f9f55b08&#45;c696&#45;11ee&#45;a4c0&#45;ac1a3ddd05c7 -->
<g id="edge18" class="edge">
<title>f9f55950&#45;c696&#45;11ee&#45;a4c0&#45;ac1a3ddd05c7&#45;&gt;f9f55b08&#45;c696&#45;11ee&#45;a4c0&#45;ac1a3ddd05c7</title>
<path fill="none" stroke="black" d="M1003.7,-194.34C1003.7,-186.62 1003.7,-178.11 1003.7,-170.21"/>
<polygon fill="black" stroke="black" points="1007.2,-170.39 1003.7,-160.39 1000.2,-170.39 1007.2,-170.39"/>
</g>
<!-- f9f55cf2&#45;c696&#45;11ee&#45;a4c0&#45;ac1a3ddd05c7 -->
<g id="node21" class="node">
<title>f9f55cf2&#45;c696&#45;11ee&#45;a4c0&#45;ac1a3ddd05c7</title>
<ellipse fill="none" stroke="black" cx="1173.7" cy="-140.55" rx="48.99" ry="18"/>
<text text-anchor="middle" x="1173.7" y="-136.85" font-family="Times,serif" font-size="14.00">r_5: level3</text>
</g>
<!-- f9f55950&#45;c696&#45;11ee&#45;a4c0&#45;ac1a3ddd05c7&#45;&gt;f9f55cf2&#45;c696&#45;11ee&#45;a4c0&#45;ac1a3ddd05c7 -->
<g id="edge20" class="edge">
<title>f9f55950&#45;c696&#45;11ee&#45;a4c0&#45;ac1a3ddd05c7&#45;&gt;f9f55cf2&#45;c696&#45;11ee&#45;a4c0&#45;ac1a3ddd05c7</title>
<path fill="none" stroke="black" d="M1059.83,-194.13C1084.1,-182.92 1111.93,-170.07 1134,-159.88"/>
<polygon fill="black" stroke="black" points="1135.35,-163.11 1142.96,-155.74 1132.41,-156.76 1135.35,-163.11"/>
</g>
<!-- f9f55c16&#45;c696&#45;11ee&#45;a4c0&#45;ac1a3ddd05c7 -->
<g id="node20" class="node">
<title>f9f55c16&#45;c696&#45;11ee&#45;a4c0&#45;ac1a3ddd05c7</title>
<polygon fill="none" stroke="black" points="1107.59,-43.27 1055.64,-86.32 951.75,-86.32 899.8,-43.27 951.75,-0.22 1055.64,-0.22 1107.59,-43.27"/>
<text text-anchor="middle" x="1003.7" y="-54.57" font-family="Times,serif" font-size="14.00">rp_23: level3 </text>
<text text-anchor="middle" x="1003.7" y="-39.57" font-family="Times,serif" font-size="14.00"> head_confirmation </text>
<text text-anchor="middle" x="1003.7" y="-24.57" font-family="Times,serif" font-size="14.00"> cost : 5</text>
</g>
<!-- f9f55b08&#45;c696&#45;11ee&#45;a4c0&#45;ac1a3ddd05c7&#45;&gt;f9f55c16&#45;c696&#45;11ee&#45;a4c0&#45;ac1a3ddd05c7 -->
<g id="edge19" class="edge">
<title>f9f55b08&#45;c696&#45;11ee&#45;a4c0&#45;ac1a3ddd05c7&#45;&gt;f9f55c16&#45;c696&#45;11ee&#45;a4c0&#45;ac1a3ddd05c7</title>
<path fill="none" stroke="black" d="M1003.7,-122.07C1003.7,-115.13 1003.7,-106.72 1003.7,-98.05"/>
<polygon fill="black" stroke="black" points="1007.2,-98.09 1003.7,-88.09 1000.2,-98.09 1007.2,-98.09"/>
</g>
<!-- f9f55df6&#45;c696&#45;11ee&#45;a4c0&#45;ac1a3ddd05c7 -->
<g id="node22" class="node">
<title>f9f55df6&#45;c696&#45;11ee&#45;a4c0&#45;ac1a3ddd05c7</title>
<polygon fill="none" stroke="black" points="1332.59,-43.27 1280.64,-86.32 1176.75,-86.32 1124.8,-43.27 1176.75,-0.22 1280.64,-0.22 1332.59,-43.27"/>
<text text-anchor="middle" x="1228.7" y="-54.57" font-family="Times,serif" font-size="14.00">rp_23: level3 </text>
<text text-anchor="middle" x="1228.7" y="-39.57" font-family="Times,serif" font-size="14.00"> head_confirmation </text>
<text text-anchor="middle" x="1228.7" y="-24.57" font-family="Times,serif" font-size="14.00"> cost : 5</text>
</g>
<!-- f9f55cf2&#45;c696&#45;11ee&#45;a4c0&#45;ac1a3ddd05c7&#45;&gt;f9f55df6&#45;c696&#45;11ee&#45;a4c0&#45;ac1a3ddd05c7 -->
<g id="edge21" class="edge">
<title>f9f55cf2&#45;c696&#45;11ee&#45;a4c0&#45;ac1a3ddd05c7&#45;&gt;f9f55df6&#45;c696&#45;11ee&#45;a4c0&#45;ac1a3ddd05c7</title>
<path fill="none" stroke="black" d="M1183.53,-122.52C1187.84,-115.05 1193.16,-105.84 1198.61,-96.39"/>
<polygon fill="black" stroke="black" points="1201.58,-98.25 1203.55,-87.84 1195.52,-94.75 1201.58,-98.25"/>
</g>
<!-- f9f55fe0&#45;c696&#45;11ee&#45;a4c0&#45;ac1a3ddd05c7 -->
<g id="node24" class="node">
<title>f9f55fe0&#45;c696&#45;11ee&#45;a4c0&#45;ac1a3ddd05c7</title>
<polygon fill="none" stroke="black" points="1244.96,-326.82 1205.83,-369.87 1127.56,-369.87 1088.43,-326.82 1127.56,-283.77 1205.83,-283.77 1244.96,-326.82"/>
<text text-anchor="middle" x="1166.7" y="-338.12" font-family="Times,serif" font-size="14.00">rp_8: level2 </text>
<text text-anchor="middle" x="1166.7" y="-323.12" font-family="Times,serif" font-size="14.00"> evaluate_risk </text>
<text text-anchor="middle" x="1166.7" y="-308.12" font-family="Times,serif" font-size="14.00"> cost : 25</text>
</g>
<!-- f9f55ec8&#45;c696&#45;11ee&#45;a4c0&#45;ac1a3ddd05c7&#45;&gt;f9f55fe0&#45;c696&#45;11ee&#45;a4c0&#45;ac1a3ddd05c7 -->
<g id="edge23" class="edge">
<title>f9f55ec8&#45;c696&#45;11ee&#45;a4c0&#45;ac1a3ddd05c7&#45;&gt;f9f55fe0&#45;c696&#45;11ee&#45;a4c0&#45;ac1a3ddd05c7</title>
<path fill="none" stroke="black" d="M1154.38,-406.06C1155.49,-398.99 1156.85,-390.35 1158.26,-381.43"/>
<polygon fill="black" stroke="black" points="1161.71,-381.99 1159.81,-371.57 1154.79,-380.9 1161.71,-381.99"/>
</g>
<!-- f9f560bc&#45;c696&#45;11ee&#45;a4c0&#45;ac1a3ddd05c7 -->
<g id="node25" class="node">
<title>f9f560bc&#45;c696&#45;11ee&#45;a4c0&#45;ac1a3ddd05c7</title>
<polygon fill="none" stroke="black" points="1524.7,-247.55 1382.7,-247.55 1382.7,-194.55 1524.7,-194.55 1524.7,-247.55"/>
<text text-anchor="middle" x="1453.7" y="-232.35" font-family="Times,serif" font-size="14.00">r6: head_confirmation </text>
<text text-anchor="middle" x="1453.7" y="-217.35" font-family="Times,serif" font-size="14.00"> Type: insert </text>
<text text-anchor="middle" x="1453.7" y="-202.35" font-family="Times,serif" font-size="14.00"> Direction: after</text>
</g>
<!-- f9f55fe0&#45;c696&#45;11ee&#45;a4c0&#45;ac1a3ddd05c7&#45;&gt;f9f560bc&#45;c696&#45;11ee&#45;a4c0&#45;ac1a3ddd05c7 -->
<g id="edge24" class="edge">
<title>f9f55fe0&#45;c696&#45;11ee&#45;a4c0&#45;ac1a3ddd05c7&#45;&gt;f9f560bc&#45;c696&#45;11ee&#45;a4c0&#45;ac1a3ddd05c7</title>
<path fill="none" stroke="black" d="M1219.65,-298.83C1231.07,-293.45 1243.18,-288.07 1254.7,-283.55 1292.37,-268.77 1335.14,-255.16 1371.35,-244.52"/>
<polygon fill="black" stroke="black" points="1372.29,-247.89 1380.91,-241.74 1370.33,-241.17 1372.29,-247.89"/>
</g>
<!-- f9f56238&#45;c696&#45;11ee&#45;a4c0&#45;ac1a3ddd05c7 -->
<g id="node26" class="node">
<title>f9f56238&#45;c696&#45;11ee&#45;a4c0&#45;ac1a3ddd05c7</title>
<ellipse fill="none" stroke="black" cx="1453.7" cy="-140.55" rx="48.99" ry="18"/>
<text text-anchor="middle" x="1453.7" y="-136.85" font-family="Times,serif" font-size="14.00">r_3: level3</text>
</g>
<!-- f9f560bc&#45;c696&#45;11ee&#45;a4c0&#45;ac1a3ddd05c7&#45;&gt;f9f56238&#45;c696&#45;11ee&#45;a4c0&#45;ac1a3ddd05c7 -->
<g id="edge25" class="edge">
<title>f9f560bc&#45;c696&#45;11ee&#45;a4c0&#45;ac1a3ddd05c7&#45;&gt;f9f56238&#45;c696&#45;11ee&#45;a4c0&#45;ac1a3ddd05c7</title>
<path fill="none" stroke="black" d="M1453.7,-194.34C1453.7,-186.62 1453.7,-178.11 1453.7,-170.21"/>
<polygon fill="black" stroke="black" points="1457.2,-170.39 1453.7,-160.39 1450.2,-170.39 1457.2,-170.39"/>
</g>
<!-- f9f56422&#45;c696&#45;11ee&#45;a4c0&#45;ac1a3ddd05c7 -->
<g id="node28" class="node">
<title>f9f56422&#45;c696&#45;11ee&#45;a4c0&#45;ac1a3ddd05c7</title>
<ellipse fill="none" stroke="black" cx="1623.7" cy="-140.55" rx="48.99" ry="18"/>
<text text-anchor="middle" x="1623.7" y="-136.85" font-family="Times,serif" font-size="14.00">r_5: level3</text>
</g>
<!-- f9f560bc&#45;c696&#45;11ee&#45;a4c0&#45;ac1a3ddd05c7&#45;&gt;f9f56422&#45;c696&#45;11ee&#45;a4c0&#45;ac1a3ddd05c7 -->
<g id="edge27" class="edge">
<title>f9f560bc&#45;c696&#45;11ee&#45;a4c0&#45;ac1a3ddd05c7&#45;&gt;f9f56422&#45;c696&#45;11ee&#45;a4c0&#45;ac1a3ddd05c7</title>
<path fill="none" stroke="black" d="M1509.83,-194.13C1534.1,-182.92 1561.93,-170.07 1584,-159.88"/>
<polygon fill="black" stroke="black" points="1585.35,-163.11 1592.96,-155.74 1582.41,-156.76 1585.35,-163.11"/>
</g>
<!-- f9f56346&#45;c696&#45;11ee&#45;a4c0&#45;ac1a3ddd05c7 -->
<g id="node27" class="node">
<title>f9f56346&#45;c696&#45;11ee&#45;a4c0&#45;ac1a3ddd05c7</title>
<polygon fill="none" stroke="black" points="1557.59,-43.27 1505.64,-86.32 1401.75,-86.32 1349.8,-43.27 1401.75,-0.22 1505.64,-0.22 1557.59,-43.27"/>
<text text-anchor="middle" x="1453.7" y="-54.57" font-family="Times,serif" font-size="14.00">rp_23: level3 </text>
<text text-anchor="middle" x="1453.7" y="-39.57" font-family="Times,serif" font-size="14.00"> head_confirmation </text>
<text text-anchor="middle" x="1453.7" y="-24.57" font-family="Times,serif" font-size="14.00"> cost : 5</text>
</g>
<!-- f9f56238&#45;c696&#45;11ee&#45;a4c0&#45;ac1a3ddd05c7&#45;&gt;f9f56346&#45;c696&#45;11ee&#45;a4c0&#45;ac1a3ddd05c7 -->
<g id="edge26" class="edge">
<title>f9f56238&#45;c696&#45;11ee&#45;a4c0&#45;ac1a3ddd05c7&#45;&gt;f9f56346&#45;c696&#45;11ee&#45;a4c0&#45;ac1a3ddd05c7</title>
<path fill="none" stroke="black" d="M1453.7,-122.07C1453.7,-115.13 1453.7,-106.72 1453.7,-98.05"/>
<polygon fill="black" stroke="black" points="1457.2,-98.09 1453.7,-88.09 1450.2,-98.09 1457.2,-98.09"/>
</g>
<!-- f9f56526&#45;c696&#45;11ee&#45;a4c0&#45;ac1a3ddd05c7 -->
<g id="node29" class="node">
<title>f9f56526&#45;c696&#45;11ee&#45;a4c0&#45;ac1a3ddd05c7</title>
<polygon fill="none" stroke="black" points="1782.59,-43.27 1730.64,-86.32 1626.75,-86.32 1574.8,-43.27 1626.75,-0.22 1730.64,-0.22 1782.59,-43.27"/>
<text text-anchor="middle" x="1678.7" y="-54.57" font-family="Times,serif" font-size="14.00">rp_23: level3 </text>
<text text-anchor="middle" x="1678.7" y="-39.57" font-family="Times,serif" font-size="14.00"> head_confirmation </text>
<text text-anchor="middle" x="1678.7" y="-24.57" font-family="Times,serif" font-size="14.00"> cost : 5</text>
</g>
<!-- f9f56422&#45;c696&#45;11ee&#45;a4c0&#45;ac1a3ddd05c7&#45;&gt;f9f56526&#45;c696&#45;11ee&#45;a4c0&#45;ac1a3ddd05c7 -->
<g id="edge28" class="edge">
<title>f9f56422&#45;c696&#45;11ee&#45;a4c0&#45;ac1a3ddd05c7&#45;&gt;f9f56526&#45;c696&#45;11ee&#45;a4c0&#45;ac1a3ddd05c7</title>
<path fill="none" stroke="black" d="M1633.53,-122.52C1637.84,-115.05 1643.16,-105.84 1648.61,-96.39"/>
<polygon fill="black" stroke="black" points="1651.58,-98.25 1653.55,-87.84 1645.52,-94.75 1651.58,-98.25"/>
</g>
<!-- f9f56706&#45;c696&#45;11ee&#45;a4c0&#45;ac1a3ddd05c7 -->
<g id="node31" class="node">
<title>f9f56706&#45;c696&#45;11ee&#45;a4c0&#45;ac1a3ddd05c7</title>
<polygon fill="none" stroke="black" points="1419.96,-326.82 1380.83,-369.87 1302.56,-369.87 1263.43,-326.82 1302.56,-283.77 1380.83,-283.77 1419.96,-326.82"/>
<text text-anchor="middle" x="1341.7" y="-338.12" font-family="Times,serif" font-size="14.00">rp_14: level3 </text>
<text text-anchor="middle" x="1341.7" y="-323.12" font-family="Times,serif" font-size="14.00"> evaluate_risk </text>
<text text-anchor="middle" x="1341.7" y="-308.12" font-family="Times,serif" font-size="14.00"> cost : 30</text>
</g>
<!-- f9f565f8&#45;c696&#45;11ee&#45;a4c0&#45;ac1a3ddd05c7&#45;&gt;f9f56706&#45;c696&#45;11ee&#45;a4c0&#45;ac1a3ddd05c7 -->
<g id="edge30" class="edge">
<title>f9f565f8&#45;c696&#45;11ee&#45;a4c0&#45;ac1a3ddd05c7&#45;&gt;f9f56706&#45;c696&#45;11ee&#45;a4c0&#45;ac1a3ddd05c7</title>
<path fill="none" stroke="black" d="M1317.06,-406.06C1319.34,-398.83 1322.13,-389.97 1325,-380.84"/>
<polygon fill="black" stroke="black" points="1328.27,-382.11 1327.94,-371.52 1321.59,-380.01 1328.27,-382.11"/>
</g>
<!-- f9f56936&#45;c696&#45;11ee&#45;a4c0&#45;ac1a3ddd05c7 -->
<g id="node33" class="node">
<title>f9f56936&#45;c696&#45;11ee&#45;a4c0&#45;ac1a3ddd05c7</title>
<polygon fill="none" stroke="black" points="1594.96,-326.82 1555.83,-369.87 1477.56,-369.87 1438.43,-326.82 1477.56,-283.77 1555.83,-283.77 1594.96,-326.82"/>
<text text-anchor="middle" x="1516.7" y="-338.12" font-family="Times,serif" font-size="14.00">rp_14: level3 </text>
<text text-anchor="middle" x="1516.7" y="-323.12" font-family="Times,serif" font-size="14.00"> evaluate_risk </text>
<text text-anchor="middle" x="1516.7" y="-308.12" font-family="Times,serif" font-size="14.00"> cost : 30</text>
</g>
<!-- f9f5681e&#45;c696&#45;11ee&#45;a4c0&#45;ac1a3ddd05c7&#45;&gt;f9f56936&#45;c696&#45;11ee&#45;a4c0&#45;ac1a3ddd05c7 -->
<g id="edge32" class="edge">
<title>f9f5681e&#45;c696&#45;11ee&#45;a4c0&#45;ac1a3ddd05c7&#45;&gt;f9f56936&#45;c696&#45;11ee&#45;a4c0&#45;ac1a3ddd05c7</title>
<path fill="none" stroke="black" d="M1485.49,-406.06C1488.4,-398.75 1491.99,-389.77 1495.67,-380.54"/>
<polygon fill="black" stroke="black" points="1498.83,-382.07 1499.28,-371.48 1492.33,-379.47 1498.83,-382.07"/>
</g>
</g>
</svg>
