<?xml version="1.0" encoding="UTF-8" standalone="no"?>
<!DOCTYPE svg PUBLIC "-//W3C//DTD SVG 1.1//EN"
 "http://www.w3.org/Graphics/SVG/1.1/DTD/svg11.dtd">
<!-- Generated by graphviz version 8.1.0 (20230707.0739)
 -->
<!-- Title: CallTree Pages: 1 -->
<svg width="1105pt" height="858pt"
 viewBox="0.00 0.00 1105.37 858.19" xmlns="http://www.w3.org/2000/svg" xmlns:xlink="http://www.w3.org/1999/xlink">
<g id="graph0" class="graph" transform="scale(1 1) rotate(0) translate(4 854.19)">
<title>CallTree</title>
<polygon fill="white" stroke="none" points="-4,4 -4,-854.19 1101.37,-854.19 1101.37,4 -4,4"/>
<!-- 7f0d3922&#45;cb57&#45;11ee&#45;9270&#45;04cf4b795879 -->
<g id="node1" class="node">
<title>7f0d3922&#45;cb57&#45;11ee&#45;9270&#45;04cf4b795879</title>
<polygon fill="none" stroke="black" points="656.62,-850.19 522.12,-850.19 522.12,-792.69 656.62,-792.69 656.62,-850.19"/>
<text text-anchor="middle" x="589.37" y="-832.89" font-family="Times,serif" font-size="14.00">a8: contact_suppliers </text>
<text text-anchor="middle" x="589.37" y="-816.39" font-family="Times,serif" font-size="14.00"> Type: Core </text>
<text text-anchor="middle" x="589.37" y="-799.89" font-family="Times,serif" font-size="14.00"> Direction: Core</text>
</g>
<!-- 7f0d40f2&#45;cb57&#45;11ee&#45;9270&#45;04cf4b795879 -->
<g id="node2" class="node">
<title>7f0d40f2&#45;cb57&#45;11ee&#45;9270&#45;04cf4b795879</title>
<ellipse fill="none" stroke="black" cx="529.37" cy="-738.69" rx="50.84" ry="18"/>
<text text-anchor="middle" x="529.37" y="-733.64" font-family="Times,serif" font-size="14.00">r_3: level3</text>
</g>
<!-- 7f0d3922&#45;cb57&#45;11ee&#45;9270&#45;04cf4b795879&#45;&gt;7f0d40f2&#45;cb57&#45;11ee&#45;9270&#45;04cf4b795879 -->
<g id="edge1" class="edge">
<title>7f0d3922&#45;cb57&#45;11ee&#45;9270&#45;04cf4b795879&#45;&gt;7f0d40f2&#45;cb57&#45;11ee&#45;9270&#45;04cf4b795879</title>
<path fill="none" stroke="black" d="M568.38,-792.2C561.76,-783.29 554.5,-773.51 548.05,-764.83"/>
<polygon fill="black" stroke="black" points="550.46,-763.2 541.68,-757.26 544.84,-767.38 550.46,-763.2"/>
</g>
<!-- 7f0d4412&#45;cb57&#45;11ee&#45;9270&#45;04cf4b795879 -->
<g id="node4" class="node">
<title>7f0d4412&#45;cb57&#45;11ee&#45;9270&#45;04cf4b795879</title>
<ellipse fill="none" stroke="black" cx="672.37" cy="-738.69" rx="50.84" ry="18"/>
<text text-anchor="middle" x="672.37" y="-733.64" font-family="Times,serif" font-size="14.00">r_5: level3</text>
</g>
<!-- 7f0d3922&#45;cb57&#45;11ee&#45;9270&#45;04cf4b795879&#45;&gt;7f0d4412&#45;cb57&#45;11ee&#45;9270&#45;04cf4b795879 -->
<g id="edge3" class="edge">
<title>7f0d3922&#45;cb57&#45;11ee&#45;9270&#45;04cf4b795879&#45;&gt;7f0d4412&#45;cb57&#45;11ee&#45;9270&#45;04cf4b795879</title>
<path fill="none" stroke="black" d="M618.4,-792.2C628.09,-782.77 638.78,-772.37 648.07,-763.33"/>
<polygon fill="black" stroke="black" points="650.09,-766.28 654.82,-756.8 645.21,-761.26 650.09,-766.28"/>
</g>
<!-- 7f0d42b4&#45;cb57&#45;11ee&#45;9270&#45;04cf4b795879 -->
<g id="node3" class="node">
<title>7f0d42b4&#45;cb57&#45;11ee&#45;9270&#45;04cf4b795879</title>
<polygon fill="none" stroke="black" points="580.72,-637.74 532.54,-684.69 436.2,-684.69 388.02,-637.74 436.2,-590.79 532.54,-590.79 580.72,-637.74"/>
<text text-anchor="middle" x="484.37" y="-649.19" font-family="Times,serif" font-size="14.00">rp_16: level3 </text>
<text text-anchor="middle" x="484.37" y="-632.69" font-family="Times,serif" font-size="14.00"> contact_suppliers </text>
<text text-anchor="middle" x="484.37" y="-616.19" font-family="Times,serif" font-size="14.00"> cost : 85</text>
</g>
<!-- 7f0d40f2&#45;cb57&#45;11ee&#45;9270&#45;04cf4b795879&#45;&gt;7f0d42b4&#45;cb57&#45;11ee&#45;9270&#45;04cf4b795879 -->
<g id="edge2" class="edge">
<title>7f0d40f2&#45;cb57&#45;11ee&#45;9270&#45;04cf4b795879&#45;&gt;7f0d42b4&#45;cb57&#45;11ee&#45;9270&#45;04cf4b795879</title>
<path fill="none" stroke="black" d="M521.53,-720.46C518.2,-713.14 514.12,-704.16 509.89,-694.86"/>
<polygon fill="black" stroke="black" points="512.78,-693.77 505.46,-686.11 506.41,-696.66 512.78,-693.77"/>
</g>
<!-- 7f0d458e&#45;cb57&#45;11ee&#45;9270&#45;04cf4b795879 -->
<g id="node5" class="node">
<title>7f0d458e&#45;cb57&#45;11ee&#45;9270&#45;04cf4b795879</title>
<polygon fill="none" stroke="black" points="791.72,-637.74 743.54,-684.69 647.2,-684.69 599.02,-637.74 647.2,-590.79 743.54,-590.79 791.72,-637.74"/>
<text text-anchor="middle" x="695.37" y="-649.19" font-family="Times,serif" font-size="14.00">rp_16: level3 </text>
<text text-anchor="middle" x="695.37" y="-632.69" font-family="Times,serif" font-size="14.00"> contact_suppliers </text>
<text text-anchor="middle" x="695.37" y="-616.19" font-family="Times,serif" font-size="14.00"> cost : 16</text>
</g>
<!-- 7f0d4412&#45;cb57&#45;11ee&#45;9270&#45;04cf4b795879&#45;&gt;7f0d458e&#45;cb57&#45;11ee&#45;9270&#45;04cf4b795879 -->
<g id="edge4" class="edge">
<title>7f0d4412&#45;cb57&#45;11ee&#45;9270&#45;04cf4b795879&#45;&gt;7f0d458e&#45;cb57&#45;11ee&#45;9270&#45;04cf4b795879</title>
<path fill="none" stroke="black" d="M676.38,-720.46C678.02,-713.37 680.03,-704.73 682.12,-695.74"/>
<polygon fill="black" stroke="black" points="685.74,-696.64 684.59,-686.11 678.92,-695.06 685.74,-696.64"/>
</g>
<!-- 7f0d46c4&#45;cb57&#45;11ee&#45;9270&#45;04cf4b795879 -->
<g id="node6" class="node">
<title>7f0d46c4&#45;cb57&#45;11ee&#45;9270&#45;04cf4b795879</title>
<polygon fill="none" stroke="black" points="757.37,-554.79 633.37,-554.79 633.37,-497.29 757.37,-497.29 757.37,-554.79"/>
<text text-anchor="middle" x="695.37" y="-537.49" font-family="Times,serif" font-size="14.00">r0: create_proposal </text>
<text text-anchor="middle" x="695.37" y="-520.99" font-family="Times,serif" font-size="14.00"> Type: insert </text>
<text text-anchor="middle" x="695.37" y="-504.49" font-family="Times,serif" font-size="14.00"> Direction: after</text>
</g>
<!-- 7f0d458e&#45;cb57&#45;11ee&#45;9270&#45;04cf4b795879&#45;&gt;7f0d46c4&#45;cb57&#45;11ee&#45;9270&#45;04cf4b795879 -->
<g id="edge5" class="edge">
<title>7f0d458e&#45;cb57&#45;11ee&#45;9270&#45;04cf4b795879&#45;&gt;7f0d46c4&#45;cb57&#45;11ee&#45;9270&#45;04cf4b795879</title>
<path fill="none" stroke="black" d="M695.37,-590.54C695.37,-582.34 695.37,-573.88 695.37,-565.91"/>
<polygon fill="black" stroke="black" points="698.87,-566.05 695.37,-556.05 691.87,-566.05 698.87,-566.05"/>
</g>
<!-- 7f0d4a20&#45;cb57&#45;11ee&#45;9270&#45;04cf4b795879 -->
<g id="node7" class="node">
<title>7f0d4a20&#45;cb57&#45;11ee&#45;9270&#45;04cf4b795879</title>
<ellipse fill="none" stroke="black" cx="477.37" cy="-443.29" rx="50.84" ry="18"/>
<text text-anchor="middle" x="477.37" y="-438.24" font-family="Times,serif" font-size="14.00">r_2: level2</text>
</g>
<!-- 7f0d46c4&#45;cb57&#45;11ee&#45;9270&#45;04cf4b795879&#45;&gt;7f0d4a20&#45;cb57&#45;11ee&#45;9270&#45;04cf4b795879 -->
<g id="edge6" class="edge">
<title>7f0d46c4&#45;cb57&#45;11ee&#45;9270&#45;04cf4b795879&#45;&gt;7f0d4a20&#45;cb57&#45;11ee&#45;9270&#45;04cf4b795879</title>
<path fill="none" stroke="black" d="M632.9,-501.9C597.36,-488.74 553.71,-472.57 521.7,-460.72"/>
<polygon fill="black" stroke="black" points="523.34,-457.22 512.74,-457.03 520.91,-463.78 523.34,-457.22"/>
</g>
<!-- 7f0d586c&#45;cb57&#45;11ee&#45;9270&#45;04cf4b795879 -->
<g id="node17" class="node">
<title>7f0d586c&#45;cb57&#45;11ee&#45;9270&#45;04cf4b795879</title>
<ellipse fill="none" stroke="black" cx="635.37" cy="-443.29" rx="50.84" ry="18"/>
<text text-anchor="middle" x="635.37" y="-438.24" font-family="Times,serif" font-size="14.00">r_4: level2</text>
</g>
<!-- 7f0d46c4&#45;cb57&#45;11ee&#45;9270&#45;04cf4b795879&#45;&gt;7f0d586c&#45;cb57&#45;11ee&#45;9270&#45;04cf4b795879 -->
<g id="edge16" class="edge">
<title>7f0d46c4&#45;cb57&#45;11ee&#45;9270&#45;04cf4b795879&#45;&gt;7f0d586c&#45;cb57&#45;11ee&#45;9270&#45;04cf4b795879</title>
<path fill="none" stroke="black" d="M674.38,-496.8C667.76,-487.89 660.5,-478.11 654.05,-469.43"/>
<polygon fill="black" stroke="black" points="656.46,-467.81 647.68,-461.87 650.84,-471.98 656.46,-467.81"/>
</g>
<!-- 7f0d5b00&#45;cb57&#45;11ee&#45;9270&#45;04cf4b795879 -->
<g id="node19" class="node">
<title>7f0d5b00&#45;cb57&#45;11ee&#45;9270&#45;04cf4b795879</title>
<ellipse fill="none" stroke="black" cx="793.37" cy="-443.29" rx="50.84" ry="18"/>
<text text-anchor="middle" x="793.37" y="-438.24" font-family="Times,serif" font-size="14.00">r_3: level3</text>
</g>
<!-- 7f0d46c4&#45;cb57&#45;11ee&#45;9270&#45;04cf4b795879&#45;&gt;7f0d5b00&#45;cb57&#45;11ee&#45;9270&#45;04cf4b795879 -->
<g id="edge18" class="edge">
<title>7f0d46c4&#45;cb57&#45;11ee&#45;9270&#45;04cf4b795879&#45;&gt;7f0d5b00&#45;cb57&#45;11ee&#45;9270&#45;04cf4b795879</title>
<path fill="none" stroke="black" d="M729.64,-496.8C741.32,-487.18 754.22,-476.55 765.34,-467.39"/>
<polygon fill="black" stroke="black" points="767.33,-469.46 772.82,-460.4 762.88,-464.06 767.33,-469.46"/>
</g>
<!-- 7f0d5d94&#45;cb57&#45;11ee&#45;9270&#45;04cf4b795879 -->
<g id="node21" class="node">
<title>7f0d5d94&#45;cb57&#45;11ee&#45;9270&#45;04cf4b795879</title>
<ellipse fill="none" stroke="black" cx="970.37" cy="-443.29" rx="50.84" ry="18"/>
<text text-anchor="middle" x="970.37" y="-438.24" font-family="Times,serif" font-size="14.00">r_5: level3</text>
</g>
<!-- 7f0d46c4&#45;cb57&#45;11ee&#45;9270&#45;04cf4b795879&#45;&gt;7f0d5d94&#45;cb57&#45;11ee&#45;9270&#45;04cf4b795879 -->
<g id="edge20" class="edge">
<title>7f0d46c4&#45;cb57&#45;11ee&#45;9270&#45;04cf4b795879&#45;&gt;7f0d5d94&#45;cb57&#45;11ee&#45;9270&#45;04cf4b795879</title>
<path fill="none" stroke="black" d="M757.77,-506.72C807.51,-492.12 876.15,-471.96 921.83,-458.55"/>
<polygon fill="black" stroke="black" points="922.75,-461.63 931.36,-455.46 920.77,-454.92 922.75,-461.63"/>
</g>
<!-- 7f0d4bba&#45;cb57&#45;11ee&#45;9270&#45;04cf4b795879 -->
<g id="node8" class="node">
<title>7f0d4bba&#45;cb57&#45;11ee&#45;9270&#45;04cf4b795879</title>
<polygon fill="none" stroke="black" points="509.37,-342.35 464.87,-389.29 375.87,-389.29 331.37,-342.35 375.87,-295.4 464.87,-295.4 509.37,-342.35"/>
<text text-anchor="middle" x="420.37" y="-353.8" font-family="Times,serif" font-size="14.00">rp_15: level3 </text>
<text text-anchor="middle" x="420.37" y="-337.3" font-family="Times,serif" font-size="14.00"> create_proposal </text>
<text text-anchor="middle" x="420.37" y="-320.8" font-family="Times,serif" font-size="14.00"> cost : 100</text>
</g>
<!-- 7f0d4a20&#45;cb57&#45;11ee&#45;9270&#45;04cf4b795879&#45;&gt;7f0d4bba&#45;cb57&#45;11ee&#45;9270&#45;04cf4b795879 -->
<g id="edge7" class="edge">
<title>7f0d4a20&#45;cb57&#45;11ee&#45;9270&#45;04cf4b795879&#45;&gt;7f0d4bba&#45;cb57&#45;11ee&#45;9270&#45;04cf4b795879</title>
<path fill="none" stroke="black" d="M467.7,-425.51C463.37,-417.99 457.98,-408.64 452.42,-398.98"/>
<polygon fill="black" stroke="black" points="455.08,-397.58 447.05,-390.66 449.01,-401.08 455.08,-397.58"/>
</g>
<!-- 7f0d4cfa&#45;cb57&#45;11ee&#45;9270&#45;04cf4b795879 -->
<g id="node9" class="node">
<title>7f0d4cfa&#45;cb57&#45;11ee&#45;9270&#45;04cf4b795879</title>
<polygon fill="none" stroke="black" points="413.62,-259.4 267.12,-259.4 267.12,-201.9 413.62,-201.9 413.62,-259.4"/>
<text text-anchor="middle" x="340.37" y="-242.1" font-family="Times,serif" font-size="14.00">r0: four_eyes_principle </text>
<text text-anchor="middle" x="340.37" y="-225.6" font-family="Times,serif" font-size="14.00"> Type: insert </text>
<text text-anchor="middle" x="340.37" y="-209.1" font-family="Times,serif" font-size="14.00"> Direction: before</text>
</g>
<!-- 7f0d4bba&#45;cb57&#45;11ee&#45;9270&#45;04cf4b795879&#45;&gt;7f0d4cfa&#45;cb57&#45;11ee&#45;9270&#45;04cf4b795879 -->
<g id="edge8" class="edge">
<title>7f0d4bba&#45;cb57&#45;11ee&#45;9270&#45;04cf4b795879&#45;&gt;7f0d4cfa&#45;cb57&#45;11ee&#45;9270&#45;04cf4b795879</title>
<path fill="none" stroke="black" d="M386.67,-295.14C380.15,-286.19 373.39,-276.92 367.12,-268.33"/>
<polygon fill="black" stroke="black" points="369.51,-266.67 360.79,-260.65 363.86,-270.79 369.51,-266.67"/>
</g>
<!-- 7f0d56f0&#45;cb57&#45;11ee&#45;9270&#45;04cf4b795879 -->
<g id="node16" class="node">
<title>7f0d56f0&#45;cb57&#45;11ee&#45;9270&#45;04cf4b795879</title>
<polygon fill="none" stroke="black" points="570.87,-259.4 431.87,-259.4 431.87,-201.9 570.87,-201.9 570.87,-259.4"/>
<text text-anchor="middle" x="501.37" y="-242.1" font-family="Times,serif" font-size="14.00">r0: proposal_approval </text>
<text text-anchor="middle" x="501.37" y="-225.6" font-family="Times,serif" font-size="14.00"> Type: delete </text>
<text text-anchor="middle" x="501.37" y="-209.1" font-family="Times,serif" font-size="14.00"> Direction: any</text>
</g>
<!-- 7f0d4bba&#45;cb57&#45;11ee&#45;9270&#45;04cf4b795879&#45;&gt;7f0d56f0&#45;cb57&#45;11ee&#45;9270&#45;04cf4b795879 -->
<g id="edge15" class="edge">
<title>7f0d4bba&#45;cb57&#45;11ee&#45;9270&#45;04cf4b795879&#45;&gt;7f0d56f0&#45;cb57&#45;11ee&#45;9270&#45;04cf4b795879</title>
<path fill="none" stroke="black" d="M454.49,-295.14C461.1,-286.19 467.94,-276.92 474.29,-268.33"/>
<polygon fill="black" stroke="black" points="477.57,-270.78 480.69,-260.65 471.94,-266.62 477.57,-270.78"/>
</g>
<!-- 7f0d4eee&#45;cb57&#45;11ee&#45;9270&#45;04cf4b795879 -->
<g id="node10" class="node">
<title>7f0d4eee&#45;cb57&#45;11ee&#45;9270&#45;04cf4b795879</title>
<ellipse fill="none" stroke="black" cx="164.37" cy="-147.9" rx="50.84" ry="18"/>
<text text-anchor="middle" x="164.37" y="-142.85" font-family="Times,serif" font-size="14.00">r_4: level2</text>
</g>
<!-- 7f0d4cfa&#45;cb57&#45;11ee&#45;9270&#45;04cf4b795879&#45;&gt;7f0d4eee&#45;cb57&#45;11ee&#45;9270&#45;04cf4b795879 -->
<g id="edge9" class="edge">
<title>7f0d4cfa&#45;cb57&#45;11ee&#45;9270&#45;04cf4b795879&#45;&gt;7f0d4eee&#45;cb57&#45;11ee&#45;9270&#45;04cf4b795879</title>
<path fill="none" stroke="black" d="M278.81,-201.4C254.17,-190.1 226.47,-177.39 204.5,-167.31"/>
<polygon fill="black" stroke="black" points="206.07,-163.72 195.52,-162.73 203.15,-170.08 206.07,-163.72"/>
</g>
<!-- 7f0d51b4&#45;cb57&#45;11ee&#45;9270&#45;04cf4b795879 -->
<g id="node12" class="node">
<title>7f0d51b4&#45;cb57&#45;11ee&#45;9270&#45;04cf4b795879</title>
<ellipse fill="none" stroke="black" cx="340.37" cy="-147.9" rx="50.84" ry="18"/>
<text text-anchor="middle" x="340.37" y="-142.85" font-family="Times,serif" font-size="14.00">r_3: level3</text>
</g>
<!-- 7f0d4cfa&#45;cb57&#45;11ee&#45;9270&#45;04cf4b795879&#45;&gt;7f0d51b4&#45;cb57&#45;11ee&#45;9270&#45;04cf4b795879 -->
<g id="edge11" class="edge">
<title>7f0d4cfa&#45;cb57&#45;11ee&#45;9270&#45;04cf4b795879&#45;&gt;7f0d51b4&#45;cb57&#45;11ee&#45;9270&#45;04cf4b795879</title>
<path fill="none" stroke="black" d="M340.37,-201.4C340.37,-193.46 340.37,-184.82 340.37,-176.89"/>
<polygon fill="black" stroke="black" points="343.87,-176.94 340.37,-166.94 336.87,-176.94 343.87,-176.94"/>
</g>
<!-- 7f0d5452&#45;cb57&#45;11ee&#45;9270&#45;04cf4b795879 -->
<g id="node14" class="node">
<title>7f0d5452&#45;cb57&#45;11ee&#45;9270&#45;04cf4b795879</title>
<ellipse fill="none" stroke="black" cx="516.37" cy="-147.9" rx="50.84" ry="18"/>
<text text-anchor="middle" x="516.37" y="-142.85" font-family="Times,serif" font-size="14.00">r_5: level3</text>
</g>
<!-- 7f0d4cfa&#45;cb57&#45;11ee&#45;9270&#45;04cf4b795879&#45;&gt;7f0d5452&#45;cb57&#45;11ee&#45;9270&#45;04cf4b795879 -->
<g id="edge13" class="edge">
<title>7f0d4cfa&#45;cb57&#45;11ee&#45;9270&#45;04cf4b795879&#45;&gt;7f0d5452&#45;cb57&#45;11ee&#45;9270&#45;04cf4b795879</title>
<path fill="none" stroke="black" d="M401.93,-201.4C426.57,-190.1 454.27,-177.39 476.24,-167.31"/>
<polygon fill="black" stroke="black" points="477.58,-170.08 485.21,-162.73 474.67,-163.72 477.58,-170.08"/>
</g>
<!-- 7f0d507e&#45;cb57&#45;11ee&#45;9270&#45;04cf4b795879 -->
<g id="node11" class="node">
<title>7f0d507e&#45;cb57&#45;11ee&#45;9270&#45;04cf4b795879</title>
<polygon fill="none" stroke="black" points="214.74,-46.95 161.05,-93.9 53.68,-93.9 0,-46.95 53.68,0 161.05,0 214.74,-46.95"/>
<text text-anchor="middle" x="107.37" y="-58.4" font-family="Times,serif" font-size="14.00">rp_24: level3 </text>
<text text-anchor="middle" x="107.37" y="-41.9" font-family="Times,serif" font-size="14.00"> four_eyes_principle </text>
<text text-anchor="middle" x="107.37" y="-25.4" font-family="Times,serif" font-size="14.00"> cost : 63</text>
</g>
<!-- 7f0d4eee&#45;cb57&#45;11ee&#45;9270&#45;04cf4b795879&#45;&gt;7f0d507e&#45;cb57&#45;11ee&#45;9270&#45;04cf4b795879 -->
<g id="edge10" class="edge">
<title>7f0d4eee&#45;cb57&#45;11ee&#45;9270&#45;04cf4b795879&#45;&gt;7f0d507e&#45;cb57&#45;11ee&#45;9270&#45;04cf4b795879</title>
<path fill="none" stroke="black" d="M154.7,-130.11C150.37,-122.59 144.98,-113.25 139.42,-103.58"/>
<polygon fill="black" stroke="black" points="142.08,-102.19 134.05,-95.27 136.01,-105.68 142.08,-102.19"/>
</g>
<!-- 7f0d531c&#45;cb57&#45;11ee&#45;9270&#45;04cf4b795879 -->
<g id="node13" class="node">
<title>7f0d531c&#45;cb57&#45;11ee&#45;9270&#45;04cf4b795879</title>
<polygon fill="none" stroke="black" points="447.74,-46.95 394.05,-93.9 286.68,-93.9 233,-46.95 286.68,0 394.05,0 447.74,-46.95"/>
<text text-anchor="middle" x="340.37" y="-58.4" font-family="Times,serif" font-size="14.00">rp_24: level3 </text>
<text text-anchor="middle" x="340.37" y="-41.9" font-family="Times,serif" font-size="14.00"> four_eyes_principle </text>
<text text-anchor="middle" x="340.37" y="-25.4" font-family="Times,serif" font-size="14.00"> cost : 53</text>
</g>
<!-- 7f0d51b4&#45;cb57&#45;11ee&#45;9270&#45;04cf4b795879&#45;&gt;7f0d531c&#45;cb57&#45;11ee&#45;9270&#45;04cf4b795879 -->
<g id="edge12" class="edge">
<title>7f0d51b4&#45;cb57&#45;11ee&#45;9270&#45;04cf4b795879&#45;&gt;7f0d531c&#45;cb57&#45;11ee&#45;9270&#45;04cf4b795879</title>
<path fill="none" stroke="black" d="M340.37,-129.66C340.37,-122.65 340.37,-114.12 340.37,-105.24"/>
<polygon fill="black" stroke="black" points="343.87,-105.32 340.37,-95.32 336.87,-105.32 343.87,-105.32"/>
</g>
<!-- 7f0d55c4&#45;cb57&#45;11ee&#45;9270&#45;04cf4b795879 -->
<g id="node15" class="node">
<title>7f0d55c4&#45;cb57&#45;11ee&#45;9270&#45;04cf4b795879</title>
<polygon fill="none" stroke="black" points="680.74,-46.95 627.05,-93.9 519.68,-93.9 466,-46.95 519.68,0 627.05,0 680.74,-46.95"/>
<text text-anchor="middle" x="573.37" y="-58.4" font-family="Times,serif" font-size="14.00">rp_24: level3 </text>
<text text-anchor="middle" x="573.37" y="-41.9" font-family="Times,serif" font-size="14.00"> four_eyes_principle </text>
<text text-anchor="middle" x="573.37" y="-25.4" font-family="Times,serif" font-size="14.00"> cost : 19</text>
</g>
<!-- 7f0d5452&#45;cb57&#45;11ee&#45;9270&#45;04cf4b795879&#45;&gt;7f0d55c4&#45;cb57&#45;11ee&#45;9270&#45;04cf4b795879 -->
<g id="edge14" class="edge">
<title>7f0d5452&#45;cb57&#45;11ee&#45;9270&#45;04cf4b795879&#45;&gt;7f0d55c4&#45;cb57&#45;11ee&#45;9270&#45;04cf4b795879</title>
<path fill="none" stroke="black" d="M526.04,-130.11C530.37,-122.59 535.75,-113.25 541.32,-103.58"/>
<polygon fill="black" stroke="black" points="544.73,-105.68 546.69,-95.27 538.66,-102.19 544.73,-105.68"/>
</g>
<!-- 7f0d59d4&#45;cb57&#45;11ee&#45;9270&#45;04cf4b795879 -->
<g id="node18" class="node">
<title>7f0d59d4&#45;cb57&#45;11ee&#45;9270&#45;04cf4b795879</title>
<polygon fill="none" stroke="black" points="705.37,-342.35 660.87,-389.29 571.87,-389.29 527.37,-342.35 571.87,-295.4 660.87,-295.4 705.37,-342.35"/>
<text text-anchor="middle" x="616.37" y="-353.8" font-family="Times,serif" font-size="14.00">rp_15: level2 </text>
<text text-anchor="middle" x="616.37" y="-337.3" font-family="Times,serif" font-size="14.00"> create_proposal </text>
<text text-anchor="middle" x="616.37" y="-320.8" font-family="Times,serif" font-size="14.00"> cost : 15</text>
</g>
<!-- 7f0d586c&#45;cb57&#45;11ee&#45;9270&#45;04cf4b795879&#45;&gt;7f0d59d4&#45;cb57&#45;11ee&#45;9270&#45;04cf4b795879 -->
<g id="edge17" class="edge">
<title>7f0d586c&#45;cb57&#45;11ee&#45;9270&#45;04cf4b795879&#45;&gt;7f0d59d4&#45;cb57&#45;11ee&#45;9270&#45;04cf4b795879</title>
<path fill="none" stroke="black" d="M632.06,-425.06C630.7,-417.97 629.04,-409.33 627.31,-400.34"/>
<polygon fill="black" stroke="black" points="630.6,-399.88 625.27,-390.71 623.72,-401.2 630.6,-399.88"/>
</g>
<!-- 7f0d5c72&#45;cb57&#45;11ee&#45;9270&#45;04cf4b795879 -->
<g id="node20" class="node">
<title>7f0d5c72&#45;cb57&#45;11ee&#45;9270&#45;04cf4b795879</title>
<polygon fill="none" stroke="black" points="901.37,-342.35 856.87,-389.29 767.87,-389.29 723.37,-342.35 767.87,-295.4 856.87,-295.4 901.37,-342.35"/>
<text text-anchor="middle" x="812.37" y="-353.8" font-family="Times,serif" font-size="14.00">rp_15: level3 </text>
<text text-anchor="middle" x="812.37" y="-337.3" font-family="Times,serif" font-size="14.00"> create_proposal </text>
<text text-anchor="middle" x="812.37" y="-320.8" font-family="Times,serif" font-size="14.00"> cost : 26</text>
</g>
<!-- 7f0d5b00&#45;cb57&#45;11ee&#45;9270&#45;04cf4b795879&#45;&gt;7f0d5c72&#45;cb57&#45;11ee&#45;9270&#45;04cf4b795879 -->
<g id="edge19" class="edge">
<title>7f0d5b00&#45;cb57&#45;11ee&#45;9270&#45;04cf4b795879&#45;&gt;7f0d5c72&#45;cb57&#45;11ee&#45;9270&#45;04cf4b795879</title>
<path fill="none" stroke="black" d="M796.68,-425.06C798.04,-417.97 799.7,-409.33 801.42,-400.34"/>
<polygon fill="black" stroke="black" points="805.02,-401.2 803.47,-390.71 798.14,-399.88 805.02,-401.2"/>
</g>
<!-- 7f0d5f06&#45;cb57&#45;11ee&#45;9270&#45;04cf4b795879 -->
<g id="node22" class="node">
<title>7f0d5f06&#45;cb57&#45;11ee&#45;9270&#45;04cf4b795879</title>
<polygon fill="none" stroke="black" points="1097.37,-342.35 1052.87,-389.29 963.87,-389.29 919.37,-342.35 963.87,-295.4 1052.87,-295.4 1097.37,-342.35"/>
<text text-anchor="middle" x="1008.37" y="-353.8" font-family="Times,serif" font-size="14.00">rp_15: level3 </text>
<text text-anchor="middle" x="1008.37" y="-337.3" font-family="Times,serif" font-size="14.00"> create_proposal </text>
<text text-anchor="middle" x="1008.37" y="-320.8" font-family="Times,serif" font-size="14.00"> cost : 98</text>
</g>
<!-- 7f0d5d94&#45;cb57&#45;11ee&#45;9270&#45;04cf4b795879&#45;&gt;7f0d5f06&#45;cb57&#45;11ee&#45;9270&#45;04cf4b795879 -->
<g id="edge21" class="edge">
<title>7f0d5d94&#45;cb57&#45;11ee&#45;9270&#45;04cf4b795879&#45;&gt;7f0d5f06&#45;cb57&#45;11ee&#45;9270&#45;04cf4b795879</title>
<path fill="none" stroke="black" d="M976.99,-425.06C979.77,-417.82 983.17,-408.95 986.7,-399.76"/>
<polygon fill="black" stroke="black" points="990.24,-401.3 990.56,-390.71 983.71,-398.79 990.24,-401.3"/>
</g>
</g>
</svg>
