<?xml version="1.0" encoding="UTF-8" standalone="no"?>
<!DOCTYPE svg PUBLIC "-//W3C//DTD SVG 1.1//EN"
 "http://www.w3.org/Graphics/SVG/1.1/DTD/svg11.dtd">
<!-- Generated by graphviz version 7.1.0 (0)
 -->
<!-- Title: CallTree Pages: 1 -->
<svg width="1546pt" height="539pt"
 viewBox="0.00 0.00 1545.90 539.10" xmlns="http://www.w3.org/2000/svg" xmlns:xlink="http://www.w3.org/1999/xlink">
<g id="graph0" class="graph" transform="scale(1 1) rotate(0) translate(4 535.1)">
<title>CallTree</title>
<polygon fill="white" stroke="none" points="-4,4 -4,-535.1 1541.9,-535.1 1541.9,4 -4,4"/>
<!-- f9fe483a&#45;c696&#45;11ee&#45;a4c0&#45;ac1a3ddd05c7 -->
<g id="node1" class="node">
<title>f9fe483a&#45;c696&#45;11ee&#45;a4c0&#45;ac1a3ddd05c7</title>
<polygon fill="none" stroke="black" points="1083.28,-531.1 974.28,-531.1 974.28,-478.1 1083.28,-478.1 1083.28,-531.1"/>
<text text-anchor="middle" x="1028.78" y="-515.9" font-family="Times,serif" font-size="14.00">a7: design_offer </text>
<text text-anchor="middle" x="1028.78" y="-500.9" font-family="Times,serif" font-size="14.00"> Type: Core </text>
<text text-anchor="middle" x="1028.78" y="-485.9" font-family="Times,serif" font-size="14.00"> Direction: Core</text>
</g>
<!-- f9fe5276&#45;c696&#45;11ee&#45;a4c0&#45;ac1a3ddd05c7 -->
<g id="node2" class="node">
<title>f9fe5276&#45;c696&#45;11ee&#45;a4c0&#45;ac1a3ddd05c7</title>
<ellipse fill="none" stroke="black" cx="675.78" cy="-424.1" rx="48.99" ry="18"/>
<text text-anchor="middle" x="675.78" y="-420.4" font-family="Times,serif" font-size="14.00">r_1: level1</text>
</g>
<!-- f9fe483a&#45;c696&#45;11ee&#45;a4c0&#45;ac1a3ddd05c7&#45;&gt;f9fe5276&#45;c696&#45;11ee&#45;a4c0&#45;ac1a3ddd05c7 -->
<g id="edge1" class="edge">
<title>f9fe483a&#45;c696&#45;11ee&#45;a4c0&#45;ac1a3ddd05c7&#45;&gt;f9fe5276&#45;c696&#45;11ee&#45;a4c0&#45;ac1a3ddd05c7</title>
<path fill="none" stroke="black" d="M974.01,-491.42C906.82,-476.48 793.76,-451.33 727.84,-436.67"/>
<polygon fill="black" stroke="black" points="728.89,-433.32 718.36,-434.57 727.37,-440.16 728.89,-433.32"/>
</g>
<!-- f9fe5cd0&#45;c696&#45;11ee&#45;a4c0&#45;ac1a3ddd05c7 -->
<g id="node11" class="node">
<title>f9fe5cd0&#45;c696&#45;11ee&#45;a4c0&#45;ac1a3ddd05c7</title>
<ellipse fill="none" stroke="black" cx="816.78" cy="-424.1" rx="48.99" ry="18"/>
<text text-anchor="middle" x="816.78" y="-420.4" font-family="Times,serif" font-size="14.00">r_6: level1</text>
</g>
<!-- f9fe483a&#45;c696&#45;11ee&#45;a4c0&#45;ac1a3ddd05c7&#45;&gt;f9fe5cd0&#45;c696&#45;11ee&#45;a4c0&#45;ac1a3ddd05c7 -->
<g id="edge10" class="edge">
<title>f9fe483a&#45;c696&#45;11ee&#45;a4c0&#45;ac1a3ddd05c7&#45;&gt;f9fe5cd0&#45;c696&#45;11ee&#45;a4c0&#45;ac1a3ddd05c7</title>
<path fill="none" stroke="black" d="M973.91,-483.28C938.86,-470.3 894,-453.69 861.19,-441.54"/>
<polygon fill="black" stroke="black" points="862.57,-438.32 851.97,-438.13 860.14,-444.88 862.57,-438.32"/>
</g>
<!-- f9fe664e&#45;c696&#45;11ee&#45;a4c0&#45;ac1a3ddd05c7 -->
<g id="node20" class="node">
<title>f9fe664e&#45;c696&#45;11ee&#45;a4c0&#45;ac1a3ddd05c7</title>
<ellipse fill="none" stroke="black" cx="971.78" cy="-424.1" rx="48.99" ry="18"/>
<text text-anchor="middle" x="971.78" y="-420.4" font-family="Times,serif" font-size="14.00">r_2: level2</text>
</g>
<!-- f9fe483a&#45;c696&#45;11ee&#45;a4c0&#45;ac1a3ddd05c7&#45;&gt;f9fe664e&#45;c696&#45;11ee&#45;a4c0&#45;ac1a3ddd05c7 -->
<g id="edge19" class="edge">
<title>f9fe483a&#45;c696&#45;11ee&#45;a4c0&#45;ac1a3ddd05c7&#45;&gt;f9fe664e&#45;c696&#45;11ee&#45;a4c0&#45;ac1a3ddd05c7</title>
<path fill="none" stroke="black" d="M1010.11,-477.89C1003.89,-469.32 996.94,-459.76 990.7,-451.15"/>
<polygon fill="black" stroke="black" points="993.61,-449.21 984.9,-443.17 987.95,-453.32 993.61,-449.21"/>
</g>
<!-- f9fe6838&#45;c696&#45;11ee&#45;a4c0&#45;ac1a3ddd05c7 -->
<g id="node22" class="node">
<title>f9fe6838&#45;c696&#45;11ee&#45;a4c0&#45;ac1a3ddd05c7</title>
<ellipse fill="none" stroke="black" cx="1112.78" cy="-424.1" rx="48.99" ry="18"/>
<text text-anchor="middle" x="1112.78" y="-420.4" font-family="Times,serif" font-size="14.00">r_4: level2</text>
</g>
<!-- f9fe483a&#45;c696&#45;11ee&#45;a4c0&#45;ac1a3ddd05c7&#45;&gt;f9fe6838&#45;c696&#45;11ee&#45;a4c0&#45;ac1a3ddd05c7 -->
<g id="edge21" class="edge">
<title>f9fe483a&#45;c696&#45;11ee&#45;a4c0&#45;ac1a3ddd05c7&#45;&gt;f9fe6838&#45;c696&#45;11ee&#45;a4c0&#45;ac1a3ddd05c7</title>
<path fill="none" stroke="black" d="M1056.28,-477.89C1066.27,-468.56 1077.51,-458.05 1087.32,-448.89"/>
<polygon fill="black" stroke="black" points="1089.48,-451.66 1094.4,-442.27 1084.7,-446.54 1089.48,-451.66"/>
</g>
<!-- f9fe6a2c&#45;c696&#45;11ee&#45;a4c0&#45;ac1a3ddd05c7 -->
<g id="node24" class="node">
<title>f9fe6a2c&#45;c696&#45;11ee&#45;a4c0&#45;ac1a3ddd05c7</title>
<ellipse fill="none" stroke="black" cx="1267.78" cy="-424.1" rx="48.99" ry="18"/>
<text text-anchor="middle" x="1267.78" y="-420.4" font-family="Times,serif" font-size="14.00">r_3: level3</text>
</g>
<!-- f9fe483a&#45;c696&#45;11ee&#45;a4c0&#45;ac1a3ddd05c7&#45;&gt;f9fe6a2c&#45;c696&#45;11ee&#45;a4c0&#45;ac1a3ddd05c7 -->
<g id="edge23" class="edge">
<title>f9fe483a&#45;c696&#45;11ee&#45;a4c0&#45;ac1a3ddd05c7&#45;&gt;f9fe6a2c&#45;c696&#45;11ee&#45;a4c0&#45;ac1a3ddd05c7</title>
<path fill="none" stroke="black" d="M1083.61,-485.59C1125.22,-471.92 1181.79,-453.34 1221.21,-440.39"/>
<polygon fill="black" stroke="black" points="1222.26,-443.73 1230.67,-437.29 1220.07,-437.08 1222.26,-443.73"/>
</g>
<!-- f9fe6d2e&#45;c696&#45;11ee&#45;a4c0&#45;ac1a3ddd05c7 -->
<g id="node27" class="node">
<title>f9fe6d2e&#45;c696&#45;11ee&#45;a4c0&#45;ac1a3ddd05c7</title>
<ellipse fill="none" stroke="black" cx="1428.78" cy="-424.1" rx="48.99" ry="18"/>
<text text-anchor="middle" x="1428.78" y="-420.4" font-family="Times,serif" font-size="14.00">r_5: level3</text>
</g>
<!-- f9fe483a&#45;c696&#45;11ee&#45;a4c0&#45;ac1a3ddd05c7&#45;&gt;f9fe6d2e&#45;c696&#45;11ee&#45;a4c0&#45;ac1a3ddd05c7 -->
<g id="edge26" class="edge">
<title>f9fe483a&#45;c696&#45;11ee&#45;a4c0&#45;ac1a3ddd05c7&#45;&gt;f9fe6d2e&#45;c696&#45;11ee&#45;a4c0&#45;ac1a3ddd05c7</title>
<path fill="none" stroke="black" d="M1083.56,-492.85C1160.28,-477.79 1298.87,-450.59 1375.04,-435.64"/>
<polygon fill="black" stroke="black" points="1375.63,-439.09 1384.77,-433.73 1374.28,-432.22 1375.63,-439.09"/>
</g>
<!-- f9fe53ca&#45;c696&#45;11ee&#45;a4c0&#45;ac1a3ddd05c7 -->
<g id="node3" class="node">
<title>f9fe53ca&#45;c696&#45;11ee&#45;a4c0&#45;ac1a3ddd05c7</title>
<polygon fill="none" stroke="black" points="623.01,-326.82 585.4,-369.87 510.16,-369.87 472.54,-326.82 510.16,-283.77 585.4,-283.77 623.01,-326.82"/>
<text text-anchor="middle" x="547.78" y="-338.12" font-family="Times,serif" font-size="14.00">rp_4: level1 </text>
<text text-anchor="middle" x="547.78" y="-323.12" font-family="Times,serif" font-size="14.00"> design_offer </text>
<text text-anchor="middle" x="547.78" y="-308.12" font-family="Times,serif" font-size="14.00"> cost : 20</text>
</g>
<!-- f9fe5276&#45;c696&#45;11ee&#45;a4c0&#45;ac1a3ddd05c7&#45;&gt;f9fe53ca&#45;c696&#45;11ee&#45;a4c0&#45;ac1a3ddd05c7 -->
<g id="edge2" class="edge">
<title>f9fe5276&#45;c696&#45;11ee&#45;a4c0&#45;ac1a3ddd05c7&#45;&gt;f9fe53ca&#45;c696&#45;11ee&#45;a4c0&#45;ac1a3ddd05c7</title>
<path fill="none" stroke="black" d="M654.93,-407.58C640.56,-396.88 620.76,-382.15 602.09,-368.25"/>
<polygon fill="black" stroke="black" points="604.37,-365.58 594.26,-362.42 600.19,-371.2 604.37,-365.58"/>
</g>
<!-- f9fe54ce&#45;c696&#45;11ee&#45;a4c0&#45;ac1a3ddd05c7 -->
<g id="node4" class="node">
<title>f9fe54ce&#45;c696&#45;11ee&#45;a4c0&#45;ac1a3ddd05c7</title>
<polygon fill="none" stroke="black" points="474.78,-247.55 320.78,-247.55 320.78,-194.55 474.78,-194.55 474.78,-247.55"/>
<text text-anchor="middle" x="397.78" y="-232.35" font-family="Times,serif" font-size="14.00">r10: four_eyes_principle </text>
<text text-anchor="middle" x="397.78" y="-217.35" font-family="Times,serif" font-size="14.00"> Type: insert </text>
<text text-anchor="middle" x="397.78" y="-202.35" font-family="Times,serif" font-size="14.00"> Direction: parallel</text>
</g>
<!-- f9fe53ca&#45;c696&#45;11ee&#45;a4c0&#45;ac1a3ddd05c7&#45;&gt;f9fe54ce&#45;c696&#45;11ee&#45;a4c0&#45;ac1a3ddd05c7 -->
<g id="edge3" class="edge">
<title>f9fe53ca&#45;c696&#45;11ee&#45;a4c0&#45;ac1a3ddd05c7&#45;&gt;f9fe54ce&#45;c696&#45;11ee&#45;a4c0&#45;ac1a3ddd05c7</title>
<path fill="none" stroke="black" d="M501.14,-293.56C483.12,-281.09 462.55,-266.86 444.52,-254.39"/>
<polygon fill="black" stroke="black" points="446.81,-251.72 436.6,-248.91 442.83,-257.47 446.81,-251.72"/>
</g>
<!-- f9fe56d6&#45;c696&#45;11ee&#45;a4c0&#45;ac1a3ddd05c7 -->
<g id="node5" class="node">
<title>f9fe56d6&#45;c696&#45;11ee&#45;a4c0&#45;ac1a3ddd05c7</title>
<ellipse fill="none" stroke="black" cx="186.78" cy="-140.55" rx="48.99" ry="18"/>
<text text-anchor="middle" x="186.78" y="-136.85" font-family="Times,serif" font-size="14.00">r_4: level2</text>
</g>
<!-- f9fe54ce&#45;c696&#45;11ee&#45;a4c0&#45;ac1a3ddd05c7&#45;&gt;f9fe56d6&#45;c696&#45;11ee&#45;a4c0&#45;ac1a3ddd05c7 -->
<g id="edge4" class="edge">
<title>f9fe54ce&#45;c696&#45;11ee&#45;a4c0&#45;ac1a3ddd05c7&#45;&gt;f9fe56d6&#45;c696&#45;11ee&#45;a4c0&#45;ac1a3ddd05c7</title>
<path fill="none" stroke="black" d="M328.1,-194.13C296.1,-182.22 259.11,-168.46 231,-158"/>
<polygon fill="black" stroke="black" points="232.32,-154.76 221.72,-154.55 229.87,-161.32 232.32,-154.76"/>
</g>
<!-- f9fe58de&#45;c696&#45;11ee&#45;a4c0&#45;ac1a3ddd05c7 -->
<g id="node7" class="node">
<title>f9fe58de&#45;c696&#45;11ee&#45;a4c0&#45;ac1a3ddd05c7</title>
<ellipse fill="none" stroke="black" cx="360.78" cy="-140.55" rx="48.99" ry="18"/>
<text text-anchor="middle" x="360.78" y="-136.85" font-family="Times,serif" font-size="14.00">r_3: level3</text>
</g>
<!-- f9fe54ce&#45;c696&#45;11ee&#45;a4c0&#45;ac1a3ddd05c7&#45;&gt;f9fe58de&#45;c696&#45;11ee&#45;a4c0&#45;ac1a3ddd05c7 -->
<g id="edge6" class="edge">
<title>f9fe54ce&#45;c696&#45;11ee&#45;a4c0&#45;ac1a3ddd05c7&#45;&gt;f9fe58de&#45;c696&#45;11ee&#45;a4c0&#45;ac1a3ddd05c7</title>
<path fill="none" stroke="black" d="M385.66,-194.34C381.79,-186.14 377.5,-177.03 373.58,-168.72"/>
<polygon fill="black" stroke="black" points="376.8,-167.32 369.37,-159.77 370.46,-170.31 376.8,-167.32"/>
</g>
<!-- f9fe5adc&#45;c696&#45;11ee&#45;a4c0&#45;ac1a3ddd05c7 -->
<g id="node9" class="node">
<title>f9fe5adc&#45;c696&#45;11ee&#45;a4c0&#45;ac1a3ddd05c7</title>
<ellipse fill="none" stroke="black" cx="516.78" cy="-140.55" rx="48.99" ry="18"/>
<text text-anchor="middle" x="516.78" y="-136.85" font-family="Times,serif" font-size="14.00">r_5: level3</text>
</g>
<!-- f9fe54ce&#45;c696&#45;11ee&#45;a4c0&#45;ac1a3ddd05c7&#45;&gt;f9fe5adc&#45;c696&#45;11ee&#45;a4c0&#45;ac1a3ddd05c7 -->
<g id="edge8" class="edge">
<title>f9fe54ce&#45;c696&#45;11ee&#45;a4c0&#45;ac1a3ddd05c7&#45;&gt;f9fe5adc&#45;c696&#45;11ee&#45;a4c0&#45;ac1a3ddd05c7</title>
<path fill="none" stroke="black" d="M437.07,-194.13C452.36,-184.04 469.68,-172.62 484.25,-163.01"/>
<polygon fill="black" stroke="black" points="486.16,-165.94 492.58,-157.51 482.3,-160.1 486.16,-165.94"/>
</g>
<!-- f9fe57f8&#45;c696&#45;11ee&#45;a4c0&#45;ac1a3ddd05c7 -->
<g id="node6" class="node">
<title>f9fe57f8&#45;c696&#45;11ee&#45;a4c0&#45;ac1a3ddd05c7</title>
<polygon fill="none" stroke="black" points="215.33,-43.27 161.56,-86.32 54,-86.32 0.22,-43.27 54,-0.22 161.56,-0.22 215.33,-43.27"/>
<text text-anchor="middle" x="107.78" y="-54.57" font-family="Times,serif" font-size="14.00">rp_24: level3 </text>
<text text-anchor="middle" x="107.78" y="-39.57" font-family="Times,serif" font-size="14.00"> four_eyes_principle </text>
<text text-anchor="middle" x="107.78" y="-24.57" font-family="Times,serif" font-size="14.00"> cost : 10</text>
</g>
<!-- f9fe56d6&#45;c696&#45;11ee&#45;a4c0&#45;ac1a3ddd05c7&#45;&gt;f9fe57f8&#45;c696&#45;11ee&#45;a4c0&#45;ac1a3ddd05c7 -->
<g id="edge5" class="edge">
<title>f9fe56d6&#45;c696&#45;11ee&#45;a4c0&#45;ac1a3ddd05c7&#45;&gt;f9fe57f8&#45;c696&#45;11ee&#45;a4c0&#45;ac1a3ddd05c7</title>
<path fill="none" stroke="black" d="M173.02,-122.95C166.52,-115.12 158.38,-105.3 150.07,-95.28"/>
<polygon fill="black" stroke="black" points="152.81,-93.1 143.73,-87.64 147.42,-97.57 152.81,-93.1"/>
</g>
<!-- f9fe5a00&#45;c696&#45;11ee&#45;a4c0&#45;ac1a3ddd05c7 -->
<g id="node8" class="node">
<title>f9fe5a00&#45;c696&#45;11ee&#45;a4c0&#45;ac1a3ddd05c7</title>
<polygon fill="none" stroke="black" points="449.33,-43.27 395.56,-86.32 288,-86.32 234.22,-43.27 288,-0.22 395.56,-0.22 449.33,-43.27"/>
<text text-anchor="middle" x="341.78" y="-54.57" font-family="Times,serif" font-size="14.00">rp_24: level3 </text>
<text text-anchor="middle" x="341.78" y="-39.57" font-family="Times,serif" font-size="14.00"> four_eyes_principle </text>
<text text-anchor="middle" x="341.78" y="-24.57" font-family="Times,serif" font-size="14.00"> cost : 10</text>
</g>
<!-- f9fe58de&#45;c696&#45;11ee&#45;a4c0&#45;ac1a3ddd05c7&#45;&gt;f9fe5a00&#45;c696&#45;11ee&#45;a4c0&#45;ac1a3ddd05c7 -->
<g id="edge7" class="edge">
<title>f9fe58de&#45;c696&#45;11ee&#45;a4c0&#45;ac1a3ddd05c7&#45;&gt;f9fe5a00&#45;c696&#45;11ee&#45;a4c0&#45;ac1a3ddd05c7</title>
<path fill="none" stroke="black" d="M357.38,-122.52C355.95,-115.36 354.21,-106.61 352.41,-97.58"/>
<polygon fill="black" stroke="black" points="355.89,-97.13 350.5,-88.01 349.02,-98.5 355.89,-97.13"/>
</g>
<!-- f9fe5bea&#45;c696&#45;11ee&#45;a4c0&#45;ac1a3ddd05c7 -->
<g id="node10" class="node">
<title>f9fe5bea&#45;c696&#45;11ee&#45;a4c0&#45;ac1a3ddd05c7</title>
<polygon fill="none" stroke="black" points="683.33,-43.27 629.56,-86.32 522,-86.32 468.22,-43.27 522,-0.22 629.56,-0.22 683.33,-43.27"/>
<text text-anchor="middle" x="575.78" y="-54.57" font-family="Times,serif" font-size="14.00">rp_24: level3 </text>
<text text-anchor="middle" x="575.78" y="-39.57" font-family="Times,serif" font-size="14.00"> four_eyes_principle </text>
<text text-anchor="middle" x="575.78" y="-24.57" font-family="Times,serif" font-size="14.00"> cost : 10</text>
</g>
<!-- f9fe5adc&#45;c696&#45;11ee&#45;a4c0&#45;ac1a3ddd05c7&#45;&gt;f9fe5bea&#45;c696&#45;11ee&#45;a4c0&#45;ac1a3ddd05c7 -->
<g id="edge9" class="edge">
<title>f9fe5adc&#45;c696&#45;11ee&#45;a4c0&#45;ac1a3ddd05c7&#45;&gt;f9fe5bea&#45;c696&#45;11ee&#45;a4c0&#45;ac1a3ddd05c7</title>
<path fill="none" stroke="black" d="M527.33,-122.52C532,-114.97 537.77,-105.64 543.69,-96.09"/>
<polygon fill="black" stroke="black" points="546.53,-98.16 548.82,-87.81 540.57,-94.47 546.53,-98.16"/>
</g>
<!-- f9fe5de8&#45;c696&#45;11ee&#45;a4c0&#45;ac1a3ddd05c7 -->
<g id="node12" class="node">
<title>f9fe5de8&#45;c696&#45;11ee&#45;a4c0&#45;ac1a3ddd05c7</title>
<polygon fill="none" stroke="black" points="866.01,-326.82 828.4,-369.87 753.16,-369.87 715.54,-326.82 753.16,-283.77 828.4,-283.77 866.01,-326.82"/>
<text text-anchor="middle" x="790.78" y="-338.12" font-family="Times,serif" font-size="14.00">rp_4: level1 </text>
<text text-anchor="middle" x="790.78" y="-323.12" font-family="Times,serif" font-size="14.00"> design_offer </text>
<text text-anchor="middle" x="790.78" y="-308.12" font-family="Times,serif" font-size="14.00"> cost : 20</text>
</g>
<!-- f9fe5cd0&#45;c696&#45;11ee&#45;a4c0&#45;ac1a3ddd05c7&#45;&gt;f9fe5de8&#45;c696&#45;11ee&#45;a4c0&#45;ac1a3ddd05c7 -->
<g id="edge11" class="edge">
<title>f9fe5cd0&#45;c696&#45;11ee&#45;a4c0&#45;ac1a3ddd05c7&#45;&gt;f9fe5de8&#45;c696&#45;11ee&#45;a4c0&#45;ac1a3ddd05c7</title>
<path fill="none" stroke="black" d="M812.13,-406.06C810.18,-398.91 807.79,-390.16 805.33,-381.13"/>
<polygon fill="black" stroke="black" points="808.72,-380.26 802.71,-371.54 801.96,-382.1 808.72,-380.26"/>
</g>
<!-- f9fe5ece&#45;c696&#45;11ee&#45;a4c0&#45;ac1a3ddd05c7 -->
<g id="node13" class="node">
<title>f9fe5ece&#45;c696&#45;11ee&#45;a4c0&#45;ac1a3ddd05c7</title>
<polygon fill="none" stroke="black" points="1003.78,-247.55 849.78,-247.55 849.78,-194.55 1003.78,-194.55 1003.78,-247.55"/>
<text text-anchor="middle" x="926.78" y="-232.35" font-family="Times,serif" font-size="14.00">r10: four_eyes_principle </text>
<text text-anchor="middle" x="926.78" y="-217.35" font-family="Times,serif" font-size="14.00"> Type: insert </text>
<text text-anchor="middle" x="926.78" y="-202.35" font-family="Times,serif" font-size="14.00"> Direction: parallel</text>
</g>
<!-- f9fe5de8&#45;c696&#45;11ee&#45;a4c0&#45;ac1a3ddd05c7&#45;&gt;f9fe5ece&#45;c696&#45;11ee&#45;a4c0&#45;ac1a3ddd05c7 -->
<g id="edge12" class="edge">
<title>f9fe5de8&#45;c696&#45;11ee&#45;a4c0&#45;ac1a3ddd05c7&#45;&gt;f9fe5ece&#45;c696&#45;11ee&#45;a4c0&#45;ac1a3ddd05c7</title>
<path fill="none" stroke="black" d="M835.69,-291.56C851.34,-279.61 868.84,-266.26 884.29,-254.47"/>
<polygon fill="black" stroke="black" points="886.09,-257.5 891.92,-248.65 881.84,-251.93 886.09,-257.5"/>
</g>
<!-- f9fe607c&#45;c696&#45;11ee&#45;a4c0&#45;ac1a3ddd05c7 -->
<g id="node14" class="node">
<title>f9fe607c&#45;c696&#45;11ee&#45;a4c0&#45;ac1a3ddd05c7</title>
<ellipse fill="none" stroke="black" cx="839.78" cy="-140.55" rx="48.99" ry="18"/>
<text text-anchor="middle" x="839.78" y="-136.85" font-family="Times,serif" font-size="14.00">r_4: level2</text>
</g>
<!-- f9fe5ece&#45;c696&#45;11ee&#45;a4c0&#45;ac1a3ddd05c7&#45;&gt;f9fe607c&#45;c696&#45;11ee&#45;a4c0&#45;ac1a3ddd05c7 -->
<g id="edge13" class="edge">
<title>f9fe5ece&#45;c696&#45;11ee&#45;a4c0&#45;ac1a3ddd05c7&#45;&gt;f9fe607c&#45;c696&#45;11ee&#45;a4c0&#45;ac1a3ddd05c7</title>
<path fill="none" stroke="black" d="M898.29,-194.34C887.94,-185.01 876.3,-174.5 866.14,-165.34"/>
<polygon fill="black" stroke="black" points="868.56,-162.81 858.79,-158.71 863.87,-168 868.56,-162.81"/>
</g>
<!-- f9fe627a&#45;c696&#45;11ee&#45;a4c0&#45;ac1a3ddd05c7 -->
<g id="node16" class="node">
<title>f9fe627a&#45;c696&#45;11ee&#45;a4c0&#45;ac1a3ddd05c7</title>
<ellipse fill="none" stroke="black" cx="1013.78" cy="-140.55" rx="48.99" ry="18"/>
<text text-anchor="middle" x="1013.78" y="-136.85" font-family="Times,serif" font-size="14.00">r_3: level3</text>
</g>
<!-- f9fe5ece&#45;c696&#45;11ee&#45;a4c0&#45;ac1a3ddd05c7&#45;&gt;f9fe627a&#45;c696&#45;11ee&#45;a4c0&#45;ac1a3ddd05c7 -->
<g id="edge15" class="edge">
<title>f9fe5ece&#45;c696&#45;11ee&#45;a4c0&#45;ac1a3ddd05c7&#45;&gt;f9fe627a&#45;c696&#45;11ee&#45;a4c0&#45;ac1a3ddd05c7</title>
<path fill="none" stroke="black" d="M955.26,-194.34C965.61,-185.01 977.25,-174.5 987.41,-165.34"/>
<polygon fill="black" stroke="black" points="989.68,-168 994.76,-158.71 984.99,-162.81 989.68,-168"/>
</g>
<!-- f9fe6464&#45;c696&#45;11ee&#45;a4c0&#45;ac1a3ddd05c7 -->
<g id="node18" class="node">
<title>f9fe6464&#45;c696&#45;11ee&#45;a4c0&#45;ac1a3ddd05c7</title>
<ellipse fill="none" stroke="black" cx="1217.78" cy="-140.55" rx="48.99" ry="18"/>
<text text-anchor="middle" x="1217.78" y="-136.85" font-family="Times,serif" font-size="14.00">r_5: level3</text>
</g>
<!-- f9fe5ece&#45;c696&#45;11ee&#45;a4c0&#45;ac1a3ddd05c7&#45;&gt;f9fe6464&#45;c696&#45;11ee&#45;a4c0&#45;ac1a3ddd05c7 -->
<g id="edge17" class="edge">
<title>f9fe5ece&#45;c696&#45;11ee&#45;a4c0&#45;ac1a3ddd05c7&#45;&gt;f9fe6464&#45;c696&#45;11ee&#45;a4c0&#45;ac1a3ddd05c7</title>
<path fill="none" stroke="black" d="M1004,-199.22C1056,-185.19 1123.04,-167.1 1168.07,-154.96"/>
<polygon fill="black" stroke="black" points="1168.81,-158.38 1177.56,-152.4 1166.99,-151.62 1168.81,-158.38"/>
</g>
<!-- f9fe61a8&#45;c696&#45;11ee&#45;a4c0&#45;ac1a3ddd05c7 -->
<g id="node15" class="node">
<title>f9fe61a8&#45;c696&#45;11ee&#45;a4c0&#45;ac1a3ddd05c7</title>
<polygon fill="none" stroke="black" points="917.33,-43.27 863.56,-86.32 756,-86.32 702.22,-43.27 756,-0.22 863.56,-0.22 917.33,-43.27"/>
<text text-anchor="middle" x="809.78" y="-54.57" font-family="Times,serif" font-size="14.00">rp_24: level3 </text>
<text text-anchor="middle" x="809.78" y="-39.57" font-family="Times,serif" font-size="14.00"> four_eyes_principle </text>
<text text-anchor="middle" x="809.78" y="-24.57" font-family="Times,serif" font-size="14.00"> cost : 10</text>
</g>
<!-- f9fe607c&#45;c696&#45;11ee&#45;a4c0&#45;ac1a3ddd05c7&#45;&gt;f9fe61a8&#45;c696&#45;11ee&#45;a4c0&#45;ac1a3ddd05c7 -->
<g id="edge14" class="edge">
<title>f9fe607c&#45;c696&#45;11ee&#45;a4c0&#45;ac1a3ddd05c7&#45;&gt;f9fe61a8&#45;c696&#45;11ee&#45;a4c0&#45;ac1a3ddd05c7</title>
<path fill="none" stroke="black" d="M834.41,-122.52C832.14,-115.28 829.35,-106.42 826.47,-97.29"/>
<polygon fill="black" stroke="black" points="829.88,-96.46 823.54,-87.97 823.2,-98.56 829.88,-96.46"/>
</g>
<!-- f9fe6388&#45;c696&#45;11ee&#45;a4c0&#45;ac1a3ddd05c7 -->
<g id="node17" class="node">
<title>f9fe6388&#45;c696&#45;11ee&#45;a4c0&#45;ac1a3ddd05c7</title>
<polygon fill="none" stroke="black" points="1151.33,-43.27 1097.56,-86.32 990,-86.32 936.22,-43.27 990,-0.22 1097.56,-0.22 1151.33,-43.27"/>
<text text-anchor="middle" x="1043.78" y="-54.57" font-family="Times,serif" font-size="14.00">rp_24: level3 </text>
<text text-anchor="middle" x="1043.78" y="-39.57" font-family="Times,serif" font-size="14.00"> four_eyes_principle </text>
<text text-anchor="middle" x="1043.78" y="-24.57" font-family="Times,serif" font-size="14.00"> cost : 10</text>
</g>
<!-- f9fe627a&#45;c696&#45;11ee&#45;a4c0&#45;ac1a3ddd05c7&#45;&gt;f9fe6388&#45;c696&#45;11ee&#45;a4c0&#45;ac1a3ddd05c7 -->
<g id="edge16" class="edge">
<title>f9fe627a&#45;c696&#45;11ee&#45;a4c0&#45;ac1a3ddd05c7&#45;&gt;f9fe6388&#45;c696&#45;11ee&#45;a4c0&#45;ac1a3ddd05c7</title>
<path fill="none" stroke="black" d="M1019.14,-122.52C1021.42,-115.28 1024.21,-106.42 1027.08,-97.29"/>
<polygon fill="black" stroke="black" points="1030.35,-98.56 1030.02,-87.97 1023.68,-96.46 1030.35,-98.56"/>
</g>
<!-- f9fe6568&#45;c696&#45;11ee&#45;a4c0&#45;ac1a3ddd05c7 -->
<g id="node19" class="node">
<title>f9fe6568&#45;c696&#45;11ee&#45;a4c0&#45;ac1a3ddd05c7</title>
<polygon fill="none" stroke="black" points="1385.33,-43.27 1331.56,-86.32 1224,-86.32 1170.22,-43.27 1224,-0.22 1331.56,-0.22 1385.33,-43.27"/>
<text text-anchor="middle" x="1277.78" y="-54.57" font-family="Times,serif" font-size="14.00">rp_24: level3 </text>
<text text-anchor="middle" x="1277.78" y="-39.57" font-family="Times,serif" font-size="14.00"> four_eyes_principle </text>
<text text-anchor="middle" x="1277.78" y="-24.57" font-family="Times,serif" font-size="14.00"> cost : 10</text>
</g>
<!-- f9fe6464&#45;c696&#45;11ee&#45;a4c0&#45;ac1a3ddd05c7&#45;&gt;f9fe6568&#45;c696&#45;11ee&#45;a4c0&#45;ac1a3ddd05c7 -->
<g id="edge18" class="edge">
<title>f9fe6464&#45;c696&#45;11ee&#45;a4c0&#45;ac1a3ddd05c7&#45;&gt;f9fe6568&#45;c696&#45;11ee&#45;a4c0&#45;ac1a3ddd05c7</title>
<path fill="none" stroke="black" d="M1228.5,-122.52C1233.26,-114.97 1239.13,-105.64 1245.14,-96.09"/>
<polygon fill="black" stroke="black" points="1247.99,-98.13 1250.36,-87.81 1242.07,-94.4 1247.99,-98.13"/>
</g>
<!-- f9fe675c&#45;c696&#45;11ee&#45;a4c0&#45;ac1a3ddd05c7 -->
<g id="node21" class="node">
<title>f9fe675c&#45;c696&#45;11ee&#45;a4c0&#45;ac1a3ddd05c7</title>
<polygon fill="none" stroke="black" points="1034.01,-326.82 996.4,-369.87 921.16,-369.87 883.54,-326.82 921.16,-283.77 996.4,-283.77 1034.01,-326.82"/>
<text text-anchor="middle" x="958.78" y="-338.12" font-family="Times,serif" font-size="14.00">rp_89: level2 </text>
<text text-anchor="middle" x="958.78" y="-323.12" font-family="Times,serif" font-size="14.00"> design_offer </text>
<text text-anchor="middle" x="958.78" y="-308.12" font-family="Times,serif" font-size="14.00"> cost : 20</text>
</g>
<!-- f9fe664e&#45;c696&#45;11ee&#45;a4c0&#45;ac1a3ddd05c7&#45;&gt;f9fe675c&#45;c696&#45;11ee&#45;a4c0&#45;ac1a3ddd05c7 -->
<g id="edge20" class="edge">
<title>f9fe664e&#45;c696&#45;11ee&#45;a4c0&#45;ac1a3ddd05c7&#45;&gt;f9fe675c&#45;c696&#45;11ee&#45;a4c0&#45;ac1a3ddd05c7</title>
<path fill="none" stroke="black" d="M969.39,-405.62C968.43,-398.6 967.27,-390.08 966.07,-381.3"/>
<polygon fill="black" stroke="black" points="969.57,-381.06 964.75,-371.63 962.64,-382.01 969.57,-381.06"/>
</g>
<!-- f9fe6950&#45;c696&#45;11ee&#45;a4c0&#45;ac1a3ddd05c7 -->
<g id="node23" class="node">
<title>f9fe6950&#45;c696&#45;11ee&#45;a4c0&#45;ac1a3ddd05c7</title>
<polygon fill="none" stroke="black" points="1202.01,-326.82 1164.4,-369.87 1089.16,-369.87 1051.54,-326.82 1089.16,-283.77 1164.4,-283.77 1202.01,-326.82"/>
<text text-anchor="middle" x="1126.78" y="-338.12" font-family="Times,serif" font-size="14.00">rp_99: level2 </text>
<text text-anchor="middle" x="1126.78" y="-323.12" font-family="Times,serif" font-size="14.00"> design_offer </text>
<text text-anchor="middle" x="1126.78" y="-308.12" font-family="Times,serif" font-size="14.00"> cost : 20</text>
</g>
<!-- f9fe6838&#45;c696&#45;11ee&#45;a4c0&#45;ac1a3ddd05c7&#45;&gt;f9fe6950&#45;c696&#45;11ee&#45;a4c0&#45;ac1a3ddd05c7 -->
<g id="edge22" class="edge">
<title>f9fe6838&#45;c696&#45;11ee&#45;a4c0&#45;ac1a3ddd05c7&#45;&gt;f9fe6950&#45;c696&#45;11ee&#45;a4c0&#45;ac1a3ddd05c7</title>
<path fill="none" stroke="black" d="M1115.35,-405.62C1116.38,-398.6 1117.63,-390.08 1118.92,-381.3"/>
<polygon fill="black" stroke="black" points="1122.35,-382.03 1120.34,-371.62 1115.42,-381.01 1122.35,-382.03"/>
</g>
<!-- f9fe6b44&#45;c696&#45;11ee&#45;a4c0&#45;ac1a3ddd05c7 -->
<g id="node25" class="node">
<title>f9fe6b44&#45;c696&#45;11ee&#45;a4c0&#45;ac1a3ddd05c7</title>
<polygon fill="none" stroke="black" points="1370.01,-326.82 1332.4,-369.87 1257.16,-369.87 1219.54,-326.82 1257.16,-283.77 1332.4,-283.77 1370.01,-326.82"/>
<text text-anchor="middle" x="1294.78" y="-338.12" font-family="Times,serif" font-size="14.00">rp_9: level3 </text>
<text text-anchor="middle" x="1294.78" y="-323.12" font-family="Times,serif" font-size="14.00"> design_offer </text>
<text text-anchor="middle" x="1294.78" y="-308.12" font-family="Times,serif" font-size="14.00"> cost : 50</text>
</g>
<!-- f9fe6a2c&#45;c696&#45;11ee&#45;a4c0&#45;ac1a3ddd05c7&#45;&gt;f9fe6b44&#45;c696&#45;11ee&#45;a4c0&#45;ac1a3ddd05c7 -->
<g id="edge24" class="edge">
<title>f9fe6a2c&#45;c696&#45;11ee&#45;a4c0&#45;ac1a3ddd05c7&#45;&gt;f9fe6b44&#45;c696&#45;11ee&#45;a4c0&#45;ac1a3ddd05c7</title>
<path fill="none" stroke="black" d="M1272.6,-406.06C1274.63,-398.91 1277.11,-390.16 1279.67,-381.13"/>
<polygon fill="black" stroke="black" points="1283.03,-382.11 1282.39,-371.53 1276.3,-380.2 1283.03,-382.11"/>
</g>
<!-- f9fe6c16&#45;c696&#45;11ee&#45;a4c0&#45;ac1a3ddd05c7 -->
<g id="node26" class="node">
<title>f9fe6c16&#45;c696&#45;11ee&#45;a4c0&#45;ac1a3ddd05c7</title>
<polygon fill="none" stroke="black" points="1343.78,-247.55 1245.78,-247.55 1245.78,-194.55 1343.78,-194.55 1343.78,-247.55"/>
<text text-anchor="middle" x="1294.78" y="-232.35" font-family="Times,serif" font-size="14.00">a8: send_offer </text>
<text text-anchor="middle" x="1294.78" y="-217.35" font-family="Times,serif" font-size="14.00"> Type: delete </text>
<text text-anchor="middle" x="1294.78" y="-202.35" font-family="Times,serif" font-size="14.00"> Direction: any</text>
</g>
<!-- f9fe6b44&#45;c696&#45;11ee&#45;a4c0&#45;ac1a3ddd05c7&#45;&gt;f9fe6c16&#45;c696&#45;11ee&#45;a4c0&#45;ac1a3ddd05c7 -->
<g id="edge25" class="edge">
<title>f9fe6b44&#45;c696&#45;11ee&#45;a4c0&#45;ac1a3ddd05c7&#45;&gt;f9fe6c16&#45;c696&#45;11ee&#45;a4c0&#45;ac1a3ddd05c7</title>
<path fill="none" stroke="black" d="M1294.78,-283.31C1294.78,-275.36 1294.78,-267.1 1294.78,-259.32"/>
<polygon fill="black" stroke="black" points="1298.28,-259.49 1294.78,-249.49 1291.28,-259.49 1298.28,-259.49"/>
</g>
<!-- f9fe6e3c&#45;c696&#45;11ee&#45;a4c0&#45;ac1a3ddd05c7 -->
<g id="node28" class="node">
<title>f9fe6e3c&#45;c696&#45;11ee&#45;a4c0&#45;ac1a3ddd05c7</title>
<polygon fill="none" stroke="black" points="1538.01,-326.82 1500.4,-369.87 1425.16,-369.87 1387.54,-326.82 1425.16,-283.77 1500.4,-283.77 1538.01,-326.82"/>
<text text-anchor="middle" x="1462.78" y="-338.12" font-family="Times,serif" font-size="14.00">rp_9: level3 </text>
<text text-anchor="middle" x="1462.78" y="-323.12" font-family="Times,serif" font-size="14.00"> design_offer </text>
<text text-anchor="middle" x="1462.78" y="-308.12" font-family="Times,serif" font-size="14.00"> cost : 50</text>
</g>
<!-- f9fe6d2e&#45;c696&#45;11ee&#45;a4c0&#45;ac1a3ddd05c7&#45;&gt;f9fe6e3c&#45;c696&#45;11ee&#45;a4c0&#45;ac1a3ddd05c7 -->
<g id="edge27" class="edge">
<title>f9fe6d2e&#45;c696&#45;11ee&#45;a4c0&#45;ac1a3ddd05c7&#45;&gt;f9fe6e3c&#45;c696&#45;11ee&#45;a4c0&#45;ac1a3ddd05c7</title>
<path fill="none" stroke="black" d="M1434.86,-406.06C1437.44,-398.83 1440.6,-389.97 1443.86,-380.84"/>
<polygon fill="black" stroke="black" points="1447.13,-382.1 1447.19,-371.5 1440.53,-379.74 1447.13,-382.1"/>
</g>
<!-- f9fe6f0e&#45;c696&#45;11ee&#45;a4c0&#45;ac1a3ddd05c7 -->
<g id="node29" class="node">
<title>f9fe6f0e&#45;c696&#45;11ee&#45;a4c0&#45;ac1a3ddd05c7</title>
<polygon fill="none" stroke="black" points="1511.78,-247.55 1413.78,-247.55 1413.78,-194.55 1511.78,-194.55 1511.78,-247.55"/>
<text text-anchor="middle" x="1462.78" y="-232.35" font-family="Times,serif" font-size="14.00">a8: send_offer </text>
<text text-anchor="middle" x="1462.78" y="-217.35" font-family="Times,serif" font-size="14.00"> Type: delete </text>
<text text-anchor="middle" x="1462.78" y="-202.35" font-family="Times,serif" font-size="14.00"> Direction: any</text>
</g>
<!-- f9fe6e3c&#45;c696&#45;11ee&#45;a4c0&#45;ac1a3ddd05c7&#45;&gt;f9fe6f0e&#45;c696&#45;11ee&#45;a4c0&#45;ac1a3ddd05c7 -->
<g id="edge28" class="edge">
<title>f9fe6e3c&#45;c696&#45;11ee&#45;a4c0&#45;ac1a3ddd05c7&#45;&gt;f9fe6f0e&#45;c696&#45;11ee&#45;a4c0&#45;ac1a3ddd05c7</title>
<path fill="none" stroke="black" d="M1462.78,-283.31C1462.78,-275.36 1462.78,-267.1 1462.78,-259.32"/>
<polygon fill="black" stroke="black" points="1466.28,-259.49 1462.78,-249.49 1459.28,-259.49 1466.28,-259.49"/>
</g>
</g>
</svg>
