<?xml version="1.0" encoding="UTF-8" standalone="no"?>
<!DOCTYPE svg PUBLIC "-//W3C//DTD SVG 1.1//EN"
 "http://www.w3.org/Graphics/SVG/1.1/DTD/svg11.dtd">
<!-- Generated by graphviz version 8.1.0 (20230707.0739)
 -->
<!-- Title: CallTree Pages: 1 -->
<svg width="430pt" height="267pt"
 viewBox="0.00 0.00 430.49 267.40" xmlns="http://www.w3.org/2000/svg" xmlns:xlink="http://www.w3.org/1999/xlink">
<g id="graph0" class="graph" transform="scale(1 1) rotate(0) translate(4 263.4)">
<title>CallTree</title>
<polygon fill="white" stroke="none" points="-4,4 -4,-263.4 426.49,-263.4 426.49,4 -4,4"/>
<!-- 7f063186&#45;cb57&#45;11ee&#45;9270&#45;04cf4b795879 -->
<g id="node1" class="node">
<title>7f063186&#45;cb57&#45;11ee&#45;9270&#45;04cf4b795879</title>
<polygon fill="none" stroke="black" points="284.87,-259.4 137.62,-259.4 137.62,-201.9 284.87,-201.9 284.87,-259.4"/>
<text text-anchor="middle" x="211.25" y="-242.1" font-family="Times,serif" font-size="14.00">a10: proposal_approval </text>
<text text-anchor="middle" x="211.25" y="-225.6" font-family="Times,serif" font-size="14.00"> Type: Core </text>
<text text-anchor="middle" x="211.25" y="-209.1" font-family="Times,serif" font-size="14.00"> Direction: Core</text>
</g>
<!-- 7f0637bc&#45;cb57&#45;11ee&#45;9270&#45;04cf4b795879 -->
<g id="node2" class="node">
<title>7f0637bc&#45;cb57&#45;11ee&#45;9270&#45;04cf4b795879</title>
<ellipse fill="none" stroke="black" cx="151.25" cy="-147.9" rx="50.84" ry="18"/>
<text text-anchor="middle" x="151.25" y="-142.85" font-family="Times,serif" font-size="14.00">r_3: level3</text>
</g>
<!-- 7f063186&#45;cb57&#45;11ee&#45;9270&#45;04cf4b795879&#45;&gt;7f0637bc&#45;cb57&#45;11ee&#45;9270&#45;04cf4b795879 -->
<g id="edge1" class="edge">
<title>7f063186&#45;cb57&#45;11ee&#45;9270&#45;04cf4b795879&#45;&gt;7f0637bc&#45;cb57&#45;11ee&#45;9270&#45;04cf4b795879</title>
<path fill="none" stroke="black" d="M190.26,-201.4C183.64,-192.49 176.37,-182.71 169.92,-174.03"/>
<polygon fill="black" stroke="black" points="172.33,-172.41 163.56,-166.47 166.71,-176.58 172.33,-172.41"/>
</g>
<!-- 7f063b68&#45;cb57&#45;11ee&#45;9270&#45;04cf4b795879 -->
<g id="node4" class="node">
<title>7f063b68&#45;cb57&#45;11ee&#45;9270&#45;04cf4b795879</title>
<ellipse fill="none" stroke="black" cx="296.25" cy="-147.9" rx="50.84" ry="18"/>
<text text-anchor="middle" x="296.25" y="-142.85" font-family="Times,serif" font-size="14.00">r_5: level3</text>
</g>
<!-- 7f063186&#45;cb57&#45;11ee&#45;9270&#45;04cf4b795879&#45;&gt;7f063b68&#45;cb57&#45;11ee&#45;9270&#45;04cf4b795879 -->
<g id="edge3" class="edge">
<title>7f063186&#45;cb57&#45;11ee&#45;9270&#45;04cf4b795879&#45;&gt;7f063b68&#45;cb57&#45;11ee&#45;9270&#45;04cf4b795879</title>
<path fill="none" stroke="black" d="M240.97,-201.4C250.9,-191.98 261.85,-181.58 271.36,-172.54"/>
<polygon fill="black" stroke="black" points="273.45,-175.43 278.29,-166 268.63,-170.35 273.45,-175.43"/>
</g>
<!-- 7f0639d8&#45;cb57&#45;11ee&#45;9270&#45;04cf4b795879 -->
<g id="node3" class="node">
<title>7f0639d8&#45;cb57&#45;11ee&#45;9270&#45;04cf4b795879</title>
<polygon fill="none" stroke="black" points="202.49,-46.95 151.87,-93.9 50.62,-93.9 0,-46.95 50.62,0 151.87,0 202.49,-46.95"/>
<text text-anchor="middle" x="101.25" y="-58.4" font-family="Times,serif" font-size="14.00">rp_25: level3 </text>
<text text-anchor="middle" x="101.25" y="-41.9" font-family="Times,serif" font-size="14.00"> proposal_approval </text>
<text text-anchor="middle" x="101.25" y="-25.4" font-family="Times,serif" font-size="14.00"> cost : 30</text>
</g>
<!-- 7f0637bc&#45;cb57&#45;11ee&#45;9270&#45;04cf4b795879&#45;&gt;7f0639d8&#45;cb57&#45;11ee&#45;9270&#45;04cf4b795879 -->
<g id="edge2" class="edge">
<title>7f0637bc&#45;cb57&#45;11ee&#45;9270&#45;04cf4b795879&#45;&gt;7f0639d8&#45;cb57&#45;11ee&#45;9270&#45;04cf4b795879</title>
<path fill="none" stroke="black" d="M142.76,-130.11C139,-122.67 134.34,-113.44 129.51,-103.88"/>
<polygon fill="black" stroke="black" points="132.29,-102.61 124.65,-95.27 126.04,-105.77 132.29,-102.61"/>
</g>
<!-- 7f063d3e&#45;cb57&#45;11ee&#45;9270&#45;04cf4b795879 -->
<g id="node5" class="node">
<title>7f063d3e&#45;cb57&#45;11ee&#45;9270&#45;04cf4b795879</title>
<polygon fill="none" stroke="black" points="422.49,-46.95 371.87,-93.9 270.62,-93.9 220,-46.95 270.62,0 371.87,0 422.49,-46.95"/>
<text text-anchor="middle" x="321.25" y="-58.4" font-family="Times,serif" font-size="14.00">rp_25: level3 </text>
<text text-anchor="middle" x="321.25" y="-41.9" font-family="Times,serif" font-size="14.00"> proposal_approval </text>
<text text-anchor="middle" x="321.25" y="-25.4" font-family="Times,serif" font-size="14.00"> cost : 23</text>
</g>
<!-- 7f063b68&#45;cb57&#45;11ee&#45;9270&#45;04cf4b795879&#45;&gt;7f063d3e&#45;cb57&#45;11ee&#45;9270&#45;04cf4b795879 -->
<g id="edge4" class="edge">
<title>7f063b68&#45;cb57&#45;11ee&#45;9270&#45;04cf4b795879&#45;&gt;7f063d3e&#45;cb57&#45;11ee&#45;9270&#45;04cf4b795879</title>
<path fill="none" stroke="black" d="M300.6,-129.66C302.39,-122.58 304.57,-113.93 306.84,-104.95"/>
<polygon fill="black" stroke="black" points="310.47,-105.87 309.53,-95.32 303.69,-104.16 310.47,-105.87"/>
</g>
</g>
</svg>
