<?xml version="1.0" encoding="UTF-8" standalone="no"?>
<!DOCTYPE svg PUBLIC "-//W3C//DTD SVG 1.1//EN"
 "http://www.w3.org/Graphics/SVG/1.1/DTD/svg11.dtd">
<!-- Generated by graphviz version 8.1.0 (20230707.0739)
 -->
<!-- Title: CallTree Pages: 1 -->
<svg width="1105pt" height="563pt"
 viewBox="0.00 0.00 1105.37 562.79" xmlns="http://www.w3.org/2000/svg" xmlns:xlink="http://www.w3.org/1999/xlink">
<g id="graph0" class="graph" transform="scale(1 1) rotate(0) translate(4 558.79)">
<title>CallTree</title>
<polygon fill="white" stroke="none" points="-4,4 -4,-558.79 1101.37,-558.79 1101.37,4 -4,4"/>
<!-- 7f03084e&#45;cb57&#45;11ee&#45;9270&#45;04cf4b795879 -->
<g id="node1" class="node">
<title>7f03084e&#45;cb57&#45;11ee&#45;9270&#45;04cf4b795879</title>
<polygon fill="none" stroke="black" points="758.12,-554.79 632.62,-554.79 632.62,-497.29 758.12,-497.29 758.12,-554.79"/>
<text text-anchor="middle" x="695.37" y="-537.49" font-family="Times,serif" font-size="14.00">a4: create_proposal </text>
<text text-anchor="middle" x="695.37" y="-520.99" font-family="Times,serif" font-size="14.00"> Type: Core </text>
<text text-anchor="middle" x="695.37" y="-504.49" font-family="Times,serif" font-size="14.00"> Direction: Core</text>
</g>
<!-- 7f030eb6&#45;cb57&#45;11ee&#45;9270&#45;04cf4b795879 -->
<g id="node2" class="node">
<title>7f030eb6&#45;cb57&#45;11ee&#45;9270&#45;04cf4b795879</title>
<ellipse fill="none" stroke="black" cx="477.37" cy="-443.29" rx="50.84" ry="18"/>
<text text-anchor="middle" x="477.37" y="-438.24" font-family="Times,serif" font-size="14.00">r_2: level2</text>
</g>
<!-- 7f03084e&#45;cb57&#45;11ee&#45;9270&#45;04cf4b795879&#45;&gt;7f030eb6&#45;cb57&#45;11ee&#45;9270&#45;04cf4b795879 -->
<g id="edge1" class="edge">
<title>7f03084e&#45;cb57&#45;11ee&#45;9270&#45;04cf4b795879&#45;&gt;7f030eb6&#45;cb57&#45;11ee&#45;9270&#45;04cf4b795879</title>
<path fill="none" stroke="black" d="M632.31,-501.69C596.8,-488.53 553.32,-472.43 521.47,-460.63"/>
<polygon fill="black" stroke="black" points="523.15,-457.15 512.56,-456.96 520.72,-463.71 523.15,-457.15"/>
</g>
<!-- 7f031e60&#45;cb57&#45;11ee&#45;9270&#45;04cf4b795879 -->
<g id="node12" class="node">
<title>7f031e60&#45;cb57&#45;11ee&#45;9270&#45;04cf4b795879</title>
<ellipse fill="none" stroke="black" cx="635.37" cy="-443.29" rx="50.84" ry="18"/>
<text text-anchor="middle" x="635.37" y="-438.24" font-family="Times,serif" font-size="14.00">r_4: level2</text>
</g>
<!-- 7f03084e&#45;cb57&#45;11ee&#45;9270&#45;04cf4b795879&#45;&gt;7f031e60&#45;cb57&#45;11ee&#45;9270&#45;04cf4b795879 -->
<g id="edge11" class="edge">
<title>7f03084e&#45;cb57&#45;11ee&#45;9270&#45;04cf4b795879&#45;&gt;7f031e60&#45;cb57&#45;11ee&#45;9270&#45;04cf4b795879</title>
<path fill="none" stroke="black" d="M674.38,-496.8C667.76,-487.89 660.5,-478.11 654.05,-469.43"/>
<polygon fill="black" stroke="black" points="656.46,-467.81 647.68,-461.87 650.84,-471.98 656.46,-467.81"/>
</g>
<!-- 7f032126&#45;cb57&#45;11ee&#45;9270&#45;04cf4b795879 -->
<g id="node14" class="node">
<title>7f032126&#45;cb57&#45;11ee&#45;9270&#45;04cf4b795879</title>
<ellipse fill="none" stroke="black" cx="793.37" cy="-443.29" rx="50.84" ry="18"/>
<text text-anchor="middle" x="793.37" y="-438.24" font-family="Times,serif" font-size="14.00">r_3: level3</text>
</g>
<!-- 7f03084e&#45;cb57&#45;11ee&#45;9270&#45;04cf4b795879&#45;&gt;7f032126&#45;cb57&#45;11ee&#45;9270&#45;04cf4b795879 -->
<g id="edge13" class="edge">
<title>7f03084e&#45;cb57&#45;11ee&#45;9270&#45;04cf4b795879&#45;&gt;7f032126&#45;cb57&#45;11ee&#45;9270&#45;04cf4b795879</title>
<path fill="none" stroke="black" d="M729.64,-496.8C741.32,-487.18 754.22,-476.55 765.34,-467.39"/>
<polygon fill="black" stroke="black" points="767.33,-469.46 772.82,-460.4 762.88,-464.06 767.33,-469.46"/>
</g>
<!-- 7f0325ea&#45;cb57&#45;11ee&#45;9270&#45;04cf4b795879 -->
<g id="node16" class="node">
<title>7f0325ea&#45;cb57&#45;11ee&#45;9270&#45;04cf4b795879</title>
<ellipse fill="none" stroke="black" cx="970.37" cy="-443.29" rx="50.84" ry="18"/>
<text text-anchor="middle" x="970.37" y="-438.24" font-family="Times,serif" font-size="14.00">r_5: level3</text>
</g>
<!-- 7f03084e&#45;cb57&#45;11ee&#45;9270&#45;04cf4b795879&#45;&gt;7f0325ea&#45;cb57&#45;11ee&#45;9270&#45;04cf4b795879 -->
<g id="edge15" class="edge">
<title>7f03084e&#45;cb57&#45;11ee&#45;9270&#45;04cf4b795879&#45;&gt;7f0325ea&#45;cb57&#45;11ee&#45;9270&#45;04cf4b795879</title>
<path fill="none" stroke="black" d="M758.46,-506.52C808.08,-491.95 876.2,-471.95 921.67,-458.59"/>
<polygon fill="black" stroke="black" points="922.54,-461.69 931.15,-455.52 920.57,-454.98 922.54,-461.69"/>
</g>
<!-- 7f031096&#45;cb57&#45;11ee&#45;9270&#45;04cf4b795879 -->
<g id="node3" class="node">
<title>7f031096&#45;cb57&#45;11ee&#45;9270&#45;04cf4b795879</title>
<polygon fill="none" stroke="black" points="509.37,-342.35 464.87,-389.29 375.87,-389.29 331.37,-342.35 375.87,-295.4 464.87,-295.4 509.37,-342.35"/>
<text text-anchor="middle" x="420.37" y="-353.8" font-family="Times,serif" font-size="14.00">rp_15: level3 </text>
<text text-anchor="middle" x="420.37" y="-337.3" font-family="Times,serif" font-size="14.00"> create_proposal </text>
<text text-anchor="middle" x="420.37" y="-320.8" font-family="Times,serif" font-size="14.00"> cost : 100</text>
</g>
<!-- 7f030eb6&#45;cb57&#45;11ee&#45;9270&#45;04cf4b795879&#45;&gt;7f031096&#45;cb57&#45;11ee&#45;9270&#45;04cf4b795879 -->
<g id="edge2" class="edge">
<title>7f030eb6&#45;cb57&#45;11ee&#45;9270&#45;04cf4b795879&#45;&gt;7f031096&#45;cb57&#45;11ee&#45;9270&#45;04cf4b795879</title>
<path fill="none" stroke="black" d="M467.7,-425.51C463.37,-417.99 457.98,-408.64 452.42,-398.98"/>
<polygon fill="black" stroke="black" points="455.08,-397.58 447.05,-390.66 449.01,-401.08 455.08,-397.58"/>
</g>
<!-- 7f0311fe&#45;cb57&#45;11ee&#45;9270&#45;04cf4b795879 -->
<g id="node4" class="node">
<title>7f0311fe&#45;cb57&#45;11ee&#45;9270&#45;04cf4b795879</title>
<polygon fill="none" stroke="black" points="413.62,-259.4 267.12,-259.4 267.12,-201.9 413.62,-201.9 413.62,-259.4"/>
<text text-anchor="middle" x="340.37" y="-242.1" font-family="Times,serif" font-size="14.00">r0: four_eyes_principle </text>
<text text-anchor="middle" x="340.37" y="-225.6" font-family="Times,serif" font-size="14.00"> Type: insert </text>
<text text-anchor="middle" x="340.37" y="-209.1" font-family="Times,serif" font-size="14.00"> Direction: before</text>
</g>
<!-- 7f031096&#45;cb57&#45;11ee&#45;9270&#45;04cf4b795879&#45;&gt;7f0311fe&#45;cb57&#45;11ee&#45;9270&#45;04cf4b795879 -->
<g id="edge3" class="edge">
<title>7f031096&#45;cb57&#45;11ee&#45;9270&#45;04cf4b795879&#45;&gt;7f0311fe&#45;cb57&#45;11ee&#45;9270&#45;04cf4b795879</title>
<path fill="none" stroke="black" d="M386.67,-295.14C380.15,-286.19 373.39,-276.92 367.12,-268.33"/>
<polygon fill="black" stroke="black" points="369.51,-266.67 360.79,-260.65 363.86,-270.79 369.51,-266.67"/>
</g>
<!-- 7f031cd0&#45;cb57&#45;11ee&#45;9270&#45;04cf4b795879 -->
<g id="node11" class="node">
<title>7f031cd0&#45;cb57&#45;11ee&#45;9270&#45;04cf4b795879</title>
<polygon fill="none" stroke="black" points="570.87,-259.4 431.87,-259.4 431.87,-201.9 570.87,-201.9 570.87,-259.4"/>
<text text-anchor="middle" x="501.37" y="-242.1" font-family="Times,serif" font-size="14.00">r0: proposal_approval </text>
<text text-anchor="middle" x="501.37" y="-225.6" font-family="Times,serif" font-size="14.00"> Type: delete </text>
<text text-anchor="middle" x="501.37" y="-209.1" font-family="Times,serif" font-size="14.00"> Direction: any</text>
</g>
<!-- 7f031096&#45;cb57&#45;11ee&#45;9270&#45;04cf4b795879&#45;&gt;7f031cd0&#45;cb57&#45;11ee&#45;9270&#45;04cf4b795879 -->
<g id="edge10" class="edge">
<title>7f031096&#45;cb57&#45;11ee&#45;9270&#45;04cf4b795879&#45;&gt;7f031cd0&#45;cb57&#45;11ee&#45;9270&#45;04cf4b795879</title>
<path fill="none" stroke="black" d="M454.49,-295.14C461.1,-286.19 467.94,-276.92 474.29,-268.33"/>
<polygon fill="black" stroke="black" points="477.57,-270.78 480.69,-260.65 471.94,-266.62 477.57,-270.78"/>
</g>
<!-- 7f031438&#45;cb57&#45;11ee&#45;9270&#45;04cf4b795879 -->
<g id="node5" class="node">
<title>7f031438&#45;cb57&#45;11ee&#45;9270&#45;04cf4b795879</title>
<ellipse fill="none" stroke="black" cx="164.37" cy="-147.9" rx="50.84" ry="18"/>
<text text-anchor="middle" x="164.37" y="-142.85" font-family="Times,serif" font-size="14.00">r_4: level2</text>
</g>
<!-- 7f0311fe&#45;cb57&#45;11ee&#45;9270&#45;04cf4b795879&#45;&gt;7f031438&#45;cb57&#45;11ee&#45;9270&#45;04cf4b795879 -->
<g id="edge4" class="edge">
<title>7f0311fe&#45;cb57&#45;11ee&#45;9270&#45;04cf4b795879&#45;&gt;7f031438&#45;cb57&#45;11ee&#45;9270&#45;04cf4b795879</title>
<path fill="none" stroke="black" d="M278.81,-201.4C254.17,-190.1 226.47,-177.39 204.5,-167.31"/>
<polygon fill="black" stroke="black" points="206.07,-163.72 195.52,-162.73 203.15,-170.08 206.07,-163.72"/>
</g>
<!-- 7f031744&#45;cb57&#45;11ee&#45;9270&#45;04cf4b795879 -->
<g id="node7" class="node">
<title>7f031744&#45;cb57&#45;11ee&#45;9270&#45;04cf4b795879</title>
<ellipse fill="none" stroke="black" cx="340.37" cy="-147.9" rx="50.84" ry="18"/>
<text text-anchor="middle" x="340.37" y="-142.85" font-family="Times,serif" font-size="14.00">r_3: level3</text>
</g>
<!-- 7f0311fe&#45;cb57&#45;11ee&#45;9270&#45;04cf4b795879&#45;&gt;7f031744&#45;cb57&#45;11ee&#45;9270&#45;04cf4b795879 -->
<g id="edge6" class="edge">
<title>7f0311fe&#45;cb57&#45;11ee&#45;9270&#45;04cf4b795879&#45;&gt;7f031744&#45;cb57&#45;11ee&#45;9270&#45;04cf4b795879</title>
<path fill="none" stroke="black" d="M340.37,-201.4C340.37,-193.46 340.37,-184.82 340.37,-176.89"/>
<polygon fill="black" stroke="black" points="343.87,-176.94 340.37,-166.94 336.87,-176.94 343.87,-176.94"/>
</g>
<!-- 7f031a14&#45;cb57&#45;11ee&#45;9270&#45;04cf4b795879 -->
<g id="node9" class="node">
<title>7f031a14&#45;cb57&#45;11ee&#45;9270&#45;04cf4b795879</title>
<ellipse fill="none" stroke="black" cx="516.37" cy="-147.9" rx="50.84" ry="18"/>
<text text-anchor="middle" x="516.37" y="-142.85" font-family="Times,serif" font-size="14.00">r_5: level3</text>
</g>
<!-- 7f0311fe&#45;cb57&#45;11ee&#45;9270&#45;04cf4b795879&#45;&gt;7f031a14&#45;cb57&#45;11ee&#45;9270&#45;04cf4b795879 -->
<g id="edge8" class="edge">
<title>7f0311fe&#45;cb57&#45;11ee&#45;9270&#45;04cf4b795879&#45;&gt;7f031a14&#45;cb57&#45;11ee&#45;9270&#45;04cf4b795879</title>
<path fill="none" stroke="black" d="M401.93,-201.4C426.57,-190.1 454.27,-177.39 476.24,-167.31"/>
<polygon fill="black" stroke="black" points="477.58,-170.08 485.21,-162.73 474.67,-163.72 477.58,-170.08"/>
</g>
<!-- 7f0315e6&#45;cb57&#45;11ee&#45;9270&#45;04cf4b795879 -->
<g id="node6" class="node">
<title>7f0315e6&#45;cb57&#45;11ee&#45;9270&#45;04cf4b795879</title>
<polygon fill="none" stroke="black" points="214.74,-46.95 161.05,-93.9 53.68,-93.9 0,-46.95 53.68,0 161.05,0 214.74,-46.95"/>
<text text-anchor="middle" x="107.37" y="-58.4" font-family="Times,serif" font-size="14.00">rp_24: level3 </text>
<text text-anchor="middle" x="107.37" y="-41.9" font-family="Times,serif" font-size="14.00"> four_eyes_principle </text>
<text text-anchor="middle" x="107.37" y="-25.4" font-family="Times,serif" font-size="14.00"> cost : 63</text>
</g>
<!-- 7f031438&#45;cb57&#45;11ee&#45;9270&#45;04cf4b795879&#45;&gt;7f0315e6&#45;cb57&#45;11ee&#45;9270&#45;04cf4b795879 -->
<g id="edge5" class="edge">
<title>7f031438&#45;cb57&#45;11ee&#45;9270&#45;04cf4b795879&#45;&gt;7f0315e6&#45;cb57&#45;11ee&#45;9270&#45;04cf4b795879</title>
<path fill="none" stroke="black" d="M154.7,-130.11C150.37,-122.59 144.98,-113.25 139.42,-103.58"/>
<polygon fill="black" stroke="black" points="142.08,-102.19 134.05,-95.27 136.01,-105.68 142.08,-102.19"/>
</g>
<!-- 7f0318d4&#45;cb57&#45;11ee&#45;9270&#45;04cf4b795879 -->
<g id="node8" class="node">
<title>7f0318d4&#45;cb57&#45;11ee&#45;9270&#45;04cf4b795879</title>
<polygon fill="none" stroke="black" points="447.74,-46.95 394.05,-93.9 286.68,-93.9 233,-46.95 286.68,0 394.05,0 447.74,-46.95"/>
<text text-anchor="middle" x="340.37" y="-58.4" font-family="Times,serif" font-size="14.00">rp_24: level3 </text>
<text text-anchor="middle" x="340.37" y="-41.9" font-family="Times,serif" font-size="14.00"> four_eyes_principle </text>
<text text-anchor="middle" x="340.37" y="-25.4" font-family="Times,serif" font-size="14.00"> cost : 53</text>
</g>
<!-- 7f031744&#45;cb57&#45;11ee&#45;9270&#45;04cf4b795879&#45;&gt;7f0318d4&#45;cb57&#45;11ee&#45;9270&#45;04cf4b795879 -->
<g id="edge7" class="edge">
<title>7f031744&#45;cb57&#45;11ee&#45;9270&#45;04cf4b795879&#45;&gt;7f0318d4&#45;cb57&#45;11ee&#45;9270&#45;04cf4b795879</title>
<path fill="none" stroke="black" d="M340.37,-129.66C340.37,-122.65 340.37,-114.12 340.37,-105.24"/>
<polygon fill="black" stroke="black" points="343.87,-105.32 340.37,-95.32 336.87,-105.32 343.87,-105.32"/>
</g>
<!-- 7f031b9a&#45;cb57&#45;11ee&#45;9270&#45;04cf4b795879 -->
<g id="node10" class="node">
<title>7f031b9a&#45;cb57&#45;11ee&#45;9270&#45;04cf4b795879</title>
<polygon fill="none" stroke="black" points="680.74,-46.95 627.05,-93.9 519.68,-93.9 466,-46.95 519.68,0 627.05,0 680.74,-46.95"/>
<text text-anchor="middle" x="573.37" y="-58.4" font-family="Times,serif" font-size="14.00">rp_24: level3 </text>
<text text-anchor="middle" x="573.37" y="-41.9" font-family="Times,serif" font-size="14.00"> four_eyes_principle </text>
<text text-anchor="middle" x="573.37" y="-25.4" font-family="Times,serif" font-size="14.00"> cost : 19</text>
</g>
<!-- 7f031a14&#45;cb57&#45;11ee&#45;9270&#45;04cf4b795879&#45;&gt;7f031b9a&#45;cb57&#45;11ee&#45;9270&#45;04cf4b795879 -->
<g id="edge9" class="edge">
<title>7f031a14&#45;cb57&#45;11ee&#45;9270&#45;04cf4b795879&#45;&gt;7f031b9a&#45;cb57&#45;11ee&#45;9270&#45;04cf4b795879</title>
<path fill="none" stroke="black" d="M526.04,-130.11C530.37,-122.59 535.75,-113.25 541.32,-103.58"/>
<polygon fill="black" stroke="black" points="544.73,-105.68 546.69,-95.27 538.66,-102.19 544.73,-105.68"/>
</g>
<!-- 7f031ff0&#45;cb57&#45;11ee&#45;9270&#45;04cf4b795879 -->
<g id="node13" class="node">
<title>7f031ff0&#45;cb57&#45;11ee&#45;9270&#45;04cf4b795879</title>
<polygon fill="none" stroke="black" points="705.37,-342.35 660.87,-389.29 571.87,-389.29 527.37,-342.35 571.87,-295.4 660.87,-295.4 705.37,-342.35"/>
<text text-anchor="middle" x="616.37" y="-353.8" font-family="Times,serif" font-size="14.00">rp_15: level2 </text>
<text text-anchor="middle" x="616.37" y="-337.3" font-family="Times,serif" font-size="14.00"> create_proposal </text>
<text text-anchor="middle" x="616.37" y="-320.8" font-family="Times,serif" font-size="14.00"> cost : 15</text>
</g>
<!-- 7f031e60&#45;cb57&#45;11ee&#45;9270&#45;04cf4b795879&#45;&gt;7f031ff0&#45;cb57&#45;11ee&#45;9270&#45;04cf4b795879 -->
<g id="edge12" class="edge">
<title>7f031e60&#45;cb57&#45;11ee&#45;9270&#45;04cf4b795879&#45;&gt;7f031ff0&#45;cb57&#45;11ee&#45;9270&#45;04cf4b795879</title>
<path fill="none" stroke="black" d="M632.06,-425.06C630.7,-417.97 629.04,-409.33 627.31,-400.34"/>
<polygon fill="black" stroke="black" points="630.6,-399.88 625.27,-390.71 623.72,-401.2 630.6,-399.88"/>
</g>
<!-- 7f0324a0&#45;cb57&#45;11ee&#45;9270&#45;04cf4b795879 -->
<g id="node15" class="node">
<title>7f0324a0&#45;cb57&#45;11ee&#45;9270&#45;04cf4b795879</title>
<polygon fill="none" stroke="black" points="901.37,-342.35 856.87,-389.29 767.87,-389.29 723.37,-342.35 767.87,-295.4 856.87,-295.4 901.37,-342.35"/>
<text text-anchor="middle" x="812.37" y="-353.8" font-family="Times,serif" font-size="14.00">rp_15: level3 </text>
<text text-anchor="middle" x="812.37" y="-337.3" font-family="Times,serif" font-size="14.00"> create_proposal </text>
<text text-anchor="middle" x="812.37" y="-320.8" font-family="Times,serif" font-size="14.00"> cost : 26</text>
</g>
<!-- 7f032126&#45;cb57&#45;11ee&#45;9270&#45;04cf4b795879&#45;&gt;7f0324a0&#45;cb57&#45;11ee&#45;9270&#45;04cf4b795879 -->
<g id="edge14" class="edge">
<title>7f032126&#45;cb57&#45;11ee&#45;9270&#45;04cf4b795879&#45;&gt;7f0324a0&#45;cb57&#45;11ee&#45;9270&#45;04cf4b795879</title>
<path fill="none" stroke="black" d="M796.68,-425.06C798.04,-417.97 799.7,-409.33 801.42,-400.34"/>
<polygon fill="black" stroke="black" points="805.02,-401.2 803.47,-390.71 798.14,-399.88 805.02,-401.2"/>
</g>
<!-- 7f032766&#45;cb57&#45;11ee&#45;9270&#45;04cf4b795879 -->
<g id="node17" class="node">
<title>7f032766&#45;cb57&#45;11ee&#45;9270&#45;04cf4b795879</title>
<polygon fill="none" stroke="black" points="1097.37,-342.35 1052.87,-389.29 963.87,-389.29 919.37,-342.35 963.87,-295.4 1052.87,-295.4 1097.37,-342.35"/>
<text text-anchor="middle" x="1008.37" y="-353.8" font-family="Times,serif" font-size="14.00">rp_15: level3 </text>
<text text-anchor="middle" x="1008.37" y="-337.3" font-family="Times,serif" font-size="14.00"> create_proposal </text>
<text text-anchor="middle" x="1008.37" y="-320.8" font-family="Times,serif" font-size="14.00"> cost : 98</text>
</g>
<!-- 7f0325ea&#45;cb57&#45;11ee&#45;9270&#45;04cf4b795879&#45;&gt;7f032766&#45;cb57&#45;11ee&#45;9270&#45;04cf4b795879 -->
<g id="edge16" class="edge">
<title>7f0325ea&#45;cb57&#45;11ee&#45;9270&#45;04cf4b795879&#45;&gt;7f032766&#45;cb57&#45;11ee&#45;9270&#45;04cf4b795879</title>
<path fill="none" stroke="black" d="M976.99,-425.06C979.77,-417.82 983.17,-408.95 986.7,-399.76"/>
<polygon fill="black" stroke="black" points="990.24,-401.3 990.56,-390.71 983.71,-398.79 990.24,-401.3"/>
</g>
</g>
</svg>
