<?xml version="1.0" encoding="UTF-8" standalone="no"?>
<!DOCTYPE svg PUBLIC "-//W3C//DTD SVG 1.1//EN"
 "http://www.w3.org/Graphics/SVG/1.1/DTD/svg11.dtd">
<!-- Generated by graphviz version 8.1.0 (20230707.0739)
 -->
<!-- Title: CallTree Pages: 1 -->
<svg width="554pt" height="267pt"
 viewBox="0.00 0.00 553.73 267.40" xmlns="http://www.w3.org/2000/svg" xmlns:xlink="http://www.w3.org/1999/xlink">
<g id="graph0" class="graph" transform="scale(1 1) rotate(0) translate(4 263.4)">
<title>CallTree</title>
<polygon fill="white" stroke="none" points="-4,4 -4,-263.4 549.73,-263.4 549.73,4 -4,4"/>
<!-- 490b1cb6&#45;c8de&#45;11ee&#45;ab3a&#45;04cf4b795879 -->
<g id="node1" class="node">
<title>490b1cb6&#45;c8de&#45;11ee&#45;ab3a&#45;04cf4b795879</title>
<polygon fill="none" stroke="black" points="361.86,-259.4 183.86,-259.4 183.86,-201.9 361.86,-201.9 361.86,-259.4"/>
<text text-anchor="middle" x="272.86" y="-242.1" font-family="Times,serif" font-size="14.00">a6: handover_to_engineering </text>
<text text-anchor="middle" x="272.86" y="-225.6" font-family="Times,serif" font-size="14.00"> Type: Core </text>
<text text-anchor="middle" x="272.86" y="-209.1" font-family="Times,serif" font-size="14.00"> Direction: Core</text>
</g>
<!-- 490b3534&#45;c8de&#45;11ee&#45;ab3a&#45;04cf4b795879 -->
<g id="node2" class="node">
<title>490b3534&#45;c8de&#45;11ee&#45;ab3a&#45;04cf4b795879</title>
<ellipse fill="none" stroke="black" cx="212.86" cy="-147.9" rx="50.84" ry="18"/>
<text text-anchor="middle" x="212.86" y="-142.85" font-family="Times,serif" font-size="14.00">r_1: level1</text>
</g>
<!-- 490b1cb6&#45;c8de&#45;11ee&#45;ab3a&#45;04cf4b795879&#45;&gt;490b3534&#45;c8de&#45;11ee&#45;ab3a&#45;04cf4b795879 -->
<g id="edge1" class="edge">
<title>490b1cb6&#45;c8de&#45;11ee&#45;ab3a&#45;04cf4b795879&#45;&gt;490b3534&#45;c8de&#45;11ee&#45;ab3a&#45;04cf4b795879</title>
<path fill="none" stroke="black" d="M251.88,-201.4C245.26,-192.49 237.99,-182.71 231.54,-174.03"/>
<polygon fill="black" stroke="black" points="233.95,-172.41 225.18,-166.47 228.33,-176.58 233.95,-172.41"/>
</g>
<!-- 490b4920&#45;c8de&#45;11ee&#45;ab3a&#45;04cf4b795879 -->
<g id="node4" class="node">
<title>490b4920&#45;c8de&#45;11ee&#45;ab3a&#45;04cf4b795879</title>
<ellipse fill="none" stroke="black" cx="372.86" cy="-147.9" rx="50.84" ry="18"/>
<text text-anchor="middle" x="372.86" y="-142.85" font-family="Times,serif" font-size="14.00">r_6: level1</text>
</g>
<!-- 490b1cb6&#45;c8de&#45;11ee&#45;ab3a&#45;04cf4b795879&#45;&gt;490b4920&#45;c8de&#45;11ee&#45;ab3a&#45;04cf4b795879 -->
<g id="edge3" class="edge">
<title>490b1cb6&#45;c8de&#45;11ee&#45;ab3a&#45;04cf4b795879&#45;&gt;490b4920&#45;c8de&#45;11ee&#45;ab3a&#45;04cf4b795879</title>
<path fill="none" stroke="black" d="M307.84,-201.4C319.96,-191.62 333.37,-180.79 344.86,-171.51"/>
<polygon fill="black" stroke="black" points="346.63,-173.77 352.21,-164.77 342.23,-168.33 346.63,-173.77"/>
</g>
<!-- 490b4056&#45;c8de&#45;11ee&#45;ab3a&#45;04cf4b795879 -->
<g id="node3" class="node">
<title>490b4056&#45;c8de&#45;11ee&#45;ab3a&#45;04cf4b795879</title>
<polygon fill="none" stroke="black" points="263.73,-46.95 197.8,-93.9 65.93,-93.9 0,-46.95 65.93,0 197.8,0 263.73,-46.95"/>
<text text-anchor="middle" x="131.86" y="-58.4" font-family="Times,serif" font-size="14.00">rp_16: level3 </text>
<text text-anchor="middle" x="131.86" y="-41.9" font-family="Times,serif" font-size="14.00"> handover_to_engineering </text>
<text text-anchor="middle" x="131.86" y="-25.4" font-family="Times,serif" font-size="14.00"> cost : 15</text>
</g>
<!-- 490b3534&#45;c8de&#45;11ee&#45;ab3a&#45;04cf4b795879&#45;&gt;490b4056&#45;c8de&#45;11ee&#45;ab3a&#45;04cf4b795879 -->
<g id="edge2" class="edge">
<title>490b3534&#45;c8de&#45;11ee&#45;ab3a&#45;04cf4b795879&#45;&gt;490b4056&#45;c8de&#45;11ee&#45;ab3a&#45;04cf4b795879</title>
<path fill="none" stroke="black" d="M199.12,-130.11C192.78,-122.36 184.84,-112.67 176.67,-102.68"/>
<polygon fill="black" stroke="black" points="178.82,-100.79 169.78,-95.27 173.41,-105.22 178.82,-100.79"/>
</g>
<!-- 490b5384&#45;c8de&#45;11ee&#45;ab3a&#45;04cf4b795879 -->
<g id="node5" class="node">
<title>490b5384&#45;c8de&#45;11ee&#45;ab3a&#45;04cf4b795879</title>
<polygon fill="none" stroke="black" points="545.73,-46.95 479.8,-93.9 347.93,-93.9 282,-46.95 347.93,0 479.8,0 545.73,-46.95"/>
<text text-anchor="middle" x="413.86" y="-58.4" font-family="Times,serif" font-size="14.00">rp_16: level3 </text>
<text text-anchor="middle" x="413.86" y="-41.9" font-family="Times,serif" font-size="14.00"> handover_to_engineering </text>
<text text-anchor="middle" x="413.86" y="-25.4" font-family="Times,serif" font-size="14.00"> cost : 15</text>
</g>
<!-- 490b4920&#45;c8de&#45;11ee&#45;ab3a&#45;04cf4b795879&#45;&gt;490b5384&#45;c8de&#45;11ee&#45;ab3a&#45;04cf4b795879 -->
<g id="edge4" class="edge">
<title>490b4920&#45;c8de&#45;11ee&#45;ab3a&#45;04cf4b795879&#45;&gt;490b5384&#45;c8de&#45;11ee&#45;ab3a&#45;04cf4b795879</title>
<path fill="none" stroke="black" d="M380.01,-129.66C383,-122.42 386.68,-113.56 390.49,-104.36"/>
<polygon fill="black" stroke="black" points="394.06,-105.9 394.65,-95.32 387.59,-103.22 394.06,-105.9"/>
</g>
</g>
</svg>
