<?xml version="1.0" encoding="UTF-8" standalone="no"?>
<!DOCTYPE svg PUBLIC "-//W3C//DTD SVG 1.1//EN"
 "http://www.w3.org/Graphics/SVG/1.1/DTD/svg11.dtd">
<!-- Generated by graphviz version 8.1.0 (20230707.0739)
 -->
<!-- Title: CallTree Pages: 1 -->
<svg width="1782pt" height="563pt"
 viewBox="0.00 0.00 1782.17 562.79" xmlns="http://www.w3.org/2000/svg" xmlns:xlink="http://www.w3.org/1999/xlink">
<g id="graph0" class="graph" transform="scale(1 1) rotate(0) translate(4 558.79)">
<title>CallTree</title>
<polygon fill="white" stroke="none" points="-4,4 -4,-558.79 1778.17,-558.79 1778.17,4 -4,4"/>
<!-- 48d73996&#45;c8de&#45;11ee&#45;ab3a&#45;04cf4b795879 -->
<g id="node1" class="node">
<title>48d73996&#45;c8de&#45;11ee&#45;ab3a&#45;04cf4b795879</title>
<polygon fill="none" stroke="black" points="1116.08,-554.79 1004.08,-554.79 1004.08,-497.29 1116.08,-497.29 1116.08,-554.79"/>
<text text-anchor="middle" x="1060.08" y="-537.49" font-family="Times,serif" font-size="14.00">a3: evaluate_risk </text>
<text text-anchor="middle" x="1060.08" y="-520.99" font-family="Times,serif" font-size="14.00"> Type: Core </text>
<text text-anchor="middle" x="1060.08" y="-504.49" font-family="Times,serif" font-size="14.00"> Direction: Core</text>
</g>
<!-- 48d7663c&#45;c8de&#45;11ee&#45;ab3a&#45;04cf4b795879 -->
<g id="node2" class="node">
<title>48d7663c&#45;c8de&#45;11ee&#45;ab3a&#45;04cf4b795879</title>
<ellipse fill="none" stroke="black" cx="686.08" cy="-443.29" rx="50.84" ry="18"/>
<text text-anchor="middle" x="686.08" y="-438.24" font-family="Times,serif" font-size="14.00">r_1: level1</text>
</g>
<!-- 48d73996&#45;c8de&#45;11ee&#45;ab3a&#45;04cf4b795879&#45;&gt;48d7663c&#45;c8de&#45;11ee&#45;ab3a&#45;04cf4b795879 -->
<g id="edge1" class="edge">
<title>48d73996&#45;c8de&#45;11ee&#45;ab3a&#45;04cf4b795879&#45;&gt;48d7663c&#45;c8de&#45;11ee&#45;ab3a&#45;04cf4b795879</title>
<path fill="none" stroke="black" d="M1003.69,-512.87C931.97,-497.38 809.05,-470.84 739.03,-455.72"/>
<polygon fill="black" stroke="black" points="740.19,-452.18 729.67,-453.49 738.71,-459.02 740.19,-452.18"/>
</g>
<!-- 48d8061e&#45;c8de&#45;11ee&#45;ab3a&#45;04cf4b795879 -->
<g id="node9" class="node">
<title>48d8061e&#45;c8de&#45;11ee&#45;ab3a&#45;04cf4b795879</title>
<ellipse fill="none" stroke="black" cx="833.08" cy="-443.29" rx="50.84" ry="18"/>
<text text-anchor="middle" x="833.08" y="-438.24" font-family="Times,serif" font-size="14.00">r_6: level1</text>
</g>
<!-- 48d73996&#45;c8de&#45;11ee&#45;ab3a&#45;04cf4b795879&#45;&gt;48d8061e&#45;c8de&#45;11ee&#45;ab3a&#45;04cf4b795879 -->
<g id="edge8" class="edge">
<title>48d73996&#45;c8de&#45;11ee&#45;ab3a&#45;04cf4b795879&#45;&gt;48d8061e&#45;c8de&#45;11ee&#45;ab3a&#45;04cf4b795879</title>
<path fill="none" stroke="black" d="M1003.68,-504.98C964.96,-491.21 914.25,-473.17 878.21,-460.35"/>
<polygon fill="black" stroke="black" points="879.58,-456.76 868.99,-456.71 877.23,-463.36 879.58,-456.76"/>
</g>
<!-- 48d856b4&#45;c8de&#45;11ee&#45;ab3a&#45;04cf4b795879 -->
<g id="node16" class="node">
<title>48d856b4&#45;c8de&#45;11ee&#45;ab3a&#45;04cf4b795879</title>
<ellipse fill="none" stroke="black" cx="1000.08" cy="-443.29" rx="50.84" ry="18"/>
<text text-anchor="middle" x="1000.08" y="-438.24" font-family="Times,serif" font-size="14.00">r_2: level2</text>
</g>
<!-- 48d73996&#45;c8de&#45;11ee&#45;ab3a&#45;04cf4b795879&#45;&gt;48d856b4&#45;c8de&#45;11ee&#45;ab3a&#45;04cf4b795879 -->
<g id="edge15" class="edge">
<title>48d73996&#45;c8de&#45;11ee&#45;ab3a&#45;04cf4b795879&#45;&gt;48d856b4&#45;c8de&#45;11ee&#45;ab3a&#45;04cf4b795879</title>
<path fill="none" stroke="black" d="M1039.1,-496.8C1032.48,-487.89 1025.21,-478.11 1018.76,-469.43"/>
<polygon fill="black" stroke="black" points="1021.17,-467.81 1012.4,-461.87 1015.55,-471.98 1021.17,-467.81"/>
</g>
<!-- 48d89b06&#45;c8de&#45;11ee&#45;ab3a&#45;04cf4b795879 -->
<g id="node23" class="node">
<title>48d89b06&#45;c8de&#45;11ee&#45;ab3a&#45;04cf4b795879</title>
<ellipse fill="none" stroke="black" cx="1147.08" cy="-443.29" rx="50.84" ry="18"/>
<text text-anchor="middle" x="1147.08" y="-438.24" font-family="Times,serif" font-size="14.00">r_4: level2</text>
</g>
<!-- 48d73996&#45;c8de&#45;11ee&#45;ab3a&#45;04cf4b795879&#45;&gt;48d89b06&#45;c8de&#45;11ee&#45;ab3a&#45;04cf4b795879 -->
<g id="edge22" class="edge">
<title>48d73996&#45;c8de&#45;11ee&#45;ab3a&#45;04cf4b795879&#45;&gt;48d89b06&#45;c8de&#45;11ee&#45;ab3a&#45;04cf4b795879</title>
<path fill="none" stroke="black" d="M1090.51,-496.8C1100.69,-487.35 1111.93,-476.92 1121.69,-467.86"/>
<polygon fill="black" stroke="black" points="1123.53,-471 1128.48,-461.63 1118.77,-465.87 1123.53,-471"/>
</g>
<!-- 48d8de5e&#45;c8de&#45;11ee&#45;ab3a&#45;04cf4b795879 -->
<g id="node30" class="node">
<title>48d8de5e&#45;c8de&#45;11ee&#45;ab3a&#45;04cf4b795879</title>
<ellipse fill="none" stroke="black" cx="1307.08" cy="-443.29" rx="50.84" ry="18"/>
<text text-anchor="middle" x="1307.08" y="-438.24" font-family="Times,serif" font-size="14.00">r_3: level3</text>
</g>
<!-- 48d73996&#45;c8de&#45;11ee&#45;ab3a&#45;04cf4b795879&#45;&gt;48d8de5e&#45;c8de&#45;11ee&#45;ab3a&#45;04cf4b795879 -->
<g id="edge29" class="edge">
<title>48d73996&#45;c8de&#45;11ee&#45;ab3a&#45;04cf4b795879&#45;&gt;48d8de5e&#45;c8de&#45;11ee&#45;ab3a&#45;04cf4b795879</title>
<path fill="none" stroke="black" d="M1116.44,-506.62C1159.93,-492.4 1219.37,-472.97 1260.26,-459.6"/>
<polygon fill="black" stroke="black" points="1261.07,-462.69 1269.49,-456.26 1258.9,-456.04 1261.07,-462.69"/>
</g>
<!-- 48d8f024&#45;c8de&#45;11ee&#45;ab3a&#45;04cf4b795879 -->
<g id="node32" class="node">
<title>48d8f024&#45;c8de&#45;11ee&#45;ab3a&#45;04cf4b795879</title>
<ellipse fill="none" stroke="black" cx="1474.08" cy="-443.29" rx="50.84" ry="18"/>
<text text-anchor="middle" x="1474.08" y="-438.24" font-family="Times,serif" font-size="14.00">r_5: level3</text>
</g>
<!-- 48d73996&#45;c8de&#45;11ee&#45;ab3a&#45;04cf4b795879&#45;&gt;48d8f024&#45;c8de&#45;11ee&#45;ab3a&#45;04cf4b795879 -->
<g id="edge31" class="edge">
<title>48d73996&#45;c8de&#45;11ee&#45;ab3a&#45;04cf4b795879&#45;&gt;48d8f024&#45;c8de&#45;11ee&#45;ab3a&#45;04cf4b795879</title>
<path fill="none" stroke="black" d="M1116.35,-514.07C1196.06,-498.52 1340.9,-470.27 1419.62,-454.92"/>
<polygon fill="black" stroke="black" points="1420.13,-458.19 1429.27,-452.84 1418.79,-451.32 1420.13,-458.19"/>
</g>
<!-- 48d770dc&#45;c8de&#45;11ee&#45;ab3a&#45;04cf4b795879 -->
<g id="node3" class="node">
<title>48d770dc&#45;c8de&#45;11ee&#45;ab3a&#45;04cf4b795879</title>
<polygon fill="none" stroke="black" points="567.06,-342.35 528.07,-389.29 450.09,-389.29 411.11,-342.35 450.09,-295.4 528.07,-295.4 567.06,-342.35"/>
<text text-anchor="middle" x="489.08" y="-353.8" font-family="Times,serif" font-size="14.00">rp_3: level1 </text>
<text text-anchor="middle" x="489.08" y="-337.3" font-family="Times,serif" font-size="14.00"> evaluate_risk </text>
<text text-anchor="middle" x="489.08" y="-320.8" font-family="Times,serif" font-size="14.00"> cost : 10</text>
</g>
<!-- 48d7663c&#45;c8de&#45;11ee&#45;ab3a&#45;04cf4b795879&#45;&gt;48d770dc&#45;c8de&#45;11ee&#45;ab3a&#45;04cf4b795879 -->
<g id="edge2" class="edge">
<title>48d7663c&#45;c8de&#45;11ee&#45;ab3a&#45;04cf4b795879&#45;&gt;48d770dc&#45;c8de&#45;11ee&#45;ab3a&#45;04cf4b795879</title>
<path fill="none" stroke="black" d="M657.86,-428.12C630.73,-414.49 588.75,-393.41 553.45,-375.67"/>
<polygon fill="black" stroke="black" points="555.19,-372.13 544.69,-370.77 552.05,-378.39 555.19,-372.13"/>
</g>
<!-- 48d779ce&#45;c8de&#45;11ee&#45;ab3a&#45;04cf4b795879 -->
<g id="node4" class="node">
<title>48d779ce&#45;c8de&#45;11ee&#45;ab3a&#45;04cf4b795879</title>
<polygon fill="none" stroke="black" points="397.71,-259.4 256.46,-259.4 256.46,-201.9 397.71,-201.9 397.71,-259.4"/>
<text text-anchor="middle" x="327.08" y="-242.1" font-family="Times,serif" font-size="14.00">r2: head_confirmation </text>
<text text-anchor="middle" x="327.08" y="-225.6" font-family="Times,serif" font-size="14.00"> Type: insert </text>
<text text-anchor="middle" x="327.08" y="-209.1" font-family="Times,serif" font-size="14.00"> Direction: before</text>
</g>
<!-- 48d770dc&#45;c8de&#45;11ee&#45;ab3a&#45;04cf4b795879&#45;&gt;48d779ce&#45;c8de&#45;11ee&#45;ab3a&#45;04cf4b795879 -->
<g id="edge3" class="edge">
<title>48d770dc&#45;c8de&#45;11ee&#45;ab3a&#45;04cf4b795879&#45;&gt;48d779ce&#45;c8de&#45;11ee&#45;ab3a&#45;04cf4b795879</title>
<path fill="none" stroke="black" d="M439.6,-307.84C419.91,-294.5 397.28,-279.18 377.5,-265.79"/>
<polygon fill="black" stroke="black" points="379.87,-262.49 369.63,-259.78 375.95,-268.29 379.87,-262.49"/>
</g>
<!-- 48d78770&#45;c8de&#45;11ee&#45;ab3a&#45;04cf4b795879 -->
<g id="node5" class="node">
<title>48d78770&#45;c8de&#45;11ee&#45;ab3a&#45;04cf4b795879</title>
<ellipse fill="none" stroke="black" cx="155.08" cy="-147.9" rx="50.84" ry="18"/>
<text text-anchor="middle" x="155.08" y="-142.85" font-family="Times,serif" font-size="14.00">r_3: level3</text>
</g>
<!-- 48d779ce&#45;c8de&#45;11ee&#45;ab3a&#45;04cf4b795879&#45;&gt;48d78770&#45;c8de&#45;11ee&#45;ab3a&#45;04cf4b795879 -->
<g id="edge4" class="edge">
<title>48d779ce&#45;c8de&#45;11ee&#45;ab3a&#45;04cf4b795879&#45;&gt;48d78770&#45;c8de&#45;11ee&#45;ab3a&#45;04cf4b795879</title>
<path fill="none" stroke="black" d="M266.93,-201.4C242.84,-190.1 215.77,-177.39 194.3,-167.31"/>
<polygon fill="black" stroke="black" points="196.09,-163.81 185.55,-162.73 193.12,-170.15 196.09,-163.81"/>
</g>
<!-- 48d79b2a&#45;c8de&#45;11ee&#45;ab3a&#45;04cf4b795879 -->
<g id="node7" class="node">
<title>48d79b2a&#45;c8de&#45;11ee&#45;ab3a&#45;04cf4b795879</title>
<ellipse fill="none" stroke="black" cx="327.08" cy="-147.9" rx="50.84" ry="18"/>
<text text-anchor="middle" x="327.08" y="-142.85" font-family="Times,serif" font-size="14.00">r_5: level3</text>
</g>
<!-- 48d779ce&#45;c8de&#45;11ee&#45;ab3a&#45;04cf4b795879&#45;&gt;48d79b2a&#45;c8de&#45;11ee&#45;ab3a&#45;04cf4b795879 -->
<g id="edge6" class="edge">
<title>48d779ce&#45;c8de&#45;11ee&#45;ab3a&#45;04cf4b795879&#45;&gt;48d79b2a&#45;c8de&#45;11ee&#45;ab3a&#45;04cf4b795879</title>
<path fill="none" stroke="black" d="M327.08,-201.4C327.08,-193.46 327.08,-184.82 327.08,-176.89"/>
<polygon fill="black" stroke="black" points="330.58,-176.94 327.08,-166.94 323.58,-176.94 330.58,-176.94"/>
</g>
<!-- 48d79288&#45;c8de&#45;11ee&#45;ab3a&#45;04cf4b795879 -->
<g id="node6" class="node">
<title>48d79288&#45;c8de&#45;11ee&#45;ab3a&#45;04cf4b795879</title>
<polygon fill="none" stroke="black" points="206.17,-46.95 154.62,-93.9 51.54,-93.9 0,-46.95 51.54,0 154.62,0 206.17,-46.95"/>
<text text-anchor="middle" x="103.08" y="-58.4" font-family="Times,serif" font-size="14.00">rp_23: level3 </text>
<text text-anchor="middle" x="103.08" y="-41.9" font-family="Times,serif" font-size="14.00"> head_confirmation </text>
<text text-anchor="middle" x="103.08" y="-25.4" font-family="Times,serif" font-size="14.00"> cost : 5</text>
</g>
<!-- 48d78770&#45;c8de&#45;11ee&#45;ab3a&#45;04cf4b795879&#45;&gt;48d79288&#45;c8de&#45;11ee&#45;ab3a&#45;04cf4b795879 -->
<g id="edge5" class="edge">
<title>48d78770&#45;c8de&#45;11ee&#45;ab3a&#45;04cf4b795879&#45;&gt;48d79288&#45;c8de&#45;11ee&#45;ab3a&#45;04cf4b795879</title>
<path fill="none" stroke="black" d="M146.26,-130.11C142.35,-122.67 137.5,-113.44 132.48,-103.88"/>
<polygon fill="black" stroke="black" points="135.17,-102.49 127.42,-95.27 128.98,-105.75 135.17,-102.49"/>
</g>
<!-- 48d7e8f0&#45;c8de&#45;11ee&#45;ab3a&#45;04cf4b795879 -->
<g id="node8" class="node">
<title>48d7e8f0&#45;c8de&#45;11ee&#45;ab3a&#45;04cf4b795879</title>
<polygon fill="none" stroke="black" points="430.17,-46.95 378.62,-93.9 275.54,-93.9 224,-46.95 275.54,0 378.62,0 430.17,-46.95"/>
<text text-anchor="middle" x="327.08" y="-58.4" font-family="Times,serif" font-size="14.00">rp_23: level3 </text>
<text text-anchor="middle" x="327.08" y="-41.9" font-family="Times,serif" font-size="14.00"> head_confirmation </text>
<text text-anchor="middle" x="327.08" y="-25.4" font-family="Times,serif" font-size="14.00"> cost : 5</text>
</g>
<!-- 48d79b2a&#45;c8de&#45;11ee&#45;ab3a&#45;04cf4b795879&#45;&gt;48d7e8f0&#45;c8de&#45;11ee&#45;ab3a&#45;04cf4b795879 -->
<g id="edge7" class="edge">
<title>48d79b2a&#45;c8de&#45;11ee&#45;ab3a&#45;04cf4b795879&#45;&gt;48d7e8f0&#45;c8de&#45;11ee&#45;ab3a&#45;04cf4b795879</title>
<path fill="none" stroke="black" d="M327.08,-129.66C327.08,-122.65 327.08,-114.12 327.08,-105.24"/>
<polygon fill="black" stroke="black" points="330.58,-105.32 327.08,-95.32 323.58,-105.32 330.58,-105.32"/>
</g>
<!-- 48d81208&#45;c8de&#45;11ee&#45;ab3a&#45;04cf4b795879 -->
<g id="node10" class="node">
<title>48d81208&#45;c8de&#45;11ee&#45;ab3a&#45;04cf4b795879</title>
<polygon fill="none" stroke="black" points="878.06,-342.35 839.07,-389.29 761.09,-389.29 722.11,-342.35 761.09,-295.4 839.07,-295.4 878.06,-342.35"/>
<text text-anchor="middle" x="800.08" y="-353.8" font-family="Times,serif" font-size="14.00">rp_3: level1 </text>
<text text-anchor="middle" x="800.08" y="-337.3" font-family="Times,serif" font-size="14.00"> evaluate_risk </text>
<text text-anchor="middle" x="800.08" y="-320.8" font-family="Times,serif" font-size="14.00"> cost : 10</text>
</g>
<!-- 48d8061e&#45;c8de&#45;11ee&#45;ab3a&#45;04cf4b795879&#45;&gt;48d81208&#45;c8de&#45;11ee&#45;ab3a&#45;04cf4b795879 -->
<g id="edge9" class="edge">
<title>48d8061e&#45;c8de&#45;11ee&#45;ab3a&#45;04cf4b795879&#45;&gt;48d81208&#45;c8de&#45;11ee&#45;ab3a&#45;04cf4b795879</title>
<path fill="none" stroke="black" d="M827.33,-425.06C824.95,-417.9 822.03,-409.14 818.99,-400.05"/>
<polygon fill="black" stroke="black" points="822.03,-399.09 815.55,-390.71 815.39,-401.31 822.03,-399.09"/>
</g>
<!-- 48d81b2c&#45;c8de&#45;11ee&#45;ab3a&#45;04cf4b795879 -->
<g id="node11" class="node">
<title>48d81b2c&#45;c8de&#45;11ee&#45;ab3a&#45;04cf4b795879</title>
<polygon fill="none" stroke="black" points="845.71,-259.4 704.46,-259.4 704.46,-201.9 845.71,-201.9 845.71,-259.4"/>
<text text-anchor="middle" x="775.08" y="-242.1" font-family="Times,serif" font-size="14.00">r2: head_confirmation </text>
<text text-anchor="middle" x="775.08" y="-225.6" font-family="Times,serif" font-size="14.00"> Type: insert </text>
<text text-anchor="middle" x="775.08" y="-209.1" font-family="Times,serif" font-size="14.00"> Direction: before</text>
</g>
<!-- 48d81208&#45;c8de&#45;11ee&#45;ab3a&#45;04cf4b795879&#45;&gt;48d81b2c&#45;c8de&#45;11ee&#45;ab3a&#45;04cf4b795879 -->
<g id="edge10" class="edge">
<title>48d81208&#45;c8de&#45;11ee&#45;ab3a&#45;04cf4b795879&#45;&gt;48d81b2c&#45;c8de&#45;11ee&#45;ab3a&#45;04cf4b795879</title>
<path fill="none" stroke="black" d="M789.55,-295.14C787.66,-286.85 785.71,-278.29 783.88,-270.24"/>
<polygon fill="black" stroke="black" points="787.1,-269.62 781.46,-260.65 780.27,-271.18 787.1,-269.62"/>
</g>
<!-- 48d82856&#45;c8de&#45;11ee&#45;ab3a&#45;04cf4b795879 -->
<g id="node12" class="node">
<title>48d82856&#45;c8de&#45;11ee&#45;ab3a&#45;04cf4b795879</title>
<ellipse fill="none" stroke="black" cx="603.08" cy="-147.9" rx="50.84" ry="18"/>
<text text-anchor="middle" x="603.08" y="-142.85" font-family="Times,serif" font-size="14.00">r_3: level3</text>
</g>
<!-- 48d81b2c&#45;c8de&#45;11ee&#45;ab3a&#45;04cf4b795879&#45;&gt;48d82856&#45;c8de&#45;11ee&#45;ab3a&#45;04cf4b795879 -->
<g id="edge11" class="edge">
<title>48d81b2c&#45;c8de&#45;11ee&#45;ab3a&#45;04cf4b795879&#45;&gt;48d82856&#45;c8de&#45;11ee&#45;ab3a&#45;04cf4b795879</title>
<path fill="none" stroke="black" d="M714.93,-201.4C690.84,-190.1 663.77,-177.39 642.3,-167.31"/>
<polygon fill="black" stroke="black" points="644.09,-163.81 633.55,-162.73 641.12,-170.15 644.09,-163.81"/>
</g>
<!-- 48d83cec&#45;c8de&#45;11ee&#45;ab3a&#45;04cf4b795879 -->
<g id="node14" class="node">
<title>48d83cec&#45;c8de&#45;11ee&#45;ab3a&#45;04cf4b795879</title>
<ellipse fill="none" stroke="black" cx="775.08" cy="-147.9" rx="50.84" ry="18"/>
<text text-anchor="middle" x="775.08" y="-142.85" font-family="Times,serif" font-size="14.00">r_5: level3</text>
</g>
<!-- 48d81b2c&#45;c8de&#45;11ee&#45;ab3a&#45;04cf4b795879&#45;&gt;48d83cec&#45;c8de&#45;11ee&#45;ab3a&#45;04cf4b795879 -->
<g id="edge13" class="edge">
<title>48d81b2c&#45;c8de&#45;11ee&#45;ab3a&#45;04cf4b795879&#45;&gt;48d83cec&#45;c8de&#45;11ee&#45;ab3a&#45;04cf4b795879</title>
<path fill="none" stroke="black" d="M775.08,-201.4C775.08,-193.46 775.08,-184.82 775.08,-176.89"/>
<polygon fill="black" stroke="black" points="778.58,-176.94 775.08,-166.94 771.58,-176.94 778.58,-176.94"/>
</g>
<!-- 48d8344a&#45;c8de&#45;11ee&#45;ab3a&#45;04cf4b795879 -->
<g id="node13" class="node">
<title>48d8344a&#45;c8de&#45;11ee&#45;ab3a&#45;04cf4b795879</title>
<polygon fill="none" stroke="black" points="654.17,-46.95 602.62,-93.9 499.54,-93.9 448,-46.95 499.54,0 602.62,0 654.17,-46.95"/>
<text text-anchor="middle" x="551.08" y="-58.4" font-family="Times,serif" font-size="14.00">rp_23: level3 </text>
<text text-anchor="middle" x="551.08" y="-41.9" font-family="Times,serif" font-size="14.00"> head_confirmation </text>
<text text-anchor="middle" x="551.08" y="-25.4" font-family="Times,serif" font-size="14.00"> cost : 5</text>
</g>
<!-- 48d82856&#45;c8de&#45;11ee&#45;ab3a&#45;04cf4b795879&#45;&gt;48d8344a&#45;c8de&#45;11ee&#45;ab3a&#45;04cf4b795879 -->
<g id="edge12" class="edge">
<title>48d82856&#45;c8de&#45;11ee&#45;ab3a&#45;04cf4b795879&#45;&gt;48d8344a&#45;c8de&#45;11ee&#45;ab3a&#45;04cf4b795879</title>
<path fill="none" stroke="black" d="M594.26,-130.11C590.35,-122.67 585.5,-113.44 580.48,-103.88"/>
<polygon fill="black" stroke="black" points="583.17,-102.49 575.42,-95.27 576.98,-105.75 583.17,-102.49"/>
</g>
<!-- 48d84b9c&#45;c8de&#45;11ee&#45;ab3a&#45;04cf4b795879 -->
<g id="node15" class="node">
<title>48d84b9c&#45;c8de&#45;11ee&#45;ab3a&#45;04cf4b795879</title>
<polygon fill="none" stroke="black" points="878.17,-46.95 826.62,-93.9 723.54,-93.9 672,-46.95 723.54,0 826.62,0 878.17,-46.95"/>
<text text-anchor="middle" x="775.08" y="-58.4" font-family="Times,serif" font-size="14.00">rp_23: level3 </text>
<text text-anchor="middle" x="775.08" y="-41.9" font-family="Times,serif" font-size="14.00"> head_confirmation </text>
<text text-anchor="middle" x="775.08" y="-25.4" font-family="Times,serif" font-size="14.00"> cost : 5</text>
</g>
<!-- 48d83cec&#45;c8de&#45;11ee&#45;ab3a&#45;04cf4b795879&#45;&gt;48d84b9c&#45;c8de&#45;11ee&#45;ab3a&#45;04cf4b795879 -->
<g id="edge14" class="edge">
<title>48d83cec&#45;c8de&#45;11ee&#45;ab3a&#45;04cf4b795879&#45;&gt;48d84b9c&#45;c8de&#45;11ee&#45;ab3a&#45;04cf4b795879</title>
<path fill="none" stroke="black" d="M775.08,-129.66C775.08,-122.65 775.08,-114.12 775.08,-105.24"/>
<polygon fill="black" stroke="black" points="778.58,-105.32 775.08,-95.32 771.58,-105.32 778.58,-105.32"/>
</g>
<!-- 48d861a4&#45;c8de&#45;11ee&#45;ab3a&#45;04cf4b795879 -->
<g id="node17" class="node">
<title>48d861a4&#45;c8de&#45;11ee&#45;ab3a&#45;04cf4b795879</title>
<polygon fill="none" stroke="black" points="1065.06,-342.35 1026.07,-389.29 948.09,-389.29 909.11,-342.35 948.09,-295.4 1026.07,-295.4 1065.06,-342.35"/>
<text text-anchor="middle" x="987.08" y="-353.8" font-family="Times,serif" font-size="14.00">rp_8: level2 </text>
<text text-anchor="middle" x="987.08" y="-337.3" font-family="Times,serif" font-size="14.00"> evaluate_risk </text>
<text text-anchor="middle" x="987.08" y="-320.8" font-family="Times,serif" font-size="14.00"> cost : 25</text>
</g>
<!-- 48d856b4&#45;c8de&#45;11ee&#45;ab3a&#45;04cf4b795879&#45;&gt;48d861a4&#45;c8de&#45;11ee&#45;ab3a&#45;04cf4b795879 -->
<g id="edge16" class="edge">
<title>48d856b4&#45;c8de&#45;11ee&#45;ab3a&#45;04cf4b795879&#45;&gt;48d861a4&#45;c8de&#45;11ee&#45;ab3a&#45;04cf4b795879</title>
<path fill="none" stroke="black" d="M997.82,-425.06C996.89,-417.97 995.75,-409.33 994.57,-400.34"/>
<polygon fill="black" stroke="black" points="997.95,-400.17 993.17,-390.71 991.01,-401.09 997.95,-400.17"/>
</g>
<!-- 48d86a32&#45;c8de&#45;11ee&#45;ab3a&#45;04cf4b795879 -->
<g id="node18" class="node">
<title>48d86a32&#45;c8de&#45;11ee&#45;ab3a&#45;04cf4b795879</title>
<polygon fill="none" stroke="black" points="1069.71,-259.4 928.46,-259.4 928.46,-201.9 1069.71,-201.9 1069.71,-259.4"/>
<text text-anchor="middle" x="999.08" y="-242.1" font-family="Times,serif" font-size="14.00">r3: head_confirmation </text>
<text text-anchor="middle" x="999.08" y="-225.6" font-family="Times,serif" font-size="14.00"> Type: insert </text>
<text text-anchor="middle" x="999.08" y="-209.1" font-family="Times,serif" font-size="14.00"> Direction: before</text>
</g>
<!-- 48d861a4&#45;c8de&#45;11ee&#45;ab3a&#45;04cf4b795879&#45;&gt;48d86a32&#45;c8de&#45;11ee&#45;ab3a&#45;04cf4b795879 -->
<g id="edge17" class="edge">
<title>48d861a4&#45;c8de&#45;11ee&#45;ab3a&#45;04cf4b795879&#45;&gt;48d86a32&#45;c8de&#45;11ee&#45;ab3a&#45;04cf4b795879</title>
<path fill="none" stroke="black" d="M992.14,-295.14C993.03,-286.94 993.96,-278.48 994.83,-270.51"/>
<polygon fill="black" stroke="black" points="998.41,-270.97 996.02,-260.65 991.45,-270.21 998.41,-270.97"/>
</g>
<!-- 48d8775c&#45;c8de&#45;11ee&#45;ab3a&#45;04cf4b795879 -->
<g id="node19" class="node">
<title>48d8775c&#45;c8de&#45;11ee&#45;ab3a&#45;04cf4b795879</title>
<ellipse fill="none" stroke="black" cx="999.08" cy="-147.9" rx="50.84" ry="18"/>
<text text-anchor="middle" x="999.08" y="-142.85" font-family="Times,serif" font-size="14.00">r_3: level3</text>
</g>
<!-- 48d86a32&#45;c8de&#45;11ee&#45;ab3a&#45;04cf4b795879&#45;&gt;48d8775c&#45;c8de&#45;11ee&#45;ab3a&#45;04cf4b795879 -->
<g id="edge18" class="edge">
<title>48d86a32&#45;c8de&#45;11ee&#45;ab3a&#45;04cf4b795879&#45;&gt;48d8775c&#45;c8de&#45;11ee&#45;ab3a&#45;04cf4b795879</title>
<path fill="none" stroke="black" d="M999.08,-201.4C999.08,-193.46 999.08,-184.82 999.08,-176.89"/>
<polygon fill="black" stroke="black" points="1002.58,-176.94 999.08,-166.94 995.58,-176.94 1002.58,-176.94"/>
</g>
<!-- 48d8894a&#45;c8de&#45;11ee&#45;ab3a&#45;04cf4b795879 -->
<g id="node21" class="node">
<title>48d8894a&#45;c8de&#45;11ee&#45;ab3a&#45;04cf4b795879</title>
<ellipse fill="none" stroke="black" cx="1171.08" cy="-147.9" rx="50.84" ry="18"/>
<text text-anchor="middle" x="1171.08" y="-142.85" font-family="Times,serif" font-size="14.00">r_5: level3</text>
</g>
<!-- 48d86a32&#45;c8de&#45;11ee&#45;ab3a&#45;04cf4b795879&#45;&gt;48d8894a&#45;c8de&#45;11ee&#45;ab3a&#45;04cf4b795879 -->
<g id="edge20" class="edge">
<title>48d86a32&#45;c8de&#45;11ee&#45;ab3a&#45;04cf4b795879&#45;&gt;48d8894a&#45;c8de&#45;11ee&#45;ab3a&#45;04cf4b795879</title>
<path fill="none" stroke="black" d="M1059.24,-201.4C1083.33,-190.1 1110.39,-177.39 1131.87,-167.31"/>
<polygon fill="black" stroke="black" points="1133.05,-170.15 1140.61,-162.73 1130.07,-163.81 1133.05,-170.15"/>
</g>
<!-- 48d88184&#45;c8de&#45;11ee&#45;ab3a&#45;04cf4b795879 -->
<g id="node20" class="node">
<title>48d88184&#45;c8de&#45;11ee&#45;ab3a&#45;04cf4b795879</title>
<polygon fill="none" stroke="black" points="1102.17,-46.95 1050.62,-93.9 947.54,-93.9 896,-46.95 947.54,0 1050.62,0 1102.17,-46.95"/>
<text text-anchor="middle" x="999.08" y="-58.4" font-family="Times,serif" font-size="14.00">rp_23: level3 </text>
<text text-anchor="middle" x="999.08" y="-41.9" font-family="Times,serif" font-size="14.00"> head_confirmation </text>
<text text-anchor="middle" x="999.08" y="-25.4" font-family="Times,serif" font-size="14.00"> cost : 5</text>
</g>
<!-- 48d8775c&#45;c8de&#45;11ee&#45;ab3a&#45;04cf4b795879&#45;&gt;48d88184&#45;c8de&#45;11ee&#45;ab3a&#45;04cf4b795879 -->
<g id="edge19" class="edge">
<title>48d8775c&#45;c8de&#45;11ee&#45;ab3a&#45;04cf4b795879&#45;&gt;48d88184&#45;c8de&#45;11ee&#45;ab3a&#45;04cf4b795879</title>
<path fill="none" stroke="black" d="M999.08,-129.66C999.08,-122.65 999.08,-114.12 999.08,-105.24"/>
<polygon fill="black" stroke="black" points="1002.58,-105.32 999.08,-95.32 995.58,-105.32 1002.58,-105.32"/>
</g>
<!-- 48d89304&#45;c8de&#45;11ee&#45;ab3a&#45;04cf4b795879 -->
<g id="node22" class="node">
<title>48d89304&#45;c8de&#45;11ee&#45;ab3a&#45;04cf4b795879</title>
<polygon fill="none" stroke="black" points="1326.17,-46.95 1274.62,-93.9 1171.54,-93.9 1120,-46.95 1171.54,0 1274.62,0 1326.17,-46.95"/>
<text text-anchor="middle" x="1223.08" y="-58.4" font-family="Times,serif" font-size="14.00">rp_23: level3 </text>
<text text-anchor="middle" x="1223.08" y="-41.9" font-family="Times,serif" font-size="14.00"> head_confirmation </text>
<text text-anchor="middle" x="1223.08" y="-25.4" font-family="Times,serif" font-size="14.00"> cost : 5</text>
</g>
<!-- 48d8894a&#45;c8de&#45;11ee&#45;ab3a&#45;04cf4b795879&#45;&gt;48d89304&#45;c8de&#45;11ee&#45;ab3a&#45;04cf4b795879 -->
<g id="edge21" class="edge">
<title>48d8894a&#45;c8de&#45;11ee&#45;ab3a&#45;04cf4b795879&#45;&gt;48d89304&#45;c8de&#45;11ee&#45;ab3a&#45;04cf4b795879</title>
<path fill="none" stroke="black" d="M1179.9,-130.11C1183.82,-122.67 1188.67,-113.44 1193.69,-103.88"/>
<polygon fill="black" stroke="black" points="1197.19,-105.75 1198.74,-95.27 1190.99,-102.49 1197.19,-105.75"/>
</g>
<!-- 48d8a4e8&#45;c8de&#45;11ee&#45;ab3a&#45;04cf4b795879 -->
<g id="node24" class="node">
<title>48d8a4e8&#45;c8de&#45;11ee&#45;ab3a&#45;04cf4b795879</title>
<polygon fill="none" stroke="black" points="1239.06,-342.35 1200.07,-389.29 1122.09,-389.29 1083.11,-342.35 1122.09,-295.4 1200.07,-295.4 1239.06,-342.35"/>
<text text-anchor="middle" x="1161.08" y="-353.8" font-family="Times,serif" font-size="14.00">rp_8: level2 </text>
<text text-anchor="middle" x="1161.08" y="-337.3" font-family="Times,serif" font-size="14.00"> evaluate_risk </text>
<text text-anchor="middle" x="1161.08" y="-320.8" font-family="Times,serif" font-size="14.00"> cost : 25</text>
</g>
<!-- 48d89b06&#45;c8de&#45;11ee&#45;ab3a&#45;04cf4b795879&#45;&gt;48d8a4e8&#45;c8de&#45;11ee&#45;ab3a&#45;04cf4b795879 -->
<g id="edge23" class="edge">
<title>48d89b06&#45;c8de&#45;11ee&#45;ab3a&#45;04cf4b795879&#45;&gt;48d8a4e8&#45;c8de&#45;11ee&#45;ab3a&#45;04cf4b795879</title>
<path fill="none" stroke="black" d="M1149.52,-425.06C1150.52,-417.97 1151.75,-409.33 1153.02,-400.34"/>
<polygon fill="black" stroke="black" points="1156.59,-401.11 1154.52,-390.71 1149.66,-400.13 1156.59,-401.11"/>
</g>
<!-- 48d8acf4&#45;c8de&#45;11ee&#45;ab3a&#45;04cf4b795879 -->
<g id="node25" class="node">
<title>48d8acf4&#45;c8de&#45;11ee&#45;ab3a&#45;04cf4b795879</title>
<polygon fill="none" stroke="black" points="1517.71,-259.4 1376.46,-259.4 1376.46,-201.9 1517.71,-201.9 1517.71,-259.4"/>
<text text-anchor="middle" x="1447.08" y="-242.1" font-family="Times,serif" font-size="14.00">r6: head_confirmation </text>
<text text-anchor="middle" x="1447.08" y="-225.6" font-family="Times,serif" font-size="14.00"> Type: insert </text>
<text text-anchor="middle" x="1447.08" y="-209.1" font-family="Times,serif" font-size="14.00"> Direction: after</text>
</g>
<!-- 48d8a4e8&#45;c8de&#45;11ee&#45;ab3a&#45;04cf4b795879&#45;&gt;48d8acf4&#45;c8de&#45;11ee&#45;ab3a&#45;04cf4b795879 -->
<g id="edge24" class="edge">
<title>48d8a4e8&#45;c8de&#45;11ee&#45;ab3a&#45;04cf4b795879&#45;&gt;48d8acf4&#45;c8de&#45;11ee&#45;ab3a&#45;04cf4b795879</title>
<path fill="none" stroke="black" d="M1213.74,-311.64C1224.9,-305.88 1236.75,-300.16 1248.08,-295.4 1285.99,-279.46 1329.34,-265.14 1365.88,-254.13"/>
<polygon fill="black" stroke="black" points="1366.41,-257.32 1375,-251.11 1364.41,-250.61 1366.41,-257.32"/>
</g>
<!-- 48d8baaa&#45;c8de&#45;11ee&#45;ab3a&#45;04cf4b795879 -->
<g id="node26" class="node">
<title>48d8baaa&#45;c8de&#45;11ee&#45;ab3a&#45;04cf4b795879</title>
<ellipse fill="none" stroke="black" cx="1447.08" cy="-147.9" rx="50.84" ry="18"/>
<text text-anchor="middle" x="1447.08" y="-142.85" font-family="Times,serif" font-size="14.00">r_3: level3</text>
</g>
<!-- 48d8acf4&#45;c8de&#45;11ee&#45;ab3a&#45;04cf4b795879&#45;&gt;48d8baaa&#45;c8de&#45;11ee&#45;ab3a&#45;04cf4b795879 -->
<g id="edge25" class="edge">
<title>48d8acf4&#45;c8de&#45;11ee&#45;ab3a&#45;04cf4b795879&#45;&gt;48d8baaa&#45;c8de&#45;11ee&#45;ab3a&#45;04cf4b795879</title>
<path fill="none" stroke="black" d="M1447.08,-201.4C1447.08,-193.46 1447.08,-184.82 1447.08,-176.89"/>
<polygon fill="black" stroke="black" points="1450.58,-176.94 1447.08,-166.94 1443.58,-176.94 1450.58,-176.94"/>
</g>
<!-- 48d8cca2&#45;c8de&#45;11ee&#45;ab3a&#45;04cf4b795879 -->
<g id="node28" class="node">
<title>48d8cca2&#45;c8de&#45;11ee&#45;ab3a&#45;04cf4b795879</title>
<ellipse fill="none" stroke="black" cx="1619.08" cy="-147.9" rx="50.84" ry="18"/>
<text text-anchor="middle" x="1619.08" y="-142.85" font-family="Times,serif" font-size="14.00">r_5: level3</text>
</g>
<!-- 48d8acf4&#45;c8de&#45;11ee&#45;ab3a&#45;04cf4b795879&#45;&gt;48d8cca2&#45;c8de&#45;11ee&#45;ab3a&#45;04cf4b795879 -->
<g id="edge27" class="edge">
<title>48d8acf4&#45;c8de&#45;11ee&#45;ab3a&#45;04cf4b795879&#45;&gt;48d8cca2&#45;c8de&#45;11ee&#45;ab3a&#45;04cf4b795879</title>
<path fill="none" stroke="black" d="M1507.24,-201.4C1531.33,-190.1 1558.39,-177.39 1579.87,-167.31"/>
<polygon fill="black" stroke="black" points="1581.05,-170.15 1588.61,-162.73 1578.07,-163.81 1581.05,-170.15"/>
</g>
<!-- 48d8c518&#45;c8de&#45;11ee&#45;ab3a&#45;04cf4b795879 -->
<g id="node27" class="node">
<title>48d8c518&#45;c8de&#45;11ee&#45;ab3a&#45;04cf4b795879</title>
<polygon fill="none" stroke="black" points="1550.17,-46.95 1498.62,-93.9 1395.54,-93.9 1344,-46.95 1395.54,0 1498.62,0 1550.17,-46.95"/>
<text text-anchor="middle" x="1447.08" y="-58.4" font-family="Times,serif" font-size="14.00">rp_23: level3 </text>
<text text-anchor="middle" x="1447.08" y="-41.9" font-family="Times,serif" font-size="14.00"> head_confirmation </text>
<text text-anchor="middle" x="1447.08" y="-25.4" font-family="Times,serif" font-size="14.00"> cost : 5</text>
</g>
<!-- 48d8baaa&#45;c8de&#45;11ee&#45;ab3a&#45;04cf4b795879&#45;&gt;48d8c518&#45;c8de&#45;11ee&#45;ab3a&#45;04cf4b795879 -->
<g id="edge26" class="edge">
<title>48d8baaa&#45;c8de&#45;11ee&#45;ab3a&#45;04cf4b795879&#45;&gt;48d8c518&#45;c8de&#45;11ee&#45;ab3a&#45;04cf4b795879</title>
<path fill="none" stroke="black" d="M1447.08,-129.66C1447.08,-122.65 1447.08,-114.12 1447.08,-105.24"/>
<polygon fill="black" stroke="black" points="1450.58,-105.32 1447.08,-95.32 1443.58,-105.32 1450.58,-105.32"/>
</g>
<!-- 48d8d5e4&#45;c8de&#45;11ee&#45;ab3a&#45;04cf4b795879 -->
<g id="node29" class="node">
<title>48d8d5e4&#45;c8de&#45;11ee&#45;ab3a&#45;04cf4b795879</title>
<polygon fill="none" stroke="black" points="1774.17,-46.95 1722.62,-93.9 1619.54,-93.9 1568,-46.95 1619.54,0 1722.62,0 1774.17,-46.95"/>
<text text-anchor="middle" x="1671.08" y="-58.4" font-family="Times,serif" font-size="14.00">rp_23: level3 </text>
<text text-anchor="middle" x="1671.08" y="-41.9" font-family="Times,serif" font-size="14.00"> head_confirmation </text>
<text text-anchor="middle" x="1671.08" y="-25.4" font-family="Times,serif" font-size="14.00"> cost : 5</text>
</g>
<!-- 48d8cca2&#45;c8de&#45;11ee&#45;ab3a&#45;04cf4b795879&#45;&gt;48d8d5e4&#45;c8de&#45;11ee&#45;ab3a&#45;04cf4b795879 -->
<g id="edge28" class="edge">
<title>48d8cca2&#45;c8de&#45;11ee&#45;ab3a&#45;04cf4b795879&#45;&gt;48d8d5e4&#45;c8de&#45;11ee&#45;ab3a&#45;04cf4b795879</title>
<path fill="none" stroke="black" d="M1627.9,-130.11C1631.82,-122.67 1636.67,-113.44 1641.69,-103.88"/>
<polygon fill="black" stroke="black" points="1645.19,-105.75 1646.74,-95.27 1638.99,-102.49 1645.19,-105.75"/>
</g>
<!-- 48d8e836&#45;c8de&#45;11ee&#45;ab3a&#45;04cf4b795879 -->
<g id="node31" class="node">
<title>48d8e836&#45;c8de&#45;11ee&#45;ab3a&#45;04cf4b795879</title>
<polygon fill="none" stroke="black" points="1413.06,-342.35 1374.07,-389.29 1296.09,-389.29 1257.11,-342.35 1296.09,-295.4 1374.07,-295.4 1413.06,-342.35"/>
<text text-anchor="middle" x="1335.08" y="-353.8" font-family="Times,serif" font-size="14.00">rp_14: level3 </text>
<text text-anchor="middle" x="1335.08" y="-337.3" font-family="Times,serif" font-size="14.00"> evaluate_risk </text>
<text text-anchor="middle" x="1335.08" y="-320.8" font-family="Times,serif" font-size="14.00"> cost : 30</text>
</g>
<!-- 48d8de5e&#45;c8de&#45;11ee&#45;ab3a&#45;04cf4b795879&#45;&gt;48d8e836&#45;c8de&#45;11ee&#45;ab3a&#45;04cf4b795879 -->
<g id="edge30" class="edge">
<title>48d8de5e&#45;c8de&#45;11ee&#45;ab3a&#45;04cf4b795879&#45;&gt;48d8e836&#45;c8de&#45;11ee&#45;ab3a&#45;04cf4b795879</title>
<path fill="none" stroke="black" d="M1311.96,-425.06C1313.99,-417.9 1316.46,-409.14 1319.04,-400.05"/>
<polygon fill="black" stroke="black" points="1322.61,-401.29 1321.96,-390.71 1315.87,-399.38 1322.61,-401.29"/>
</g>
<!-- 48d8fa1a&#45;c8de&#45;11ee&#45;ab3a&#45;04cf4b795879 -->
<g id="node33" class="node">
<title>48d8fa1a&#45;c8de&#45;11ee&#45;ab3a&#45;04cf4b795879</title>
<polygon fill="none" stroke="black" points="1587.06,-342.35 1548.07,-389.29 1470.09,-389.29 1431.11,-342.35 1470.09,-295.4 1548.07,-295.4 1587.06,-342.35"/>
<text text-anchor="middle" x="1509.08" y="-353.8" font-family="Times,serif" font-size="14.00">rp_14: level3 </text>
<text text-anchor="middle" x="1509.08" y="-337.3" font-family="Times,serif" font-size="14.00"> evaluate_risk </text>
<text text-anchor="middle" x="1509.08" y="-320.8" font-family="Times,serif" font-size="14.00"> cost : 30</text>
</g>
<!-- 48d8f024&#45;c8de&#45;11ee&#45;ab3a&#45;04cf4b795879&#45;&gt;48d8fa1a&#45;c8de&#45;11ee&#45;ab3a&#45;04cf4b795879 -->
<g id="edge32" class="edge">
<title>48d8f024&#45;c8de&#45;11ee&#45;ab3a&#45;04cf4b795879&#45;&gt;48d8fa1a&#45;c8de&#45;11ee&#45;ab3a&#45;04cf4b795879</title>
<path fill="none" stroke="black" d="M1480.18,-425.06C1482.71,-417.9 1485.81,-409.14 1489.02,-400.05"/>
<polygon fill="black" stroke="black" points="1492.65,-401.31 1492.68,-390.71 1486.05,-398.97 1492.65,-401.31"/>
</g>
</g>
</svg>
