<?xml version="1.0" encoding="UTF-8" standalone="no"?>
<!DOCTYPE svg PUBLIC "-//W3C//DTD SVG 1.1//EN"
 "http://www.w3.org/Graphics/SVG/1.1/DTD/svg11.dtd">
<!-- Generated by graphviz version 8.1.0 (20230707.0739)
 -->
<!-- Title: CallTree Pages: 1 -->
<svg width="890pt" height="563pt"
 viewBox="0.00 0.00 889.85 562.79" xmlns="http://www.w3.org/2000/svg" xmlns:xlink="http://www.w3.org/1999/xlink">
<g id="graph0" class="graph" transform="scale(1 1) rotate(0) translate(4 558.79)">
<title>CallTree</title>
<polygon fill="white" stroke="none" points="-4,4 -4,-558.79 885.85,-558.79 885.85,4 -4,4"/>
<!-- 48ce4d5e&#45;c8de&#45;11ee&#45;ab3a&#45;04cf4b795879 -->
<g id="node1" class="node">
<title>48ce4d5e&#45;c8de&#45;11ee&#45;ab3a&#45;04cf4b795879</title>
<polygon fill="none" stroke="black" points="560.26,-554.79 440.01,-554.79 440.01,-497.29 560.26,-497.29 560.26,-554.79"/>
<text text-anchor="middle" x="500.14" y="-537.49" font-family="Times,serif" font-size="14.00">a2: data_gathering </text>
<text text-anchor="middle" x="500.14" y="-520.99" font-family="Times,serif" font-size="14.00"> Type: Core </text>
<text text-anchor="middle" x="500.14" y="-504.49" font-family="Times,serif" font-size="14.00"> Direction: Core</text>
</g>
<!-- 48ce6bd6&#45;c8de&#45;11ee&#45;ab3a&#45;04cf4b795879 -->
<g id="node2" class="node">
<title>48ce6bd6&#45;c8de&#45;11ee&#45;ab3a&#45;04cf4b795879</title>
<ellipse fill="none" stroke="black" cx="287.14" cy="-443.29" rx="50.84" ry="18"/>
<text text-anchor="middle" x="287.14" y="-438.24" font-family="Times,serif" font-size="14.00">r_1: level1</text>
</g>
<!-- 48ce4d5e&#45;c8de&#45;11ee&#45;ab3a&#45;04cf4b795879&#45;&gt;48ce6bd6&#45;c8de&#45;11ee&#45;ab3a&#45;04cf4b795879 -->
<g id="edge1" class="edge">
<title>48ce4d5e&#45;c8de&#45;11ee&#45;ab3a&#45;04cf4b795879&#45;&gt;48ce6bd6&#45;c8de&#45;11ee&#45;ab3a&#45;04cf4b795879</title>
<path fill="none" stroke="black" d="M439.67,-502.12C405.08,-489.01 362.48,-472.86 331.09,-460.96"/>
<polygon fill="black" stroke="black" points="332.5,-457.37 321.91,-457.1 330.02,-463.91 332.5,-457.37"/>
</g>
<!-- 48ceb212&#45;c8de&#45;11ee&#45;ab3a&#45;04cf4b795879 -->
<g id="node9" class="node">
<title>48ceb212&#45;c8de&#45;11ee&#45;ab3a&#45;04cf4b795879</title>
<ellipse fill="none" stroke="black" cx="440.14" cy="-443.29" rx="50.84" ry="18"/>
<text text-anchor="middle" x="440.14" y="-438.24" font-family="Times,serif" font-size="14.00">r_6: level1</text>
</g>
<!-- 48ce4d5e&#45;c8de&#45;11ee&#45;ab3a&#45;04cf4b795879&#45;&gt;48ceb212&#45;c8de&#45;11ee&#45;ab3a&#45;04cf4b795879 -->
<g id="edge8" class="edge">
<title>48ce4d5e&#45;c8de&#45;11ee&#45;ab3a&#45;04cf4b795879&#45;&gt;48ceb212&#45;c8de&#45;11ee&#45;ab3a&#45;04cf4b795879</title>
<path fill="none" stroke="black" d="M479.15,-496.8C472.53,-487.89 465.26,-478.11 458.82,-469.43"/>
<polygon fill="black" stroke="black" points="461.23,-467.81 452.45,-461.87 455.61,-471.98 461.23,-467.81"/>
</g>
<!-- 48ceefc0&#45;c8de&#45;11ee&#45;ab3a&#45;04cf4b795879 -->
<g id="node16" class="node">
<title>48ceefc0&#45;c8de&#45;11ee&#45;ab3a&#45;04cf4b795879</title>
<ellipse fill="none" stroke="black" cx="593.14" cy="-443.29" rx="50.84" ry="18"/>
<text text-anchor="middle" x="593.14" y="-438.24" font-family="Times,serif" font-size="14.00">r_2: level2</text>
</g>
<!-- 48ce4d5e&#45;c8de&#45;11ee&#45;ab3a&#45;04cf4b795879&#45;&gt;48ceefc0&#45;c8de&#45;11ee&#45;ab3a&#45;04cf4b795879 -->
<g id="edge15" class="edge">
<title>48ce4d5e&#45;c8de&#45;11ee&#45;ab3a&#45;04cf4b795879&#45;&gt;48ceefc0&#45;c8de&#45;11ee&#45;ab3a&#45;04cf4b795879</title>
<path fill="none" stroke="black" d="M532.67,-496.8C543.74,-487.18 555.98,-476.55 566.54,-467.39"/>
<polygon fill="black" stroke="black" points="568.33,-469.6 573.59,-460.4 563.75,-464.31 568.33,-469.6"/>
</g>
<!-- 48cefff6&#45;c8de&#45;11ee&#45;ab3a&#45;04cf4b795879 -->
<g id="node18" class="node">
<title>48cefff6&#45;c8de&#45;11ee&#45;ab3a&#45;04cf4b795879</title>
<ellipse fill="none" stroke="black" cx="763.14" cy="-443.29" rx="50.84" ry="18"/>
<text text-anchor="middle" x="763.14" y="-438.24" font-family="Times,serif" font-size="14.00">r_4: level2</text>
</g>
<!-- 48ce4d5e&#45;c8de&#45;11ee&#45;ab3a&#45;04cf4b795879&#45;&gt;48cefff6&#45;c8de&#45;11ee&#45;ab3a&#45;04cf4b795879 -->
<g id="edge17" class="edge">
<title>48ce4d5e&#45;c8de&#45;11ee&#45;ab3a&#45;04cf4b795879&#45;&gt;48cefff6&#45;c8de&#45;11ee&#45;ab3a&#45;04cf4b795879</title>
<path fill="none" stroke="black" d="M560.48,-506.52C607.55,-492.07 672.03,-472.27 715.52,-458.92"/>
<polygon fill="black" stroke="black" points="716.29,-462.03 724.82,-455.75 714.24,-455.34 716.29,-462.03"/>
</g>
<!-- 48ce7658&#45;c8de&#45;11ee&#45;ab3a&#45;04cf4b795879 -->
<g id="node3" class="node">
<title>48ce7658&#45;c8de&#45;11ee&#45;ab3a&#45;04cf4b795879</title>
<polygon fill="none" stroke="black" points="320.85,-342.35 278.49,-389.29 193.78,-389.29 151.43,-342.35 193.78,-295.4 278.49,-295.4 320.85,-342.35"/>
<text text-anchor="middle" x="236.14" y="-353.8" font-family="Times,serif" font-size="14.00">rp_2: level1 </text>
<text text-anchor="middle" x="236.14" y="-337.3" font-family="Times,serif" font-size="14.00"> data_gathering </text>
<text text-anchor="middle" x="236.14" y="-320.8" font-family="Times,serif" font-size="14.00"> cost : 10</text>
</g>
<!-- 48ce6bd6&#45;c8de&#45;11ee&#45;ab3a&#45;04cf4b795879&#45;&gt;48ce7658&#45;c8de&#45;11ee&#45;ab3a&#45;04cf4b795879 -->
<g id="edge2" class="edge">
<title>48ce6bd6&#45;c8de&#45;11ee&#45;ab3a&#45;04cf4b795879&#45;&gt;48ce7658&#45;c8de&#45;11ee&#45;ab3a&#45;04cf4b795879</title>
<path fill="none" stroke="black" d="M278.49,-425.51C274.65,-418.07 269.89,-408.83 264.97,-399.28"/>
<polygon fill="black" stroke="black" points="267.7,-397.95 260.01,-390.66 261.48,-401.16 267.7,-397.95"/>
</g>
<!-- 48ce7fea&#45;c8de&#45;11ee&#45;ab3a&#45;04cf4b795879 -->
<g id="node4" class="node">
<title>48ce7fea&#45;c8de&#45;11ee&#45;ab3a&#45;04cf4b795879</title>
<polygon fill="none" stroke="black" points="292.51,-259.4 179.76,-259.4 179.76,-201.9 292.51,-201.9 292.51,-259.4"/>
<text text-anchor="middle" x="236.14" y="-242.1" font-family="Times,serif" font-size="14.00">r1: data_support </text>
<text text-anchor="middle" x="236.14" y="-225.6" font-family="Times,serif" font-size="14.00"> Type: insert </text>
<text text-anchor="middle" x="236.14" y="-209.1" font-family="Times,serif" font-size="14.00"> Direction: before</text>
</g>
<!-- 48ce7658&#45;c8de&#45;11ee&#45;ab3a&#45;04cf4b795879&#45;&gt;48ce7fea&#45;c8de&#45;11ee&#45;ab3a&#45;04cf4b795879 -->
<g id="edge3" class="edge">
<title>48ce7658&#45;c8de&#45;11ee&#45;ab3a&#45;04cf4b795879&#45;&gt;48ce7fea&#45;c8de&#45;11ee&#45;ab3a&#45;04cf4b795879</title>
<path fill="none" stroke="black" d="M236.14,-295.14C236.14,-286.94 236.14,-278.48 236.14,-270.51"/>
<polygon fill="black" stroke="black" points="239.64,-270.65 236.14,-260.65 232.64,-270.65 239.64,-270.65"/>
</g>
<!-- 48ce8c7e&#45;c8de&#45;11ee&#45;ab3a&#45;04cf4b795879 -->
<g id="node5" class="node">
<title>48ce8c7e&#45;c8de&#45;11ee&#45;ab3a&#45;04cf4b795879</title>
<ellipse fill="none" stroke="black" cx="97.14" cy="-147.9" rx="50.84" ry="18"/>
<text text-anchor="middle" x="97.14" y="-142.85" font-family="Times,serif" font-size="14.00">r_2: level2</text>
</g>
<!-- 48ce7fea&#45;c8de&#45;11ee&#45;ab3a&#45;04cf4b795879&#45;&gt;48ce8c7e&#45;c8de&#45;11ee&#45;ab3a&#45;04cf4b795879 -->
<g id="edge4" class="edge">
<title>48ce7fea&#45;c8de&#45;11ee&#45;ab3a&#45;04cf4b795879&#45;&gt;48ce8c7e&#45;c8de&#45;11ee&#45;ab3a&#45;04cf4b795879</title>
<path fill="none" stroke="black" d="M187.52,-201.4C169.33,-190.84 149.03,-179.04 132.29,-169.32"/>
<polygon fill="black" stroke="black" points="134.29,-165.85 123.88,-163.85 130.77,-171.9 134.29,-165.85"/>
</g>
<!-- 48ce9ff2&#45;c8de&#45;11ee&#45;ab3a&#45;04cf4b795879 -->
<g id="node7" class="node">
<title>48ce9ff2&#45;c8de&#45;11ee&#45;ab3a&#45;04cf4b795879</title>
<ellipse fill="none" stroke="black" cx="238.14" cy="-147.9" rx="50.84" ry="18"/>
<text text-anchor="middle" x="238.14" y="-142.85" font-family="Times,serif" font-size="14.00">r_4: level2</text>
</g>
<!-- 48ce7fea&#45;c8de&#45;11ee&#45;ab3a&#45;04cf4b795879&#45;&gt;48ce9ff2&#45;c8de&#45;11ee&#45;ab3a&#45;04cf4b795879 -->
<g id="edge6" class="edge">
<title>48ce7fea&#45;c8de&#45;11ee&#45;ab3a&#45;04cf4b795879&#45;&gt;48ce9ff2&#45;c8de&#45;11ee&#45;ab3a&#45;04cf4b795879</title>
<path fill="none" stroke="black" d="M236.84,-201.4C237.03,-193.46 237.25,-184.82 237.44,-176.89"/>
<polygon fill="black" stroke="black" points="240.97,-177.03 237.72,-166.94 233.97,-176.85 240.97,-177.03"/>
</g>
<!-- 48ce9732&#45;c8de&#45;11ee&#45;ab3a&#45;04cf4b795879 -->
<g id="node6" class="node">
<title>48ce9732&#45;c8de&#45;11ee&#45;ab3a&#45;04cf4b795879</title>
<polygon fill="none" stroke="black" points="152.28,-46.95 114.21,-93.9 38.07,-93.9 0,-46.95 38.07,0 114.21,0 152.28,-46.95"/>
<text text-anchor="middle" x="76.14" y="-58.4" font-family="Times,serif" font-size="14.00">rp_20: level2 </text>
<text text-anchor="middle" x="76.14" y="-41.9" font-family="Times,serif" font-size="14.00"> data_support </text>
<text text-anchor="middle" x="76.14" y="-25.4" font-family="Times,serif" font-size="14.00"> cost : 9</text>
</g>
<!-- 48ce8c7e&#45;c8de&#45;11ee&#45;ab3a&#45;04cf4b795879&#45;&gt;48ce9732&#45;c8de&#45;11ee&#45;ab3a&#45;04cf4b795879 -->
<g id="edge5" class="edge">
<title>48ce8c7e&#45;c8de&#45;11ee&#45;ab3a&#45;04cf4b795879&#45;&gt;48ce9732&#45;c8de&#45;11ee&#45;ab3a&#45;04cf4b795879</title>
<path fill="none" stroke="black" d="M93.48,-129.66C91.98,-122.58 90.14,-113.93 88.24,-104.95"/>
<polygon fill="black" stroke="black" points="91.48,-104.37 85.98,-95.32 84.63,-105.83 91.48,-104.37"/>
</g>
<!-- 48ceaa10&#45;c8de&#45;11ee&#45;ab3a&#45;04cf4b795879 -->
<g id="node8" class="node">
<title>48ceaa10&#45;c8de&#45;11ee&#45;ab3a&#45;04cf4b795879</title>
<polygon fill="none" stroke="black" points="322.28,-46.95 284.21,-93.9 208.07,-93.9 170,-46.95 208.07,0 284.21,0 322.28,-46.95"/>
<text text-anchor="middle" x="246.14" y="-58.4" font-family="Times,serif" font-size="14.00">rp_20: level2 </text>
<text text-anchor="middle" x="246.14" y="-41.9" font-family="Times,serif" font-size="14.00"> data_support </text>
<text text-anchor="middle" x="246.14" y="-25.4" font-family="Times,serif" font-size="14.00"> cost : 8</text>
</g>
<!-- 48ce9ff2&#45;c8de&#45;11ee&#45;ab3a&#45;04cf4b795879&#45;&gt;48ceaa10&#45;c8de&#45;11ee&#45;ab3a&#45;04cf4b795879 -->
<g id="edge7" class="edge">
<title>48ce9ff2&#45;c8de&#45;11ee&#45;ab3a&#45;04cf4b795879&#45;&gt;48ceaa10&#45;c8de&#45;11ee&#45;ab3a&#45;04cf4b795879</title>
<path fill="none" stroke="black" d="M239.53,-129.66C240.1,-122.65 240.79,-114.12 241.51,-105.24"/>
<polygon fill="black" stroke="black" points="245.07,-105.57 242.39,-95.32 238.09,-105 245.07,-105.57"/>
</g>
<!-- 48cebafa&#45;c8de&#45;11ee&#45;ab3a&#45;04cf4b795879 -->
<g id="node10" class="node">
<title>48cebafa&#45;c8de&#45;11ee&#45;ab3a&#45;04cf4b795879</title>
<polygon fill="none" stroke="black" points="507.85,-342.35 465.49,-389.29 380.78,-389.29 338.43,-342.35 380.78,-295.4 465.49,-295.4 507.85,-342.35"/>
<text text-anchor="middle" x="423.14" y="-353.8" font-family="Times,serif" font-size="14.00">rp_2: level1 </text>
<text text-anchor="middle" x="423.14" y="-337.3" font-family="Times,serif" font-size="14.00"> data_gathering </text>
<text text-anchor="middle" x="423.14" y="-320.8" font-family="Times,serif" font-size="14.00"> cost : 10</text>
</g>
<!-- 48ceb212&#45;c8de&#45;11ee&#45;ab3a&#45;04cf4b795879&#45;&gt;48cebafa&#45;c8de&#45;11ee&#45;ab3a&#45;04cf4b795879 -->
<g id="edge9" class="edge">
<title>48ceb212&#45;c8de&#45;11ee&#45;ab3a&#45;04cf4b795879&#45;&gt;48cebafa&#45;c8de&#45;11ee&#45;ab3a&#45;04cf4b795879</title>
<path fill="none" stroke="black" d="M437.18,-425.06C435.96,-417.97 434.47,-409.33 432.93,-400.34"/>
<polygon fill="black" stroke="black" points="436.25,-399.98 431.1,-390.71 429.35,-401.16 436.25,-399.98"/>
</g>
<!-- 48cec22a&#45;c8de&#45;11ee&#45;ab3a&#45;04cf4b795879 -->
<g id="node11" class="node">
<title>48cec22a&#45;c8de&#45;11ee&#45;ab3a&#45;04cf4b795879</title>
<polygon fill="none" stroke="black" points="479.51,-259.4 366.76,-259.4 366.76,-201.9 479.51,-201.9 479.51,-259.4"/>
<text text-anchor="middle" x="423.14" y="-242.1" font-family="Times,serif" font-size="14.00">r1: data_support </text>
<text text-anchor="middle" x="423.14" y="-225.6" font-family="Times,serif" font-size="14.00"> Type: insert </text>
<text text-anchor="middle" x="423.14" y="-209.1" font-family="Times,serif" font-size="14.00"> Direction: before</text>
</g>
<!-- 48cebafa&#45;c8de&#45;11ee&#45;ab3a&#45;04cf4b795879&#45;&gt;48cec22a&#45;c8de&#45;11ee&#45;ab3a&#45;04cf4b795879 -->
<g id="edge10" class="edge">
<title>48cebafa&#45;c8de&#45;11ee&#45;ab3a&#45;04cf4b795879&#45;&gt;48cec22a&#45;c8de&#45;11ee&#45;ab3a&#45;04cf4b795879</title>
<path fill="none" stroke="black" d="M423.14,-295.14C423.14,-286.94 423.14,-278.48 423.14,-270.51"/>
<polygon fill="black" stroke="black" points="426.64,-270.65 423.14,-260.65 419.64,-270.65 426.64,-270.65"/>
</g>
<!-- 48cecf36&#45;c8de&#45;11ee&#45;ab3a&#45;04cf4b795879 -->
<g id="node12" class="node">
<title>48cecf36&#45;c8de&#45;11ee&#45;ab3a&#45;04cf4b795879</title>
<ellipse fill="none" stroke="black" cx="421.14" cy="-147.9" rx="50.84" ry="18"/>
<text text-anchor="middle" x="421.14" y="-142.85" font-family="Times,serif" font-size="14.00">r_2: level2</text>
</g>
<!-- 48cec22a&#45;c8de&#45;11ee&#45;ab3a&#45;04cf4b795879&#45;&gt;48cecf36&#45;c8de&#45;11ee&#45;ab3a&#45;04cf4b795879 -->
<g id="edge11" class="edge">
<title>48cec22a&#45;c8de&#45;11ee&#45;ab3a&#45;04cf4b795879&#45;&gt;48cecf36&#45;c8de&#45;11ee&#45;ab3a&#45;04cf4b795879</title>
<path fill="none" stroke="black" d="M422.44,-201.4C422.24,-193.46 422.03,-184.82 421.83,-176.89"/>
<polygon fill="black" stroke="black" points="425.31,-176.85 421.56,-166.94 418.31,-177.03 425.31,-176.85"/>
</g>
<!-- 48cedf94&#45;c8de&#45;11ee&#45;ab3a&#45;04cf4b795879 -->
<g id="node14" class="node">
<title>48cedf94&#45;c8de&#45;11ee&#45;ab3a&#45;04cf4b795879</title>
<ellipse fill="none" stroke="black" cx="566.14" cy="-147.9" rx="50.84" ry="18"/>
<text text-anchor="middle" x="566.14" y="-142.85" font-family="Times,serif" font-size="14.00">r_4: level2</text>
</g>
<!-- 48cec22a&#45;c8de&#45;11ee&#45;ab3a&#45;04cf4b795879&#45;&gt;48cedf94&#45;c8de&#45;11ee&#45;ab3a&#45;04cf4b795879 -->
<g id="edge13" class="edge">
<title>48cec22a&#45;c8de&#45;11ee&#45;ab3a&#45;04cf4b795879&#45;&gt;48cedf94&#45;c8de&#45;11ee&#45;ab3a&#45;04cf4b795879</title>
<path fill="none" stroke="black" d="M473.15,-201.4C492.18,-190.66 513.45,-178.65 530.83,-168.83"/>
<polygon fill="black" stroke="black" points="532.07,-171.59 539.06,-163.63 528.63,-165.5 532.07,-171.59"/>
</g>
<!-- 48ced86e&#45;c8de&#45;11ee&#45;ab3a&#45;04cf4b795879 -->
<g id="node13" class="node">
<title>48ced86e&#45;c8de&#45;11ee&#45;ab3a&#45;04cf4b795879</title>
<polygon fill="none" stroke="black" points="496.28,-46.95 458.21,-93.9 382.07,-93.9 344,-46.95 382.07,0 458.21,0 496.28,-46.95"/>
<text text-anchor="middle" x="420.14" y="-58.4" font-family="Times,serif" font-size="14.00">rp_20: level2 </text>
<text text-anchor="middle" x="420.14" y="-41.9" font-family="Times,serif" font-size="14.00"> data_support </text>
<text text-anchor="middle" x="420.14" y="-25.4" font-family="Times,serif" font-size="14.00"> cost : 9</text>
</g>
<!-- 48cecf36&#45;c8de&#45;11ee&#45;ab3a&#45;04cf4b795879&#45;&gt;48ced86e&#45;c8de&#45;11ee&#45;ab3a&#45;04cf4b795879 -->
<g id="edge12" class="edge">
<title>48cecf36&#45;c8de&#45;11ee&#45;ab3a&#45;04cf4b795879&#45;&gt;48ced86e&#45;c8de&#45;11ee&#45;ab3a&#45;04cf4b795879</title>
<path fill="none" stroke="black" d="M420.96,-129.66C420.89,-122.65 420.81,-114.12 420.72,-105.24"/>
<polygon fill="black" stroke="black" points="424.21,-105.28 420.61,-95.32 417.21,-105.35 424.21,-105.28"/>
</g>
<!-- 48cee872&#45;c8de&#45;11ee&#45;ab3a&#45;04cf4b795879 -->
<g id="node15" class="node">
<title>48cee872&#45;c8de&#45;11ee&#45;ab3a&#45;04cf4b795879</title>
<polygon fill="none" stroke="black" points="666.28,-46.95 628.21,-93.9 552.07,-93.9 514,-46.95 552.07,0 628.21,0 666.28,-46.95"/>
<text text-anchor="middle" x="590.14" y="-58.4" font-family="Times,serif" font-size="14.00">rp_20: level2 </text>
<text text-anchor="middle" x="590.14" y="-41.9" font-family="Times,serif" font-size="14.00"> data_support </text>
<text text-anchor="middle" x="590.14" y="-25.4" font-family="Times,serif" font-size="14.00"> cost : 8</text>
</g>
<!-- 48cedf94&#45;c8de&#45;11ee&#45;ab3a&#45;04cf4b795879&#45;&gt;48cee872&#45;c8de&#45;11ee&#45;ab3a&#45;04cf4b795879 -->
<g id="edge14" class="edge">
<title>48cedf94&#45;c8de&#45;11ee&#45;ab3a&#45;04cf4b795879&#45;&gt;48cee872&#45;c8de&#45;11ee&#45;ab3a&#45;04cf4b795879</title>
<path fill="none" stroke="black" d="M570.32,-129.66C572.04,-122.58 574.13,-113.93 576.31,-104.95"/>
<polygon fill="black" stroke="black" points="579.94,-105.86 578.89,-95.32 573.13,-104.21 579.94,-105.86"/>
</g>
<!-- 48cef8ee&#45;c8de&#45;11ee&#45;ab3a&#45;04cf4b795879 -->
<g id="node17" class="node">
<title>48cef8ee&#45;c8de&#45;11ee&#45;ab3a&#45;04cf4b795879</title>
<polygon fill="none" stroke="black" points="694.85,-342.35 652.49,-389.29 567.78,-389.29 525.43,-342.35 567.78,-295.4 652.49,-295.4 694.85,-342.35"/>
<text text-anchor="middle" x="610.14" y="-353.8" font-family="Times,serif" font-size="14.00">rp_7: level2 </text>
<text text-anchor="middle" x="610.14" y="-337.3" font-family="Times,serif" font-size="14.00"> data_gathering </text>
<text text-anchor="middle" x="610.14" y="-320.8" font-family="Times,serif" font-size="14.00"> cost : 20</text>
</g>
<!-- 48ceefc0&#45;c8de&#45;11ee&#45;ab3a&#45;04cf4b795879&#45;&gt;48cef8ee&#45;c8de&#45;11ee&#45;ab3a&#45;04cf4b795879 -->
<g id="edge16" class="edge">
<title>48ceefc0&#45;c8de&#45;11ee&#45;ab3a&#45;04cf4b795879&#45;&gt;48cef8ee&#45;c8de&#45;11ee&#45;ab3a&#45;04cf4b795879</title>
<path fill="none" stroke="black" d="M596.1,-425.06C597.32,-417.97 598.8,-409.33 600.35,-400.34"/>
<polygon fill="black" stroke="black" points="603.93,-401.16 602.17,-390.71 597.03,-399.98 603.93,-401.16"/>
</g>
<!-- 48cf0866&#45;c8de&#45;11ee&#45;ab3a&#45;04cf4b795879 -->
<g id="node19" class="node">
<title>48cf0866&#45;c8de&#45;11ee&#45;ab3a&#45;04cf4b795879</title>
<polygon fill="none" stroke="black" points="881.85,-342.35 839.49,-389.29 754.78,-389.29 712.43,-342.35 754.78,-295.4 839.49,-295.4 881.85,-342.35"/>
<text text-anchor="middle" x="797.14" y="-353.8" font-family="Times,serif" font-size="14.00">rp_7: level2 </text>
<text text-anchor="middle" x="797.14" y="-337.3" font-family="Times,serif" font-size="14.00"> data_gathering </text>
<text text-anchor="middle" x="797.14" y="-320.8" font-family="Times,serif" font-size="14.00"> cost : 20</text>
</g>
<!-- 48cefff6&#45;c8de&#45;11ee&#45;ab3a&#45;04cf4b795879&#45;&gt;48cf0866&#45;c8de&#45;11ee&#45;ab3a&#45;04cf4b795879 -->
<g id="edge18" class="edge">
<title>48cefff6&#45;c8de&#45;11ee&#45;ab3a&#45;04cf4b795879&#45;&gt;48cf0866&#45;c8de&#45;11ee&#45;ab3a&#45;04cf4b795879</title>
<path fill="none" stroke="black" d="M769.06,-425.06C771.52,-417.9 774.53,-409.14 777.65,-400.05"/>
<polygon fill="black" stroke="black" points="781.27,-401.31 781.21,-390.71 774.65,-399.03 781.27,-401.31"/>
</g>
</g>
</svg>
